<svg width="17" height="98" viewBox="0 0 17 98" fill="none" xmlns="http://www.w3.org/2000/svg">
<line x1="8.50586" y1="6.55671e-08" x2="8.50585" y2="84.6328" stroke="#88ABED" stroke-dasharray="6 6"/>
<path d="M9.00287 92.0076L13.005 87.9984C13.0713 87.9326 13.124 87.8542 13.16 87.7679C13.196 87.6816 13.2145 87.589 13.2145 87.4955C13.2145 87.402 13.196 87.3094 13.16 87.2231C13.124 87.1368 13.0713 87.0584 13.005 86.9926C12.8722 86.8607 12.6927 86.7866 12.5056 86.7866C12.3184 86.7866 12.1389 86.8607 12.0062 86.9926L8.46454 90.4988L4.95829 86.9926C4.82557 86.8607 4.64604 86.7866 4.45891 86.7866C4.27178 86.7866 4.09225 86.8607 3.95954 86.9926C3.89261 87.0582 3.83936 87.1364 3.80289 87.2228C3.76641 87.3091 3.74743 87.4018 3.74704 87.4955C3.74743 87.5892 3.76641 87.6819 3.80289 87.7683C3.83936 87.8546 3.89261 87.9328 3.95954 87.9984L7.96162 92.0076C8.02795 92.0795 8.10845 92.1369 8.19806 92.1761C8.28766 92.2154 8.38442 92.2356 8.48225 92.2356C8.58007 92.2356 8.67683 92.2154 8.76643 92.1761C8.85604 92.1369 8.93654 92.0795 9.00287 92.0076Z" fill="#88ABED"/>
</svg>
