<svg width="1920" height="745" viewBox="0 0 1920 745" fill="none" xmlns="http://www.w3.org/2000/svg">
<path d="M0 745H1920V321.712C1790.99 338.451 1796.79 272.734 1817.6 197.871C1822.6 123.784 1769.86 74.6513 1623.92 135.254C1521.36 177.877 1425.73 195.392 1303.65 143.779C1209.31 104.1 1120.94 127.504 1052.24 205.001C985.157 280.638 909.041 297.843 808.251 254.909C712.622 199.266 678.757 263.279 489.756 338.916C300.756 414.553 129.494 356.12 0 269.169V745Z" fill="url(#paint0_linear_527_11)"/>
<path d="M1920 637H0V213.712C129.011 230.451 123.205 164.734 102.402 89.8715C97.403 15.7844 150.136 -33.3487 296.079 27.254C398.643 69.8773 494.272 87.3916 616.348 35.7786C710.687 -3.89982 799.059 19.5043 867.757 97.0012C934.843 172.638 1010.96 189.843 1111.75 146.909C1207.38 91.2664 1241.24 155.279 1430.24 230.916C1619.24 306.553 1790.51 248.12 1920 161.169V637Z" fill="url(#paint1_linear_527_11)"/>
<defs>
<linearGradient id="paint0_linear_527_11" x1="960" y1="108" x2="960" y2="605.743" gradientUnits="userSpaceOnUse">
<stop stop-color="#DDE7FF"/>
<stop offset="1" stop-color="#B8CBFC"/>
</linearGradient>
<linearGradient id="paint1_linear_527_11" x1="960" y1="0" x2="960" y2="497.743" gradientUnits="userSpaceOnUse">
<stop stop-color="#DDE7FF"/>
<stop offset="1" stop-color="#B8CBFC"/>
</linearGradient>
</defs>
</svg>
