<svg width="1920" height="905" viewBox="0 0 1920 905" fill="none" preserveAspectRatio="none" xmlns="http://www.w3.org/2000/svg">
<path d="M2248 774.232H0V259.752C151.05 280.098 144.253 200.223 119.896 109.233C114.043 19.1849 175.784 -40.5331 346.66 33.1254C466.744 84.9312 578.71 106.219 721.641 43.4866C832.096 -4.73998 935.565 23.7061 1016 117.899C1094.55 209.83 1183.66 230.741 1301.67 178.559C1413.64 110.928 1453.29 188.731 1674.58 280.663C1895.87 372.595 2096.38 301.574 2248 195.89V774.232Z" fill="url(#paint0_linear_358_831)"/>
<path d="M0 905H2248V390.521C2096.95 410.867 2103.75 330.991 2128.1 240.001C2133.96 149.953 2072.22 90.2355 1901.34 163.894C1781.26 215.7 1669.29 236.987 1526.36 174.255C1415.9 126.029 1312.43 154.475 1232 248.667C1153.45 340.599 1064.34 361.51 946.327 309.327C834.362 241.697 794.711 319.5 573.423 411.432C352.135 503.364 151.616 432.342 0 326.659V905Z" fill="url(#paint1_linear_358_831)"/>
<defs>
<linearGradient id="paint0_linear_358_831" x1="1124" y1="0" x2="1124" y2="604.974" gradientUnits="userSpaceOnUse">
<stop stop-color="#DDE7FF"/>
<stop offset="1" stop-color="#B8CBFC"/>
</linearGradient>
<linearGradient id="paint1_linear_358_831" x1="1124" y1="130.769" x2="1124" y2="735.743" gradientUnits="userSpaceOnUse">
<stop stop-color="#DDE7FF"/>
<stop offset="1" stop-color="#B8CBFC"/>
</linearGradient>
</defs>
</svg>
