<svg width="174" height="115" viewBox="0 0 174 115" fill="none" xmlns="http://www.w3.org/2000/svg">
<g clip-path="url(#clip0_1_944)">
<path fill-rule="evenodd" clip-rule="evenodd" d="M104.574 74.8937H115.66V91.3037H104.574V74.8937ZM101.71 72.3857V91.3253H99.0195V69.2074C104.422 67.9534 105.029 64.9914 105.919 64.3428C106.461 66.3751 110.475 69.2074 113.642 69.2074C117.721 69.2074 120.281 68.0832 122.559 64.6887C123.102 65.0563 123.449 65.7914 123.948 66.3319C127.658 70.3533 135.23 70.6128 139.2 64.6887C139.699 65.013 140.155 65.813 140.589 66.3103C141.782 67.7156 144.711 69.2074 146.924 69.2074C150.178 69.2074 152.413 68.6237 154.712 66.2454C155.103 65.8346 155.862 64.9049 156.014 64.3644C156.708 64.8833 156.947 66.1806 158.791 67.4562C160.158 68.3859 161.091 68.8183 162.892 69.2291V91.3469H118.524V72.4073C118.524 72.0181 118.415 71.91 118.025 71.91H102.23C101.818 71.8884 101.71 71.9965 101.71 72.3857ZM131.802 66.3535C129.632 66.3535 127.658 66.2238 125.879 64.2131C123.579 61.6186 124.208 59.7592 124.252 58.1377H137.703C137.725 58.916 137.877 58.6998 137.877 59.3052C137.877 62.0078 136.445 64.4293 134.362 65.5103C133.754 65.813 132.67 66.3535 131.802 66.3535ZM157.034 58.1377H170.811C171.635 59.8673 171.006 62.8726 169.422 64.4725C166.602 67.3481 161.243 66.9805 159.073 63.6509C158.054 62.0943 157.533 59.2836 157.034 58.1377ZM141.044 58.1377H153.649C155.559 58.1377 154.127 66.3535 148.095 66.3535C145.34 66.3535 143.886 65.8562 142.172 63.7158C141.261 62.5915 139.894 58.1377 141.044 58.1377ZM114.836 66.3535C112.276 66.3535 110.497 65.8346 108.826 63.6293C107.719 62.1591 106.982 60.1268 107.936 58.1377H121.388C120.867 60.3646 121.453 61.6186 119.674 63.8023C119.088 64.5158 118.524 65.0779 117.7 65.5103C116.94 65.9211 115.986 66.3535 114.836 66.3535ZM98.1733 66.3535C95.917 66.3535 94.4417 66.4616 92.489 64.4725C90.9269 62.8726 90.2761 59.8673 91.1005 58.1377H104.877C104.574 59.3917 103.489 62.5699 102.903 63.5428C102.122 64.8401 100.213 66.3535 98.1733 66.3535ZM124.903 51.4353C125.38 51.5434 125.488 51.6515 126.009 51.8461C128.612 52.7542 131.889 52.8839 134.579 52.2136L136.987 51.4353C137.009 51.9974 137.117 52.5379 137.161 53.2731C137.226 53.9865 137.312 54.3541 137.312 55.3054H124.534C124.577 53.8784 124.881 52.5812 124.903 51.4353ZM143.062 47.0896C151.393 47.0896 150.547 46.4409 151.219 48.8408C151.458 49.7057 151.61 50.1813 151.87 51.0461C152.283 52.4947 152.803 53.8784 153.15 55.3054H140.697C140.024 55.154 140.22 55.1324 140.046 52.9487C140.003 52.3217 139.742 50.5705 139.807 50.0948C139.829 49.9002 139.786 49.9651 139.981 49.7273L141.348 48.5814C141.695 48.1922 142.563 47.0896 143.062 47.0896ZM108.783 55.3054L110.67 48.9706C111.364 46.4409 110.475 47.0896 118.871 47.0896C119.283 47.0896 122.104 49.9651 122.104 49.9651C122.256 50.5056 121.8 53.1217 121.735 53.9649C121.692 54.7865 121.93 55.0459 121.344 55.2621C120.997 55.3919 110.149 55.3054 108.783 55.3054ZM153.671 47.0896H164.758L169.292 55.3054H156.188L153.671 47.0896ZM105.745 55.3054H92.6409L97.1753 47.0896H108.262L105.745 55.3054ZM100.538 33.3389H115.66C115.66 36.7333 115.378 39.5872 116.615 42.7654C116.853 43.3924 117.114 43.4573 117.157 44.2356H100.516V33.3389H100.538ZM144.754 44.2356C144.819 43.5222 145.036 43.4357 145.253 42.8952C146.728 39.4575 146.273 34.3983 146.273 30.5066C147.748 30.8525 149.701 30.8957 151.263 32.7335C153.693 35.5658 153.606 39.5223 151.523 41.7925C151.371 41.9655 151.263 42.0952 151.133 42.2249C151.111 42.2465 151.068 42.2898 151.046 42.3114C149.093 44.2573 147.227 44.2356 144.754 44.2356ZM118.524 30.5066V27.8256H143.409V30.5066C143.734 31.0255 143.583 34.1172 143.583 34.8739C143.604 36.1063 143.583 35.782 143.409 36.0414C143.409 38.4197 143.301 40.0412 142.628 41.7925C139.894 48.7543 131.91 51.7164 125.597 48.603C122.755 47.2193 120.52 44.7978 119.327 41.7925C118.632 40.0412 118.546 38.4413 118.546 36.0414C118.437 35.8685 118.459 36.0198 118.394 35.6955L118.372 31.6741C118.329 30.1606 118.394 30.7228 118.524 30.5066ZM155.168 33.3389H161.395V44.2356H153.324C154.148 42.679 156.014 41.4898 156.014 37.2089C156.014 36.1279 155.494 34.074 155.168 33.3389ZM115.66 30.5066H97.6743V44.2356C95.1142 44.2356 95.6783 43.6303 93.5304 47.6517C93.1399 48.3652 92.8796 48.7976 92.5324 49.4894C91.0354 52.4298 87.9329 56.5161 87.9329 59.6511C87.9329 61.4024 87.998 62.4402 88.7791 64.0185C89.2998 65.0563 89.6252 65.6184 90.493 66.4832C91.3609 67.3481 91.7514 67.6508 92.9229 68.2561C93.7474 68.6885 95.0274 69.1858 96.1773 69.2074V91.3253H93.487V94.1792H168.468V91.3253H165.777V69.2074C169.856 69.121 174.022 64.8401 174.022 60.8403C174.022 58.1377 173.892 57.6404 172.677 55.3054C172.481 54.9595 172.351 54.7649 172.178 54.4622C171.982 54.1379 171.852 53.8136 171.657 53.4676L167.969 46.9166C166.19 43.8465 167.231 44.2356 164.259 44.2356V30.5066H153.324C152.825 30.5066 150.547 27.6526 146.273 27.6526V24.9717H115.682V30.5066H115.66Z" fill="black"/>
<path fill-rule="evenodd" clip-rule="evenodd" d="M118.524 36.0415H143.409V30.5066H118.524V36.0415Z" fill="#2D4EA0"/>
<path fill-rule="evenodd" clip-rule="evenodd" d="M143.409 36.0415C143.583 35.7604 143.583 36.0847 143.583 34.874C143.583 34.1389 143.756 31.0471 143.409 30.5066V36.0415Z" fill="#4A3A1D"/>
<path fill-rule="evenodd" clip-rule="evenodd" d="M118.524 36.0415V30.5066C118.394 30.7228 118.329 30.1607 118.35 31.6741L118.372 35.6955C118.437 35.9982 118.415 35.8685 118.524 36.0415Z" fill="#4A3A1D"/>
<path fill-rule="evenodd" clip-rule="evenodd" d="M129.654 72.8398H157.294V86.7419H129.654V72.8398Z" fill="black"/>
<path fill-rule="evenodd" clip-rule="evenodd" d="M132.344 75.6504H137.898V78.2665H132.344V75.6504Z" fill="#2D4EA0"/>
<path fill-rule="evenodd" clip-rule="evenodd" d="M140.697 75.6504H146.251V78.2665H140.697V75.6504Z" fill="#2D4EA0"/>
<path fill-rule="evenodd" clip-rule="evenodd" d="M149.006 75.6504H154.539V78.2665H149.006V75.6504Z" fill="#2D4EA0"/>
<path fill-rule="evenodd" clip-rule="evenodd" d="M132.344 80.9907H137.898V83.6068H132.344V80.9907Z" fill="#2D4EA0"/>
<path fill-rule="evenodd" clip-rule="evenodd" d="M140.697 80.9907H146.251V83.6068H140.697V80.9907Z" fill="#2D4EA0"/>
<path fill-rule="evenodd" clip-rule="evenodd" d="M149.006 80.9907H154.539V83.6068H149.006V80.9907Z" fill="#2D4EA0"/>
<path fill-rule="evenodd" clip-rule="evenodd" d="M63.7205 110.806C62.0716 110.806 61.5292 112.081 61.1604 112.838H66.2589C65.8467 111.973 65.1958 110.806 63.7205 110.806ZM77.3454 110.806C76.2172 110.806 75.0023 111.8 74.9155 112.838H79.8838C79.7537 112.276 79.4282 111.735 79.016 111.411C78.6689 111.13 77.9529 110.806 77.3454 110.806ZM72.6374 96.4495C72.6374 97.2711 72.5073 97.8549 72.3337 98.5683C71.7479 100.903 71.3791 99.4764 72.3988 102.676C72.6374 103.39 72.8978 104.276 73.1364 104.99L74.5467 109.552C75.5013 109.292 76.2606 108.319 78.2349 108.795C78.2349 107.606 77.9746 106.092 77.8227 104.903C77.6492 103.692 77.4539 102.222 77.3454 100.925C77.1502 98.6981 76.4559 95.8225 76.4559 94.0496H65.109L64.5883 96.99C64.4147 98.2873 64.2412 99.5197 64.0242 100.882C63.829 102.222 63.6554 103.541 63.4818 104.795L62.9394 108.817C64.1978 108.211 66.2155 109.508 66.5192 109.573L68.5586 103.087C68.7105 102.547 68.9058 102.028 69.0359 101.53C69.2095 100.925 69.3614 100.406 69.5566 99.8872C70.4679 97.3792 70.4679 97.9846 70.4679 95.0658H72.6374V96.4495ZM77.8661 82.4826C78.2132 89.1634 78.9292 95.7144 79.732 102.352C80.0357 104.6 80.3177 106.849 80.5347 109.054C80.7734 111.433 82.2053 109.833 82.2053 115.022H72.6374C72.6374 114.481 72.6374 113.919 72.6374 113.357C72.6374 112.6 72.811 112.427 72.8761 111.93C72.9412 111.26 70.9018 105.357 70.598 104.082C70.5113 104.211 70.598 104.038 70.4679 104.319C70.4028 104.471 70.4028 104.471 70.3594 104.6L68.2115 111.8C68.2549 112.233 68.4285 112.47 68.4502 113.227C68.4502 113.811 68.4502 114.416 68.4502 115.022H58.8823C58.8823 109.898 60.401 111.303 60.6831 109.076C60.7265 108.665 60.8349 108.038 60.9 107.627L62.896 93.7253C63.7205 88.1688 62.2018 78.8936 64.0025 75.7586C64.3497 75.1532 64.8704 74.4181 65.3694 73.9425C65.8033 73.5317 66.6928 72.8614 67.322 72.7101V71.6507C67.5823 71.1967 67.4305 66.5266 67.4305 65.5537C66.606 65.078 66.1504 64.9051 65.6948 64.0402C65.2826 63.2835 65.1958 62.1592 65.5863 61.316C66.107 60.1485 66.3674 60.3215 67.2569 59.6729C68.0379 59.0891 67.6257 55.4785 73.3317 56.5811C76.1738 57.1433 76.1522 57.3811 78.7773 57.1217C79.016 57.4676 79.6018 58.5486 79.8187 58.7432C79.8838 59.4351 80.0791 59.5864 80.0791 60.5161C80.0791 64.0186 80.7517 67.1968 78.1699 69.0346C77.1719 69.7481 76.5427 69.921 74.8504 69.921C74.8504 70.8075 74.8504 71.6939 74.8504 72.602C74.8287 73.9641 75.0457 73.7263 75.7833 74.4614C76.2172 74.8938 76.6945 75.6505 77.02 76.4721C77.4105 77.8342 77.8227 80.7962 77.8661 82.4826ZM75.6965 82.8502C75.6315 81.7043 75.2843 78.1801 75.0023 77.445C73.7222 74.0073 69.7302 73.056 66.9315 75.3911C66.2155 75.9748 65.3694 77.4018 65.3694 78.6558V91.8443H76.0871C75.8918 86.5473 75.7833 84.342 75.6965 82.8502ZM68.4285 63.543H69.5783V71.9318C71.1621 71.9318 71.1621 71.975 72.6374 72.3209V69.6616C71.9866 69.5103 71.1621 68.9914 70.8584 68.5157L72.2903 67.0239C73.6788 67.9103 73.3968 67.759 75.4579 67.759C76.7596 67.759 77.8878 66.6347 77.8878 65.3375C77.8878 64.5159 77.9746 60.1918 77.801 59.7161C77.5841 59.1972 77.801 59.6296 76.1738 59.3269C75.2626 59.154 74.5467 59.0026 73.6137 58.8081C72.529 58.5918 69.6 57.6405 69.6 60.1269V61.5323C68.8624 61.5323 67.4305 61.3593 67.4305 62.5484C67.4088 63.1322 67.821 63.543 68.4285 63.543Z" fill="black"/>
<path fill-rule="evenodd" clip-rule="evenodd" d="M79.7753 58.7215C79.5583 58.5269 78.9726 57.4458 78.7339 57.0999C76.1087 57.3594 76.1304 57.1215 73.2883 56.5594C67.5823 55.4568 68.0162 59.0674 67.2134 59.6511C66.3239 60.2998 66.0636 60.1268 65.5429 61.2943C65.1524 62.1591 65.2391 63.2618 65.6514 64.0185C66.107 64.8833 66.5626 65.0563 67.387 65.532C67.387 66.4833 67.5389 71.1749 67.2785 71.629C66.2371 70.9587 64.6317 70.6993 62.7224 68.4507C61.5726 67.0886 60.5529 65.3374 60.184 63.2185C58.9257 56.1486 64.0893 50.5489 69.9688 49.9435C70.0339 49.9435 70.0773 49.9219 70.1424 49.9219H77.9095C80.9469 50.0732 83.2032 53.5325 81.6411 56.6243C81.0987 57.7269 80.7082 58.0728 79.7753 58.7215Z" fill="#2D4EA0"/>
<path fill-rule="evenodd" clip-rule="evenodd" d="M71.379 88.7527V86.7203H69.3396C69.4698 88.3635 70.1641 88.6013 71.379 88.7527ZM73.5486 73.4885V90.8715C71.097 90.8715 68.9274 91.1309 67.604 88.4932C66.9314 87.1744 67.1701 75.4128 67.1918 73.5101H69.3613V84.6015H71.4007V73.5101H73.5486V73.4885Z" fill="black"/>
<path fill-rule="evenodd" clip-rule="evenodd" d="M38.1628 85.6607V84.7094V80.6447V79.6934V78.7421C38.1628 76.7098 39.3778 74.9585 41.1351 74.1586C41.4389 72.2343 40.5277 70.6128 41.5691 69.2507C42.0464 68.6237 39.6815 66.0292 39.3127 63.8888C39.0523 62.3321 41.0917 63.3915 41.3955 61.3375C41.504 60.516 41.8728 59.9322 42.285 59.4349C45.8648 58.0512 43.1528 59.3484 47.2316 59.3268C48.4032 59.3268 50.5945 59.1322 51.3104 59.6295C51.7227 59.9322 51.6576 60.1268 51.9396 60.4511C53.0895 59.8457 53.9139 59.4133 54.4129 57.9215C54.6082 57.3161 54.695 56.4297 54.4997 55.7162C54.196 54.5919 54.0007 54.6784 53.6102 54.0514C53.2414 53.8136 53.0461 53.5109 52.5254 53.2298C52.0698 52.992 51.4623 52.9055 51.1152 52.7325L47.5788 52.0839L44.6932 51.6299C43.2396 51.6299 42.4152 52.7325 40.9616 52.7325C38.3581 52.7325 36.4055 52.7542 34.6264 55.1324C33.5633 56.5594 33.1294 58.462 33.6284 60.2781C34.1708 62.2672 35.4292 62.6131 34.301 65.2725C33.802 66.4616 33.4331 67.0886 33.4331 68.775C33.4331 72.537 35.4075 73.2072 35.9282 75.0234C36.6007 77.38 34.7349 78.6556 34.2142 79.5205C32.6304 82.1582 33.4331 85.5094 35.8631 87.2606C36.4706 87.6931 37.2516 88.0606 38.1628 88.2119V86.5904V85.6607Z" fill="#2D4EA0"/>
<path fill-rule="evenodd" clip-rule="evenodd" d="M54.8686 95.0008C54.9987 95.5413 55.1289 96.1035 55.2374 96.6656C55.3676 97.2277 55.4761 97.7899 55.5845 98.352C55.6279 98.5682 55.6713 98.7844 55.693 99.0006C55.7147 99.1304 55.7364 99.3033 55.7364 99.433V99.7357L55.4327 99.8006C55.3242 99.8222 55.1506 99.9087 55.0638 99.9519C54.8035 100.06 54.5648 100.19 54.3045 100.276C53.5234 100.601 52.7207 100.795 51.8746 100.882C51.6142 100.903 51.3539 100.925 51.0935 100.925C51.0067 100.925 50.9199 100.925 50.8332 100.925C50.7898 100.925 50.703 100.968 50.6596 100.968C50.4643 101.055 50.2474 101.119 50.0521 101.206C49.2928 101.509 48.5985 101.595 47.7957 101.53C47.492 101.509 46.8845 101.422 46.6025 101.53C46.1252 101.725 45.5611 101.811 45.0621 101.855H45.0404H43.8037H43.782C43.2396 101.811 42.6322 101.725 42.1332 101.53C42.0681 101.509 41.9813 101.487 41.8945 101.487C41.7426 101.465 41.5474 101.509 41.3955 101.53C41.1568 101.573 40.9399 101.595 40.7012 101.595C40.0287 101.595 39.3995 101.487 38.7703 101.249C38.575 101.184 38.4015 101.098 38.2062 101.033C38.1194 100.99 37.9893 100.946 37.8808 100.946C36.796 100.925 35.7329 100.752 34.7132 100.384C34.4095 100.276 34.1057 100.147 33.802 99.9952C33.6718 99.9303 33.4549 99.8222 33.3247 99.8006L33.0209 99.7357V99.4547C33.0209 99.2168 33.0643 98.979 33.1077 98.7412C33.1511 98.525 33.1945 98.3088 33.2379 98.0926C34.0189 94.4819 34.8434 90.8064 36.7743 87.585C36.8828 87.412 36.9913 87.239 37.078 87.0661C37.4686 86.3958 38.3581 85.9418 39.1391 85.9418C39.8768 85.9418 40.5928 85.9202 41.3304 85.9202C41.3738 86.6769 41.4389 87.3039 41.504 87.7363H41.2219C41.1785 87.8876 41.1351 88.039 41.0918 88.1903C40.2022 91.455 39.5948 94.8062 39.2259 98.1791C39.1825 98.6331 39.1174 99.0871 39.1174 99.5411C39.291 99.606 39.4646 99.6709 39.6164 99.6925C39.8551 99.7574 40.7663 99.8655 41.1568 99.8222C41.1785 99.7357 41.1785 99.6493 41.1785 99.5844C41.1785 99.4547 41.2002 99.3466 41.2002 99.2168C41.2219 99.0223 41.2002 98.8493 41.2219 98.6547L41.6125 93.2712C41.6125 92.9252 41.6559 92.6009 41.6775 92.255C41.6775 92.1253 41.6775 92.0172 41.6992 91.8875C41.6992 91.8442 41.7209 91.801 41.7209 91.7577L41.9162 88.7525C42.3935 89.4876 42.9359 89.9632 43.5651 90.2443L43.3264 93.8333V93.8549C43.283 94.1792 43.2613 94.5468 43.2396 94.8711C43.2179 95.3467 43.1962 95.8008 43.1746 96.2764C43.1529 96.7305 43.1312 97.1629 43.1095 97.6169C43.0878 97.9628 43.0661 98.3304 43.0227 98.6763C42.9576 99.0871 42.9359 99.5628 42.9359 99.9952C43.6519 100.233 45.1272 100.233 45.8431 99.9952C45.8431 99.5628 45.7997 99.1087 45.7563 98.6763V98.6547L45.214 90.6335C45.778 90.6767 46.3638 90.6767 46.9713 90.6767L47.0147 91.3253C47.0364 91.9956 47.1015 92.6658 47.1232 93.336C47.1449 93.963 47.21 94.6117 47.275 95.2386C47.3184 95.6494 47.3401 96.0386 47.3618 96.4494C47.3835 96.7305 47.4052 97.0332 47.4052 97.3142L47.5354 99.2817C47.5571 99.4547 47.5571 99.6276 47.5788 99.779C47.5788 99.8006 47.5788 99.8006 47.5788 99.8222C48.1429 99.8871 49.0541 99.7574 49.6399 99.5411C49.6182 99.0655 49.5748 98.5898 49.5097 98.1358C49.2928 96.4062 49.0758 94.6981 48.7504 92.9901C48.4466 91.3686 48.0561 89.7686 47.6439 88.1687V85.985C48.3815 85.985 49.1192 85.985 49.8351 85.9634C50.6813 85.9418 51.3539 86.5472 51.5708 86.9147C51.7227 87.1525 51.8746 87.3904 52.0047 87.6498C53.1763 89.6173 54.3913 92.9685 54.8686 95.0008ZM51.3756 99.1736C51.484 99.1736 51.5708 99.152 51.6793 99.152C52.0047 99.1304 52.3302 99.0655 52.6556 99.0006C52.9159 98.9358 53.1763 98.8709 53.4366 98.7844L53.8489 98.6331C53.8055 98.2872 53.7404 97.9412 53.6753 97.6169C53.5451 97.0332 53.415 96.4494 53.2631 95.8656C53.1112 95.2603 52.9376 94.6549 52.7858 94.0495C52.6556 93.6171 52.5471 93.1847 52.3953 92.7523C52.0698 91.8442 51.7444 90.9794 51.3105 90.1146C50.985 89.4443 50.6162 88.7741 50.2908 88.1038C50.2474 88.039 50.1606 87.8228 50.1172 87.7579C50.0521 87.7363 49.8785 87.7579 49.8351 87.7579C49.6833 87.7579 49.5531 87.7579 49.4012 87.7795L49.6399 88.7741C49.8352 89.5308 50.0087 90.3091 50.1606 91.0875C50.3775 92.1037 50.5511 93.1198 50.7464 94.136C50.9199 95.1738 51.0935 96.2116 51.2237 97.2494C51.2671 97.8547 51.3539 98.525 51.3756 99.1736ZM37.4252 99.1736C37.4469 99.0223 37.4469 98.8925 37.4686 98.7412C37.5337 97.8331 37.6638 96.9034 37.794 95.9954C37.9242 95.0441 38.076 94.0928 38.2279 93.1631C38.4015 92.1469 38.5967 91.1307 38.8354 90.1362L39.1825 88.7092C39.2476 88.493 39.3127 88.2552 39.3778 88.0174C39.3995 87.9309 39.4212 87.8444 39.4429 87.7579C39.291 87.7579 39.1391 87.7579 38.9873 87.7363C38.9222 87.7363 38.792 87.7363 38.7052 87.7363C38.6835 87.7795 38.6401 87.866 38.6184 87.9093C38.5317 88.1038 38.4232 88.2768 38.3364 88.4498C37.6638 89.5741 37.1214 90.828 36.6875 92.0388C36.2536 93.2279 35.8631 94.4603 35.5593 95.7143L35.0603 98.1358C35.0386 98.3088 34.9953 98.4817 34.9519 98.6331C34.9736 98.6547 35.0169 98.6547 35.0386 98.6763C35.581 98.8925 36.1017 99.0223 36.6875 99.1087C36.9045 99.1304 37.1648 99.1304 37.4252 99.1736Z" fill="black"/>
<path fill-rule="evenodd" clip-rule="evenodd" d="M49.3578 113.703V115.022H43.8471V100.428H51.8311L51.701 101.076C51.3104 103.001 50.9633 104.946 50.6162 106.871C50.3341 108.427 50.0521 109.962 49.77 111.519C49.6182 112.254 49.4663 112.968 49.3578 113.703ZM49.9436 101.076H45.5611V113.292H47.6873C47.709 113.162 47.7306 113.033 47.7523 112.903C47.8391 112.384 47.9476 111.843 48.0344 111.325C48.3164 109.725 48.6202 108.146 48.9022 106.546C49.2493 104.73 49.5965 102.892 49.9436 101.076Z" fill="black"/>
<path fill-rule="evenodd" clip-rule="evenodd" d="M49.0758 113.681V114.741H44.1292V100.709H51.484L51.4189 101.033C51.0284 102.957 50.6813 104.903 50.3341 106.849C50.0521 108.406 49.7701 109.941 49.488 111.497C49.3361 112.211 49.1843 112.946 49.0758 113.681ZM50.2907 100.795C49.6399 104.103 47.9259 113.573 47.9259 113.595H45.2573V100.795H50.2907Z" fill="black"/>
<path fill-rule="evenodd" clip-rule="evenodd" d="M41.8295 113.703V115.022H36.3187V100.428H44.3028L44.1726 101.076C43.7821 103.001 43.4349 104.946 43.0878 106.871C42.8058 108.427 42.5237 109.962 42.2417 111.519C42.1115 112.254 41.9596 112.968 41.8295 113.703ZM42.4369 101.076H38.0544V113.292H40.1806C40.2023 113.162 40.224 113.033 40.2457 112.903C40.3324 112.384 40.4409 111.843 40.5277 111.325C40.8098 109.725 41.1135 108.146 41.3955 106.546C41.7427 104.73 42.0681 102.892 42.4369 101.076Z" fill="black"/>
<path fill-rule="evenodd" clip-rule="evenodd" d="M41.5474 113.681V114.741H36.6008V100.709H43.9556L43.8905 101.033C43.5 102.957 43.1529 104.903 42.8058 106.849C42.5237 108.406 42.2417 109.941 41.9596 111.497C41.8294 112.211 41.6776 112.946 41.5474 113.681ZM42.7841 100.795C42.1332 104.103 40.4192 113.573 40.4192 113.595H37.7506V100.795H42.7841Z" fill="black"/>
<path fill-rule="evenodd" clip-rule="evenodd" d="M49.2277 73.4885C51.3973 74.1155 52.9377 76.1046 52.9377 78.3964C52.9377 79.6937 52.4387 80.9477 51.5708 81.8773V87.8662H47.6439V85.8988H49.5965V80.9909C50.421 80.4288 50.9634 79.4775 50.9634 78.3964C50.9634 76.7965 49.7701 75.4776 48.2297 75.2831C48.0344 75.0885 47.8392 74.8939 47.6222 74.7209V73.3156H45.4526V73.7047C45.1055 73.6399 44.7367 73.5966 44.3678 73.5966C44.0424 73.5966 43.717 73.6183 43.3915 73.6831V73.3156H41.222C41.222 73.575 41.222 74.0507 41.2003 74.6561C39.9636 75.6074 39.1392 77.0992 39.1392 78.7856V79.7585V80.7314V85.9204H41.2871C41.3304 86.7636 41.3955 87.4338 41.504 87.8879H37.1649V78.7856C37.1649 74.8506 40.3975 71.6292 44.3462 71.6292C46.1903 71.6075 47.9043 72.2778 49.2277 73.4885Z" fill="black"/>
<path fill-rule="evenodd" clip-rule="evenodd" d="M40.3325 73.2723V73.2291C40.5928 72.775 40.4409 68.105 40.4409 67.1321C39.6165 66.6564 39.1609 66.4834 38.7053 65.6186C38.293 64.8619 38.2063 63.7376 38.5968 62.8944C39.1175 61.7269 39.3778 61.8999 40.2674 61.2512C41.0484 60.6675 40.6362 57.0569 46.3422 58.1595C49.1843 58.7216 49.1626 58.9595 51.7878 58.7C52.0265 59.0459 52.6123 60.127 52.8292 60.3216C52.8943 61.0134 53.0896 61.1648 53.0896 62.0945C53.0896 65.597 53.7621 68.7752 51.1803 70.613C50.1823 71.3265 49.5532 71.4994 47.8609 71.4994C47.8609 72.0832 47.8609 72.6885 47.8609 73.2723H45.6913V71.24C45.0404 71.0886 44.216 70.5697 43.9123 70.0941L45.3442 68.6023C46.7327 69.4887 46.4507 69.3374 48.5118 69.3374C49.8135 69.3374 50.9417 68.2131 50.9417 66.9158C50.9417 66.0943 51.0285 61.7701 50.8549 61.2945C50.6379 60.7756 50.8549 61.208 49.2277 60.9053C48.3165 60.7324 47.6005 60.581 46.6676 60.3864C45.5828 60.1702 42.6539 59.2189 42.6539 61.7053V63.1106C41.9162 63.1106 40.4843 62.9377 40.4843 64.1268C40.4843 64.7322 40.8965 65.143 41.504 65.143H42.6539V73.2723H40.3325Z" fill="black"/>
<path fill-rule="evenodd" clip-rule="evenodd" d="M45.4743 88.6012V86.5689H43.4349C43.5651 88.1904 44.2594 88.4282 45.4743 88.6012ZM47.6439 73.3154V90.6984C45.1923 90.6984 43.0227 90.9578 41.6992 88.3201C41.0267 87.0013 41.2653 75.2397 41.287 73.3371H43.4566V84.4284H45.496V73.3371H47.6439V73.3154Z" fill="black"/>
<path fill-rule="evenodd" clip-rule="evenodd" d="M7.94066 110.806C6.29178 110.806 5.74939 112.081 5.38056 112.838H10.4791C10.0668 111.973 9.41597 110.806 7.94066 110.806ZM21.5873 110.806C20.4591 110.806 19.2442 111.8 19.1574 112.838H24.1257C23.9955 112.276 23.6701 111.735 23.2579 111.411C22.889 111.13 22.1731 110.806 21.5873 110.806ZM16.8576 96.4495C16.8576 97.2711 16.7274 97.8549 16.5539 98.5683C15.9681 100.903 15.5993 99.4764 16.619 102.676C16.8576 103.39 17.118 104.276 17.3566 104.99L18.7668 109.552C19.7215 109.292 20.4808 108.319 22.4551 108.795C22.4551 107.606 22.1948 106.092 22.0429 104.903C21.8693 103.692 21.6741 102.222 21.5656 100.925C21.3703 98.6981 20.6761 95.8225 20.6761 94.0496H9.32919L8.80849 96.99C8.63492 98.2873 8.46136 99.5197 8.2444 100.882C8.04914 102.222 7.87557 103.541 7.70201 104.795L7.15961 108.773C8.41797 108.168 10.4357 109.465 10.7394 109.53L12.7788 103.044C12.9307 102.503 13.1259 101.984 13.2561 101.487C13.4297 100.882 13.5816 100.363 13.7768 99.844C14.688 97.336 14.688 97.9413 14.688 95.0226H16.8576V96.4495ZM22.0863 82.4826C22.4334 89.1634 23.1494 95.7144 23.9521 102.352C24.2559 104.6 24.5379 106.849 24.7549 109.054C24.9935 111.433 26.4254 109.833 26.4254 115.022H16.8576C16.8576 114.481 16.8576 113.919 16.8576 113.357C16.8576 112.6 17.0312 112.427 17.0963 111.93C17.1614 111.26 15.122 105.357 14.8182 104.082C14.7314 104.211 14.8182 104.038 14.688 104.319C14.623 104.471 14.623 104.471 14.5796 104.6L12.4317 111.8C12.4751 112.233 12.6486 112.47 12.6703 113.227C12.6703 113.811 12.6703 114.416 12.6703 115.022H3.08081C3.08081 109.898 4.59951 111.303 4.88156 109.076C4.92495 108.665 5.03343 108.038 5.09852 107.627L7.09453 93.7253C7.91896 88.1688 6.40026 78.8936 8.20101 75.7586C8.54814 75.1532 9.06884 74.4181 9.56784 73.9425C10.0018 73.5317 10.8913 72.8614 11.5205 72.7101V71.6507C11.7808 71.1967 11.6289 66.5266 11.6289 65.5537C10.8045 65.078 10.3489 64.9051 9.89328 64.0402C9.48106 63.2835 9.39428 62.1592 9.7848 61.316C10.3055 60.1485 10.5658 60.3215 11.4554 59.6729C12.2364 59.0891 11.8242 55.4785 17.5302 56.5811C20.3723 57.1433 20.3506 57.3811 22.9758 57.1217C23.2145 57.4676 23.8003 58.5486 24.0172 58.7432C24.0823 59.4351 24.2776 59.5864 24.2776 60.5161C24.2776 64.0186 24.9501 67.1968 22.3683 69.0346C21.3703 69.7481 20.7412 69.921 19.0489 69.921C19.0489 70.8075 19.0489 71.6939 19.0489 72.602C19.0272 73.9641 19.2442 73.7263 19.9818 74.4614C20.4157 74.8938 20.893 75.6505 21.2185 76.4721C21.6307 77.8342 22.0429 80.7962 22.0863 82.4826ZM19.9167 82.8502C19.8516 81.7043 19.5045 78.1801 19.2225 77.445C17.9424 74.0073 13.9504 73.056 11.1516 75.3911C10.4357 75.9748 9.58954 77.4018 9.58954 78.6558V91.8443H20.3072C20.112 86.5473 20.0035 84.342 19.9167 82.8502ZM12.6486 63.543H13.7985V71.9318C15.3823 71.9318 15.3823 71.975 16.8576 72.3209V69.6616C16.2067 69.5103 15.3823 68.9914 15.0786 68.5157L16.5105 67.0239C17.899 67.9103 17.617 67.759 19.6781 67.759C20.9798 67.759 22.108 66.6347 22.108 65.3375C22.108 64.5159 22.1948 60.1918 22.0212 59.7161C21.8043 59.1972 22.0212 59.6296 20.394 59.3269C19.4828 59.154 18.7668 59.0026 17.8339 58.8081C16.7491 58.5918 13.8202 57.6405 13.8202 60.1269V61.5323C13.0826 61.5323 11.6506 61.3593 11.6506 62.5484C11.6289 63.1322 12.0412 63.543 12.6486 63.543Z" fill="black"/>
<path fill-rule="evenodd" clip-rule="evenodd" d="M23.9955 58.7215C23.7786 58.5269 23.1928 57.4458 22.9541 57.0999C20.3289 57.3594 20.3506 57.1215 17.5085 56.5594C11.8025 55.4568 12.2364 59.0674 11.4337 59.6511C10.5441 60.2998 10.2838 60.1268 9.76309 61.2943C9.37257 62.1591 9.45935 63.2618 9.87157 64.0185C10.3272 64.8833 10.7828 65.0563 11.6072 65.532C11.6072 66.4833 11.7591 71.1749 11.4988 71.629C10.4574 70.9587 8.85187 70.6993 6.94264 68.4507C5.79277 67.0886 4.77307 65.3374 4.40424 63.2185C3.14589 56.1486 8.30948 50.5489 14.189 49.9435C14.2541 49.9435 14.2975 49.9219 14.3626 49.9219H22.1297C25.1671 50.0732 27.4234 53.5325 25.8613 56.6243C25.319 57.7269 24.9284 58.0728 23.9955 58.7215Z" fill="#2D4EA0"/>
<path fill-rule="evenodd" clip-rule="evenodd" d="M15.5993 88.7527V86.7203H13.5598C13.69 88.3635 14.3843 88.6013 15.5993 88.7527ZM17.7688 73.4885V90.8715C15.3172 90.8715 13.1476 91.1309 11.8242 88.4932C11.1516 87.1744 11.3903 75.4128 11.412 73.5101H13.5815V84.6015H15.6209V73.5101H17.7688V73.4885Z" fill="black"/>
<path fill-rule="evenodd" clip-rule="evenodd" d="M28.4432 30.4417C28.9422 47.8679 -3.99201 45.7059 0.412232 20.2368C1.99602 11.0697 9.95837 5.85909 19.4611 6.52933C34.9085 7.61036 40.6145 15.156 47.4269 26.8527C51.7227 34.2253 57.624 39.6953 66.5192 41.4466C76.8681 43.5006 86.1539 39.2413 92.424 31.5011L95.1576 33.3605C86.9349 43.5222 73.6788 48.2571 60.8132 43.0898C44.2811 36.4306 45.7998 25.0582 35.1688 15.7397C30.1137 11.3075 20.4591 8.43194 13.9287 10.0967C8.13592 11.5669 4.64291 15.2424 3.68829 20.8205C0.0650993 41.8358 25.4708 42.9384 25.1237 30.7012L28.4432 30.4417Z" fill="black"/>
<path fill-rule="evenodd" clip-rule="evenodd" d="M67.7559 15.048C71.2923 14.8534 73.9391 13.5778 73.5052 9.44822C72.6591 1.49184 59.7935 0.281085 55.4327 7.67533C50.5728 15.8912 54.4997 26.7663 63.5903 30.2472C69.0359 32.3444 74.4382 31.8472 80.0357 30.9607L80.5564 33.7282C77.9746 34.139 77.1067 34.3335 74.5249 34.4633C61.8763 35.1551 50.3559 28.777 50.6162 15.0263C50.7898 5.9673 56.3005 -0.324292 65.4995 1.75172e-05C72.3988 0.237844 78.2349 6.26999 75.8918 12.8643C74.4815 16.8425 71.4224 17.6424 67.5823 17.8586L67.7559 15.048Z" fill="black"/>
</g>
<defs>
<clipPath id="clip0_1_944">
<rect width="174" height="115" fill="white"/>
</clipPath>
</defs>
</svg>
