<svg width="24" height="23" viewBox="0 0 24 23" fill="none" xmlns="http://www.w3.org/2000/svg">
<g clip-path="url(#clip0_45_2606)">
<path d="M9.00003 11.5H7.00002C6.72402 11.5 6.5 11.7147 6.5 11.9792V14.8542C6.5 15.1187 6.72402 15.3334 7.00002 15.3334H9.00003C9.27603 15.3334 9.50005 15.1187 9.50005 14.8542V11.9792C9.50005 11.7147 9.27603 11.5 9.00003 11.5ZM8.50002 14.375H7.50003V12.4583H8.50002V14.375Z" fill="#2E4DA0"/>
<path d="M9.00003 6.7085H7.00002C6.72402 6.7085 6.5 6.92318 6.5 7.18768V10.0627C6.5 10.3272 6.72402 10.5419 7.00002 10.5419H9.00003C9.27603 10.5419 9.50005 10.3272 9.50005 10.0627V7.18768C9.50005 6.92318 9.27603 6.7085 9.00003 6.7085ZM8.50002 9.5835H7.50003V7.66681H8.50002V9.5835Z" fill="#2E4DA0"/>
<path d="M17 1.9165H15C14.724 1.9165 14.5 2.13119 14.5 2.39569V5.27069C14.5 5.53519 14.724 5.74987 15 5.74987H17C17.276 5.74987 17.5 5.53519 17.5 5.27069V2.39569C17.5 2.13114 17.276 1.9165 17 1.9165ZM16.5 4.7915H15.5V2.87482H16.5V4.7915Z" fill="#2E4DA0"/>
<path d="M17 6.7085H15C14.724 6.7085 14.5 6.92318 14.5 7.18768V10.0627C14.5 10.3272 14.724 10.5419 15 10.5419H17C17.276 10.5419 17.5 10.3272 17.5 10.0627V7.18768C17.5 6.92318 17.276 6.7085 17 6.7085ZM16.5 9.5835H15.5V7.66681H16.5V9.5835Z" fill="#2E4DA0"/>
<path d="M23 16.2917H19.5V0.479182C19.5 0.214682 19.276 0 19 0H5.00005C4.72405 0 4.50003 0.214682 4.50003 0.479182V16.2917H1.00002C0.724016 16.2917 0.5 16.5064 0.5 16.7709V22.5209C0.5 22.7854 0.724016 23 1.00002 23H23C23.276 23 23.5 22.7854 23.5 22.5209V16.7709C23.5 16.5063 23.276 16.2917 23 16.2917ZM6.50005 22.0417H3.50005V19.1667H6.50005V22.0417ZM14.5 22.0417H9.50005V17.25H14.5001V22.0417H14.5ZM20.5 22.0417H17.5V19.1667H20.5V22.0417ZM22.5 22.0417H21.5V18.6875C21.5 18.423 21.276 18.2083 21 18.2083H17C16.724 18.2083 16.5 18.423 16.5 18.6875V22.0417H15.5V16.7708C15.5 16.5063 15.276 16.2916 15 16.2916H9.00003C8.72403 16.2916 8.50002 16.5063 8.50002 16.7708V22.0416H7.50003V18.6875C7.50003 18.423 7.27602 18.2083 7.00002 18.2083H3.00003C2.72403 18.2083 2.50002 18.423 2.50002 18.6875V22.0417H1.50003V17.25H5.00005C5.27605 17.25 5.50006 17.0353 5.50006 16.7708V0.958318H18.5V16.7708C18.5 17.0353 18.7241 17.25 19.0001 17.25H22.5V22.0417Z" fill="#2E4DA0"/>
<path d="M17 11.5H15C14.724 11.5 14.5 11.7147 14.5 11.9792V14.8542C14.5 15.1187 14.724 15.3334 15 15.3334H17C17.276 15.3334 17.5 15.1187 17.5 14.8542V11.9792C17.5 11.7147 17.276 11.5 17 11.5ZM16.5 14.375H15.5V12.4583H16.5V14.375Z" fill="#2E4DA0"/>
<path d="M13 11.5H11C10.724 11.5 10.5 11.7147 10.5 11.9792V14.8542C10.5 15.1187 10.724 15.3334 11 15.3334H13C13.276 15.3334 13.5 15.1187 13.5 14.8542V11.9792C13.5 11.7147 13.276 11.5 13 11.5ZM12.5001 14.375H11.5001V12.4583H12.5001V14.375Z" fill="#2E4DA0"/>
<path d="M13 1.9165H11C10.724 1.9165 10.5 2.13119 10.5 2.39569V5.27069C10.5 5.53519 10.724 5.74987 11 5.74987H13C13.276 5.74987 13.5 5.53519 13.5 5.27069V2.39569C13.5 2.13114 13.276 1.9165 13 1.9165ZM12.5001 4.7915H11.5001V2.87482H12.5001V4.7915Z" fill="#2E4DA0"/>
<path d="M9.00003 1.9165H7.00002C6.72402 1.9165 6.5 2.13119 6.5 2.39569V5.27069C6.5 5.53519 6.72402 5.74987 7.00002 5.74987H9.00003C9.27603 5.74987 9.50005 5.53519 9.50005 5.27069V2.39569C9.50005 2.13114 9.27603 1.9165 9.00003 1.9165ZM8.50002 4.7915H7.50003V2.87482H8.50002V4.7915Z" fill="#2E4DA0"/>
<path d="M13 6.7085H11C10.724 6.7085 10.5 6.92318 10.5 7.18768V10.0627C10.5 10.3272 10.724 10.5419 11 10.5419H13C13.276 10.5419 13.5 10.3272 13.5 10.0627V7.18768C13.5 6.92318 13.276 6.7085 13 6.7085ZM12.5001 9.5835H11.5001V7.66681H12.5001V9.5835Z" fill="#2E4DA0"/>
</g>
<defs>
<clipPath id="clip0_45_2606">
<rect width="24" height="23" fill="white"/>
</clipPath>
</defs>
</svg>
