<svg width="24" height="23" viewBox="0 0 24 23" fill="none" xmlns="http://www.w3.org/2000/svg">
<path fill-rule="evenodd" clip-rule="evenodd" d="M9.93004 0.127699C7.42533 0.581 5.2659 1.66761 3.48716 3.3697C1.94573 4.84493 0.868942 6.63784 0.294048 8.68655C0.0332863 9.61583 0 9.93653 0 11.5163C0 13.096 0.0332863 13.4167 0.294048 14.346C0.868942 16.3947 1.94573 18.1876 3.48716 19.6629C5.02872 21.138 6.90223 22.1684 9.04305 22.7186C10.0141 22.9681 10.3492 23 12 23C13.6508 23 13.9859 22.9681 14.957 22.7186C17.0978 22.1684 18.9713 21.138 20.5128 19.6629C22.0543 18.1876 23.1311 16.3947 23.706 14.346C23.9667 13.4167 24 13.096 24 11.5163C24 9.93653 23.9667 9.61583 23.706 8.68655C22.7458 5.26508 20.3506 2.52303 17.0154 1.02739C15.5251 0.359101 14.1456 0.0586991 12.3385 0.00924404C11.2957 -0.0193708 10.5361 0.0179904 9.93004 0.127699ZM14.4824 1.69935C15.7285 1.97546 17.5085 2.80993 18.5646 3.61309C21.3586 5.73782 22.9096 9.24891 22.497 12.5151C22.3146 13.959 22.1002 14.6708 21.4761 15.9044C20.052 18.7193 17.3433 20.7663 14.2003 21.4028C13.1202 21.6215 11.115 21.6488 10.0818 21.4589C5.91458 20.6929 2.54432 17.5539 1.66736 13.6219C1.38606 12.3607 1.40886 10.4311 1.71961 9.19471C2.19735 7.29371 3.56886 5.10829 5.01506 3.94362C7.77997 1.71695 11.0564 0.940251 14.4824 1.69935ZM10.6783 3.03453C9.51549 3.38223 8.37518 4.35502 7.85173 5.44562C7.59628 5.97797 7.55441 6.21315 7.54911 7.14826C7.54324 8.18908 7.56017 8.26661 7.96446 9.04969C8.22364 9.5519 8.58087 10.0381 8.89275 10.3133L9.39972 10.7604H6.53032C3.46291 10.7604 3.13444 10.8084 3.01213 11.2744C2.89523 11.7203 3.05693 12.6777 3.35391 13.2986C3.75594 14.1388 4.65997 15.0131 5.56006 15.4319C6.24237 15.7493 6.39278 15.7772 7.4356 15.7792C8.51972 15.7814 8.60683 15.7638 9.42251 15.3782C9.94731 15.1302 10.4554 14.7883 10.7429 14.4898L11.2102 14.0047V16.7506C11.2102 19.6861 11.2603 20.0004 11.7472 20.1175C12.7538 20.3592 14.3441 19.7499 15.3088 18.7528C16.1749 17.8575 16.4468 17.1626 16.4526 15.8299C16.4568 14.8523 16.435 14.7558 16.0355 13.9826C15.7766 13.481 15.4188 12.9942 15.1072 12.7193L14.6003 12.2721H17.4697C20.5371 12.2721 20.8656 12.2242 20.9879 11.7582C21.1048 11.3123 20.9431 10.3548 20.6461 9.73396C20.2441 8.89376 19.34 8.01945 18.4399 7.6007C17.7576 7.28324 17.6072 7.25538 16.5644 7.25333C15.4803 7.25117 15.3932 7.26877 14.5775 7.65436C14.0527 7.9024 13.5446 8.24426 13.2571 8.54272L12.7898 9.02788V6.26973C12.7898 3.55932 12.7456 3.17728 12.4062 2.96046C12.2101 2.8352 11.2 2.8785 10.6783 3.03453ZM11.2102 7.18767V9.98577L10.8434 9.86019C10.2199 9.6466 9.33642 8.71592 9.13207 8.05724C8.90866 7.33733 8.90832 7.05766 9.13027 6.34262C9.32965 5.70003 10.0023 4.92473 10.6403 4.60187C10.8606 4.49032 11.079 4.39703 11.1255 4.39433C11.172 4.39174 11.2102 5.64874 11.2102 7.18767ZM17.4063 8.77002C18.0912 8.9646 18.8982 9.61399 19.2309 10.2383C19.3498 10.4614 19.4471 10.67 19.4471 10.7021C19.4471 10.7342 18.1313 10.7604 16.5232 10.7604H13.5993L13.7305 10.4095C13.9429 9.84172 14.9295 8.96525 15.5673 8.77779C16.288 8.56604 16.6828 8.56442 17.4063 8.77002ZM12.5924 11.1057C12.8649 11.4072 12.8395 11.6946 12.5128 12.0071C12.0905 12.4113 11.5288 12.3042 11.3204 11.7796C11.0118 11.0028 12.0178 10.4697 12.5924 11.1057ZM10.2694 12.6101C10.1972 12.796 9.94719 13.1563 9.71385 13.4109C8.60231 14.6232 6.7191 14.7291 5.49382 13.6484C5.06855 13.2731 4.55289 12.551 4.55289 12.3305C4.55289 12.2984 5.86866 12.2721 7.47678 12.2721H10.4007L10.2694 12.6101ZM14.1063 13.8489C14.6962 14.4063 15.0465 15.1465 15.0465 15.8355C15.0465 16.4371 14.6929 17.2598 14.226 17.7445C13.8355 18.15 13.0808 18.643 12.8508 18.643C12.8173 18.643 12.7898 17.3838 12.7898 15.8449V13.0468L13.1566 13.1724C13.3582 13.2415 13.7856 13.5459 14.1063 13.8489Z" fill="#2E4DA0"/>
</svg>
