<svg width="29" height="29" viewBox="0 0 29 29" fill="none" xmlns="http://www.w3.org/2000/svg">
<path d="M12.3898 5.64907C12.1565 5.88176 12.1565 6.25893 12.3898 6.49278C12.6237 6.72604 13.0002 6.72604 13.2335 6.49278C13.9317 5.79578 15.0678 5.79578 15.7659 6.49278C15.8822 6.60912 16.035 6.66763 16.1877 6.66763C16.3404 6.66763 16.4932 6.60912 16.6096 6.49278C16.8435 6.25883 16.8435 5.88176 16.6096 5.64907C15.4467 4.48612 13.5527 4.48612 12.3898 5.64907Z" fill="#2E4DA0"/>
<path d="M18.2967 4.80538C18.5306 4.57211 18.5306 4.19494 18.2967 3.96167C17.2828 2.94727 15.9337 2.38818 14.4992 2.38818C13.0647 2.38818 11.7156 2.94727 10.7023 3.96167C10.4684 4.19494 10.4684 4.5727 10.7023 4.80538C10.8181 4.92173 10.9708 4.98024 11.1242 4.98024C11.277 4.98024 11.4291 4.92173 11.546 4.80538C12.3343 4.01651 13.3839 3.5815 14.4991 3.5815C15.615 3.5815 16.664 4.01651 17.4528 4.80538C17.6868 5.03865 18.0627 5.03865 18.2967 4.80538Z" fill="#2E4DA0"/>
<path d="M19.9847 2.27349C18.5198 0.807925 16.5715 0 14.4998 0C12.428 0 10.4798 0.807925 9.01479 2.27349C8.78153 2.50743 8.78153 2.88335 9.01479 3.11719C9.24874 3.35114 9.62523 3.35114 9.8585 3.11719C11.0984 1.87726 12.7466 1.194 14.4997 1.194C16.2528 1.194 17.9015 1.87726 19.1408 3.11719C19.2572 3.23354 19.41 3.29205 19.5627 3.29205C19.7154 3.29205 19.8682 3.23354 19.9845 3.11719C20.218 2.88325 20.218 2.50733 19.9847 2.27349Z" fill="#2E4DA0"/>
<path d="M17.2016 7.51855H11.2345C9.85249 7.51855 8.84766 8.52338 8.84766 9.90539V23.033C8.84766 25.7921 11.1939 29 14.218 29C17.2428 29 19.5884 25.7921 19.5884 23.033V9.90539C19.5884 8.52338 18.5835 7.51855 17.2016 7.51855ZM18.395 23.033C18.395 25.1948 16.532 27.8066 14.218 27.8066C11.904 27.8066 10.0411 25.1948 10.0411 23.033V9.90539C10.0411 9.18034 10.5094 8.71197 11.2345 8.71197H17.2016C17.9266 8.71197 18.395 9.18034 18.395 9.90539V23.033Z" fill="#2E4DA0"/>
<path d="M14.2179 11.0986C13.231 11.0986 12.4272 11.9018 12.4272 12.8888C12.4272 13.8757 13.231 14.6789 14.2179 14.6789C15.2055 14.6789 16.0081 13.8757 16.0081 12.8888C16.0081 11.9018 15.2049 11.0986 14.2179 11.0986ZM14.2179 13.4855C13.8886 13.4855 13.6207 13.2182 13.6207 12.8888C13.6207 12.5594 13.8886 12.292 14.2179 12.292C14.5473 12.292 14.8147 12.5594 14.8147 12.8888C14.8147 13.2182 14.5473 13.4855 14.2179 13.4855Z" fill="#2E4DA0"/>
</svg>
