<svg width="17" height="23" viewBox="0 0 17 23" fill="none" xmlns="http://www.w3.org/2000/svg">
<g clip-path="url(#clip0_82_824)">
<path fill-rule="evenodd" clip-rule="evenodd" d="M2.26291 6.31592H8.15946C9.35756 6.31592 10.3286 7.29182 10.3286 8.47851V18.0736C10.3286 19.2681 9.34973 20.2362 8.15946 20.2362H2.26291C1.06481 20.2362 0.0937967 19.2603 0.0937967 18.0736V8.48632C0.0859659 7.29182 1.06481 6.31592 2.26291 6.31592ZM2.26291 6.93269H8.15946C9.01301 6.93269 9.71778 7.62753 9.71778 8.48632V18.0814C9.71778 18.9323 9.02084 19.635 8.15946 19.635H2.26291C1.40936 19.635 0.704594 18.9402 0.704594 18.0814V8.48632C0.704594 7.63533 1.40936 6.93269 2.26291 6.93269Z" fill="#2E4DA0" stroke="#2E4DA0" stroke-width="0.5669" stroke-miterlimit="22.9256"/>
<path fill-rule="evenodd" clip-rule="evenodd" d="M6.28011 3.57567H7.00054V6.6439H7.73662V2.85741L5.5127 2.83398V6.6439H6.20963C6.21746 5.91783 6.22529 3.68497 6.28011 3.57567Z" fill="#2E4DA0"/>
<path fill-rule="evenodd" clip-rule="evenodd" d="M11.8947 0.0234375H13.9072C15.1054 0.0234375 16.0764 0.999337 16.0764 2.18603V20.8062C16.0764 22.0007 15.0975 22.9688 13.9072 22.9688H11.8947C10.6966 22.9688 9.72563 21.9929 9.72563 20.8062V2.18603C9.7178 0.999337 10.6966 0.0234375 11.8947 0.0234375ZM11.8947 0.640206H13.9072C14.7608 0.640206 15.4656 1.33505 15.4656 2.19384V20.814C15.4656 21.665 14.7686 22.3676 13.9072 22.3676H11.8947C11.0412 22.3676 10.3364 21.6728 10.3364 20.814V2.18603C10.3364 1.33505 11.0334 0.640206 11.8947 0.640206Z" fill="#2E4DA0" stroke="#2E4DA0" stroke-width="0.5669" stroke-miterlimit="22.9256"/>
<path fill-rule="evenodd" clip-rule="evenodd" d="M9.68652 3.55993L15.7945 1.92822V2.69333L9.88229 4.27819L9.68652 3.55993Z" fill="#2E4DA0"/>
<path fill-rule="evenodd" clip-rule="evenodd" d="M9.68652 6.41735L15.7945 4.78564V5.55075L9.88229 7.1278L9.68652 6.41735Z" fill="#2E4DA0"/>
<path fill-rule="evenodd" clip-rule="evenodd" d="M9.68652 9.26696L15.7945 7.63525V8.40036L9.88229 9.98522L9.68652 9.26696Z" fill="#2E4DA0"/>
<path fill-rule="evenodd" clip-rule="evenodd" d="M9.68652 12.1244L15.7945 10.4927V11.2578L9.88229 12.8348L9.68652 12.1244Z" fill="#2E4DA0"/>
<path fill-rule="evenodd" clip-rule="evenodd" d="M9.68652 14.974L15.7945 13.3423V14.1074L9.88229 15.6923L9.68652 14.974Z" fill="#2E4DA0"/>
<path fill-rule="evenodd" clip-rule="evenodd" d="M9.68652 17.8314L15.7945 16.1997V16.9648L9.88229 18.5419L9.68652 17.8314Z" fill="#2E4DA0"/>
<path fill-rule="evenodd" clip-rule="evenodd" d="M9.68652 20.6815L15.7945 19.0498V19.8149L9.88229 21.3998L9.68652 20.6815Z" fill="#2E4DA0"/>
<path fill-rule="evenodd" clip-rule="evenodd" d="M0 1.48347C0 2.18612 0.172276 2.63113 0.665613 3.06052C1.04149 3.38842 1.51916 3.55237 2.2161 3.55237H4.90204C5.05083 3.55237 5.00384 3.39623 5.00384 3.05271C5.00384 2.88876 4.70627 2.95122 4.40088 2.95122C3.90754 2.95122 1.8089 2.99026 1.55832 2.91218C0.696936 2.64674 0.274076 1.56154 0.806566 1.03846C1.15895 0.687133 1.66795 0.702748 1.96552 1.00723C2.17695 1.21802 2.45885 1.85041 1.88721 1.85041C1.63662 1.85041 1.68361 1.45224 1.68361 1.31171H1.11196C1.11196 1.70988 1.07281 1.88944 1.33906 2.15489C2.17695 2.99026 3.42986 1.74891 2.41187 0.648097C1.7071 -0.109201 0.540321 0.171858 0.148784 0.952578C0.0783074 1.10091 0 1.28829 0 1.48347Z" fill="#2E4DA0"/>
<path fill-rule="evenodd" clip-rule="evenodd" d="M0 4.82466C0 5.10572 0.0391537 5.36336 0.297568 5.55854C0.53249 5.73811 0.775243 5.75372 1.10413 5.75372V5.15257C0.790905 5.15257 0.563813 5.20722 0.563813 4.84809C0.563813 4.55141 1.19027 4.6451 1.53482 4.6451H4.48701C5.05866 4.6451 4.98818 4.7544 4.98818 4.14544C4.98818 4.06737 4.96469 4.04395 4.88638 4.04395H0.971012C0.454183 4.05956 0 4.37965 0 4.82466Z" fill="#2E4DA0"/>
</g>
<defs>
<clipPath id="clip0_82_824">
<rect width="16.1" height="23" fill="white"/>
</clipPath>
</defs>
</svg>
