<svg width="24" height="21" viewBox="0 0 24 21" fill="none" xmlns="http://www.w3.org/2000/svg">
<path fill-rule="evenodd" clip-rule="evenodd" d="M12.6316 2.1V4.2H12.0133C11.4714 4.2 11.3869 4.28316 11.3291 4.87431C11.2657 5.52258 11.2116 5.55891 9.92379 5.81763C5.16421 6.77439 1.50042 11.0607 1.47874 15.6975L1.47368 16.8H0.736842H0V18.9V21H5.68421H11.3684V18.9V16.8H10.6514C10.0613 16.8 9.952 16.7322 10.0343 16.4176C10.1949 15.805 11.1661 14.7636 11.2935 15.0675C11.3709 15.2525 12.02 15.33 13.4912 15.33H15.5789V14.7V14.07H17.6842H19.7895V14.7V15.33H21.8947H24V9.765V4.2H23.2632H22.5263V2.1V0H21.8947H21.2632V2.1V4.2H20.5263C19.8246 4.2 19.7895 4.23507 19.7895 4.935V5.67H17.6842H15.5789V4.935C15.5789 4.23507 15.5438 4.2 14.8421 4.2H14.1053V2.1V0H13.3684H12.6316V2.1ZM14.1053 9.87V14.07H13.3684H12.6316V9.87V5.67H13.3684H14.1053V9.87ZM22.5263 9.87V14.07H21.8947H21.2632V9.87V5.67H21.8947H22.5263V9.87ZM19.7895 9.765V12.6H17.6842H15.5789V9.765V6.93H17.6842H19.7895V9.765ZM11.3684 9.9582V12.7764L10.1208 14.0209C9.22295 14.9165 8.83284 15.4804 8.72905 16.0327L8.58463 16.8H5.66084C2.33326 16.8 2.58842 16.9966 2.95916 14.7181C3.49326 11.4337 5.8 8.66439 8.94147 7.53543C9.52358 7.32627 10.3078 7.15176 10.6842 7.14756L11.3684 7.14V9.9582ZM9.89474 18.9V19.53H5.68421H1.47368V18.9V18.27H5.68421H9.89474V18.9Z" fill="#2E4DA0"/>
</svg>
