<svg width="23" height="23" viewBox="0 0 23 23" fill="none" xmlns="http://www.w3.org/2000/svg">
<g clip-path="url(#clip0_45_2597)">
<path d="M12.1704 11.2103V0.646471C12.1704 0.28732 11.883 0 11.5239 0C11.1647 0 10.8774 0.28732 10.8774 0.646471V11.2103C9.37857 11.512 8.24365 12.8384 8.24365 14.4283C8.24365 16.0181 9.37857 17.3446 10.8774 17.6463V22.3487C10.8774 22.7079 11.1647 22.9952 11.5239 22.9952C11.883 22.9952 12.1704 22.7079 12.1704 22.3487V17.6463C13.6692 17.3446 14.8041 16.0181 14.8041 14.4283C14.8041 12.8432 13.674 11.512 12.1704 11.2103ZM11.5239 16.4156C10.4273 16.4156 9.53659 15.5249 9.53659 14.4283C9.53659 13.3317 10.4273 12.441 11.5239 12.441C12.6205 12.441 13.5112 13.3317 13.5112 14.4283C13.5112 15.5249 12.6205 16.4156 11.5239 16.4156Z" fill="#2E4DA0"/>
<path d="M4.25484 5.78951V0.646471C4.25484 0.28732 3.96752 0 3.60837 0C3.24922 0 2.9619 0.28732 2.9619 0.646471V5.78951C1.46304 6.09119 0.328125 7.41765 0.328125 9.00749C0.328125 10.5973 1.46304 11.9238 2.9619 12.2255V22.3487C2.9619 22.7079 3.24922 22.9952 3.60837 22.9952C3.96752 22.9952 4.25484 22.7079 4.25484 22.3487V12.2207C5.75369 11.919 6.88861 10.5925 6.88861 9.00271C6.88861 7.41287 5.75369 6.09119 4.25484 5.78951ZM3.60837 10.9948C2.51176 10.9948 1.62107 10.1041 1.62107 9.00749C1.62107 7.91089 2.51176 7.0202 3.60837 7.0202C4.70497 7.0202 5.59567 7.91089 5.59567 9.00749C5.59567 10.1041 4.70018 10.9948 3.60837 10.9948Z" fill="#2E4DA0"/>
<path d="M20.0385 5.78951V0.646471C20.0385 0.28732 19.7512 0 19.3921 0C19.0329 0 18.7456 0.28732 18.7456 0.646471V5.78951C17.2467 6.09119 16.1118 7.41766 16.1118 9.0075C16.1118 10.5973 17.2467 11.9238 18.7456 12.2255V22.3535C18.7456 22.7127 19.0329 23 19.3921 23C19.7512 23 20.0385 22.7127 20.0385 22.3535V12.2207C21.5374 11.919 22.6723 10.5925 22.6723 9.00271C22.6723 7.41287 21.5422 6.09119 20.0385 5.78951ZM19.3921 10.9948C18.2955 10.9948 17.4048 10.1041 17.4048 9.0075C17.4048 7.91089 18.2955 7.0202 19.3921 7.0202C20.4887 7.0202 21.3794 7.91089 21.3794 9.0075C21.3794 10.1041 20.4887 10.9948 19.3921 10.9948Z" fill="#2E4DA0"/>
</g>
<defs>
<clipPath id="clip0_45_2597">
<rect width="23" height="23" fill="white"/>
</clipPath>
</defs>
</svg>
