<svg width="24" height="25" viewBox="0 0 24 25" fill="none" xmlns="http://www.w3.org/2000/svg">
<path d="M14.72 9.60671L10.43 13.9067L8.78 12.2567C8.69036 12.152 8.58004 12.067 8.45597 12.007C8.33191 11.947 8.19678 11.9132 8.05906 11.9079C7.92134 11.9026 7.78401 11.9258 7.65568 11.9761C7.52736 12.0263 7.41081 12.1026 7.31335 12.2001C7.2159 12.2975 7.13964 12.4141 7.08937 12.5424C7.03909 12.6707 7.01589 12.808 7.02121 12.9458C7.02653 13.0835 7.06026 13.2186 7.12028 13.3427C7.1803 13.4667 7.26532 13.5771 7.37 13.6667L9.72 16.0267C9.81344 16.1194 9.92426 16.1927 10.0461 16.2425C10.1679 16.2922 10.2984 16.3175 10.43 16.3167C10.6923 16.3156 10.9437 16.2115 11.13 16.0267L16.13 11.0267C16.2237 10.9337 16.2981 10.8231 16.3489 10.7013C16.3997 10.5794 16.4258 10.4487 16.4258 10.3167C16.4258 10.1847 16.3997 10.054 16.3489 9.93213C16.2981 9.81028 16.2237 9.69967 16.13 9.60671C15.9426 9.42046 15.6892 9.31592 15.425 9.31592C15.1608 9.31592 14.9074 9.42046 14.72 9.60671ZM12 2.81671C10.0222 2.81671 8.08879 3.4032 6.4443 4.50202C4.79981 5.60083 3.51809 7.16262 2.76121 8.98988C2.00433 10.8171 1.8063 12.8278 2.19215 14.7676C2.578 16.7074 3.53041 18.4893 4.92894 19.8878C6.32746 21.2863 8.10929 22.2387 10.0491 22.6246C11.9889 23.0104 13.9996 22.8124 15.8268 22.0555C17.6541 21.2986 19.2159 20.0169 20.3147 18.3724C21.4135 16.7279 22 14.7945 22 12.8167C22 11.5035 21.7413 10.2031 21.2388 8.98988C20.7363 7.77662 19.9997 6.67423 19.0711 5.74564C18.1425 4.81706 17.0401 4.08046 15.8268 3.57792C14.6136 3.07537 13.3132 2.81671 12 2.81671ZM12 20.8167C10.4178 20.8167 8.87104 20.3475 7.55544 19.4685C6.23985 18.5894 5.21447 17.34 4.60897 15.8782C4.00347 14.4164 3.84504 12.8078 4.15372 11.256C4.4624 9.70414 5.22433 8.27868 6.34315 7.15986C7.46197 6.04104 8.88743 5.27911 10.4393 4.97043C11.9911 4.66175 13.5997 4.82017 15.0615 5.42568C16.5233 6.03118 17.7727 7.05656 18.6518 8.37215C19.5308 9.68774 20 11.2345 20 12.8167C20 14.9384 19.1572 16.9733 17.6569 18.4736C16.1566 19.9739 14.1217 20.8167 12 20.8167Z" fill="#B8CBFC"/>
</svg>
