<svg width="20" height="23" viewBox="0 0 20 23" fill="none" xmlns="http://www.w3.org/2000/svg">
<path fill-rule="evenodd" clip-rule="evenodd" d="M1.59951 0.0690482C0.935299 0.229896 0.232043 0.847076 0.0576208 1.42228C0.00927592 1.58169 -0.0085539 4.96275 0.00377898 11.6299L0.0222432 21.5991L0.231409 21.9343C0.468271 22.314 0.847701 22.6275 1.32065 22.8344L1.64314 22.9754L9.76593 22.9923C18.5426 23.0107 18.1821 23.0232 18.3814 22.6926C18.4229 22.6238 18.8044 21.0319 19.2292 19.1549C19.9517 15.9625 20.0014 15.6952 20 15.0109C19.9982 14.1643 19.8423 13.4372 19.5107 12.7303C19.0844 11.8212 18.6916 11.3901 16.5019 9.42815L14.4392 7.58012L14.4191 4.51699L14.3989 1.45393L14.1583 1.06004C13.9074 0.649253 13.6301 0.415582 13.0951 0.164081L12.778 0.0149942L7.3515 0.00260678C3.17129 -0.00690272 1.85026 0.00836253 1.59951 0.0690482ZM12.579 1.45981C12.6885 1.53182 12.8158 1.68666 12.8621 1.80391C12.924 1.96069 12.9473 3.1632 12.9502 6.35708L12.9542 10.6972L12.7956 10.5958C12.3062 10.2828 11.9266 10.1598 11.3685 10.1334C10.6413 10.099 10.1506 10.252 9.65028 10.6693C9.13195 11.1016 8.90206 11.5767 8.90199 12.216C8.90192 12.6566 8.92976 12.7673 9.12997 13.1232C9.35937 13.5309 9.44598 13.6167 11.6312 15.601L12.4668 16.3596L12.0055 16.7528C11.4168 17.2547 11.0669 17.6603 10.6988 18.2676L10.4048 18.7525H5.9359H1.46695V10.3316C1.46695 2.71182 1.47781 1.89056 1.5807 1.69799C1.64328 1.581 1.69874 1.48478 1.70403 1.48428C1.70931 1.48377 1.84046 1.4423 1.99551 1.39212C2.2342 1.31492 3.05183 1.30309 7.32874 1.31486C12.3329 1.32868 12.382 1.33006 12.579 1.45981ZM17.6372 12.4962C18.2476 13.3081 18.4873 14.028 18.4805 15.03C18.4763 15.6409 18.4028 16.0381 17.8261 18.5648C17.4687 20.1304 17.1467 21.4747 17.1105 21.5521L17.0447 21.6929H14.1433H11.2419L11.2859 21.2081C11.382 20.1504 11.9042 18.9361 12.5934 18.1678C12.9895 17.7262 13.3203 17.4762 13.8781 17.1967C14.2831 16.9938 14.4341 16.8077 14.4341 16.5112C14.4341 16.2303 14.522 16.3197 11.6839 13.7162C11.1962 13.2689 10.7117 12.8092 10.6072 12.6947C10.0826 12.1203 10.713 11.2619 11.4918 11.49C11.6467 11.5354 12.362 12.1264 13.6938 13.3093C15.7947 15.1751 15.8775 15.2302 16.3346 15.0621C16.6151 14.959 16.7597 14.7427 16.7597 14.4264C16.7597 14.1688 16.7317 14.1374 15.5969 13.1237L14.4341 12.0849V10.8053V9.52563L15.8828 10.8076C16.6933 11.5249 17.4661 12.2687 17.6372 12.4962ZM9.92027 20.1132C9.91829 20.139 9.86072 20.498 9.79222 20.9109L9.66776 21.6616L6.11349 21.6799C4.15869 21.69 2.4225 21.681 2.25534 21.6599C2.06513 21.6359 1.86724 21.5548 1.72679 21.4434C1.50818 21.2702 1.50156 21.2493 1.47774 20.6658L1.45335 20.0663H5.68854C8.01797 20.0663 9.92217 20.0874 9.92027 20.1132Z" fill="#2E4DA0"/>
</svg>
