<svg width="72" height="14" viewBox="0 0 72 14" fill="none" xmlns="http://www.w3.org/2000/svg">
<g clip-path="url(#clip0_253_1939)">
<path fill-rule="evenodd" clip-rule="evenodd" d="M47.4526 7.71182C47.4953 7.99182 47.5166 8.2072 47.5806 8.42259C48.0498 10.4257 49.6066 11.761 51.6327 11.9334C53.4242 12.0841 54.8318 11.3949 55.8768 9.90874C56.3886 9.19797 57.2204 9.06874 57.8815 9.65028C58.2654 9.97336 58.3081 10.4041 58.0095 10.8134C57.8389 11.0287 57.6896 11.2441 57.519 11.481C56.8365 12.4287 55.9408 13.0749 54.8318 13.4626C53.0403 14.0872 51.2488 14.1734 49.4787 13.5057C47.0901 12.6226 45.6825 10.8564 45.2773 8.33643C45.0427 6.78566 45.1919 5.23489 45.8957 3.83489C46.9194 1.83182 48.519 0.604125 50.737 0.237972C52.2085 0.00104845 53.6588 0.151818 55.0237 0.81951C56.9645 1.74566 58.1375 3.31797 58.5853 5.4072C58.7133 5.98874 58.7559 6.57028 58.7986 7.15182C58.8413 7.51797 58.6706 7.66874 58.3081 7.69028C58.1375 7.69028 57.9882 7.69028 57.8176 7.69028C54.5119 7.69028 51.2062 7.69028 47.9218 7.69028C47.7725 7.71182 47.6659 7.71182 47.4526 7.71182ZM56.4739 5.51489C56.1967 3.64105 53.9574 2.00413 51.8886 2.13336C49.7346 2.26259 47.6019 3.92105 47.5166 5.51489C50.4811 5.51489 53.4882 5.51489 56.4739 5.51489Z" fill="#B1B1B1"/>
<path fill-rule="evenodd" clip-rule="evenodd" d="M30.519 7.64608C30.5403 7.83993 30.5616 7.96916 30.5829 8.11993C30.9881 10.3384 32.7796 11.8676 34.9976 11.9107C36.6825 11.9322 37.9834 11.243 38.9644 9.86454C39.4763 9.13224 40.3934 9.04608 41.0332 9.69224C41.3317 10.0153 41.3957 10.403 41.0971 10.7907C40.9692 10.9845 40.8412 11.1569 40.6919 11.3076C39.9668 12.3845 38.9644 13.0738 37.7488 13.483C35.9573 14.0861 34.1659 14.1292 32.4384 13.4399C29.9645 12.4707 28.5782 10.5538 28.2796 7.883C28.1303 6.5907 28.2583 5.34147 28.7915 4.15685C29.8365 1.91685 31.5213 0.538388 33.9739 0.215311C35.2749 0.0430031 36.5758 0.150695 37.7701 0.64608C39.9455 1.5507 41.2038 3.25223 41.6943 5.55685C41.7796 6.07377 41.8436 6.63377 41.8649 7.1507C41.8862 7.58147 41.8009 7.66762 41.3531 7.66762C40.5853 7.66762 39.7749 7.66762 38.9858 7.66762C36.3412 7.66762 33.6967 7.66762 31.0948 7.66762C30.9028 7.64608 30.7322 7.64608 30.519 7.64608ZM39.5829 5.44916C39.3057 3.59685 37.1303 2.02454 34.9976 2.06762C32.9289 2.1107 30.7749 3.7907 30.6043 5.44916C33.59 5.44916 36.5545 5.44916 39.5829 5.44916Z" fill="#B1B1B1"/>
<path fill-rule="evenodd" clip-rule="evenodd" d="M67.628 8.6363C67.7986 8.78707 67.8839 8.87323 67.9905 8.95938C69.1422 9.95015 70.2939 10.9409 71.4242 11.9317C71.4882 11.9963 71.5948 12.0825 71.6588 12.1471C72.0853 12.5778 72.128 13.2025 71.7228 13.6332C71.3389 14.064 70.7417 14.1286 70.2939 13.7625C69.4834 13.0948 68.7157 12.4055 67.9266 11.7378C66.7962 10.7686 65.6872 9.79938 64.5569 8.83015C64.4716 8.744 64.3436 8.65784 64.173 8.52861C64.173 8.76554 64.1517 8.9163 64.1517 9.06707C64.1517 11.8025 64.1517 9.7563 64.1517 12.4917C64.1517 12.6209 64.1517 12.7502 64.1517 12.8794C64.109 13.4825 63.6611 13.9132 63.064 13.8702C62.4882 13.8486 62.1043 13.4178 62.0829 12.8148C62.0829 12.6855 62.0829 12.5563 62.0829 12.4271C62.0829 7.02092 62.0829 6.39631 62.0829 0.990151C62.0829 0.817843 62.0829 0.667074 62.0829 0.494766C62.0829 0.107074 62.1256 0.0424582 62.4882 0.0424582C62.9787 0.0209198 63.4692 0.0209198 63.9597 0.0209198C65.1327 0.0209198 66.3484 0.0639967 67.5213 -0.000618686C69.5048 -0.0867725 71.7228 1.52861 71.936 3.8763C72.128 5.98707 70.6991 7.99015 68.5664 8.42092C68.2891 8.48554 67.9905 8.57169 67.628 8.6363ZM64.0237 6.97784C64.1517 6.99938 64.237 6.99938 64.301 6.99938C65.282 6.99938 66.2844 6.99938 67.2654 6.99938C67.5427 6.99938 67.8412 6.97784 68.1185 6.87015C69.0356 6.59015 69.7607 6.03015 69.9953 5.03938C70.4005 3.33784 69.1422 1.78707 67.4147 1.78707C66.391 1.78707 65.3886 1.78707 64.3436 1.78707C64.2157 1.78707 64.109 1.80861 63.9811 1.80861C64.0237 3.53169 64.0237 5.23323 64.0237 6.97784Z" fill="#B1B1B1"/>
<path fill-rule="evenodd" clip-rule="evenodd" d="M22.8412 7.6678C20.8792 7.6678 18.9811 7.6678 17.0403 7.6678C17.0403 7.84011 17.019 7.99088 17.019 8.14165C17.019 9.64934 17.019 11.1355 17.019 12.6432C17.019 12.837 17.019 13.0309 16.9763 13.1817C16.827 13.634 16.3578 13.914 15.91 13.8924C15.4194 13.8493 15.0142 13.4616 14.9503 12.9663C14.9289 12.837 14.9503 12.7293 14.9503 12.6001C14.9503 7.23704 14.9289 6.59088 14.9289 1.24934C14.9289 1.03396 14.9503 0.818575 15.0142 0.624729C15.1848 0.172422 15.654 -0.0860398 16.1446 -0.0214244C16.5924 0.0431909 16.9763 0.430883 17.019 0.904729C17.0403 1.0555 17.019 1.18473 17.019 1.3355C17.019 4.09242 17.0403 2.13242 17.0403 4.88934C17.0403 5.06165 17.0616 5.21242 17.0616 5.36319C17.4242 5.44934 22.4574 5.44934 22.8412 5.36319C22.8412 5.23396 22.8626 5.10473 22.8626 4.95396C22.8626 3.74781 22.8626 2.52011 22.8626 1.31396C22.8626 1.18473 22.8626 1.07704 22.8626 0.947806C22.9052 0.409345 23.3104 0.000114035 23.8436 -0.0214244C24.3768 -0.0429629 24.8673 0.366268 24.9313 0.904729C24.9526 1.03396 24.9313 1.14165 24.9313 1.27088C24.9313 5.04011 24.9313 8.7878 24.9313 12.557C24.9313 12.6863 24.9313 12.794 24.9313 12.9232C24.8673 13.4616 24.3981 13.8924 23.8649 13.8709C23.3318 13.8493 22.9052 13.4186 22.8412 12.8801C22.8412 12.7509 22.8412 12.6432 22.8412 12.514C22.8412 11.0709 22.8412 9.58473 22.8412 8.14165C22.8412 8.01242 22.8412 7.86165 22.8412 7.6678Z" fill="#B1B1B1"/>
<path fill-rule="evenodd" clip-rule="evenodd" d="M5.86493 13.9795C4.47868 13.958 3.17773 13.6564 1.98342 12.9241C1.47157 12.6226 1.00237 12.2349 0.618487 11.7826C0.426544 11.5456 0.191947 11.3087 0.106639 11.0072C-0.0213233 10.6195 -0.0426503 10.1887 0.319909 9.84411C0.725122 9.45641 1.27962 9.30564 1.83413 9.6718C2.3673 10.0595 2.62323 10.5549 3.07109 11.0072C3.7109 11.6533 4.54266 11.998 5.43839 12.1056C6.27015 12.1918 7.08057 12.1703 7.891 11.8903C8.2109 11.761 8.55214 11.6103 8.82939 11.3949C9.34124 10.8133 9.49052 9.99488 8.87204 9.43488C8.57346 9.17641 8.18958 8.98257 7.80569 8.81026C6.8673 8.40103 5.88626 8.12103 4.90522 7.86257C4.09479 7.66872 3.32702 7.41026 2.51659 7.17334C2.21801 7.08718 1.91943 6.91488 1.64218 6.76411C0.895738 6.35488 0.469198 5.70872 0.341236 4.89026C0.106639 3.18872 0.725122 1.65949 2.19669 0.905646C4.5 -0.235892 6.88863 -0.1282 9.19195 1.18565C9.61849 1.42257 10.0237 1.78872 10.3863 2.1118C10.6635 2.34872 10.8768 2.69334 10.9834 3.05949C11.0901 3.5118 10.8768 3.98565 10.3223 4.11488C9.85308 4.22257 9.42654 4.0718 9.08531 3.70565C9.02133 3.64103 8.95735 3.55488 8.91469 3.49026C8.38152 2.6718 7.59242 2.21949 6.65403 2.04718C5.71564 1.87488 4.77725 1.89642 3.88152 2.26257C3.56161 2.3918 3.22038 2.56411 2.96446 2.80103C2.58057 3.31795 2.43128 4.00718 2.94313 4.65334C3.34834 5.04103 3.81754 5.25641 4.32939 5.36411C5.45972 5.64411 6.61138 5.94565 7.74171 6.22565C8.46683 6.41949 9.17062 6.65641 9.83176 7.04411C10.6848 7.49641 11.3033 8.16411 11.5166 9.13334C11.7725 10.318 11.5166 11.438 10.5995 12.2995C9.55451 13.2472 8.36019 13.7641 6.97394 13.9149C6.59005 13.958 6.20616 13.958 5.86493 13.9795Z" fill="#B1B1B1"/>
</g>
<defs>
<clipPath id="clip0_253_1939">
<rect width="72" height="14" fill="white"/>
</clipPath>
</defs>
</svg>
