<svg width="61" height="63" viewBox="0 0 61 63" fill="none" xmlns="http://www.w3.org/2000/svg">
<g clip-path="url(#clip0_81_699)">
<path fill-rule="evenodd" clip-rule="evenodd" d="M17.7278 55.8956C17.7278 54.6257 19.6955 54.6257 19.6955 55.8956C19.6955 57.1656 17.7278 57.1656 17.7278 55.8956ZM2.97873 48.8834C2.54547 48.8834 2.00389 48.3128 2.00389 47.8895C2.00389 47.4478 2.56352 46.8956 2.97873 46.8956C4.18826 46.8772 4.18826 48.8834 2.97873 48.8834ZM35.6721 60.9018C30.5813 60.9018 27.4762 60.9386 23.1255 58.2699C22.2951 57.7729 21.2661 57.1288 21.8257 55.6748C22.3854 54.2208 25.1835 54.4969 28.072 53.6318C30.5993 52.8772 31.8089 52.4355 34.2099 51.368C35.0944 50.9631 35.9971 50.4478 36.8636 49.9325C38.9036 48.6993 39.9687 47.9447 41.792 46.4355C43.0918 45.368 45.3845 43.141 46.4315 41.7607C46.6482 41.4846 46.7384 41.411 46.9731 41.1717L47.948 40.0306C49.663 37.9693 50.6378 36.8098 53.6346 36.8098C54.4289 36.8098 55.1871 37.1042 55.7648 37.3987C57.9852 38.5398 59.0323 40.3803 59.0323 43.2147C59.0323 46.2699 56.3063 50.2269 54.3928 52.5275C51.9015 55.5275 48.2368 58.1594 44.4457 59.4294C41.7378 60.368 39.2285 60.9018 35.6721 60.9018ZM15.76 48.368C14.4241 48.368 13.7923 48.5521 13.7923 47.9999C13.7923 45.6073 14.7671 43.0122 16.0308 41.6318C17.5292 40.0122 18.4138 39.8834 18.7387 39.1288C20.1107 35.8159 21.4647 32.8343 26.3389 32.8343H29.5342V43.4907C29.5342 44.1165 25.9598 45.9754 25.346 46.2331C24.7503 46.4723 24.3351 46.6932 23.6852 46.9325C21.3564 47.7423 18.829 48.368 15.76 48.368ZM20.7967 53.6318C19.6955 53.0429 19.9121 52.8772 18.4679 52.8772C17.114 52.8772 15.76 54.2576 15.76 55.638V56.5214C14.4422 56.4846 11.6079 55.2331 10.6872 54.6625C9.89291 54.184 9.33328 53.7975 8.62922 53.2453C8.19596 52.8956 6.30043 51.092 6.04769 50.595C5.84911 50.1717 5.92132 49.6748 6.31848 49.4171C6.84201 49.0858 10.8497 50.0981 12.0592 50.2269C16.2836 50.6871 19.1359 50.503 23.2338 49.2515C28.2164 47.7239 30.7257 45.2576 34.7695 42.4601C35.6902 41.8159 36.4845 41.1901 37.4232 40.5275C39.3729 39.1472 39.1924 38.9815 41.4309 38.9815C42.7488 38.9815 44.1027 39.9386 44.6263 40.73C41.9906 43.8404 39.3368 45.957 35.9429 48.0552C28.7038 52.5275 23.3241 51.9754 21.4647 53.0981C21.1217 53.319 21.1217 53.4294 20.7967 53.6318ZM45.9983 39.1104C44.861 38.3374 44.4096 36.8466 40.7088 36.8466C38.6869 36.8466 37.2427 38.0613 35.7624 39.184L31.502 42.2208C31.502 39.0736 31.3034 31.7852 31.845 29.0245C32.0616 27.9386 32.6032 26.4846 33.0725 25.638C36.4845 19.4171 43.9042 17.0061 50.1143 20.2453C53.3096 21.9018 55.7648 25.0306 56.6493 28.6196C57.1548 30.6625 57.0646 33.184 57.0646 35.7055C56.3966 35.5398 55.2773 34.7116 53.2554 34.7116C50.8725 34.7116 48.8145 35.9263 47.3883 37.4907L45.9983 39.1104ZM10.958 30.2024C11.7523 33.6625 17.7819 33.6625 18.5762 30.2024L16.8612 29.319C16.5724 29.7607 16.446 30.0183 15.9947 30.3312C15.9947 29.3742 16.1211 28.9325 16.1211 27.957C16.4821 27.865 16.5182 27.7545 16.8251 27.5521C18.6304 26.411 21.4647 26.6502 23.288 28.049C24.0101 28.6012 25.2557 29.7423 25.346 30.8466C22.0243 30.8466 18.9012 33.4048 17.5653 36.5705C16.3377 39.4969 16.9876 37.4907 14.4963 40.3251C13.7201 41.2085 12.312 43.4355 12.1856 44.8711C7.67243 44.8711 5.81301 41.8895 4.63958 38.2821C3.64668 35.2269 3.61058 31.6748 5.65053 29.0613C6.15601 28.4171 6.69759 27.9386 7.47385 27.5337C9.15275 26.6686 10.615 26.6134 12.3842 27.3864C12.7091 27.5153 14.045 28.3619 14.027 28.5828L13.8826 30.5889C13.2146 30.2208 13.0882 29.9815 12.673 29.3374L10.958 30.2024ZM37.6399 18.3864C36.8275 18.7177 35.2028 19.8956 34.589 20.4662C31.863 23.0245 29.6064 26.8895 29.5162 30.8466H27.4401C27.4401 28.8956 25.1835 26.7423 23.7393 25.8588C22.3132 24.9754 20.1829 24.5889 18.3957 24.8834C17.475 25.0306 17.0418 25.3067 16.6266 25.3435C16.7529 25.0858 16.8071 24.7361 16.9154 24.3864C17.0418 23.9815 17.114 23.7423 17.2765 23.3742C18.8651 19.7668 19.2261 20.2637 20.4357 18.4417L18.9915 17.0429C18.3055 18.0736 17.5292 18.4233 16.103 21.0367C15.5615 22.0122 14.4241 24.8282 14.4241 26.2085C8.19596 21.957 -0.523484 27.7177 2.70794 38.9079C3.98969 43.3619 6.98643 46.8772 11.8426 46.8772V47.9999C10.8497 47.9999 9.91096 47.7239 8.97222 47.5582C7.94322 47.3742 7.02253 47.1349 5.95743 47.3742C5.70469 46.8404 5.52416 45.4048 3.79111 44.9447C1.20957 44.2453 -1.08312 47.1349 0.613834 49.6932C1.24568 50.6502 2.50937 51.1104 3.98969 50.7607C4.69374 52.2331 4.04384 51.3128 5.18116 52.6748C6.53511 54.2944 8.4487 55.8588 10.3442 56.8159C12.9258 58.1226 16.085 59.1349 19.1178 58.8956C19.7136 58.8404 19.858 58.638 20.3454 58.5275C21.5369 60.3496 25.9237 62.1165 28.6316 62.6134C31.6103 63.1656 37.333 63.0736 40.3658 62.6502C48.3993 61.4907 54.9524 56.503 58.7796 49.9693C60.4585 47.1165 61.0181 45.865 61.0361 42.865C61.0361 38.6871 59.1226 38.1533 59.0684 36.9754C58.7796 31.7484 60.1155 28.2331 56.0897 22.7116C55.0066 21.2208 52.6417 19.1042 50.9628 18.368C45.5831 16.2331 42.9654 16.2147 37.6399 18.3864Z" fill="black"/>
<path fill-rule="evenodd" clip-rule="evenodd" d="M39.8608 6.01841C39.0123 5.81595 38.8137 5.39264 36.4127 4.89571L32.4953 4.1411C33.073 5.00614 34.4269 6.03681 35.1671 6.93865C36.0697 8.04295 36.7377 8.9816 37.4237 10.2883C36.2683 10.2699 32.3689 9.40491 30.7803 9.40491C31.7732 10.9141 34.9865 12.865 37.0446 17.0429C37.2431 17.4294 37.4417 18.0552 37.6583 18.3865C42.9839 16.2147 45.6015 16.2331 50.9271 18.3865C51.1256 18.092 51.3603 17.4294 51.5409 17.0614C52.3893 15.3497 52.8226 14.9264 53.9238 13.4724C54.7723 12.3681 57.2274 10.2883 57.8051 9.40491C56.2707 9.40491 52.2269 10.2883 51.1617 10.2883C53.1836 6.40491 55.1333 5.59509 56.0721 4.1411C55.5305 4.15951 54.664 4.39877 54.1946 4.4908C53.2017 4.69325 51.1798 5.06135 50.3674 5.35583C49.7897 5.55828 49.194 5.90798 48.6885 6.03681C48.6885 5.02454 48.9232 3.95706 49.0496 3.01841C49.176 2.11656 49.4287 0.93865 49.4287 0.0184049C48.5983 0.460123 47.7678 0.865031 46.8833 1.30675C46.3597 1.56442 44.6267 2.59509 44.2837 2.55828C43.9587 2.52147 39.8969 0.184049 39.1206 0C39.1206 0.920246 39.3733 2.09816 39.4997 3C39.6261 3.93865 39.8608 5.00614 39.8608 6.01841Z" fill="#2E4E9F"/>
<path fill-rule="evenodd" clip-rule="evenodd" d="M41.0877 28.6933L43.0554 30.5706L41.6112 32.0982L40.0226 30.6442C39.7698 30.4233 39.7518 30.3681 39.499 30.184C39.7337 29.8344 40.6725 28.8037 41.0877 28.6933ZM44.0303 25.6933L45.998 27.5706L44.5538 29.0982L42.4416 27.184C42.6763 26.816 43.615 25.8037 44.0303 25.6933ZM40.7086 22.5644C41.1779 23.2638 41.9362 23.5583 42.4236 24.3129L40.9794 25.7117C40.2211 25.2883 39.7337 24.5706 38.9936 24.0552C38.5784 24.681 38.1631 24.8098 37.766 25.5644C38.2354 26.2638 38.9936 26.5583 39.481 27.3129L38.0368 28.7117C37.2786 28.2883 36.7911 27.5706 36.051 27.0552C35.6358 27.681 35.2206 27.8098 34.8234 28.5644C35.2928 29.2638 36.051 29.5583 36.5384 30.3129L33.7402 33.092L35.1483 34.6012C35.383 34.2515 37.6396 31.8221 38.127 31.6933C38.5242 31.9693 38.7228 32.2822 39.0838 32.5951C39.499 32.9264 39.7879 33.1288 40.0767 33.5706L38.6325 35.0982L40.0406 36.6074L41.6473 34.9141L43.1096 36.2393C43.6873 36.7362 43.9581 37.1227 44.626 37.5828C45.0412 36.9571 45.4564 36.8282 45.8536 36.0736C45.5106 35.5399 44.9871 35.2638 44.5357 34.7853C44.0483 34.2699 43.5067 33.9939 43.1457 33.4417L44.5899 31.9141L46.0522 33.2393C46.6298 33.7362 46.9006 34.1227 47.5686 34.5828C47.9838 33.9571 48.399 33.8282 48.7962 33.0736C48.4532 32.5399 47.9296 32.2638 47.4783 31.7853C46.9909 31.2699 46.4493 30.9939 46.0883 30.4417L47.5325 28.9141C47.8935 29.1718 49.8432 31.1227 50.5112 31.5828C50.9264 30.9571 51.3416 30.8282 51.7388 30.0736C51.3416 29.4663 49.4461 28.0859 49.0309 27.4417L51.8832 24.4601L50.4751 23.0798L47.4603 26.0798L45.3481 24.1656L46.9729 22.4356L45.4925 21L43.9039 22.6933C43.1457 22.2699 42.6583 21.5521 41.9 21.0368C41.539 21.681 41.1057 21.8098 40.7086 22.5644Z" fill="black"/>
<path fill-rule="evenodd" clip-rule="evenodd" d="M25.4727 55.8958L25.599 57.9019C33.6866 57.9019 41.1424 54.9755 47.1359 50.0246C48.2732 49.0676 50.5117 46.8222 51.4324 45.6442C51.9018 45.0553 52.2809 44.5768 52.7322 43.9694C53.2196 43.3068 54.8083 40.9694 54.9707 40.2516C54.2306 40.0676 53.9237 39.5706 53.1294 39.3682C52.8766 40.4356 50.6381 43.3068 49.8618 44.3007L48.544 45.8467C43.6878 50.8344 37.4235 54.4602 30.5274 55.4172C29.2276 55.6013 28.1625 55.7485 26.8086 55.7669C26.1406 55.7669 26.0864 55.8958 25.4727 55.8958Z" fill="black"/>
<path fill-rule="evenodd" clip-rule="evenodd" d="M34.8057 45.1104C34.9681 45.3497 35.8527 46.4724 36.0332 46.6196C36.4846 46.4908 40.745 42.9202 40.9436 42.6073C40.6006 42.0736 40.2034 41.6503 39.8424 41.0981C39.4091 41.227 38.9036 41.7055 38.5245 42.0184L34.8057 45.1104Z" fill="black"/>
<path fill-rule="evenodd" clip-rule="evenodd" d="M9.49609 52.8957C10.3265 52.9693 13.5941 54.6994 14.5328 54.773C14.6772 54.1104 15.0924 53.4846 15.1466 52.8957C14.4245 52.546 13.4496 52.2147 12.6914 51.9018C11.9152 51.5889 10.9584 51.2577 10.2363 50.908C10.0016 51.3497 9.60441 52.3619 9.49609 52.8957Z" fill="black"/>
<path fill-rule="evenodd" clip-rule="evenodd" d="M22.8545 35.5583C23.7571 36.1841 23.8654 36.8467 25.7068 36.8467C27.1871 36.8467 27.5843 36.0737 28.2883 35.5951L26.9163 34.1227C26.465 34.4172 26.3567 34.7853 25.5985 34.7853C24.8403 34.7853 24.7139 34.4172 24.2445 34.0859L22.8545 35.5583Z" fill="black"/>
<path fill-rule="evenodd" clip-rule="evenodd" d="M30.0215 47.8712C30.0756 48.6074 30.8158 49.0491 30.9963 49.7485C32.0614 49.1779 33.0002 48.3129 34.0653 47.7424C33.7584 47.135 33.3251 46.546 32.9641 45.9939C32.4405 46.27 32.0434 46.5644 31.5379 46.9141C31.1407 47.2086 30.4367 47.7608 30.0215 47.8712Z" fill="black"/>
<path fill-rule="evenodd" clip-rule="evenodd" d="M35.4189 24.8098H37.3867V22.8037H35.4189V24.8098Z" fill="black"/>
<path fill-rule="evenodd" clip-rule="evenodd" d="M51.1611 28.8221H53.1289V26.8159H51.1611V28.8221Z" fill="black"/>
<path fill-rule="evenodd" clip-rule="evenodd" d="M44.8975 43.3067H46.8652V41.3005H44.8975V43.3067Z" fill="black"/>
<path fill-rule="evenodd" clip-rule="evenodd" d="M33.4697 38.8528H35.4194V36.8467H33.4697V38.8528Z" fill="black"/>
</g>
<defs>
<clipPath id="clip0_81_699">
<rect width="61" height="63" fill="white"/>
</clipPath>
</defs>
</svg>
