<svg width="30" height="30" viewBox="0 0 30 30" fill="none" xmlns="http://www.w3.org/2000/svg">
<path d="M29.0625 7.03125H22.5C22.5 6.51305 22.0802 6.09375 21.5625 6.09375V5.15625C21.5625 3.60533 20.3009 2.34375 18.75 2.34375H11.25C9.69908 2.34375 8.4375 3.60533 8.4375 5.15625V6.09375C7.91977 6.09375 7.5 6.51305 7.5 7.03125H0.9375C0.419766 7.03125 0 7.45055 0 7.96875V25.7812C0 26.2995 0.419766 26.7188 0.9375 26.7188H3.75C3.75 27.2365 4.16971 27.6562 4.6875 27.6562H6.5625C7.08029 27.6562 7.5 27.2365 7.5 26.7188H22.5C22.5 27.2365 22.9197 27.6562 23.4375 27.6562H25.3125C25.8303 27.6562 26.25 27.2365 26.25 26.7188H29.0625C29.5802 26.7188 30 26.2995 30 25.7812V7.96875C30 7.45055 29.5802 7.03125 29.0625 7.03125ZM10.3125 5.15625C10.3125 4.63898 10.7332 4.21875 11.25 4.21875H18.75C19.2668 4.21875 19.6875 4.63898 19.6875 5.15625V6.09375C19.1698 6.09375 18.75 6.51305 18.75 7.03125H11.25C11.25 6.51305 10.8302 6.09375 10.3125 6.09375V5.15625ZM28.125 24.8438H1.875V8.90625H28.125V24.8438Z" fill="#2E4DA0"/>
<path d="M7.5 22.0312C8.01773 22.0312 8.4375 21.612 8.4375 21.0938V12.6562C8.4375 12.138 8.01773 11.7188 7.5 11.7188C6.98227 11.7188 6.5625 12.138 6.5625 12.6562V21.0938C6.5625 21.612 6.98227 22.0312 7.5 22.0312Z" fill="#2E4DA0"/>
<path d="M22.5 22.0312C23.0177 22.0312 23.4375 21.612 23.4375 21.0938V12.6562C23.4375 12.138 23.0177 11.7188 22.5 11.7188C21.9823 11.7188 21.5625 12.138 21.5625 12.6562V21.0938C21.5625 21.612 21.9823 22.0312 22.5 22.0312Z" fill="#2E4DA0"/>
</svg>
