<svg width="73" height="69" viewBox="0 0 73 69" fill="none" xmlns="http://www.w3.org/2000/svg">
<g clip-path="url(#clip0_81_745)">
<path d="M66.6865 37.9376C66.407 37.8556 66.0124 37.79 65.6178 37.7079C65.0259 37.5274 64.4175 37.3633 63.7928 37.2485C63.7928 37.1008 63.7928 36.9367 63.8257 36.789C63.6612 36.149 63.4475 35.5583 63.2338 34.9184C62.9378 34.0487 62.609 33.0641 61.8527 32.4734C61.343 32.0632 60.8333 31.7514 60.3401 31.292C60.1428 31.1115 59.9455 30.9146 59.7646 30.7012C59.7646 30.7505 59.7482 30.8161 59.7482 30.8653C59.7317 30.9966 59.5344 30.9966 59.5509 30.8653C59.5673 30.7505 59.5838 30.6192 59.5838 30.5043C59.0412 29.9136 58.548 29.2901 58.0054 28.6993C57.9067 29.7987 57.8574 30.8982 57.6108 31.9647C57.9396 32.375 58.3013 32.7852 58.7124 33.1298C59.1398 33.4908 59.6331 33.7041 59.9948 34.1471C60.3565 34.6066 60.636 35.1481 60.8169 35.6896C61.2772 36.9859 61.3923 38.1345 61.4745 39.4965C61.7047 40.1364 61.9678 40.7764 62.0829 41.4328C62.1322 41.7445 62.2308 42.0891 62.2966 42.4173C62.6419 42.8439 62.9871 43.2706 63.2995 43.73C63.6777 44.3043 63.9079 44.9607 64.3025 45.5022C64.3847 45.6007 64.2038 45.7155 64.1216 45.6007C63.8092 45.1576 63.6448 44.6489 63.3653 44.1895C63.0694 43.6972 62.7241 43.2542 62.3788 42.7947C62.4117 42.9916 62.4446 43.1885 62.4446 43.369C62.4446 43.6972 62.3624 44.009 62.2966 44.3372C62.1815 44.8951 62.3295 45.3053 62.3459 45.8468C62.3624 46.4047 62.0007 46.8149 61.8198 47.3072C62.1486 47.6846 62.5432 47.98 62.9378 48.2917C63.2502 48.5379 63.6119 48.8004 63.9572 49.0958C63.9736 49.0301 63.9736 48.9645 63.9901 48.8825C64.0723 48.1605 64.2696 47.619 64.5162 46.9626C64.7793 46.3062 64.5326 45.8468 64.5326 45.2232C64.5326 44.7638 64.6806 44.3864 64.7628 43.9433C64.9437 43.0408 64.5984 41.843 64.4669 40.9077C64.4669 40.8584 64.4504 40.8256 64.4504 40.7764C64.0394 40.3169 63.579 39.9395 62.9543 39.759C62.9214 39.7426 62.9214 39.677 62.9707 39.677C63.5462 39.7426 64.0065 40.038 64.4011 40.4318C64.2367 39.5457 63.9407 38.676 63.8421 37.79C64.1216 37.872 64.4011 37.9704 64.6806 38.0525C64.6971 38.2658 64.7135 38.4791 64.7299 38.6924C65.0094 39.4637 65.3218 40.2513 65.4534 41.0389C65.5191 41.4163 65.6342 41.8266 65.7164 42.2204C66.111 42.7783 66.5714 43.3198 66.8838 43.9269C67.0811 44.3207 67.229 44.731 67.3606 45.1412C67.4099 44.7802 67.525 44.4356 67.6072 44.0582C67.8209 43.008 67.4099 41.6461 67.2784 40.5631C67.1962 39.9395 67.0317 39.3324 66.8838 38.7089C67.2126 38.8073 67.5743 38.9222 67.936 39.0206C68.1333 39.5785 68.3142 40.1364 68.4128 40.7108C68.5608 41.5968 68.9061 42.5322 68.9225 43.4347C68.9389 43.8941 68.8074 44.3207 68.7088 44.7638C68.5443 45.5186 68.7581 46.0929 68.7745 46.8477C68.8074 47.7174 68.1498 48.3081 67.9689 49.1286C67.7223 50.1952 67.6565 51.229 67.2619 52.2791C67.0646 52.8042 66.818 53.3621 66.5385 53.8708C66.4234 53.8544 66.3083 53.8216 66.1932 53.8052C65.8808 53.7559 65.552 53.7067 65.2067 53.6739C65.5356 53.1816 65.7329 52.5909 66.0124 52.033C66.3576 51.311 66.6371 50.5398 66.7193 49.7193C66.8016 48.8825 67.0317 48.2753 67.3277 47.5205C67.6072 46.8149 67.377 46.3226 67.3441 45.6663C67.2126 45.3217 67.0975 44.9607 66.966 44.6161C66.6865 43.8777 66.2754 43.287 65.8151 42.6634C65.8644 42.9096 65.8973 43.1721 65.8973 43.4183C65.9137 43.8121 65.7986 44.1895 65.7164 44.5833C65.5685 45.2397 65.7493 45.7483 65.7822 46.4047C65.8151 47.1595 65.2396 47.6846 65.0752 48.3902C64.9437 48.9153 64.8779 49.4404 64.7793 49.949C64.845 50.0475 64.9108 50.146 64.9766 50.2444C65.0917 50.4577 64.8615 50.7367 64.6477 50.6054C64.1709 49.5224 61.9184 47.5697 60.6525 46.5196C60.7182 46.4047 60.8498 46.3555 60.9977 46.4375C61.0964 46.4867 61.1786 46.5524 61.2444 46.6016C61.2772 46.5196 61.3101 46.4375 61.343 46.3555C61.5567 45.814 61.3594 45.4366 61.3594 44.9115C61.3594 44.5341 61.4745 44.2059 61.5567 43.8449C61.7047 43.1065 61.4417 42.1548 61.3266 41.3835C61.3101 41.3671 61.2937 41.3343 61.2772 41.3179C61.2115 41.2194 60.1592 39.8247 59.9784 40.2513C59.9619 40.2841 59.9126 40.2841 59.9126 40.2349C59.929 40.1529 59.929 40.0872 59.9455 40.0052C59.9455 39.9559 59.9784 39.9231 60.0277 39.9395C60.5045 40.0708 60.8991 40.4482 61.2444 40.8913C61.0471 39.8903 60.6689 38.9058 60.784 37.872C60.6525 37.3469 60.4716 36.8546 60.2907 36.3131C60.0441 35.5911 59.7646 34.7707 59.1563 34.2784C58.7288 33.9338 58.3013 33.6877 57.9067 33.3103C57.0025 32.4734 56.3119 31.4397 55.4076 30.5864C54.5198 29.7495 53.2867 29.3885 52.1851 28.9291C52.07 28.8798 51.9385 28.8306 51.807 28.7814C51.7741 28.9783 51.7248 29.1588 51.659 29.3393C51.6261 29.4378 51.4617 29.4049 51.4946 29.2901C51.5603 29.0932 51.6097 28.9127 51.6425 28.7158C50.9684 28.486 50.2121 28.2891 49.5052 28.2399C49.4723 28.4368 49.423 28.6337 49.3901 28.8142C49.3572 28.9291 49.1928 28.8798 49.2092 28.765C49.2421 28.5845 49.2914 28.404 49.3243 28.2235C49.1928 28.2235 49.0777 28.2235 48.9626 28.2235C48.42 28.2563 47.9268 28.4204 47.3842 28.4204C47.3842 28.847 47.3842 29.2737 47.3513 29.6839C47.5322 29.7003 47.713 29.7003 47.9103 29.6839C48.5351 29.6018 49.2257 29.8808 49.8175 29.7659C50.6889 29.6018 51.0342 29.487 51.8563 30.0941C53.0072 30.9474 54.0266 31.9647 55.2597 32.7196C56.2462 33.3267 56.9367 33.6056 57.4299 34.7215C57.9889 36.0014 58.6795 36.9859 58.9425 38.3971C59.0083 38.7417 59.0741 39.0863 59.1563 39.4309C59.7811 39.9724 60.1921 40.6779 60.5703 41.4328C60.6196 41.5312 60.4716 41.6297 60.4058 41.5312C60.0606 40.8584 59.7153 40.2677 59.2056 39.7426C59.4029 40.6451 59.5838 41.564 59.6989 42.4829C59.8797 44.0418 59.518 46.0273 58.7781 47.619C59.2714 48.4066 59.7811 49.1778 60.225 49.9983C60.225 49.9983 60.225 49.9983 60.225 50.0147C60.2907 49.867 60.3565 49.7193 60.4223 49.5881C60.6689 49.063 60.8662 48.5215 60.932 47.9143C60.9484 47.7666 60.9648 47.619 60.9977 47.4877C61.8198 48.2425 62.8392 49.1286 63.579 49.8506C63.2502 49.588 62.9543 49.2599 62.6254 48.9973C62.2966 48.7348 61.9842 48.4558 61.6883 48.1605C61.5896 48.702 61.5074 49.2271 61.3101 49.7521C61.1621 50.146 60.9648 50.5726 60.7676 50.9664C60.9977 51.3438 61.2115 51.7376 61.4417 52.115C61.7047 52.0822 62.0007 52.1971 62.1486 52.4268C62.2144 52.5089 62.313 52.5909 62.4281 52.6729C62.8885 52.1971 63.1187 51.5079 63.4146 50.868C63.5462 50.589 63.6612 50.3265 63.7599 50.0311C64.138 50.4085 64.434 50.7367 64.5491 50.9336C64.5326 50.9828 64.5162 51.032 64.4998 51.0649C64.2531 51.7048 63.9243 52.3776 63.5955 52.9847C63.5626 53.0504 63.5297 53.0996 63.4968 53.1488C63.8914 53.2965 64.2696 53.4278 64.4833 53.4934C65.5356 53.8544 66.5714 54.1005 67.6894 54.2318C67.9525 54.2646 68.3635 54.3795 68.643 54.3631C68.9718 54.3467 69.2185 54.1826 69.5473 54.1662C69.5637 54.1662 69.5966 54.1662 69.613 54.1662C70.2378 52.8206 70.4844 51.3274 70.5173 49.6701C70.5666 46.8806 70.9448 44.009 70.5338 41.2358C70.4351 40.5795 70.32 39.9067 70.2049 39.2339C70.4022 39.2175 70.5831 39.1847 70.7804 39.1519C70.9612 39.1027 70.9448 38.8565 70.7804 38.8073C70.5502 38.7417 70.32 38.676 70.0898 38.6268C70.0734 38.5448 70.057 38.4791 70.057 38.3971C70.057 38.3971 70.057 38.3971 70.0405 38.3971C69.1856 38.3807 68.4457 38.2986 67.6894 38.1181V38.1345C67.377 38.0689 67.0811 38.0033 66.7851 37.9212C66.7029 37.9869 66.7029 37.954 66.6865 37.9376ZM66.6536 32.7688C66.7522 33.0641 66.8509 33.3431 66.9166 33.6385C67.0153 33.5892 67.1139 33.54 67.2126 33.4908C67.6401 33.2775 68.0511 33.0313 68.4786 32.818C67.6565 30.4715 66.5385 28.2399 64.9766 26.4185C64.7464 26.1559 64.4998 25.8934 64.2367 25.6309C64.3025 25.8442 64.3682 26.0411 64.4175 26.2544C64.434 26.238 64.4669 26.238 64.4998 26.2544C65.0588 26.7467 65.2889 27.5671 65.5191 28.2563C65.8644 29.2901 66.2097 30.3238 66.5714 31.3412C66.6207 31.4561 66.4398 31.5053 66.3905 31.3904C66.0617 30.4715 65.7493 29.5526 65.4534 28.6173C65.2067 27.8297 64.9601 27.0584 64.4504 26.4021C64.7628 27.6163 64.9437 28.8963 65.0094 30.1597C65.1739 30.291 65.3218 30.4387 65.4698 30.6192C66.0124 31.2592 66.3905 31.9976 66.6536 32.7688ZM59.4522 21.7583C58.3178 21.3645 57.3313 20.7574 56.1475 20.4456C55.3912 20.2487 54.6349 20.0518 53.895 19.8221C53.895 19.8877 53.895 19.9369 53.895 20.0026C53.895 20.4784 54.0266 20.9215 54.1088 21.3973C54.1416 21.5942 54.1581 21.7747 54.1581 21.9716C54.6184 22.1029 55.0624 22.267 55.5063 22.4475C55.4734 22.1521 55.4241 21.8404 55.3419 21.545C55.309 21.5614 55.2925 21.545 55.2761 21.5122C55.2432 21.3317 55.2268 21.2332 55.2103 21.0527C55.1939 20.9379 55.3748 20.9215 55.4076 21.0199C55.5556 21.5122 55.6543 22.0209 55.72 22.5295C55.7365 22.546 55.7693 22.546 55.7858 22.5624C56.7065 22.9562 57.6108 23.2515 58.4329 23.711C58.4822 23.3172 58.5315 22.907 58.5808 22.5131C58.5808 22.4639 58.663 22.4475 58.663 22.5131C58.6959 22.9562 58.663 23.3828 58.6137 23.8259C59.0741 24.1048 59.518 24.4166 59.929 24.8432C60.0112 24.9253 60.0935 25.0237 60.1757 25.1222C60.3072 24.2525 60.5209 23.35 60.8826 22.5952C60.488 22.2506 60.0277 21.9552 59.4522 21.7583ZM52.1522 19.2806C51.1986 18.9524 50.245 18.936 49.3079 19.0344C49.3079 19.4446 49.5052 19.8056 49.5545 20.1995C49.6038 20.5441 49.5874 20.8886 49.5709 21.2332C49.5709 21.2661 49.5709 21.2825 49.5709 21.3153C50.1464 21.2496 50.7218 21.2496 51.3302 21.3317C51.4453 21.3481 51.5603 21.3645 51.6754 21.3809C51.7412 20.9051 51.8727 20.4456 51.9385 19.9697C51.9056 19.9861 51.8563 19.9861 51.7741 20.0026C51.7412 20.0026 51.7248 19.9369 51.7576 19.9205C51.8398 19.8549 51.9221 19.8056 51.9878 19.74C52.0371 19.6744 52.1194 19.74 52.1358 19.8056C52.1522 20.1338 52.07 20.4128 51.9714 20.7246C51.9056 20.9543 51.8727 21.184 51.8563 21.4301C52.5633 21.545 53.2703 21.7091 53.9608 21.906C53.9444 21.6763 53.9279 21.463 53.8786 21.2332C53.8293 20.9543 53.7471 20.6917 53.7142 20.4128C53.6977 20.2979 53.7306 20.0518 53.7306 19.7892C53.2045 19.6251 52.6784 19.4611 52.1522 19.2806ZM47.1869 19.4282C47.1376 20.0518 47.0554 20.6917 47.0389 21.3153C47.7459 21.3973 48.4036 21.4958 49.2092 21.3645C49.275 21.3481 49.3407 21.3481 49.3901 21.3481C49.3901 21.2332 49.3901 21.1348 49.3901 21.0199C49.4065 20.5605 49.3572 20.1502 49.2257 19.7236C49.1434 19.4775 49.1106 19.3134 49.1434 19.0672C48.5022 19.1493 47.8446 19.2806 47.1869 19.4282ZM43.8 19.8549C43.8493 20.1338 43.9315 20.3964 43.9808 20.6753C44.0137 20.9215 44.0137 21.1676 44.0137 21.4137C44.7536 21.4137 45.4606 21.2332 46.184 21.2496C46.4142 21.2496 46.6443 21.2825 46.8581 21.2989C46.8581 20.7246 46.8416 20.101 46.9074 19.4939C45.9702 19.6908 45.0331 19.8713 44.063 19.8713C43.9644 19.8549 43.8822 19.8549 43.8 19.8549ZM40.8405 19.5595C40.8898 19.9861 40.9556 20.4128 41.0707 20.8394C41.0871 20.9215 41.1036 20.9871 41.12 21.0691C41.1858 21.0691 41.2351 21.0691 41.3009 21.0691C42.1394 21.1184 42.9615 21.3809 43.8 21.4137C43.8 21.0527 43.7671 20.6917 43.6849 20.3307C43.652 20.1666 43.6027 20.0026 43.5862 19.8549C42.6655 19.7892 41.7612 19.6087 40.8405 19.5595ZM38.8511 19.9533C38.8511 19.9697 38.8511 20.0026 38.8182 19.9861L38.8511 19.9533ZM38.325 20.5933C38.4236 20.9871 38.4894 21.3809 38.5552 21.7911C38.6867 21.7091 38.8182 21.6435 38.9662 21.5778C39.5581 21.3317 40.2157 21.1184 40.857 21.0691C40.7419 20.5605 40.6432 20.0518 40.5775 19.5431C40.4459 19.5431 40.298 19.5431 40.1664 19.5431C39.8047 19.5595 39.4266 19.6087 39.0648 19.6744C39.6403 18.9032 40.1171 18.1319 40.4953 17.3771C41.3666 17.3935 42.2052 17.5248 43.1094 17.574C44.8851 17.6561 46.4471 17.2294 48.157 16.8192C49.5216 16.4746 50.8205 16.3762 52.2016 16.6879C52.9085 16.852 53.5662 17.1146 54.2732 17.2787C55.1775 17.5084 56.0653 17.5084 56.986 17.6068C58.3342 17.7545 59.4358 18.3124 60.7182 18.6734C62.198 19.1001 63.2502 19.9697 64.4175 20.9543C66.5056 22.7265 68.7416 24.5314 69.9912 27.0256C70.6817 28.404 71.1421 29.8972 71.4874 31.4397C71.9642 31.5545 72.3423 32.0632 71.9971 32.5391C71.7011 32.9657 71.6518 33.3759 71.175 33.6549C70.5502 34.0159 69.7446 33.9995 69.0869 34.3441C68.2155 34.8035 67.3112 35.2794 66.4892 35.8209C66.3741 35.9029 66.259 35.9685 66.1439 36.0506C66.6371 36.1819 67.1633 36.3788 67.2948 36.428C68.232 36.7726 69.0869 36.8054 70.057 36.9859C70.5338 37.0844 70.9941 37.2649 71.4709 37.429C71.8326 37.4125 72.1944 37.3797 72.5561 37.3469C72.9671 40.0544 73.148 42.7783 72.8685 45.5186C72.5725 48.341 72.9671 51.2618 72.1615 54.0185C72.0793 54.2974 71.9806 54.5764 71.882 54.8389C72.2108 55.2656 71.9313 56.1024 71.2736 56.086C70.5995 56.0696 69.7446 55.8563 69.2349 55.7907C68.3964 55.6758 67.5414 55.4953 66.7029 55.3968C65.3712 55.2328 64.1216 54.6748 62.8721 54.1334C63.4146 55.1507 64.023 56.1517 64.7135 57.087C65.3547 57.9402 66.3083 58.7607 66.5549 60.0078C66.6536 60.1062 66.7358 60.1883 66.818 60.2867C63.8257 62.0425 60.225 63.1747 57.4793 65.0618C56.8052 65.5376 56.2297 65.6853 55.4734 65.915C54.6678 66.1612 53.9279 66.555 53.1058 66.7519C51.4288 67.1621 49.8669 67.9005 48.157 68.1959C47.3678 68.3436 46.6608 68.7046 45.888 68.8358C45.1317 68.9507 44.359 68.8358 43.5862 68.8358C42.7477 68.8358 41.9257 69.0327 41.0871 69.0492C40.3637 69.0492 39.6403 68.8358 38.9333 68.6882C38.6374 68.6389 38.5223 68.3272 38.5716 68.0646C38.4894 68.0646 38.3907 68.0646 38.3085 68.0646C36.9439 68.1303 35.7272 68.0974 34.3626 67.8677C31.5347 67.3918 28.7396 66.5058 26.2898 65.0125C25.2211 64.3562 24.1031 63.6178 23.2646 62.6825C22.3768 61.6815 22.0315 60.0242 21.5876 58.7935C21.045 57.2511 20.8971 55.7414 20.8477 54.1169C20.8313 53.3785 20.8806 52.6073 20.7326 51.8853C20.5847 51.1141 20.3052 50.3429 20.1243 49.5716C19.7955 48.1112 18.8912 46.897 18.3322 45.5186C17.7403 44.0418 17.0004 42.4501 17.0169 40.8256C17.0169 40.7272 17.0169 40.6451 17.0169 40.5467C18.3486 40.1036 19.5982 39.5293 20.6998 38.7745C20.6011 39.1027 20.5353 39.4473 20.4696 39.7754C20.7491 39.9724 21.0779 40.12 21.3245 40.2677C21.7684 40.5138 22.1795 40.8092 22.5905 41.1046C22.7056 40.3334 22.9522 39.5785 23.166 38.8237C23.0838 38.7745 23.0016 38.7253 22.9193 38.6924C22.5248 38.4791 22.0644 38.2658 21.752 37.9212C21.7684 37.9048 21.7849 37.8884 21.8013 37.872L21.9164 37.7571C22.2781 38.1181 22.7549 38.3643 23.2153 38.6104C23.2975 38.315 23.3633 38.0361 23.429 37.7407C23.5441 37.15 23.577 36.5429 23.6757 35.9685C24.1689 35.3942 24.5964 34.7871 24.9745 34.0815C25.1225 34.1636 25.2869 34.2456 25.4513 34.3112C25.3362 34.4589 25.2211 34.6066 25.1061 34.7707C25.0896 34.7871 25.0896 34.8035 25.0732 34.8199C25.4678 35.1481 25.8624 35.4763 26.2405 35.8209C26.4049 35.9521 26.5529 36.0998 26.7173 36.2311C26.8653 35.8209 27.079 35.4106 27.3092 35.0496C27.6052 35.1481 27.9011 35.2465 28.2135 35.345C28.0655 35.5255 27.9175 35.706 27.786 35.8865C27.5887 36.1819 27.4572 36.4936 27.375 36.8054C28.1642 37.511 28.9369 38.2166 29.6932 38.9386C29.759 38.4463 29.7919 37.9376 29.9563 37.4618C30.0221 37.2813 30.1043 37.1008 30.2029 36.9203C29.907 36.6085 29.5946 36.3131 29.2986 36.0178C29.1178 35.8373 28.9369 35.6568 28.7725 35.4927C28.9369 35.5419 29.1013 35.5911 29.2657 35.624C29.6275 35.9685 29.9892 36.3295 30.3344 36.707C30.4824 36.4608 30.6304 36.2147 30.8112 36.0014C31.1236 36.067 31.436 36.1326 31.732 36.1819C31.6498 36.2475 31.584 36.3295 31.5018 36.3952C31.5018 36.4116 31.5182 36.4116 31.5182 36.428C31.6004 36.5429 31.436 36.6413 31.3374 36.5429C31.1565 36.7398 30.9921 36.9367 30.8441 37.15C30.8277 37.1828 30.8112 37.2156 30.7948 37.2485C31.0579 37.5602 31.3045 37.872 31.5182 38.2002C31.6004 38.315 31.4031 38.4135 31.3374 38.2986C31.1401 38.0033 30.9099 37.7079 30.6797 37.4454C30.4166 37.9869 30.3673 38.5776 30.3509 39.1847C30.3509 39.316 30.3344 39.4309 30.3344 39.5621C30.3838 39.6114 30.4331 39.6606 30.4824 39.7098C30.5646 39.7919 30.4331 39.9231 30.3509 39.8411C30.3344 39.8247 30.3344 39.8247 30.318 39.8083C30.2687 40.2841 30.1865 40.7764 30.0714 41.2358C30.0385 41.3671 30.0056 41.4656 29.9892 41.564C30.4989 42.0891 31.0085 42.6306 31.288 43.287C31.3374 43.4018 31.1401 43.4511 31.0907 43.3362C30.8441 42.7291 30.3673 42.3024 29.9398 41.843C29.9234 42.0727 29.9398 42.286 30.0549 42.5978C30.17 42.8932 30.3016 43.1721 30.4166 43.4511C30.7126 44.1402 31.025 44.813 31.3703 45.4694C31.6498 46.0109 31.8142 46.4211 31.8635 47.0282C31.8799 47.1595 31.8799 47.2908 31.8799 47.4221C31.9128 47.4056 31.9457 47.3892 31.995 47.3728C32.4554 47.1759 32.85 47.258 33.3268 47.1267C33.3432 47.1267 33.3432 47.1267 33.3597 47.1267C33.261 46.5196 33.1295 45.9288 32.9157 45.3545C32.6691 44.6982 32.5376 43.9269 32.2416 43.3034C31.8306 42.4337 31.025 41.6953 31.2058 40.6779C31.3538 39.8083 31.9128 38.7909 32.3896 38.0525C32.8007 37.429 33.4748 37.068 33.82 36.4444C34.1817 36.4772 34.5434 36.4936 34.9052 36.51C34.7901 36.871 34.6257 37.232 34.3955 37.511C34.1489 37.8228 33.7707 37.9869 33.5241 38.2986C33.261 38.6268 33.0966 39.0534 32.8664 39.398C32.6362 39.7426 32.1923 40.1036 32.0608 40.4974C31.732 41.482 32.6198 42.4501 32.9651 43.287C33.5405 44.6982 34.2804 45.9124 34.4777 47.3072C34.116 47.4385 33.7707 47.5533 33.409 47.6846V47.6682C33.3925 47.6846 33.3925 47.6846 33.3761 47.701C32.1759 48.1441 30.9757 48.5871 29.7754 49.0137C29.7425 49.0301 29.7261 49.0301 29.6932 49.0465C29.8741 49.2106 30.0385 49.3911 30.2029 49.5716C30.3016 49.6701 30.1536 49.8178 30.0549 49.7193C29.8741 49.5224 29.6768 49.3255 29.463 49.1286C28.904 49.3419 28.3779 49.5881 27.8353 49.8342C28.0491 49.9819 28.2628 50.146 28.4766 50.2936C28.5916 50.2444 28.7067 50.1952 28.8218 50.1295C28.8218 50.1952 28.8054 50.2444 28.8054 50.31C28.8054 50.3921 28.8054 50.4577 28.8054 50.5398C28.9369 50.6382 29.052 50.7203 29.1835 50.8187C29.2986 50.9008 29.1342 51.0649 29.0191 50.9828C28.9534 50.9336 28.8712 50.8844 28.8054 50.8187C28.8218 51.1633 28.8712 51.5079 28.9205 51.8689C29.052 51.8033 29.1835 51.754 29.2986 51.7048C29.9234 51.5079 30.4824 51.1633 31.0907 50.9008C31.1565 50.868 31.2058 50.8515 31.2716 50.8187C31.1894 50.31 31.1072 49.8178 31.0414 49.3255C31.2552 49.2599 31.4689 49.1942 31.6826 49.1122C31.6662 49.6045 31.732 50.0967 31.8142 50.5726C32.0115 50.4905 32.1923 50.4085 32.3896 50.3429C32.6856 50.2444 32.9815 50.1952 33.2775 50.146C32.7184 50.3757 32.1923 50.6546 31.7155 50.9172C30.6797 51.4587 29.6439 52.033 28.6245 52.6237C29.3151 53.0996 30.0056 53.5919 30.6797 54.0841C30.7948 54.1826 30.6797 54.3795 30.5646 54.2974C30.1043 53.9529 29.6275 53.6247 29.1671 53.2965C29.2329 53.6739 29.2657 54.0513 29.2822 54.4287C29.2986 54.7897 29.2822 55.1999 29.2657 55.5938C29.8248 55.9383 30.3838 56.2665 30.9428 56.6275C31.0579 56.7096 30.9428 56.8901 30.8277 56.808C30.318 56.4634 29.7919 56.1517 29.2657 55.8399C29.2329 56.6603 29.2493 57.5136 29.5617 58.2028C29.9398 58.4325 30.318 58.6786 30.6962 58.9084C30.8277 58.9904 30.7126 59.1873 30.5811 59.1053C30.3344 58.9412 30.0714 58.7935 29.8248 58.6294C29.9892 58.8427 30.1865 59.0396 30.4495 59.1873C30.3838 59.1545 30.5811 59.2366 30.7455 59.3186C31.1894 59.5483 31.5511 59.8601 32.0115 60.057C32.2252 60.1391 32.5376 60.3196 32.9157 60.5165C32.9651 60.5329 33.0144 60.5329 33.0473 60.5493C33.7049 60.697 34.2639 60.7134 34.8887 60.9923C35.0203 61.0416 35.1353 61.0908 35.2504 61.14C35.2833 61.14 35.3162 61.1564 35.3326 61.1728C35.7601 61.3369 36.1383 61.4354 36.648 61.5174C37.5687 61.6487 38.7525 61.7143 39.6732 61.6159C40.6268 61.5174 41.4489 60.9595 42.4025 60.8118C43.2739 60.6806 44.2275 60.7626 45.1153 60.697C46.1018 60.6149 46.7759 60.4344 47.713 60.057C47.861 60.0078 47.9925 59.9421 48.1405 59.9093C47.2362 59.4499 46.332 58.9904 45.4112 58.5474C44.9344 58.5802 44.4412 58.5802 43.9808 58.5802C43.4876 58.5802 43.0601 58.5966 42.5833 58.7443C42.1065 58.892 41.6626 59.1381 41.1529 59.253C40.3308 59.4335 39.3772 59.2858 38.5552 59.253C37.9468 59.2201 37.3056 59.0889 36.7795 58.8099C36.1547 58.4817 35.4971 58.3177 34.8558 58.0551C34.5763 57.9402 34.1653 57.809 33.8693 57.6121C32.9815 57.3003 31.9128 56.8901 31.4525 55.9712C31.1894 55.4625 31.3045 54.8061 31.3045 54.2482C31.3045 53.4934 31.436 52.6894 31.4031 51.951C31.4031 51.9181 31.4031 51.8689 31.3867 51.8361C31.584 51.7376 31.7813 51.6392 31.9786 51.5407C32.0279 51.8689 32.0772 52.1971 32.0772 52.5089C32.1266 53.838 31.6826 55.6758 33.0308 56.4634C32.9815 56.4306 33.1295 56.4963 33.2775 56.5783C33.6556 56.7588 33.9516 57.0213 34.3297 57.2018C34.4941 57.2839 34.7736 57.4152 35.0696 57.5792C35.1189 57.5957 35.1518 57.5957 35.1847 57.6121C35.7272 57.7433 36.1876 57.7597 36.7137 57.9895C36.8124 58.0387 36.911 58.0715 37.0097 58.1207C37.0425 58.1207 37.059 58.1372 37.0754 58.1536C37.4207 58.2848 37.7495 58.3669 38.1606 58.4325C38.9169 58.5474 39.9034 58.5966 40.6597 58.5146C41.4489 58.4325 42.1394 57.9731 42.9286 57.8418C43.652 57.7269 44.4412 57.809 45.1811 57.7433C45.4277 57.7269 45.6414 57.6941 45.8552 57.6613C45.1811 57.4972 44.5234 57.2675 44.1288 56.7752C44.0795 56.7096 44.1288 56.5947 44.211 56.6275C44.2603 56.6439 44.3097 56.6603 44.359 56.6768C44.3919 56.6932 44.4083 56.726 44.3754 56.7588C44.8358 57.1198 45.3619 57.2839 45.9209 57.4316C46.0689 57.4644 46.2004 57.5136 46.3484 57.5464C46.6608 57.4644 46.9732 57.3495 47.3184 57.2183C48.1898 56.8737 49.1106 56.7424 49.9491 56.2993C49.9655 56.2993 49.9655 56.2829 49.982 56.2829C48.979 55.9548 47.9597 55.643 46.9403 55.3476C46.5457 55.4297 46.184 55.3804 45.773 55.3968C44.7207 55.4461 44.2932 55.8235 43.504 56.3978C43.2245 56.5947 43.0108 56.7916 42.6655 56.8573C41.975 56.9885 41.2516 56.7588 40.5446 56.8244C40.0184 56.8737 39.4266 56.9721 38.9004 57.087C38.2592 57.2182 38.0126 57.2347 37.3385 56.808C36.5657 56.3322 35.8094 56.1024 35.2504 55.4461C34.5106 54.8225 34.0831 54.3795 33.6392 53.3293C33.2939 52.5253 33.1624 51.8525 33.2446 51.032C33.5405 50.9172 33.8529 50.8023 34.1653 50.6875C34.0502 51.0485 33.9187 51.393 33.9187 51.7869C33.9187 52.5417 34.2639 53.4606 34.6092 54.1169C34.7572 54.4123 34.9545 54.642 35.1682 54.8389C35.7601 55.2492 36.2862 55.6266 36.9439 55.9383C37.3221 56.1188 37.8811 56.5619 38.3085 56.5619C38.884 56.5619 39.8211 56.0368 40.4459 55.9219C40.9556 55.8399 41.4817 55.9548 42.0079 55.8891C42.6162 55.8235 42.9121 55.5445 43.3889 55.1999C43.4383 55.1671 43.4876 55.1343 43.5369 55.0851C43.3396 54.9374 43.1423 54.8061 43.2739 54.5272C43.4547 54.1333 44.0466 54.3139 44.3425 54.3959C44.4576 54.4287 44.5727 54.4615 44.6878 54.4779C45.0495 54.3795 45.4277 54.3467 45.9374 54.4123C46.2662 54.4615 46.5786 54.4123 46.8745 54.3303C46.3813 54.1498 45.888 53.9529 45.3784 53.8052C44.7207 53.6083 44.0466 53.5754 43.3725 53.5098C43.4383 53.5754 43.5205 53.6083 43.6191 53.6411C43.6684 53.6575 43.6356 53.7231 43.5862 53.7231C43.3889 53.6739 43.2739 53.6083 43.1259 53.477C43.0766 53.4278 43.1094 53.3457 43.1752 53.3457C43.8657 53.3621 44.5563 53.4114 45.2304 53.5754C45.888 53.7395 46.5128 54.0185 47.1705 54.2318C47.7788 53.9857 48.3543 53.559 48.9626 53.2309C48.9133 53.2144 48.8475 53.1816 48.7982 53.1652C48.009 52.8534 47.2198 52.4432 46.3977 52.2135C46.0525 52.115 45.6907 52.0658 45.329 52.0002C45.1317 52.0986 44.918 52.1971 44.7207 52.3284C43.6027 53.0668 42.238 53.92 40.9063 54.199C39.8376 54.4287 38.7031 54.1005 37.7166 53.7559C37.4865 53.6739 37.5193 53.4114 37.6838 53.3293C36.6644 52.394 35.9739 50.6875 36.1383 49.6045C36.2534 48.8496 36.5 48.1933 36.3849 47.4056C36.2534 46.4539 35.7108 45.8796 35.3162 45.0592C35.0696 44.5341 35.1518 44.1074 35.1189 43.5495C35.0696 42.647 34.6421 42.1219 34.3461 41.3179C34.0338 40.4318 34.6914 39.6442 35.2504 38.9878C35.645 38.5119 36.1547 38.2002 36.3684 37.5766C36.4835 37.232 36.5164 36.8546 36.5329 36.4772C36.763 36.4772 37.0097 36.4772 37.2563 36.4772C37.1741 36.9039 37.207 37.3305 37.059 37.7571C36.763 38.6268 36.0232 39.1519 35.4971 39.8739C35.0038 40.5467 35.1847 40.7436 35.5793 41.3999C35.8259 41.8266 36.0725 42.1383 36.1876 42.6306C36.3356 43.3854 36.1054 44.091 36.4671 44.813C36.7137 45.3381 37.059 45.7483 37.2234 46.3226C37.5029 47.2908 37.3221 48.2097 36.9768 49.145C36.5164 50.3921 37.2398 53.0996 38.8018 53.5098C38.8675 53.5262 38.9333 53.5426 38.9991 53.5426C39.0155 53.5426 39.0484 53.5426 39.0648 53.559C39.0813 53.559 39.0813 53.559 39.0977 53.5754C39.6239 53.6575 40.15 53.7067 40.561 53.6083C41.6297 53.3457 42.7477 52.7058 43.6356 52.0658C43.7835 51.9509 43.948 51.8525 44.0959 51.754C44.063 51.754 44.0302 51.7376 44.0137 51.7376C43.8493 51.6884 43.6684 51.6228 43.504 51.5571C43.0272 51.4095 43.1588 51.9017 43.4218 52.115C43.4547 52.1479 43.4054 52.1971 43.3725 52.1807C43.1259 52.0494 42.4353 51.6884 42.8628 51.3274C43.0272 51.1961 43.2574 51.2618 43.4218 51.311C43.7342 51.393 44.0302 51.4915 44.3425 51.5735C44.7207 51.3274 45.1153 51.1141 45.5099 50.9008C44.9838 50.7203 44.4576 50.5398 43.9315 50.3757H43.9151C43.8986 50.3921 43.8493 50.3921 43.8493 50.3593C43.8493 50.3593 43.8493 50.3593 43.8493 50.3429C43.6849 50.2936 43.5205 50.228 43.3561 50.146C42.1394 50.9828 40.9885 51.8853 39.8869 50.3265C39.8047 50.1952 39.8705 50.0639 39.9856 50.0147C39.3937 49.2927 39.1306 48.1276 39.1635 47.3564C39.1964 46.3391 39.0977 45.5678 38.8018 44.5997C38.6702 44.1567 38.5716 43.7136 38.4072 43.2706C38.1606 42.6306 37.7002 42.204 37.4207 41.6133C36.7959 40.3334 38.1112 38.7581 38.8018 37.79C39.0813 37.3961 39.2621 36.9203 39.4923 36.4772C39.8047 36.4772 40.1335 36.4772 40.4459 36.4772C40.2157 36.8382 40.0678 37.3305 39.8869 37.6751C39.4923 38.4135 38.9169 39.0534 38.5387 39.7919C38.3085 40.2349 38.1606 40.6287 38.3579 41.1046C38.473 41.3835 38.9333 41.7117 39.0977 42.0071C39.5252 42.7947 39.591 43.648 39.7883 44.5012C39.9691 45.3217 40.0842 46.0601 39.9034 46.9134C39.7389 47.6846 39.7061 49.8342 40.7583 50.4085C41.416 50.671 41.9914 50.1295 42.6326 49.7193C42.6491 49.7029 42.682 49.6865 42.6984 49.6701C42.682 49.6537 42.6655 49.6373 42.6491 49.6045V49.5716C42.6491 49.5716 42.6326 49.588 42.6326 49.5716C42.5669 49.4732 42.7148 49.3747 42.797 49.4568C42.8299 49.4896 42.8464 49.5224 42.8793 49.5388C43.5862 49.0794 44.2932 48.6691 45.066 48.3246C44.77 48.2261 44.4741 48.1441 44.1617 48.0784C44.1124 48.062 44.0959 48.0292 44.0959 47.98C44.0959 47.9143 44.0795 47.8487 44.0795 47.7666C44.063 47.6846 44.211 47.6682 44.2275 47.7502C44.2768 47.9636 44.9016 48.0948 45.3126 48.1933C45.3455 48.1769 45.3784 48.1605 45.4112 48.1441C45.888 47.9307 46.3484 47.701 46.7923 47.4549C46.2333 47.1595 45.7072 46.7985 45.1646 46.4867C45.1317 46.4703 45.0989 46.4539 45.066 46.4375C44.6714 46.6672 44.2768 46.9298 43.8657 47.0282C43.4054 47.1267 43.0272 46.979 42.7477 46.7001C42.7313 46.7001 42.7148 46.7001 42.6984 46.7001C42.0407 46.3883 41.9092 45.5842 41.7612 44.9607C41.5311 43.9433 41.5968 43.0901 41.0049 42.1548C40.6432 41.5804 39.9034 41.0718 39.854 40.3498C39.7883 39.3488 41.12 38.2494 41.9257 37.8392C42.8793 37.3469 44.2439 37.3797 45.2304 37.7735C46.0031 38.0853 46.3977 38.151 47.2198 38.1674C47.7624 38.1838 48.2885 38.1674 48.8311 38.1838C49.8011 38.2002 50.9849 39.0699 51.5603 39.8247C52.2344 40.7108 52.1358 41.9414 51.4617 42.8111C50.6725 43.8121 49.1106 44.2879 48.0748 44.9771C47.2527 45.5186 46.4799 45.7812 45.5757 46.175C45.4606 46.2242 45.3455 46.2898 45.2304 46.3555C45.8058 46.7001 46.3648 47.0775 46.9567 47.3728C47.9597 46.8149 48.9133 46.2242 50.0313 45.7976C51.3302 45.3053 52.3166 44.5341 52.8592 43.2213C53.3031 42.1219 53.7142 41.1702 53.188 40.0216C52.6948 38.9386 52.1358 38.0197 51.2151 37.232C50.2779 36.428 49.0941 36.346 47.8939 36.3131C47.0718 36.2967 46.2826 36.4116 45.477 36.2147C44.4083 35.9357 43.504 35.6404 42.386 35.6896C41.8106 35.706 41.0871 35.8045 40.6268 36.2311C40.6103 36.2475 40.5939 36.2639 40.5939 36.2639C40.5281 35.9521 40.4624 35.6404 40.413 35.3286C41.0543 34.9184 41.8599 34.9184 42.5998 34.7543C43.0437 34.6558 43.4054 34.4261 43.8657 34.4753C44.2768 34.5081 44.7371 34.7543 45.1153 34.902C46.1675 35.2794 47.154 35.0989 48.2227 35.2301C49.0777 35.3286 50.1299 35.4106 50.9027 35.8373C51.7905 36.346 52.6619 37.2813 53.2374 38.1181C54.1745 39.4801 54.6513 41.2194 54.1581 42.8111C53.8621 43.7628 53.6155 44.452 52.8921 45.1576C52.1687 45.8796 51.5275 46.0929 50.5903 46.4375C49.8833 46.7001 49.2092 46.9298 48.568 47.3236C48.1076 47.6026 47.7295 47.9636 47.2527 48.2097C46.9732 48.3738 46.6772 48.5051 46.3813 48.6363C46.5457 48.702 46.7101 48.784 46.8581 48.866C47.3842 49.1286 47.8939 49.3911 48.42 49.6537C48.8146 49.5224 49.2092 49.3747 49.6038 49.2599C50.7383 48.8989 51.7248 48.2917 52.777 47.7502C53.7964 47.2416 54.8322 46.9134 55.2103 45.7155C55.5556 44.6489 55.8022 43.5167 55.8844 42.4009C55.9666 41.3999 55.5227 40.3005 55.4076 39.2832C55.2432 37.9869 55.3748 37.1828 54.1581 36.4444C53.7306 36.1819 53.336 35.8209 52.9085 35.5583C52.3495 35.2301 51.7412 35.1973 51.2315 34.7871C50.7712 34.4261 50.4916 33.8846 49.9984 33.5564C49.5052 33.2446 48.9133 33.1626 48.3543 33.0641C47.1705 32.8508 45.9702 32.8016 44.77 32.9329C44.1946 32.9985 43.5862 33.0641 43.0272 33.1626C42.4025 33.2939 41.827 33.5728 41.2022 33.6877C40.857 33.7533 40.5446 33.7697 40.2157 33.7533C40.1829 33.3595 40.15 32.9657 40.1171 32.5719C40.8898 32.5391 41.5475 32.3586 42.3531 32.1781C43.5862 31.8991 44.9509 32.0304 46.2169 32.0304C47.4829 32.0304 48.8475 32.1452 50.0642 32.5226C50.5081 32.6703 50.8862 32.8672 51.248 33.179C51.8892 33.7369 52.3989 33.9995 53.188 34.3605C53.7635 34.623 54.2239 35.1153 54.7664 35.4435C55.2597 35.7388 55.6871 35.9029 55.9666 36.428C56.4106 37.2813 56.3284 38.5119 56.427 39.4309C56.5585 40.6123 56.838 41.7281 56.6572 42.9096C56.4599 44.2059 56.279 45.4694 55.8351 46.7329C55.4734 47.7174 54.7007 48.1276 53.7799 48.5215C52.4317 49.0958 51.1164 49.7521 49.7189 50.1788C49.7353 50.1952 49.7682 50.1952 49.7847 50.2116C49.9162 50.2608 49.8669 50.4905 49.7189 50.4413C49.6038 50.3921 49.4887 50.3429 49.3736 50.2936C48.6338 50.5398 47.9761 50.8515 47.2691 51.1797C47.2856 51.1797 47.3184 51.1961 47.3349 51.1961C47.9597 51.393 48.5844 51.5735 49.2092 51.7705C49.686 51.9345 50.2615 52.115 50.5903 52.5253C50.5903 52.5253 50.5903 52.5417 50.6067 52.5417C50.7547 52.476 50.9027 52.4104 51.0507 52.3284C51.5603 52.033 51.9549 51.6064 52.4975 51.3274C53.3031 50.9336 54.3061 50.9664 55.161 50.7367C55.3419 50.9992 55.5227 51.2454 55.7036 51.5079C54.6513 52.0986 53.336 52.0822 52.2838 52.755C51.7248 53.116 51.1329 53.3457 50.541 53.5754C50.8862 53.7231 51.248 53.8708 51.5932 54.0349C51.7083 54.0841 51.6097 54.2646 51.4946 54.2154C51.0835 54.0349 50.6889 53.8544 50.2779 53.6903C49.8175 53.8544 49.3572 54.0349 48.8968 54.2646C48.7324 54.3467 48.5844 54.4451 48.4365 54.5436C49.4065 54.8389 50.3766 55.1507 51.2644 55.643C51.5603 55.5117 51.8563 55.3804 52.1522 55.2656C52.9085 54.9538 53.7142 54.8389 54.454 54.4615C55.0624 54.1498 55.5227 53.6247 56.0817 53.2309C56.2626 53.0996 56.4434 52.9683 56.6243 52.837C56.7887 53.0668 56.9367 53.3129 57.0847 53.559C56.5092 53.9364 55.9009 54.2318 55.3419 54.6749C54.8322 55.0851 54.1252 55.4461 53.5169 55.6922C52.6784 56.0368 51.8234 56.3814 51.0013 56.7588C50.2286 57.1034 49.5709 57.3988 48.7324 57.6121C48.4365 57.6777 48.1405 57.7926 47.8446 57.9074C47.8939 57.9238 47.9432 57.9402 47.9761 57.9567C48.9461 58.252 49.8998 58.5966 50.8369 58.974C50.8698 58.9576 50.9027 58.9412 50.9356 58.9248C51.7576 58.4982 52.6126 58.0879 53.4675 57.7433C54.3883 57.3823 55.3583 57.2347 56.2462 56.7752C56.9367 56.4142 57.4628 55.8399 58.0876 55.3804C58.1369 55.4789 58.1698 55.5609 58.2191 55.6594C58.2849 55.8071 58.4986 55.6922 58.4657 55.5609C58.4329 55.4461 58.4 55.3148 58.3507 55.1999C58.4986 55.0851 58.6466 54.9866 58.7946 54.8718C58.3342 54.3631 57.9889 53.7724 57.6108 53.198C57.5779 53.2309 57.5286 53.2473 57.4957 53.2801C57.3477 53.0175 57.1998 52.7714 57.0518 52.5253C57.0847 52.5089 57.1011 52.4924 57.134 52.4596C56.8545 52.0002 56.6243 51.5243 56.3284 51.0977C56.2955 51.1305 56.2462 51.1797 56.2133 51.2125C56.0653 50.9992 55.9338 50.7695 55.7858 50.5562C55.8022 50.5562 55.8022 50.5398 55.8187 50.5398C55.8187 50.5398 55.8351 50.5398 55.8351 50.5234L55.8187 50.507C55.6214 50.3265 55.9173 50.0147 56.1146 50.2116C56.1311 50.228 56.1475 50.2444 56.1804 50.2772C56.5585 49.9162 56.8216 49.3911 57.1175 48.9645C57.2326 49.1614 57.3477 49.3747 57.4628 49.5716C57.3313 49.8342 57.1998 50.0967 57.0353 50.31C56.9038 50.4741 56.7887 50.6382 56.6407 50.8023C56.9696 51.229 57.1998 51.6884 57.4135 52.1971C57.4299 52.2135 57.4299 52.2463 57.4464 52.2627C57.4793 52.2299 57.5121 52.2135 57.545 52.1807C57.9396 51.8525 58.3342 51.7376 58.7617 51.5735C58.9261 51.8197 59.0905 52.0658 59.2714 52.3119C59.2714 52.3119 59.2714 52.3119 59.2714 52.3284C59.2385 52.3448 59.2056 52.3448 59.1563 52.3612C58.6302 52.5253 58.252 52.7714 57.8574 53.0668C58.2191 53.6411 58.6466 54.1826 59.0741 54.7077C59.37 54.4779 59.6495 54.2482 59.9455 54.0021C60.0112 53.9529 60.0606 53.9036 60.1263 53.8708C60.3072 54.199 60.488 54.5108 60.6689 54.8389C60.3565 55.0523 60.0441 55.2984 59.6989 55.5445C58.9261 56.1024 58.104 56.4634 57.3477 57.0706C56.7229 57.5628 55.8844 57.9895 55.1446 58.3012C54.1252 58.7115 53.1058 59.1217 52.1029 59.5812C51.2808 59.9586 50.541 60.2867 49.6696 60.5165C50.3108 60.8446 50.9684 61.1564 51.659 61.3369C51.6919 61.3205 51.7083 61.3041 51.7412 61.3041C52.6784 60.8118 53.6648 60.3524 54.6513 59.9586C55.7036 59.5319 56.8216 59.3842 57.841 58.8427C58.6795 58.3997 59.3207 57.6777 60.0935 57.1362C60.5703 56.808 60.9977 56.4798 61.4252 56.1353C61.5403 56.3322 61.6554 56.5291 61.7705 56.726C61.8198 56.808 61.902 56.808 61.9513 56.7916C62.0007 56.9065 62.0664 57.0213 62.1157 57.1362C62.0007 57.2183 61.8856 57.3003 61.754 57.3987C60.8662 58.0387 59.9126 58.4653 59.0412 59.1545C58.3178 59.7288 57.3477 60.2211 56.5092 60.5657C55.3419 61.0416 54.1745 61.5174 53.0072 62.0425C51.9385 62.5184 51.0178 62.945 49.8669 63.2075C48.7324 63.4865 47.6637 64.1429 46.5128 64.3398C45.5263 64.5039 44.3919 64.5203 43.3889 64.5039C42.6984 64.5039 42.1065 64.5203 41.4489 64.7172C40.7748 64.9305 40.1664 65.2751 39.4759 65.4228C38.3414 65.6689 37.0261 65.472 35.8752 65.4228C35.0367 65.3899 34.1489 65.193 33.409 64.8156C32.5376 64.3562 31.6169 64.1429 30.7455 63.7655C30.3673 63.6014 29.7919 63.4209 29.3808 63.1419C28.1477 62.6989 26.668 62.141 26.0432 60.8775C25.8459 60.4836 25.813 60.0406 25.813 59.5976C25.1225 58.9084 24.432 58.2028 23.7907 57.4808C23.9058 59.3678 24.3826 61.1728 25.7802 62.4363C27.9998 64.4382 30.9757 65.5212 33.8529 66.1448C35.2833 66.4565 36.6973 66.6863 38.1606 66.7027C38.7525 66.7027 39.295 66.8339 39.8705 66.9324C40.8076 67.0965 41.7448 67.0637 42.682 67.0801C42.7477 67.0801 42.7971 67.0965 42.8464 67.1129C43.4054 67.0473 43.9644 67.0144 44.5234 66.998C45.3784 66.9652 45.9538 66.7519 46.743 66.4565C47.8117 66.0463 49.0119 65.9479 50.0971 65.554C51.511 65.0618 52.9579 64.7008 54.3389 64.1429C54.8322 63.9459 55.3583 63.8967 55.8351 63.6834C56.4106 63.4209 56.8874 62.9122 57.4464 62.584C58.4986 61.944 59.6495 61.419 60.784 60.9595C61.8856 60.5165 62.8885 59.8601 63.9901 59.4171C64.2696 59.3022 64.5655 59.1709 64.845 59.0068C64.7299 58.9248 64.6313 58.8427 64.5326 58.7443C64.023 58.2848 63.5133 57.7926 63.0694 57.2511C62.9378 57.1034 62.8063 56.9393 62.6748 56.7752C62.609 56.8244 62.5432 56.8737 62.4775 56.9229C62.1157 55.7743 61.3266 54.6092 60.6689 53.6247C60.7347 53.5919 60.8169 53.559 60.8826 53.5426C60.8662 53.4606 60.8662 53.3785 60.8662 53.2965C60.5867 52.8699 60.3072 52.4596 60.0606 52.0166C59.9784 52.0822 59.8797 52.1314 59.7811 52.1807C59.6989 52.033 59.6331 51.8853 59.5509 51.7376C59.4851 51.6064 59.4194 51.4915 59.3536 51.3602C59.4358 51.311 59.518 51.2454 59.5838 51.1797C59.1234 50.3757 58.6466 49.588 58.1698 48.8004C58.1534 48.8332 58.1205 48.8661 58.104 48.8989C58.0054 48.7184 57.9232 48.5543 57.8245 48.3738C57.841 48.341 57.841 48.2917 57.8574 48.2589C57.6437 47.8979 57.4464 47.5369 57.282 47.1759C57.1504 46.8641 57.0847 46.4703 56.8216 46.2406C56.6736 46.1093 56.7558 45.8632 56.9367 45.814C57.5615 45.6663 57.8245 46.0765 58.0876 46.5688C58.1369 46.6672 58.2027 46.7657 58.252 46.8806C58.2684 46.7985 58.3013 46.7165 58.3178 46.6344C58.5315 45.5514 58.5644 44.3372 58.548 43.2378C58.5315 41.2687 58.6795 38.9714 57.7588 37.1336C57.3148 36.2311 56.5914 34.8527 55.7365 34.3276C54.7664 33.7205 53.7635 33.2446 52.8592 32.5391C51.9056 31.8007 51.3137 30.8982 50.0477 30.7833C49.8669 30.7669 49.6531 30.7997 49.4558 30.7833C49.0777 30.7505 48.6995 30.5372 48.3049 30.5536C48.0254 30.5536 47.6144 30.7177 47.302 30.7012C47.2362 30.7012 47.1869 30.7012 47.1212 30.7012C47.1047 30.7833 47.0718 30.8653 47.0389 30.9474C47.0061 31.0622 46.8252 31.013 46.8745 30.8982C46.891 30.8325 46.9239 30.7505 46.9403 30.6848C46.0031 30.6028 45.1975 30.3895 44.2275 30.7833C43.3067 31.1443 42.6491 30.9966 41.679 31.0458C41.0871 31.0787 40.561 31.1771 40.002 31.1935C39.9691 30.8489 39.9198 30.5207 39.8705 30.1762C40.2322 30.1597 40.5775 30.0449 40.9227 29.9628C40.7419 29.487 40.5939 29.0111 40.4295 28.5353C40.3966 28.5517 40.3802 28.5517 40.3473 28.5681C40.15 28.6501 40.002 28.7158 39.854 28.7486C39.7718 28.7978 39.6896 28.8306 39.6074 28.8634C39.5581 28.6993 39.5252 28.5188 39.4759 28.3548C39.7225 28.3055 39.9362 28.2235 40.1007 28.0594C40.15 28.0102 40.2157 28.0102 40.2815 28.0266C40.2157 27.8297 40.15 27.6163 40.0842 27.4194C39.8869 26.7631 39.6567 26.1067 39.4266 25.4668C39.3608 25.4832 39.295 25.516 39.2457 25.5324C38.9991 25.6309 38.8347 25.7129 38.6538 25.7457C38.588 25.7785 38.5223 25.8114 38.4565 25.8278C38.3907 25.6965 38.3085 25.5488 38.2428 25.4175L38.1277 25.2534C38.4401 25.2042 38.7196 25.1058 38.9169 24.8924C38.9991 24.8268 39.0977 24.8268 39.1635 24.8596C39.1799 24.8432 39.1964 24.8432 39.2128 24.8268C39.1142 24.515 38.9991 24.2197 38.9004 23.9079C38.7689 23.5141 38.6867 23.1039 38.6045 22.71C38.4894 22.7593 38.3743 22.7921 38.2592 22.8413C37.9797 22.9562 37.7824 23.0546 37.5687 23.0875C37.4865 23.1367 37.4043 23.1695 37.3221 23.2023C37.4043 23.6125 37.4865 24.0228 37.5687 24.433L37.3221 24.0556C37.2727 23.793 37.2234 23.5305 37.1576 23.2515C37.059 23.2844 36.9439 23.3172 36.8453 23.3336L36.3684 22.628C36.3849 22.6116 36.4013 22.5952 36.4178 22.5788C36.6151 22.5788 36.8124 22.5624 37.0097 22.5131C36.9932 22.4475 36.9768 22.3819 36.9768 22.3162C36.9603 22.267 36.9603 22.2014 36.9275 22.1029C36.9768 22.0701 37.0097 22.0209 37.059 21.988C37.0919 22.1685 37.1412 22.349 37.1741 22.4967C37.4536 22.4311 37.7002 22.3162 37.8811 22.1357C37.9633 22.0537 38.0784 22.0537 38.1606 22.1029C38.2592 22.0373 38.3579 21.9716 38.4565 21.906C38.3907 21.5286 38.325 21.1348 38.2263 20.7574C38.2592 20.6589 38.2921 20.6261 38.325 20.5933ZM22.1137 37.5602C22.3932 37.7243 22.6234 37.9869 22.8371 38.1838C22.87 38.2166 22.8207 38.2822 22.7878 38.233C22.5576 38.0525 22.2946 37.7735 22.0151 37.6423L22.1137 37.5602ZM50.5739 59.1217C49.5709 58.7279 48.5516 58.3833 47.5157 58.0715C47.1047 58.2356 46.6937 58.3997 46.2662 58.4653C46.0689 58.4981 45.8552 58.5146 45.6414 58.5474C46.0853 58.7115 46.4964 58.9412 46.9074 59.1545C47.3678 59.4006 47.8446 59.6304 48.3214 59.8765C49.0777 59.6304 49.8504 59.4499 50.5739 59.1217ZM27.3585 36.9695C27.2599 37.3961 27.2434 37.8556 27.227 38.2986C27.227 38.3643 27.227 38.4299 27.2106 38.4955C27.2434 38.5284 27.2763 38.5612 27.3092 38.5776C28.0491 39.2011 28.641 39.9724 29.2657 40.7108C29.3973 40.2349 29.5617 39.7426 29.6603 39.2668C29.6768 39.2175 29.6768 39.1847 29.6768 39.1355C28.9205 38.3971 28.1477 37.6751 27.3585 36.9695ZM25.1883 36.4116C25.6322 36.8382 26.0432 37.3141 26.4543 37.7571C26.5036 37.2977 26.5529 36.8382 26.6844 36.3952C26.5693 36.2967 26.4378 36.1819 26.3227 36.0834C25.8953 35.706 25.4349 35.345 25.0074 34.9676C24.843 35.263 24.7115 35.5911 24.6293 35.9029C24.8266 36.067 25.0074 36.2475 25.1883 36.4116ZM25.3198 40.2021C25.4678 40.3334 25.6157 40.481 25.7637 40.6123C25.9446 39.8903 26.2076 39.1683 26.3556 38.4463C26.3885 38.315 26.4049 38.2002 26.4214 38.0689C26.4049 38.0525 26.3885 38.0361 26.3721 38.0197C25.7802 37.3797 25.2047 36.7562 24.5799 36.1655C24.4977 36.6249 24.4648 37.1008 24.4484 37.5766C24.432 38.1345 24.3826 38.7089 24.284 39.2668C24.6457 39.5457 24.9745 39.8903 25.3198 40.2021ZM24.5306 43.4839C24.9252 44.3864 25.3527 45.2725 25.7802 46.1586C26.5036 46.618 27.2106 47.0611 27.9011 47.5533C27.6709 46.5524 27.1777 45.5678 26.7009 44.6161C25.8459 43.9105 24.991 43.2213 24.1196 42.5322C24.2511 42.8439 24.3826 43.1557 24.5306 43.4839ZM21.7684 44.9115C21.9986 45.4037 22.2288 45.8796 22.459 46.3391C23.3797 46.897 24.3004 47.4549 25.2047 48.0292C24.9745 47.0939 24.5471 46.1914 24.1031 45.3053C23.6099 44.9771 23.1331 44.6325 22.6398 44.3043C22.1959 44.009 21.752 43.7136 21.3081 43.4347C21.2259 43.3854 21.1437 43.3362 21.0615 43.287C21.2916 43.8777 21.5383 44.4192 21.7684 44.9115ZM25.3856 49.6209C25.402 49.2106 25.3691 48.8168 25.2869 48.423C24.3991 47.8815 23.5112 47.34 22.6398 46.7657C22.9358 47.4221 23.1824 48.0948 23.2975 48.8496C23.3139 48.9153 23.3139 48.9809 23.3304 49.063C23.7743 49.3583 24.2182 49.6537 24.6621 49.949C24.9088 49.8342 25.1554 49.7193 25.3856 49.6209ZM23.577 50.4905C23.6757 50.4413 23.7743 50.3921 23.873 50.3593C24.0374 50.2772 24.2182 50.1788 24.3826 50.0967C24.0538 49.8998 23.725 49.6865 23.4126 49.4732C23.4784 49.8178 23.5277 50.146 23.577 50.4905ZM25.7473 53.559C25.6322 52.8534 25.5171 52.1479 25.4349 51.4423C25.698 51.393 25.9446 51.3274 26.2076 51.2454C26.1419 51.1961 26.0761 51.1469 25.9939 51.1141C25.8624 51.032 25.7144 50.9336 25.5829 50.8515C25.5171 50.868 25.4513 50.9008 25.3856 50.9172C25.3856 50.8844 25.3856 50.8515 25.3856 50.8187C25.1225 50.9008 24.8594 50.9992 24.5964 51.0813C24.3498 51.1633 24.0374 51.2782 23.7085 51.393C23.7579 51.754 23.7907 52.1314 23.7907 52.5089C24.4484 52.8534 25.0896 53.2144 25.7473 53.559ZM23.7907 53.3785C23.7743 53.7888 23.7579 54.2154 23.7414 54.642C23.873 54.7077 24.0209 54.7733 24.1525 54.8389C24.7608 55.1671 25.3527 55.5445 25.9446 55.9219C25.9446 55.7086 25.9446 55.5117 25.9446 55.2984C25.9281 54.8061 25.8624 54.3303 25.7966 53.8544C25.1389 53.5098 24.4648 53.1488 23.8072 52.7878C23.8072 52.9847 23.8072 53.1816 23.7907 53.3785ZM24.5306 57.2018C24.9581 57.3988 25.402 57.5957 25.8295 57.7926C25.8624 57.2511 25.9117 56.7096 25.9281 56.1845C25.8624 56.1517 25.813 56.1024 25.7473 56.0696C25.0896 55.6594 24.432 55.2328 23.725 54.8718C23.7085 55.4789 23.6921 56.1024 23.7085 56.7424C23.9716 56.9065 24.2347 57.0706 24.5306 57.2018ZM23.725 57.3331C24.4155 57.9567 25.1061 58.613 25.7637 59.2694C25.7802 59.0068 25.7966 58.7443 25.7966 58.4817C25.7966 58.3177 25.7966 58.1536 25.813 57.9731C25.3856 57.7762 24.9581 57.5793 24.5471 57.3823C24.2675 57.2511 23.988 57.087 23.7085 56.9393C23.7085 57.087 23.725 57.2018 23.725 57.3331ZM20.4038 40.7764C20.4531 41.4656 20.6669 42.2204 20.9299 42.9588C21.0286 43.0244 21.1108 43.0901 21.2094 43.1393C21.6698 43.4182 22.1137 43.6972 22.5576 43.9926C23.018 44.2879 23.4619 44.5997 23.9223 44.9115C23.6428 44.37 23.3797 43.8285 23.1331 43.3034C22.8207 42.5978 22.5248 42.0563 22.5741 41.3179C22.4261 41.203 22.2617 41.0882 22.1137 40.9733C21.6205 40.6123 21.0779 40.3498 20.5682 40.0216C20.5353 40.0052 20.486 39.9724 20.4531 39.9395C20.4038 40.2349 20.3874 40.5139 20.4038 40.7764ZM24.0538 40.399C23.873 41.1046 23.7743 41.482 23.9716 42.1219C24.8101 42.7783 25.6322 43.4511 26.4543 44.1238C26.3227 43.8613 26.1912 43.5823 26.0761 43.3198C25.7802 42.647 25.4842 42.1383 25.5993 41.3671C25.6322 41.1866 25.6651 41.0225 25.698 40.842C25.4678 40.6287 25.2212 40.399 24.991 40.1857C24.7279 39.9559 24.4813 39.7262 24.2347 39.5293C24.1853 39.8247 24.1196 40.1036 24.0538 40.399ZM30.4166 48.0456C30.6304 47.9636 30.8441 47.8651 31.0414 47.7666C31.0579 46.1914 30.0385 44.7146 29.4137 43.3198C29.1671 42.7619 28.9205 42.3353 29.0191 41.6953C29.052 41.4492 29.1178 41.203 29.1835 40.9569C29.0356 40.7764 28.8876 40.6123 28.7396 40.4318C28.3286 39.9559 27.9504 39.4473 27.4736 39.0206C27.375 38.9386 27.2763 38.8401 27.1777 38.7581C27.1284 39.4309 27.0297 40.12 26.8489 40.7764C26.7666 41.0553 26.7173 41.2851 26.6844 41.4984C27.7038 42.4829 28.7232 43.4839 29.7261 44.4848C29.8248 44.5833 29.6768 44.731 29.5781 44.6325C28.6245 43.6644 27.6545 42.7127 26.6844 41.7773C26.7009 41.9578 26.7338 42.1712 26.8324 42.4173C26.9639 42.7619 27.1119 43.1065 27.2599 43.4511C27.6216 44.2715 27.9998 45.0756 28.4108 45.8796C28.7396 46.536 28.9534 47.0282 29.0027 47.7502C29.0191 47.9636 29.0191 48.1769 29.0027 48.3902C29.0356 48.423 29.0849 48.4558 29.1178 48.4886C29.5617 48.3574 29.9892 48.2097 30.4166 48.0456ZM27.0297 49.0958C27.375 49.0137 27.7038 48.9317 28.0326 48.8496C28.0491 48.5215 28.0162 48.1933 27.9669 47.8651C27.3092 47.3892 26.6351 46.9626 25.961 46.5196C26.2734 47.1595 26.4707 47.6846 26.5365 48.4394C26.5529 48.6035 26.5529 48.7676 26.5529 48.9153C26.668 48.9809 26.7666 49.063 26.8817 49.145C26.9311 49.1122 26.9804 49.0958 27.0297 49.0958ZM28.3121 52.115C28.3121 52.115 28.3286 52.115 28.3121 52.115C28.2299 51.5735 28.1477 51.032 28.082 50.4905C28.1477 50.4577 28.2299 50.4249 28.2957 50.3921C28.082 50.2444 27.8682 50.0967 27.6545 49.949C27.3257 50.1131 26.9968 50.2608 26.6516 50.4085C26.5693 50.4249 26.5036 50.4577 26.4214 50.4741C26.4214 50.4905 26.4214 50.4905 26.4214 50.507C26.2405 50.589 26.0597 50.6546 25.8788 50.7367C25.961 50.7859 26.0432 50.8515 26.1254 50.9008C26.7995 51.3438 27.4572 51.7869 28.1148 52.2299C28.1477 52.1643 28.2135 52.1315 28.3121 52.115ZM28.5094 53.7395C28.5094 53.6083 28.493 53.4606 28.4766 53.3293C28.641 53.2637 28.8054 53.1816 28.9698 53.116C28.7889 53.0011 28.6245 52.8699 28.4437 52.755C28.4272 52.755 28.4108 52.7714 28.4108 52.7714C28.4108 52.755 28.4108 52.7386 28.4108 52.7222L28.3943 52.7058C28.3615 52.7058 28.345 52.7222 28.3121 52.7222C28.1148 52.7386 28.0162 52.6073 28.0162 52.4596C27.4572 52.0822 26.8982 51.7048 26.3392 51.3438V51.3602C26.3063 52.2627 26.4707 53.1488 26.6351 54.0513C27.2434 54.3959 27.8682 54.7405 28.4766 55.0851C28.5094 54.642 28.5259 54.1826 28.5094 53.7395ZM28.3943 56.5127C28.3943 56.1353 28.4272 55.725 28.4601 55.3312C27.8682 54.9866 27.2928 54.6749 26.7009 54.3467C26.7995 54.921 26.8817 55.5117 26.9146 56.086C26.9146 56.2337 26.9146 56.3814 26.9146 56.5291C27.4079 56.8244 27.8847 57.1362 28.3779 57.4316C28.3615 57.1198 28.3943 56.808 28.3943 56.5127ZM28.5588 58.5802C28.4272 58.3012 28.3779 58.0059 28.3615 57.6941C27.8682 57.3823 27.375 57.087 26.8982 56.7752C26.8817 57.2511 26.8489 57.7597 26.8489 58.2684C27.4736 58.5638 28.082 58.892 28.641 59.2694C29.2822 59.696 29.8576 60.2375 30.466 60.697C30.5646 60.7626 30.466 60.9267 30.3673 60.861C29.7754 60.418 29.2329 59.9257 28.6245 59.4991C28.0655 59.1053 27.4407 58.7771 26.8324 58.4653C26.8489 59.7124 27.0626 60.9103 28.1971 61.5666C28.1148 61.5174 28.345 61.6159 28.5423 61.7143C29.052 61.9769 29.463 62.3379 30.0056 62.5676C30.2358 62.666 30.6139 62.8794 31.0414 63.0927C31.1072 63.1091 31.1565 63.1255 31.2058 63.1255C31.9621 63.306 32.6034 63.3224 33.3268 63.6506C33.4748 63.7162 33.6063 63.7654 33.7378 63.8311C33.7707 63.8311 33.8036 63.8475 33.8365 63.8639C34.3133 64.0444 34.7736 64.1757 35.3491 64.2577C36.4013 64.4054 37.766 64.4874 38.8182 64.3726C39.9198 64.2577 40.8734 63.6178 41.9585 63.4537C42.9615 63.306 44.063 63.4045 45.0824 63.3224C46.2169 63.2404 46.9896 63.0106 48.0583 62.584C49.1763 62.141 50.3601 61.944 51.4452 61.419C50.7547 61.222 50.0971 60.8939 49.4394 60.5657C49.3901 60.5821 49.3572 60.5821 49.3079 60.5985C48.3214 60.8282 47.3842 61.4025 46.3977 61.583C45.5428 61.7307 44.5398 61.7307 43.6684 61.7307C43.0766 61.7307 42.5504 61.7471 41.9914 61.9276C41.416 62.1081 40.8734 62.4035 40.2815 62.5512C39.295 62.7645 38.1441 62.6004 37.1412 62.5512C36.4178 62.5184 35.6286 62.3543 34.9874 62.0261C34.2311 61.6323 33.4419 61.4354 32.6691 61.1236C32.3403 60.9759 31.8471 60.8282 31.4689 60.5821C30.4002 60.1719 29.1178 59.6796 28.5588 58.5802ZM51.0178 55.7907C50.1299 55.3148 49.1599 55.0194 48.1898 54.7405C47.9268 54.921 47.6637 55.0851 47.3842 55.2163C48.3707 55.5117 49.3407 55.8235 50.3272 56.1353C50.5574 56.0204 50.7876 55.9055 51.0178 55.7907ZM44.3754 54.6092C44.1452 54.5436 43.8822 54.4615 43.7507 54.5108C43.6684 54.642 43.5862 54.7569 43.504 54.8882C43.5534 54.9374 43.6191 54.9702 43.6684 55.003C43.9315 54.8389 44.1452 54.7077 44.3754 54.6092ZM49.3736 53.0668C49.7025 52.9355 50.0477 52.8206 50.393 52.7058C49.9655 52.2135 49.1599 52.0494 48.5516 51.8853C48.009 51.7376 47.4829 51.5735 46.9567 51.4094C46.9567 51.4094 46.9567 51.4094 46.9403 51.4094C46.5128 51.6064 46.0853 51.7376 45.6743 51.9017C46.4635 52.0822 47.2198 52.2955 48.009 52.6401C48.42 52.8206 48.8311 52.9847 49.2421 53.1488C49.275 53.0996 49.3243 53.0832 49.3736 53.0668ZM43.948 49.8178C43.8164 49.8998 43.7013 49.9819 43.5698 50.0639C43.6684 50.0967 43.7507 50.1295 43.8657 50.146C43.8822 50.146 43.8986 50.1788 43.8986 50.1952C44.211 50.2936 44.5234 50.3593 44.8029 50.4413C45.1482 50.5562 45.477 50.671 45.8223 50.7859C46.5786 50.4085 47.3513 50.0803 48.1405 49.8014C47.4664 49.4568 46.8088 49.1122 46.1182 48.8168C45.3784 49.1122 44.6385 49.3911 43.948 49.8178ZM42.9286 45.0099C43.4712 45.4366 44.063 45.7483 44.6714 46.0765C44.8358 45.9616 45.0002 45.8468 45.1482 45.7812C46.3977 45.1904 47.598 44.6325 48.7817 43.9269C49.2585 43.6316 49.7682 43.287 50.2121 42.926C51.1493 42.1712 51.3302 40.9241 50.3437 40.12C50.0148 39.8575 49.6038 39.4801 49.275 39.2339C48.8311 38.9058 48.1405 38.8729 47.5486 38.8401C46.8252 38.8073 46.2498 38.8729 45.5099 38.594C43.9973 38.0197 41.9257 37.8556 41.0871 39.6606C40.6268 40.6451 42.238 41.8102 42.3202 42.926C42.3696 43.7136 42.0407 45.2232 42.4189 46.1586C42.3696 46.0109 42.3531 45.8632 42.3531 45.7155C42.3531 45.5842 42.534 45.5022 42.6162 45.6007C42.9779 46.0601 43.241 46.536 43.9315 46.4539C44.1124 46.4375 44.3097 46.3227 44.507 46.2078C43.9151 45.896 43.3232 45.6007 42.8464 45.1248C42.7642 45.0592 42.8628 44.9607 42.9286 45.0099ZM47.1376 28.4696C46.5621 28.4368 46.0525 28.3219 45.4606 28.3548C45.0495 28.3876 44.6385 28.3383 44.2275 28.2891C44.2275 28.765 44.2439 29.2244 44.2439 29.7003C44.3754 29.6675 44.507 29.6347 44.6549 29.6347C45.2139 29.5854 45.8552 29.6018 46.4142 29.6347C46.6608 29.6511 46.8745 29.6839 47.0883 29.7167C47.1376 29.3065 47.1376 28.8798 47.1376 28.4696ZM49.5709 25.1878C49.5545 25.1878 49.5545 25.1878 49.538 25.1878C48.8639 25.2206 48.2227 25.4339 47.5486 25.4175C47.4335 25.4175 47.302 25.4011 47.1869 25.4011C47.2362 26.1067 47.2691 26.7959 47.2856 27.5015C47.5815 27.5343 47.8939 27.5343 48.2392 27.4687C48.6338 27.403 49.0119 27.3866 49.3901 27.403C49.5052 26.6646 49.5545 25.9426 49.5709 25.1878ZM51.6754 26.96C51.6754 26.4513 51.6754 25.9426 51.6754 25.4339C51.0342 25.2699 50.3766 25.1878 49.7682 25.1878C49.7682 25.9426 49.686 26.6974 49.5874 27.4358C49.6531 27.4358 49.7189 27.4523 49.7847 27.4523C50.4259 27.5507 51.0671 27.682 51.6754 27.8625C51.6919 27.5671 51.6754 27.2718 51.6754 26.96ZM53.336 28.4696C53.5662 27.7312 53.6813 26.9272 53.7471 26.1231C53.6484 26.0903 53.5498 26.0411 53.4347 26.0083C52.9579 25.8114 52.4317 25.6309 51.8727 25.4832C51.9056 26.2872 51.9385 27.1241 51.8727 27.9281C52.2509 28.043 52.6126 28.1743 52.9907 28.3219C53.1058 28.3712 53.2209 28.4204 53.336 28.4696ZM51.8727 24.433C52.5304 24.5807 53.1716 24.7612 53.8128 24.9909C53.8293 24.6135 53.8457 24.2197 53.8621 23.8587C53.8786 23.629 53.895 23.3992 53.9115 23.1695C53.2702 22.9398 52.5633 22.7429 51.8563 22.6116C51.8727 23.2187 51.8727 23.8259 51.8727 24.433ZM41.6133 23.7438C41.6297 23.8095 41.6297 23.8915 41.6462 23.9571C41.7284 23.9571 41.8106 23.9571 41.8763 23.9571C42.5504 23.99 43.2081 24.1869 43.8822 24.2361C43.8493 23.6618 43.8 23.0875 43.8 22.5131C42.9943 22.4147 42.1887 22.2506 41.3831 22.2178C41.4653 22.7265 41.5475 23.2187 41.6133 23.7438ZM40.857 27.6163C41.2022 27.4687 41.5804 27.3538 41.9585 27.2882C41.8434 26.5169 41.7119 25.7293 41.5968 24.9581C41.5146 24.9581 41.4489 24.9581 41.3666 24.9581C40.7748 24.9909 40.1335 25.1222 39.5745 25.3355C39.7554 25.8442 39.9362 26.3364 40.0842 26.8451C40.1829 27.1897 40.298 27.5343 40.3966 27.8789C40.5446 27.7804 40.6925 27.682 40.857 27.6163ZM42.2874 28.0758C42.3696 28.6665 42.4353 29.2573 42.4847 29.848C42.4847 29.8808 42.4847 29.8972 42.4682 29.9136C42.6162 29.93 42.7642 29.9628 42.9121 29.9628C43.3232 29.9792 43.6849 29.848 44.063 29.7495C44.063 29.2573 44.063 28.765 44.0466 28.2727C43.4547 28.1743 42.8793 28.0758 42.2874 28.0758ZM43.948 25.2042C43.2245 25.1058 42.5175 24.9745 41.8106 24.9581C41.9257 25.7293 42.0572 26.5005 42.1723 27.2718C42.3038 27.2553 42.4189 27.2554 42.5504 27.2554C43.0437 27.2882 43.5369 27.4194 44.0466 27.4687C44.0137 26.7139 43.9808 25.959 43.948 25.2042ZM45.4112 25.2863C44.9838 25.3191 44.5563 25.2863 44.1453 25.237C44.1946 25.9919 44.211 26.7467 44.2275 27.5015C44.2768 27.5015 44.3261 27.5015 44.3754 27.5179C44.9509 27.5343 45.5099 27.3866 46.0689 27.403C46.4471 27.4194 46.7759 27.4687 47.1212 27.5015C47.1047 26.7959 47.0554 26.1067 47.0061 25.4011C46.4635 25.3191 45.9703 25.237 45.4112 25.2863ZM41.3666 29.8316C41.679 29.7988 41.975 29.848 42.2874 29.8972C42.2874 29.8808 42.2709 29.8808 42.2709 29.8644C42.2216 29.2737 42.1558 28.6829 42.0736 28.0922C41.5804 28.125 41.0378 28.2399 40.561 28.4204C40.7254 28.9127 40.8734 29.3885 41.0543 29.8808C41.1529 29.848 41.268 29.8316 41.3666 29.8316ZM40.709 22.2178C40.0513 22.2506 39.3608 22.3983 38.7196 22.628C38.7525 22.7593 38.7853 22.907 38.8182 23.0382C38.9662 23.5961 39.1471 24.154 39.3443 24.6955C39.5088 24.5807 39.6896 24.4822 39.8705 24.4002C40.3637 24.2033 40.9227 24.0228 41.4653 23.9735C41.4489 23.8587 41.4324 23.7438 41.416 23.6454C41.3502 23.1695 41.2516 22.6936 41.1529 22.2178C40.9885 22.2014 40.8405 22.2014 40.709 22.2178ZM45.3619 22.5952C44.9016 22.628 44.4412 22.5952 43.9973 22.546C44.0137 23.1203 44.0466 23.6946 44.0795 24.2525C44.77 24.2689 45.4441 24.0884 46.1182 24.1048C46.3977 24.1048 46.6608 24.1376 46.9239 24.1705C46.891 23.6618 46.8745 23.1695 46.8581 22.6608C46.3648 22.6116 45.888 22.546 45.3619 22.5952ZM47.8117 22.7429C47.5486 22.7429 47.302 22.71 47.0554 22.6772C47.0718 23.1859 47.0883 23.6946 47.1212 24.1869C47.6473 24.2525 48.157 24.3017 48.7653 24.2033C49.0284 24.154 49.2914 24.1376 49.5545 24.1212C49.538 23.9243 49.538 23.7438 49.5216 23.5469C49.4887 23.2023 49.4723 22.8577 49.4394 22.5295C48.8968 22.6444 48.3707 22.7593 47.8117 22.7429ZM50.0971 22.4803C49.9326 22.4803 49.7682 22.5131 49.6202 22.5295C49.6531 22.989 49.686 23.4649 49.7353 23.9243C49.7353 23.99 49.7353 24.072 49.7518 24.1376C50.0313 24.1376 50.3272 24.154 50.6232 24.2033C50.9849 24.2525 51.3302 24.3181 51.6919 24.3838C51.6919 23.7766 51.6919 23.1859 51.6754 22.5788C51.1164 22.4967 50.5903 22.4475 50.0971 22.4803ZM54.0759 23.2351C54.0594 23.4485 54.043 23.6618 54.0266 23.8587C54.0101 24.2525 53.9937 24.6463 53.9772 25.0565C54.1416 25.1222 54.3225 25.1878 54.4869 25.2534C54.8486 25.4011 55.2103 25.5488 55.5556 25.6801C55.5885 25.0565 55.6049 24.433 55.6049 23.8095C55.2597 23.6782 54.9308 23.5469 54.602 23.4156C54.4212 23.35 54.2567 23.2844 54.0759 23.2351ZM58.2849 25.1058C57.5286 24.5971 56.6736 24.2361 55.8022 23.8915C55.8022 24.515 55.7858 25.1386 55.7529 25.7621C56.575 26.1067 57.3477 26.4841 58.0218 27.1569C58.1205 26.4677 58.2027 25.7785 58.2849 25.1058ZM59.9948 26.681C59.6989 26.3529 59.4029 26.0247 59.0741 25.7293C58.8932 25.5488 58.6959 25.4011 58.4822 25.2534C58.4329 25.959 58.3178 26.6482 58.1862 27.3374C58.7453 27.9281 59.2221 28.5845 59.7153 29.208C59.7975 28.3548 59.8797 27.5179 59.9948 26.681ZM64.2696 30.8325C63.6777 30.3731 63.0858 29.9957 62.5268 29.487C62.313 29.2737 62.0993 29.0603 61.8856 28.847C61.8527 29.1096 61.8034 29.3721 61.754 29.6183C61.7376 29.7167 61.5732 29.6839 61.5896 29.569C61.6554 29.2737 61.7047 28.9783 61.7376 28.6829C61.195 28.0922 60.6853 27.4687 60.1428 26.8615C60.0441 27.7148 59.9619 28.5681 59.8797 29.4049C60.3236 29.9792 60.8004 30.5372 61.3759 31.013C61.902 31.4561 62.4775 31.7022 62.9214 32.2437C63.3653 32.8016 63.6941 33.4416 63.9243 34.1143C64.0723 34.541 64.1874 34.9512 64.286 35.345C64.7135 34.8363 65.3547 34.4097 65.9959 34.0651C65.9466 33.9174 65.8973 33.7697 65.848 33.6221C65.5191 32.6539 65.1245 31.5217 64.2696 30.8325ZM62.4775 24.0228C62.4281 24.2197 62.3788 24.3838 62.3624 24.4986C62.1651 25.4504 62.1157 26.4185 62.05 27.3866C62.3788 27.8133 62.7241 28.2235 63.1187 28.6173C62.9871 27.6984 62.8721 26.7795 62.757 25.8606C62.6912 25.3027 62.6254 24.7448 62.5268 24.1869C62.4939 24.1212 62.4775 24.072 62.4775 24.0228ZM61.0964 22.7265C60.932 23.2351 60.7347 23.7438 60.6031 24.2689C60.5209 24.6135 60.4552 24.9581 60.3894 25.3027C60.932 25.9262 61.4088 26.5826 61.9185 27.2225C61.9678 26.6154 62.0171 26.0083 62.0664 25.4011C62.0993 24.9909 62.1486 24.5971 62.2473 24.2033C62.2637 24.1048 62.2966 23.99 62.3295 23.8587C61.902 23.4485 61.5074 23.071 61.0964 22.7265ZM63.9736 25.4996C64.0394 25.4996 64.0887 25.516 64.1545 25.516C63.6612 25.0401 63.1351 24.5643 62.6254 24.1212C62.7241 24.6135 62.8556 25.1222 62.9214 25.6144C63.0529 26.599 63.168 27.5835 63.316 28.5681C63.3324 28.6501 63.2502 28.7158 63.1844 28.6993C63.3653 28.8798 63.5462 29.0603 63.7435 29.2244C64.1052 29.5198 64.4833 29.7495 64.8286 30.0121C64.7793 29.4706 64.7299 28.9291 64.6477 28.3876C64.582 27.9281 64.4833 27.4687 64.4011 27.0092C64.3353 26.7139 64.2696 25.6965 63.9736 25.598C63.9243 25.5652 63.9243 25.4996 63.9736 25.4996ZM57.4957 31.8007C57.7094 30.7177 57.7423 29.6182 57.8574 28.5353C57.693 28.3548 57.5121 28.1907 57.3477 28.0102C56.8709 27.5507 56.3119 27.2225 55.72 26.9436C55.72 27.1569 55.7036 27.3702 55.7036 27.5835C55.7036 27.7148 55.5063 27.7148 55.5063 27.5835C55.5063 27.3374 55.5063 27.0913 55.5227 26.8451C54.9966 26.599 54.454 26.4021 53.9279 26.2052C53.8621 27.0092 53.7471 27.7968 53.5169 28.5353C54.4376 28.8963 55.2925 29.2244 56.016 29.9792C56.5585 30.5372 57.0025 31.1771 57.4957 31.8007Z" fill="black"/>
<path d="M34.4945 48.8007C34.4452 49.1289 34.4287 49.4571 34.3958 49.8017C34.067 49.8837 33.7382 49.9986 33.4258 50.1298C33.4915 49.5884 33.508 49.0469 33.4915 48.5054C33.8533 48.3577 34.1985 48.21 34.5438 48.0459C34.5602 48.292 34.5438 48.5546 34.4945 48.8007Z" fill="black"/>
<path d="M44.2107 42.3354C44.2929 42.5159 44.2764 42.9918 44.3586 43.3528C44.3751 43.3364 44.3915 43.3364 44.408 43.3364C44.9834 43.2708 45.4602 43.5333 46.0685 43.3856C46.9728 43.1887 47.4661 42.7128 47.9757 42.0073C48.173 41.7283 48.4361 41.4001 48.4854 41.0555C48.5348 40.7273 48.6663 40.9571 48.3868 40.6289C48.3375 40.5797 47.6634 40.3828 47.614 40.3664C47.1044 40.2351 46.5618 40.3499 46.0192 40.3171C45.3287 40.2843 44.7532 40.0546 44.1284 40.3664C43.0104 40.9078 43.9147 41.6463 44.2107 42.3354ZM44.3915 39.5787C44.9341 39.5131 45.4766 39.6936 46.0192 39.71C46.5289 39.7264 46.9893 39.5459 47.4661 39.5459C47.9264 39.5459 49.1431 39.8413 49.3568 40.3499C49.587 40.875 49.0116 41.6134 48.7156 41.9908C48.1895 42.6636 47.6469 43.2543 46.8413 43.5989C46.4467 43.763 45.9534 43.9271 45.5095 43.9599C44.9505 43.9927 44.9176 43.7302 44.408 43.5333C44.4573 43.6646 44.5395 43.763 44.6546 43.7794C44.8519 43.7958 44.8519 44.0912 44.6546 44.0912C44.112 44.0584 44.0791 43.6646 43.9805 43.2051C43.8325 42.5159 43.4544 42.2042 43.1091 41.6627C42.9118 41.3673 42.7967 41.1376 42.8953 40.7766C43.0598 40.153 43.7996 39.6444 44.3915 39.5787Z" fill="black"/>
<path fill-rule="evenodd" clip-rule="evenodd" d="M7.36593 27.0257C8.07291 27.3046 9.55264 27.8461 10.2432 27.8625C10.0459 28.6994 9.86503 29.2901 9.73349 30.2747C9.28958 36.4445 11.7229 38.2823 13.9589 41.3508C16.8362 40.678 19.7792 39.7263 21.818 37.8392C23.0346 36.707 24.1855 35.5912 24.9912 34.0488C26.7175 34.9512 29.6441 35.7881 31.8801 36.1655C34.5601 36.625 37.5195 36.5101 40.6434 36.5101C39.6898 32.4078 40.5776 29.6019 38.2101 25.352L36.3686 22.5788C41.3833 18.0664 42.1231 13.5539 42.1396 9.91106C37.7004 8.1717 32.2747 8.48347 27.9177 9.9931C25.4844 4.92271 22.7222 2.88799 18.02 0C17.1157 0.968133 16.8033 1.31272 16.0306 2.49417C14.0576 5.94007 13.1369 8.99215 12.7423 10.551C12.6107 11.4043 12.4792 12.4545 12.397 13.3734C8.188 14.3743 5.4916 15.9004 3.65016 17.4592C2.38417 18.5258 0.920881 20.3308 0.0166016 21.6927C1.18394 23.1203 3.12403 25.0566 7.36593 27.0257ZM33.4421 22.2507C33.6229 22.9562 35.6945 24.2361 37.0098 27.3375C38.6376 31.1444 37.9963 32.4078 38.506 34.6067C33.8038 34.6067 29.6934 34.2293 25.6653 32.2438C25.2542 32.0304 24.5966 31.6038 24.0869 31.571C23.0675 33.5073 22.4592 34.902 20.4369 36.4609C18.4803 37.9869 17.0171 38.6269 14.518 39.2012C13.8767 38.2495 13.3177 37.9213 12.5943 36.5101C10.2103 31.7351 12.6107 27.6328 12.7094 26.4021C10.3583 26.3529 6.49453 24.7284 4.57088 23.2844C4.43935 23.186 4.32426 23.0875 4.19273 23.0055C3.60084 22.546 3.04183 22.0702 2.46638 21.5779C3.61728 19.8713 5.4094 18.3125 7.25084 17.2459C9.12516 16.1301 11.9531 15.0471 14.3042 15.0471C14.3042 6.82616 17.5761 3.65922 18.2502 2.46136C18.727 2.49417 20.6671 3.82331 21.1274 4.20071C23.8403 6.31748 26.0105 9.28751 26.7997 12.7006C33.6394 9.09061 38.2594 10.8136 40.3146 11.1253C40.3146 14.9322 38.3909 18.0335 36.0562 20.3636C35.6288 20.7902 34.0011 22.0866 33.4421 22.2507Z" fill="black"/>
<path fill-rule="evenodd" clip-rule="evenodd" d="M21.3743 21.0526C19.2041 21.8074 20.3385 24.6462 22.3115 24.0226C24.2187 23.4155 23.298 20.3798 21.3743 21.0526ZM20.1577 18.4436C20.0261 18.6077 19.9275 18.6733 19.796 18.8538C19.6809 19.0179 19.6151 19.1656 19.5165 19.3132C19.3356 19.9532 19.3027 19.6578 18.678 19.8547C18.2669 19.986 18.1354 20.1829 17.8066 20.3306C17.5271 20.7408 17.3626 20.6424 17.2475 21.2167C17.0996 22.3325 17.116 22.1192 17.412 23.1201C17.5928 23.3499 17.7737 23.596 17.9216 23.7765C17.9381 23.7929 17.971 23.8093 17.971 23.8585L18.0861 24.2359C18.1683 24.9744 17.9874 24.4329 18.2669 25.9261C18.4807 26.2543 18.5629 26.3855 18.8259 26.6645C19.648 26.9599 19.5658 27.2224 20.7331 27.1403C21.3908 27.0583 21.3908 26.845 21.8511 26.7137C22.9198 27.1568 22.6403 27.1896 23.9885 27.0911C24.712 26.7958 24.9586 26.5004 25.3367 25.9261C25.4189 25.5159 25.534 23.9406 25.6327 23.7601C25.7313 23.5796 25.9944 23.3499 26.1752 23.0545C26.3561 22.7263 26.4219 22.431 26.4712 22.0043L26.4548 21.6597C26.1424 20.3962 25.7642 20.6096 25.4354 19.9696C25.0408 19.8711 25.1394 19.7891 24.6791 19.7399L24.2516 19.7235C24.0707 19.4117 24.0214 19.182 23.8241 18.9194C23.5775 18.5912 23.4953 18.6241 23.3309 18.2795C22.9527 18.0662 22.5581 17.8364 21.9827 17.8364C21.0455 17.8857 20.7825 18.0826 20.1577 18.4436Z" fill="#2E4E9F"/>
<path fill-rule="evenodd" clip-rule="evenodd" d="M25.8948 23.9242L25.6482 23.8586L25.8948 23.9242ZM26.4538 22.0208C26.4045 22.4474 26.3387 22.7428 26.1579 23.071C25.9934 23.3827 25.7139 23.6125 25.6153 23.7765C25.5166 23.957 25.4015 25.5487 25.3193 25.9425C25.9441 26.2707 30.5148 29.1259 30.7286 29.4213C30.6135 29.9135 30.3997 30.0612 30.2847 30.5371L31.9617 31.3575C32.2905 30.734 33.7374 27.9937 33.7867 27.5014L32.1097 26.681C31.9946 27.1568 31.8466 27.1896 31.7479 27.6163C31.3862 27.5178 26.0592 24.1375 25.8948 23.9078C27.4896 23.9078 29.2653 24.2524 30.1696 24.2524V25.3682H32.0768V21.5449H30.1696V22.3326L26.4538 22.0208Z" fill="black"/>
<path fill-rule="evenodd" clip-rule="evenodd" d="M25.4189 20.0027C25.7478 20.6426 26.1095 20.4129 26.4383 21.6928L30.9268 19.1822C31.2063 19.0182 31.3872 18.9525 31.6667 18.7884C31.9791 18.5915 32.0942 18.4602 32.5545 18.4274C32.6367 18.7228 32.9491 19.0674 33.1135 19.3299C33.5739 19.2151 34.2809 18.5915 34.6919 18.3126C34.6097 17.9844 34.2809 17.6562 34.0671 17.3608C33.7219 16.9014 32.0942 14.8503 31.9955 14.4893C31.453 14.6369 30.9597 15.3589 30.4171 15.5066C30.5651 16.163 31.0584 16.3107 31.2063 16.8522C29.6115 17.689 26.9316 19.2971 25.4189 20.0027Z" fill="black"/>
<path fill-rule="evenodd" clip-rule="evenodd" d="M17.3951 23.1368C17.0992 22.1358 17.0827 22.3491 17.2307 21.2333C16.9512 21.102 14.748 20.9708 14.2712 20.9215C12.1338 20.6918 11.6735 21.0856 11.5913 20.3472C11.4926 19.5432 11.6899 19.658 10.687 19.658C9.20726 19.658 9.55253 19.1494 9.55253 23.4814C9.99645 23.4814 10.4733 23.4978 10.9172 23.4978C11.6735 23.4978 11.5748 23.4157 11.5748 22.6937L15.9647 23.0219C16.6059 23.0547 16.869 23.1368 17.3951 23.1368Z" fill="black"/>
<path fill-rule="evenodd" clip-rule="evenodd" d="M20.7164 27.1731C19.5326 27.2552 19.6149 26.9926 18.8092 26.6973C18.6284 27.1239 18.4968 27.4685 18.2831 27.9115C18.0694 28.3382 17.9707 28.6499 17.757 29.0766L16.6718 31.4723C16.3266 31.2918 15.9977 31.1933 15.6525 31.0293C15.4387 31.4395 14.9126 32.342 14.8633 32.8342L18.579 34.6392C18.7928 34.229 19.3189 33.3265 19.3682 32.8342C19.0558 32.6702 18.7435 32.4732 18.3489 32.3912C18.7763 31.5872 19.1052 30.7175 19.5162 29.8478C19.7299 29.3883 19.8944 28.9945 20.1081 28.5351C20.3547 28.0264 20.5027 27.6162 20.7164 27.1731Z" fill="black"/>
<path fill-rule="evenodd" clip-rule="evenodd" d="M20.1568 18.4436C20.7816 18.0662 21.0446 17.8857 21.9653 17.8693C21.9653 17.3771 21.1762 12.7005 21.0611 12.4708C21.4228 12.4708 21.8338 12.3559 22.0804 12.241C21.9653 12.0113 21.653 10.7642 21.6365 10.436C21.094 10.4524 18.5291 11.1744 17.8057 11.3385C17.9536 11.9457 18.1181 12.5364 18.2496 13.1435C18.8086 13.1435 18.7593 13.0451 19.269 13.0287C19.2525 13.5045 20.0417 18.1647 20.1568 18.4436Z" fill="black"/>
<path fill-rule="evenodd" clip-rule="evenodd" d="M23.2977 18.3123C23.4621 18.6405 23.5443 18.6241 23.791 18.9523C23.9882 19.2148 24.054 19.4445 24.2184 19.7563L24.6459 19.7727L26.1092 17.4098C26.5367 17.5083 26.586 17.6395 27.0135 17.7544L27.8355 16.0807C27.2108 15.7525 24.4651 14.3085 23.9718 14.2593L23.1826 15.9494C23.5772 16.0479 24.0869 16.3268 24.4157 16.5073C24.054 17.0816 23.643 17.7052 23.2977 18.3123Z" fill="black"/>
<path fill-rule="evenodd" clip-rule="evenodd" d="M17.7897 20.3308C18.1186 20.1667 18.2501 19.9698 18.6611 19.855C19.3023 19.6581 19.3352 19.9534 19.4996 19.3135C19.1379 18.9361 17.4773 17.689 17.2143 17.2952L17.8062 16.6388L16.458 15.3589L13.6465 18.1156L14.9454 19.4611L15.7839 18.6735C15.9976 18.8048 16.0141 18.8704 16.2442 19.0673C16.4744 19.2806 16.5237 19.2806 16.7375 19.4611C17.1321 19.7893 17.3787 20.0519 17.7897 20.3308Z" fill="black"/>
<path fill-rule="evenodd" clip-rule="evenodd" d="M18.2332 25.9592C17.9537 24.4823 18.1345 25.0074 18.0523 24.269L17.9372 23.8916C17.9372 23.8424 17.9044 23.8424 17.8879 23.8096C17.5426 24.0721 17.1152 24.3182 16.7206 24.5644C16.2766 24.8433 15.9478 25.0567 15.5368 25.2864C15.2408 25.0895 15.3066 25.2372 15.1915 24.8433C14.7476 24.9418 13.8926 25.5982 13.498 25.8607C13.8104 26.3366 15.208 28.3056 15.3066 28.6666C15.7505 28.5682 16.6055 27.9118 17.0001 27.6493C16.8192 27.3867 16.6384 27.2062 16.5562 26.8616C17.1809 26.6976 17.6084 26.1232 18.2332 25.9592Z" fill="black"/>
<path fill-rule="evenodd" clip-rule="evenodd" d="M23.9885 27.1079C22.6403 27.2063 22.9198 27.1735 21.8511 26.7305C21.9662 27.2227 22.2457 28.5026 22.4101 28.8636C22.1142 28.8965 21.7196 28.9785 21.5059 29.0934C21.6209 29.3231 21.9333 30.5702 21.9498 30.8984C22.4923 30.882 25.0572 30.16 25.7806 29.9959C25.6491 29.438 25.3696 28.6339 25.3367 28.0924C24.9914 28.2565 24.564 28.2565 24.2187 28.437C24.2023 27.8463 24.005 27.6658 23.9885 27.1079Z" fill="black"/>
</g>
<defs>
<clipPath id="clip0_81_745">
<rect width="73" height="69" fill="white"/>
</clipPath>
</defs>
</svg>
