<svg width="30" height="30" viewBox="0 0 30 30" fill="none" xmlns="http://www.w3.org/2000/svg">
<path d="M22.4407 13.9201C22.2498 11.8261 21.6137 9.79705 20.5749 7.96888C19.536 6.14073 18.1185 4.55568 16.4173 3.31992L14.7455 2.10938L13.179 3.32754C11.5469 4.59644 10.2008 6.19539 9.22874 8.01994C8.25665 9.84449 7.68042 11.8536 7.53768 13.916C6.90705 13.7972 6.26673 13.7374 5.625 13.7374H0.9375V17.5781C0.9375 23.2645 5.56365 27.8906 11.25 27.8906H18.75C24.4363 27.8906 29.0625 23.2645 29.0625 17.5781V13.7374H24.375C23.7259 13.7373 23.0783 13.7985 22.4407 13.9201ZM14.3302 4.80762L14.7857 4.45312L15.3178 4.83838C16.852 5.95291 18.1211 7.39261 19.0344 9.05457C19.9477 10.7165 20.4825 12.5597 20.6007 14.4524C18.1215 15.4346 16.1157 17.334 15 19.7561C13.882 17.3295 11.8707 15.4279 9.38531 14.4475C9.45079 12.5761 9.92782 10.7421 10.7825 9.07601C11.6371 7.40987 12.8484 5.95253 14.3302 4.80762ZM14.0625 26.0156H11.25C6.59766 26.0156 2.8125 22.2305 2.8125 17.5781V15.6124H5.625C10.2773 15.6124 14.0625 19.3975 14.0625 24.0499V26.0156ZM27.1875 17.5781C27.1875 22.2305 23.4023 26.0156 18.75 26.0156H15.9375V24.0499C15.9375 19.3975 19.7227 15.6124 24.375 15.6124H27.1875V17.5781Z" fill="#2E4DA0"/>
</svg>
