<svg width="32" height="32" viewBox="0 0 32 32" fill="none" xmlns="http://www.w3.org/2000/svg">
<path d="M16 10.667V6.66699M16 22.667V18.667M8 14.667H12M20 14.667H24M10.6667 9.33366L13.3333 12.0003M18.6667 17.3337L21.3333 20.0003M21.3333 9.33366L18.6667 12.0003M13.3333 17.3337L10.6667 20.0003M16 29.3337C16 29.3337 4 24.0003 4 14.667V6.66699L16 2.66699L28 6.66699V14.667C28 24.0003 16 29.3337 16 29.3337ZM16 18.667C18.2091 18.667 20 16.8761 20 14.667C20 12.4579 18.2091 10.667 16 10.667C13.7909 10.667 12 12.4579 12 14.667C12 16.8761 13.7909 18.667 16 18.667Z" stroke="#2E4DA0" stroke-width="2"/>
</svg>
