<svg width="83" height="65" viewBox="0 0 83 65" fill="none" xmlns="http://www.w3.org/2000/svg">
<g clip-path="url(#clip0_81_760)">
<path fill-rule="evenodd" clip-rule="evenodd" d="M72.278 18.1592L71.3745 17.124L72.278 16.1227H67.897C68.3573 14.154 69.4483 11.8799 67.9823 9.16447C65.7321 4.95559 59.5442 4.75194 57.1065 9.07961C55.8621 11.3029 56.1349 13.9334 57.9589 15.3081C60.7204 17.3786 64.5559 15.4269 64.5559 12.0496H62.5103C61.5898 16.0039 56.7826 13.5261 59.0328 9.97909C59.459 9.30024 60.2261 8.58745 61.0272 8.26499C64.1468 7.04306 68.4937 10.047 65.6639 15.6814C65.0162 16.9882 64.3343 17.735 63.2092 18.5835C60.9761 20.2637 58.6919 20.1788 55.6064 20.1788C50.714 20.1788 45.8046 20.1788 40.9122 20.1788C40.469 18.4987 37.6052 16.6149 35.2187 16.1736C32.7469 15.7324 28.9285 16.1057 26.5931 17.2428C26.0135 17.5313 25.5703 17.7519 25.0418 18.1083L23.0644 19.7036C19.6892 23.4203 18.3084 28.6475 20.729 33.5352C21.7348 35.5718 22.4166 36.2676 23.9508 37.6932C27.8204 41.2911 33.4288 40.5274 38.3723 40.5274C41.6452 40.5274 44.9352 40.5274 48.2082 40.5274V38.4908C45.6341 38.4908 32.1844 38.7115 29.8831 38.2702C19.7233 36.3185 18.513 21.5535 29.1671 18.5156C31.6389 17.8029 35.3721 17.7859 37.5711 19.4151C38.3041 19.9582 38.6962 20.4504 39.1735 21.248C40.111 22.7924 40.1963 24.8629 39.4803 26.6449C38.9348 28.0365 37.4688 29.4452 36.0028 29.9203C34.605 30.3786 31.5025 30.6501 29.866 30.141C28.1955 29.6149 27.2749 27.6971 28.1273 25.8812C29.0307 23.9295 32.3378 23.9974 33.156 24.3198C34.0765 24.6762 34.0765 25.8472 33.156 26.1867C32.5082 26.4412 30.6161 26.2715 29.7808 26.2715V28.3081C32.6958 28.3081 34.4857 28.7154 35.5766 26.6958C36.6847 24.6423 35.1505 22.419 33.3435 22.2154C29.7126 21.7911 26.7635 22.7924 25.8601 25.8133C24.9055 29.0039 27.292 32.1606 30.1558 32.3812C32.1673 32.5339 35.2016 32.517 36.9915 31.8042C39.6337 30.7519 41.4066 28.4269 41.9521 25.6775C42.1225 24.829 42.1225 22.8942 41.7816 22.1984H57.635C55.0609 24.4217 52.9642 26.5261 52.4187 30.2428C52.3164 30.9726 52.2653 31.4138 52.2653 32.2624L52.4017 34.4347H35.9176V36.4713H52.9131C53.2199 37.0653 53.4074 37.6593 53.7654 38.2872C54.1234 38.9321 54.4302 39.3224 54.8393 39.8825C55.436 40.6801 56.8167 42.0039 57.652 42.547C60.8056 44.6005 62.8853 44.6005 66.5844 44.6005V42.5639C63.2092 42.5639 60.4306 42.3264 57.8566 40.0522C56.2712 38.6606 55.2143 36.9295 54.6518 34.842C53.271 29.7167 56.4417 24.1671 61.675 22.6566C63.0387 22.2663 65.1525 22.0626 66.9595 22.2154C71.8689 22.6227 75.3635 24.4556 78.0398 27.9856C78.9603 29.1906 79.4546 30.1919 80.0513 31.7023C80.2899 32.2963 80.5286 33.2807 80.6309 33.9256C81.5684 39.1867 79.4546 44.906 75.1418 47.7911C75.4487 48.3681 75.9089 48.8942 76.284 49.4373C76.8636 49.3015 77.7329 48.453 78.1761 48.0117C79.8979 46.2976 81.2957 44.1083 82.0969 41.7324C83.256 38.2363 83.3242 33.7728 81.7559 30.2767C80.2729 27.0013 78.5512 24.812 75.6362 22.8773C71.8859 20.3825 69.1755 20.1788 64.6752 20.1788C64.8627 19.8903 64.9991 19.8564 65.2719 19.6357C67.505 17.8368 64.4877 18.1592 72.278 18.1592Z" fill="black"/>
<path fill-rule="evenodd" clip-rule="evenodd" d="M56.3907 31.9061V32.9244C56.3907 36.7599 60.1921 40.5615 64.0617 40.5615H68.0165C70.3689 40.5615 72.7384 38.2025 72.7384 35.8604V35.0967C72.7384 32.7547 70.3689 30.3957 68.0165 30.3957H65.3402C63.7719 30.3957 62.5275 31.7364 62.5275 33.7051C62.5275 35.0967 63.9253 36.5053 65.3402 36.5053H68.6643V34.4688C67.1471 34.4688 64.5731 34.8422 64.5731 33.4505C64.5731 31.8891 68.5449 32.2116 69.7211 33.2808C71.6815 35.0967 70.5053 38.5419 67.3858 38.5419C64.6242 38.5419 62.4763 38.7795 60.3796 36.8617C59.9193 36.4544 59.3227 35.6059 59.0329 35.0119C57.9078 32.6359 58.5045 29.7338 60.3796 28.0027C62.0331 26.4923 63.5162 26.3226 65.9709 26.3226C69.3461 26.3226 71.9202 27.4596 73.6078 29.1568C80.273 35.8435 75.9432 46.6711 65.9709 46.6711H50.2539V48.7077H67.2494C69.6189 48.7077 72.8748 47.4009 74.5113 45.8735L75.3465 45.1777C77.2728 43.2599 78.8922 39.9335 78.8922 37.1333C78.8922 34.1124 78.3979 31.8043 76.6591 29.4283L75.6704 28.2403C73.8976 26.0171 70.0962 24.269 67.1301 24.269H64.0617C60.1921 24.269 56.3907 28.0706 56.3907 31.9061Z" fill="black"/>
<path fill-rule="evenodd" clip-rule="evenodd" d="M42.0713 52.7806H71.3403C73.1132 52.7806 74.2212 53.3406 75.1929 54.1553C76.6759 55.3942 77.2555 57.872 76.3691 59.9425C75.9429 60.9268 75.3292 61.5038 74.5451 62.0639C74.2724 62.2675 73.9655 62.4372 73.6416 62.556C72.2097 63.0991 69.8743 63.2349 68.6299 62.0978C66.6014 60.231 68.0333 56.8367 70.7096 56.8367C71.937 56.8367 72.1415 58.8733 70.5903 58.8733H69.7039V60.9098H70.9824C72.5506 60.9098 73.795 59.5691 73.795 57.6004C73.795 56.2088 72.3972 54.8002 70.9824 54.8002H70.3516C67.9992 54.8002 65.6297 57.1592 65.6297 59.5012V60.2649C65.6297 62.6069 67.9992 64.966 70.3516 64.966H72.1074C75.5849 64.966 78.8749 61.6905 78.8749 58.2284V57.4647C78.8749 54.0025 75.5849 50.7271 72.1074 50.7271H42.0713V52.7806Z" fill="black"/>
<path fill-rule="evenodd" clip-rule="evenodd" d="M44.1162 18.1591H54.3442V16.1226H44.1162V18.1591Z" fill="black"/>
<path fill-rule="evenodd" clip-rule="evenodd" d="M33.1895 50.6932H35.5079V53.0013H33.1895V50.6932ZM33.1895 50.6932H28.3994V53.1541H33.1895V57.923C33.735 57.923 34.4169 57.957 34.9453 57.94C35.8317 57.906 35.6783 57.7194 35.6613 56.769C35.6442 55.564 35.6613 54.359 35.6613 53.1541C36.8716 53.1541 38.0819 53.1371 39.2922 53.171C40.1616 53.188 40.3832 53.3408 40.4514 52.594C40.5025 52.1528 40.4343 51.2024 40.4343 50.6932H35.6442V45.9243H33.1725V50.6932H33.1895Z" fill="black"/>
<path fill-rule="evenodd" clip-rule="evenodd" d="M13.8926 13.56H11.7107V15.7323H13.8926V13.56ZM14.0461 13.4242C16.9951 13.4242 16.5178 12.983 16.5178 15.4438C16.5178 16.1057 15.6996 15.885 14.0461 15.885C14.0461 18.8211 14.4893 18.3459 12.0175 18.3459C11.3527 18.3459 11.5743 17.5313 11.5743 15.885H9.10254V13.4242H11.5743V10.9634H14.0461V13.4242Z" fill="#2E4E9F"/>
<path fill-rule="evenodd" clip-rule="evenodd" d="M2.47176 36.7089H4.7901V39.017H2.47176V36.7089ZM2.47176 36.7089H0V39.1697H2.47176V41.4778H4.94352V39.1697H7.26186V36.7089H4.92647V34.248H2.47176V36.7089Z" fill="#2E4E9F"/>
<path fill-rule="evenodd" clip-rule="evenodd" d="M21.0528 43.7518H18.7345V46.0599H21.0528V43.7518ZM21.0528 43.7518H23.5246V46.2127H21.0528V48.5208H18.581V46.2127H16.2627V43.7518H18.581V41.291H21.0528V43.7518Z" fill="#2E4E9F"/>
<path fill-rule="evenodd" clip-rule="evenodd" d="M32.0645 3.00402L34.6726 5.51577L36.4795 3.7847L33.8714 1.27295L32.0645 3.00402Z" fill="black"/>
<path fill-rule="evenodd" clip-rule="evenodd" d="M32.0645 11.3705L33.8032 13.0337L36.4795 10.4371L34.7408 8.77393L32.0645 11.3705Z" fill="black"/>
<path fill-rule="evenodd" clip-rule="evenodd" d="M36.8887 3.61488H39.3604V0H36.8887V3.61488Z" fill="black"/>
<path fill-rule="evenodd" clip-rule="evenodd" d="M36.8887 14.3068H39.3604V10.6919H36.8887V14.3068Z" fill="black"/>
<path fill-rule="evenodd" clip-rule="evenodd" d="M30.9395 8.38369H34.5704V5.92285H30.9395V8.38369Z" fill="black"/>
<path fill-rule="evenodd" clip-rule="evenodd" d="M41.6787 8.38369H45.2926V5.92285H41.6787V8.38369Z" fill="black"/>
<path fill-rule="evenodd" clip-rule="evenodd" d="M39.7529 3.71693L41.4235 5.448L44.0316 2.91928C43.7589 2.52894 43.5543 2.35923 43.2304 2.05375C42.8895 1.69735 42.7361 1.42581 42.2588 1.29004L39.7529 3.71693Z" fill="black"/>
<path fill-rule="evenodd" clip-rule="evenodd" d="M39.7529 10.505L42.2929 13.1186L44.0316 11.4384L41.4917 8.8418L39.7529 10.505Z" fill="black"/>
<path fill-rule="evenodd" clip-rule="evenodd" d="M1.75586 24.88V27.5445C4.63674 27.5445 6.93803 29.8526 6.93803 32.7037H9.61435C9.61435 29.7847 11.8816 27.5445 14.7965 27.5445V24.88C11.8645 24.88 9.61435 22.6398 9.61435 19.7207H6.93803C6.93803 22.6058 4.67083 24.88 1.75586 24.88Z" fill="#2D4EA0"/>
</g>
<defs>
<clipPath id="clip0_81_760">
<rect width="83" height="65" fill="white"/>
</clipPath>
</defs>
</svg>
