<svg width="110" height="73" viewBox="0 0 110 73" fill="none" xmlns="http://www.w3.org/2000/svg">
<g clip-path="url(#clip0_81_778)">
<path fill-rule="evenodd" clip-rule="evenodd" d="M66.1098 47.5412H73.1185V57.958H66.1098V47.5412ZM64.2993 45.9491V57.9717H62.5986V43.9317C66.0138 43.1356 66.3978 41.2554 66.9602 40.8437C67.3031 42.1338 69.8405 43.9317 71.843 43.9317C74.4215 43.9317 76.04 43.218 77.4801 41.0633C77.823 41.2966 78.0425 41.7632 78.3579 42.1063C80.7033 44.659 85.4901 44.8237 88.0001 41.0633C88.3155 41.2691 88.6036 41.7769 88.8779 42.0926C89.6322 42.9847 91.4839 43.9317 92.8829 43.9317C94.9402 43.9317 96.3529 43.5611 97.8068 42.0514C98.0537 41.7906 98.5337 41.2005 98.6297 40.8574C99.0686 41.1868 99.2195 42.0102 100.385 42.82C101.249 43.4101 101.839 43.6846 102.978 43.9454V57.9854H74.929V45.9629C74.929 45.7158 74.8604 45.6472 74.6135 45.6472H64.6285C64.3679 45.6335 64.2993 45.7021 64.2993 45.9491ZM83.323 42.12C81.9514 42.12 80.7033 42.0377 79.5786 40.7613C78.1248 39.1144 78.5225 37.9341 78.5499 36.9048H87.0537C87.0674 37.3988 87.1634 37.2616 87.1634 37.6459C87.1634 39.3614 86.2582 40.8986 84.9415 41.5848C84.5574 41.7769 83.8716 42.12 83.323 42.12ZM99.2744 36.9048H107.984C108.505 38.0027 108.107 39.9104 107.106 40.926C105.323 42.7514 101.935 42.518 100.564 40.4045C99.919 39.4163 99.5898 37.6322 99.2744 36.9048ZM89.1659 36.9048H97.1347C98.3417 36.9048 97.4365 42.12 93.6235 42.12C91.8816 42.12 90.9627 41.8044 89.8791 40.4457C89.3031 39.732 88.439 36.9048 89.1659 36.9048ZM72.5973 42.12C70.9789 42.12 69.8542 41.7906 68.7981 40.3908C68.0986 39.4575 67.6322 38.1674 68.2357 36.9048H76.7395C76.4103 38.3184 76.7806 39.1144 75.6559 40.5006C75.2856 40.9535 74.929 41.3103 74.4078 41.5848C73.9278 41.8455 73.3243 42.12 72.5973 42.12ZM62.0637 42.12C60.6372 42.12 59.7046 42.1887 58.4701 40.926C57.4826 39.9104 57.0711 38.0027 57.5923 36.9048H66.3018C66.1098 37.7008 65.424 39.7183 65.0537 40.3359C64.5599 41.1593 63.3529 42.12 62.0637 42.12ZM78.9614 32.6502C79.2632 32.7188 79.3317 32.7875 79.6609 32.911C81.3068 33.4874 83.3779 33.5697 85.0786 33.1443L86.6011 32.6502C86.6148 33.007 86.6834 33.3502 86.7108 33.8168C86.7519 34.2697 86.8068 34.503 86.8068 35.1069H78.7283C78.7557 34.2011 78.9477 33.3776 78.9614 32.6502ZM90.4415 29.8916C95.7083 29.8916 95.1734 29.4799 95.5986 31.0033C95.7494 31.5523 95.8455 31.8542 96.01 32.4032C96.2706 33.3227 96.5998 34.2011 96.8193 35.1069H88.9465C88.5213 35.0108 88.6447 34.9971 88.535 33.6109C88.5076 33.2129 88.343 32.1012 88.3841 31.7993C88.3978 31.6758 88.3704 31.717 88.4938 31.566L89.3579 30.8386C89.5774 30.5915 90.126 29.8916 90.4415 29.8916ZM68.7706 35.1069L69.9639 31.0856C70.4028 29.4799 69.8405 29.8916 75.1485 29.8916C75.4091 29.8916 77.1921 31.717 77.1921 31.717C77.2881 32.0601 77.0001 33.7207 76.9589 34.256C76.9315 34.7775 77.0824 34.9422 76.712 35.0794C76.4926 35.1618 69.6347 35.1069 68.7706 35.1069ZM97.1484 29.8916H104.157L107.024 35.1069H98.7395L97.1484 29.8916ZM66.8504 35.1069H58.5662L61.4327 29.8916H68.4415L66.8504 35.1069ZM63.5587 21.1629H73.1185C73.1185 23.3176 72.9402 25.1292 73.722 27.1467C73.8729 27.5447 74.0375 27.5859 74.0649 28.08H63.545V21.1629H63.5587ZM91.5113 28.08C91.5524 27.6271 91.6896 27.5722 91.8268 27.2291C92.7594 25.0469 92.4714 21.8354 92.4714 19.365C93.4041 19.5846 94.6385 19.612 95.626 20.7786C97.1622 22.5765 97.1073 25.0881 95.7906 26.5291C95.6946 26.6389 95.626 26.7213 95.5437 26.8036C95.53 26.8173 95.5026 26.8448 95.4888 26.8585C94.2544 28.0937 93.0749 28.08 91.5113 28.08ZM74.929 19.365V17.6632H90.6609V19.365C90.8667 19.6944 90.7706 21.657 90.7706 22.1373C90.7844 22.9196 90.7706 22.7138 90.6609 22.8784C90.6609 24.3881 90.5923 25.4175 90.1672 26.5291C88.439 30.9484 83.3916 32.8286 79.4003 30.8523C77.6036 29.974 76.1908 28.4368 75.4365 26.5291C74.9976 25.4175 74.9427 24.4019 74.9427 22.8784C74.8741 22.7687 74.8879 22.8647 74.8467 22.6589L74.833 20.1061C74.8056 19.1454 74.8467 19.5022 74.929 19.365ZM98.0948 21.1629H102.031V28.08H96.929C97.4502 27.0918 98.6297 26.337 98.6297 23.6196C98.6297 22.9333 98.3006 21.6295 98.0948 21.1629ZM73.1185 19.365H61.7482V28.08C60.1297 28.08 60.4864 27.6957 59.1285 30.2484C58.8816 30.7013 58.717 30.9758 58.4976 31.415C57.5512 33.2815 55.5898 35.8754 55.5898 37.8655C55.5898 38.9771 55.631 39.6359 56.1248 40.6378C56.4539 41.2966 56.6597 41.6534 57.2083 42.2024C57.7569 42.7514 58.0038 42.9435 58.7445 43.3278C59.2657 43.6023 60.0749 43.9179 60.8018 43.9317V57.9717H59.1011V59.7833H106.503V57.9717H104.802V43.9317C107.38 43.8768 110.014 41.1593 110.014 38.6203C110.014 36.9048 109.931 36.5891 109.163 35.1069C109.04 34.8873 108.958 34.7638 108.848 34.5716C108.725 34.3658 108.642 34.1599 108.519 33.9403L106.187 29.7818C105.062 27.8329 105.721 28.08 103.842 28.08V19.365H96.929C96.6135 19.365 95.1734 17.5534 92.4714 17.5534V15.8516H73.1322V19.365H73.1185Z" fill="black"/>
<path fill-rule="evenodd" clip-rule="evenodd" d="M74.9287 22.8787H90.6606V19.3652H74.9287V22.8787Z" fill="#2D4EA0"/>
<path fill-rule="evenodd" clip-rule="evenodd" d="M90.6611 22.8787C90.7709 22.7003 90.7709 22.9061 90.7709 22.1376C90.7709 21.6709 90.8806 19.7083 90.6611 19.3652V22.8787Z" fill="#4A3A1D"/>
<path fill-rule="evenodd" clip-rule="evenodd" d="M74.9287 22.8787V19.3652C74.8464 19.5025 74.8053 19.1456 74.819 20.1064L74.8327 22.6591C74.8739 22.8512 74.8602 22.7689 74.9287 22.8787Z" fill="#4A3A1D"/>
<path fill-rule="evenodd" clip-rule="evenodd" d="M81.9648 46.2373H99.4387V55.0621H81.9648V46.2373Z" fill="black"/>
<path fill-rule="evenodd" clip-rule="evenodd" d="M83.666 48.0215H87.1772V49.6821H83.666V48.0215Z" fill="#2D4EA0"/>
<path fill-rule="evenodd" clip-rule="evenodd" d="M88.9463 48.0215H92.4575V49.6821H88.9463V48.0215Z" fill="#2D4EA0"/>
<path fill-rule="evenodd" clip-rule="evenodd" d="M94.1992 48.0215H97.6967V49.6821H94.1992V48.0215Z" fill="#2D4EA0"/>
<path fill-rule="evenodd" clip-rule="evenodd" d="M83.666 51.4116H87.1772V53.0723H83.666V51.4116Z" fill="#2D4EA0"/>
<path fill-rule="evenodd" clip-rule="evenodd" d="M88.9463 51.4116H92.4575V53.0723H88.9463V51.4116Z" fill="#2D4EA0"/>
<path fill-rule="evenodd" clip-rule="evenodd" d="M94.1992 51.4116H97.6967V53.0723H94.1992V51.4116Z" fill="#2D4EA0"/>
<path fill-rule="evenodd" clip-rule="evenodd" d="M40.2832 70.3375C39.2408 70.3375 38.8979 71.1473 38.6648 71.6276H41.888C41.6274 71.0786 41.2159 70.3375 40.2832 70.3375ZM48.8967 70.3375C48.1835 70.3375 47.4154 70.9688 47.3605 71.6276H50.5014C50.4191 71.2708 50.2134 70.9277 49.9528 70.7218C49.7333 70.5434 49.2807 70.3375 48.8967 70.3375ZM45.9204 61.2245C45.9204 61.746 45.8381 62.1166 45.7284 62.5695C45.358 64.0517 45.1249 63.1459 45.7695 65.1771C45.9204 65.63 46.085 66.1927 46.2358 66.6457L47.1274 69.5415C47.7308 69.3768 48.2109 68.7592 49.459 69.0611C49.459 68.3063 49.2944 67.3456 49.1984 66.5908C49.0887 65.8222 48.9653 64.8889 48.8967 64.0655C48.7732 62.6519 48.3343 60.8265 48.3343 59.7011H41.161L40.8318 61.5676C40.7221 62.3911 40.6124 63.1734 40.4752 64.038C40.3518 64.8889 40.2421 65.7261 40.1323 66.5221L39.7894 69.0749C40.585 68.6906 41.8605 69.514 42.0525 69.5552L43.3418 65.4379C43.4378 65.0948 43.5613 64.7654 43.6436 64.4498C43.7533 64.0655 43.8493 63.7361 43.9727 63.4067C44.5488 61.8147 44.5488 62.199 44.5488 60.3462H45.9204V61.2245ZM49.2259 52.3586C49.4453 56.5994 49.8979 60.7579 50.4054 64.9713C50.5974 66.3986 50.7757 67.8259 50.9129 69.2258C51.0638 70.7355 51.969 69.7199 51.969 73.0138H45.9204C45.9204 72.6707 45.9204 72.3138 45.9204 71.957C45.9204 71.4766 46.0301 71.3668 46.0712 71.0512C46.1124 70.6257 44.8231 66.879 44.6311 66.0692C44.5762 66.1516 44.6311 66.0418 44.5488 66.2202C44.5077 66.3163 44.5077 66.3163 44.4802 66.3986L43.1224 70.9688C43.1498 71.2433 43.2595 71.3943 43.2732 71.8746C43.2732 72.2452 43.2732 72.6295 43.2732 73.0138H37.2246C37.2246 69.7611 38.1847 70.6532 38.363 69.2396C38.3904 68.9788 38.459 68.5808 38.5002 68.32L39.762 59.4952C40.2832 55.9681 39.3231 50.0803 40.4615 48.0903C40.681 47.706 41.0101 47.2394 41.3256 46.9374C41.5999 46.6767 42.1623 46.2512 42.56 46.1551V45.4827C42.7246 45.1944 42.6286 42.23 42.6286 41.6124C42.1074 41.3104 41.8194 41.2006 41.5313 40.6517C41.2707 40.1713 41.2159 39.4576 41.4628 38.9224C41.7919 38.1813 41.9565 38.2911 42.5189 37.8793C43.0126 37.5088 42.752 35.2168 46.3593 35.9168C48.156 36.2736 48.1423 36.4246 49.8019 36.2599C49.9528 36.4795 50.3231 37.1657 50.4603 37.2892C50.5014 37.7284 50.6249 37.8244 50.6249 38.4146C50.6249 40.6379 51.05 42.6554 49.4179 43.822C48.787 44.2749 48.3892 44.3847 47.3194 44.3847C47.3194 44.9474 47.3194 45.5101 47.3194 46.0865C47.3057 46.9512 47.4428 46.8002 47.9091 47.2668C48.1835 47.5413 48.4852 48.0217 48.6909 48.5432C48.9378 49.4078 49.1984 51.2881 49.2259 52.3586ZM47.8543 52.5919C47.8131 51.8645 47.5937 49.6274 47.4154 49.1608C46.6062 46.9786 44.0825 46.3747 42.3131 47.857C41.8605 48.2275 41.3256 49.1333 41.3256 49.9294V58.3012H48.1012C47.9777 54.9388 47.9091 53.5389 47.8543 52.5919ZM43.2595 40.336H43.9865V45.6611C44.9877 45.6611 44.9877 45.6885 45.9204 45.9081V44.22C45.5089 44.1239 44.9877 43.7946 44.7957 43.4926L45.7009 42.5456C46.5787 43.1083 46.4004 43.0123 47.7034 43.0123C48.5264 43.0123 49.2396 42.2986 49.2396 41.4751C49.2396 40.9536 49.2944 38.2087 49.1847 37.9068C49.0476 37.5774 49.1847 37.8519 48.156 37.6598C47.58 37.55 47.1274 37.4539 46.5376 37.3304C45.8518 37.1931 44.0002 36.5893 44.0002 38.1676V39.0596C43.5338 39.0596 42.6286 38.9498 42.6286 39.7047C42.6149 40.0752 42.8755 40.336 43.2595 40.336Z" fill="black"/>
<path fill-rule="evenodd" clip-rule="evenodd" d="M50.4326 37.2753C50.2954 37.1518 49.9251 36.4655 49.7742 36.246C48.1146 36.4106 48.1283 36.2597 46.3316 35.9028C42.7244 35.2029 42.9987 37.4949 42.4912 37.8654C41.9288 38.2772 41.7643 38.1674 41.4351 38.9085C41.1882 39.4575 41.2431 40.1574 41.5037 40.6378C41.7917 41.1867 42.0797 41.2965 42.6009 41.5985C42.6009 42.2023 42.6969 45.1805 42.5323 45.4687C41.874 45.0433 40.859 44.8786 39.652 43.4513C38.9251 42.5866 38.2805 41.4749 38.0473 40.1299C37.2518 35.6421 40.5161 32.0875 44.2331 31.7032C44.2742 31.7032 44.3017 31.6895 44.3428 31.6895H49.253C51.1732 31.7855 52.5997 33.9814 51.6121 35.944C51.2692 36.644 51.0224 36.8635 50.4326 37.2753Z" fill="#2D4EA0"/>
<path fill-rule="evenodd" clip-rule="evenodd" d="M45.1246 56.3388V55.0487H43.8354C43.9176 56.0918 44.3565 56.2428 45.1246 56.3388ZM46.4962 46.6494V57.6838C44.9463 57.6838 43.5748 57.8485 42.7381 56.1741C42.3129 55.3369 42.4638 47.8709 42.4775 46.6631H43.8491V53.7037H45.1383V46.6631H46.4962V46.6494Z" fill="black"/>
<path fill-rule="evenodd" clip-rule="evenodd" d="M24.126 54.3761V53.7722V51.192V50.5882V49.9843C24.126 48.6942 24.8941 47.5825 26.0051 47.0747C26.1971 45.8533 25.621 44.8239 26.2794 43.9593C26.5811 43.5613 25.0861 41.9144 24.8529 40.5557C24.6884 39.5675 25.9776 40.24 26.1696 38.9362C26.2382 38.4146 26.4714 38.0441 26.732 37.7284C28.9951 36.8501 27.2806 37.6735 29.8592 37.6598C30.5998 37.6598 31.9851 37.5363 32.4377 37.8519C32.6983 38.0441 32.6572 38.1676 32.8355 38.3735C33.5624 37.9892 34.0836 37.7147 34.3991 36.7677C34.5225 36.3834 34.5774 35.8207 34.4539 35.3678C34.2619 34.6542 34.1385 34.7091 33.8916 34.3111C33.6584 34.1601 33.535 33.9679 33.2058 33.7895C32.9178 33.6386 32.5337 33.5837 32.3143 33.4739L30.0786 33.0621L28.2544 32.7739C27.3355 32.7739 26.8143 33.4739 25.8953 33.4739C24.2494 33.4739 23.015 33.4876 21.8903 34.9973C21.2183 35.9031 20.944 37.1108 21.2594 38.2637C21.6023 39.5263 22.3978 39.7459 21.6846 41.434C21.3691 42.1889 21.136 42.5869 21.136 43.6574C21.136 46.0454 22.3841 46.4709 22.7133 47.6237C23.1385 49.1197 21.9589 49.9294 21.6297 50.4784C20.6285 52.1528 21.136 54.28 22.6721 55.3917C23.0562 55.6662 23.5499 55.8995 24.126 55.9956V54.9663V54.3761Z" fill="#2D4EA0"/>
<path fill-rule="evenodd" clip-rule="evenodd" d="M34.6867 60.3048C34.769 60.6479 34.8513 61.0047 34.9199 61.3615C35.0022 61.7184 35.0708 62.0752 35.1393 62.432C35.1668 62.5693 35.1942 62.7065 35.2079 62.8438C35.2216 62.9261 35.2353 63.0359 35.2353 63.1183V63.3104L35.0433 63.3516C34.9748 63.3653 34.865 63.4202 34.8102 63.4477C34.6456 63.5163 34.4947 63.5986 34.3301 63.6535C33.8363 63.8594 33.3289 63.9829 32.794 64.0378C32.6294 64.0515 32.4648 64.0652 32.3002 64.0652C32.2453 64.0652 32.1905 64.0652 32.1356 64.0652C32.1082 64.0652 32.0533 64.0927 32.0259 64.0927C31.9024 64.1476 31.7653 64.1888 31.6418 64.2437C31.1618 64.4358 30.7229 64.4907 30.2154 64.4495C30.0234 64.4358 29.6393 64.3809 29.461 64.4495C29.1593 64.5731 28.8027 64.628 28.4872 64.6554H28.4735H27.6917H27.678C27.3351 64.628 26.9511 64.5731 26.6356 64.4495C26.5945 64.4358 26.5396 64.4221 26.4847 64.4221C26.3887 64.4084 26.2653 64.4358 26.1693 64.4495C26.0184 64.477 25.8812 64.4907 25.7304 64.4907C25.3052 64.4907 24.9074 64.4221 24.5097 64.2711C24.3862 64.2299 24.2765 64.175 24.1531 64.1339C24.0982 64.1064 24.0159 64.079 23.9473 64.079C23.2615 64.0652 22.5895 63.9555 21.9448 63.7221C21.7528 63.6535 21.5608 63.5712 21.3688 63.4751C21.2865 63.4339 21.1493 63.3653 21.067 63.3516L20.875 63.3104V63.132C20.875 62.981 20.9024 62.8301 20.9299 62.6791C20.9573 62.5418 20.9847 62.4046 21.0122 62.2674C21.5059 59.9754 22.0271 57.6422 23.2478 55.5973C23.3164 55.4875 23.385 55.3777 23.4398 55.2679C23.6867 54.8425 24.2491 54.5543 24.7428 54.5543C25.2092 54.5543 25.6618 54.5405 26.1281 54.5405C26.1555 55.0209 26.1967 55.4189 26.2378 55.6934H26.0595C26.0321 55.7894 26.0047 55.8855 25.9772 55.9816C25.4149 58.054 25.0309 60.1813 24.7977 62.3223C24.7703 62.6105 24.7291 62.8987 24.7291 63.1869C24.8388 63.2281 24.9486 63.2692 25.0446 63.283C25.1955 63.3241 25.7715 63.3928 26.0184 63.3653C26.0321 63.3104 26.0321 63.2555 26.0321 63.2143C26.0321 63.132 26.0458 63.0634 26.0458 62.981C26.0595 62.8575 26.0458 62.7477 26.0595 62.6242L26.3064 59.2068C26.3064 58.9872 26.3339 58.7814 26.3476 58.5618C26.3476 58.4794 26.3476 58.4108 26.3613 58.3285C26.3613 58.301 26.375 58.2736 26.375 58.2461L26.4984 56.3384C26.8002 56.8051 27.1431 57.107 27.5408 57.2854L27.39 59.5637V59.5774C27.3625 59.7832 27.3488 60.0166 27.3351 60.2224C27.3214 60.5244 27.3077 60.8126 27.294 61.1145C27.2802 61.4027 27.2665 61.6772 27.2528 61.9654C27.2391 62.185 27.2254 62.4183 27.1979 62.6379C27.1568 62.8987 27.1431 63.2006 27.1431 63.4751C27.5957 63.6261 28.5284 63.6261 28.981 63.4751C28.981 63.2006 28.9536 62.9124 28.9261 62.6379V62.6242L28.5832 57.5324C28.9398 57.5599 29.3102 57.5599 29.6942 57.5599L29.7216 57.9716C29.7353 58.3971 29.7765 58.8225 29.7902 59.248C29.8039 59.646 29.8451 60.0577 29.8862 60.4557C29.9137 60.7165 29.9274 60.9635 29.9411 61.2243C29.9548 61.4027 29.9685 61.5949 29.9685 61.7733L30.0508 63.0222C30.0645 63.132 30.0645 63.2418 30.0782 63.3379C30.0782 63.3516 30.0782 63.3516 30.0782 63.3653C30.4349 63.4065 31.0109 63.3241 31.3812 63.1869C31.3675 62.885 31.3401 62.583 31.2989 62.2948C31.1618 61.1969 31.0246 60.1126 30.8189 59.0284C30.6269 57.9991 30.38 56.9835 30.1194 55.9679V54.5817C30.5857 54.5817 31.0521 54.5817 31.5047 54.568C32.0396 54.5543 32.4648 54.9385 32.6019 55.1718C32.6979 55.3228 32.794 55.4738 32.8762 55.6385C33.6169 56.8874 34.385 59.0147 34.6867 60.3048ZM32.4785 62.9536C32.5471 62.9536 32.6019 62.9399 32.6705 62.9399C32.8762 62.9261 33.082 62.885 33.2877 62.8438C33.4523 62.8026 33.6169 62.7614 33.7815 62.7065L34.0421 62.6105C34.0147 62.3909 33.9735 62.1713 33.9324 61.9654C33.8501 61.5949 33.7678 61.2243 33.6718 60.8537C33.5757 60.4695 33.466 60.0852 33.37 59.7009C33.2877 59.4264 33.2191 59.1519 33.1231 58.8774C32.9174 58.301 32.7117 57.752 32.4373 57.2031C32.2316 56.7776 31.9984 56.3521 31.7927 55.9267C31.7653 55.8855 31.7104 55.7483 31.683 55.7071C31.6418 55.6934 31.5321 55.7071 31.5047 55.7071C31.4087 55.7071 31.3264 55.7071 31.2304 55.7208L31.3812 56.3521C31.5047 56.8325 31.6144 57.3266 31.7104 57.8207C31.8476 58.4657 31.9573 59.1107 32.0807 59.7558C32.1905 60.4146 32.3002 61.0733 32.3825 61.7321C32.4099 62.1164 32.4648 62.5418 32.4785 62.9536ZM23.6593 62.9536C23.673 62.8575 23.673 62.7752 23.6867 62.6791C23.7279 62.1027 23.8102 61.5125 23.8925 60.9361C23.9748 60.3322 24.0708 59.7283 24.1668 59.1382C24.2765 58.4931 24.3999 57.8481 24.5508 57.2168L24.7703 56.311C24.8114 56.1737 24.8526 56.0228 24.8937 55.8718C24.9074 55.8169 24.9211 55.762 24.9349 55.7071C24.8388 55.7071 24.7428 55.7071 24.6468 55.6934C24.6057 55.6934 24.5234 55.6934 24.4685 55.6934C24.4548 55.7208 24.4274 55.7757 24.4137 55.8032C24.3588 55.9267 24.2902 56.0365 24.2353 56.1463C23.8102 56.8599 23.4673 57.656 23.193 58.4245C22.9186 59.1794 22.6718 59.9617 22.4797 60.7577L22.1643 62.2948C22.1506 62.4046 22.1231 62.5144 22.0957 62.6105C22.1094 62.6242 22.1368 62.6242 22.1506 62.6379C22.4935 62.7752 22.8226 62.8575 23.193 62.9124C23.3301 62.9261 23.4947 62.9261 23.6593 62.9536Z" fill="black"/>
<path fill-rule="evenodd" clip-rule="evenodd" d="M31.2035 72.1768V73.014H27.7197V63.75H32.7671L32.6848 64.1617C32.4379 65.3832 32.2185 66.6184 31.999 67.8399C31.8207 68.828 31.6424 69.8025 31.4641 70.7906C31.3681 71.2572 31.2721 71.7101 31.2035 72.1768ZM31.5738 64.1617H28.8033V71.916H30.1474C30.1611 71.8337 30.1748 71.7513 30.1886 71.669C30.2434 71.3396 30.312 70.9965 30.3669 70.6671C30.5452 69.6515 30.7372 68.6496 30.9155 67.634C31.1349 66.4812 31.3544 65.3146 31.5738 64.1617Z" fill="black"/>
<path fill-rule="evenodd" clip-rule="evenodd" d="M31.0246 72.1629V72.8354H27.8975V63.9282H32.5471L32.5059 64.1341C32.2591 65.3556 32.0396 66.5908 31.8202 67.826C31.6419 68.8141 31.4635 69.7885 31.2852 70.7767C31.1892 71.2296 31.0932 71.6962 31.0246 72.1629ZM31.7927 63.9831C31.3813 66.083 30.2977 72.0942 30.2977 72.108H28.6107V63.9831H31.7927Z" fill="black"/>
<path fill-rule="evenodd" clip-rule="evenodd" d="M26.4438 72.1768V73.014H22.96V63.75H28.0073L27.925 64.1617C27.6782 65.3832 27.4587 66.6184 27.2393 67.8399C27.061 68.828 26.8827 69.8025 26.7044 70.7906C26.6221 71.2572 26.526 71.7101 26.4438 72.1768ZM26.8278 64.1617H24.0572V71.916H25.4014C25.4151 71.8337 25.4288 71.7513 25.4425 71.669C25.4974 71.3396 25.5659 70.9965 25.6208 70.6671C25.7991 69.6515 25.9911 68.6496 26.1694 67.634C26.3889 66.4812 26.5946 65.3146 26.8278 64.1617Z" fill="black"/>
<path fill-rule="evenodd" clip-rule="evenodd" d="M26.2659 72.1629V72.8354H23.1387V63.9282H27.7883L27.7472 64.1341C27.5003 65.3556 27.2808 66.5908 27.0614 67.826C26.8831 68.8141 26.7048 69.7885 26.5265 70.7767C26.4442 71.2296 26.3481 71.6962 26.2659 72.1629ZM27.0476 63.9831C26.6362 66.083 25.5526 72.0942 25.5526 72.108H23.8656V63.9831H27.0476Z" fill="black"/>
<path fill-rule="evenodd" clip-rule="evenodd" d="M31.1211 46.6494C32.4926 47.0474 33.4664 48.31 33.4664 49.7648C33.4664 50.5883 33.151 51.3843 32.6023 51.9744V55.7761H30.1198V54.5272H31.3542V51.4117C31.8754 51.0549 32.2183 50.451 32.2183 49.7648C32.2183 48.7492 31.4639 47.912 30.4901 47.7885C30.3667 47.665 30.2432 47.5415 30.1061 47.4317V46.5396H28.7345V46.7866C28.5151 46.7454 28.2819 46.718 28.0487 46.718C27.843 46.718 27.6373 46.7317 27.4315 46.7729V46.5396H26.06C26.06 46.7043 26.06 47.0062 26.0462 47.3905C25.2644 47.9944 24.7432 48.9413 24.7432 50.0118V50.6294V51.247V54.5409H26.1011C26.1285 55.0761 26.1697 55.5016 26.2383 55.7898H23.4951V50.0118C23.4951 47.514 25.5388 45.4691 28.035 45.4691C29.2009 45.4553 30.2844 45.8808 31.1211 46.6494Z" fill="black"/>
<path fill-rule="evenodd" clip-rule="evenodd" d="M25.4973 46.5121V46.4846C25.6619 46.1964 25.5659 43.2319 25.5659 42.6143C25.0447 42.3124 24.7566 42.2026 24.4686 41.6536C24.208 41.1733 24.1531 40.4596 24.4 39.9244C24.7292 39.1832 24.8938 39.293 25.4561 38.8813C25.9499 38.5107 25.6893 36.2188 29.2965 36.9187C31.0933 37.2755 31.0796 37.4265 32.7392 37.2618C32.89 37.4814 33.2604 38.1676 33.3975 38.2912C33.4387 38.7303 33.5621 38.8264 33.5621 39.4166C33.5621 41.6399 33.9873 43.6574 32.3551 44.824C31.7242 45.2769 31.3265 45.3867 30.2566 45.3867C30.2566 45.7572 30.2566 46.1415 30.2566 46.5121H28.8851V45.222C28.4736 45.1259 27.9524 44.7965 27.7604 44.4946L28.6656 43.5476C29.5434 44.1103 29.3651 44.0142 30.6681 44.0142C31.491 44.0142 32.2043 43.3005 32.2043 42.4771C32.2043 41.9556 32.2591 39.2107 32.1494 38.9087C32.0122 38.5794 32.1494 38.8539 31.1207 38.6617C30.5447 38.5519 30.092 38.4558 29.5023 38.3323C28.8165 38.1951 26.9649 37.5912 26.9649 39.1695V40.0616C26.4985 40.0616 25.5933 39.9518 25.5933 40.7066C25.5933 41.0909 25.8539 41.3517 26.2379 41.3517H26.9649V46.5121H25.4973Z" fill="black"/>
<path fill-rule="evenodd" clip-rule="evenodd" d="M28.7477 56.2427V54.9526H27.4584C27.5407 55.9819 27.9796 56.1329 28.7477 56.2427ZM30.1192 46.5396V57.574C28.5694 57.574 27.1978 57.7386 26.3611 56.0643C25.936 55.2271 26.0868 47.761 26.1005 46.5533H27.4721V53.5939H28.7614V46.5533H30.1192V46.5396Z" fill="black"/>
<path fill-rule="evenodd" clip-rule="evenodd" d="M5.01958 70.3375C3.97719 70.3375 3.6343 71.1473 3.40113 71.6276H6.62432C6.36372 71.0786 5.95225 70.3375 5.01958 70.3375ZM13.6468 70.3375C12.9335 70.3375 12.1655 70.9688 12.1106 71.6276H15.2515C15.1692 71.2708 14.9635 70.9277 14.7029 70.7218C14.4697 70.5434 14.0171 70.3375 13.6468 70.3375ZM10.6567 61.2245C10.6567 61.746 10.5744 62.1166 10.4647 62.5695C10.0944 64.0517 9.86123 63.1459 10.5059 65.1771C10.6567 65.63 10.8213 66.1927 10.9722 66.6457L11.8637 69.5415C12.4672 69.3768 12.9473 68.7592 14.1954 69.0611C14.1954 68.3063 14.0308 67.3456 13.9348 66.5908C13.8251 65.8222 13.7016 64.8889 13.6331 64.0655C13.5096 62.6519 13.0707 60.8265 13.0707 59.7011H5.89739L5.56821 61.5676C5.45849 62.3911 5.34876 63.1734 5.2116 64.038C5.08816 64.8889 4.97844 65.7261 4.86871 66.5221L4.52582 69.0474C5.32133 68.6631 6.59689 69.4866 6.78891 69.5278L8.07819 65.4105C8.1742 65.0673 8.29764 64.738 8.37993 64.4223C8.48966 64.038 8.58567 63.7086 8.70911 63.3792C9.28517 61.7872 9.28517 62.1715 9.28517 60.3187H10.6567V61.2245ZM13.9622 52.3586C14.1817 56.5994 14.6343 60.7579 15.1418 64.9713C15.3338 66.3986 15.5121 67.8259 15.6493 69.2258C15.8001 70.7355 16.7054 69.7199 16.7054 73.0138H10.6567C10.6567 72.6707 10.6567 72.3138 10.6567 71.957C10.6567 71.4766 10.7665 71.3668 10.8076 71.0512C10.8488 70.6257 9.55948 66.879 9.36747 66.0692C9.3126 66.1516 9.36746 66.0418 9.28517 66.2202C9.24402 66.3163 9.24402 66.3163 9.21659 66.3986L7.85874 70.9688C7.88617 71.2433 7.99589 71.3943 8.00961 71.8746C8.00961 72.2452 8.00961 72.6295 8.00961 73.0138H1.94727C1.94727 69.7611 2.90737 70.6532 3.08567 69.2396C3.1131 68.9788 3.18168 68.5808 3.22283 68.32L4.48467 59.4952C5.00587 55.9681 4.04577 50.0803 5.18417 48.0903C5.40362 47.706 5.7328 47.2394 6.04826 46.9374C6.32258 46.6767 6.88492 46.2512 7.28268 46.1551V45.4827C7.44727 45.1944 7.35125 42.23 7.35125 41.6124C6.83006 41.3104 6.54203 41.2006 6.254 40.6517C5.9934 40.1713 5.93854 39.4576 6.18542 38.9224C6.5146 38.1813 6.67919 38.2911 7.24153 37.8793C7.73529 37.5088 7.4747 35.2168 11.0819 35.9168C12.8787 36.2736 12.865 36.4246 14.5246 36.2599C14.6754 36.4795 15.0458 37.1657 15.1829 37.2892C15.2241 37.7284 15.3475 37.8244 15.3475 38.4146C15.3475 40.6379 15.7727 42.6554 14.1405 43.822C13.5096 44.2749 13.1119 44.3847 12.042 44.3847C12.042 44.9474 12.042 45.5101 12.042 46.0865C12.0283 46.9512 12.1655 46.8002 12.6318 47.2668C12.9061 47.5413 13.2079 48.0217 13.4136 48.5432C13.6742 49.4078 13.9348 51.2881 13.9622 52.3586ZM12.5907 52.5919C12.5495 51.8645 12.3301 49.6274 12.1518 49.1608C11.3425 46.9786 8.81884 46.3747 7.04951 47.857C6.59689 48.2275 6.06198 49.1333 6.06198 49.9294V58.3012H12.8375C12.7141 54.9388 12.6455 53.5389 12.5907 52.5919ZM7.99589 40.336H8.72283V45.6611C9.72407 45.6611 9.72407 45.6885 10.6567 45.9081V44.22C10.2453 44.1239 9.72407 43.7946 9.53205 43.4926L10.4373 42.5456C11.3151 43.1083 11.1368 43.0123 12.4398 43.0123C13.2627 43.0123 13.9759 42.2986 13.9759 41.4751C13.9759 40.9536 14.0308 38.2087 13.9211 37.9068C13.7839 37.5774 13.9211 37.8519 12.8924 37.6598C12.3163 37.55 11.8637 37.4539 11.2739 37.3304C10.5882 37.1931 8.73654 36.5893 8.73654 38.1676V39.0596C8.27021 39.0596 7.36497 38.9498 7.36497 39.7047C7.35126 40.0752 7.61185 40.336 7.99589 40.336Z" fill="black"/>
<path fill-rule="evenodd" clip-rule="evenodd" d="M15.1699 37.2753C15.0327 37.1518 14.6624 36.4655 14.5115 36.246C12.8519 36.4106 12.8657 36.2597 11.0689 35.9028C7.46166 35.2029 7.73598 37.4949 7.2285 37.8654C6.66615 38.2772 6.50156 38.1674 6.17239 38.9085C5.9255 39.4575 5.98037 40.1574 6.24097 40.6378C6.529 41.1867 6.81702 41.2965 7.33822 41.5985C7.33822 42.2023 7.43423 45.1805 7.26964 45.4687C6.61129 45.0433 5.59633 44.8786 4.38934 43.4513C3.66241 42.5866 3.01777 41.4749 2.78461 40.1299C1.98909 35.6421 5.25343 32.0875 8.97039 31.7032C9.01154 31.7032 9.03897 31.6895 9.08012 31.6895H13.9903C15.9105 31.7855 17.337 33.9814 16.3494 35.944C16.0066 36.644 15.7597 36.8635 15.1699 37.2753Z" fill="#2D4EA0"/>
<path fill-rule="evenodd" clip-rule="evenodd" d="M9.86194 56.3388V55.0487H8.57266C8.65495 56.0918 9.09386 56.2428 9.86194 56.3388ZM11.2335 46.6494V57.6838C9.68363 57.6838 8.31206 57.8485 7.4754 56.1741C7.05021 55.3369 7.20109 47.8709 7.2148 46.6631H8.58637V53.7037H9.87565V46.6631H11.2335V46.6494Z" fill="black"/>
<path fill-rule="evenodd" clip-rule="evenodd" d="M17.981 19.3242C18.2964 30.386 -2.52402 29.0136 0.260268 12.8463C1.26152 7.02711 6.29518 3.71954 12.3027 4.14499C22.0682 4.83121 25.6755 9.62102 29.9822 17.0459C32.6979 21.7259 36.4286 25.1982 42.052 26.3099C48.5944 27.6137 54.4648 24.91 58.4286 19.9967L60.1568 21.177C54.9585 27.6274 46.5782 30.6331 38.4448 27.3529C27.9934 23.1258 28.9535 15.9068 22.2328 9.99158C19.0371 7.17808 12.9336 5.35274 8.80516 6.40952C5.14306 7.34278 2.93483 9.67592 2.33134 13.2168C0.0408166 26.5569 16.1019 27.2569 15.8825 19.4889L17.981 19.3242Z" fill="black"/>
<path fill-rule="evenodd" clip-rule="evenodd" d="M42.8342 9.55196C45.0699 9.42844 46.7432 8.61871 46.4689 5.99735C45.934 0.946775 37.8006 0.178209 35.0437 4.87195C31.9714 10.0872 34.4539 16.9906 40.2008 19.2002C43.6435 20.5315 47.0587 20.2158 50.5973 19.6531L50.9265 21.4098C49.2943 21.6706 48.7457 21.7941 47.1135 21.8765C39.1173 22.3156 31.8342 18.2669 31.9988 9.53824C32.1086 3.78772 35.5923 -0.206073 41.4078 -0.000207545C45.7694 0.150761 49.4589 3.97986 47.9776 8.1658C47.0861 10.6911 45.1522 11.1989 42.7245 11.3361L42.8342 9.55196Z" fill="black"/>
</g>
<defs>
<clipPath id="clip0_81_778">
<rect width="110" height="73" fill="white"/>
</clipPath>
</defs>
</svg>
