<svg width="60" height="60" viewBox="0 0 60 60" fill="none" xmlns="http://www.w3.org/2000/svg">
<g clip-path="url(#clip0_81_712)">
<path fill-rule="evenodd" clip-rule="evenodd" d="M47.4496 52.379C47.9183 52.2732 48.8559 52.0615 49.3246 52.0313C49.3246 53.876 49.0373 55.1462 50.2772 55.8871C50.7309 56.1593 52.621 56.0988 52.1371 57.4143C51.8498 58.1855 51.1542 58.004 50.1411 58.004C48.9768 58.004 48.1149 57.1573 47.7218 56.3256C47.2833 55.3881 47.4496 53.6946 47.4496 52.379ZM60 34.0978V35.4284C59.7883 37.4546 58.624 39.4204 56.4315 40.7208C55.9476 41.0081 54.8891 41.4163 54.254 41.4768C54.4052 43.2762 56.4466 47.1321 54.0575 49.8236C53.2258 50.7611 52.1673 51.0333 51.3357 51.4264V54.1331C55.5242 54.4809 54.7077 59.9849 51.5625 59.9849H49.8992C49.1734 59.9395 48.5686 59.7883 47.6462 59.1986C47.1472 58.8811 46.4819 58.2309 46.1946 57.7167C45.1512 55.8266 45.4536 54.9798 45.4536 52.5907L40.2671 53.0292C38.4073 53.2863 22.9839 53.2258 22.3034 53.1351L14.5161 52.6058C14.5161 54.874 14.9093 57.6109 12.3236 59.2137C11.4012 59.7883 10.7812 59.9546 10.0706 60H8.4375C5.29234 60 4.49093 54.496 8.66431 54.1482V51.4567C8.40726 51.3357 8.0746 51.2298 7.83266 51.124C7.54536 50.9879 7.39415 50.8972 7.1371 50.7611C2.97883 48.4929 5.57964 43.3821 5.73085 41.5071C5.03528 41.4466 3.97681 41.0081 3.47782 40.7056C1.01311 39.1936 0 37.3186 0 34.4456C0 31.0282 3.23589 28.004 6.78931 28.004C9.14819 28.004 10.2067 29.1079 11.3558 29.879C11.3558 27.9587 10.7964 24.7984 10.252 23.0141C10.1462 22.6361 10.0554 22.3034 9.96472 22.001C8.57359 17.2379 7.71169 17.6008 7.71169 11.25C7.71169 8.01411 9.82863 5.20161 12.7167 3.94657C14.9849 2.97883 15.7712 3.0998 17.9032 2.91835C18.2812 2.8881 19.3246 2.84274 19.7329 2.76714C22.9688 2.17742 24.2389 0 29.2893 0C36.88 0 36.2147 2.02621 40.2369 2.76714C40.6149 2.84274 40.8569 2.79738 41.25 2.8125C41.7641 2.84274 41.6734 2.90323 42.1875 2.93347C45.2419 3.08468 47.6159 3.55343 49.9143 5.76109C51.3659 7.15222 52.2732 9.11794 52.2732 11.25C52.2732 16.2399 51.7591 17.0262 50.3226 21.1391C49.4758 23.5585 48.6442 27.1573 48.6442 29.879C48.9466 29.6825 49.2339 29.3952 49.5665 29.1532C51.3508 27.9284 53.8911 27.6411 55.9929 28.624C56.9304 29.0625 57.369 29.3649 58.0645 30.0605C59.1835 31.1946 59.8337 32.6159 60 34.0978ZM9.84375 58.004C8.84577 58.004 8.21069 58.1855 7.89315 57.4899C7.25806 56.1442 9.32964 56.0837 9.64718 55.9173C10.9627 55.2067 10.6754 53.9063 10.6754 52.0313C11.2954 52.0766 11.9304 52.3337 12.5504 52.379C12.5504 53.6341 12.7167 55.3579 12.3236 56.25C11.9153 57.0968 11.0534 58.004 9.84375 58.004ZM1.99597 35.0353C1.99597 31.9052 4.44556 29.7581 7.16734 30.0907C8.57359 30.2571 9.58669 30.7712 10.4335 31.875C11.6734 33.5081 11.5978 34.8236 11.5978 37.0312C11.5978 39.8135 11.1744 41.6431 10.3881 44.0171C10.2067 44.5766 9.76815 45.6351 9.72278 46.1643C10.0252 46.3155 11.2046 46.7238 11.5978 46.754C11.9153 45.378 12.5504 44.0927 12.8831 42.6563H41.0081C42.8982 42.6563 42.6411 43.0645 42.6411 40.6603H13.3518C13.3518 39.6623 13.5938 38.7097 13.5938 37.621C13.5938 36.5323 13.5938 35.4284 13.5938 34.3397C13.9113 34.249 15.8317 33.0696 20.0655 32.0111C24.4052 30.9224 31.6633 30.7712 36.1391 31.3609C38.876 31.7389 40.7208 32.0867 43.3216 32.9637C43.8962 33.1603 44.38 33.3569 44.9244 33.5837C45.378 33.7802 46.0433 34.2188 46.4062 34.3246C46.4062 35.4133 46.4062 36.5171 46.4062 37.6058C46.4062 38.755 46.6482 39.6321 46.6482 40.6452H44.5464V42.6411H47.1169C47.4496 44.0927 48.0847 45.378 48.4022 46.7389C48.7954 46.7087 49.9748 46.3004 50.2772 46.1492C50.2319 45.6502 49.249 42.9738 48.9919 41.9304C48.4476 39.7228 48.4022 38.2107 48.4022 35.8367C48.4022 27.8982 58.004 28.5938 58.004 35.0202C58.004 37.3488 55.6149 39.5867 53.3165 39.5867H50.2772V41.5827H52.2732C52.5151 44.5464 55.1613 47.9486 50.4436 49.5968C48.9466 50.126 47.2984 50.3679 45.5746 50.5796C38.3921 51.4567 21.7742 51.4264 14.5615 50.5948C12.0212 50.3075 6.81956 49.8236 6.81956 46.497C6.81956 44.2137 7.59073 43.5181 7.75706 41.5827H9.75302V39.5867C7.10685 39.5867 5.45867 39.9345 3.50806 38.2107C2.8125 37.6361 1.99597 36.2601 1.99597 35.0353ZM43.6996 30.9829C42.6411 30.7409 41.6431 30.3629 40.5393 30.121C34.8085 28.881 28.4274 28.7147 22.621 29.5313C19.2188 30.0151 18.9768 30.3478 16.2702 30.9829C15.8165 31.1643 15.3175 31.3458 14.8639 31.5121C14.4254 31.6784 13.8659 32.0111 13.4577 32.1018C13.4577 29.9093 13.246 27.8982 12.9587 25.9325C12.0665 19.8538 9.70766 18.0847 9.70766 12.1875C9.70766 9.2994 10.6452 7.00101 13.4425 5.83669C14.3196 5.47379 14.9546 5.21673 16.0585 5.0504C19.8538 4.50605 19.6875 5.45867 24.3145 3.11492C27.3085 1.60282 32.5857 1.57258 35.5645 3.06956C36.8952 3.73488 38.7853 4.74798 40.6452 4.79335L43.8054 5.03528C46.2702 5.38306 48.9919 6.74395 49.8387 9.20867C50.4889 11.0837 50.3075 13.1401 50.0202 15.2268C49.4304 19.506 46.5121 22.3488 46.5121 32.1018L43.6996 30.9829Z" fill="black"/>
<path fill-rule="evenodd" clip-rule="evenodd" d="M40.6607 23.2259H42.566L42.5206 25.1614H40.6456L40.6607 23.2259ZM34.824 23.1957L36.7897 23.2108L36.7595 25.1765L34.8089 25.1463L34.824 23.1957ZM29.0629 23.2259H30.9682L30.9379 25.1614H29.0478L29.0629 23.2259ZM23.2111 23.1957L25.1768 23.2259L25.1466 25.1765L23.196 25.1614L23.2111 23.1957ZM17.45 23.2259H19.3553L19.325 25.1614H17.4349L17.45 23.2259ZM37.7575 17.4951C38.0599 17.2229 39.2393 17.3439 39.6627 17.4044C39.8139 17.7673 39.8593 18.9769 39.6476 19.3701L37.7424 19.3398L37.7575 17.4951ZM33.8563 17.4648L33.8714 19.355L31.9813 19.3701C31.7545 18.9921 31.8149 17.7673 31.951 17.4195C32.3139 17.3439 32.571 17.3741 32.9339 17.3741C33.6143 17.359 33.569 17.2985 33.8563 17.4648ZM26.1446 17.4195H28.0649V19.355H26.1295L26.1446 17.4195ZM22.2434 17.4951L22.2585 19.3398L20.3532 19.3701C20.323 19.3096 20.2776 19.2945 20.2323 19.0979L20.323 17.4044C20.7464 17.3439 22.0468 17.2078 22.2434 17.4951ZM42.4752 11.6282C42.6416 11.7945 42.5811 11.5223 42.6264 12.0667L42.5811 13.5334L40.691 13.5636C40.6758 13.5334 40.6305 13.5334 40.6002 13.5183L40.6305 11.613L42.4752 11.6282ZM34.9752 11.613H36.6385C36.8049 11.7642 36.7595 11.4921 36.8049 12.0667L36.7444 13.5788L34.824 13.5485L34.7938 11.9457C34.8694 11.4921 34.7182 11.7491 34.9752 11.613ZM29.0478 11.613H30.9682L30.9077 13.5485H29.0478V11.613ZM23.3472 11.5979H25.0105C25.2373 11.7794 25.1315 11.3409 25.2071 12.0515L25.1466 13.5636L23.2262 13.5485C23.1657 13.1705 23.1809 12.9134 23.1809 12.5354C23.1809 11.6584 23.1204 11.7491 23.3472 11.5979ZM17.5105 11.6282L19.3401 11.613L19.3704 13.5183C19.0377 13.6997 18.8109 13.6392 18.3875 13.6392C17.949 13.6392 17.7978 13.6997 17.4047 13.5334C17.3593 13.11 17.2081 11.8096 17.5105 11.6282ZM16.2857 30.983C18.9924 30.3479 19.2343 30.0152 22.6365 29.5314C28.443 28.7148 34.824 28.8661 40.5549 30.1211C41.6587 30.363 42.6567 30.7411 43.7151 30.983C43.7151 29.2441 44.0024 27.2179 44.2293 25.5999C45.0458 20.0354 47.1174 17.0717 47.3291 13.9417C47.5256 11.2501 47.9188 9.19367 44.5166 8.10496C42.9591 7.60597 40.9026 7.80255 39.1486 7.48501C35.2625 6.78944 34.6728 4.80859 30.0004 4.80859C25.2978 4.80859 24.7534 6.80456 20.8522 7.48501C19.1738 7.78742 17.0418 7.60597 15.575 8.07472C14.0176 8.55859 12.8684 9.26928 12.5811 11.0687C12.1879 13.609 13.1708 16.4669 13.8664 18.4779C14.1537 19.2945 14.3805 19.9296 14.6526 20.731C15.5297 23.3318 16.2857 28.0949 16.2857 30.983Z" fill="#2E4E9F"/>
<path fill-rule="evenodd" clip-rule="evenodd" d="M6.78944 35.7306C4.91444 35.7306 6.19972 32.9483 7.4094 34.1731C7.984 34.7326 7.65134 35.7306 6.78944 35.7306ZM3.87109 34.5663C3.87109 39.0572 9.72291 38.407 9.72291 34.9141C9.72291 34.0371 9.34488 33.2961 8.87613 32.8274C6.74408 30.6651 3.87109 32.661 3.87109 34.5663Z" fill="black"/>
<path fill-rule="evenodd" clip-rule="evenodd" d="M54.1327 34.6875C54.1327 36.623 51.4412 35.5494 52.5147 34.249C53.1045 33.5232 54.1327 34.1129 54.1327 34.6875ZM50.2617 34.7933C50.2617 37.5 53.4522 38.6341 55.2214 36.9405C56.1589 36.0484 56.416 34.5363 55.8111 33.4627C55.0702 32.1623 53.6488 31.5272 52.0611 32.1472C51.5924 32.3286 51.4865 32.4496 51.169 32.7671C50.6549 33.2964 50.2617 34.0826 50.2617 34.7933Z" fill="black"/>
<path fill-rule="evenodd" clip-rule="evenodd" d="M28.9414 46.7542V48.3873H31.0432C31.0432 45.9981 31.4212 46.3913 29.2892 46.3913C29.017 46.4064 28.9414 46.482 28.9414 46.7542Z" fill="black"/>
<path fill-rule="evenodd" clip-rule="evenodd" d="M17.3438 48.3871H19.3397V46.4062H17.3438V48.3871Z" fill="black"/>
<path fill-rule="evenodd" clip-rule="evenodd" d="M40.6602 48.3871H42.6561V46.4062H40.6602V48.3871Z" fill="black"/>
<path fill-rule="evenodd" clip-rule="evenodd" d="M23.1953 48.3871H25.1913V46.4062H23.1953V48.3871Z" fill="black"/>
<path fill-rule="evenodd" clip-rule="evenodd" d="M34.8086 48.3871H36.7894V46.4062H34.8086V48.3871Z" fill="black"/>
<path fill-rule="evenodd" clip-rule="evenodd" d="M26.1289 19.3549H28.0644V17.4194H26.144L26.1289 19.3549Z" fill="black"/>
<path fill-rule="evenodd" clip-rule="evenodd" d="M29.0322 25.1611H30.9223L30.9526 23.2256H29.0625L29.0322 25.1611Z" fill="black"/>
<path fill-rule="evenodd" clip-rule="evenodd" d="M40.6455 25.1611H42.5356L42.5659 23.2256H40.6606L40.6455 25.1611Z" fill="black"/>
<path fill-rule="evenodd" clip-rule="evenodd" d="M17.4346 25.1611H19.3096L19.3549 23.2256H17.4497L17.4346 25.1611Z" fill="black"/>
<path fill-rule="evenodd" clip-rule="evenodd" d="M29.0479 13.5483H30.9077L30.9682 11.6128H29.0479V13.5483Z" fill="black"/>
<path fill-rule="evenodd" clip-rule="evenodd" d="M31.9658 19.3701L33.8711 19.355L33.8559 17.4648H31.9658V19.3701Z" fill="black"/>
<path fill-rule="evenodd" clip-rule="evenodd" d="M39.6323 19.3701V17.48L37.7573 17.4951L37.7422 19.3399L39.6323 19.3701Z" fill="black"/>
<path fill-rule="evenodd" clip-rule="evenodd" d="M20.3525 19.3701L22.2578 19.3399L22.2427 17.4951L20.3525 17.48V19.3701Z" fill="black"/>
<path fill-rule="evenodd" clip-rule="evenodd" d="M19.3696 13.5029L19.3394 11.6128L17.5097 11.6279L17.4795 13.5029H19.3696Z" fill="black"/>
<path fill-rule="evenodd" clip-rule="evenodd" d="M40.6152 13.5029H42.5054L42.4751 11.6279L40.6606 11.6128L40.6152 13.5029Z" fill="black"/>
<path fill-rule="evenodd" clip-rule="evenodd" d="M25.0104 11.6128L23.3471 11.5977L23.2715 13.4424H25.086L25.0104 11.6128Z" fill="black"/>
<path fill-rule="evenodd" clip-rule="evenodd" d="M36.653 11.5977L34.9745 11.6128L34.9141 13.4424H36.7135L36.653 11.5977Z" fill="black"/>
<path fill-rule="evenodd" clip-rule="evenodd" d="M34.9443 25.0553H36.6984V23.3013H34.9443V25.0553Z" fill="black"/>
<path fill-rule="evenodd" clip-rule="evenodd" d="M23.3018 25.0553H25.0558V23.3013H23.3018V25.0553Z" fill="black"/>
<path fill-rule="evenodd" clip-rule="evenodd" d="M23.3012 23.3016H25.0552V25.0557H23.3012V23.3016ZM23.1953 25.1615L25.1459 25.1766L25.1762 23.226L23.2104 23.1958L23.1953 25.1615Z" fill="black"/>
<path fill-rule="evenodd" clip-rule="evenodd" d="M34.9447 23.3012H36.6987V25.0552H34.9447V23.3012ZM34.8086 25.1611L36.7592 25.1913L36.7894 23.2256L34.8237 23.2104L34.8086 25.1611Z" fill="black"/>
<path fill-rule="evenodd" clip-rule="evenodd" d="M25.0103 11.6128L25.0708 13.4424H23.2562L23.3319 11.6128C23.105 11.7489 23.1655 11.6582 23.1655 12.5503C23.1655 12.9283 23.1504 13.1854 23.2109 13.5634L25.1312 13.5785L25.1917 12.0664C25.1464 11.3557 25.2371 11.7942 25.0103 11.6128Z" fill="black"/>
<path fill-rule="evenodd" clip-rule="evenodd" d="M36.6534 11.5977L36.7138 13.4273H34.9144L34.99 11.5977C34.7179 11.7337 34.8842 11.4767 34.8086 11.9303L34.854 13.5331L36.7743 13.5634L36.8348 12.0513C36.7743 11.4767 36.8046 11.764 36.6534 11.5977Z" fill="black"/>
<path fill-rule="evenodd" clip-rule="evenodd" d="M19.3699 13.5029H17.4798L17.5101 11.6128C17.2076 11.7942 17.3588 13.0946 17.4042 13.518C17.7973 13.6844 17.9486 13.6239 18.3871 13.6239C18.8105 13.639 19.0373 13.6995 19.3699 13.5029Z" fill="black"/>
<path fill-rule="evenodd" clip-rule="evenodd" d="M39.6323 19.3701C39.8591 18.9769 39.7986 17.7672 39.6474 17.4043C39.224 17.3439 38.0446 17.2229 37.7422 17.4951L39.6323 17.4799V19.3701Z" fill="black"/>
<path fill-rule="evenodd" clip-rule="evenodd" d="M31.9659 19.3699V17.4797H33.856C33.5687 17.2983 33.6141 17.3588 32.9185 17.3739C32.5556 17.3739 32.2986 17.3588 31.9357 17.4192C31.7996 17.767 31.7542 18.9918 31.9659 19.3699Z" fill="black"/>
<path fill-rule="evenodd" clip-rule="evenodd" d="M20.3529 19.3702V17.48L22.243 17.4952C22.0465 17.2079 20.7461 17.344 20.3378 17.4044L20.2471 19.098C20.2773 19.2946 20.3227 19.3097 20.3529 19.3702Z" fill="black"/>
<path fill-rule="evenodd" clip-rule="evenodd" d="M40.6152 13.5029C40.6455 13.518 40.6757 13.518 40.706 13.5483L42.5961 13.518L42.6414 12.0513C42.5961 11.5069 42.6717 11.7942 42.4902 11.6128L42.5205 13.5029H40.6152Z" fill="black"/>
</g>
<defs>
<clipPath id="clip0_81_712">
<rect width="60" height="60" fill="white"/>
</clipPath>
</defs>
</svg>
