<svg width="30" height="30" viewBox="0 0 30 30" fill="none" xmlns="http://www.w3.org/2000/svg">
<path d="M4.98135 13.154C6.16617 11.8239 7.80861 11.0914 9.60615 11.0914C9.66516 11.0914 9.72399 11.0924 9.78258 11.094V6.84785C9.78258 6.30762 10.2206 5.86957 10.7609 5.86957H11.7391V0.978281C11.7391 0.438047 12.1771 0 12.7174 0H17.2826C17.8229 0 18.2609 0.437988 18.2609 0.978281V5.86957H19.2392C19.7794 5.86957 20.2175 6.30756 20.2175 6.84785V11.0941C20.2761 11.0924 20.3348 11.0914 20.3939 11.0914C22.1915 11.0914 23.8339 11.8239 25.0187 13.154C26.1455 14.419 26.766 16.1109 26.766 17.9184C26.766 21.7372 24.6708 24.7945 23.4218 26.277C21.5163 28.5387 19.1983 30 17.5164 30H12.4837C10.8015 30 8.48326 28.5381 6.57779 26.2758C5.3291 24.7932 3.23408 21.7359 3.23408 17.9184C3.23414 16.111 3.85459 14.419 4.98135 13.154ZM16.3044 1.9565H13.6956V5.86957H16.3044V1.9565ZM18.2609 7.82607H11.7391V11.4888C12.6915 11.8627 13.5503 12.4965 14.2797 13.3735C14.455 13.5841 14.7175 13.7048 15.0001 13.7048C15.2827 13.7048 15.5452 13.5841 15.7203 13.3735C16.4497 12.4965 17.3085 11.8627 18.2609 11.4887V7.82607H18.2609ZM8.07416 25.0154C9.74854 27.0034 11.5598 28.0435 12.4836 28.0435H17.5163C18.44 28.0435 20.2511 27.0037 21.9253 25.0164C23.2778 23.411 24.2041 21.5815 24.597 19.7943C21.6308 18.6039 18.3283 18.7124 15.4261 20.1193C13.6398 20.9854 11.6464 21.4465 9.66129 21.4528C9.64734 21.4528 9.63352 21.4529 9.61957 21.4529C8.29547 21.4528 6.96727 21.2498 5.69842 20.8599C6.17982 22.2974 6.99018 23.7282 8.07416 25.0154ZM5.22082 18.6094C8.23307 19.878 11.6118 19.7943 14.5727 18.3589C16.3608 17.4919 18.3564 17.0308 20.3436 17.0254C20.3556 17.0254 20.3673 17.0254 20.3793 17.0254C21.8807 17.0254 23.3875 17.2859 24.8066 17.7847C24.7464 15.0752 22.8704 13.048 20.3938 13.048C19.1609 13.048 18.0946 13.5785 17.2245 14.6246C16.6765 15.2836 15.8657 15.6614 15 15.6614C14.1344 15.6614 13.3235 15.2835 12.7755 14.6246C11.9054 13.5785 10.8391 13.048 9.60621 13.048C7.08891 13.048 5.19065 15.1418 5.19065 17.9184C5.19065 18.1465 5.20102 18.3771 5.22082 18.6094Z" fill="#2E4DA0"/>
</svg>
