<svg width="30" height="30" viewBox="0 0 30 30" fill="none" xmlns="http://www.w3.org/2000/svg">
<g clip-path="url(#clip0_246_1775)">
<path d="M19 29H18C18 29.3788 18.214 29.725 18.5528 29.8944C18.8916 30.0638 19.297 30.0272 19.6 29.8L19 29ZM23 26L23.6 25.2C23.2444 24.9334 22.7556 24.9334 22.4 25.2L23 26ZM27 29L26.4 29.8C26.703 30.0272 27.1084 30.0638 27.4472 29.8944C27.786 29.725 28 29.3788 28 29H27ZM23 22C20.2386 22 18 19.7614 18 17H16C16 20.866 19.134 24 23 24V22ZM28 17C28 19.7614 25.7614 22 23 22V24C26.866 24 30 20.866 30 17H28ZM23 12C25.7614 12 28 14.2386 28 17H30C30 13.134 26.866 10 23 10V12ZM23 10C19.134 10 16 13.134 16 17H18C18 14.2386 20.2386 12 23 12V10ZM18 21V29H20V21H18ZM19.6 29.8L23.6 26.8L22.4 25.2L18.4 28.2L19.6 29.8ZM22.4 26.8L26.4 29.8L27.6 28.2L23.6 25.2L22.4 26.8ZM28 29V21H26V29H28ZM30 10V3H28V10H30ZM27 0H3V2H27V0ZM0 3V27H2V3H0ZM3 30H16V28H3V30ZM0 27C0 28.6568 1.34315 30 3 30V28C2.44772 28 2 27.5522 2 27H0ZM3 0C1.34315 0 0 1.34315 0 3H2C2 2.44772 2.44772 2 3 2V0ZM30 3C30 1.34315 28.6568 0 27 0V2C27.5522 2 28 2.44772 28 3H30ZM6 10H16V8H6V10ZM6 16H12V14H6V16Z" fill="#2E4DA0"/>
</g>
<defs>
<clipPath id="clip0_246_1775">
<rect width="30" height="30" fill="white"/>
</clipPath>
</defs>
</svg>
