<svg width="24" height="24" viewBox="0 0 24 24" fill="none" xmlns="http://www.w3.org/2000/svg">
<path d="M24 8.34208C24 6.94907 22.8667 5.81577 21.4737 5.81577C20.0807 5.81577 18.9474 6.94907 18.9474 8.34208C18.9474 8.71478 19.0291 9.06846 19.1746 9.38722C18.6455 9.7044 18.0364 9.87594 17.4136 9.87594C15.7083 9.87594 14.2792 8.62503 14.0257 6.97288C14.7172 6.39309 15.1579 5.52347 15.1579 4.55261C15.1579 2.81135 13.7413 1.39471 12 1.39471C10.2587 1.39471 8.8421 2.81135 8.8421 4.55261C8.8421 5.52347 9.28282 6.39309 9.97434 6.97282C9.72082 8.62503 8.29168 9.87587 6.58642 9.87587C5.96362 9.87587 5.35453 9.7044 4.82539 9.38716C4.97084 9.06846 5.05263 8.71478 5.05263 8.34208C5.05263 6.94907 3.91933 5.81577 2.52632 5.81577C1.13331 5.81577 0 6.94907 0 8.34208C0 9.53318 0.828821 10.5337 1.93977 10.7989L3.73743 17.0905C3.75834 17.1637 3.78783 17.2328 3.82371 17.2976C3.80211 17.3792 3.78947 17.4644 3.78947 17.5527V21.6052C3.78947 22.1567 4.23815 22.6053 4.78952 22.6053H19.2105C19.7619 22.6053 20.2105 22.1567 20.2105 21.6052V17.5527C20.2105 17.4644 20.1979 17.3792 20.1763 17.2976C20.2122 17.2328 20.2417 17.1637 20.2626 17.0905L22.0602 10.7989C23.1712 10.5337 24 9.53318 24 8.34208ZM12 2.65787C13.0448 2.65787 13.8947 3.50785 13.8947 4.55261C13.8947 5.22865 13.5386 5.82271 13.0044 6.15815C12.9733 6.17766 12.9419 6.19648 12.9099 6.2141C12.9068 6.21581 12.9038 6.21758 12.9008 6.21922C12.8665 6.23779 12.8317 6.2549 12.7964 6.27126C12.7868 6.27575 12.7772 6.28004 12.7675 6.28434C12.7346 6.29893 12.7014 6.31282 12.6678 6.32545C12.664 6.3269 12.6603 6.32855 12.6564 6.33C12.6186 6.34402 12.5802 6.35659 12.5415 6.36808C12.5332 6.37055 12.5248 6.37282 12.5164 6.37522C12.483 6.38469 12.4494 6.39328 12.4155 6.40086C12.4089 6.40238 12.4023 6.40408 12.3956 6.40547C12.3558 6.41394 12.3158 6.42114 12.2755 6.42707C12.2684 6.42808 12.2612 6.42884 12.2541 6.42979C12.2207 6.43427 12.1872 6.43781 12.1535 6.44059C12.143 6.44141 12.1324 6.44236 12.1218 6.44299C12.0813 6.44558 12.0408 6.44735 12.0001 6.44735C11.9593 6.44735 11.9188 6.44558 11.8784 6.44299C11.8677 6.44229 11.8572 6.44141 11.8466 6.44059C11.8129 6.43787 11.7794 6.43434 11.746 6.42979C11.7389 6.42884 11.7317 6.42808 11.7246 6.42707C11.6843 6.42114 11.6443 6.41394 11.6046 6.40547C11.5979 6.40402 11.5913 6.40238 11.5846 6.40086C11.5507 6.39322 11.5171 6.38469 11.4837 6.37522C11.4753 6.37288 11.4669 6.37055 11.4586 6.36808C11.42 6.35653 11.3816 6.34402 11.3437 6.33C11.3399 6.32855 11.3361 6.3269 11.3323 6.32545C11.2987 6.31276 11.2655 6.29893 11.2326 6.28434C11.223 6.28004 11.2133 6.27568 11.2037 6.27126C11.1685 6.2549 11.1337 6.23779 11.0994 6.21922C11.0963 6.21758 11.0933 6.21575 11.0903 6.2141C11.0583 6.19648 11.0268 6.17766 10.9957 6.15815C10.4614 5.82271 10.1053 5.22865 10.1053 4.55261C10.1053 3.50785 10.9552 2.65787 12 2.65787ZM2.52632 7.07893C3.22282 7.07893 3.78947 7.64558 3.78947 8.34208C3.78947 8.68951 3.64844 9.00455 3.42069 9.23311C3.41968 9.23413 3.41874 9.23507 3.41779 9.23608C3.38981 9.26394 3.36063 9.29053 3.33019 9.31573C3.32956 9.31629 3.32886 9.3168 3.32817 9.31737C3.23678 9.39265 3.13453 9.45511 3.02438 9.50255C3.02053 9.50419 3.01667 9.50596 3.01282 9.5076C2.97941 9.52162 2.94518 9.53406 2.91032 9.54518C2.90432 9.54707 2.89832 9.54897 2.89232 9.5508C2.85808 9.56116 2.82328 9.57025 2.78785 9.5777C2.78179 9.57897 2.7756 9.5801 2.76954 9.5813C2.73322 9.58844 2.69653 9.59425 2.6592 9.59817C2.65509 9.59861 2.65093 9.5988 2.64682 9.59918C2.60716 9.60297 2.56699 9.6053 2.52638 9.6053C1.82987 9.6053 1.26322 9.03865 1.26322 8.34215C1.26322 7.64564 1.82981 7.07893 2.52632 7.07893ZM18.9474 21.3421H5.05263V17.8158H18.9474V21.3421ZM19.1025 16.5526H4.89745L3.24373 10.7648C3.25105 10.7626 3.25825 10.76 3.26558 10.7578C3.276 10.7546 3.28636 10.7512 3.29678 10.7478C3.32552 10.7386 3.35406 10.729 3.38242 10.7188C3.39057 10.7158 3.39865 10.7128 3.40674 10.7098C3.43844 10.698 3.46996 10.6856 3.50116 10.6725C3.50539 10.6707 3.50968 10.6689 3.51392 10.6671C3.69423 10.5905 3.86564 10.4934 4.02423 10.3765C4.78251 10.8712 5.67398 11.139 6.58642 11.139C8.77143 11.139 10.6253 9.63808 11.1375 7.5905C11.1518 7.59461 11.1664 7.59808 11.1808 7.602C11.1972 7.60642 11.2136 7.6109 11.2302 7.61507C11.2674 7.62442 11.3048 7.63314 11.3424 7.64103C11.3688 7.64665 11.3955 7.65152 11.422 7.65644C11.4387 7.65947 11.4553 7.66257 11.472 7.66541C11.5019 7.67046 11.5318 7.67514 11.5619 7.67937C11.5648 7.67975 11.5677 7.68006 11.5706 7.68044C11.7111 7.69964 11.8543 7.71044 12 7.71044C12.1457 7.71044 12.2889 7.69964 12.4294 7.68044C12.4323 7.68006 12.4352 7.67975 12.4381 7.67937C12.4682 7.67514 12.4981 7.67046 12.528 7.66541C12.5447 7.66263 12.5613 7.65954 12.578 7.65644C12.6046 7.65152 12.6313 7.64665 12.6576 7.64103C12.6952 7.63307 12.7326 7.62436 12.7698 7.61507C12.7864 7.6109 12.8027 7.60642 12.8192 7.602C12.8336 7.59815 12.8481 7.59461 12.8625 7.5905C13.3746 9.63808 15.2286 11.139 17.4136 11.139C18.326 11.139 19.2176 10.8712 19.9758 10.3765C20.1344 10.4934 20.3058 10.5905 20.4861 10.6671C20.4903 10.6689 20.4946 10.6707 20.4988 10.6725C20.53 10.6856 20.5615 10.698 20.5933 10.7098C20.6013 10.7128 20.6094 10.7158 20.6176 10.7188C20.6459 10.729 20.6745 10.7386 20.7032 10.7478C20.7136 10.7512 20.7239 10.7546 20.7344 10.7578C20.7417 10.76 20.7489 10.7626 20.7563 10.7648L19.1025 16.5526ZM21.4737 9.60524C21.433 9.60524 21.3929 9.6029 21.3532 9.59911C21.3491 9.59873 21.345 9.59855 21.3409 9.5981C21.3035 9.59419 21.2668 9.58832 21.2305 9.58124C21.2244 9.58004 21.2183 9.57897 21.2122 9.57764C21.1768 9.57019 21.142 9.56109 21.1077 9.55074C21.1017 9.5489 21.0957 9.54707 21.0897 9.54512C21.0549 9.534 21.0207 9.52156 20.9872 9.50754C20.9833 9.50589 20.9795 9.50419 20.9757 9.50248C20.8655 9.45499 20.7633 9.39259 20.6719 9.3173C20.6713 9.31674 20.6706 9.31623 20.6699 9.31566C20.6395 9.29046 20.6103 9.26387 20.5823 9.23602C20.5814 9.23501 20.5804 9.23406 20.5794 9.23305C20.3517 9.00448 20.2107 8.68945 20.2107 8.34202C20.2107 7.64551 20.7773 7.07886 21.4738 7.07886C22.1703 7.07886 22.737 7.64551 22.737 8.34202C22.737 9.03853 22.1702 9.60524 21.4737 9.60524Z" fill="white"/>
</svg>
