<svg width="58" height="58" viewBox="0 0 58 58" fill="none" xmlns="http://www.w3.org/2000/svg">
<g clip-path="url(#clip0_1_535)">
<path fill-rule="evenodd" clip-rule="evenodd" d="M1.87097 51.9882H20.4559C20.9704 51.9882 20.7989 52.6006 21.4849 53.1518C21.8591 53.4426 22.514 53.8254 23.1376 53.8254H34.8312C35.7199 53.8254 36.5618 53.2589 36.9516 52.5853C37.1231 52.2944 37.1543 51.9882 37.5129 51.9882H56.129V55.6626H1.87097V51.9882ZM41.1613 47.5023C41.1613 46.997 41.629 46.4765 42.0968 46.4765C42.5645 46.4765 43.0323 46.997 43.0323 47.5023V50.1356H41.1613V47.5023ZM11.2258 44.6393H13.0968V50.1509H11.2258V44.6393ZM22.2177 46.8133C26.0532 48.8036 31.9468 48.8036 35.7823 46.8133L35.5484 49.7988C35.5484 50.9471 35.6575 51.9882 34.5038 51.9882H23.5118C22.3425 51.9882 22.4672 50.9471 22.4672 49.7988L22.2177 46.8133ZM15.7785 46.4765H14.9677V44.6393H15.7785C16.293 44.6393 16.8231 45.0986 16.8231 45.5579C16.8231 46.0172 16.3086 46.4765 15.7785 46.4765ZM7.48387 45.5579C7.48387 45.0986 8.01398 44.6393 8.52849 44.6393H9.35484V46.4765H8.54409C8.01398 46.4765 7.48387 46.0019 7.48387 45.5579ZM11.2258 41.9906C11.2258 41.4854 11.6935 40.9648 12.1613 40.9648C12.629 40.9648 13.0968 41.4854 13.0968 41.9906V42.7867H11.2258V41.9906ZM21.6253 42.2202C22.6387 42.8939 23.3091 43.3532 24.5409 43.8278C27.3629 44.9302 30.6059 44.9302 33.428 43.8278C34.6597 43.3532 35.3301 42.8939 36.3435 42.2202C36.3435 42.5418 36.1097 44.3637 35.8602 44.624C35.6419 44.8383 34.2387 45.4048 33.8801 45.5426C33.1317 45.8028 32.5081 46.0172 31.6038 46.1856C31.1828 46.2621 30.793 46.3387 30.3876 46.3693C29.7796 46.3999 29.4833 46.4918 28.9844 46.4918C27.5344 46.4918 25.4452 46.0325 24.0887 45.5579C23.7145 45.4201 22.3269 44.8536 22.1086 44.6393C21.8591 44.3637 21.6409 42.3887 21.6253 42.2202ZM29 42.802C27.5656 42.802 25.7882 42.3274 24.7903 41.8834C21.064 40.2452 18.7097 36.5708 18.7097 32.3605C18.7097 29.9108 18.1172 26.2823 21.75 26.2823H36.25C39.8204 26.2823 39.2903 29.8343 39.2903 32.1308C39.2903 36.7086 36.9672 40.1227 33.3656 41.8222C32.321 42.2968 30.4812 42.802 29 42.802ZM39.3995 25.3484C39.6021 25.0422 39.7581 24.9656 40.0075 24.69C40.6 24.047 41.1457 23.0212 41.1457 22.026V11.5692H44.8876V25.1187C44.8876 26.8794 43.6403 28.1042 41.8473 28.1042H41.0366C41.021 27.4765 40.7091 26.9253 40.4285 26.5119C40.1167 26.0373 39.7113 25.7924 39.3995 25.3484ZM16.9478 28.1042H16.1371C14.3441 28.1042 13.0968 26.8794 13.0968 25.1187V15.2436H16.8387V22.0107C16.8387 22.7916 17.1194 23.4499 17.4468 23.9398C18.1016 24.935 18.3043 24.9044 18.6005 25.3331C18.2263 25.8842 16.979 26.7263 16.9478 28.1042ZM18.7097 21.4443V11.1098C18.7097 5.98092 22.3737 2.38302 27.5968 2.38302H30.4032C35.6263 2.38302 39.2903 5.98092 39.2903 11.1098V21.4443C39.2903 23.2049 38.043 24.4298 36.25 24.4298H21.75C19.957 24.4298 18.7097 23.2049 18.7097 21.4443ZM9.35484 11.5692H16.8387V13.4064H11.5688C10.8984 13.4064 10.4151 13.238 10.0409 12.9471C9.4328 12.4572 9.49516 11.8907 9.35484 11.5692ZM40.1011 6.05747C43.1882 6.05747 44.8876 6.14933 44.8876 9.73193H41.1457C41.0677 8.81331 40.7715 7.80284 40.4597 6.96078L40.1011 6.05747ZM16.8387 9.73193H13.0968C13.0968 6.19526 14.6559 6.05747 17.8833 6.05747C17.7586 6.57802 16.8699 8.13966 16.8387 9.73193ZM11.2258 8.47649V9.73193H9.12097C7.51505 9.73193 6.67312 12.2734 8.49731 14.126C9.21452 14.8455 10.072 15.2436 11.2258 15.2436V25.6852C11.2258 27.798 13.393 29.9261 15.5446 29.9261H16.8231C16.8231 33.6312 16.5581 35.8053 18.7253 39.0816C19.7699 40.6586 20.4559 47.9003 20.4559 50.1356H14.9677V48.2984H16.1371C17.5715 48.2984 18.7097 47.0889 18.7097 45.3129C18.7097 44.0575 17.4312 42.7867 16.1371 42.7867H14.9677V41.6385C14.9677 40.2299 13.736 39.1123 11.9274 39.1123C10.6489 39.1123 9.35484 40.3677 9.35484 41.6385V42.7867H8.18548C6.75108 42.7867 5.6129 43.9962 5.6129 45.7722C5.6129 47.0277 6.8914 48.2984 8.18548 48.2984H9.35484V50.1356H0V57.4846H58V50.1356H44.9032V47.1501C44.9032 45.7416 43.6715 44.624 41.8629 44.624C40.5844 44.624 39.2903 45.8794 39.2903 47.1501V50.1356H37.5441C37.5441 47.9616 38.2457 40.7198 39.228 39.1582C39.6021 38.5611 39.8516 38.2243 40.1479 37.5353C41.4108 34.6417 41.1613 32.9882 41.1613 29.9261H42.4398C44.5914 29.9261 46.7586 27.798 46.7586 25.6852V8.47649C46.7586 6.88422 45.5892 5.52161 44.5602 4.89389C42.9855 3.92935 41.707 4.28149 39.3839 4.23555C38.1366 4.20493 38.4328 3.14853 35.9694 1.84716C32.664 0.117102 30.6059 0.545788 26.5366 0.545788C24.7903 0.545788 23.2 1.21944 22.0151 1.84716C21.4849 2.12274 20.721 2.6586 20.3156 3.04136C19.3645 3.94466 19.4425 4.22024 18.6005 4.23555C16.2774 4.28149 14.9989 3.92935 13.4242 4.89389C12.3952 5.52161 11.2258 6.88422 11.2258 8.47649Z" fill="black"/>
<path fill-rule="evenodd" clip-rule="evenodd" d="M20.5807 29.7119C20.5807 32.9577 20.2844 35.8054 22.9973 38.4694C26.1936 41.608 30.8866 41.853 34.4102 39.0512C34.6441 38.8675 34.7844 38.7909 34.9871 38.5919C35.1898 38.3622 35.1898 38.3163 35.3925 38.0713C37.778 35.4074 37.4038 32.9577 37.4038 29.7119C37.4038 28.9924 36.4995 28.1044 35.7667 28.1044H22.2022C21.485 28.1044 20.5807 28.9924 20.5807 29.7119Z" fill="#2E4DA0"/>
<path fill-rule="evenodd" clip-rule="evenodd" d="M30.871 6.05763C31.4634 6.07294 32.3054 6.28728 32.7731 6.48631C33.1473 6.65473 33.9737 7.20589 34.2231 7.46617C35.6419 8.99719 35.5484 10.467 35.5484 12.4879H37.4194V10.2986C37.4194 7.17527 34.5661 4.2204 30.871 4.2204V6.05763Z" fill="black"/>
<path fill-rule="evenodd" clip-rule="evenodd" d="M35.5484 16.1624H37.4194V14.3251H35.5484V16.1624Z" fill="black"/>
<path fill-rule="evenodd" clip-rule="evenodd" d="M35.5484 19.8368H37.4194V17.9996H35.5484V19.8368Z" fill="black"/>
</g>
<defs>
<clipPath id="clip0_1_535">
<rect width="58" height="57" fill="white" transform="translate(0 0.5)"/>
</clipPath>
</defs>
</svg>
