<svg width="58" height="59" viewBox="0 0 58 59" fill="none" xmlns="http://www.w3.org/2000/svg">
<g clip-path="url(#clip0_1_477)">
<path fill-rule="evenodd" clip-rule="evenodd" d="M39.3137 47.2859H43.0556V56.5706H39.3137V47.2859ZM35.0923 0.5H35.9343C36.5423 0.535081 37.1621 0.66371 37.8052 0.885887C39.4423 1.44718 39.7931 2.21895 40.448 2.66331C40.8572 2.55806 40.9742 2.30081 41.3016 2.04355C42.506 1.11976 43.921 0.605242 45.3593 0.5H46.4468C47.3472 0.570161 48.2242 0.792339 49.0661 1.17823C50.2238 1.71613 51.475 2.79194 52.1532 3.86774C52.9133 5.08387 53.3693 6.35847 53.3693 8.31129C55.1702 8.46331 57.6375 10.8605 58.0117 13.819V15.3274C57.8714 16.3915 57.4387 17.4907 56.5734 18.5431C55.521 19.8294 54.1879 20.6831 52.4456 20.9871C50.1419 21.3847 50.5278 20.0984 50.5278 26.6585H52.4572V36.0601H54.2581V41.6145H58V58.5H24.2407V42.9827C24.229 41.2754 23.5625 41.6262 27.9827 41.6262V36.0718H29.9121V26.6702H35.5718V22.9282H37.5012V26.6702H39.3137V36.0718C40.2141 36.0718 41.7927 36.1653 42.6113 36.0835C43.2661 36.0133 43.0556 35.5806 43.0556 34.8323V26.6702H44.8681C44.8681 25.2552 44.9734 23.3726 44.8681 22.0278C44.7629 20.7649 43.3129 21.1274 41.1262 21.1274V19.198C42.05 19.198 43.5468 19.1044 44.4004 19.2097C45.1488 19.3032 46.0375 19.9347 46.3766 20.5194C46.9262 21.4665 46.7859 22.0044 46.7859 23.396C46.7859 24.4952 46.7859 25.5827 46.7859 26.6819H48.5984C48.5984 25.4306 48.5984 24.1911 48.5984 22.9399C48.5984 21.5484 48.6101 20.7532 49.3 20.0165C50.0835 19.1863 50.7383 19.3032 52.0012 19.0927C53.1121 18.9056 53.7786 18.5198 54.4919 17.9585C56.0822 16.7073 56.398 14.2984 55.6613 12.5911C54.7024 10.3694 52.9016 10.194 51.206 9.79637C51.2177 9.04798 51.5218 8.41653 51.4165 7.55121C51.0423 4.10161 47.85 1.78629 44.5407 2.58145C42.6347 3.0375 42.2488 3.91452 41.5706 4.37056C41.7927 5.32944 42.1318 5.62177 42.1318 7.09516H40.2024C39.9919 4.62782 38.5887 2.93226 36.2851 2.51129C33.8996 2.07863 31.5492 3.83266 31.1399 5.62177C32.1689 5.70363 33.7359 7.10685 34.2621 7.82016C34.952 8.73226 35.5484 10.1706 35.5484 11.7375H33.6189C33.6189 9.79637 32.356 8.12419 30.7423 7.48105C28.1347 6.42863 25.5153 7.82016 24.6383 10.1238C24.3927 10.7552 24.3693 11.4218 24.2173 12.0883C22.9193 11.9831 21.3173 11.106 19.4931 13.246C18.4992 14.4036 18.4173 16.6605 19.8206 18.0637C21.1419 19.3851 22.7089 19.2214 25.2347 19.2214C27.4214 19.2214 29.6197 19.2214 31.8064 19.2214V21.1508L22.1943 21.1391C19.6802 20.8819 17.5169 19.2214 16.9673 16.8476C16.3943 16.9996 15.7629 17.5024 15.3302 17.9351C14.9794 18.2859 14.4064 19.0927 14.3597 19.6774C16.6048 20.2036 18.6629 22.9048 18.6629 25.7931H16.7335C16.7335 22.9633 14.3363 20.9637 11.8689 21.1508C9.30806 21.3379 7.43709 23.3726 7.43709 26.1323C6.91088 26.0855 6.19757 25.8282 5.61289 25.8165C1.50846 25.6996 -0.175412 32.3649 5.55443 33.2302C6.48991 33.3706 21.025 33.277 22.3931 33.277V35.2065C19.0722 35.2065 15.7512 35.2065 12.4185 35.2065C9.98628 35.2065 5.13346 35.5456 3.20402 34.5633C1.96451 33.9435 1.30967 33.3121 0.608055 32.1661C0.233862 31.5464 0.0116843 30.8214 -0.0467834 30.0613V29.1375C0.1637 26.5298 2.13991 23.8637 5.84677 23.8637C6.44314 21.2911 9.21451 19.2214 12.4185 19.2214C12.5004 18.2391 13.7165 16.6722 14.3597 16.181C17.2129 13.9242 16.4645 15.877 17.0024 13.9476C17.1778 13.3161 17.4818 12.7548 17.821 12.2637C18.8734 10.7202 20.6157 9.81976 22.7439 9.81976C23.3637 7.17702 26.1585 5.17742 29.1988 5.17742C29.4794 4.63952 29.5964 4.23024 29.9355 3.65726C30.1693 3.25968 30.1226 3.31815 30.4032 3.00242C30.6371 2.73347 30.6722 2.60484 30.9177 2.38266C32.1806 1.23669 33.5839 0.593548 35.0923 0.5ZM35.5601 56.5706C35.4198 56.7694 35.3613 56.6992 35.0105 56.6992C34.7532 56.6992 34.4726 56.6875 34.2153 56.6875H30.5903C29.7367 56.6875 30.0524 56.6641 29.9355 56.5589L26.2988 56.5706V43.544H56.0939V56.5706L52.4222 56.5355C52.2701 56.8746 48.306 56.6875 47.4758 56.6875L46.9379 56.6524C46.9145 56.6407 46.8794 56.6173 46.856 56.6173C46.8327 56.6056 46.8093 56.594 46.7859 56.5706H44.9968V45.3565H37.4076V56.5706H35.5601ZM30.0173 38.0012H52.3286V41.6262H30.0173V38.0012ZM44.9734 28.5645L50.5161 28.5762V32.3298C50.5395 33.0899 50.5278 33.8383 50.5278 34.5984C50.5395 36.4694 51.5101 36.0718 44.9734 36.0718L44.9851 32.3181C44.7863 32.096 44.8447 31.827 44.8564 31.4177L44.9734 28.5645ZM31.8181 32.3298V28.5645H37.396C37.4427 28.6464 37.4661 28.6347 37.5012 28.8218L37.5129 29.5C37.5012 30.1899 37.6532 32.1311 37.3843 32.3181L37.396 36.0718H31.8415L31.8181 32.3298Z" fill="black"/>
<path fill-rule="evenodd" clip-rule="evenodd" d="M31.6427 47.2742H30.0758H29.9004V49.1218L31.7947 49.1335C31.8649 49.5076 31.8415 49.7415 31.8532 50.1157C31.8532 50.946 31.9234 50.8758 31.7246 51.0278L29.9121 51.0044V52.8637C30.2629 52.852 30.5903 52.852 30.9294 52.852C30.9996 52.852 31.4673 52.8403 31.5024 52.852C31.9935 52.9455 31.7012 52.7585 31.8181 53.0625V54.7814L29.9238 54.7697L29.9355 56.5939H35.5718L35.5835 54.7697L33.6891 54.758V53.0976C33.8411 52.8286 33.4318 52.9455 34.0984 52.852C34.1101 52.852 34.5076 52.8637 34.5544 52.8637C34.8935 52.8637 35.2327 52.8637 35.5718 52.8754V51.0278L33.6774 51.0161V49.3556C33.8294 49.075 33.4085 49.1919 34.0867 49.1101C34.0984 49.1101 34.496 49.1218 34.5427 49.1218C34.8818 49.1218 35.221 49.1218 35.5601 49.1335V47.3093L33.6423 47.2859L33.6657 45.3798H31.7947C31.8298 45.7423 31.8181 46.0464 31.8181 46.3972C31.8181 46.479 31.8298 46.9234 31.8181 46.9701C31.7597 47.4145 31.9351 47.1455 31.6427 47.2742Z" fill="#2E4DA0"/>
<path fill-rule="evenodd" clip-rule="evenodd" d="M48.575 47.2742H46.7859V49.075C47.3823 49.075 48.0956 48.9814 48.6569 49.1568C48.7153 49.5077 48.6919 49.7649 48.6919 50.1157C48.6919 50.4665 48.7855 50.8641 48.5633 51.0044L46.7859 51.0161V52.8169L48.6569 52.8988C48.7153 53.2496 48.6919 53.5068 48.7036 53.8577C48.7036 54.1968 48.7855 54.606 48.575 54.7464L46.7859 54.7581L46.7625 56.5706L52.3988 56.5355L52.4456 54.7698H52.3286H50.5044V52.9689C50.7851 52.7818 51.0073 52.852 51.4165 52.852C51.7674 52.852 52.0831 52.852 52.4339 52.8754V51.0278H52.3053H50.5044V49.227C50.6214 49.1568 50.5161 49.1685 50.7383 49.1218L51.4049 49.1101C51.7674 49.1101 52.0714 49.1101 52.4222 49.1335V47.2742H52.2468H50.4928L50.4811 45.45L50.4694 45.3564H48.6569C48.6686 45.7073 48.6686 46.0347 48.6686 46.3738C48.6686 46.5024 48.6803 46.8415 48.6686 46.9468C48.6452 47.4613 48.7738 47.1456 48.575 47.2742Z" fill="#2E4DA0"/>
<path fill-rule="evenodd" clip-rule="evenodd" d="M31.8182 32.3298L37.3726 32.3181L37.3843 28.5645H31.8065L31.8182 32.3298Z" fill="#2E4DA0"/>
<path fill-rule="evenodd" clip-rule="evenodd" d="M44.9851 32.3181L50.5161 32.3298V28.5762L44.9734 28.5645L44.9851 32.3181Z" fill="#2E4DA0"/>
<path fill-rule="evenodd" clip-rule="evenodd" d="M24.2407 34.8205C24.2407 35.3234 24.7669 35.1597 25.9363 35.1597C26.4625 35.1597 26.2754 34.5282 26.2754 33.2302H24.2407V34.8205Z" fill="black"/>
<path fill-rule="evenodd" clip-rule="evenodd" d="M33.6423 21.1157H35.5718V19.1863H33.6423V21.1157Z" fill="black"/>
<path fill-rule="evenodd" clip-rule="evenodd" d="M37.3843 21.1157H39.3137V19.1863H37.3843V21.1157Z" fill="black"/>
<path fill-rule="evenodd" clip-rule="evenodd" d="M29.9121 54.7347L31.8064 54.758V53.0391C31.2451 52.8637 30.4851 52.8988 29.9004 53.0157V54.7347H29.9121Z" fill="black"/>
<path fill-rule="evenodd" clip-rule="evenodd" d="M46.7859 47.2742H48.575L48.5399 45.3564H46.7859V47.2742Z" fill="black"/>
<path fill-rule="evenodd" clip-rule="evenodd" d="M35.5718 54.7464V53.004C34.9988 52.9105 34.2153 52.852 33.6774 53.0625V54.723L35.5718 54.7464Z" fill="black"/>
<path fill-rule="evenodd" clip-rule="evenodd" d="M35.5718 51.0044V49.2738C34.9988 49.1685 34.2036 49.1101 33.6774 49.3323V50.9927L35.5718 51.0044Z" fill="black"/>
<path fill-rule="evenodd" clip-rule="evenodd" d="M52.3403 54.7698L52.352 52.9573H50.5161V54.7581L52.3403 54.7698Z" fill="black"/>
<path fill-rule="evenodd" clip-rule="evenodd" d="M52.3169 51.0161L52.3403 49.2153H50.5161V51.0161H52.3169Z" fill="black"/>
<path fill-rule="evenodd" clip-rule="evenodd" d="M46.7859 54.7581L48.575 54.7464L48.5867 52.9339H46.7859V54.7581Z" fill="black"/>
<path fill-rule="evenodd" clip-rule="evenodd" d="M52.2819 47.2742L52.3286 45.45H50.5161V47.2742H52.2819Z" fill="black"/>
<path fill-rule="evenodd" clip-rule="evenodd" d="M46.7859 51.0161L48.5633 51.0045L48.575 49.192H46.7859V51.0161Z" fill="black"/>
<path fill-rule="evenodd" clip-rule="evenodd" d="M29.9121 50.9928L31.7246 51.0162L31.7597 49.227C31.1516 49.227 30.4968 49.1569 29.9121 49.3089V50.9928Z" fill="black"/>
<path fill-rule="evenodd" clip-rule="evenodd" d="M30.0758 47.2742H31.6427L31.7363 45.4968H29.994L30.0758 47.2742Z" fill="black"/>
<path fill-rule="evenodd" clip-rule="evenodd" d="M33.8061 47.2391H35.4782V45.5085H33.8061V47.2391Z" fill="black"/>
<path fill-rule="evenodd" clip-rule="evenodd" d="M52.4105 56.5355L46.7742 56.5705C46.7976 56.5822 46.8327 56.6056 46.8444 56.6173C46.8677 56.629 46.9028 56.6524 46.9262 56.6524L47.4641 56.6875C48.2944 56.6875 52.2585 56.8746 52.4105 56.5355Z" fill="black"/>
<path fill-rule="evenodd" clip-rule="evenodd" d="M33.806 45.5085H35.4899V47.2274H33.806V45.5085ZM35.5718 47.2859V45.3682H33.6774L33.654 47.2742L35.5718 47.2859Z" fill="black"/>
<path fill-rule="evenodd" clip-rule="evenodd" d="M29.9121 47.2859H30.0875L30.0057 45.4968H31.748L31.6661 47.2859C31.9468 47.1456 31.7831 47.4262 31.8649 46.9585C31.8766 46.9117 31.8649 46.4674 31.8649 46.3855C31.8649 46.0347 31.8649 45.719 31.8415 45.3682H29.9355V47.2859H29.9121Z" fill="black"/>
<path fill-rule="evenodd" clip-rule="evenodd" d="M35.5601 56.5706H29.9238C30.0407 56.6758 29.725 56.6992 30.5786 56.6992H34.2036C34.4609 56.6992 34.7532 56.7109 34.9988 56.7109C35.3613 56.6875 35.4198 56.7693 35.5601 56.5706Z" fill="black"/>
<path fill-rule="evenodd" clip-rule="evenodd" d="M37.3726 32.3181C37.6298 32.131 37.4895 30.2016 37.5012 29.5L37.4895 28.8218C37.4544 28.623 37.4311 28.6464 37.3843 28.5645L37.3726 32.3181Z" fill="black"/>
<path fill-rule="evenodd" clip-rule="evenodd" d="M52.2818 47.2742H52.4456V45.3564H50.5044L50.5161 45.45H52.3286L52.2818 47.2742Z" fill="black"/>
<path fill-rule="evenodd" clip-rule="evenodd" d="M48.5633 51.0045C48.7855 50.8641 48.7036 50.4666 48.6919 50.1158C48.6919 49.7649 48.7036 49.496 48.6569 49.1569C48.0956 48.9815 47.3823 49.075 46.7859 49.075V49.192H48.575L48.5633 51.0045Z" fill="black"/>
<path fill-rule="evenodd" clip-rule="evenodd" d="M52.3169 51.0161H52.4456V49.1218C52.0831 49.0867 51.779 49.0984 51.4282 49.0984L50.7617 49.1101C50.5395 49.1568 50.6448 49.1451 50.5278 49.2153H52.352L52.3169 51.0161Z" fill="black"/>
<path fill-rule="evenodd" clip-rule="evenodd" d="M31.7246 51.0278C31.9351 50.8758 31.8649 50.946 31.8532 50.1157C31.8532 49.7415 31.8649 49.5077 31.7947 49.1335L29.9004 49.1218V49.3206C30.4851 49.1685 31.1399 49.2387 31.748 49.2387L31.7246 51.0278Z" fill="black"/>
<path fill-rule="evenodd" clip-rule="evenodd" d="M52.3403 54.7697H52.4573V52.8754C52.1065 52.852 51.7907 52.852 51.4399 52.852C51.0423 52.852 50.8202 52.7818 50.5278 52.9689H52.3637L52.3403 54.7697Z" fill="black"/>
<path fill-rule="evenodd" clip-rule="evenodd" d="M48.575 54.7464C48.7855 54.5944 48.7036 54.1968 48.7036 53.8577C48.7036 53.5069 48.7153 53.2496 48.6569 52.8988L46.7859 52.817V52.9339H48.5867L48.575 54.7464Z" fill="black"/>
<path fill-rule="evenodd" clip-rule="evenodd" d="M48.575 47.2742C48.7738 47.1456 48.6569 47.4496 48.7153 46.9468C48.727 46.8415 48.7153 46.5024 48.7153 46.3738C48.7153 46.023 48.7153 45.6956 48.7036 45.3564H48.5399L48.575 47.2742Z" fill="black"/>
<path fill-rule="evenodd" clip-rule="evenodd" d="M44.9851 32.3181L44.9734 28.5645L44.8565 31.4294C44.8565 31.8387 44.7863 32.096 44.9851 32.3181Z" fill="black"/>
<path fill-rule="evenodd" clip-rule="evenodd" d="M35.5718 53.004V52.852C35.2327 52.8403 34.8936 52.8403 34.5544 52.8403C34.5077 52.8403 34.0984 52.8286 34.0984 52.8286C33.4319 52.9105 33.8411 52.7935 33.6891 53.0742C34.2153 52.852 34.9988 52.9105 35.5718 53.004Z" fill="black"/>
<path fill-rule="evenodd" clip-rule="evenodd" d="M35.5718 49.2738V49.1101C35.2327 49.0984 34.8936 49.0984 34.5544 49.0984C34.5077 49.0984 34.0984 49.0867 34.0984 49.0867C33.4202 49.1685 33.8411 49.0516 33.6891 49.3322C34.2036 49.1101 34.9988 49.1568 35.5718 49.2738Z" fill="black"/>
<path fill-rule="evenodd" clip-rule="evenodd" d="M31.8064 53.0391C31.6895 52.7468 31.9935 52.9339 31.4907 52.8286C31.4556 52.8169 30.9879 52.8286 30.9177 52.8286C30.5786 52.8286 30.2395 52.8286 29.9004 52.8403V53.004C30.4851 52.8988 31.2451 52.8637 31.8064 53.0391Z" fill="black"/>
</g>
<defs>
<clipPath id="clip0_1_477">
<rect width="58" height="58" fill="white" transform="translate(0 0.5)"/>
</clipPath>
</defs>
</svg>
