<svg width="42" height="43" viewBox="0 0 42 43" fill="none" xmlns="http://www.w3.org/2000/svg">
<g clip-path="url(#clip0_1_541)">
<path fill-rule="evenodd" clip-rule="evenodd" d="M30.5601 17.5625C31.8472 17.1137 32.8379 17.9859 33.1089 18.9088C33.4561 20.0943 32.6855 21.102 31.8049 21.3984C29.4 22.2197 27.8589 18.4939 30.5601 17.5625ZM42 40.2899V40.6709C41.9238 41.5855 41.2633 42.4492 39.9169 42.4915H23.3794H19.7891C19.2895 42.4576 18.8746 42.3899 18.6714 42.2713C17.4859 41.6024 17.198 40.0443 18.1887 39.0197C18.8746 38.3 19.5097 38.3846 20.8391 38.3846C23.0238 38.3846 25.2169 38.3846 27.4016 38.3846C28.2145 38.3846 30.069 38.6387 30.3738 38.0713C31.2036 36.5217 27.5625 37.2415 26.6141 37.0383C25.3694 36.7673 24.6157 35.2008 25.327 34.0068C25.8774 33.0669 26.6988 32.9653 27.6557 32.9738C29.5524 32.9822 29.798 33.2024 29.7895 31.8306C29.7726 29.6544 29.7641 27.4443 29.7895 25.2681C29.7895 24.9294 29.8319 24.7685 29.6964 24.5399C29.4169 24.0742 28.4855 24.0234 28.4686 25.0988C28.4516 26.1826 28.477 27.3004 28.477 28.3842C28.477 29.5189 28.6294 31.348 26.8174 31.6443C26.1569 31.7544 25.8097 31.5935 25.4117 31.4157C25.2254 31.2209 25.0984 31.2125 24.8698 30.9246C24.7258 30.7467 24.6157 30.4588 24.4549 30.2895C24.421 29.8238 24.3363 29.5613 24.3871 28.9601V27.5629V22.9649L24.3702 21.4068L24.3617 19.8488C23.7944 19.5524 22.1432 18.35 21.8129 17.8758C21.6774 17.6217 21.5165 17.4439 21.3387 17.2068C20.0432 15.454 19.4165 13.9637 18.6121 11.8891C18.5359 10.9153 17.596 8.41731 19.1625 6.85925C20.8391 5.1911 23.2016 6.14795 24.1077 6.14795L24.1924 6.23263C25.1323 6.41892 26.6819 7.20642 27.5202 7.66368C28.6379 8.27336 29.4762 8.96771 30.4246 9.6282C30.6871 9.74675 30.8565 10.0177 31.102 10.2294C32.0081 10.983 32.2367 11.2794 32.948 12.0754C34.1165 13.3879 34.0996 13.5318 34.9887 14.7088C35.1157 14.8782 35.0226 14.7512 35.0988 14.8443L35.1835 14.929C35.302 15.3778 36.0387 16.6056 36.3182 17.2407C36.5044 17.6641 36.6484 18.0621 36.7839 18.4939C36.894 18.8411 37.0294 19.5439 37.148 19.8064C37.4867 21.6947 37.3089 24.1927 37.3089 26.3351V36.183C37.3089 38.0967 37.0294 38.41 38.3758 38.4016C39.5867 38.3846 40.5012 38.3 41.221 38.8419C41.6867 39.1891 41.9492 39.731 42 40.2899ZM24.6157 10.729C25.8351 10.4326 26.7835 11.2625 27.029 12.1855C27.3508 13.4217 26.4956 14.4294 25.5641 14.658C22.9561 15.3016 21.9569 11.3641 24.6157 10.729Z" fill="#2E4DA0"/>
<path fill-rule="evenodd" clip-rule="evenodd" d="M15.5976 28.6468L14.4968 27.5883C14.9286 27.148 16.5968 25.3528 16.9948 25.1919C17.2911 25.556 17.7738 25.8355 17.9601 26.2589L15.5976 28.6468ZM19.2726 0.5H19.2895C23.3032 0.5 27.1561 2.90484 29.7303 5.07258C31.246 6.34274 31.9742 7.15564 33.1682 8.60363C33.6508 9.1879 34.0488 9.77218 34.4807 10.4073C35.2343 11.525 36.0895 13.1593 36.5637 14.5565C36.9363 15.6403 37.6053 18.494 37.1649 19.8065C37.0464 19.5524 36.9109 18.8411 36.8008 18.494C36.6569 18.0621 36.5214 17.6641 36.3351 17.2407C36.0557 16.6056 35.3105 15.3778 35.2004 14.929L35.1157 14.8444C35.048 13.9976 33.6508 11.7028 33.1004 10.873C32.8294 10.4581 32.5839 10.1109 32.279 9.72137C31.9573 9.29798 31.6694 9.00161 31.3561 8.59516L28.3331 5.70766C19.6452 -1.29516 11.4653 1.75323 15.0895 10.9153C15.1911 11.1694 15.2674 11.3387 15.3944 11.6012C15.5214 11.8637 15.5553 12.0331 15.6907 12.2871C17.3843 15.4202 18.8153 17.0206 21.4657 19.3915C21.6774 19.5778 21.7875 19.654 22.0161 19.8234C22.4141 20.1282 22.7359 20.3823 23.1424 20.6617C23.5319 20.9327 23.9468 21.2036 24.3702 21.4153L24.3871 22.9734C23.4303 22.7786 20.1871 20.2383 19.2557 19.3069L17.579 17.5371C15.369 14.9121 13.4468 11.7875 12.9472 8.30726C12.8964 7.96855 12.7948 7.09637 12.7948 6.73226C12.6847 6.80847 12.4476 7.10484 12.329 7.24879C12.1682 7.43508 12.075 7.55363 11.9226 7.73992C11.7617 7.93468 11.6262 8.09556 11.4738 8.27339C10.6948 9.23024 10.8303 8.80686 10.8303 10.4157C10.8303 12.0161 10.7879 14.3786 11.0843 15.8266C11.1944 16.3685 11.2875 16.8173 11.4399 17.3593L11.8972 18.7056C12.1597 18.5278 11.9565 18.5702 12.2867 18.5617L19.9331 26.1742C19.8484 26.479 19.8484 26.2843 19.7722 26.5806C20.4919 26.75 21.1524 27.0548 21.923 27.2157L24.3871 27.5629V28.9601C22.5496 28.9601 19.8315 28.198 18.629 27.5629C18.3919 27.9185 17.8415 28.198 17.723 28.6298C17.9516 28.6806 18.2395 28.8331 18.4851 28.9347C20.4411 29.7815 22.2448 30.0863 24.4549 30.2895C24.6073 30.4673 24.7258 30.7468 24.8698 30.9246C25.1069 31.2125 25.2254 31.221 25.4117 31.4157C25.3186 31.6274 25.3186 31.5935 25.1153 31.746L18.8831 36.9452C18.2734 37.4786 17.977 37.8343 17.452 37.775C16.6645 37.6819 15.9956 37.7327 15.2165 37.6226C12.1766 37.1823 9.17905 35.9798 6.79114 34.0661C3.82743 31.6952 2.10001 29.1548 0.821385 25.5984C0.618159 25.031 0.457272 24.2944 0.338724 23.7016C0.12703 22.6431 0.00848211 21.771 -0.00845337 20.6956V20.2298C0.0169499 19.5863 0.237111 19.6286 0.855256 18.8411C1.05001 18.5956 1.17703 18.4431 1.37179 18.206L3.53953 15.6149C3.93751 15.1661 4.28469 14.7258 4.65727 14.2685C5.02138 13.8198 5.3855 13.4218 5.74961 12.9815C6.173 12.4565 6.68953 11.9992 6.7234 11.5758C6.89276 9.53508 6.15606 7.26573 8.16292 5.87702C8.64558 5.54677 9.14517 5.25887 9.91574 5.2504C11.4907 5.23347 11.1012 5.47903 11.8887 5.66532L12.6085 4.74234C13.6331 3.59073 13.3536 3.79395 13.9379 2.95565C15.2165 1.16048 17.0286 0.5 19.2726 0.5ZM13.5315 26.5976C13.2097 26.3435 11.9819 25.1411 11.821 24.8448L14.175 22.4823C14.4883 22.6008 15.7924 23.9472 15.9448 24.2012C15.8516 24.3706 13.9295 26.4282 13.5315 26.5976ZM10.8303 23.8879L9.78872 22.8718L12.202 20.4246L13.252 21.4746C12.998 21.898 12.4053 22.3891 12.0581 22.7363C11.7278 23.075 11.2198 23.7101 10.8303 23.8879ZM1.39719 20.5177C1.39719 20.2976 2.47259 19.0952 2.68429 18.8496C3.20082 18.2315 6.52864 14.1415 6.80808 13.9552C6.80808 18.3669 8.55243 20.8565 8.78106 21.8302L7.85808 22.7956C7.97663 23.1851 11.3045 26.369 11.6686 26.7331C12.2528 27.3173 15.2165 30.3657 15.5891 30.6113L16.6391 29.6121C19.7044 31.2633 22.9053 31.5427 22.9391 31.5597C23.2016 31.7036 22.8206 31.8306 22.5073 32.1101L21.254 33.1516C20.729 33.5581 17.5198 36.3524 17.3165 36.3524C12.0496 36.3524 7.38388 33.6512 4.31009 29.4258C3.70889 28.6044 3.34477 27.8339 2.87905 26.9194C2.11695 25.4121 1.39719 22.7786 1.39719 20.5177ZM8.12058 12.4734C8.12058 12.2024 9.17058 11.0508 9.43308 10.7544C9.43308 12.4903 9.39921 14.1839 9.64477 15.7165C10.0851 18.4855 10.644 18.9681 10.8303 19.781L9.86493 20.7887C9.78026 20.6278 9.74638 20.5008 9.67864 20.3569C8.51009 17.7742 8.12058 15.4879 8.12058 12.4734ZM8.12058 10.0177C8.12058 9.15403 8.06977 8.23952 8.40001 7.67218C9.15364 6.35968 10.1952 6.68145 10.9149 6.74073C10.5085 7.3504 10.0174 7.8246 9.55163 8.41734L8.55243 9.62823C8.23913 10.0008 8.3238 9.94153 8.12058 10.0177Z" fill="black"/>
<path fill-rule="evenodd" clip-rule="evenodd" d="M21.8129 17.8928C21.6774 17.6387 21.5165 17.4609 21.3387 17.2238C20.0431 15.471 19.4165 13.9807 18.6121 11.9061C18.5359 11.8214 18.6121 11.9315 18.5105 11.7621C17.5706 10.2633 16.2411 6.62219 17.4012 5.19961C18.6798 3.64155 23.371 5.52139 24.1077 6.16494L24.1923 6.24961C25.1322 6.4359 26.6818 7.2234 27.5202 7.68066C28.6379 8.29034 29.4762 8.98469 30.4246 9.64518C29.6625 8.248 26.1653 5.69074 24.6242 4.8355C22.321 3.53147 16.5121 1.50768 15.6314 5.79235C15.0048 8.81534 17.3673 12.9984 19.1794 15.2C19.4843 15.5726 21.3472 17.7657 21.8129 17.8928Z" fill="black"/>
<path fill-rule="evenodd" clip-rule="evenodd" d="M4.09838 26.5045C4.30161 26.4875 5.32621 26.0895 5.32621 25.9287L4.60645 23.8625C4.42863 23.1936 4.18306 22.2875 4.18306 21.5C4.18306 21.1274 4.60645 20.7718 4.97903 20.323C5.18226 20.0774 5.75806 19.4593 5.8258 19.1968C5.68185 18.9766 5.08064 18.5363 4.84355 18.3754C4.56411 18.5617 3.47177 19.925 3.16693 20.3061C3.03992 20.467 2.90443 20.5686 2.81976 20.6956C2.35403 21.4323 3.49717 25.2512 4.09838 26.5045Z" fill="black"/>
<path fill-rule="evenodd" clip-rule="evenodd" d="M24.7427 12.1092C25.5641 11.652 26.1738 12.973 25.3524 13.3032C24.4633 13.6673 24.0823 12.4734 24.7427 12.1092ZM24.6157 10.729C21.9484 11.3726 22.9476 15.3016 25.5641 14.658C26.4956 14.4294 27.3423 13.4217 27.029 12.1855C26.7919 11.254 25.8436 10.4326 24.6157 10.729Z" fill="black"/>
<path fill-rule="evenodd" clip-rule="evenodd" d="M31.7625 19.781C31.3645 20.5601 30.0859 19.9843 30.5855 19.1121C30.9581 18.477 32.1774 18.9597 31.7625 19.781ZM30.5601 17.5625C27.8589 18.5024 29.4 22.2197 31.8048 21.3984C32.6855 21.102 33.4561 20.0943 33.1089 18.9088C32.8379 17.9859 31.8472 17.1137 30.5601 17.5625Z" fill="black"/>
<path fill-rule="evenodd" clip-rule="evenodd" d="M13.5315 26.5976C13.9294 26.4282 15.8516 24.3706 15.9363 24.2097C15.7839 23.9472 14.4883 22.6093 14.1665 22.4907L11.8125 24.8532C11.9903 25.1496 13.2181 26.3435 13.5315 26.5976Z" fill="#2E4DA0"/>
<path fill-rule="evenodd" clip-rule="evenodd" d="M17.9686 26.2589C17.7738 25.8355 17.2911 25.5476 17.0032 25.192C16.6052 25.3528 14.9286 27.148 14.5052 27.5883L15.6061 28.6468L17.9686 26.2589Z" fill="#2E4DA0"/>
<path fill-rule="evenodd" clip-rule="evenodd" d="M10.8302 23.8879C11.2198 23.7016 11.7278 23.075 12.0665 22.7363C12.4137 22.3891 13.0149 21.898 13.2605 21.4746L12.2105 20.4246L9.79718 22.8718L10.8302 23.8879Z" fill="#2E4DA0"/>
<path fill-rule="evenodd" clip-rule="evenodd" d="M4.51331 27.1649C4.63185 27.6899 5.08911 28.181 5.33468 28.6383C5.83427 28.5197 6.11371 28.0794 6.48629 27.9778C6.46089 27.6984 5.97823 27.021 5.7496 26.5806C5.31774 26.6822 5.0129 27.0464 4.51331 27.1649Z" fill="black"/>
<path fill-rule="evenodd" clip-rule="evenodd" d="M31.7625 19.781C32.1774 18.9597 30.9581 18.477 30.5855 19.1121C30.0859 19.9758 31.3645 20.5516 31.7625 19.781Z" fill="#2E4DA0"/>
<path fill-rule="evenodd" clip-rule="evenodd" d="M24.7428 12.1093C24.0907 12.4734 24.4718 13.6673 25.3524 13.3032C26.1653 12.973 25.5641 11.652 24.7428 12.1093Z" fill="#2E4DA0"/>
</g>
<defs>
<clipPath id="clip0_1_541">
<rect width="42" height="42" fill="white" transform="translate(0 0.5)"/>
</clipPath>
</defs>
</svg>
