<svg width="52" height="52" viewBox="0 0 52 52" fill="none" xmlns="http://www.w3.org/2000/svg">
<g clip-path="url(#clip0_1_514)">
<path fill-rule="evenodd" clip-rule="evenodd" d="M15.2344 49.7176C14.4896 49.7176 13.6094 49.9038 13.6094 48.9194C13.6094 47.5094 14.8688 46.5251 15.9385 46.5251H19.5C21.7479 46.5251 22.5875 49.7176 21.125 49.7176H20.3125V48.1213H18.5927V49.7176H16.9677V48.1213H15.2479V49.7176H15.2344ZM52 35.7105V36.8412C51.9052 38.6636 50.6458 40.7919 49.251 41.8161C48.3167 42.4946 45.4865 43.9711 45.4729 43.9844C44.9854 44.3701 45.4729 45.8467 43.6854 48.108C40.3677 52.3115 36.3052 51.3936 30.9969 51.3936C30.0354 51.3936 27.801 51.5266 27.124 51.3138C26.2573 51.0478 25.4042 50.1964 25.3094 49.1988C24.9031 49.4116 24.1042 49.6909 23.4813 49.6909C23.2917 50.4891 22.3844 51.3138 21.45 51.3803H14.1375C13.2167 51.3404 12.2958 50.5556 12.1063 49.7841C10.725 49.7841 7.92188 49.9969 6.87917 49.6244C5.63333 49.1855 4.83438 47.9085 5.33542 46.2324C5.56563 45.4476 5.80938 45.1017 6.25625 44.5431C7.59688 42.8271 9.425 43.5454 9.79063 42.8271C10.0479 42.3216 10.2375 41.457 10.576 40.9781C11.9031 41.5235 12.201 41.6698 13.826 41.4171C13.975 42.0157 14.5167 42.9468 14.8688 43.3858C16.399 45.2215 16.4396 44.9288 17.6177 44.3435C18.9313 43.6917 19.5135 43.5188 20.326 42.0157C21.0979 40.6057 22.3979 39.5282 24.1854 39.1291C24.3073 39.3952 24.6594 40.3928 24.6865 40.7254C23.9958 41.0446 22.8719 41.151 22.0188 42.4946C21.7073 43 21.5448 43.3725 21.1792 43.8647C20.8406 44.3036 20.5021 44.583 20.1229 44.9155C21.5448 44.9421 23.3594 46.6182 23.4677 48.0016C25.3094 47.8553 26.8125 45.7535 26.9208 44.5165C27.3542 44.6096 28.1667 44.9421 28.5458 45.1151C28.451 45.5274 28.275 45.7136 28.2479 46.1127C28.5323 46.0462 28.9385 46.0196 29.1552 45.9132C29.0604 45.5407 28.925 45.421 28.7896 45.0751C28.0313 43.1996 29.1146 40.6855 31.4708 40.0071C32.5812 39.6878 34.924 39.9805 35.8448 40.2332C36.5354 40.4327 36.9281 40.5791 37.5646 40.8318C37.8354 40.9382 38.1198 41.0712 38.3906 41.2176C38.6344 41.3639 38.7833 41.5368 39.1083 41.6166C38.9594 42.162 38.4448 42.4679 38.2958 43.0133C37.9031 42.9867 37.1583 42.4813 36.6844 42.295C35.1813 41.6964 34.4771 41.6166 32.8115 41.6166C29.8188 41.6033 30.0083 44.2903 30.8479 45.2348C31.4708 45.9265 33.326 46.3787 33.7188 46.8975L27.801 47.8686C27.2729 47.9883 27.0021 48.1878 27.0021 48.7997C27.0021 50.1698 28.925 49.6909 31.2813 49.6909C32.9333 49.6909 36.8604 49.8639 38.1198 49.6244C44.4302 48.4007 45.3781 40.5525 40.5031 37.6526C36.6438 35.3514 34.0302 38.1049 29.3583 35.0321C28.8844 35.2715 28.5865 35.5376 28.099 35.7903C25.6479 37.0939 23.5219 37.9187 20.6104 38.198C18.2406 38.4374 18.5385 38.2113 16.8458 38.2113L16.8188 36.5219C18.9177 36.5219 19.4323 36.6816 21.6396 36.3224C23.1021 36.083 24.4021 35.6706 25.6344 35.1518C30.3333 33.1565 34.3823 28.3545 33.4885 22.7942C33.0417 20.0274 31.7552 18.0853 29.9 16.2496C25.499 11.8999 16.9948 10.5431 10.4135 14.0149C8.40938 15.0658 6.16146 17.0212 5.10521 18.9633C4.59063 19.9077 3.79167 21.4773 3.79167 22.6479C4.33333 22.6479 6.87917 23.2864 7.54271 23.446L11.3073 24.2442C11.2938 24.457 10.9688 25.8005 10.901 25.9335C10.1156 25.867 4.3875 24.3506 3.58854 24.3373C3.58854 25.9335 3.98125 26.7183 3.99479 27.3302L10.1833 26.7316C10.1833 27.1174 10.3052 28.0884 10.3865 28.421C9.56042 28.421 8.32812 28.6205 7.52917 28.7003C6.56771 28.7935 5.6875 28.9132 4.69896 28.9132C5.0375 29.5517 5.29479 30.0305 5.72813 30.5892L6.91979 32.0125L9.15417 33.8083C9.45208 34.0079 9.66875 34.1143 9.96667 34.2872C9.80417 34.5266 9.61458 34.6996 9.425 34.939C9.28958 35.1252 9.28958 35.1252 9.18125 35.2981C9.00521 35.5775 9.1 35.511 8.86979 35.6839C8.70729 35.5509 8.6125 35.4844 8.40938 35.3381L6.94688 34.4202C5.95833 33.662 4.65833 32.2121 3.95417 31.1745C3.50729 30.5094 3.22292 29.8975 2.84375 29.1792C2.45104 29.2723 2.4375 29.2856 1.93646 29.2856C1.89583 28.8201 1.74688 28.0485 1.73333 27.5963H2.23438L1.92292 25.7739C1.85521 25.1221 1.82813 24.6565 1.82813 23.8717C1.08333 23.8717 0.744792 23.5791 0 23.5791C0.0135417 22.9406 0.284375 22.4883 0.297917 21.8897C0.907292 21.903 1.38125 22.169 2.01771 22.1823C2.24792 21.2113 2.73542 19.5485 3.23646 18.6972C3.80521 17.7395 3.69688 18.072 3.23646 17.1941C3.14167 17.0212 3.06042 16.8615 2.96563 16.662C2.78958 16.3028 2.66771 15.9437 2.51875 15.5978C1.54375 13.2035 1.69271 9.91787 2.47813 7.66983C3.06042 6.02037 3.81875 5.00942 4.78021 3.74573C5.67396 2.57515 6.67604 0.885788 7.85417 0.579841C9.85833 0.0610621 11.0635 1.79033 11.9302 2.64166C13.5417 4.2246 14.2323 5.26216 15.3021 7.11114C15.6135 7.65652 16.4802 9.81145 16.5208 10.3967C17.4552 10.3967 17.9833 10.3036 18.85 10.3036C18.9583 10.0775 19.0667 9.59862 19.1615 9.31928C20.2313 6.18 21.626 4.53055 23.901 2.2958C24.3073 1.89674 24.7948 1.33806 25.2281 1.00551C25.7021 0.63305 26.4333 0.393613 27.3542 0.539935C28.8031 0.779372 30.1573 3.12053 31.2135 4.53055C33.6646 7.74964 34.5312 12.8177 32.5 16.5955C33.001 17.3271 33.0688 17.2473 33.651 18.2582C33.8813 18.6573 34.3146 19.8545 34.6396 20.0806C34.7344 19.7215 35.1 19.3623 35.3302 19.0697C36.9823 17.0345 41.1667 16.0501 43.3875 17.9656C43.5365 18.0986 43.7667 18.2715 43.875 18.378C45.5948 20.054 45.8385 22.8741 44.3354 24.8294C43.8344 25.4812 43.2792 25.8803 42.5479 26.2661C42.7104 26.4789 43.4823 26.9046 43.7667 27.0642L47.4771 29.3122C48.4385 29.8975 49.0615 30.2035 49.8469 30.975C50.4833 31.6002 51.0656 32.385 51.4448 33.3028C51.7833 34.1941 51.9458 34.7794 52 35.7105ZM11.9844 48.1213H10.251C10.251 46.0728 10.6167 46.4319 8.53125 46.4319V48.1213C7.82708 48.1213 6.90625 48.2277 6.90625 47.3232C6.90625 45.9531 8.00313 44.9288 9.14062 44.9288H13.0948C13.325 44.9288 13.826 45.1417 14.0021 45.2215C13.8802 45.5407 14.0156 45.3146 13.7177 45.5407C13.3385 45.8201 13.149 45.9132 12.7563 46.392C12.4448 46.8177 12.0385 47.4695 11.9844 48.1213ZM11.9844 41.8428H12.1875C12.2281 42.3349 12.499 42.7872 12.6885 43.133H11.5781C11.6188 42.601 11.9438 42.3615 11.9844 41.8428ZM34.7344 27.7692H34.9375C35.3573 29.3255 38.8646 31.0814 40.0427 31.7332L44.4438 34.1941C45.4729 34.8725 45.5948 36.2958 44.6063 37.0673C44.1729 37.3999 43.6448 37.493 43.1573 37.7457C42.1552 36.2692 39.799 35.2848 37.7948 35.0321C35.2219 34.7129 33.8813 35.5642 30.7667 33.9546C31.024 33.5689 32.1208 32.651 33.0823 31.241C33.5563 30.5493 34.6531 28.7269 34.7344 27.7692ZM36.9688 23.4859C36.9688 24.5102 37.0771 25.4812 38.0792 26.1863C38.3229 26.3459 38.7563 26.5986 39.0813 26.705C40.2594 27.0642 39.3521 26.3858 41.3156 27.6096L45.2156 29.964C46.1229 30.5493 47.2469 31.108 48.1406 31.7731C50.3615 33.4359 50.9844 36.8545 49.3729 39.1823C48.4385 40.5392 47.1385 41.2309 45.6896 41.9625C45.0531 42.2817 45.3375 42.162 45.0667 41.1643C44.8229 40.2731 44.3625 39.5415 44.2677 39.1557C45.1615 38.6902 45.1615 38.9562 46.1229 37.9852C47.301 36.788 47.2333 34.806 46.2177 33.5556C45.5135 32.691 43.6854 31.8529 42.6562 31.2676C41.3427 30.5227 38.0792 28.8201 37.1854 27.9554C35.5469 26.3725 34.7615 23.5525 35.7771 21.4241C36.874 19.1096 40.2458 17.5798 42.4938 19.4554C44.1865 20.8521 43.8615 23.7387 41.8708 24.723C40.9094 25.2019 38.6885 25.6276 38.6885 23.6855C38.6885 22.8874 39.799 22.3952 40.7198 21.7966C40.6115 21.3576 40.1375 20.8255 39.9073 20.3999C39.501 20.493 38.4042 21.2778 38.0385 21.5571C37.5781 21.8764 36.9688 22.7543 36.9688 23.4859ZM22.3438 10.716C21.7615 10.6628 21.4365 10.5165 20.7188 10.5165C20.7458 9.38579 22.2625 6.80519 22.9802 5.86075C23.5219 5.14244 25.7427 2.77468 26.4063 2.33571C26.7854 3.94526 28.5323 6.95152 28.5323 9.21286C28.5323 11.4742 28.5323 10.6894 28.0313 12.8044C27.6115 12.5916 27.0698 12.2058 26.6094 12.1127C26.6229 11.4875 26.8938 11.1417 26.9073 10.5165C26.6094 10.4899 25.4854 10.2105 25.2823 10.1174C25.174 10.3435 24.9844 11.0884 24.9844 11.4077L23.9688 11.0884C24.1042 10.4899 24.375 9.50551 24.375 8.8138C24.0094 8.8138 22.9802 8.61427 22.75 8.52116C22.6146 9.05324 22.3438 10.1307 22.3438 10.716ZM11.0635 8.8138C11.0635 9.75824 11.551 10.7958 11.5646 11.7003C11.2802 11.7269 10.874 11.8999 10.6573 11.993C10.6031 11.3811 10.3052 10.8091 10.251 10.1972C9.51979 10.1972 9.19479 10.4766 8.53125 10.4899C8.65313 10.982 8.96458 12.4187 9.14062 12.7778C8.65313 13.0305 8.30104 13.3232 7.82708 13.5759C6.43229 11.0352 6.77083 8.36153 7.77292 5.78094C8.00313 5.18235 8.20625 4.65026 8.40938 4.11818C8.55833 3.71912 9.00521 2.70817 9.03229 2.33571C10.224 2.9476 13.1896 6.45934 13.8667 8.06889C14.1375 8.72069 14.801 9.98438 14.8281 10.716C14.2729 10.849 13.7177 10.9953 13.2031 11.1151C13.2031 10.5431 12.9323 9.4922 12.824 8.98673C12.6615 8.10879 12.4719 8.8138 11.0635 8.8138ZM6.29688 4.73008C5.89062 6.45934 5.17292 6.8451 5.17292 9.71834C5.17292 12.7113 6.18854 13.8287 6.39167 14.7066C6.31042 14.8263 4.86146 16.3428 4.76667 16.396C3.87292 14.7332 3.27708 12.5118 3.69688 9.95778C3.95417 8.30832 5.25417 5.40848 6.29688 4.73008ZM29.1417 4.62366C29.399 4.80989 29.6698 5.27546 29.9 5.58141C30.2115 6.00707 30.3063 6.1667 30.5771 6.61897C31.5927 8.34823 31.9583 10.1573 31.8906 12.3122C31.8635 13.4163 31.4979 14.3075 31.2813 15.1988C30.7938 14.8795 29.9677 13.9351 29.4531 13.8021C30.3604 11.9265 30.5365 8.7872 29.8729 6.71208C29.6427 5.99377 29.3042 5.31537 29.1417 4.62366ZM6.29688 4.73008L6.35104 4.51724L6.29688 4.73008Z" fill="black"/>
<path fill-rule="evenodd" clip-rule="evenodd" d="M13.5146 36.6417C13.5688 36.7215 13.5688 36.6683 13.6094 36.8545C13.6094 36.8811 13.6229 37.0407 13.6229 37.0407L13.5552 38.2911C13.2302 38.3576 13.0271 38.331 12.7021 38.3443C12.3906 38.3443 12.0386 38.4108 11.9031 38.2379V36.655L13.5146 36.6417ZM9.92605 34.3537C9.76355 34.5931 9.57397 34.7661 9.38439 35.0055C9.24897 35.1917 9.24897 35.1917 9.14063 35.3647C8.96459 35.644 9.05938 35.5775 8.82918 35.7504C8.77501 36.349 8.53126 36.5485 8.51772 37.3467C8.50418 37.9586 8.59897 38.5305 8.80209 38.9828C9.1948 39.9007 9.75001 40.5259 10.5625 41.0047C11.8896 41.5501 12.1875 41.6964 13.8125 41.4437C15.2615 41.0978 16.6292 39.741 16.8458 38.2512L16.8188 36.5618C16.5479 35.205 15.5729 34.1808 14.2594 33.6354C13.1896 33.1964 11.8625 33.2762 10.8063 33.795C10.4271 33.9679 10.2375 34.1808 9.92605 34.3537Z" fill="#2E4DA0"/>
<path fill-rule="evenodd" clip-rule="evenodd" d="M15.2344 25.9734C15.2344 25.0023 16.8594 24.8427 16.8594 25.9734C16.8594 27.1174 15.2344 26.9444 15.2344 25.9734ZM13.501 25.9734C13.501 26.9178 14.2594 27.9953 15.0177 28.1682C14.8552 28.8333 14.6792 30.0571 13.9073 30.0571C13.1625 30.0571 12.8239 29.4452 12.6885 28.8599L11.1583 29.5516C11.2667 30.8552 13.2708 32.4914 15.1396 31.374C15.5458 31.1213 15.7625 30.802 16.1281 30.5493C16.5615 32.1322 20.3396 32.3584 21.0031 29.5516L19.4729 28.8599C19.2562 29.259 18.9448 30.0571 18.3625 30.0571C17.374 30.0571 17.1437 28.9131 17.1437 28.1682C19.175 27.6361 19.2292 23.4859 15.925 23.4859C14.6656 23.4859 13.501 24.7097 13.501 25.9734Z" fill="black"/>
<path fill-rule="evenodd" clip-rule="evenodd" d="M21.9104 18.7637H23.576V21.6901H21.8969L21.9104 18.7637ZM18.5792 20.187C19.2156 21.1182 20.8812 22.6745 22.4385 22.6745C23.576 22.6745 24.4427 22.5681 25.3094 21.7966C25.675 21.4773 26.6771 20.5063 26.9073 20.1737C26.176 19.0962 24.4292 17.7128 22.75 17.7128C21.0708 17.7261 19.3104 19.1228 18.5792 20.187Z" fill="#2E4DA0"/>
<path fill-rule="evenodd" clip-rule="evenodd" d="M10.224 18.7637H11.8896L11.9167 21.6902H10.2104L10.224 18.7637ZM6.90625 20.187C7.02813 20.6526 9.01875 22.6745 10.7656 22.6745C11.9031 22.6745 12.7698 22.5681 13.6365 21.7966C14.0021 21.4773 15.0042 20.5063 15.2344 20.1737C14.449 19.6549 12.201 16.0767 8.58542 18.5376C8.19271 18.8169 7.15 19.8412 6.90625 20.187Z" fill="#2E4DA0"/>
<path fill-rule="evenodd" clip-rule="evenodd" d="M20.8135 25.1753C20.9083 25.3748 21.1927 26.4789 21.2198 26.7715L29.3177 24.9492C29.724 24.856 30.1844 24.7496 30.6312 24.6565C30.9698 24.5767 31.6875 24.3905 32.0802 24.3772C32.0802 23.5923 31.8365 23.3263 31.7823 22.6878C31.4437 22.7144 30.7531 22.8873 30.4417 22.9671L20.8135 25.1753Z" fill="black"/>
<path fill-rule="evenodd" clip-rule="evenodd" d="M21.8292 29.2723L28.0854 29.9108C28.8302 30.0172 29.4667 30.0704 30.2656 30.0704C30.2656 29.6581 30.4146 28.8599 30.374 28.6737C30.3062 28.3013 30.2656 28.3944 29.8729 28.3678L22.4521 27.6495C22.1542 27.6095 21.8292 27.0908 21.8292 29.2723Z" fill="black"/>
<path fill-rule="evenodd" clip-rule="evenodd" d="M10.2104 21.6901H11.9031L11.8896 18.7637H10.224L10.2104 21.6901Z" fill="black"/>
<path fill-rule="evenodd" clip-rule="evenodd" d="M21.9104 21.6901H23.5896V18.7637H21.9104V21.6901Z" fill="black"/>
<path fill-rule="evenodd" clip-rule="evenodd" d="M11.8896 38.2245L13.5146 38.2378V36.6416L11.8896 36.6549V38.2245Z" fill="black"/>
<path fill-rule="evenodd" clip-rule="evenodd" d="M11.8896 38.2245C12.025 38.4108 12.3771 38.331 12.6885 38.331C13.0135 38.331 13.2302 38.3443 13.5417 38.2777L13.6094 37.0274C13.6094 37.0274 13.5958 36.8677 13.5958 36.8411C13.5552 36.6549 13.5552 36.7081 13.501 36.6283V38.2245H11.8896Z" fill="black"/>
</g>
<defs>
<clipPath id="clip0_1_514">
<rect width="52" height="51" fill="white" transform="translate(0 0.5)"/>
</clipPath>
</defs>
</svg>
