<svg width="42" height="49" viewBox="0 0 42 49" fill="none" xmlns="http://www.w3.org/2000/svg">
<g clip-path="url(#clip0_1_563)">
<path fill-rule="evenodd" clip-rule="evenodd" d="M35.7476 40.802H38.855V46.9004H35.7476V40.802ZM18.6444 35.5534L14.2214 33.4039L15.4117 30.4672C15.6247 29.9423 15.8001 29.4924 16.0006 28.9926C16.1885 28.5427 16.4517 27.9803 16.5644 27.4929C17.2035 27.4929 19.8222 28.3427 21.7393 28.3427C21.7393 29.9798 21.614 31.4169 22.4409 32.8915C22.7291 33.4164 23.4433 34.4036 23.9069 34.7161L26.3377 33.5539L26.3502 37.9902C26.3502 39.4148 26.037 39.2149 28.0418 39.2149V33.5914L30.4725 34.7536C30.9362 34.4161 31.6378 33.4914 31.926 32.9665C32.7906 31.4169 32.6402 30.1673 32.6402 28.4302C34.6199 28.4302 35.685 28.4552 37.4767 29.7049C39.1557 30.8796 40.3461 33.004 40.3461 35.091V39.2149H35.7351V31.4294H34.1313V46.9004H20.2231V31.4294H18.6193V35.5534H18.6444ZM30.2094 32.7416C29.821 32.7041 29.207 32.3417 28.8938 32.1792C29.4326 31.4419 30.0967 31.5669 30.9487 28.9801C31.099 28.5302 30.8359 29.255 30.9988 28.8426L31.0615 28.7176C31.0489 30.8796 31.1366 30.992 30.2094 32.7416ZM23.3431 28.6177H23.4433C23.4433 30.4172 25.398 32.0168 25.5107 32.1792C25.1975 32.3417 24.5835 32.7041 24.1951 32.7416C23.8819 31.5919 23.3431 32.4417 23.3431 28.6177ZM25.5984 29.9298H28.7936C28.3801 30.5422 27.8663 30.9795 27.1897 31.3419C26.5632 31.0045 25.9994 30.5172 25.5984 29.9298ZM35.7727 16.3583L35.7476 14.4588H36.4994C39.5817 14.4588 39.6193 19.0576 36.3992 19.0576H35.7351C35.7351 18.0954 37.1885 17.4456 37.8025 16.5208L36.75 15.4211L35.7727 16.3583ZM16.5644 16.5083C17.2035 17.4456 18.6569 18.0954 18.6569 19.0576C17.7172 19.0576 17.1408 19.0951 16.4015 18.4953C14.9982 17.3581 15.5245 14.4588 17.9051 14.4588H18.6569V16.3334L17.642 15.3711L16.5644 16.5083ZM5.77625 15.9709C4.78639 15.9709 4.46062 14.8837 4.9994 14.2589C5.25 13.959 7.0167 13.4591 7.27983 13.4341C7.16706 13.9215 6.95405 14.4338 6.80369 14.9212C6.64081 15.3961 6.37768 15.9709 5.77625 15.9709ZM23.3431 12.9717C23.3431 12.0595 23.3431 11.1597 23.3431 10.2474C23.3431 9.27269 23.2052 8.27295 24.1951 8.27295C24.784 8.27295 25.185 9.02276 25.611 9.31018C26.2625 9.13523 26.3252 8.27295 27.1146 8.27295C28.0919 8.27295 27.9666 9.2602 27.9666 10.2474C27.9666 11.2222 27.9666 12.1844 27.9666 13.1592C28.5304 12.8843 29.4075 12.9217 30.3974 12.3969C30.7106 12.2219 30.8234 12.1095 31.074 11.947V12.9842C29.2196 12.5468 27.9666 13.8215 27.9666 15.1462V15.9959H29.5704C29.5704 15.3461 29.4702 14.4963 30.3222 14.4963C31.2118 14.4963 31.074 15.3836 31.074 15.9959H32.6778C32.6778 14.5963 32.7279 14.0964 31.5752 13.2592L31.3622 13.0967C32.9535 12.7218 32.991 12.7718 34.1814 11.972C34.1814 14.1964 34.4069 19.545 34.0185 21.1821C33.4296 23.6065 31.1241 25.331 28.7309 25.381C28.7309 28.0178 29.4827 26.8556 29.4827 28.3802H24.972C24.972 27.3305 25.1223 27.8429 25.5107 27.0431C25.7488 26.5557 25.7237 25.9434 25.7237 25.381C23.3305 25.331 21.0376 23.569 20.4612 21.2571C20.0477 19.6075 20.2733 14.2214 20.2733 11.972C21.4511 12.7593 21.5638 12.7468 23.0925 13.0967C23.0048 13.1717 23.0048 13.1717 22.8795 13.2592C21.7643 14.0714 21.7768 14.6213 21.7768 15.9959H23.3807C23.3807 15.3836 23.2428 14.4963 24.1325 14.4963C25.0221 14.4963 24.8842 15.3836 24.8842 15.9959H26.4881C26.4881 15.0337 26.5507 14.3714 25.8616 13.6216C25.2225 12.9592 24.0698 12.6843 23.3431 12.9717ZM16.577 25.7559C15.4618 25.256 14.9356 25.231 13.2816 24.4063L10.1742 22.9066C10.287 22.4568 12.1289 21.0571 12.5799 20.6572C12.4797 19.8074 12.4672 19.47 12.5048 18.5953C11.1766 19.645 8.58293 22.0694 7.29236 23.2066C6.95405 23.5065 6.77864 23.544 6.51551 23.9314C6.66587 24.1563 6.81623 24.2688 6.97911 24.4937C7.16706 24.7312 7.27983 24.8811 7.54295 25.0561C9.73568 23.594 7.41766 23.469 13.4069 26.2433C13.9708 26.5057 14.5471 26.6807 15.0734 26.9306L13.3819 31.3419C12.9308 31.3045 11.9159 30.7046 11.5024 30.4922L5.98926 27.7429C5.35023 27.4305 4.78639 27.143 4.17243 26.8306C3.53341 26.5182 2.99463 26.2808 2.50596 25.7809C1.45346 24.7062 1.31563 23.0566 2.24284 21.7195C2.71897 21.0321 5.36276 19.5325 6.27744 18.9952L10.5752 16.3459C11.2142 15.9709 11.5901 15.5586 11.7906 14.7463C12.7428 10.9098 11.5149 11.6471 13.9457 11.3347C14.1462 11.0222 14.0334 10.2099 14.0334 9.77256C12.8681 9.77256 12.2667 9.71008 11.5776 10.2224C10.1617 11.2847 10.6629 13.984 10.074 14.7213C9.89856 14.9337 9.43496 15.1587 9.17183 15.3211C8.89618 15.4961 8.52028 15.7835 8.21957 15.871L9.83591 10.9098C9.42243 10.9348 7.40513 11.6596 6.8914 11.8345C6.02685 12.122 4.68615 12.4594 4.07219 12.9592C2.76909 13.984 2.44331 16.8582 5.50059 17.5705C5.13723 17.883 4.69868 18.0829 4.23508 18.3703C3.78401 18.6702 3.38305 18.8827 2.95704 19.1576C1.92959 19.8324 1.50358 19.9324 0.714197 21.1446C-0.501197 23.0316 -0.137832 25.5185 1.65393 27.193C2.25537 27.7554 3.47076 28.2802 4.29773 28.6801C5.04952 29.055 12.2792 32.7291 12.7303 32.8416C12.6175 33.3414 12.3043 33.6788 12.2542 34.2537L18.6319 37.3779L18.6444 48.5H40.4463V40.8145H41.9499C41.9499 38.0652 42.2381 34.1162 41.2858 32.0043C40.4087 30.0423 39.0931 28.6551 37.2387 27.6929C36.963 27.5554 36.6748 27.4555 36.3992 27.318C35.4344 27.193 34.7953 26.8556 33.5799 26.8306C32.8031 26.8181 31.1116 27.0181 30.6104 26.6307C31.6002 26.0558 31.9135 26.2683 33.3043 25.1561C33.5048 24.9936 33.4797 24.9811 33.6802 24.7812C34.5573 23.8939 35.1211 22.9691 35.472 21.6945C35.5346 21.4945 35.5597 21.2821 35.6098 21.0821C35.71 20.6322 35.5847 20.7947 35.8478 20.6322C37.364 20.6322 38.1659 20.4073 39.0931 19.67C41.0853 18.0829 41.3359 12.8843 35.7476 12.8843C35.7476 9.33518 36.3365 7.42317 34.0561 4.72388L32.8282 5.56116C33.0913 6.48592 34.0937 6.96079 34.1814 8.37293C34.2566 9.66009 33.4672 10.6723 32.6402 11.0222C32.6277 8.02302 32.8657 7.13575 30.9612 4.74887C30.6605 4.88633 29.9338 5.37371 29.6957 5.59865C30.1342 6.1735 31.0239 7.39818 31.0865 8.37293C31.1617 9.66009 30.3723 10.6723 29.5453 11.0222C29.5453 9.46014 29.7583 8.28545 28.7936 7.36069C27.4153 6.04853 25.8616 7.12325 25.636 7.09826C25.3729 7.07327 23.8568 6.02354 22.491 7.41068C21.5764 8.34793 21.8019 9.48514 21.7894 11.0097C20.9248 10.6473 20.1354 9.61011 20.2482 8.27295C20.3359 7.21073 21.213 6.31096 21.6265 5.57366C21.3759 5.34871 20.6492 4.84884 20.3484 4.72388C19.7721 5.64864 18.8699 6.58589 18.707 8.03551C18.5567 9.37267 18.682 11.4346 18.682 12.8593C17.0907 12.8593 16.2888 13.0592 15.3115 13.8215C13.6951 15.0837 13.4946 18.2454 15.4367 19.7075C16.6146 20.5947 17.0656 20.5073 18.7321 20.6072C18.9451 22.3568 19.6342 23.4315 20.4487 24.4562C21.614 25.9309 23.4558 26.3807 23.7941 26.6057C22.8293 27.318 17.6545 26.1308 16.577 25.7559Z" fill="black"/>
<path fill-rule="evenodd" clip-rule="evenodd" d="M14.0459 9.78508C14.0459 10.235 14.1462 11.0348 13.9582 11.3472C13.9582 13.0342 14.0209 14.009 13.6325 15.3711C13.457 15.9835 13.2691 16.3959 13.0436 16.9332C12.7804 17.5456 12.605 17.7705 12.5298 18.5953C12.4922 19.4701 12.5048 19.8075 12.605 20.6572C12.9308 22.5068 14.1462 23.2441 14.6098 23.9439C14.898 23.7939 15.3115 23.5565 15.6498 23.469C15.7876 23.7564 15.9004 24.3313 16.0382 24.6812C16.2011 25.1061 16.4266 25.356 16.5895 25.7684C17.6671 26.1433 22.8419 27.3305 23.7942 26.6557C23.4558 26.4307 21.614 25.9809 20.4487 24.5062C19.6343 23.4815 18.9451 22.4068 18.7321 20.6572C17.0531 20.5448 16.6146 20.6448 15.4368 19.7575C13.4946 18.2954 13.6951 15.1337 15.3115 13.8715C16.2888 13.1092 17.0907 12.9093 18.682 12.9093C18.682 11.4846 18.5692 9.42268 18.707 8.08552C18.8699 6.6359 19.7721 5.69865 20.3485 4.77389C20.6492 4.89885 21.3759 5.39872 21.6265 5.62367C21.213 6.36097 20.3359 7.24824 20.2482 8.32296C20.1354 9.66011 20.9123 10.6848 21.7894 11.0597C21.8019 9.53515 21.5764 8.39794 22.4911 7.46069C23.8568 6.07355 25.3729 7.12327 25.636 7.14827C25.8616 7.17326 27.4153 6.09854 28.7936 7.4107C29.7584 8.33546 29.5453 9.49766 29.5453 11.0722C30.3723 10.7223 31.1617 9.7101 31.0865 8.42294C31.0239 7.44819 30.1343 6.22351 29.6957 5.64866C29.9463 5.42372 30.673 4.93634 30.9612 4.79888C32.8658 7.18576 32.6277 8.07303 32.6402 11.0722C33.4672 10.7223 34.2566 9.7101 34.1814 8.42294C34.0937 7.0233 33.0913 6.53593 32.8282 5.61117L34.0561 4.77389C36.349 7.46069 35.7476 9.38519 35.7476 12.9343C41.3359 12.9343 41.0853 18.1329 39.0931 19.72C38.1659 20.4573 37.364 20.6822 35.8479 20.6822C35.5722 20.8447 35.71 20.6947 35.6098 21.1321C35.5722 21.3321 35.5346 21.532 35.472 21.7445C35.1211 23.0191 34.5573 23.9439 33.6802 24.8312C33.4797 25.0311 33.5173 25.0436 33.3043 25.2061C31.9135 26.3308 31.6128 26.1183 30.6104 26.6807C31.1116 27.0681 32.8031 26.8556 33.58 26.8806C34.7953 26.9056 35.4344 27.243 36.3992 27.368C36.5996 27.0931 37.0758 26.8931 37.8526 25.7184C38.2661 25.0811 38.5668 24.3438 38.7548 23.519C39.0805 23.594 39.5066 23.8439 39.7948 23.9939C40.0453 23.619 40.4087 23.394 40.7094 23.0316C41.6492 21.9194 42.213 20.0574 41.8872 18.4328C41.6617 17.3081 41.1354 16.5958 40.8097 15.5711C39.8198 12.3719 41.3986 9.77258 39.068 5.58618C37.6772 3.01185 35.1086 1.2498 32.2267 0.649961C31.8383 0.57498 31.0865 0.524993 30.1718 0.5H24.4708C22.9045 0.5 22.1527 0.599974 20.9749 0.949883C19.1832 1.49974 17.3037 2.84939 16.2888 4.14905C15.5871 5.04882 15.2739 5.51119 14.7852 6.58591C14.472 7.29823 14.0459 8.76035 14.0459 9.78508Z" fill="#2E4DA0"/>
<path fill-rule="evenodd" clip-rule="evenodd" d="M1.64142 9.0353C1.64142 7.84811 3.18259 8.39797 3.7339 8.54793C4.21003 8.68539 4.59846 8.91033 5.02447 8.94782C4.83652 9.18526 1.64142 10.5474 1.64142 9.0353ZM0.0375977 8.84785C0.0375977 10.4099 1.14022 11.3722 2.20526 11.3722C3.88426 11.3722 8.35741 9.51018 8.78342 8.93533L5.86397 7.62317C4.82399 7.16079 3.53342 6.68591 2.19273 6.68591C1.12769 6.68591 0.0375977 7.76063 0.0375977 8.84785Z" fill="black"/>
<path fill-rule="evenodd" clip-rule="evenodd" d="M7.17959 2.09958C8.48269 2.09958 8.35739 3.5617 8.87111 4.63642C8.60799 4.61143 6.79116 3.98659 6.6408 3.86162C6.00178 3.36175 6.26491 2.09958 7.17959 2.09958ZM4.64856 3.03684C4.64856 5.44871 7.17959 5.77363 9.35978 6.49844C9.77326 6.6234 11.0764 7.12327 11.4147 7.16076C10.3246 4.91135 10.1116 0.5 7.55548 0.5C6.56562 0.5 6.08949 0.599974 5.41288 1.2748C5.06204 1.61221 4.64856 2.38701 4.64856 3.03684Z" fill="black"/>
<path fill-rule="evenodd" clip-rule="evenodd" d="M23.3431 19.2451C23.4809 20.9697 26.7136 23.5815 29.6832 21.3446C30.1969 20.9572 30.9863 19.9824 31.0489 19.2451C30.7357 19.2201 29.7959 18.8952 29.5453 18.7703C28.9815 21.1821 25.398 21.1446 24.8467 18.7703C24.6086 18.8952 23.6563 19.2201 23.3431 19.2451Z" fill="black"/>
<path fill-rule="evenodd" clip-rule="evenodd" d="M29.5453 36.6781C29.5453 38.1402 30.9612 37.8153 31.1116 37.0155C31.3121 35.9283 29.5453 35.8283 29.5453 36.6781Z" fill="black"/>
</g>
<defs>
<clipPath id="clip0_1_563">
<rect width="42" height="48" fill="white" transform="translate(0 0.5)"/>
</clipPath>
</defs>
</svg>
