<svg width="54" height="27" viewBox="0 0 54 27" fill="none" xmlns="http://www.w3.org/2000/svg">
<g clip-path="url(#clip0_1_460)">
<path fill-rule="evenodd" clip-rule="evenodd" d="M4.51406 2.06232C6.31406 2.06232 7.7625 3.06562 7.7625 4.31259C7.7625 5.55956 6.31406 6.56287 4.51406 6.56287C2.71406 6.56287 1.26562 5.55956 1.26562 4.31259C1.26562 3.06562 2.71406 2.06232 4.51406 2.06232Z" fill="#2E4E9F"/>
<path fill-rule="evenodd" clip-rule="evenodd" d="M5.63906 20.4371C8.05781 20.4371 10.0266 21.4404 10.0266 22.6874C10.0266 23.9344 8.05781 24.9377 5.63906 24.9377C3.22031 24.9377 1.25156 23.9344 1.25156 22.6874C1.25156 21.4404 3.22031 20.4371 5.63906 20.4371Z" fill="#2E4E9F"/>
<path fill-rule="evenodd" clip-rule="evenodd" d="M48.5859 20.3655C50.9203 20.3655 52.8047 21.3688 52.8047 22.6158C52.8047 23.8627 50.9203 24.866 48.5859 24.866C46.2516 24.866 44.3672 23.8627 44.3672 22.6158C44.3672 21.3688 46.2516 20.3655 48.5859 20.3655Z" fill="#2E4E9F"/>
<path fill-rule="evenodd" clip-rule="evenodd" d="M41.3297 8.87045C41.3297 10.0171 42.0891 10.7337 42.8484 11.1637C43.9594 11.78 44.5922 11.6224 46.1812 11.6224C47.8687 11.6224 52.1016 11.1781 52.1016 13.543C52.1016 15.091 49.8375 15.3346 48.1922 15.3346H36.6047C33.1875 15.3203 32.0203 18.9609 34.7625 20.3798C35.7891 20.9101 36.6891 20.7381 37.8984 21.0248C40.2891 21.5838 39.9797 24.3931 37.0125 24.3931H16.9594C13.9922 24.3931 13.6828 21.5695 16.0734 21.0248C17.3813 20.7238 20.7281 20.9961 20.7281 17.8142C20.7281 16.5816 19.0969 15.349 17.5078 15.3346H5.92031C4.02187 15.3346 1.88437 15.1483 1.88437 13.414C1.88437 11.2927 5.9625 11.6367 8.2125 11.6367C10.4484 11.6367 14.2172 11.866 16.2844 11.6224C18.3797 11.3787 20.0109 8.81312 18.0844 7.0645C16.1859 5.34454 12.6562 6.8495 12.6562 4.06891C12.6562 3.35226 13.9359 2.56395 14.9484 2.56395H45.1125C47.4328 2.56395 48.7547 4.68523 46.5047 5.7602C45.5625 6.20452 41.3297 5.8892 41.3297 8.87045ZM54 12.984V13.9443C53.8172 15.1196 52.9453 16.2519 51.2578 16.9112C49.9219 17.4416 39.7687 17.2552 37.3078 17.2409C36.1406 17.2266 35.7328 17.2982 35.1562 17.9289C35.3672 18.7315 36.0844 18.8462 37.0406 18.8892C42.8062 19.2045 42.6797 25.554 37.9547 26.2563C35.8875 26.5573 17.8734 26.5717 15.9609 26.242C12.5578 25.64 10.9266 21.4405 14.8078 19.4052C16.2703 18.6455 18.0422 19.3335 18.8719 18.0579C18.4359 17.2122 17.8172 17.2266 16.7203 17.2266C14.1469 17.2409 4.12031 17.4559 2.67188 16.8682C0.998438 16.2089 0.182812 15.0766 0 13.9443V12.9553C0.0984375 12.3104 0.39375 11.7084 0.829688 11.2354C2.44688 9.5011 4.80938 9.70176 7.27031 9.70176L15.3562 9.7161C16.3125 9.7161 16.7203 9.4581 17.1 8.88479C16.2281 7.56615 15.0891 8.4548 13.1062 7.59482L11.6016 6.51985C10.8703 5.7172 10.7719 5.10088 10.7719 4.08324C10.7719 2.79327 11.7422 1.8473 12.5297 1.34565C13.4016 0.772326 14.7375 0.5 16.1578 0.5H44.1703C45.6469 0.5 46.9406 0.757993 47.8687 1.40298C48.3469 1.73264 48.7266 2.07663 49.0219 2.56395C50.3016 4.69956 49.1062 6.76351 47.2219 7.58049C45.4078 8.3688 43.5938 7.62348 43.2281 8.99945C44.8453 10.7337 49.7953 8.54079 52.6641 10.7767C53.3953 11.3787 53.8594 12.167 54 12.984Z" fill="black"/>
<path fill-rule="evenodd" clip-rule="evenodd" d="M1.88437 22.7304C1.88437 20.0932 8.8875 20.2222 8.8875 22.5871C8.8875 24.7227 5.65313 24.3644 4.17656 24.3644C3.20625 24.3787 1.88437 23.7194 1.88437 22.7304ZM0 22.3148C0 23.8197 0.295313 24.7514 1.75781 25.6114C5.23125 27.661 12.4875 25.9553 10.5469 21.3115C9.01406 17.6279 0 18.1295 0 22.3148Z" fill="black"/>
<path fill-rule="evenodd" clip-rule="evenodd" d="M45.1125 22.7305C45.1125 20.0072 52.1156 20.3082 52.1156 22.5871C52.1156 24.7227 48.9656 24.3644 47.5312 24.3644C46.4344 24.3788 45.1125 23.7768 45.1125 22.7305ZM48.6141 26.4427C50.9344 26.4427 54 25.4251 54 23.0171C54 21.6268 53.775 20.7812 52.5375 19.8352C50.8641 18.5596 46.1531 18.5022 44.5359 19.9642C41.5969 22.5871 43.3687 26.4427 48.6141 26.4427Z" fill="black"/>
<path fill-rule="evenodd" clip-rule="evenodd" d="M1.88437 4.34124C1.88437 1.27399 8.90156 2.53529 6.76406 5.20122C5.58281 6.66319 1.88437 6.16153 1.88437 4.34124ZM0 3.92559C0 5.31589 0.225 6.16153 1.4625 7.10751C3.76875 8.87046 9.02812 8.18248 9.02812 4.06892C9.02812 0.414012 2.53125 -0.703959 0.534375 2.42063C0.267188 2.85062 0 3.25194 0 3.92559Z" fill="black"/>
<path fill-rule="evenodd" clip-rule="evenodd" d="M21.4031 6.13284C22.275 6.13284 26.2125 6.34783 26.7187 5.93218C27.2953 5.45919 27.2391 4.21222 25.7062 4.21222H21.9375C20.0953 4.21222 20.5172 6.13284 21.4031 6.13284Z" fill="black"/>
<path fill-rule="evenodd" clip-rule="evenodd" d="M28.8141 5.17253C28.8141 7.06449 31.5562 5.86052 30.3609 4.55622C29.8266 3.96856 28.8141 4.24089 28.8141 5.17253Z" fill="black"/>
</g>
<defs>
<clipPath id="clip0_1_460">
<rect width="54" height="26" fill="white" transform="translate(0 0.5)"/>
</clipPath>
</defs>
</svg>
