<svg width="51" height="52" viewBox="0 0 51 52" fill="none" xmlns="http://www.w3.org/2000/svg">
<g clip-path="url(#clip0_1_526)">
<path fill-rule="evenodd" clip-rule="evenodd" d="M0 9.95968V10.7823C0 14.004 1.9879 16.8282 3.86613 18.2266C4.93548 19.0218 6.22419 19.721 7.71855 20.0226C9.87097 20.4613 11.4065 20.0637 13.1476 20.2419C15.0944 20.4476 15.2177 22.6685 13.8742 23.3129C11.6944 24.3685 8.66452 21.9556 4.94919 25.6984C3.67419 27.0145 3.29032 28.5637 3.29032 30.5242C3.29032 33.6226 6.34758 36.6936 9.45968 36.6936H23.0323V35.0484H10.1726C6.49839 35.0484 3.98952 31.8266 5.34677 28.1661C5.96371 26.5073 7.70484 25.3968 9.66532 25.1911C11.1734 25.0403 13.1202 25.4242 14.2992 24.9855C17.5895 23.779 17.0823 18.5694 12.9419 18.5968C10.5427 18.6105 9.26774 18.8024 7.01936 18.0484C2.72823 16.5952 0.342742 11.2758 2.42661 6.94355C3.85242 3.96855 6.56694 2.14516 10.3782 2.14516H19.3306C24.5266 2.14516 26.1444 7.73871 23.1694 10.604C21.6613 12.0573 20.1258 12.0161 18.0968 12.0161V13.6613H20.1532C23.2516 13.6613 26.3226 10.604 26.3226 7.49194V6.66935C26.3226 3.57097 23.2653 0.5 20.1532 0.5H9.45968C8.00645 0.5 6.62177 0.952419 5.64839 1.41855C4.75726 1.85726 3.55081 2.65242 2.85161 3.35161C2.64597 3.55726 2.56371 3.72177 2.33065 3.96855C1.00081 5.36694 0 7.94436 0 9.95968Z" fill="black"/>
<path fill-rule="evenodd" clip-rule="evenodd" d="M1.64516 45.4266C1.64516 43.5895 1.275 41.629 2.56371 41.629H12.3387C12.3387 44.467 14.6968 46.5645 16.8629 46.5645C18.1516 46.5645 19.1661 46.4686 20.2218 45.6049C20.4685 45.3992 20.7016 45.2621 20.8935 45.0428C21.6339 44.1516 22.2097 43.2468 22.2097 41.629H31.971C32.4782 41.629 32.8895 42.0403 32.8895 42.5476V45.5226C32.8895 48.0726 31.0524 49.8411 28.475 49.8411H6.05968C5.34677 49.8411 4.74355 49.7178 4.22258 49.5258C3.2629 49.1557 2.38548 48.3057 1.9879 47.3323C1.76855 46.7976 1.64516 46.1532 1.64516 45.4266ZM0 42.246V46.0436C0 48.8403 2.64597 51.5 5.44274 51.5H29.0919C31.8887 51.5 34.5347 48.854 34.5347 46.0573V42.2597C34.5347 41.1355 33.4105 39.9976 32.2726 39.9976H21.9903C21.4282 39.9976 20.8113 40.6008 20.6468 41.0121C20.4137 41.5879 20.5645 42.3419 20.2081 43.0411C18.9468 45.5226 15.5605 45.5226 14.3129 43.0411C13.9427 42.3145 14.1347 41.7661 13.9016 41.0807C13.7508 40.6145 13.1065 39.9839 12.5306 39.9839H2.24839C1.12419 39.9839 0 41.1081 0 42.246Z" fill="black"/>
<path fill-rule="evenodd" clip-rule="evenodd" d="M27.9678 33.4032H41.129H49.3548V36.6935H41.129H27.9678H26.3226V33.4032H27.9678ZM24.6774 33.1976V36.8992C24.6774 37.5435 25.4726 38.3387 26.1169 38.3387H49.5605C50.2048 38.3387 51 37.5435 51 36.8992V33.1976C51 32.5532 50.2048 31.7581 49.5605 31.7581H26.1169C25.4726 31.7581 24.6774 32.5532 24.6774 33.1976Z" fill="black"/>
<path fill-rule="evenodd" clip-rule="evenodd" d="M21.3871 16.9516H31.7653C33.6024 16.9516 35.0968 17.8427 35.7823 19.3097C36.2758 20.379 36.2758 21.2839 35.9193 22.4355C35.5766 23.5597 34.4387 24.6427 33.2185 24.9855C31.0524 25.6024 21.7573 24.7935 19.6871 25.2322C18.0968 25.5613 16.4379 27.1379 16.4379 28.975V29.5919C16.4379 31.4839 18.3435 33.3895 20.2355 33.3895H23.0323V31.7443C21.4831 31.7443 19.8927 31.9774 18.8919 31.0589C17.6032 29.8661 18.0556 27.8097 19.3581 27.1516C20.2492 26.6992 21.25 26.8089 22.5113 26.8089C24.8008 26.8089 27.104 26.8089 29.3935 26.8089C32.2177 26.8089 33.5064 27.0282 35.3161 25.8355C37.0024 24.725 37.825 23.0524 37.825 20.7355C37.825 17.9387 35.179 15.2927 32.3823 15.2927H21.3871V16.9516Z" fill="black"/>
<path fill-rule="evenodd" clip-rule="evenodd" d="M27.9677 36.6935H41.129V33.4032H27.9677V36.6935Z" fill="#2E4DA0"/>
<path fill-rule="evenodd" clip-rule="evenodd" d="M9.04838 8.31452C9.55564 7.17662 12.0782 6.46372 12.9419 7.93065C13.4355 8.76694 13.0242 9.63065 12.5032 10.0282C11.8589 10.5081 10.7758 10.371 9.87096 10.371V10.5766V12.0161C11.7081 12.0161 12.5855 12.1669 13.6411 11.2621C14.3403 10.6726 15.1081 9.4113 14.7379 7.95807C13.7645 4.10565 8.2258 4.85968 6.86854 8.60243C6.01854 10.9742 6.96451 13.579 9.18548 14.7581C10.4605 15.4298 11.3379 15.3065 13.1613 15.3065V13.6613C11.0774 13.6613 9.17177 13.5927 8.44516 11.4952C8.04758 10.3847 8.30806 8.8492 9.04838 8.31452Z" fill="black"/>
<path fill-rule="evenodd" clip-rule="evenodd" d="M18.0968 23.121V23.5323H19.7419C19.9064 21.4895 21.2226 20.242 23.4435 20.242H31.2581V18.5968H22.621C20.3863 18.5968 18.0968 20.8863 18.0968 23.121Z" fill="black"/>
<path fill-rule="evenodd" clip-rule="evenodd" d="M9.0484 8.31456C9.0484 8.9452 9.00727 9.2194 9.21292 9.68553C9.36372 10.042 9.58308 10.3847 9.87098 10.5767V10.371C10.7758 10.371 11.8589 10.5081 12.5032 10.0283C13.0242 9.63069 13.4355 8.76698 12.9419 7.93069C12.0782 6.46375 9.55566 7.17665 9.0484 8.31456Z" fill="#2E4DA0"/>
</g>
<defs>
<clipPath id="clip0_1_526">
<rect width="51" height="51" fill="white" transform="translate(0 0.5)"/>
</clipPath>
</defs>
</svg>
