<svg width="51" height="30" viewBox="0 0 51 30" fill="none" xmlns="http://www.w3.org/2000/svg">
<g clip-path="url(#clip0_1_554)">
<path fill-rule="evenodd" clip-rule="evenodd" d="M1.69657 8.07014V5.21705C5.38533 5.21705 8.4443 6.01591 11.4904 7.04303C13.0713 7.5756 14.1124 9.36353 14.8322 10.7203C15.3977 10.5935 15.7447 10.1751 16.3231 10.137C16.2845 9.62982 16.0403 9.52838 15.9246 9.0592C17.1971 9.89611 18.3538 10.4667 19.7419 11.5826C20.0761 11.8489 20.2946 12.0391 20.6159 12.2927C22.6852 13.9158 24.4718 16.2743 26.631 17.555C33.0189 21.3592 38.6227 16.5279 38.8284 16.5279H41.129C41.129 19.5839 41.5789 19.5839 38.6099 22.5004C37.6074 23.4895 36.5277 24.3771 35.281 25.1125C34.6512 25.4803 34.0086 25.8861 33.3402 26.1523C28.1991 28.2192 26.7339 27.8388 21.0015 27.8388C17.4284 27.8388 12.9171 26.2031 9.9995 24.0474L9.44682 23.6163C11.3747 23.4641 13.9967 21.6635 15.1663 20.1165C16.6058 18.2144 17.1457 16.604 17.3128 14.2708C17.3513 13.7509 17.2099 13.7129 17.2099 13.193C16.8629 13.193 15.5134 13.231 15.5134 13.4847C15.5134 14.0172 15.629 14.1567 15.4877 15.2345C14.9864 19.0133 11.439 22.1327 7.84022 22.1327C7.50605 22.1327 6.8377 21.1943 6.56779 20.928C5.83518 20.2179 4.98689 18.8992 4.44708 18.0115L3.56023 16.3377C2.54486 14.2962 1.69657 11.1134 1.69657 8.07014ZM51 1.08325V6.58653C50.9357 8.01941 50.4859 9.83271 50.1132 10.9359C49.6505 12.3054 49.1363 13.3452 48.4037 14.5498C47.2213 16.5026 46.3087 17.3648 44.7021 18.8611C43.9181 19.5966 42.7356 20.1165 42.3886 20.611C41.0776 22.4877 39.7666 23.984 37.8644 25.3915C36.9005 26.1016 35.6794 26.9385 34.5612 27.4204C32.8647 28.0544 31.5922 28.7265 29.5872 29.0815C29.1116 29.2337 28.4819 29.3351 27.9934 29.3605C26.2712 29.4619 24.7417 29.5 23.0194 29.5126L21.4257 29.5C19.5106 29.4492 18.2382 29.1703 16.4516 28.8533C10.2051 27.3316 4.74269 22.8301 2.0436 17.0859C1.47807 15.8812 1.01537 14.6639 0.655494 13.2437C0.218498 11.5699 0.0514113 10.0229 0 8.46323V3.54324C3.66305 3.54324 4.66557 3.59396 8.17439 4.31675C10.6293 4.82396 12.7886 5.68623 14.8322 6.58653C21.3485 9.43961 25.0373 14.6386 27.505 16.0968C29.4715 17.2634 32.5562 17.6819 34.754 16.8069C36.0008 16.3124 35.9622 16.4011 36.9904 15.6657C41.7331 12.2927 41.129 6.29488 41.129 1.08325H43.0184C43.2112 1.45098 43.5197 1.84407 43.7896 2.18644L46.0131 5.3185L49.0978 1.09593H51V1.08325ZM42.8256 18.0876V14.8415H40.3322C40.435 14.461 41.5917 13.2184 42.3758 10.1751C42.8642 8.31106 42.8128 6.13004 42.8128 3.83489L44.4322 5.97787C44.7021 6.37097 45.8203 7.96869 46.1031 8.1589C46.283 7.89261 48.9435 4.06314 49.2906 3.83489C49.2906 8.75487 48.6736 11.646 45.5633 15.5896C45.0363 16.2617 43.5582 17.7072 42.8256 18.0876Z" fill="black"/>
<path fill-rule="evenodd" clip-rule="evenodd" d="M29.0088 1.60318C29.7029 2.63029 30.3841 2.4274 30.3841 4.13925C30.3841 5.66089 28.7903 5.29316 28.7903 8.26037C28.7903 9.54109 29.8442 10.8472 30.6797 11.4051L31.9007 10.2512C31.0781 9.69325 30.4869 8.97047 30.4869 7.86728C30.4869 6.47244 32.0806 6.14275 32.0806 4.22801C32.0806 3.23894 32.0806 2.5542 31.4123 1.74266C31.0653 1.32421 30.6283 0.778953 30.1913 0.487305L29.0088 1.60318Z" fill="black"/>
<path fill-rule="evenodd" clip-rule="evenodd" d="M6.56779 15.6277C4.53704 15.6277 4.87121 15.3107 4.87121 17.0986C4.87121 17.5551 5.43674 17.3902 6.56779 17.3902V18.9626H8.26436V17.3902H9.85811V15.6277H8.26436V14.0553H6.56779V15.6277Z" fill="black"/>
<path fill-rule="evenodd" clip-rule="evenodd" d="M34.7797 3.27702C34.9597 3.55599 35.3581 3.75887 35.3581 4.24073C35.3581 4.74794 34.754 4.91279 34.4327 5.19176C33.3274 6.1935 33.5073 8.12092 34.754 8.95782L35.9236 7.85463C35.538 7.25866 34.844 6.89092 35.9879 6.14278C37.3889 5.2298 37.4146 3.13754 35.9493 2.17383L34.7797 3.27702Z" fill="black"/>
<path fill-rule="evenodd" clip-rule="evenodd" d="M24.9216 3.27702C25.1016 3.55599 25.5 3.75887 25.5 4.24073C25.5 4.95083 23.8034 5.14103 23.8034 6.89092C23.8034 7.79123 24.3433 8.59009 24.8959 8.95782L26.0655 7.85463C25.9242 7.62639 25.4872 7.27134 25.4872 6.89092C25.4872 6.14278 26.7981 6.24423 27.0809 4.73526C27.2994 3.59403 26.811 2.66836 26.0784 2.17383L24.9216 3.27702Z" fill="black"/>
<path fill-rule="evenodd" clip-rule="evenodd" d="M18.3024 22.3863L19.4977 23.6163L22.8266 20.3701L21.6313 19.1401L18.3024 22.3863Z" fill="black"/>
<path fill-rule="evenodd" clip-rule="evenodd" d="M27.3636 23.1725L28.559 24.4025L31.9007 21.1563L30.654 19.9771L27.3636 23.1725Z" fill="black"/>
<path fill-rule="evenodd" clip-rule="evenodd" d="M22.4282 23.2232L23.5849 24.4025L26.9138 21.1563L25.7699 19.9771L22.4282 23.2232Z" fill="black"/>
</g>
<defs>
<clipPath id="clip0_1_554">
<rect width="51" height="29" fill="white" transform="translate(0 0.5)"/>
</clipPath>
</defs>
</svg>
