<svg width="74" height="118" viewBox="0 0 74 118" fill="none" xmlns="http://www.w3.org/2000/svg">
<g clip-path="url(#clip0_1_663)">
<path fill-rule="evenodd" clip-rule="evenodd" d="M9.36145 107.643H18.9458L17.8685 114.412H10.4388C10.4016 112.784 9.36145 109.159 9.36145 107.643ZM63.5984 114.412H56.1687L55.0914 107.643H64.6385C64.6014 109.714 63.6355 112.34 63.5984 114.412ZM3.60341 97.0263H70.3966C70.3966 101.835 68.6134 104.018 63.8213 104.018H10.2159C5.38655 104.018 3.60341 101.835 3.60341 97.0263ZM7.05823 13.6125C8.20984 12.6138 19.4659 13.0947 21.9177 13.0947H52.3424C54.757 13.0947 65.8273 12.6138 66.9789 13.6125C67.6847 13.7605 68.1677 14.0934 68.6877 14.5003C69.2078 14.9442 69.4307 15.3881 69.7651 15.9799C70.8795 17.9774 70.4337 28.0019 70.4337 30.9981V93.4752L59.995 93.5122H14.0422L3.60341 93.4752V20.8257C3.60341 18.2364 3.71486 14.3154 7.05823 13.6125ZM0 19.531V97.6552C0 101.872 2.19177 105.978 5.53514 106.755C5.53514 107.68 5.79518 108.715 5.94377 109.529C6.27811 111.564 7.24398 116.483 7.24398 117.963H21.0633C21.0633 116.594 21.6576 114.079 21.8434 112.821C22.1406 111.046 22.3635 109.233 22.7721 107.606H51.2651L52.9739 118H66.7932C66.7932 115.707 68.502 108.567 68.502 106.792C69.9879 106.459 71.7339 104.72 72.5141 103.574C73.5542 102.02 74.0371 100.208 74.0371 97.6922V19.531C74.0371 18.0144 73.8514 16.8677 73.5171 15.61C73.1456 14.3154 72.5512 13.5386 71.8454 12.6138C70.7681 11.2082 68.1677 9.58057 65.753 9.58057H8.28414C4.90361 9.58057 1.4488 12.5028 0.557229 15.4621C0.222892 16.6088 0 17.9035 0 19.531Z" fill="black"/>
<path fill-rule="evenodd" clip-rule="evenodd" d="M16.011 16.5718H37L36.8886 27.0771H15.9367L16.011 16.5718ZM7.05823 13.6125C6.46385 21.3806 6.501 28.4088 13.3363 32.5147C16.5311 34.4382 19.3544 34.1793 24.2209 34.1793C32.6536 34.1793 41.0863 34.1793 49.5191 34.1793C54.4598 34.1793 57.3946 34.4752 60.6265 32.5147C62.001 31.7009 63.0412 30.9611 64.007 29.7404C67.4247 25.5235 67.3876 19.642 66.9046 13.6125C65.753 12.6138 54.6827 13.0947 52.2681 13.0947H21.9177C19.4659 13.0947 8.20984 12.5768 7.05823 13.6125Z" fill="#2E4E9F"/>
<path fill-rule="evenodd" clip-rule="evenodd" d="M21.2119 86.521H52.7139L52.7882 90.0351H21.249L21.2119 86.521ZM21.3604 79.5298H52.7882L52.751 83.0439H21.2119L21.3604 79.5298ZM14.0422 93.4752H59.995V72.4646H14.0422V93.4752Z" fill="#2E4E9F"/>
<path fill-rule="evenodd" clip-rule="evenodd" d="M18.8343 19.531H34.1024V24.1179H18.8343V19.531ZM15.9368 27.0771H36.8886L37 16.5718H16.011L15.9368 27.0771Z" fill="black"/>
<path fill-rule="evenodd" clip-rule="evenodd" d="M21.249 90.0351H52.8253L52.751 86.521H21.2119L21.249 90.0351Z" fill="black"/>
<path fill-rule="evenodd" clip-rule="evenodd" d="M21.2119 83.0439H52.751L52.7882 79.5298H21.3604L21.2119 83.0439Z" fill="black"/>
<path fill-rule="evenodd" clip-rule="evenodd" d="M51.9337 3.51411H55.3514V11.1342H58.8434V0.110972L48.3303 0V11.1342H51.6365C51.6365 7.69404 51.6737 4.03197 51.9337 3.51411Z" fill="black"/>
<path fill-rule="evenodd" clip-rule="evenodd" d="M51.0793 19.9749L51.0422 16.5718H47.6617V19.9749H51.0793Z" fill="black"/>
<path fill-rule="evenodd" clip-rule="evenodd" d="M58.1004 19.9749L58.0632 16.5718H54.6827V19.9749H58.1004Z" fill="black"/>
<path fill-rule="evenodd" clip-rule="evenodd" d="M58.1004 27.0031L58.0632 23.563H54.7199L54.6827 27.0031H58.1004Z" fill="black"/>
<path fill-rule="evenodd" clip-rule="evenodd" d="M44.0211 19.9749V16.5718H40.6777L40.6406 19.9749H44.0211Z" fill="black"/>
<path fill-rule="evenodd" clip-rule="evenodd" d="M44.0582 26.9661L44.0211 23.563H40.6777L40.6406 26.9661H44.0582Z" fill="black"/>
<path fill-rule="evenodd" clip-rule="evenodd" d="M51.0793 26.9661L51.0422 23.563L47.7359 23.6L47.6988 26.9661H51.0793Z" fill="black"/>
</g>
<defs>
<clipPath id="clip0_1_663">
<rect width="74" height="118" fill="white"/>
</clipPath>
</defs>
</svg>
