<svg width="82" height="96" viewBox="0 0 82 96" fill="none" xmlns="http://www.w3.org/2000/svg">
<g clip-path="url(#clip0_1_651)">
<path fill-rule="evenodd" clip-rule="evenodd" d="M46.3779 79.4315C36.6942 79.3967 28.8435 71.4953 28.8435 61.7491C28.8435 52.0029 36.6942 44.0667 46.3779 44.0667V79.4315Z" fill="#2E4E9F"/>
<path fill-rule="evenodd" clip-rule="evenodd" d="M6.15605 88.5163H46.0321C49.1792 88.5163 49.1792 92.2756 46.0321 92.2756H6.15605C3.00886 92.2408 3.00886 88.5163 6.15605 88.5163ZM44.7178 46.6773V76.6817C28.7398 76.3336 24.14 54.8919 38.631 48.0348C40.2218 47.3038 42.954 46.7469 44.7178 46.6773ZM26.0768 60.9485C26.0768 64.3597 26.388 66.8658 27.806 69.6853C31.0569 76.264 37.1784 80.4409 44.7178 80.4409V84.7571H7.47027V38.6367H44.7178V42.9529C41.6744 42.9529 39.0806 43.5446 36.7634 44.6933C30.7457 47.7215 26.0768 53.8129 26.0768 60.9485ZM6.15605 31.1182H46.0321C49.1792 31.1182 49.1792 34.8774 46.0321 34.8774H6.15605C3.00886 34.8774 3.00886 31.1182 6.15605 31.1182ZM21.8229 15.5591C30.9532 15.5591 38.1468 14.2712 42.8849 22.5207C43.8186 24.1566 44.0953 25.3401 44.5795 27.3938H7.64319C8.61156 23.2168 9.407 21.6853 12.1738 19.0051C14.4218 16.7774 17.4306 15.5591 21.8229 15.5591ZM20.5086 10.3031C20.5086 6.05656 22.8258 3.72444 27.0451 3.72444H31.714V11.7999H20.5086V10.3031ZM16.7735 12.1827C14.5947 13.227 13.8684 12.8441 10.6175 15.1762C7.67777 17.2995 5.18768 21.2676 4.2539 24.8876C4.04639 25.6186 4.04639 26.0363 3.87347 26.9413C3.70055 27.8811 3.56221 27.7418 2.80135 28.0899C-1.38338 30.1784 -0.691691 37.2096 3.73513 38.2538V85.14C1.69464 85.6273 0 88.029 0 89.8042V90.9181C0 93.285 2.66301 95.9652 5.01476 95.9652H47.1388C49.4905 95.9652 52.1535 93.285 52.1535 90.9181C52.1535 89.3169 52.1535 88.203 50.9776 86.8455C50.2514 86.0101 49.6288 85.3836 48.4184 85.1051V38.2538C50.4589 37.7665 52.1535 35.3299 52.1535 33.5547C52.1535 28.0899 48.6605 28.6468 48.3146 27.1153C48.1417 26.454 48.1763 25.9318 48.0034 25.2009C47.5538 23.3561 46.9312 21.7897 45.9629 20.1537C43.9916 16.8818 40.8098 14.132 37.2476 12.7745C36.6596 12.5656 35.8988 12.4264 35.4146 12.1827V2.05366C35.38 0.696157 34.4808 0 33.9275 0H25.3505C24.0363 0 22.4108 0.661349 21.5116 1.18347L19.6094 2.6454C19.5749 2.6802 19.5403 2.71501 19.5057 2.74982C16.7043 5.53445 16.7735 7.69253 16.7735 12.1827Z" fill="black"/>
<path fill-rule="evenodd" clip-rule="evenodd" d="M48.453 13.2966C48.453 15.4199 52.361 15.3154 55.3699 15.6983L71.9359 17.7868C74.0801 18.0305 78.6453 18.7266 80.3054 18.7266C81.4812 18.7266 81.9654 17.8216 81.9654 16.6729C81.9654 14.5497 78.0574 14.6541 75.0485 14.2712C72.2126 13.9231 69.6187 13.6099 66.7482 13.227L54.3323 11.6606C51.3581 11.2777 48.453 10.3379 48.453 13.2966Z" fill="black"/>
<path fill-rule="evenodd" clip-rule="evenodd" d="M48.453 5.43002C48.453 8.38869 51.2197 7.44887 54.194 7.1008C62.2522 6.09137 71.0713 4.83829 79.0257 3.96809C80.4783 3.79405 82 3.65482 82 2.08847C82 0.661346 81.3429 0.139229 80.3745 0.0348053H79.2332C78.334 0.104421 77.2965 0.313268 76.259 0.452499L51.4272 3.5852C49.9747 3.68963 48.453 3.86367 48.453 5.43002Z" fill="black"/>
<path fill-rule="evenodd" clip-rule="evenodd" d="M11.1708 51.9333V78.9442C11.1708 80.0232 12.3813 80.4409 13.4188 80.4409C13.9722 80.4409 14.9059 79.5011 14.9059 78.9442V51.9333C14.9059 50.8542 13.6955 50.4366 12.6579 50.4366C12.1392 50.4366 11.1708 51.3764 11.1708 51.9333Z" fill="black"/>
<path fill-rule="evenodd" clip-rule="evenodd" d="M11.1708 44.4496C11.1708 47.8956 14.9059 46.7817 14.9059 45.2154C14.9059 41.7346 11.1708 42.8484 11.1708 44.4496Z" fill="black"/>
</g>
<defs>
<clipPath id="clip0_1_651">
<rect width="82" height="96" fill="white"/>
</clipPath>
</defs>
</svg>
