<svg width="64" height="108" viewBox="0 0 64 108" fill="none" xmlns="http://www.w3.org/2000/svg">
<g clip-path="url(#clip0_1_658)">
<path fill-rule="evenodd" clip-rule="evenodd" d="M55.5398 81.4818V85.6445C55.5398 92.7366 49.6255 98.5567 42.4186 98.5567H22.4431C15.2362 98.5567 9.3219 92.7366 9.3219 85.6445V81.4818H55.5398Z" fill="#2E4E9F"/>
<path fill-rule="evenodd" clip-rule="evenodd" d="M3.72094 84.1799V71.5375C3.72094 70.5353 4.38679 69.8415 5.44432 69.8415H58.5949C59.6132 69.8415 60.3182 70.4968 60.3182 71.5375C60.3182 77.5889 61.0624 87.6103 58.5949 92.4283C56.284 97.015 53.8164 100.098 48.7246 102.565C46.8054 103.49 43.4761 104.454 40.5777 104.454H23.4223C17.8996 104.454 13.1212 101.987 9.43942 98.4026C5.87516 94.8565 3.72094 89.5375 3.72094 84.1799ZM31.6083 0H32.4309C34.0367 0.115632 35.6034 0.88651 36.5043 2.31263C37.5227 3.89293 37.366 5.28051 37.366 7.78587L37.5618 45.1349C37.5618 43.5931 41.3219 22.2398 41.5569 20.8137C41.9486 18.4625 44.0637 4.35546 44.8862 2.8137C45.8262 1.07923 47.3929 0.192719 48.9988 0H50.213C52.093 0.192719 53.8556 1.34904 54.5998 3.23769C55.3831 5.20343 54.7173 7.36188 54.3256 9.59743L48.8029 42.1285C48.5679 43.5546 47.7846 47.5246 47.7846 48.7195C50.683 48.7195 52.6022 48.2955 54.0514 49.9143C54.8348 50.8009 54.8348 51.3405 54.8348 51.6488V56.3126C54.7956 56.5054 54.7564 56.7366 54.6781 56.9679C54.2081 58.2784 53.0331 59.2034 51.4272 59.242V65.9871C52.1322 65.9871 58.5165 65.9486 58.5165 66.1799C61.6108 66.1799 63.8825 68.3383 63.8825 71.4604C63.8825 76.1242 64.235 85.5289 63.295 89.6531C61.1408 96.6681 59.6132 97.6317 59.6132 97.6317C58.9474 100.098 52.7197 105.109 49.3905 106.15C47.1579 107.075 43.9853 108 40.9694 108H22.9523C19.9755 108 16.4504 106.998 14.3746 106.111C12.377 105.225 12.2987 104.955 11.0845 104.261C8.85191 102.874 6.97186 101.216 5.32682 99.212C-1.01835 91.5417 0.039179 84.1028 0.039179 74.0428C0.039179 69.6103 0.19585 66.758 5.67933 66.0642C7.48104 65.833 10.5361 66.0257 12.4945 66.0257V59.2805C11.2411 59.242 10.6145 58.8565 9.9486 58.2013C9.04775 57.2762 9.32192 57.0064 8.89108 56.0428V51.9957C9.08691 51.8415 9.00858 51.5717 9.20442 51.0321C10.2619 48.1799 13.1604 48.758 16.0979 48.758C16.0979 47.5246 15.8238 46.561 15.6279 45.4047L9.63526 9.59743C9.24358 7.36188 8.57773 5.24197 9.36109 3.23769C9.9486 1.73448 11.7503 0 13.787 0C19.6622 0 19.5839 4.16274 20.3672 8.71092C21.0722 12.8351 21.6989 16.6895 22.4039 20.8137C23.0698 24.7452 23.7748 28.9465 24.4406 32.9165L26.0074 42.1285C26.164 43.0535 26.399 43.9786 26.399 45.0964L26.634 7.59315C26.634 5.04925 26.4382 3.81585 27.5741 2.197C28.5141 0.847966 30.0416 0.115632 31.6083 0ZM45.9437 59.2805H47.8629V66.0257H44.847C44.9253 63.9443 45.9045 61.3619 45.9437 59.2805ZM16.1371 59.2805H18.0563C18.0955 60.2056 18.4088 61.5161 18.5655 62.5567C18.7613 63.6745 19.0355 64.985 19.1138 66.0257H16.0979V59.2805H16.1371ZM28.9841 59.2805H34.9768L33.9192 66.0257H30.0416L28.9841 59.2805ZM41.2044 66.0257H37.7577L38.8152 59.2805H42.2619C42.0269 60.2441 41.8311 61.5546 41.6744 62.5182C41.5178 63.7131 41.2044 64.7537 41.2044 66.0257ZM21.6989 59.2805H25.1457L26.2032 66.0257H22.7564C22.7956 65.2163 21.8947 59.7045 21.6989 59.2805ZM12.4945 52.3041H51.5055V55.6959H12.4945V52.3041ZM30.2766 5.28051C30.2766 4.27837 30.9425 3.58458 32 3.58458C33.0575 3.58458 33.7234 4.23983 33.7234 5.28051V48.7195H30.2766V5.28051ZM44.0245 48.7195H40.5777C40.9694 46.985 41.2436 45.0578 41.5569 43.1306L44.4553 25.7473C44.6512 24.7066 47.7063 5.01071 48.2938 4.20128C49.1555 3.04497 51.2705 3.46895 51.2705 5.04925C51.2705 6.86081 50.7222 9.05782 50.4872 10.5996C50.1738 12.4882 49.8605 14.1842 49.5863 16.0343C48.9596 19.6574 48.3721 23.1649 47.7454 26.8651L45.0037 43.1306C44.6512 45.0578 44.4162 46.985 44.0245 48.7195ZM12.7295 5.04925C12.7295 3.43041 15.5887 2.58244 16.0979 5.31906L19.5055 25.5931C20.2105 29.6788 22.5998 45.212 23.4223 48.7195H19.9755L18.0955 37.8886C17.4688 34.1884 16.8813 30.758 16.2546 27.0578L13.5129 10.7923C13.2387 9.1349 12.7295 6.89936 12.7295 5.04925Z" fill="black"/>
<path fill-rule="evenodd" clip-rule="evenodd" d="M24.7148 76.7794H28.1616L29.1799 82.7537C29.885 86.9165 31.3733 90.5011 28.1616 90.5011C26.5557 90.5011 26.2815 86.2227 25.9682 84.2184C25.5374 81.9058 25.0282 79.2462 24.7148 76.7794ZM31.8042 76.7794H53.2289C53.2289 82.985 54.0123 88.9979 49.6255 93.2762C47.2363 95.5889 44.2987 97.439 40.5777 97.439H23.4223C16.9205 97.439 10.7711 91.5032 10.7711 84.3726V76.7794H21.0722C21.0722 78.167 22.4431 85.4904 22.7564 87.3405C23.2656 90.4625 23.8923 94.0471 28.5924 94.0471C30.6292 94.0471 31.765 93.1606 32.7442 92.0043C34.7026 89.6146 33.4492 85.9143 32.7834 82.0985C32.5875 81.0578 32.0784 77.3961 31.8042 76.7794ZM7.12854 84.7966C7.12854 89.1135 9.04776 93.122 12.0245 96.0128C13.6695 97.6317 14.4921 98.3255 16.7246 99.4047C18.448 100.253 20.7589 101.024 23.2265 101.024H40.8128C43.2803 101.024 45.5912 100.253 47.3146 99.4047C52.5239 96.8223 56.8715 91.349 56.8715 84.758V73.1563H7.12854V84.7966Z" fill="black"/>
<path fill-rule="evenodd" clip-rule="evenodd" d="M35.6818 76.7409L34.6634 82.7152C33.9584 86.878 32.47 90.4625 35.6818 90.4625C37.2877 90.4625 37.5618 86.1842 37.8752 84.1799C38.2669 81.8672 38.776 79.2077 39.0894 76.7409H42.732C42.732 78.1285 41.3611 85.4518 41.0478 87.3019C40.5386 90.424 39.9119 94.0086 35.2118 94.0086C33.1751 94.0086 32.0392 93.1221 31.06 91.9657C29.1016 89.576 30.355 85.8758 31.0208 82.06C31.2167 80.9807 31.7259 77.3191 32 76.7024H35.6818V76.7409Z" fill="black"/>
</g>
<defs>
<clipPath id="clip0_1_658">
<rect width="64" height="108" fill="white"/>
</clipPath>
</defs>
</svg>
