<svg width="98" height="80" viewBox="0 0 98 80" fill="none" xmlns="http://www.w3.org/2000/svg">
<g clip-path="url(#clip0_1_362)">
<path fill-rule="evenodd" clip-rule="evenodd" d="M67.7224 36.7284H78.9671C78.824 37.3606 78.6013 37.977 78.2832 38.4827C76.7404 40.8849 74.0525 41.8964 71.3169 40.9007C70.0922 40.4582 69.1857 39.6048 68.4859 38.5617C68.2791 38.2614 68.1678 38.0402 68.0405 37.7083C67.9133 37.408 67.8338 36.9497 67.7224 36.7284ZM67.5793 32.1453H79.1102V34.4369H67.5793V32.1453ZM72.1917 20.6874H74.4979V29.8537H72.1917V20.6874ZM77.8061 18.3958H76.8041C76.8041 17.7794 76.6768 16.1042 77.9492 16.1042C79.3329 16.1042 79.5715 18.3958 77.8061 18.3958ZM67.5793 17.2579C67.5793 15.8987 69.8855 15.6617 69.8855 17.4001V18.3958C69.2652 18.3958 67.5793 18.5222 67.5793 17.2579ZM65.2731 16.9734C65.2731 19.186 66.6727 20.7032 68.4382 20.7032H69.8855V29.8695C68.1837 29.8695 68.5972 30.1066 68.1201 29.1899C67.2453 27.5147 66.8636 27.2302 65.6707 25.9027C61.5991 21.3511 58.9907 16.3412 61.7741 9.94062C65.4799 1.39064 77.6311 -0.584867 83.659 7.72805C87.333 12.7695 86.506 19.6759 82.4661 24.1642C82.164 24.4961 82.1162 24.6384 81.8141 24.9544C80.1282 26.7561 79.6828 27.2618 78.4741 29.3638C78.1401 29.9643 78.6172 29.8537 76.8041 29.8537V20.6874H78.2514C80.0168 20.6874 81.4164 19.186 81.4164 16.9576C81.4164 15.2034 79.9055 13.8126 77.6629 13.8126C76.0724 13.8126 74.4979 15.393 74.4979 16.9576V18.3958H72.1917V16.9576C72.1917 15.2034 70.6807 13.8126 68.4382 13.8126C66.8636 13.8126 65.2731 15.393 65.2731 16.9734ZM60.2313 7.5226C60.1041 8.18637 59.1975 9.64034 58.7681 11.5052C58.4182 13.0224 58.2909 14.6976 58.4182 16.3412C58.784 21.1931 60.5176 22.4732 61.2492 24.2749C61.3287 24.3697 61.4242 24.4645 61.5196 24.591L62.4898 25.7763C62.7761 26.1397 62.792 26.1556 63.0942 26.4716C63.8417 27.2776 65.798 29.5218 66.0047 30.4384C65.4799 31.2128 65.2731 31.0706 65.2731 32.4298C65.289 35.148 65.0186 37.4554 66.3069 39.5732C70.6807 46.7166 81.4482 43.9193 81.4164 35.3061C81.4164 34.4053 81.4164 33.4886 81.4164 32.5878C81.4323 31.0864 81.2733 31.3077 80.6848 30.4384C80.987 29.1583 83.8181 26.2346 84.6769 25.2389C87.9056 21.4618 89.2257 15.8671 87.8261 11.0311C86.5219 6.47953 83.4841 3.12908 79.2375 1.2326C72.812 -1.62793 65.3049 0.758475 61.1856 6.19506C60.8993 6.59016 60.5335 7.30134 60.2313 7.5226Z" fill="black"/>
<path fill-rule="evenodd" clip-rule="evenodd" d="M59.1816 33.2831C59.1816 30.8493 56.2074 28.6683 53.6149 30.6122C52.6924 31.3076 52.5811 32.2716 52.263 32.2716C51.4678 32.2716 51.1338 32.082 50.4976 32.2242C49.8773 32.3664 49.4797 32.5561 49.0821 32.8406C45.4399 35.4324 49.4638 41.0428 53.2173 38.2297C54.1398 37.5344 54.2511 36.5703 54.5692 36.5703C55.3644 36.5703 55.6984 36.76 56.3346 36.6177C57.9887 36.2384 59.1816 34.8951 59.1816 33.2831ZM61.4878 32.8564V33.7098C61.4878 36.2858 59.1339 38.4984 56.939 38.9251C56.605 38.9883 56.1756 38.9725 55.9052 39.0515C54.8714 39.336 54.7124 41.2957 50.6725 41.2957C48.0165 41.2957 45.3445 38.6406 45.3445 36.0014V35.1479C45.3445 32.5719 47.6984 30.3593 49.8932 29.9326C50.2272 29.8694 50.6566 29.8852 50.927 29.8062C51.9926 29.5217 52.0722 27.562 56.1597 27.562C58.8158 27.562 61.4878 30.2171 61.4878 32.8564Z" fill="black"/>
<path fill-rule="evenodd" clip-rule="evenodd" d="M48.8117 46.4481C48.8117 44.2356 45.3604 44.2356 45.3604 46.4481C45.3604 48.6765 48.8117 48.6765 48.8117 46.4481ZM51.1179 46.0214V46.8748C51.1179 48.5501 49.2093 50.4465 47.5234 50.4465H46.6645C44.9786 50.4465 43.0701 48.5501 43.0701 46.8748V46.0214C43.0701 44.3462 44.9786 42.4497 46.6645 42.4497H47.5234C49.2093 42.4497 51.1179 44.3462 51.1179 46.0214Z" fill="black"/>
<path fill-rule="evenodd" clip-rule="evenodd" d="M88.9076 22.6944L93.7267 24.6383C94.2357 24.8596 94.9196 25.1598 95.3967 25.2705C95.5557 24.5593 95.9534 23.7059 96.2556 23.1211C94.8718 22.3941 91.2615 21.193 89.7664 20.4028C89.5597 20.8295 88.9394 22.2203 88.9076 22.6944Z" fill="black"/>
<path fill-rule="evenodd" clip-rule="evenodd" d="M88.9076 7.23817C88.9553 7.71229 89.5597 9.10304 89.7664 9.52975L92.8997 8.20221C93.9176 7.80711 95.0627 7.19075 96.1124 6.95369C96.0965 5.94224 95.4603 5.57874 95.3967 4.66211C94.7605 4.80435 94.4106 5.0256 93.838 5.26266C93.3132 5.46811 92.7247 5.73678 92.2157 5.94224L88.9076 7.23817Z" fill="black"/>
<path fill-rule="evenodd" clip-rule="evenodd" d="M90.0527 10.3833C90.0686 11.2209 90.4185 12.0111 90.4822 12.8172C99.6274 10.6994 96.9713 12.5959 96.9713 9.0874C95.9693 9.18223 91.2615 10.3833 90.0527 10.3833Z" fill="black"/>
<path fill-rule="evenodd" clip-rule="evenodd" d="M90.0527 19.5495C91.0706 19.5495 94.8242 20.3872 96.1443 20.6716C97.1781 20.8929 96.9077 20.719 97.1463 19.5812C97.4325 18.222 97.9574 18.6171 94.5538 17.9375C93.2814 17.6847 91.7864 17.416 90.4822 17.1157C90.4185 17.9217 90.0686 18.7119 90.0527 19.5495Z" fill="black"/>
<path fill-rule="evenodd" clip-rule="evenodd" d="M90.6253 16.1041H97.5438V13.8125H90.6253V16.1041Z" fill="black"/>
<path fill-rule="evenodd" clip-rule="evenodd" d="M9.52695 68.8265C9.52695 63.7692 8.47723 59.7234 12.2467 57.2263L12.8351 56.7838C11.3242 56.1674 9.35199 54.3342 8.42952 53.2753C5.20085 49.5614 4.75552 45.8632 4.75552 41.1852C4.75552 38.9252 4.46924 35.5906 5.31219 33.7257C7.41161 29.2216 12.8828 30.3437 17.7179 30.3437C19.4197 30.3437 24.0798 30.723 25.2249 29.9011C26.3542 29.0951 27.2448 26.4401 23.4595 25.6024L24.1752 23.3425C26.8631 23.943 28.6445 25.5076 28.5331 28.621C31.9686 29.3164 34.4815 30.3911 35.4199 33.3622C35.8811 34.8004 35.8016 42.6708 35.6426 44.5673C35.1972 50.1145 32.0958 54.2868 27.6584 56.8154C27.0381 57.1631 26.1633 57.4318 25.6544 57.8269C26.72 58.8541 27.9606 59.1702 29.4079 61.8253C30.4576 63.7534 30.6485 65.7447 30.8234 68.1943L33.1614 68.1311C33.9089 66.7087 34.8791 66.0608 35.4994 63.4373C35.5948 63.0422 35.6266 62.41 35.7539 61.9833C36.0561 60.9403 39.2847 59.3282 40.2708 54.0181C40.6525 51.9478 40.6525 35.2271 40.2708 33.141C39.905 31.0706 39.3484 29.3322 38.569 27.6728C38.1714 26.8352 37.7738 26.1398 37.2648 25.397L35.738 23.3109C35.3404 23.0422 33.5908 21.2879 33.3046 20.9087C31.8095 19.9762 31.1256 18.949 28.2309 17.7795C26.6882 17.1631 23.0937 16.0094 21.4714 16.2465L19.0221 16.2623C18.0837 16.0884 15.523 16.689 14.7119 16.926C7.28438 19.0912 1.47914 25.2864 0.238571 32.9039C0.127238 33.5993 0.0477143 36.0489 0 39.0201V52.8802C0.127238 55.393 1.51095 58.2062 3.006 60.0394C3.37181 60.4977 3.86486 60.9245 4.29428 61.3354C4.97819 61.9991 4.6919 62.2046 4.96228 63.2477C5.55076 65.4918 7.63428 68.4156 9.52695 68.8265Z" fill="#2E4E9F"/>
<path fill-rule="evenodd" clip-rule="evenodd" d="M11.9604 74.7059C11.9922 74.7217 14.8232 77.5348 14.8391 77.5664H11.9604V74.7059ZM49.3524 80.0002H44.9468H9.51104L9.52695 68.8268C9.52695 63.7695 8.47723 59.7236 12.2467 57.2266L12.8351 56.7841C11.3242 56.1677 9.35199 54.3345 8.42952 53.2756C5.20085 49.5617 4.75552 45.8635 4.75552 41.1855C4.75552 38.9255 4.46923 35.5909 5.31219 33.726C7.41161 29.2219 12.8828 30.344 17.7179 30.344C19.4197 30.344 24.0798 30.7233 25.2249 29.9014C26.3542 29.0954 27.2448 26.4404 23.4595 25.6028L24.1752 23.3428C26.8631 23.9433 28.6445 25.5079 28.5331 28.6213C31.9686 29.3167 34.4815 30.3914 35.4199 33.3625C35.8811 34.8007 35.8016 42.6711 35.6426 44.5676C35.1972 50.1148 32.0958 54.2871 27.6584 56.8157C27.0381 57.1634 26.1633 57.4321 25.6544 57.8272C26.72 58.8544 27.9606 59.1705 29.4079 61.8256C30.4576 63.7537 30.6485 65.745 30.8234 68.1946L33.1614 68.1314C35.6744 68.1314 36.74 67.9417 38.3782 68.9532C39.4756 69.6328 40.5094 71.1184 40.5094 72.8568H45.4081L46.1238 67.5466C46.3624 65.8082 46.6168 64.1488 46.8554 62.4103C47.0622 60.8931 47.1576 58.8228 48.0005 57.6691C49.0184 56.2468 51.2451 56.1045 52.5016 56.4996C53.9966 56.9737 54.8873 58.4909 54.776 60.2452C54.7283 61.067 54.5692 62.0152 54.442 62.9161L52.8038 75.8912C52.3744 78.9255 51.2133 79.7948 49.3524 80.0002ZM49.2729 77.5664H35.738V75.2748H50.2908V75.7015C50.2749 76.5075 50.0045 77.5664 49.2729 77.5664ZM35.7221 70.5494C37.074 70.66 37.9169 71.4977 38.0283 72.841H35.7221V70.5494ZM11.9604 67.4044V62.1101C11.9604 58.4277 16.8749 57.6217 18.3064 60.6719C18.6563 61.4147 18.9585 63.4376 19.1493 64.4174C19.4197 65.7292 19.6583 66.9145 19.9287 68.242C20.1354 69.2061 19.9446 69.1586 19.3402 69.7434C18.9267 70.1543 18.6086 70.5494 18.1473 70.8497L19.8491 72.6039C20.374 72.2404 21.7259 70.5652 22.1871 70.5652H33.2727V77.5822H22.1871C20.7398 77.5822 19.1175 77.1239 18.0996 76.634C14.6801 74.9745 11.9604 71.3554 11.9604 67.4044ZM50.7044 72.841H47.8256C47.8415 72.3511 48.0165 71.4818 48.0642 71.0867L49.6705 59.9291C49.8614 58.728 50.1954 58.807 51.2769 58.807C52.7879 58.807 52.1994 60.4822 52.0404 61.715L50.7044 72.841ZM20.0241 58.807C24.7478 58.807 27.5629 61.794 28.1832 66.0136C28.2627 66.5668 28.39 67.6415 28.39 68.0998H22.7756C22.203 68.0998 22.2507 67.1831 21.9963 65.8714C21.8213 64.9706 21.6623 64.1804 21.4873 63.3586C21.0897 61.4147 20.9943 60.2452 20.0241 58.807ZM7.20485 43.9196V36.0492C7.20485 34.374 8.74761 32.9516 10.2427 32.7778C13.5031 32.3985 23.4436 33.3151 25.6862 32.3827C26.3701 32.0982 27.3244 31.5925 27.5152 30.9129C28.1196 30.9287 30.9825 31.7979 31.4278 32.035C32.4139 32.5565 33.2727 33.726 33.2727 35.2116V43.5087C33.2727 48.5502 29.885 53.3546 25.6862 55.1405C20.8511 57.195 14.9664 56.4838 11.2765 52.7699C10.2268 51.711 9.16114 50.4941 8.50904 49.0875C7.90466 47.7916 7.20485 45.7845 7.20485 43.9196Z" fill="black"/>
<path fill-rule="evenodd" clip-rule="evenodd" d="M17.1453 49.3558H23.3323C22.8074 51.6 19.2129 52.4376 17.543 50.2409C17.2726 49.8774 17.3044 49.7351 17.1453 49.3558ZM26.0838 46.7798H13.9803C13.9803 47.9177 14.8073 50.9046 15.7457 51.9003C16.8909 53.1172 18.6722 54.2235 20.4217 54.0496C23.6027 53.7336 25.2568 52.0267 25.9725 49.2452C26.2906 47.9651 26.8472 46.7798 26.0838 46.7798Z" fill="black"/>
<path fill-rule="evenodd" clip-rule="evenodd" d="M27.3721 39.7789C25.8293 39.7789 25.8293 37.4873 27.3721 37.4873C28.9308 37.4873 28.8194 39.7789 27.3721 39.7789ZM23.7776 38.3408C23.7776 39.5261 24.0003 40.4269 24.891 41.2487C28.3741 44.4411 33.1932 39.3206 29.9487 36.0808C27.5789 33.7418 23.7776 35.6857 23.7776 38.3408Z" fill="black"/>
<path fill-rule="evenodd" clip-rule="evenodd" d="M13.1055 39.7786C11.6264 39.7786 11.4196 37.487 13.2487 37.487C14.4415 37.487 14.696 39.7786 13.1055 39.7786ZM9.51105 38.3405C9.51105 43.7138 16.7159 43.1449 16.7159 38.6249C16.7159 36.6178 15.2209 35.0532 12.8192 35.0532C11.181 35.0532 9.51105 36.7126 9.51105 38.3405Z" fill="black"/>
</g>
<defs>
<clipPath id="clip0_1_362">
<rect width="97.5439" height="80" fill="white"/>
</clipPath>
</defs>
</svg>
