<svg width="33" height="33" viewBox="0 0 33 33" fill="none" xmlns="http://www.w3.org/2000/svg">
<g clip-path="url(#clip0_369_1025)">
<path d="M16.4999 0C9.23724 0 3.32861 5.9087 3.32861 13.1714V29.6631C3.32861 31.5031 4.82556 33 6.66549 33C10.0005 33 12.8065 30.6931 13.5726 27.5914C14.494 27.8956 15.478 28.0608 16.4999 28.0608C17.5219 28.0608 18.5059 27.8956 19.4273 27.5915C20.1935 30.6932 22.9994 33.0001 26.3344 33.0001C28.1744 33.0001 29.6713 31.5031 29.6713 29.6632V13.1714C29.6713 5.9087 23.7627 0 16.4999 0V0ZM16.4999 25.5552C12.7207 25.5552 9.64593 22.4805 9.64593 18.7012V13.7911C12.083 13.5635 13.8099 12.6897 14.9793 11.7837C16.0107 15.4491 19.3704 18.1495 23.3539 18.18V18.7012C23.354 22.4805 20.2793 25.5552 16.4999 25.5552ZM27.1658 29.6631C27.1658 30.1215 26.7929 30.4944 26.3345 30.4944C23.9805 30.4944 22.0343 28.72 21.76 26.4388C24.2327 24.7525 25.8596 21.9134 25.8596 18.7011V16.8343C25.8596 16.4679 25.6991 16.1198 25.4204 15.8817C25.1417 15.6437 24.7729 15.5396 24.4109 15.597C24.0849 15.6486 23.7523 15.6747 23.4223 15.6747C19.9686 15.6747 17.1588 12.8649 17.1588 9.41123C17.1588 9.27335 17.1644 9.12746 17.1759 8.96503C17.2185 8.3647 16.8337 7.80761 16.2518 7.65391C15.6718 7.50058 15.0701 7.76917 14.8093 8.309C14.7054 8.50157 13.0907 11.3427 8.39316 11.3427C7.70128 11.3427 7.14039 11.9036 7.14039 12.5955V18.7012C7.14039 21.9134 8.7672 24.7526 11.24 26.4389C10.9656 28.7201 9.01948 30.4945 6.66549 30.4945C6.20705 30.4945 5.83415 30.1216 5.83415 29.6631V13.1714C5.83415 7.29018 10.6188 2.50554 16.5 2.50554C22.3811 2.50554 27.1658 7.29018 27.1658 13.1714V29.6631Z" fill="#2E4DA0"/>
<path d="M17.5201 19.5942C17.0994 19.5942 16.7272 19.8016 16.5 20.1195C16.2728 19.8016 15.9006 19.5942 15.4799 19.5942C14.7881 19.5942 14.2272 20.1551 14.2272 20.847V20.9744C14.2272 22.2276 15.2468 23.2472 16.5001 23.2472C17.7533 23.2472 18.7729 22.2276 18.7729 20.9744V20.847C18.7729 20.1551 18.212 19.5942 17.5201 19.5942Z" fill="#2E4DA0"/>
</g>
<defs>
<clipPath id="clip0_369_1025">
<rect width="33" height="33" fill="white"/>
</clipPath>
</defs>
</svg>
