<svg width="133" height="80" viewBox="0 0 133 80" fill="none" xmlns="http://www.w3.org/2000/svg">
<g clip-path="url(#clip0_1_169)">
<path fill-rule="evenodd" clip-rule="evenodd" d="M17.491 65.7326H7.21224C7.09232 66.2422 6.97241 67.567 6.95527 68.1445C6.90388 69.9449 6.30429 74.6158 6.30429 75.9067H18.3818C18.3818 75.2783 18.2276 74.0044 18.1591 73.4439L17.7308 68.2634C17.7308 67.635 17.6109 66.2931 17.491 65.7326ZM15.4352 60.2634C14.5615 60.5012 14.5101 61.6562 11.9747 61.6562C10.6385 61.6562 10.056 61.0277 9.28512 60.5182V63.6944H15.4523V60.2634H15.4352ZM59.7536 51.4651H49.2179L48.3785 57.5118C48.1901 58.7517 47.5562 62.7772 47.5562 63.6944H61.4325C61.4154 61.9619 59.7536 52.8749 59.7536 51.4651ZM13.8934 57.9704C12.7456 57.6986 12.6428 57.3589 11.3066 57.8175C10.8269 57.9874 10.8441 58.1063 10.4329 58.2252C10.8783 60.1615 13.8249 60.0086 13.8934 57.9704ZM20.6945 77.9619C20.7116 77.9279 20.7288 77.86 20.7288 77.877L20.9343 77.3165C21.02 77.0447 21.0714 76.8409 21.157 76.5182C21.2941 75.9407 21.4311 75.4821 21.5682 75.0065C22.3048 72.3398 23.4355 68.2634 23.9666 65.6647C24.1721 64.6286 24.9088 59.55 24.5661 58.7347C23.6925 56.5946 22.6303 55.9152 22.6303 52.756C21.8937 53.1466 17.3197 56.5606 16.3432 57.2061C16.4974 57.8685 17.3368 58.5139 17.491 59.8897C17.6109 60.9258 17.5081 62.5904 17.5081 63.6944H19.5638C19.5638 64.9853 19.7865 66.0553 19.8208 67.2613C19.8722 70.0299 20.6945 75.7199 20.6945 77.9619ZM57.5608 42.5649C57.5608 41.7156 57.2696 41.0023 56.927 40.5267C56.6015 40.0681 56.0362 39.5246 55.2481 39.5076C55.1625 40.5267 53.7748 42.5649 53.141 43.3972C51.051 46.1318 51.3936 43.533 51.3936 49.4439H57.5608V42.5649ZM38.5452 45.3505H36.8835C35.1704 47.8812 34.5365 48.8494 31.9668 50.9216C30.5278 52.0766 27.1872 54.2167 24.943 54.4035C25.0972 55.049 25.9024 56.6286 26.3135 57.3759C26.896 58.429 26.7418 58.463 26.7418 59.8727C26.7418 65.5798 24.9088 70.4205 23.5725 75.7199C23.4012 76.4333 23.0586 77.3165 23.0072 77.9619H40.738C40.5496 75.6519 37.0205 66.8536 37.0205 59.8727C37.0205 57.6307 36.952 58.3611 38.1683 55.9322C39.1277 54.0299 39.5217 52.2804 38.2711 50.3441C37.4831 49.1042 37.0719 49.0702 36.6265 48.4078C37.7572 46.7432 36.952 48.6795 38.5452 45.3505ZM53.4494 37.843C53.4494 36.0766 51.1024 35.584 50.5028 37.2146C49.9546 38.6753 51.2566 38.8451 49.3036 41.1212C47.1965 43.55 44.13 45.3674 40.738 45.3674C40.3269 47.0999 39.6073 47.8303 39.4532 48.4248C40.1727 48.0851 44.2499 48.5606 49.2522 44.3823C49.612 44.0766 49.749 44.0086 50.0745 43.6689C50.8625 42.8876 52.2159 41.1551 52.7127 40.17C53.0211 39.6095 53.4494 38.6243 53.4494 37.843ZM29.8254 35.9407V42.5649C29.8254 45.6562 25.7653 45.4014 24.943 45.6222C22.5447 46.2337 21.671 47.3207 19.9579 48.5776C18.4846 49.6647 11.5464 54.998 11.0839 55.6944C11.9576 55.6265 11.495 55.5585 12.8827 55.5585C13.6364 55.5585 13.9277 55.9492 14.5444 55.9492L23.3841 49.5628C23.9837 49.1042 24.1036 48.3229 25.0801 47.6774L26.4677 49.1042C26.0394 49.7666 24.943 50.8197 24.8231 52.2634C27.0844 52.2125 31.3672 48.9853 32.9433 47.2018C33.166 46.9471 33.1831 46.8791 33.4058 46.6413L34.8449 44.6371C33.817 43.1084 33.954 43.2103 33.954 41.325H31.8983V39.2868C35.9927 39.2868 36.0098 37.2995 36.0098 34.1912C39.2133 34.1912 39.693 34.446 38.3225 32.4078C37.86 31.7284 37.4145 31.1679 37.1404 30.2677C36.5751 28.3144 38.0313 26.412 35.6158 25.1551C33.8341 27.7878 34.074 28.2294 30.8362 30.7262C29.7912 31.5246 28.0952 30.8112 27.8211 32.8494C27.5984 34.3271 29.8254 35.2443 29.8254 35.9407ZM39.0591 28.4163C39.0591 30.9301 40.5496 31.1509 41.0464 32.8154C41.3547 33.8345 40.9778 34.8027 40.5153 35.3292C39.8814 36.0426 39.3332 36.1785 38.0313 36.1785C38.0313 37.877 37.4145 38.9301 36.5237 39.7793C35.7871 40.4757 35.9584 40.4587 35.9755 41.8006C35.9755 42.7008 36.2325 43.2103 37.0205 43.3122C38.2368 43.4821 40.9093 43.2953 41.9543 43.1254C44.0101 42.7687 45.6718 41.8175 47.008 40.4927C49.9546 37.5713 46.9566 37.6052 49.3893 35.2103C49.8347 34.7687 50.2629 34.429 50.9825 34.2422C53.0725 33.6817 55.3509 35.1764 55.5394 37.3505C57.2696 37.3844 59.2568 39.4226 59.5994 41.342C59.8907 42.9216 59.6508 47.5415 59.6508 49.4439H61.5695L62.7687 57.5628C62.9229 58.6498 63.8822 64.7815 63.8822 65.7496H45.1065C45.1065 64.8494 47.265 50.1403 47.4192 49.4439H49.3379V47.032C47.0937 48.5267 43.4961 50.3441 40.6009 50.3441C41.3547 51.8897 41.3376 54.3696 40.481 56.0851C40.1555 56.7305 39.0934 58.8367 39.0591 59.2783L39.1962 61.4354C39.3846 65.1551 40.6866 69.2485 41.5774 72.8154C41.9029 74.0723 42.2455 75.1764 42.5539 76.4333C42.691 77.0107 42.8794 77.6222 43.0507 78.2337C43.1706 78.6923 43.3933 79.6434 43.5646 80.0171H20.1806C20.3347 79.7114 20.6774 78.4375 20.6945 77.9789H3.99158C3.99158 75.0405 5.13937 67.1424 5.13937 63.7114H7.19511L7.31503 59.2103C7.38355 59.1424 7.98315 58.0553 8.08593 57.8515C8.42856 57.1721 8.22298 55.2188 10.1074 53.6222C12.4544 51.635 16.9599 48.2379 19.5981 46.1827C21.1228 45.0107 22.6475 43.7878 25.3028 43.4142C28.2322 43.0065 27.7012 44.0256 27.7526 37.4354C27.7697 36.3144 27.6669 36.5012 27.0844 35.9407C25.8339 34.7347 25.3199 33.1042 26.0223 31.3887C26.9816 29.0617 29.0717 29.2995 29.8254 28.7899C31.4529 27.7029 33.5258 25.0702 34.2795 22.9131C36.3353 22.9131 36.952 23.2358 38.0141 24.3229C39.1277 25.4778 39.0591 26.6328 39.0591 28.4163Z" fill="black"/>
<path fill-rule="evenodd" clip-rule="evenodd" d="M39.0591 28.4163C39.0591 26.6328 39.1277 25.4778 38.0313 24.3568C36.9691 23.2698 36.3353 22.947 34.2967 22.947C33.5429 25.0872 31.47 27.7369 29.8426 28.8239C29.0888 29.3335 26.9988 29.0957 26.0394 31.4226C25.337 33.1381 25.8681 34.7687 27.1016 35.9746C27.684 36.5521 27.7868 36.3483 27.7697 37.4693C27.7183 44.0426 28.2322 43.0235 25.3199 43.4481C22.6646 43.8218 21.1399 45.0277 19.6152 46.2167C16.9599 48.2379 12.4544 51.6349 10.1245 53.6052C8.22298 55.2018 8.44569 57.1551 8.10306 57.8345C8.00028 58.0383 7.40068 59.1254 7.33216 59.1933C-0.308357 57.1381 -2.22705 47.4566 2.741 42.5819C4.00871 41.325 4.95092 40.6795 6.78396 39.9662C8.73692 39.2018 10.5014 39.3717 12.7285 39.6265C22.716 36.5352 19.3583 27.1254 21.2084 22.6243C22.1335 18.9725 26.7589 16.6625 30.031 15.8473C31.7612 15.4226 34.468 16.102 36.6265 16.2039C38.391 16.2889 40.2069 18.1572 40.9778 19.2783C42.4854 21.5033 42.7595 24.2719 40.8237 26.7177C40.4468 27.1763 39.5217 28.1275 39.0591 28.4163Z" fill="#2D4EA0"/>
<path fill-rule="evenodd" clip-rule="evenodd" d="M47.3849 21.2654V3.17622C47.3849 2.54777 47.8988 2.03822 48.5327 2.03822H72.9447C73.5785 2.03822 74.0924 2.54777 74.0924 3.17622V21.2654C74.0924 22.3864 73.1502 22.4204 72.0367 22.4204H62.0149C60.199 22.4204 60.5759 22.2675 59.4281 23.0318C58.7258 23.4904 58.1262 23.8981 57.4238 24.3567L54.4087 26.3439C53.141 26.9214 53.5521 24.3907 53.5521 22.4204H48.5498C47.8988 22.4204 47.3849 21.8938 47.3849 21.2654ZM45.3292 2.80255V21.656C45.3292 23.0488 46.7339 24.4586 48.1558 24.4586H51.4964V26.1062C51.4964 27.6008 52.6613 28.518 54.323 28.518C55.1967 28.518 56.139 27.7367 56.7385 27.3461C61.8094 24 60.0106 24.4416 64.6018 24.4416C67.0001 24.4416 69.3985 24.4416 71.7969 24.4416C73.3901 24.4416 73.8183 24.5775 74.8633 23.9151C75.4801 23.5244 76.1653 22.6072 76.1653 21.6391V2.78556C76.1482 1.39278 74.7434 0 73.3215 0H48.1387C46.7339 0 45.3292 1.39278 45.3292 2.80255Z" fill="black"/>
<path fill-rule="evenodd" clip-rule="evenodd" d="M53.5521 9.42687C53.5521 7.08292 56.4473 4.87486 59.1027 6.98101C59.7194 7.47358 60.1134 8.10203 60.7472 8.52666C61.6038 7.96615 62.6659 6.11477 64.6018 6.11477C66.3663 6.11477 67.9424 7.6774 67.9424 9.42687C67.9424 11.3972 64.5675 14.1148 62.7687 15.8982C62.2205 16.4417 61.3126 17.4608 60.7472 17.8345L56.7899 13.9789C55.7449 12.9428 53.5521 11.2783 53.5521 9.42687ZM51.4964 9.03622C51.4964 10.8197 51.7876 11.9577 53.0725 13.2146L58.1433 18.2422C58.7943 18.8876 60.0963 20.3313 60.7472 20.756C61.3126 20.3823 67.2914 14.3186 68.3535 13.2655C71.951 9.73261 69.1415 4.05957 64.9786 4.05957C62.409 4.05957 62.2548 4.58611 60.7472 5.58823C60.4731 5.4014 60.3875 5.26552 60.1134 5.07868C56.4987 2.51392 51.4964 5.18059 51.4964 9.03622Z" fill="black"/>
<path fill-rule="evenodd" clip-rule="evenodd" d="M121.614 60.0085H121.991L124.595 70.4374H119.045C119.062 69.724 121.375 61.0276 121.614 60.0085ZM91.8061 70.4543H88.0886C88.4998 69.8429 88.9966 69.3843 89.9217 69.3333C90.8639 69.2824 91.4635 69.8089 91.8061 70.4543ZM80.8935 69.0446H81.5274C82.3668 69.0446 83.0178 69.8769 83.3262 70.4374H78.9577C79.2832 69.9788 80.1226 69.0446 80.8935 69.0446ZM78.0669 68.1614L80.2425 57.9703H84.611V68.4161C83.9086 67.9575 82.2126 65.9193 79.5059 67.1762C78.2382 67.7707 78.6836 67.7537 78.0669 68.1614ZM92.0631 67.6518C91.0523 67.414 89.9388 66.6667 88.1229 67.5669C87.4548 67.8896 87.3006 68.2123 86.8038 68.552V57.9873H91.1722C91.1722 58.9894 92.1316 64.1019 92.1316 64.9851C92.1145 65.5966 92.0631 66.7856 92.0631 67.6518ZM124.818 62.1656H127.251L129.94 74.6497H114.659C114.779 74.1231 115.002 73.2739 115.036 72.7473H127.37C127.353 72.1359 126.325 68.3482 126.12 67.4989L124.818 62.1656ZM116.698 70.4374H110.685C110.719 69.9788 110.856 69.656 110.942 69.1635L111.781 65.155C112.004 64.2378 112.192 63.5244 112.415 62.6072C112.586 61.9278 112.877 60.4671 113.117 59.9915H119.285L116.698 70.4374ZM121.871 55.7962H124.955V59.9915H124.184C124.167 59.5159 124.047 59.1762 123.961 58.8195C123.687 57.6645 124.081 57.8344 121.871 57.8344V55.7962ZM115.447 55.1677C116.03 55.2187 116.818 55.4565 117.469 55.5924C118.051 55.7112 118.925 55.8132 119.696 55.8132V57.8514H115.464V55.1677H115.447ZM110.428 61.656L110.188 61.2654C109.263 59.2611 109.451 59.6348 108.252 57.8344C108.389 57.2739 109.126 55.983 109.417 55.4225C109.794 54.6752 110.188 53.741 110.188 52.6199C110.89 53.0785 112.381 54.0637 113.271 54.2675V57.8344C111.062 57.8344 111.524 57.0361 110.428 61.656ZM82.5552 48.6624C84.1484 50.4798 86.2385 51.5839 88.8424 51.5839V55.7792H82.5552V48.6624ZM121.871 51.2102C122.865 51.2272 123.876 51.6008 124.955 51.6008V53.6391H121.871V51.2102ZM109.023 66.3779C109.023 70.2335 106.35 76.0085 106.196 77.8429H97.0825C97.0311 77.1635 96.5343 75.7707 96.3287 75.1592C94.273 68.7558 92.6284 64.4246 97.2538 58.5308C97.8191 57.8174 97.4937 57.7834 96.6542 56.1189C95.6949 54.2166 94.5985 52.7558 95.9004 50.7006C97.014 48.9342 98.6757 49.189 100.526 48.7813C102.616 48.3397 100.783 48.4586 103.644 48.9342C104.5 49.0701 105.151 49.0361 105.871 49.3928C106.539 49.7155 106.967 50.0382 107.344 50.6157C108.715 52.6879 107.618 54.1826 106.642 56.1189C106.402 56.5945 105.956 57.3248 105.819 57.7325C105.614 58.276 105.991 58.4119 106.556 59.1932C107.807 60.9257 109.023 63.4225 109.023 66.3779ZM93.0909 52.6199C93.0909 54.9129 94.7013 56.4926 95.0096 57.8344C94.7698 58.1911 94.5128 58.4798 94.2559 58.8705L93.5877 59.9915C93.5877 58.5817 93.0738 57.189 93.0738 55.7962H91.0181V51.3461L93.4507 50.7176C93.2451 51.1762 93.0909 51.9066 93.0909 52.6199ZM126.874 49.6815C128.844 49.2229 129.186 50.1401 129.186 51.9745C129.186 53.6051 128.021 53.6221 127.131 53.6221V51.5839C127.131 50.7516 126.908 50.4289 126.874 49.6815ZM107.858 44.2123C110.359 44.7898 112.312 45.9957 114.042 47.3715C117.897 50.4459 115.105 50.259 118.839 50.7686C119.884 50.9045 119.679 50.4628 119.679 53.6391C115.807 53.6391 112.706 51.7028 110.051 49.9533C107.824 48.4756 108.475 47.6943 105.049 46.896C105.288 46.5563 107.173 45.2314 107.858 44.2123ZM91.0352 49.0531V45.4862C91.8232 45.4692 94.4957 44.586 95.5236 44.3482C96.1917 45.3333 97.9733 46.5563 98.2132 46.896C96.2773 47.3376 96.6371 47.5244 94.7527 48.0509C94.1702 48.2208 93.5706 48.3907 92.9539 48.5605C92.4742 48.7134 91.6005 49.0021 91.0352 49.0531ZM119.661 48.7134C117.965 48.6284 118.12 48.5435 117.674 47.983C117.263 47.4565 116.766 47.1507 116.475 46.6242C118.291 45.8938 119.627 46.845 119.661 48.7134ZM83.4632 37.4692C83.4632 38.4374 85.7416 43.1932 86.2213 44.2972C87.0436 46.2505 86.9066 47.0658 88.8595 46.1316V49.4267C85.7417 49.4267 83.7716 47.4565 82.9321 44.7219C82.521 43.38 82.127 42.1062 81.7158 40.7134C80.8935 37.9278 80.5166 38.0297 80.5166 35.414C80.5166 33.3248 84.6281 32.9002 84.6281 35.8047C84.611 36.3652 83.9429 37.2824 83.4632 37.4692ZM96.3116 27.397C96.757 27.1762 97.3909 27.1083 97.9391 26.8535C98.847 26.4289 98.8813 26.1401 99.3952 26.0042C99.9948 26.3949 100.817 27.2611 102.102 27.397C102.77 27.465 102.839 27.2442 103.284 27.6178C103.678 27.9575 103.541 28.1953 104.706 28.8917C105.237 29.2144 106.111 29.5202 106.847 29.5711C106.847 33.121 107.447 35.8726 103.884 37.724C102.239 38.5902 102.599 40.3567 102.599 42.7006C102.599 43.0743 102.736 43.0233 103.078 43.1253L105.425 43.6008C104.911 44.3652 102.513 45.9957 101.776 46.0977C100.92 46.2166 98.3673 44.3142 97.9733 43.7197C98.2988 43.5669 98.9669 43.448 99.3781 43.3291C100.971 42.8705 100.68 43.6348 100.68 40.5435C100.68 39.9151 100.612 39.1168 100.372 38.6752C100.046 38.0637 99.7207 37.9278 99.1383 37.6051C95.575 35.5839 96.3116 31.6093 96.3116 27.397ZM110.051 31.6093H109.16V29.5711C110.582 29.5711 111.079 29.5202 111.079 30.845C111.079 31.2526 110.513 31.6093 110.051 31.6093ZM92.971 29.5711H94.1188V31.6093H93.228C92.6284 31.6093 92.2172 31.2357 92.1487 30.6582C92.0973 30.2675 92.4742 29.5711 92.971 29.5711ZM86.6325 36.7049C87.4034 34.7856 86.0843 31.4225 82.0584 31.6093C80.6537 31.6773 79.5402 32.5605 78.9234 33.4607C77.2103 35.9405 79.3346 40.1698 80.2425 43.3461C80.4481 44.0934 80.3967 44.8238 80.3967 45.741C80.3967 49.087 80.3967 52.4501 80.3967 55.7962H78.478L75.0347 71.7452C74.7434 73.0701 74.7263 72.7304 78.5979 72.7304C83.5146 72.7304 88.4484 72.7304 93.365 72.7304L95.5407 79.983H107.738L109.914 72.7304H112.86C112.672 73.104 112.449 74.4798 112.329 75.0064C111.798 77.5541 110.753 76.9257 118.377 76.9257H131.482C133.007 76.9427 132.681 77.1125 132.116 74.259L129.049 59.9745H127.131V55.7792C128.176 55.7792 128.381 55.8471 129.152 55.4904C131.448 54.4034 131.379 52.8577 131.379 50.4628C130.934 49.7155 130.711 47.8981 128.364 47.4565C127.439 47.2866 126.565 47.4735 125.829 47.8641C125.195 48.2038 124.647 48.8323 124.304 49.3758L121.786 48.9851C121.751 46.7771 120.963 45.5372 119.61 44.7728C117.657 43.6688 116.252 44.3652 114.796 45.1805C113.46 44.535 113.117 43.8047 110.274 42.7006C108.44 41.9873 106.659 41.8514 104.809 41.2569V39.6263C106.899 38.5902 108.697 36.6879 108.989 33.7155C114.556 33.7155 113.614 29.3333 112.209 28.1783C109.982 26.3609 106.419 28.6539 104.826 26.0892C104.586 25.6985 104.654 25.5796 104.278 25.3079C103.078 25.3079 101.999 25.3079 101.211 24.7134C100.543 24.2208 100.406 23.2017 99.7892 22.5732C97.9219 24.034 98.0247 25.3248 94.2216 25.3248V27.38C92.8511 27.5839 92.2858 27.3121 91.2236 28.0934C90.6069 28.552 89.9731 29.4183 89.9902 30.6072C90.0073 31.8132 90.6412 32.6284 91.2579 33.087C92.1659 33.7834 92.9881 33.7495 94.3073 33.7495C94.5985 36.7728 96.3973 38.5732 98.4873 39.6773C98.4873 41.7155 98.847 41.2399 97.0482 41.7495C95.4036 42.2081 89.4249 43.9236 88.4998 43.9915C87.9858 43.2102 87.2663 41.2059 86.838 40.2718C85.399 37.0276 86.0671 38.6582 86.6325 36.7049Z" fill="black"/>
<path fill-rule="evenodd" clip-rule="evenodd" d="M86.6325 36.7051C86.0843 38.6753 85.4162 37.0448 86.8209 40.2549C87.2321 41.2061 87.9516 43.1934 88.4827 43.9747C89.4077 43.9067 95.3865 42.1912 97.0311 41.7327C98.8299 41.2231 98.4701 41.6987 98.4701 39.6605C96.3973 38.5564 94.5814 36.756 94.2901 33.7327C92.971 33.7327 92.1659 33.7836 91.2408 33.0702C90.6412 32.6116 89.9902 31.7963 89.9731 30.5904C89.9559 29.4014 90.5898 28.5352 91.2065 28.0766C92.2687 27.2953 92.834 27.567 94.2045 27.3632V25.308C98.0076 25.308 97.9048 24.0341 99.7721 22.5564C100.389 23.2019 100.543 24.204 101.194 24.6966C101.982 25.291 103.061 25.291 104.26 25.291C104.62 25.5628 104.569 25.6987 104.809 26.0724C106.419 28.6541 109.982 26.3441 112.192 28.1615C113.597 29.3165 114.556 33.6987 108.972 33.6987C108.68 36.6881 106.882 38.5734 104.792 39.6095V41.2401C106.642 41.8346 108.423 41.9704 110.256 42.6838C113.117 43.7879 113.46 44.5182 114.779 45.1637C116.235 44.3484 117.64 43.669 119.593 44.756C120.946 45.5203 121.734 46.7603 121.769 48.9683L124.287 49.359C124.629 48.8155 125.178 48.187 125.812 47.8473C126.531 47.4566 127.422 47.2528 128.347 47.4397C130.694 47.8813 130.917 49.6987 131.362 50.446C131.362 48.0681 129.82 45.6222 127.97 44.2295C127.302 43.7199 126.617 43.3632 125.829 43.0405C124.886 42.6329 124.39 42.7687 123.859 41.8176C123.328 40.8664 123.447 36.5522 119.781 36.1785C117.846 35.9917 115.636 37.7581 114.779 35.7879C114.145 34.3611 114.848 32.7815 113.563 30.4885C112.792 29.0957 114.522 24.6966 111.319 19.8558C109.246 16.7135 105.871 14.9301 102.273 14.7603H101.16C99.2582 14.8452 97.3223 15.3887 95.5236 16.4248C92.183 18.3441 89.8531 22.2167 89.8703 26.9896C89.8703 27.601 89.9388 29.7072 89.836 30.1318C89.699 30.6753 89.3392 30.5904 88.9623 32.4418C88.791 33.2741 88.8253 34.497 88.6197 35.2953C88.2428 36.9598 87.3863 36.7051 86.6325 36.7051Z" fill="#2D4EA0"/>
<path fill-rule="evenodd" clip-rule="evenodd" d="M116.475 46.6243C116.766 47.1339 117.246 47.4566 117.674 47.9831C118.12 48.5267 117.983 48.6286 119.661 48.7135C119.627 46.8451 118.291 45.894 116.475 46.6243Z" fill="#2D4EA0"/>
</g>
<defs>
<clipPath id="clip0_1_169">
<rect width="132.613" height="80" fill="white"/>
</clipPath>
</defs>
</svg>
