<svg width="78" height="71" viewBox="0 0 78 71" fill="none" xmlns="http://www.w3.org/2000/svg">
<g clip-path="url(#clip0_1_376)">
<path fill-rule="evenodd" clip-rule="evenodd" d="M52.4974 40.1589H51.1127V37.4754C51.1127 34.8457 51.5295 34.4682 50.1717 33.0927C49.4995 32.4184 49.7146 32.4589 49.029 32.4589L43.6381 32.4723C43.3557 32.5263 42.1861 33.6186 41.971 34.3468C41.8232 34.8323 41.8232 33.1736 41.8366 35.547H40.4654C40.4385 33.74 40.4116 36.5044 40.4922 34.8053C40.5595 33.4568 41.2182 32.8364 41.9576 32.0813C42.6029 31.434 42.5088 31.7441 42.4953 30.5305C42.4953 29.8292 42.4953 29.128 42.4953 28.4268H50.5346C50.5346 29.0471 50.5346 29.6674 50.5346 30.2877C50.5346 30.5844 50.5078 30.9755 50.5346 31.2587C50.575 32.1082 51.8925 32.2431 52.3899 33.9962C52.5915 34.63 52.5377 38.1496 52.4974 40.1589ZM43.88 29.8157H49.1903V31.1103H43.88V29.8157Z" fill="black"/>
<path fill-rule="evenodd" clip-rule="evenodd" d="M49.8356 40.1591V33.7671H43.1675V37.2867L45.5202 40.1591H49.8356Z" fill="#2E4E9F"/>
<path fill-rule="evenodd" clip-rule="evenodd" d="M66.2906 67.4533C66.2906 64.1629 70.606 64.6619 70.606 67.1027V67.5343C70.606 68.6131 69.5036 69.5031 68.455 69.5031C67.3661 69.5031 66.2906 68.5861 66.2906 67.4533ZM50.8573 67.5477C50.8573 66.7791 50.8976 66.3071 51.516 65.7003C52.6856 64.5675 55.1593 65.0664 55.1593 67.4533C55.1593 68.5726 54.0972 69.4492 53.0755 69.5031C52 69.5705 50.8573 68.6266 50.8573 67.5477ZM52.6319 37.7048C52.6319 35.4528 55.5626 35.9517 55.5626 33.8076V31.2184H57.0279V33.9829C57.0279 34.3874 57.3909 34.8999 57.606 35.1291C58.4933 36.0596 59.9586 35.8034 59.9586 38.0419V39.9434H52.6319V37.7048ZM37.4271 36.3023C38.9731 36.2754 41.1779 36.2619 41.7828 36.5181C43.3423 37.2059 43.3154 39.3905 44.1086 40.7525C44.5119 41.4402 44.9824 41.5211 46.031 41.5077H74.9214C77.1665 41.5077 76.6153 41.9662 75.8221 44.3935L72.394 54.1838C72.1655 54.8851 71.9504 55.438 71.7218 56.1122C71.3723 57.1641 71.3588 57.6495 70.6194 57.69C67.2451 57.8249 63.5078 57.69 60.0931 57.69C59.2596 57.69 52.7932 57.6361 52.2823 57.717C50.3464 58.0541 51.1934 60.2387 51.758 61.385C52.1479 62.1671 52.7797 62.1941 53.8821 62.1941H68.3744C69.7187 62.1941 70.6194 61.9109 70.6194 63.0571C70.6194 63.3403 70.243 63.5696 69.9338 63.5696H51.3682C50.8842 63.5696 50.575 62.3829 50.3868 61.8704L48.1417 55.8155C47.4561 53.9006 46.5284 51.6351 45.8966 49.7607C45.6546 49.0594 45.3857 48.4391 45.1437 47.7513C44.1758 45.0678 43.1406 42.3437 42.1458 39.6871C41.3123 37.4486 41.3123 37.7992 38.516 37.7992C38.0993 37.7992 37.091 37.8262 36.4188 37.7992C35.908 38.2712 35.2627 38.5948 34.5367 38.7162C34.9131 39.0668 35.4374 39.2691 36.0962 39.2691C37.5346 39.2691 38.9731 39.2691 40.4116 39.2691L44.5522 50.5158C45.7622 53.5635 46.9317 57.0427 48.1282 60.1713C48.3568 60.7512 48.5047 61.2231 48.7332 61.8165C48.9483 62.3964 49.1231 62.8683 49.3516 63.4482C49.4726 63.7584 49.5398 63.9741 49.7146 64.2034C49.8893 64.4461 50.0776 64.5405 50.2523 64.7967C49.5129 65.9025 49.2978 66.1453 49.2978 67.6556C49.2978 69.2739 50.9648 71.0269 52.5781 71.0269C53.7208 71.0269 54.8097 71 55.7508 69.8807C57.6867 67.5747 56.181 65.7137 56.0331 65.1474H65.4302C65.3495 65.4305 65.1075 65.7407 64.9731 66.0778C63.9917 68.64 66.2503 71.0404 68.0114 71.0404C69.1675 71.0404 70.2161 70.946 71.1437 69.9346C71.3857 69.6784 71.668 69.2334 71.8294 68.8828C72.0445 68.4108 72.1655 67.9928 72.1655 67.3185C72.1655 66.0104 71.6412 65.4845 71.1303 64.7293C72.031 64.4866 72.8376 62.3289 71.2647 61.1287C70.6598 60.6702 70.0817 60.6568 69.06 60.6568H53.0889C52.9411 60.3736 52.6587 59.6184 52.5781 59.2678C53.8283 59.2678 70.1624 59.3757 70.9824 59.2273C72.394 58.9711 72.6225 58.0541 72.9452 57.218C73.698 55.2896 74.5719 52.3094 75.365 50.3001C75.6205 49.6663 75.8087 49.0055 76.0372 48.3852C76.5481 46.9692 77.2472 44.6902 77.758 43.4495C78.2689 42.1684 78.0269 40.6041 76.4943 40.1322C75.5801 39.849 76.7497 39.9973 75.6474 39.9973C76.4137 38.8511 77.1127 37.4756 76.8976 35.9787C76.696 34.6437 76.5481 34.0368 75.8356 32.9715C75.607 32.6209 75.4054 32.4995 75.2172 32.2163C75.5801 31.9736 76.1717 31.7308 76.1717 31.1779C76.1717 30.6116 75.6608 30.3014 75.1499 30.4902C74.7198 30.6385 74.303 31.0161 73.9266 31.2723L73.0796 30.8273C72.7704 30.7194 72.4881 30.6116 72.0714 30.5441C70.9152 30.3419 70.7404 30.5037 69.7053 30.5846C69.4364 29.4383 67.3526 26.7817 65.3899 26.7817C63.7229 26.7817 62.728 27.3616 61.7466 28.5753C60.5636 30.0317 59.4478 32.7962 59.4478 34.4818C58.1572 34.3739 58.4933 33.0524 58.4933 31.1914C58.4933 30.7869 59.273 30.7734 59.273 29.5462C59.273 28.6966 59.394 27.8336 58.91 27.3211C58.6949 27.0919 58.3857 26.7817 57.9824 26.7817H54.6215C53.9628 26.7817 53.3309 27.5234 53.3309 28.2516C53.3309 28.9259 53.1293 30.6925 54.0165 30.9352C54.0165 31.7713 54.0165 32.6074 54.0165 33.4435C54.0165 34.0098 54.0165 34.1447 53.6132 34.3335C50.9111 35.5876 51.0858 37.1924 51.0858 40.0108C47.241 40.0108 45.6143 40.4558 44.8211 38.46C44.5926 37.8801 44.4312 37.2463 44.1355 36.7339C43.6515 35.8978 42.5222 34.9134 41.2048 34.9134H37.6422C37.6422 34.9673 37.6422 35.0212 37.6422 35.0752C37.6422 35.4663 37.575 35.8978 37.4271 36.3023ZM60.819 35.6281C60.819 33.2277 62.5667 27.4021 65.7663 28.3325C67.8097 28.9259 68.9121 32.2702 69.2482 34.1852C69.5708 36.0731 69.5708 36.7608 69.4364 38.5679C69.4095 38.9859 69.2751 39.5118 69.2751 39.9569H61.424V37.4486C61.424 36.6125 60.819 35.8034 60.819 35.6281ZM70.3102 31.9871C71.211 31.7713 72.1251 31.9601 72.8914 32.3377C72.7839 32.7287 72.4612 32.9041 72.4612 33.376C72.4612 34.4009 73.819 34.3605 74.1013 33.2951H74.2761C74.3299 33.5109 76.4943 35.9517 74.7466 38.6083C73.6174 40.321 73.3351 39.9569 70.8345 39.9569C70.8345 39.2152 71.0093 38.6353 71.0093 37.7992C71.0093 35.8438 71.0496 34.9673 70.5791 33.0389C70.5119 32.8097 70.3775 32.1624 70.3102 31.9871ZM54.8769 28.1842H57.727V29.6541H54.8769V28.1842Z" fill="black"/>
<path fill-rule="evenodd" clip-rule="evenodd" d="M71.1169 47.3871H66.2906V44.4473H72.152C72.0445 44.9328 71.789 45.4452 71.6277 45.9037C71.4664 46.3622 71.2244 46.9151 71.1169 47.3871ZM64.7311 44.4473V47.3871C64.7311 48.0883 65.363 48.857 66.0217 48.857H71.1975C72.2999 48.857 72.5284 47.8456 72.8242 47.0365C73.2275 45.9172 74.9483 42.8965 71.8025 42.8965H66.546C66.0755 42.8965 65.5646 43.0448 65.2823 43.2741C65 43.4898 64.7311 43.9753 64.7311 44.4473Z" fill="black"/>
<path fill-rule="evenodd" clip-rule="evenodd" d="M47.0527 44.4473H53.0083V47.3871H48.3568C48.0476 47.3871 47.819 46.4971 47.6577 46.0116C47.5098 45.5666 47.2544 44.8653 47.0527 44.4473ZM47.9131 48.857H53.1696C53.7746 48.857 54.4602 48.1692 54.4602 47.5624V44.3664C54.4602 43.3415 53.5864 42.8965 52.5646 42.8965H47.3216C46.5419 42.8965 45.9773 43.2471 45.7084 43.7865C45.2647 44.69 46.1655 46.3217 46.6225 47.5759C46.8242 48.1423 47.1737 48.857 47.9131 48.857Z" fill="black"/>
<path fill-rule="evenodd" clip-rule="evenodd" d="M57.4043 51.797H61.8004V54.7368H57.4043V51.797ZM55.939 51.6217V54.8177C55.939 55.7482 56.7187 56.2876 57.6598 56.2876H61.545C63.7766 56.2876 63.3599 54.1705 63.3599 52.0533C63.3599 51.1093 62.8221 50.3271 61.8945 50.3271H57.243C56.6246 50.3271 55.939 51.0149 55.939 51.6217Z" fill="black"/>
<path fill-rule="evenodd" clip-rule="evenodd" d="M57.4043 44.4473H61.8004V47.3871H57.4043V44.4473ZM55.939 44.3664V47.4815C55.939 48.2367 56.5708 48.8705 57.3237 48.8705H61.8945C63.7497 48.8705 63.3599 46.3622 63.3599 44.717C63.3599 43.5977 62.6608 42.8965 61.545 42.8965H57.8345C56.7859 42.8965 55.939 43.328 55.939 44.3664Z" fill="black"/>
<path fill-rule="evenodd" clip-rule="evenodd" d="M69.1272 54.7368H66.2771V51.797H70.0683C69.9473 52.296 69.7725 52.741 69.5843 53.213C69.4633 53.5636 69.1675 54.3997 69.1272 54.7368ZM64.7311 51.797V54.7368C64.7311 56.6652 67.0838 56.2876 68.697 56.2876C70.0817 56.2876 70.3506 55.7347 70.7135 54.6829L71.6277 51.878C71.6277 51.0284 71.0093 50.3271 70.1624 50.3271H66.0217C65.363 50.3271 64.7311 51.1093 64.7311 51.797Z" fill="black"/>
<path fill-rule="evenodd" clip-rule="evenodd" d="M49.8221 51.797L52.4167 51.7836C53.2368 51.7836 53.0083 51.6487 53.0083 54.7368H50.8573L49.8221 51.797ZM48.2627 51.797C48.2627 52.296 48.9752 53.9142 49.1768 54.5076C49.8625 56.5573 50.3464 56.2876 52.7394 56.2876C53.6804 56.2876 54.4602 55.7482 54.4602 54.8177V51.6217C54.4602 51.0149 53.7746 50.3271 53.1696 50.3271H49.7146C48.9483 50.3271 48.2627 51.0149 48.2627 51.797Z" fill="black"/>
<path fill-rule="evenodd" clip-rule="evenodd" d="M62.8893 34.8462C62.8893 35.3721 63.3061 35.6283 63.8438 35.6283H66.5191C67.6484 35.6283 67.5946 34.0775 66.5998 34.0775H63.6691C63.2389 34.064 62.8893 34.4147 62.8893 34.8462Z" fill="black"/>
<path fill-rule="evenodd" clip-rule="evenodd" d="M62.8893 37.7856C62.8893 38.2172 63.2389 38.5678 63.6691 38.5678H66.5191C67.6349 38.5678 67.6349 37.017 66.5191 37.017H63.6691C63.2389 37.0035 62.8893 37.3541 62.8893 37.7856Z" fill="black"/>
<path fill-rule="evenodd" clip-rule="evenodd" d="M64.7849 32.6883C65.7394 32.6883 66.5998 32.8232 66.5998 31.7309C66.5998 30.9353 65.0269 31.124 64.3547 31.124C63.5078 31.124 63.1044 32.6883 64.7849 32.6883Z" fill="black"/>
<path fill-rule="evenodd" clip-rule="evenodd" d="M0 21.4551V20.7269C0.0806618 18.9873 1.06205 17.6657 2.15098 16.9375C2.51396 16.6948 2.7425 16.506 3.18614 16.3307C3.64323 16.1554 3.89865 16.1689 4.31541 15.9666C5.05481 15.616 5.3909 15.117 5.83454 14.4832C7.15202 12.5413 6.64116 12.1368 7.04447 9.68245C7.6091 6.28416 9.3971 3.60059 11.7229 2.06327C15.0569 -0.148318 16.5491 0.013505 21.8325 1.97257e-05C29.1727 -0.0134656 31.2968 6.891 29.9255 9.49366C29.0383 11.1658 26.4167 11.3951 24.7094 11.3951C24.696 9.99261 25.1799 9.33183 24.5078 8.23952C22.8407 5.55595 16.6836 6.98539 16.2265 7.24161C15.5543 7.6192 15.2316 8.14513 14.8956 8.77894C14.4385 9.64199 14.2234 9.18349 13.4436 9.9117C12.4623 11.3681 12.7177 13.2291 15.4064 14.4158L15.2182 21.6709C15.1106 22.2372 12.5295 22.8576 11.7901 25.9862C11.2792 28.1573 12.4085 30.0857 13.6184 31.124C14.3713 31.7713 13.9948 33.1873 13.8738 34.9674C13.6856 37.6914 12.7983 41.1032 11.1582 41.8853C8.94002 41.9123 6.04964 41.6426 4.71872 40.7256C0.376422 37.7453 2.9576 30.7465 2.09721 28.0359C1.18304 25.2579 0.0941055 24.3679 0 21.4551Z" fill="#2E4E9F"/>
<path fill-rule="evenodd" clip-rule="evenodd" d="M20.8645 19.4459V19.6751C20.8645 20.228 20.8242 20.7809 20.8108 21.3203C20.7973 21.7384 20.7973 22.1834 20.9317 22.5879C21.0259 22.9116 21.2006 23.1813 21.4157 23.4375C21.6846 23.7477 21.8997 24.0983 22.0879 24.4759C22.3164 24.9479 22.5047 25.4333 22.7332 25.9053C23.0155 26.5122 23.3382 27.092 23.7415 27.618C25.4623 29.9239 27.7746 31.2859 30.6246 31.6635C30.9338 31.704 31.2296 31.677 31.5253 31.5557C31.9421 31.3803 32.3051 31.0702 32.7084 30.8679C33.3268 30.5712 34.0124 30.5173 34.698 30.5847C35.4105 30.6387 36.0693 30.9084 36.6339 31.3399C37.6556 32.1355 38.2606 33.4301 38.3413 34.7112C38.4354 36.0867 37.9648 37.4083 36.9297 38.3387L36.9162 38.3522L36.9028 38.3657C36.3247 38.7568 35.7197 39.0535 35.0341 39.2018C34.456 39.3367 33.8645 39.3636 33.2865 39.3501C32.4933 39.3501 31.6867 39.2962 30.8935 39.2827C29.6298 39.2423 28.393 39.067 27.1562 38.7838C26.6991 38.6894 26.2554 38.568 25.8118 38.4601C25.4891 38.3792 25.1531 38.2983 24.817 38.2713L24.4271 38.2444V38.6354C24.4271 39.2692 24.333 39.7952 24.1851 40.402C24.1044 40.7526 24.0372 41.1032 23.9969 41.4538L23.97 41.764L24.2658 41.8314C24.7766 41.9528 25.3547 42.4248 25.8252 42.6945L30.4095 45.459L30.423 45.4725C32.4126 47.0637 33.3671 49.073 33.7435 51.5678C34.1468 54.2783 32.8428 56.4764 31.4043 58.6476C30.7456 59.6455 30.0734 60.6434 29.4147 61.6413C28.971 62.3156 27.5998 64.0956 27.5326 64.8238L27.5057 65.1745L27.8552 65.2014C29.0248 65.2958 29.7642 66.3207 30.0869 67.3591C30.3557 68.2491 30.3826 69.5437 29.7239 70.2719C29.2399 70.8113 28.5812 70.9192 27.8956 70.9057C26.3899 70.8922 24.8842 71.0271 23.3785 71.0001C22.3433 70.9866 21.0527 70.8787 20.2192 70.2179C19.6412 69.7595 19.3588 69.1122 19.2244 68.3974C19.1706 68.0199 19.5336 66.8331 19.668 66.4151C20.031 65.2419 20.4343 64.0821 20.8511 62.9224C21.241 61.8301 21.6577 60.7513 22.061 59.6725C22.3299 58.9712 22.5988 58.2835 22.8542 57.5688C23.029 57.0698 23.2306 56.5843 23.4054 56.0854C23.5264 55.7482 23.6339 55.3976 23.6474 55.0335C23.6608 54.5211 23.4592 54.0491 23.2441 53.5906C22.8542 52.7545 22.3971 51.9589 21.9669 51.1363L21.8728 50.9475H18.3237L10.7415 64.9317L11.1986 65.0396C12.0186 65.2284 12.7042 65.5655 13.242 66.2398C13.8738 67.0085 13.9411 67.8715 13.9142 68.829C13.8738 70.4472 12.8521 70.8652 11.4137 70.9192C10.7952 70.9462 10.1903 70.8922 9.57187 70.8922C8.38883 70.8922 7.20579 70.8922 6.00931 70.8922C5.45812 70.8922 5.10858 70.8787 4.59773 70.636C4.31541 70.5011 3.89866 70.2449 3.67012 70.0292C2.99793 69.3549 2.76939 68.5862 2.90383 67.6557C3.02482 66.7927 3.40124 66.024 3.62978 65.1879C4.11376 63.4079 4.70528 61.6683 5.28335 59.9152C5.88832 58.0677 6.52017 56.2337 7.03102 54.3593C7.52844 52.5387 8.21407 50.7722 8.73837 48.9517C8.83247 48.6145 8.94002 48.2774 9.00724 47.9403C9.04757 47.7245 9.07446 47.5087 9.00724 47.293C8.95346 47.1177 8.83247 46.9828 8.73837 46.8345C8.59049 46.6187 8.44261 46.3895 8.32161 46.1467C8.14685 45.7961 7.95864 45.4455 7.79731 45.0949C7.64943 44.7847 7.48811 44.4206 7.40745 44.0835L7.38056 43.9621L7.47466 43.8812C7.56877 43.8138 7.66288 43.7463 7.75698 43.6789C7.99897 43.5036 8.24095 43.3553 8.48294 43.18C8.83247 42.9372 9.22234 42.6675 9.49121 42.3439L9.5181 42.3169L9.55843 42.3034C10.97 41.5348 12.1127 39.2288 12.637 37.7724C13.0134 36.734 13.3092 35.6012 13.3899 34.4954C13.4302 33.956 13.484 33.4031 13.484 32.8637C13.484 32.4592 13.4436 32.0681 13.2689 31.704C13.1344 31.4343 12.9462 31.2185 12.7177 31.0162C12.0589 30.4499 11.6019 29.5868 11.3599 28.7642C11.0641 27.7663 11.0103 26.674 11.2523 25.6491C11.5346 24.4489 12.0993 23.4645 13.0403 22.6823C13.3361 22.4396 13.6587 22.2238 13.9679 22.0081C14.2099 21.8328 14.5191 21.6305 14.5729 21.3068V21.2799V14.5912L14.3578 14.4968C13.0941 13.9304 12.1665 12.8246 12.2203 11.3817C12.2606 10.5321 12.637 9.74996 13.2554 9.18357C13.4033 9.04872 13.5646 8.92735 13.7394 8.83296C13.8738 8.76553 14.0083 8.72508 14.1293 8.67113C14.4654 8.50931 14.667 8.23961 14.8418 7.91596C15.1644 7.30912 15.4736 6.82365 16.0786 6.45955H16.092H16.1055C16.2668 6.39212 16.4685 6.35167 16.6298 6.31121C16.9928 6.2303 17.3692 6.16287 17.7322 6.09545C18.7404 5.93362 19.7756 5.85271 20.7973 5.8662C22.1282 5.89317 24.1851 6.12242 24.9648 7.37655C25.1934 7.74065 25.3681 8.11824 25.4488 8.54977C25.5564 9.1566 25.516 9.81738 25.516 10.4377C25.5026 11.2603 25.5295 12.0829 25.5429 12.892C25.5429 13.5393 25.5429 14.1866 25.4354 14.8204C25.3278 15.4273 25.1396 15.9936 24.8438 16.5465C24.4674 17.2613 23.9969 17.8951 23.3113 18.3401C22.7735 18.6907 22.182 18.893 21.6039 19.1357C21.4157 19.2166 21.2141 19.2975 21.0259 19.3919L20.8645 19.4459ZM16.3206 21.1585H16.6701C17.1003 21.1585 17.4902 21.2124 17.9069 21.3068C18.1892 21.3743 18.485 21.4282 18.7673 21.4417L19.1572 21.4687V21.0776C19.1572 20.2145 19.1437 19.3515 19.1437 18.4884C19.1437 18.2457 19.1437 17.976 19.1706 17.7332L19.1975 17.531L19.3992 17.5444C19.5067 17.5579 19.6143 17.5714 19.7218 17.5849C20.0848 17.6119 20.4478 17.5984 20.8108 17.5444C22.4374 17.2882 23.8356 15.7644 23.8356 14.0922V9.10266C23.8356 8.01036 23.0558 7.6058 22.061 7.6058H18.0817C17.4498 7.6058 16.7373 7.74065 16.455 8.37446C16.334 8.64416 16.3206 8.92735 16.334 9.22403C16.334 9.42631 16.3609 9.65556 16.334 9.85784L16.3071 10.0062L16.1593 10.0331C15.9307 10.0736 15.6753 10.0466 15.4333 10.0466C15.0972 10.0601 14.7611 10.0871 14.4654 10.2759C14.0217 10.5456 13.8873 11.0311 13.8873 11.53C13.8873 12.5684 14.788 12.919 15.6887 12.9999C15.8232 13.0134 15.971 13.0134 16.1055 13.0269H16.3071V21.1585H16.3206ZM31.9824 33.4166C28.151 33.4031 25.8252 32.2434 23.1365 29.5733C22.0879 28.535 21.3351 27.0785 20.7839 25.73C20.3671 24.7051 19.668 23.8286 18.6598 23.3296C17.8128 22.8981 16.8046 22.7767 15.8769 23.006C13.8873 23.4915 12.758 25.2445 12.758 27.2269C12.758 29.843 16.7104 32.4592 18.7135 33.6459C19.91 34.3471 21.1334 34.9809 22.4105 35.5338C23.3919 35.9653 24.4137 36.3699 25.4488 36.6261C26.9276 36.9902 28.4199 37.3408 29.939 37.4622C31.3775 37.5836 32.8294 37.5431 34.2813 37.5431C35.787 37.5431 36.7549 36.3699 36.7549 34.9135C36.7549 34.3067 36.5801 33.6863 36.2037 33.1874C35.7332 32.5671 35.0476 32.2704 34.2813 32.2704C33.6898 32.2704 33.1789 32.4457 32.7084 32.8233C32.5605 32.9446 32.4261 33.0795 32.2782 33.2143C32.211 33.2683 32.1437 33.3492 32.0765 33.3897L32.0227 33.4166H31.9824ZM22.5315 40.4829L22.5719 40.0784C22.5853 39.8356 22.6122 39.6064 22.6391 39.3771C22.6929 38.8377 22.7198 38.3118 22.7198 37.7724V37.4892L22.4509 37.4218C21.8997 37.2869 21.3485 37.0576 20.8376 36.8014C20.1923 36.4913 19.5605 36.1407 18.9421 35.7631C17.7994 35.0888 16.697 34.3471 15.6081 33.6189L15.0569 33.2548V33.9156C15.0569 36.6935 14.2503 39.2423 12.5967 41.4808C12.0589 42.209 11.454 42.8698 10.8087 43.4901C10.5936 43.7059 10.365 43.9082 10.1365 44.1104C10.0021 44.2453 9.8273 44.3936 9.71975 44.5555L9.63909 44.6768L9.67942 44.8252C10.0021 46.2276 11.5346 47.5357 12.7311 48.2235C13.6991 48.7764 14.8687 49.2349 15.9979 49.2349C17.4633 49.2349 18.9286 49.2753 20.3806 49.3023C21.0259 49.3158 21.7384 49.3293 22.3568 49.1405C22.8407 48.9921 23.2978 48.7089 23.728 48.4527C24.5481 47.9672 25.3681 47.4683 26.2017 47.0098C26.6318 46.7805 26.9545 46.4973 27.4385 46.376L27.9628 46.2546L27.6401 45.8231C27.4922 45.6073 27.0083 45.3241 26.7797 45.1758C26.2958 44.8656 25.8118 44.5824 25.3278 44.2992C24.6019 43.8677 23.8625 43.4497 23.1231 43.0316C22.3702 42.6001 21.6174 42.1686 20.8645 41.737C20.5016 41.5213 20.1386 41.292 19.7756 41.0763C19.5067 40.9144 19.2379 40.7526 18.969 40.6178L18.7942 40.5368L18.8614 40.3615C18.969 40.0784 19.1572 39.8491 19.3185 39.5929C19.3992 39.4715 19.4664 39.3501 19.5336 39.2288L19.6277 39.0535L19.8025 39.1344C20.1251 39.2962 20.4343 39.4985 20.7435 39.7008C21.1603 39.9705 21.6577 40.2941 22.1551 40.402L22.5315 40.4829ZM22.1282 64.4867H25.5429L25.637 64.2979C26.1479 63.3405 26.8066 62.4639 27.4116 61.5604C28.1241 60.4951 28.8769 59.4702 29.576 58.4048C30.6784 56.7462 32.0765 54.4806 32.0765 52.4444C32.0765 51.2172 31.8345 50.0575 31.1892 49.0056C30.9741 48.6415 30.7187 48.3179 30.4498 47.9942C30.2616 47.7515 30.0465 47.5222 29.8718 47.266L29.6836 46.9963L23.607 50.435L23.7415 50.7317C23.849 50.9745 23.9162 51.2307 24.0238 51.4599C24.1582 51.7296 24.3061 51.9859 24.4405 52.2556C24.6019 52.5522 24.7766 52.9028 24.8573 53.24L24.938 53.5906L25.2875 53.5097C25.5832 53.4423 25.8252 53.3344 26.0807 53.1995C26.1344 53.1726 26.1882 53.1456 26.242 53.1186L26.4302 53.0242L27.1562 54.575L26.9814 54.6694C26.7528 54.7773 26.5109 54.8852 26.2823 54.9931C26.0538 55.1009 25.7983 55.1954 25.6101 55.3841C25.3816 55.5999 25.274 55.9235 25.1665 56.2067L22.1282 64.4867ZM9.07446 64.4867L16.2668 50.9475H15.6753C14.7477 50.9475 13.8738 50.6913 13.0269 50.3002C12.274 49.9631 11.5884 49.518 10.8625 49.1405L10.4592 48.9247L10.3516 49.3697C10.0558 50.6238 9.6122 51.8375 9.23578 53.0647C8.85936 54.2918 8.46949 55.5055 8.06618 56.7192L5.67322 64.4732H9.07446V64.4867ZM4.92037 68.9908L5.0817 69.0312C5.57911 69.1526 6.11686 69.1796 6.62772 69.2066C7.2999 69.2335 7.95864 69.2335 8.63082 69.2335C9.69286 69.2335 10.7684 69.1931 11.8304 69.1931H12.1799V68.2626C12.1799 68.0199 12.1262 67.7771 12.0052 67.5613C11.4405 66.4825 9.59876 66.2668 8.52327 66.1993C7.87797 66.1589 7.23268 66.1589 6.58738 66.1724C6.15719 66.1859 5.72699 66.2128 5.2968 66.2128H4.97415L4.94726 66.5365C4.93382 66.7522 4.89349 66.9545 4.81282 67.1433C4.75905 67.3186 4.67839 67.4804 4.63806 67.6557C4.53051 68.0873 4.6515 68.4649 4.83971 68.8559L4.92037 68.9908ZM21.2544 68.9908L21.4157 69.0312C21.9131 69.1526 22.4509 69.1796 22.9617 69.2066C23.6339 69.2335 24.2927 69.2335 24.9648 69.2335C26.0269 69.2335 27.1024 69.1931 28.1644 69.1931H28.514V68.8424C28.514 68.4244 28.5543 67.9254 28.3661 67.5479C28.151 67.1028 27.6805 66.8871 27.2503 66.7118C26.5512 66.4421 25.8656 66.2533 25.1262 66.1993C24.6691 66.1589 24.212 66.1724 23.7549 66.1724C23.1903 66.1859 22.6256 66.1993 22.061 66.1993C21.577 66.1993 21.2544 66.7522 21.1065 67.1433C20.9183 67.6962 20.9183 68.3165 21.1737 68.8424L21.2544 68.9908Z" fill="black"/>
<path fill-rule="evenodd" clip-rule="evenodd" d="M8.1334 24.9882C7.99896 25.4333 7.81075 25.8513 7.64943 26.2828C7.48811 26.7278 7.35367 27.1459 7.2999 27.6179C7.16546 28.845 7.23268 30.0048 7.63599 31.178C7.89142 31.9062 8.33506 32.7018 8.40227 33.457C8.45605 34.1178 8.24095 34.6976 7.87797 35.2505C7.56877 35.7225 7.15202 36.0327 6.68149 36.3294C6.39917 36.5047 6.06308 36.6935 5.80765 36.9227C5.99586 37.1115 6.17063 37.3273 6.35884 37.5565C6.4395 37.6509 6.52016 37.7453 6.60083 37.8262C6.78904 37.7049 6.97725 37.5835 7.16546 37.4621C7.43433 37.2868 7.7032 37.098 7.95863 36.8958C8.42916 36.5316 8.81903 36.0192 9.0879 35.4933C9.6122 34.4414 9.70631 33.5649 9.37022 32.4456C9.11479 31.5556 8.71148 30.7599 8.50982 29.8429C8.24095 28.5618 8.40227 27.4021 8.89969 26.2019C9.182 25.5277 9.41055 24.8534 9.49121 24.1252C9.53154 23.7611 9.54498 23.3835 9.54498 23.0194C9.54498 22.6957 9.54498 22.3586 9.54498 22.035L8.48294 22.0215C8.53671 23.1273 8.4426 23.9229 8.1334 24.9882Z" fill="black"/>
<path fill-rule="evenodd" clip-rule="evenodd" d="M20.1789 10.1543C20.1789 11.4758 22.1417 11.4758 22.1417 10.1543C22.1282 8.8327 20.1789 8.8327 20.1789 10.1543Z" fill="black"/>
<path fill-rule="evenodd" clip-rule="evenodd" d="M22.0745 14.1595H24.2523V13.1616H21.0662V14.227C21.0662 15.8587 22.5988 17.2746 24.2523 17.0724V16.0475C23.6339 16.0475 23.0827 16.034 22.5853 15.4676C22.3164 15.1709 22.0745 14.7124 22.0745 14.1595Z" fill="black"/>
</g>
<defs>
<clipPath id="clip0_1_376">
<rect width="78" height="71" fill="white"/>
</clipPath>
</defs>
</svg>
