<svg width="123" height="80" viewBox="0 0 123 80" fill="none" xmlns="http://www.w3.org/2000/svg">
<g clip-path="url(#clip0_1_341)">
<path fill-rule="evenodd" clip-rule="evenodd" d="M110.961 46.6007H113.476V49.1117H110.961V46.6007ZM110.961 46.6007H105.765V49.2778H110.961V54.4659C111.553 54.4659 112.293 54.5028 112.866 54.4844C113.827 54.4474 113.661 54.2444 113.642 53.2104C113.624 51.8996 113.642 50.5887 113.642 49.2778C114.955 49.2778 116.268 49.2594 117.581 49.2963C118.524 49.3147 118.764 49.4809 118.838 48.6685C118.894 48.1885 118.82 47.1546 118.82 46.6007H113.624V41.4126H110.943V46.6007H110.961Z" fill="black"/>
<path fill-rule="evenodd" clip-rule="evenodd" d="M72.2053 48.8717H69.6906V51.3826H72.2053V48.8717ZM72.2053 48.8717H77.4011V51.5488H72.2053V56.7369H69.5242V51.5488H64.3468V48.8717H69.5427V43.6836H72.2238V48.8717H72.2053Z" fill="black"/>
<path fill-rule="evenodd" clip-rule="evenodd" d="M56.9876 2.82483H54.6208V5.18809H56.9876V2.82483ZM57.1356 2.67713C60.3344 2.67713 59.8167 2.19709 59.8167 4.87422C59.8167 5.59428 58.9291 5.35426 57.1356 5.35426C57.1356 8.54835 57.6163 8.03139 54.9352 8.03139C54.2141 8.03139 54.4544 7.14517 54.4544 5.35426H51.7733V2.67713H54.4544V0H57.1356V2.67713Z" fill="black"/>
<path fill-rule="evenodd" clip-rule="evenodd" d="M93.8206 39.2521H96.3353V36.7411H93.8206V39.2521ZM93.8206 39.2521H91.1395C91.1395 36.0395 90.5848 36.5749 93.8206 36.5749V34.064H96.5018V36.5749H99.0165V39.2521H96.5018V41.9292H93.8206V39.2521Z" fill="black"/>
<path fill-rule="evenodd" clip-rule="evenodd" d="M5.19582 42.7047H2.68112V40.1937H5.19582V42.7047ZM5.19582 42.7047H7.87694V40.0276H5.19582V37.5166H2.5147V40.0276H0V42.7047H2.5147V45.3818H5.19582V42.7047Z" fill="black"/>
<path fill-rule="evenodd" clip-rule="evenodd" d="M88.9576 50.4037H91.4723V52.9147H88.9576V50.4037ZM88.9576 50.4037H86.2765V53.0808H88.9576V55.5918H91.6388V53.0808H94.1535V50.4037H91.6388V47.7266H88.9576V50.4037Z" fill="black"/>
<path fill-rule="evenodd" clip-rule="evenodd" d="M93.8206 18.5184H91.3059V21.0294H93.8206V18.5184ZM93.8206 18.5184H96.5018V21.1956H93.8206V23.7065H91.1395V21.1956H88.6248V18.5184H91.1395V15.8413H93.8206V18.5184Z" fill="black"/>
<path fill-rule="evenodd" clip-rule="evenodd" d="M107.725 21.7309L110.555 24.4634L112.514 22.5802L109.685 19.8477L107.725 21.7309Z" fill="black"/>
<path fill-rule="evenodd" clip-rule="evenodd" d="M107.725 30.8331L109.611 32.6425L112.514 29.8177L110.628 28.0083L107.725 30.8331Z" fill="black"/>
<path fill-rule="evenodd" clip-rule="evenodd" d="M112.958 22.3955H115.639V18.4629H112.958V22.3955Z" fill="black"/>
<path fill-rule="evenodd" clip-rule="evenodd" d="M112.958 34.0273H115.639V30.0947H112.958V34.0273Z" fill="black"/>
<path fill-rule="evenodd" clip-rule="evenodd" d="M106.505 27.5839H110.444V24.9067H106.505V27.5839Z" fill="black"/>
<path fill-rule="evenodd" clip-rule="evenodd" d="M118.154 27.5839H122.074V24.9067H118.154V27.5839Z" fill="black"/>
<path fill-rule="evenodd" clip-rule="evenodd" d="M116.065 22.5064L117.877 24.3896L120.706 21.6387C120.41 21.214 120.188 21.0294 119.837 20.697C119.467 20.3093 119.301 20.0139 118.783 19.8662L116.065 22.5064Z" fill="black"/>
<path fill-rule="evenodd" clip-rule="evenodd" d="M116.065 29.8914L118.82 32.7347L120.706 30.9069L117.951 28.082L116.065 29.8914Z" fill="black"/>
<path fill-rule="evenodd" clip-rule="evenodd" d="M39.0334 59.5617C39.0149 58.4723 37.887 55.8137 37.4247 55.0382C35.816 52.3426 34.6142 50.441 31.7851 48.41C31.0085 47.8561 28.8267 46.4345 27.8467 46.2129C27.4584 46.4714 26.5708 47.7454 26.4229 48.2623C26.9961 48.3916 28.124 49.1116 28.6972 49.444L35.3908 53.2843L32.8391 55.9245C33.8006 56.2199 38.1459 59.3586 39.0334 59.5617ZM25.184 45.2713C23.7418 44.939 23.261 44.459 20.9682 46.7299C18.4165 49.2593 17.0112 52.0842 17.0112 56.2753V77.4892H22.0406V59.894H24.5554V77.4892H39.6621V63.5127C39.6621 63.0327 38.904 62.6819 38.5341 62.4419C38.0534 62.128 37.6651 61.888 37.1843 61.5926L28.8082 56.4414C29.3629 55.6291 30.9346 54.669 31.1749 53.7643C30.2319 53.5427 23.8897 49.444 22.8357 49.2039C22.8912 48.41 24.6663 46.0468 25.184 45.2713ZM38.7191 32.218H39.6621V29.7071H34.947C35.2798 31.1472 36.9255 32.218 38.7191 32.218ZM42.1953 24.2051C42.1953 23.6327 40.2723 21.1956 39.884 20.2171C39.4772 19.1832 39.9394 18.3523 39.3292 17.6323C38.7191 16.9307 37.7575 17.1338 36.5187 17.1338C34.1519 17.1338 29.0485 17.4292 27.3844 16.6722C26.5893 16.303 26.1455 15.6752 25.4984 15.2506C24.1116 16.266 24.5554 19.8663 24.5554 22.1557C23.0761 22.1557 21.6154 21.9711 20.5799 22.8942C20.2656 23.1712 20.0622 23.3927 19.8773 23.762C18.6199 26.3283 21.0976 27.6761 22.9652 29.0793C23.3905 29.3932 24.0746 30.0209 24.5554 30.1502V42.4096C27.1995 43.0188 28.6417 43.7574 29.5848 43.9789V39.7324H27.0701V37.2215H35.5757C37.3877 37.2215 39.0149 36.1322 39.3477 34.7105C36.8885 34.7105 35.6681 34.489 34.3553 33.2519C32.044 31.0733 32.118 30.0025 32.118 27.1592H39.8285C40.1428 25.8298 41.1783 25.7744 41.77 25.1652C41.9549 24.9805 42.1953 24.5374 42.1953 24.2051ZM41.4002 15.8783C41.5666 16.4691 41.9179 16.6907 42.1028 17.3738C42.5836 19.1647 41.4556 18.0754 43.1938 20.6787C43.5451 21.1956 43.8224 21.5649 44.1368 22.1003C45.6345 24.759 44.0628 27.473 42.1953 27.9715C42.1953 31.5349 42.7315 35.3198 40.827 37.443C38.3862 40.1571 36.944 39.7694 32.1364 39.7694V45.5852C33.3013 45.8991 35.7976 48.3731 36.5926 49.3147C37.0549 49.8501 37.4432 50.2563 37.9055 50.8471C42.4726 56.903 42.2138 61.648 42.2138 68.8485C42.2138 72.5596 42.2138 76.2891 42.2138 80.0002H14.4965C14.4965 76.2152 14.2007 55.0567 14.8109 52.4903C15.7909 48.41 18.3426 44.699 22.0591 42.7604V38.0523V31.5534C13.7014 26.993 17.0852 20.2171 22.0591 19.7001C22.0591 17.4477 21.8003 15.6014 23.298 13.8474C23.8712 13.1827 24.0746 13.2566 24.5923 12.7581C24.6293 9.36088 26.201 7.21918 29.6033 7.1084L29.4923 9.6009C27.8651 9.7486 26.5893 11.0225 27.218 12.9058C27.7542 14.5305 29.1965 14.6228 31.1749 14.6228C33.1164 14.6228 35.0579 14.6228 36.9994 14.6228C40.6606 14.6228 39.6806 14.9921 41.4002 15.8783Z" fill="black"/>
<path fill-rule="evenodd" clip-rule="evenodd" d="M41.4002 15.878C39.6805 14.9733 40.6605 14.604 36.9994 14.6225C35.0579 14.6225 33.1164 14.6225 31.1749 14.6225C29.2149 14.6225 27.7727 14.5302 27.218 12.9054C26.5893 11.0037 27.8651 9.74825 29.4923 9.60055L29.6032 7.08958C26.1825 7.20036 24.6108 9.34207 24.5923 12.7393C24.0746 13.2193 23.8712 13.1639 23.298 13.8286C21.8003 15.5825 22.0591 17.4288 22.0591 19.6813C17.0852 20.1983 13.7014 26.9742 22.0591 31.5345V38.0335C20.3025 37.6273 17.2886 35.4302 15.7539 34.2671C14.9218 33.6393 14.4965 33.1039 13.8863 32.3654C11.9448 29.9652 12.666 30.5745 11.3531 28.6174C9.8924 26.9557 7.43317 15.4164 12.4626 10.2283C14.0712 8.38199 15.0697 6.66494 17.8803 4.94788C24.1301 1.14451 29.4553 2.06766 36.5372 2.0492C39.6621 2.0492 41.9734 2.86157 43.7115 5.72333C45.1722 8.12351 45.1352 11.8161 43.2492 14.1055L41.4002 15.878Z" fill="#2D4EA0"/>
<path fill-rule="evenodd" clip-rule="evenodd" d="M37.1474 20.9185C37.1474 22.5986 34.6327 22.5986 34.6327 20.9185C34.6327 19.2199 37.1474 19.2199 37.1474 20.9185Z" fill="black"/>
<path fill-rule="evenodd" clip-rule="evenodd" d="M60.3714 20.1059C60.3714 23.3924 61.1849 25.4971 63.4778 27.5281C65.2344 29.0789 67.4902 29.8544 70.763 29.8544H83.355C84.0577 29.8544 83.8358 29.1159 83.8358 27.4911C83.8358 26.7341 82.449 27.0111 81.0067 27.0111C78.7139 27.0111 68.8585 27.1957 67.6566 26.8265C63.6257 25.5525 61.6472 20.4752 64.1249 18.0196C65.7891 16.3764 68.1743 16.4503 69.5611 17.8535C70.5411 18.832 71.854 21.823 69.1913 21.823C68.0079 21.823 68.2483 19.9582 68.2483 19.312H65.5672C65.5672 21.1768 65.3823 22.0446 66.6211 23.2816C70.5596 27.2142 76.4396 21.3614 71.669 16.2103C68.3777 12.6284 62.8676 13.9762 61.0555 17.6319C60.7227 18.2966 60.3714 19.1828 60.3714 20.1059Z" fill="black"/>
<path fill-rule="evenodd" clip-rule="evenodd" d="M60.3714 35.818C60.3714 37.1288 60.5563 38.3658 61.7766 39.289C62.8861 40.1198 64.014 40.2306 65.5672 40.2306V37.4058C64.088 37.4058 63.0525 37.6827 63.0525 35.9841C63.0525 34.5994 65.9925 35.0425 67.6196 35.0425H81.469C84.1316 35.0425 83.8358 35.541 83.8358 32.6793C83.8358 32.31 83.7248 32.1992 83.355 32.1992H64.9385C62.4793 32.1992 60.3714 33.7132 60.3714 35.818Z" fill="black"/>
</g>
<defs>
<clipPath id="clip0_1_341">
<rect width="122.074" height="80" fill="white"/>
</clipPath>
</defs>
</svg>
