<svg width="118" height="80" viewBox="0 0 118 80" fill="none" xmlns="http://www.w3.org/2000/svg">
<g clip-path="url(#clip0_1_177)">
<path fill-rule="evenodd" clip-rule="evenodd" d="M60.3969 72.247L69.9376 25.1688H91.3015C91.1701 25.6791 89.0189 28.7573 88.4606 29.5968L64.338 66.3376C63.6811 67.3088 63.0735 68.247 62.4003 69.2512L60.6104 72.0166C60.3969 72.28 60.5283 72.1153 60.3969 72.247ZM45.5522 25.1688H67.3595C67.1788 25.5639 66.7519 27.852 66.6369 28.3952L56.9485 75.9343C56.8828 76.2964 56.8499 76.4939 56.8171 76.7079C56.6529 77.4651 56.9649 77.0536 56.4558 77.4158C56.0125 77.0865 56.2916 77.5968 55.9632 75.9343L53.615 64.461C52.7282 60.0166 51.8251 55.8026 50.9383 51.3581C50.0516 46.9137 49.1484 42.6503 48.2617 38.2553C47.8183 36.066 47.3585 33.8767 46.9316 31.7038C46.7017 30.568 46.521 29.5639 46.2747 28.4116C46.1598 27.8684 45.7493 25.5639 45.5522 25.1688ZM81.1532 6.50218C81.7279 6.65032 81.5637 6.73263 81.8922 7.2923C82.1221 7.6709 82.3027 7.93427 82.5326 8.32934L87.6067 16.4446C88.0665 17.1853 88.4442 17.8273 88.8876 18.5022C89.7743 19.8355 90.5789 21.2676 91.4657 22.6009H71.3169C71.5633 21.6627 80.9397 7.44045 81.1532 6.50218ZM56.308 6.50218H56.6036C56.8499 7.44045 66.2264 21.6627 66.4563 22.6009H46.4718C46.6196 21.959 48.4587 19.2594 48.8528 18.6009C49.2634 17.9096 49.6575 17.317 50.0844 16.6421L56.308 6.50218ZM31.7749 6.50218C31.9227 7.07831 32.5959 7.95074 32.9408 8.52687C35.1741 12.3129 38.097 16.6586 40.4124 20.4775L41.6276 22.6009H21.4624C22.3327 21.2841 23.0881 19.9507 23.9748 18.5845L30.3298 8.41164C30.9046 7.48983 31.233 6.63386 31.7749 6.50218ZM58.8862 5.28407H78.8871C78.7393 5.89312 75.7342 10.5186 75.2744 11.2429L71.4812 17.317C71.0378 17.9919 70.7094 18.6009 70.266 19.2923C69.9704 19.7697 69.1494 20.9219 69.018 21.3828H68.7224C68.6075 20.9055 68.4597 20.7738 68.2134 20.3787L66.3578 17.3828C65.9472 16.6915 65.5531 16.0989 65.1262 15.424L59.0175 5.59683C58.9518 5.46514 58.8862 5.28407 58.8862 5.28407ZM34.041 5.28407H54.0419C53.7956 6.22234 44.4191 20.4446 44.1892 21.3828H43.8937C43.713 20.675 36.3235 9.16884 35.2726 7.40753L34.041 5.28407ZM32.8258 47.0289C33.5484 46.4363 34.0082 45.2676 34.041 44.0001C33.4827 43.5886 30.1656 38.2388 29.3446 37.0207L24.7138 29.9754C24.1555 29.1359 23.6628 28.4116 23.1374 27.6051C22.7925 27.0783 21.7744 25.7285 21.6266 25.1688H42.9905L48.9678 54.4199C49.3783 56.461 49.7067 58.3376 50.183 60.3458C50.6428 62.3705 50.9383 64.2635 51.3653 66.2882L52.1535 71.7367L39.2136 51.9837C38.3433 52.28 37.6044 53.0865 37.3088 53.8767C37.6208 54.1894 38.0477 54.9302 38.3433 55.3581L41.5783 60.3129C42.3337 61.4651 43.0233 62.4857 43.7623 63.5886L54.5181 79.9837H58.4592C64.9948 70.1894 71.4647 60.0166 78.0004 50.2223C78.3945 49.6298 78.7393 49.1195 79.1498 48.4939C79.9545 47.2923 80.6934 46.2388 81.4488 45.0372L92.9928 27.4569C93.469 26.7491 95.0783 24.5269 95.2589 23.819L82.0728 2.69971H30.8553C26.6186 9.03716 21.955 17.3993 17.6691 23.8026C17.8169 24.3623 18.211 24.7244 18.5066 25.2347L25.1736 35.4075C27.2591 38.5022 30.7896 44.1647 32.8258 47.0289Z" fill="black"/>
<path fill-rule="evenodd" clip-rule="evenodd" d="M82.5162 46.2883V48.8727C85.2913 48.8727 87.5082 51.1113 87.5082 53.8768H90.0863C90.0863 51.0455 92.2703 48.8727 95.0783 48.8727V46.2883C92.2539 46.2883 90.0863 44.1155 90.0863 41.2842H87.5246C87.5246 44.0825 85.3242 46.2883 82.5162 46.2883Z" fill="#2D4EA0"/>
<path fill-rule="evenodd" clip-rule="evenodd" d="M72.5157 63.7531C72.5157 67.4075 72.4008 65.8601 74.3384 66.6338C76.3911 67.4568 77.5241 69.07 77.5241 71.3416H80.1023C80.1679 68.5762 82.2698 66.3375 85.0943 66.3375V63.7531C82.2698 63.7531 80.1515 61.4815 80.1023 58.749H77.5241C77.5241 61.6297 75.373 63.7531 72.5157 63.7531Z" fill="#2D4EA0"/>
<path fill-rule="evenodd" clip-rule="evenodd" d="M17.8333 74.9794C18.6051 75.1605 19.1142 75.1111 19.8039 75.4238C21.5774 76.2304 22.8254 77.7284 22.8254 79.9835H25.4035C25.4035 77.9094 26.6022 76.2963 28.3264 75.4732C29.1147 75.0946 29.5416 75.1769 30.3955 74.9794V72.395C27.3576 72.395 25.4035 70.1234 25.4035 67.5391H22.8254C22.8254 70.502 20.8548 71.9835 18.4245 72.395C17.5542 72.5432 17.8333 72.4938 17.8333 74.9794Z" fill="#2D4EA0"/>
<path fill-rule="evenodd" clip-rule="evenodd" d="M32.8258 47.0289C32.3168 47.8519 31.0031 48.5268 30.0507 48.6585C28.8683 48.8396 29.0161 48.5597 29.0325 49.9095C29.0325 51.1276 28.7534 51.3252 29.7715 51.4569C32.3332 51.7696 34.041 53.8766 34.041 56.2964H36.6191C36.6191 55.3252 36.8326 54.4527 37.2924 53.8601C37.588 53.07 38.3269 52.2634 39.1972 51.9671C39.5913 51.7531 39.9854 51.5392 40.4452 51.4733C41.3648 51.3416 41.5783 51.7367 41.6275 50.6996C41.7589 48.0165 41.6275 49.07 39.8705 48.461C38.097 47.8355 36.6027 46.14 36.6027 43.8354L34.0246 43.9836C34.0246 45.2676 33.5484 46.4363 32.8258 47.0289Z" fill="#2D4EA0"/>
<path fill-rule="evenodd" clip-rule="evenodd" d="M67.9835 52.0495C68.8045 52.2635 69.2807 53.0372 70.1018 53.2676L74.946 45.8273C75.7835 44.5763 76.5553 43.3417 77.3928 42.0577C77.869 41.3335 79.6425 38.8808 79.7902 38.2388C79.1006 37.7779 78.4109 37.2676 77.6719 36.8726L72.7948 44.4281C72.4172 45.0042 68.0491 51.2759 67.9835 52.0495Z" fill="black"/>
<path fill-rule="evenodd" clip-rule="evenodd" d="M65.4053 55.7035C66.2264 55.9175 66.7026 56.6912 67.5237 56.9216C67.8849 56.6582 69.0672 54.864 69.1822 54.3372L67.0639 53.1191C66.522 53.9257 65.8651 54.8311 65.4053 55.7035Z" fill="black"/>
<path fill-rule="evenodd" clip-rule="evenodd" d="M46.6196 9.2345C47.4406 9.44849 47.9168 10.2221 48.7379 10.4526C49.1977 9.76124 49.7067 9.06989 50.1008 8.32915C49.4604 7.98347 48.4095 7.11104 47.8347 6.96289C47.6048 7.8024 46.6853 8.32915 46.6196 9.2345Z" fill="black"/>
<path fill-rule="evenodd" clip-rule="evenodd" d="M59.9536 36.2635C60.8075 36.3294 61.6449 36.6915 62.5317 36.7244C62.6959 36.0331 62.9915 34.9302 62.9915 34.1401C62.0719 34.1401 61.7763 33.9261 61.0209 33.7944C59.8386 33.6133 60.6761 34.7491 59.9536 36.2635Z" fill="black"/>
<path fill-rule="evenodd" clip-rule="evenodd" d="M78.1317 15.3085C78.3945 15.6542 79.741 16.5595 80.25 16.6748L81.613 14.5513C81.1696 14.3209 80.9233 14.1563 80.4964 13.86C80.0201 13.5472 79.8067 13.4484 79.3469 13.1851C79.117 14.0081 78.3452 14.4855 78.1317 15.3085Z" fill="black"/>
<path fill-rule="evenodd" clip-rule="evenodd" d="M59.0339 41.1193C59.7236 41.2839 60.8238 41.5802 61.6121 41.5802C61.6121 41.037 61.9076 39.4897 62.0718 39.144C61.2836 38.9629 60.4133 38.6831 59.4937 38.6831C59.3459 39.3086 59.0504 40.4444 59.0339 41.1193Z" fill="black"/>
<path fill-rule="evenodd" clip-rule="evenodd" d="M32.5302 37.3167C32.6452 37.7612 33.614 39.1604 33.8932 39.5883C34.5829 39.1274 35.2726 38.6172 36.0115 38.2221C35.798 37.399 35.0263 36.9217 34.7964 36.0986C33.9096 36.1809 33.3841 37.1027 32.5302 37.3167Z" fill="black"/>
<path fill-rule="evenodd" clip-rule="evenodd" d="M29.8044 33.2183C30.0178 34.0414 30.7896 34.5187 31.0195 35.3418C31.9227 35.2595 32.4317 34.3541 33.2856 34.1237C33.1378 33.5475 32.2675 32.494 31.9227 31.8521C31.2494 32.313 30.5433 32.8397 29.8044 33.2183Z" fill="black"/>
<path fill-rule="evenodd" clip-rule="evenodd" d="M27.0784 28.971C27.2262 29.5801 28.0965 30.7159 28.4414 31.2426C29.1311 30.7817 29.87 30.3373 30.5597 29.8764C30.1656 29.1356 29.6565 28.4278 29.1968 27.7529C28.7698 27.9834 28.5235 28.0986 28.1294 28.362C27.7845 28.6089 27.5382 28.8558 27.0784 28.971Z" fill="black"/>
<path fill-rule="evenodd" clip-rule="evenodd" d="M75.2416 19.5556C76.0627 19.7696 76.5389 20.5432 77.3599 20.7737C77.7869 20.4939 78.5915 19.2264 78.7229 18.6502C78.066 18.3046 77.2778 17.5967 76.6046 17.4321C76.1612 18.107 75.6357 18.8148 75.2416 19.5556Z" fill="black"/>
<path fill-rule="evenodd" clip-rule="evenodd" d="M43.8937 13.1853C44.1564 13.5309 45.503 14.4363 46.012 14.5515C46.324 14.0906 47.0794 13.103 47.2272 12.5762C46.9644 12.1976 45.7493 11.3416 45.2566 11.21C44.8789 11.4569 44.025 12.675 43.8937 13.1853Z" fill="black"/>
<path fill-rule="evenodd" clip-rule="evenodd" d="M61.0045 31.4076C61.9733 31.4241 62.663 31.8356 63.5826 31.8685C63.5826 28.9714 65.4218 29.7615 61.4643 28.8232C61.4479 29.7286 61.0373 30.4364 61.0045 31.4076Z" fill="black"/>
<path fill-rule="evenodd" clip-rule="evenodd" d="M101.893 32.5269H104.406V35.0454H101.893V32.5269ZM101.745 32.3623H99.2329V35.1935H101.745V37.7121H104.406V35.1935C107.608 35.1935 107.066 35.7038 107.066 32.8396C107.066 32.1154 106.179 32.3623 104.406 32.3623V29.8438H101.745V32.3623Z" fill="black"/>
<path fill-rule="evenodd" clip-rule="evenodd" d="M2.69307 60.5597H5.20551V63.0783H2.69307V60.5597ZM2.69307 60.4116C-0.509046 60.4116 0.0328511 59.9013 0.0328511 62.7655C0.0328511 63.4898 0.919592 63.2429 2.69307 63.2429V65.7614H5.3533V63.2429H7.86573V60.4116H5.36972V57.8931H2.69307V60.4116Z" fill="black"/>
<path fill-rule="evenodd" clip-rule="evenodd" d="M112.255 2.66667H114.767V5.18519H112.255V2.66667ZM112.091 2.51852H109.578V5.34979H112.091V7.86831H114.751V5.34979C117.953 5.34979 117.411 5.86008 117.411 2.99588C117.411 2.27161 116.524 2.51852 114.751 2.51852V0H112.091V2.51852Z" fill="black"/>
<path fill-rule="evenodd" clip-rule="evenodd" d="M8.09563 41.6789H10.6081V44.1974H8.09563V41.6789ZM8.09563 41.5307C4.89351 41.5307 5.43541 41.0204 5.43541 43.8846C5.43541 44.6089 6.32215 44.362 8.09563 44.362V46.8805H10.7559V44.362H13.2683V41.5307H10.7559V39.0122H8.09563V41.5307Z" fill="black"/>
<path fill-rule="evenodd" clip-rule="evenodd" d="M104.406 14.3047V16.8232H101.893V14.3047H104.406ZM104.406 14.3047V11.6216H101.745V14.2882H99.2329V16.9549H101.745V19.4734H104.406V16.9549H107.066V14.3047H104.406Z" fill="black"/>
<path fill-rule="evenodd" clip-rule="evenodd" d="M18.4409 53.3171H20.9534V55.8356H18.4409V53.3171ZM18.4409 53.3171H15.7643V55.9837H18.4245V58.5022H21.0847V55.9837H23.5972V53.3171H21.0847V50.6504H18.4245V53.3171H18.4409Z" fill="black"/>
</g>
<defs>
<clipPath id="clip0_1_177">
<rect width="117.46" height="80" fill="white"/>
</clipPath>
</defs>
</svg>
