<svg width="32" height="32" viewBox="0 0 32 32" fill="none" xmlns="http://www.w3.org/2000/svg">
<path d="M29.3333 30.3334H2.66663C2.11996 30.3334 1.66663 29.88 1.66663 29.3334C1.66663 28.7867 2.11996 28.3334 2.66663 28.3334H29.3333C29.88 28.3334 30.3333 28.7867 30.3333 29.3334C30.3333 29.88 29.88 30.3334 29.3333 30.3334Z" fill="#2E4DA0"/>
<path d="M27.8535 30.3334C27.3068 30.3334 26.8535 29.88 26.8535 29.3334V17.3334C26.8535 15.68 25.3068 14.3334 23.4135 14.3334H8.58685C6.69352 14.3334 5.14685 15.68 5.14685 17.3334V29.3334C5.14685 29.88 4.69352 30.3334 4.14685 30.3334C3.60018 30.3334 3.14685 29.88 3.14685 29.3334V17.3334C3.14685 14.5734 5.58685 12.3334 8.58685 12.3334H23.4002C26.4002 12.3334 28.8402 14.5734 28.8402 17.3334V29.3334C28.8535 29.88 28.4002 30.3334 27.8535 30.3334Z" fill="#2E4DA0"/>
<path d="M24.5868 14.3333C24.0402 14.3333 23.5868 13.88 23.5868 13.3333V9.55996C23.5868 8.51996 22.5868 7.66663 21.3735 7.66663H10.6401C9.41345 7.66663 8.42679 8.51996 8.42679 9.55996V13.3333C8.42679 13.88 7.97345 14.3333 7.42679 14.3333C6.88012 14.3333 6.41345 13.88 6.41345 13.3333V9.55996C6.41345 7.41329 8.30679 5.66663 10.6268 5.66663H21.3602C23.6802 5.66663 25.5735 7.41329 25.5735 9.55996V13.3333C25.5868 13.88 25.1335 14.3333 24.5868 14.3333Z" fill="#2E4DA0"/>
<path d="M23.1067 23.6667C21.56 23.6667 20.3067 22.4134 20.3067 20.8667V20.4534C20.3067 20.0134 19.9467 19.6534 19.5067 19.6534C19.0667 19.6534 18.7067 20.0134 18.7067 20.4534V20.8667C18.7067 22.4134 17.4533 23.6667 15.9067 23.6667C14.36 23.6667 13.1066 22.4134 13.1066 20.8667V20.4534C13.1066 20.0134 12.7466 19.6534 12.3066 19.6534C11.8666 19.6534 11.5066 20.0134 11.5066 20.4534V20.8667C11.5066 22.4134 10.2533 23.6667 8.7066 23.6667C7.15994 23.6667 5.9066 22.4134 5.9066 20.8667V20.4267C5.9066 20 5.55994 19.64 5.11994 19.6267H4.6266C4.07994 19.6134 3.6266 19.16 3.63994 18.6134C3.65327 18.0667 4.09327 17.6267 4.63994 17.6267H4.65327H5.1466C6.6666 17.6534 7.9066 18.9067 7.9066 20.4267V20.8667C7.9066 21.3067 8.2666 21.6667 8.7066 21.6667C9.1466 21.6667 9.5066 21.3067 9.5066 20.8667V20.4534C9.5066 18.9067 10.7599 17.6534 12.3066 17.6534C13.8533 17.6534 15.1067 18.9067 15.1067 20.4534V20.8667C15.1067 21.3067 15.4667 21.6667 15.9067 21.6667C16.3467 21.6667 16.7067 21.3067 16.7067 20.8667V20.4534C16.7067 18.9067 17.96 17.6534 19.5067 17.6534C21.0533 17.6534 22.3067 18.9067 22.3067 20.4534V20.8667C22.3067 21.3067 22.6667 21.6667 23.1067 21.6667C23.5467 21.6667 23.9067 21.3067 23.9067 20.8667V20.4534C23.9067 18.9067 25.16 17.6534 26.7067 17.6534H27.3067C27.8533 17.6534 28.3067 18.1067 28.3067 18.6534C28.3067 19.2 27.8533 19.6534 27.3067 19.6534H26.7067C26.2667 19.6534 25.9067 20.0134 25.9067 20.4534V20.8667C25.9067 22.4134 24.6533 23.6667 23.1067 23.6667Z" fill="#2E4DA0"/>
<path d="M10.6666 7.66667C10.12 7.66667 9.66663 7.21333 9.66663 6.66667V4C9.66663 3.45333 10.12 3 10.6666 3C11.2133 3 11.6666 3.45333 11.6666 4V6.66667C11.6666 7.21333 11.2133 7.66667 10.6666 7.66667Z" fill="#2E4DA0"/>
<path d="M21.3334 7.66667C20.7867 7.66667 20.3334 7.21333 20.3334 6.66667V4C20.3334 3.45333 20.7867 3 21.3334 3C21.88 3 22.3334 3.45333 22.3334 4V6.66667C22.3334 7.21333 21.88 7.66667 21.3334 7.66667Z" fill="#2E4DA0"/>
<path d="M16 7.66663C15.4533 7.66663 15 7.21329 15 6.66663V2.66663C15 2.11996 15.4533 1.66663 16 1.66663C16.5467 1.66663 17 2.11996 17 2.66663V6.66663C17 7.21329 16.5467 7.66663 16 7.66663Z" fill="#2E4DA0"/>
</svg>
