<svg width="122" height="80" viewBox="0 0 122 80" fill="none" xmlns="http://www.w3.org/2000/svg">
<g clip-path="url(#clip0_1_310)">
<path fill-rule="evenodd" clip-rule="evenodd" d="M111.833 43.5562C111.833 44.5348 111.957 45.3581 112.142 46.1502C113.885 46.1502 115.86 45.5755 117.156 45.5445C116.832 46.026 116.446 46.2745 116.076 46.7405C115.659 47.2686 115.474 47.4705 114.996 47.952C114.579 48.3714 114.271 48.6821 113.854 49.1015C113.407 49.5519 113.268 49.8626 112.79 50.3286L106.033 57.4271C105.03 58.4678 99.8925 64.2149 99.2445 64.6498C97.5784 63.7645 93.4747 60.6424 91.8085 59.757L79.3586 70.9096C78.8032 70.7542 77.9856 70.0242 77.5382 69.6825C76.0263 68.5331 66.1527 60.9841 65.1191 60.3783L65.1037 60.3628H65.0882C65.042 60.3938 64.9803 60.4404 64.934 60.487L48.3649 72.9754L49.9077 75.0413L65.15 63.547C68.2354 65.7837 74.7458 70.8008 75.44 71.329C76.1189 71.8415 78.9421 74.0938 79.5129 74.2491C80.4077 73.6434 87.6586 66.8555 89.6333 65.1935C89.9418 64.9294 90.1115 64.712 90.3892 64.4324C90.9909 63.8577 91.4691 63.6713 91.9474 62.9412C92.6416 63.314 93.2279 63.7489 93.8912 64.1994L97.7172 66.7623C98.1801 67.073 99.1674 67.8496 99.6919 67.9894L108.223 58.8561C108.686 58.3901 109.056 58.0329 109.519 57.5669L110.661 56.2621C111.093 55.7961 111.494 55.4233 111.957 54.9729L114.456 52.3012C115.304 51.4625 118.837 47.4705 119.424 47.0667V52.5653H122V42.1738L116.94 42.8883C116.014 43.0281 115.304 43.1213 114.41 43.2456C113.561 43.3699 112.805 43.5562 111.833 43.5562Z" fill="#2D4EA0"/>
<path fill-rule="evenodd" clip-rule="evenodd" d="M72.586 51.0585C72.586 53.4817 71.1358 56.0601 68.4669 56.0601C68.4052 56.0601 68.3589 56.0601 68.2972 56.0756C65.7516 56.0446 63.6844 53.9476 63.6844 51.3692C63.6844 51.3226 63.6844 51.2915 63.6844 51.2605V33.4598H72.6014V51.0585H72.586ZM50.9259 8.59177C50.9259 5.88906 52.9932 3.65233 55.6158 3.38827H55.801C55.8781 3.38827 55.9707 3.37274 56.0478 3.3572H56.0786C58.9481 3.3572 61.2777 5.70266 61.2777 8.59177V51.3537C61.2777 51.4003 61.2777 51.4469 61.2777 51.4779C61.3085 53.1865 61.9411 54.7864 63.0518 56.0601H50.8488L50.9259 8.59177ZM48.4421 72.2764C48.4421 73.6743 47.9021 74.9946 46.9148 75.9887C45.9428 76.9518 44.6624 77.4954 43.3047 77.5109C43.243 77.4954 43.1813 77.4954 43.1196 77.4954C40.1267 77.4954 38.5222 74.6374 38.5222 71.9502C38.5222 71.2823 37.9823 70.7386 37.3189 70.7386H15.3194L15.412 5.20561C15.412 4.18044 16.2451 3.34167 17.2633 3.34167L50.5865 3.38827C49.3214 4.75516 48.5346 6.58803 48.5346 8.59177L48.4421 66.7622V72.2764ZM2.46837 73.1618H36.2081C36.4241 74.8704 37.0566 76.3615 38.0286 77.5109H31.8267L14.1006 77.4799C14.0235 77.4799 13.9309 77.4954 13.8538 77.5109H7.6057C5.02932 77.4954 2.90034 75.6159 2.46837 73.1618ZM73.7739 31.0522H63.6689V8.59177C63.6689 4.56876 60.568 1.2758 56.6495 0.965148C56.5723 0.949615 56.4952 0.934082 56.4026 0.934082H56.1249C56.0786 0.934082 56.0169 0.934082 55.9707 0.934082H55.7855C55.7238 0.934082 55.6467 0.934082 55.585 0.949615C55.5541 0.949615 55.5233 0.949615 55.4924 0.965148L17.2633 0.934082C14.9183 0.934082 13.0053 2.84462 13.0053 5.20561L12.9127 70.7542H1.1879C0.524518 70.7542 -0.0154419 71.2978 -0.0154419 71.9657V72.2764C-0.0154419 76.5013 3.39402 79.9341 7.59027 79.9341H31.8113L43.2122 79.9496H43.2276C45.2486 79.9496 47.1616 79.1574 48.5963 77.7129C50.0311 76.2683 50.8333 74.3423 50.8333 72.3074V66.7933V58.5143H68.4514C68.5286 58.5143 68.6057 58.5143 68.6674 58.4988C72.2774 58.3745 74.9618 55.2369 74.9618 51.0896V32.2483C74.9772 31.5804 74.4373 31.0522 73.7739 31.0522Z" fill="black"/>
<path fill-rule="evenodd" clip-rule="evenodd" d="M36.5167 6.02881H18.7135C18.0501 6.02881 17.5101 6.57246 17.5101 7.24037C17.5101 7.90828 18.0501 8.45193 18.7135 8.45193H36.5167C37.1801 8.45193 37.72 7.90828 37.72 7.24037C37.7046 6.57246 37.1801 6.02881 36.5167 6.02881Z" fill="black"/>
<path fill-rule="evenodd" clip-rule="evenodd" d="M45.4955 6.02881H40.5587C39.8953 6.02881 39.3553 6.57246 39.3553 7.24037C39.3553 7.90828 39.8953 8.45193 40.5587 8.45193H45.4955C46.1588 8.45193 46.6988 7.90828 46.6988 7.24037C46.6988 6.57246 46.1588 6.02881 45.4955 6.02881Z" fill="black"/>
<path fill-rule="evenodd" clip-rule="evenodd" d="M36.5167 11.4033H18.7135C18.0501 11.4033 17.5101 11.947 17.5101 12.6149C17.5101 13.2828 18.0501 13.8264 18.7135 13.8264H36.5167C37.1801 13.8264 37.72 13.2828 37.72 12.6149C37.7046 11.947 37.1801 11.4033 36.5167 11.4033Z" fill="black"/>
<path fill-rule="evenodd" clip-rule="evenodd" d="M45.4955 11.4033H40.5587C39.8953 11.4033 39.3553 11.947 39.3553 12.6149C39.3553 13.2828 39.8953 13.8264 40.5587 13.8264H45.4955C46.1588 13.8264 46.6988 13.2828 46.6988 12.6149C46.6988 11.947 46.1588 11.4033 45.4955 11.4033Z" fill="black"/>
<path fill-rule="evenodd" clip-rule="evenodd" d="M36.5167 16.7773H18.7135C18.0501 16.7773 17.5101 17.321 17.5101 17.9889C17.5101 18.6568 18.0501 19.2005 18.7135 19.2005H36.5167C37.1801 19.2005 37.72 18.6568 37.72 17.9889C37.7046 17.321 37.1801 16.7773 36.5167 16.7773Z" fill="black"/>
<path fill-rule="evenodd" clip-rule="evenodd" d="M45.4955 16.7773H40.5587C39.8953 16.7773 39.3553 17.321 39.3553 17.9889C39.3553 18.6568 39.8953 19.2005 40.5587 19.2005H45.4955C46.1588 19.2005 46.6988 18.6568 46.6988 17.9889C46.6988 17.321 46.1588 16.7773 45.4955 16.7773Z" fill="black"/>
<path fill-rule="evenodd" clip-rule="evenodd" d="M36.5167 22.1519H18.7135C18.0501 22.1519 17.5101 22.6955 17.5101 23.3634C17.5101 24.0313 18.0501 24.575 18.7135 24.575H36.5167C37.1801 24.575 37.72 24.0313 37.72 23.3634C37.7046 22.6955 37.1801 22.1519 36.5167 22.1519Z" fill="black"/>
<path fill-rule="evenodd" clip-rule="evenodd" d="M45.4955 22.1519H40.5587C39.8953 22.1519 39.3553 22.6955 39.3553 23.3634C39.3553 24.0313 39.8953 24.575 40.5587 24.575H45.4955C46.1588 24.575 46.6988 24.0313 46.6988 23.3634C46.6988 22.6955 46.1588 22.1519 45.4955 22.1519Z" fill="black"/>
<path fill-rule="evenodd" clip-rule="evenodd" d="M36.5167 27.5264H18.7135C18.0501 27.5264 17.5101 28.07 17.5101 28.7379C17.5101 29.4058 18.0501 29.9495 18.7135 29.9495H36.5167C37.1801 29.9495 37.72 29.4058 37.72 28.7379C37.7046 28.07 37.1801 27.5264 36.5167 27.5264Z" fill="black"/>
<path fill-rule="evenodd" clip-rule="evenodd" d="M45.4955 27.5264H40.5587C39.8953 27.5264 39.3553 28.07 39.3553 28.7379C39.3553 29.4058 39.8953 29.9495 40.5587 29.9495H45.4955C46.1588 29.9495 46.6988 29.4058 46.6988 28.7379C46.6988 28.07 46.1588 27.5264 45.4955 27.5264Z" fill="black"/>
<path fill-rule="evenodd" clip-rule="evenodd" d="M36.5167 32.6367H18.7135C18.0501 32.6367 17.5101 33.1804 17.5101 33.8483C17.5101 34.5162 18.0501 35.0598 18.7135 35.0598H36.5167C37.1801 35.0598 37.72 34.5162 37.72 33.8483C37.7046 33.1804 37.1801 32.6367 36.5167 32.6367Z" fill="black"/>
<path fill-rule="evenodd" clip-rule="evenodd" d="M45.4955 32.6367H40.5587C39.8953 32.6367 39.3553 33.1804 39.3553 33.8483C39.3553 34.5162 39.8953 35.0598 40.5587 35.0598H45.4955C46.1588 35.0598 46.6988 34.5162 46.6988 33.8483C46.6988 33.1804 46.1588 32.6367 45.4955 32.6367Z" fill="black"/>
<path fill-rule="evenodd" clip-rule="evenodd" d="M36.5167 38.0107H18.7135C18.0501 38.0107 17.5101 38.5544 17.5101 39.2223C17.5101 39.8902 18.0501 40.4339 18.7135 40.4339H36.5167C37.1801 40.4339 37.72 39.8902 37.72 39.2223C37.7046 38.5544 37.1801 38.0107 36.5167 38.0107Z" fill="black"/>
<path fill-rule="evenodd" clip-rule="evenodd" d="M45.4955 38.0107H40.5587C39.8953 38.0107 39.3553 38.5544 39.3553 39.2223C39.3553 39.8902 39.8953 40.4339 40.5587 40.4339H45.4955C46.1588 40.4339 46.6988 39.8902 46.6988 39.2223C46.6988 38.5544 46.1588 38.0107 45.4955 38.0107Z" fill="black"/>
<path fill-rule="evenodd" clip-rule="evenodd" d="M36.5167 43.3853H18.7135C18.0501 43.3853 17.5101 43.9289 17.5101 44.5968C17.5101 45.2647 18.0501 45.8084 18.7135 45.8084H36.5167C37.1801 45.8084 37.72 45.2647 37.72 44.5968C37.7046 43.9289 37.1801 43.3853 36.5167 43.3853Z" fill="black"/>
<path fill-rule="evenodd" clip-rule="evenodd" d="M45.4955 43.3853H40.5587C39.8953 43.3853 39.3553 43.9289 39.3553 44.5968C39.3553 45.2647 39.8953 45.8084 40.5587 45.8084H45.4955C46.1588 45.8084 46.6988 45.2647 46.6988 44.5968C46.6988 43.9289 46.1588 43.3853 45.4955 43.3853Z" fill="black"/>
<path fill-rule="evenodd" clip-rule="evenodd" d="M36.5167 48.7598H18.7135C18.0501 48.7598 17.5101 49.3034 17.5101 49.9713C17.5101 50.6392 18.0501 51.1829 18.7135 51.1829H36.5167C37.1801 51.1829 37.72 50.6392 37.72 49.9713C37.7046 49.3034 37.1801 48.7598 36.5167 48.7598Z" fill="black"/>
<path fill-rule="evenodd" clip-rule="evenodd" d="M45.4955 48.7598H40.5587C39.8953 48.7598 39.3553 49.3034 39.3553 49.9713C39.3553 50.6392 39.8953 51.1829 40.5587 51.1829H45.4955C46.1588 51.1829 46.6988 50.6392 46.6988 49.9713C46.6988 49.3034 46.1588 48.7598 45.4955 48.7598Z" fill="black"/>
<path fill-rule="evenodd" clip-rule="evenodd" d="M36.5167 54.1343H18.7135C18.0501 54.1343 17.5101 54.6779 17.5101 55.3458C17.5101 56.0137 18.0501 56.5574 18.7135 56.5574H36.5167C37.1801 56.5574 37.72 56.0137 37.72 55.3458C37.7046 54.6779 37.1801 54.1343 36.5167 54.1343Z" fill="black"/>
<path fill-rule="evenodd" clip-rule="evenodd" d="M45.4955 54.1343H40.5587C39.8953 54.1343 39.3553 54.6779 39.3553 55.3458C39.3553 56.0137 39.8953 56.5574 40.5587 56.5574H45.4955C46.1588 56.5574 46.6988 56.0137 46.6988 55.3458C46.6988 54.6779 46.1588 54.1343 45.4955 54.1343Z" fill="black"/>
<path fill-rule="evenodd" clip-rule="evenodd" d="M36.5167 59.5083H18.7135C18.0501 59.5083 17.5101 60.0519 17.5101 60.7199C17.5101 61.3878 18.0501 61.9314 18.7135 61.9314H36.5167C37.1801 61.9314 37.72 61.3878 37.72 60.7199C37.7046 60.0519 37.1801 59.5083 36.5167 59.5083Z" fill="black"/>
<path fill-rule="evenodd" clip-rule="evenodd" d="M45.4955 59.5083H40.5587C39.8953 59.5083 39.3553 60.0519 39.3553 60.7199C39.3553 61.3878 39.8953 61.9314 40.5587 61.9314H45.4955C46.1588 61.9314 46.6988 61.3878 46.6988 60.7199C46.6988 60.0519 46.1588 59.5083 45.4955 59.5083Z" fill="black"/>
<path fill-rule="evenodd" clip-rule="evenodd" d="M36.5167 64.8828H18.7135C18.0501 64.8828 17.5101 65.4265 17.5101 66.0944C17.5101 66.7623 18.0501 67.3059 18.7135 67.3059H36.5167C37.1801 67.3059 37.72 66.7623 37.72 66.0944C37.7046 65.4265 37.1801 64.8828 36.5167 64.8828Z" fill="black"/>
<path fill-rule="evenodd" clip-rule="evenodd" d="M45.4955 64.8828H40.5587C39.8953 64.8828 39.3553 65.4265 39.3553 66.0944C39.3553 66.7623 39.8953 67.3059 40.5587 67.3059H45.4955C46.1588 67.3059 46.6988 66.7623 46.6988 66.0944C46.6988 65.4265 46.1588 64.8828 45.4955 64.8828Z" fill="black"/>
<path fill-rule="evenodd" clip-rule="evenodd" d="M70.5804 35.1528H65.6436C64.9803 35.1528 64.4403 35.6965 64.4403 36.3644C64.4403 37.0323 64.9803 37.576 65.6436 37.576H70.5804C71.2438 37.576 71.7838 37.0323 71.7838 36.3644C71.7838 35.6965 71.2438 35.1528 70.5804 35.1528Z" fill="black"/>
<path fill-rule="evenodd" clip-rule="evenodd" d="M70.5804 40.5273H65.6436C64.9803 40.5273 64.4403 41.071 64.4403 41.7389C64.4403 42.4068 64.9803 42.9505 65.6436 42.9505H70.5804C71.2438 42.9505 71.7838 42.4068 71.7838 41.7389C71.7838 41.071 71.2438 40.5273 70.5804 40.5273Z" fill="black"/>
<path fill-rule="evenodd" clip-rule="evenodd" d="M70.5804 45.9019H65.6436C64.9803 45.9019 64.4403 46.4455 64.4403 47.1134C64.4403 47.7813 64.9803 48.325 65.6436 48.325H70.5804C71.2438 48.325 71.7838 47.7813 71.7838 47.1134C71.7838 46.4455 71.2438 45.9019 70.5804 45.9019Z" fill="black"/>
<path fill-rule="evenodd" clip-rule="evenodd" d="M70.5804 51.2759H65.6436C64.9803 51.2759 64.4403 51.8195 64.4403 52.4874C64.4403 53.1554 64.9803 53.699 65.6436 53.699H70.5804C71.2438 53.699 71.7838 53.1554 71.7838 52.4874C71.7838 51.8195 71.2438 51.2759 70.5804 51.2759Z" fill="black"/>
</g>
<defs>
<clipPath id="clip0_1_310">
<rect width="122" height="79" fill="white" transform="translate(0 0.934082)"/>
</clipPath>
</defs>
</svg>
