<svg width="76" height="76" viewBox="0 0 76 76" fill="none" xmlns="http://www.w3.org/2000/svg">
<path fill-rule="evenodd" clip-rule="evenodd" d="M17.4073 22.1666C16.368 20.4673 15.8334 18.3756 15.8334 15.8333C15.8334 10.8207 19.6028 6.33325 25.3334 6.33325C31.0714 6.33325 35.6987 10.1764 38 16.1937C40.3014 10.1764 44.9287 6.33325 50.6667 6.33325C56.3973 6.33325 60.1667 10.8207 60.1667 15.8333C60.1667 18.3756 59.6321 20.4673 58.5927 22.1666H63.3334C66.8312 22.1666 69.6667 25.0021 69.6667 28.4999V34.8333C69.6667 38.3311 66.8312 41.1666 63.3334 41.1666V63.3332C63.3334 66.8311 60.4978 69.6666 57 69.6666H19C15.5022 69.6666 12.6667 66.8311 12.6667 63.3332V41.1666C9.1689 41.1666 6.33337 38.3311 6.33337 34.8333V28.4999C6.33337 25.0021 9.1689 22.1666 12.6667 22.1666H17.4073ZM34.8334 28.4999H12.6667V34.8333H34.8334V28.4999ZM41.1667 34.8333H63.3334V28.4999H41.1667V34.8333ZM34.8334 63.3332V41.1666H19V63.3332H34.8334ZM41.1667 63.3332H57V41.1666H41.1667V63.3332ZM25.3334 12.6666C23.3689 12.6666 22.1667 14.0978 22.1667 15.8333C22.1667 19.8018 25.3872 21.6888 33.0265 22.0858C32.1775 16.1866 29.0136 12.6666 25.3334 12.6666ZM50.4432 12.6666C46.763 12.6666 43.5991 16.1866 42.75 22.0858C50.3894 21.6888 53.6099 19.8018 53.6099 15.8333C53.6099 14.0978 52.4076 12.6666 50.4432 12.6666Z" fill="#88ABED"/>
</svg>
