<svg width="34" height="34" viewBox="0 0 34 34" fill="none" xmlns="http://www.w3.org/2000/svg">
<g clip-path="url(#clip0_369_1006)">
<path d="M32.614 16.9994C33.5151 15.8754 33.9034 14.4018 33.6407 12.9529C33.3657 11.4367 32.4353 10.1657 31.1244 9.44562C31.5533 7.95059 31.2716 6.31012 30.3157 5.03519C29.3701 3.77435 27.8641 3.02156 26.2872 3.02156C26.0634 3.02156 25.8409 3.03648 25.6205 3.06611C24.8464 1.24128 23.0368 0 20.9899 0C19.3665 0 17.9204 0.772771 17 1.96985C16.0795 0.772771 14.6334 0 13.01 0C10.9622 0 9.15192 1.24239 8.37831 3.0686C8.15738 3.03904 7.93416 3.0242 7.70935 3.0242C6.10871 3.0242 4.64095 3.75769 3.6825 5.03686C2.72731 6.31179 2.44601 7.95211 2.87475 9.44693C1.56381 10.167 0.63346 11.4382 0.358546 12.9553C0.0964683 14.4039 0.48497 15.877 1.3859 17.0006C0.484762 18.1246 0.0964684 19.5981 0.35924 21.0472C0.634154 22.5634 1.56464 23.8343 2.87545 24.5543C2.44656 26.0494 2.72821 27.6899 3.68409 28.9648C4.62978 30.2257 6.13577 30.9784 7.71268 30.9784C7.93631 30.9784 8.15884 30.9635 8.37922 30.9339C9.15344 32.7588 10.9629 34 13.01 34C14.6333 34 16.0795 33.2272 17 32.0302C17.9204 33.2272 19.3665 34 20.9899 34C23.0378 34 24.8481 32.7576 25.6216 30.9314C25.8425 30.961 26.0657 30.9758 26.2906 30.9758C27.8912 30.9758 29.3591 30.2422 30.3175 28.9631C31.2726 27.6882 31.5539 26.0479 31.1251 24.5531C32.4362 23.833 33.3664 22.5618 33.6415 21.0447C33.9034 19.5961 33.5149 18.123 32.614 16.9994ZM15.9591 28.9694C15.9591 30.5955 14.6361 31.9184 13.01 31.9184C11.6012 31.9184 10.3845 30.9157 10.1168 29.5343L10.1026 29.4613C10.0755 29.2997 10.0612 29.1347 10.0612 28.9694C10.0612 28.4892 10.1758 28.0268 10.391 27.6125C11.1735 28.0932 12.0752 28.351 13.0168 28.3509L13.0167 26.2693C12.2289 26.2694 11.4883 25.9626 10.9313 25.4056C10.3744 24.8487 10.0676 24.1082 10.0676 23.3205L7.98593 23.3208C7.986 24.3412 8.28853 25.3147 8.8498 26.1404C8.30018 26.945 7.99807 27.891 7.98162 28.8841C7.89239 28.8924 7.80274 28.8968 7.71275 28.8968C6.77372 28.8968 5.91234 28.4664 5.34954 27.716C4.65691 26.7922 4.5683 25.5405 5.12382 24.5273L5.37098 24.0764L4.95014 23.1174L4.48295 22.9806C3.40321 22.6644 2.60803 21.7813 2.40757 20.6758C2.23208 19.7079 2.55335 18.7221 3.24924 18.0408H8.08772C8.28582 18.9873 8.75301 19.8573 9.45264 20.557C10.3653 21.4664 11.6231 22.0306 13.0102 22.0306H15.9591V28.9694ZM15.9591 19.949H13.0102C11.4398 19.949 10.1526 18.7151 10.0661 17.166C10.0658 17.1608 10.0653 17.1558 10.065 17.1506C10.0625 17.1007 10.0612 17.0505 10.0612 17.0001C10.0612 16.2123 10.368 15.4718 10.925 14.9149L9.45313 13.4428C8.75328 14.1426 8.28603 15.0126 8.08779 15.9592H3.24799C2.55293 15.2781 2.23195 14.293 2.4068 13.3262C2.60726 12.2202 3.40252 11.3367 4.48219 11.0206L4.94952 10.8839L5.37022 9.92488L5.12306 9.47414C4.56761 8.46087 4.65601 7.20904 5.34829 6.28507C5.90984 5.53562 6.77039 5.10583 7.70921 5.10583C7.80052 5.10583 7.89135 5.11034 7.98155 5.11867C7.99848 6.11084 8.30053 7.05576 8.84966 7.85969C8.28839 8.68534 7.98586 9.65884 7.98579 10.6793L10.0674 10.6795C10.0675 9.89185 10.3743 9.15148 10.9312 8.59451C11.4882 8.03753 12.2287 7.73077 13.0163 7.73077C13.0165 7.73077 13.0167 5.64914 13.0167 5.64914C12.0749 5.64914 11.1734 5.90691 10.3908 6.38756C10.1757 5.97325 10.0612 5.51085 10.0612 5.03061C10.0612 4.86596 10.0755 4.70144 10.1023 4.54053L10.1168 4.4658C10.3845 3.08429 11.6013 2.08163 13.01 2.08163C14.6361 2.08163 15.9591 3.40451 15.9591 5.03061V19.949ZM18.0408 5.03075C18.0408 3.40451 19.3637 2.08163 20.9899 2.08163C22.3987 2.08163 23.6154 3.08429 23.8832 4.4658L23.8972 4.53789C23.9243 4.6997 23.9387 4.86505 23.9387 5.03061C23.9387 5.51085 23.8242 5.97325 23.6089 6.38749C22.8264 5.90684 21.9247 5.649 20.9831 5.64907L20.9832 7.7307C21.771 7.73063 22.5115 8.03739 23.0686 8.59451C23.6255 9.15127 23.9322 9.89178 23.9323 10.6795L26.014 10.6792C26.0138 9.65878 25.7113 8.6852 25.1501 7.85962C25.6997 7.055 26.0018 6.10904 26.0183 5.11596C26.1075 5.1077 26.1972 5.10326 26.2872 5.10326C27.2262 5.10326 28.0876 5.53367 28.6504 6.2841C29.343 7.20786 29.4317 8.45955 28.8762 9.47282L28.6284 9.92474L28.8376 10.3957L29.05 10.8827L29.5172 11.0195C30.5969 11.3357 31.3921 12.2188 31.5925 13.3244C31.768 14.2922 31.4468 15.2781 30.7507 15.9593H25.9123C25.7141 15.0128 25.247 14.1429 24.5473 13.443C23.6345 12.5338 22.3768 11.9695 20.9897 11.9695H18.0408V5.03075ZM31.593 20.6737C31.3925 21.7798 30.5973 22.6633 29.5177 22.9794L29.0515 23.1158L28.6302 24.0762L28.8767 24.5259C29.4322 25.5391 29.3438 26.791 28.6515 27.7149C28.0899 28.4645 27.2294 28.8942 26.2906 28.8942C26.1992 28.8942 26.1085 28.8897 26.0183 28.8813C26.0013 27.8892 25.6992 26.9442 25.1502 26.1404C25.7114 25.3147 26.0139 24.3412 26.0141 23.3208L23.9325 23.3205C23.9323 24.1082 23.6256 24.8487 23.0687 25.4056C22.5118 25.9625 21.7713 26.2693 20.9836 26.2693C20.9834 26.2693 20.9832 28.3509 20.9832 28.3509C21.925 28.3509 22.8266 28.0932 23.6091 27.6125C23.8242 28.0268 23.9389 28.4892 23.9389 28.9694C23.9389 29.1349 23.9244 29.3002 23.8973 29.4621L23.8833 29.5343C23.6154 30.9157 22.3986 31.9184 20.9899 31.9184C19.3637 31.9184 18.0408 30.5955 18.0408 28.9694V14.051H20.9897C22.5601 14.051 23.8473 15.2849 23.9338 16.834C23.9341 16.8392 23.9346 16.8442 23.9349 16.8494C23.9374 16.8993 23.9387 16.9495 23.9387 16.9999C23.9387 17.7877 23.632 18.5282 23.0749 19.0851L24.5467 20.5572C25.2465 19.8574 25.7139 18.9874 25.9121 18.0408H30.7519C31.4469 18.7219 31.768 19.707 31.593 20.6737Z" fill="#2E4DA0"/>
</g>
<defs>
<clipPath id="clip0_369_1006">
<rect width="34" height="34" fill="white"/>
</clipPath>
</defs>
</svg>
