<svg width="35" height="35" viewBox="0 0 35 35" fill="none" xmlns="http://www.w3.org/2000/svg">
<path d="M2.8916 25.5253C6.02246 28.2324 10.1104 29.8115 14.4785 30.0166C14.5127 30.0507 14.5469 30.0849 14.5811 30.1123L18.2998 33.3252C18.5664 33.5507 18.8877 33.667 19.209 33.667C19.5986 33.667 19.9883 33.5029 20.2686 33.1816C20.7744 32.6005 20.7061 31.7187 20.125 31.2129L18.5117 29.8183C21.6973 29.3466 24.6641 28.1367 27.1387 26.2841L30.29 29.0048C30.9531 29.5859 31.835 29.3261 32.2588 28.8613C32.7783 28.2939 32.6963 27.3984 32.1152 26.8925L29.2988 24.4726L32.1152 22.0459C32.6963 21.54 32.7646 20.6582 32.2588 20.0771C31.7529 19.4961 30.8711 19.4277 30.29 19.9336L27.1387 22.6474C24.6777 20.8017 21.7246 19.5918 18.5527 19.1201L20.125 17.7666C20.7061 17.2607 20.7744 16.3789 20.2686 15.7978C19.7627 15.2168 18.8809 15.1484 18.2998 15.6543L14.5811 18.8671C14.5605 18.8808 14.5469 18.9013 14.5264 18.9218C10.1377 19.1269 6.03613 20.706 2.8916 23.4199C2.58398 23.6865 2.40625 24.0693 2.40625 24.4795C2.40625 24.8759 2.58398 25.2656 2.8916 25.5253ZM15.4902 21.6836C18.9492 21.6836 22.2236 22.6611 24.8896 24.4658C22.2236 26.2705 18.9492 27.248 15.4902 27.248C12.0313 27.248 8.75684 26.2705 6.09082 24.4658C8.75684 22.6679 12.0313 21.6836 15.4902 21.6836Z" fill="#2E4DA0"/>
<path d="M6.87015 16.8916L5.53714 15.7227C4.94242 15.2032 4.94242 14.5537 5.53714 14.0342C6.61038 13.0909 6.61038 11.9287 5.53714 10.9922H5.53031C4.93558 10.4727 4.93558 9.82327 5.53031 9.30374L5.55081 9.28323C6.62406 8.33987 6.62406 7.17776 5.55081 6.24124L5.51663 6.20706C4.92191 5.68753 4.92191 5.03812 5.51663 4.51858L5.53714 4.50491L6.6514 3.39749C6.97269 3.0762 6.74027 2.67972 6.13871 2.50882C5.53714 2.33792 4.78519 2.46097 4.4639 2.78226L3.37015 3.86233C2.31742 4.79886 2.32425 5.95413 3.39066 6.89065L3.42484 6.92483C4.01956 7.44437 4.01956 8.09378 3.42484 8.61331L3.40433 8.63382C2.33109 9.57718 2.33109 10.7393 3.40433 11.6758H3.41117C4.00589 12.1953 4.00589 12.8448 3.41117 13.3643C2.33792 14.3076 2.33792 15.4698 3.41117 16.4063L4.75101 17.5684C5.10648 17.876 5.86527 17.9785 6.45316 17.7871C6.95902 17.6231 7.10257 17.1993 6.87015 16.8916Z" fill="#2E4DA0"/>
<path d="M10.7256 2.77538L9.6387 3.85546C8.57913 4.79199 8.58597 5.94726 9.65921 6.88378L9.69339 6.91796C10.2881 7.43749 10.2881 8.08691 9.69339 8.60644L9.67288 8.62695C8.59964 9.57031 8.59964 10.7324 9.67288 11.6689H9.67972C10.2744 12.1885 10.2744 12.8379 9.67972 13.3574C8.60648 14.3008 8.60648 15.4629 9.67972 16.3994L11.0127 17.5684C11.3682 17.876 12.127 17.9785 12.7149 17.7871C13.2207 17.623 13.3711 17.1992 13.1319 16.8848L11.8057 15.7226C11.211 15.2031 11.211 14.5537 11.8057 14.0342C12.8789 13.0908 12.8789 11.9287 11.8057 10.9922H11.7989C11.2041 10.4726 11.2041 9.82324 11.7989 9.3037L11.8194 9.2832C12.8926 8.33984 12.8926 7.17773 11.8194 6.2412L11.7852 6.20703C11.1905 5.68749 11.1905 5.03808 11.7852 4.51855L11.8057 4.50488L12.92 3.39745C13.2412 3.07617 13.0088 2.67968 12.4073 2.50878C11.8057 2.33788 11.0469 2.4541 10.7256 2.77538Z" fill="#2E4DA0"/>
<path d="M23.5088 2.77538L22.4219 3.85546C21.3623 4.79199 21.3692 5.94726 22.4424 6.88378L22.4766 6.91796C23.0713 7.43749 23.0713 8.08691 22.4766 8.60644L22.4561 8.62695C21.3828 9.57031 21.3828 10.7324 22.4561 11.6689H22.4629C23.0577 12.1885 23.0577 12.8379 22.4629 13.3574C21.3897 14.3008 21.3897 15.4629 22.4629 16.3994L23.7959 17.5684C24.1514 17.876 24.9102 17.9785 25.4981 17.7871C26.0039 17.623 26.1543 17.1992 25.9151 16.8848L24.5889 15.7226C23.9942 15.2031 23.9942 14.5537 24.5889 14.0342C25.6621 13.0908 25.6621 11.9287 24.5889 10.9922H24.5821C23.9873 10.4726 23.9873 9.82324 24.5821 9.3037L24.6026 9.2832C25.6758 8.33984 25.6758 7.17773 24.6026 6.2412L24.5684 6.20703C23.9737 5.68749 23.9737 5.03808 24.5684 4.51855L24.5889 4.50488L25.7032 3.39745C26.0244 3.07617 25.792 2.67968 25.1905 2.50878C24.5889 2.33788 23.8301 2.4541 23.5088 2.77538Z" fill="#2E4DA0"/>
</svg>
