<svg width="29" height="29" viewBox="0 0 29 29" fill="none" xmlns="http://www.w3.org/2000/svg">
<g clip-path="url(#clip0_369_989)">
<path d="M28.3829 0H0.617188V5.52339C0.617188 6.91874 1.16603 8.18822 2.05894 9.12699V29H26.9412V9.12699C27.8341 8.18822 28.3829 6.91874 28.3829 5.52339V0ZM26.5891 1.79381V4.62649H2.411V1.79381H26.5891ZM3.85275 14.939H9.73634V23.0206H3.85275V14.939ZM11.5302 14.939H17.47V27.2062H11.5302V14.939ZM19.2638 14.939H25.1474V23.0206H19.2638V14.939ZM3.85275 13.1452V10.359C4.46647 10.613 5.13844 10.7534 5.84275 10.7534C7.64153 10.7534 9.23097 9.83901 10.1714 8.4503C11.1118 9.83901 12.7013 10.7534 14.5001 10.7534C16.2988 10.7534 17.8883 9.83901 18.8287 8.4503C19.7691 9.83901 21.3586 10.7534 23.1574 10.7534C23.8616 10.7534 24.5336 10.6129 25.1474 10.359V13.1452H3.85275ZM2.53035 6.4203H9.15515C8.76015 7.88142 7.42513 8.95968 5.84275 8.95968C4.26037 8.95968 2.92535 7.88136 2.53035 6.4203ZM11.1877 6.4203H17.8125C17.4175 7.88142 16.0824 8.95968 14.5001 8.95968C12.9177 8.95968 11.5827 7.88136 11.1877 6.4203ZM23.1574 8.95962C21.575 8.95962 20.24 7.88136 19.845 6.42024H26.4698C26.0748 7.88136 24.7397 8.95962 23.1574 8.95962ZM3.85275 24.8144H9.73634V27.2062H3.85275V24.8144ZM19.2638 27.2062V24.8144H25.1474V27.2062H19.2638Z" fill="#2E4DA0"/>
</g>
<defs>
<clipPath id="clip0_369_989">
<rect width="29" height="29" fill="white"/>
</clipPath>
</defs>
</svg>
