<svg width="30" height="30" viewBox="0 0 30 30" fill="none" xmlns="http://www.w3.org/2000/svg">
<path d="M4.5832 28.8044C5.44845 19.1536 4.67531 22.4241 8.00677 14.0068V10.8576L6.63879 6.5182C6.53801 6.19846 6.58887 5.85018 6.77695 5.57256C7.66787 4.2576 8.12877 2.55879 7.95099 1.24471C7.86187 0.586113 8.37474 0 9.03861 0H12.1107C12.5669 0 12.9755 0.28207 13.1371 0.70875C13.5779 1.87207 13.7648 2.90906 14.9999 2.90906C16.2349 2.90906 16.4213 1.87359 16.8626 0.70875C17.0244 0.28207 17.433 0 17.8891 0H20.9614C21.626 0 22.1381 0.586758 22.0491 1.24471C21.8713 2.55885 22.3322 4.25766 23.2231 5.57256C23.4111 5.85018 23.462 6.19846 23.3613 6.5182L21.9933 10.8576V14.0068C25.3256 22.4265 24.553 19.1699 25.4168 28.8044C25.4744 29.4465 24.9681 30 24.3236 30H5.67633C5.0318 30 4.52566 29.4463 4.5832 28.8044ZM19.8267 2.1951H18.647L18.4464 2.72443C17.8986 4.17006 16.5459 5.1041 15 5.1041C13.4541 5.1041 12.1014 4.17 11.5536 2.72443L11.353 2.1951H10.1733C10.1024 3.57686 9.64717 5.05945 8.88556 6.34424L9.90914 9.59103H20.0909L21.1144 6.34424C20.3528 5.05945 19.8974 3.57686 19.8267 2.1951ZM10.202 11.7862V13.1186H19.7981V11.7862H10.202ZM23.1238 27.8049C22.4248 19.9192 23.0832 22.7257 20.1496 15.3138H9.85031C6.91846 22.7214 7.575 19.9182 6.87609 27.8049H23.1238Z" fill="#2E4DA0"/>
</svg>
