<svg width="122" height="80" viewBox="0 0 122 80" fill="none" xmlns="http://www.w3.org/2000/svg">
<g clip-path="url(#clip0_1_201)">
<path fill-rule="evenodd" clip-rule="evenodd" d="M1.77301 42.6183C2.12762 42.5444 2.45267 42.3669 2.86637 42.2485C3.39828 42.1006 3.45738 41.8935 3.64946 41.4793V1.8787H25.5905V42.4556C25.886 42.2485 26.0781 42.0266 26.4475 41.7899C26.8021 41.568 27.201 41.4793 27.467 41.2574L27.4817 1.8787H29.2548L29.2695 41.2574C29.5355 41.4793 29.9344 41.568 30.289 41.7899C30.6584 42.0266 30.8505 42.2485 31.146 42.4556V1.8787H53.0871V41.4793C53.2644 41.8343 53.3382 42.071 53.7815 42.2189C54.1509 42.3373 54.668 42.5444 54.9635 42.6035V0H1.77301V42.6183Z" fill="black"/>
<path fill-rule="evenodd" clip-rule="evenodd" d="M49.4228 53.1361H54.8453V54.9112H49.4228V53.1361ZM56.7365 50.0296V52.145V52.2189V52.2929V52.3669V52.4408V52.5148V52.5887V52.6627V52.7367V52.8106V52.8846V52.9586V53.0325V53.1065V53.1805V53.2544V53.3284V53.4024V53.4763V53.5503V53.6243V53.6982V53.7722V53.8461V53.9201V53.9941V54.068V54.142V54.216V54.2899V54.3639V54.4379V54.5118V54.5858V54.6598V54.7337V54.8077V54.8816V54.9556V55.0296V55.1035V55.1775V55.2515V55.3254V55.3994V55.4734V55.5473V55.6213V55.6953V55.7692V55.8432V55.9172V55.9911V56.0651V56.139V56.213V56.287V56.3609V56.4349V56.5089V56.5828V56.6568V56.7308V56.8047V56.8787H0V56.8047V56.7308V56.6568V56.5828V56.5089V56.4349V56.3609V56.287V56.213V56.139V56.0651V55.9911V55.9172V55.8432V55.7692V55.6953V55.6213V55.5473V55.4734V55.3994V55.3254V55.2515V55.1775V55.1035V55.0296V54.9556V54.8816V54.8077V54.7337V54.6598V54.5858V54.5118V54.4379V54.3639V54.2899V54.216V54.142V54.068V53.9941V53.9201V53.8461V53.7722V53.6982V53.6243V53.5503V53.4763V53.4024V53.3284V53.2544V53.1805V53.1065V53.0325V52.9586V52.8846V52.8106V52.7367V52.6627V52.5887V52.5148V52.4408V52.3669V52.2929V52.2189V52.145V50.1331C0.0147751 50.0296 0.0295503 49.9408 0.0443254 49.8521C0.192077 49.1864 0.57623 48.8314 0.886508 48.3728C1.99464 47.9586 1.30021 47.7367 3.64946 47.7367C9.57429 47.7515 53.6485 47.6035 54.6089 47.8106C55.1999 47.9438 55.392 48.1953 55.8352 48.3728C56.175 48.8461 56.5888 49.2751 56.6922 49.9408C56.7217 49.8964 56.7217 49.9556 56.7365 50.0296ZM43.9856 53.1361H47.5316V54.9112H43.9856V53.1361ZM38.4449 53.1361H42.1091V54.9112H38.4597V53.1361H38.4449ZM33.0224 53.1361H36.5685V54.9112H33.0224V53.1361ZM27.4817 53.1361H31.0278V54.9112H27.4817V53.1361ZM22.0445 53.1361H25.5905V54.9112H22.0445V53.1361ZM16.5038 53.1361H20.0499V54.9112H16.5038V53.1361ZM10.9631 53.1361H14.6274V54.9112H10.9631V53.1361ZM5.54067 53.1361H9.08671V54.9112H5.54067V53.1361ZM1.87644 53.1361H3.64946V54.9112H1.87644V53.1361ZM53.0723 49.4822H53.7372C54.402 49.4822 54.8453 49.7041 54.8453 50.3698V51.2574H53.0723V49.4822ZM47.6498 49.4822H51.1958V51.2574H47.6498V49.4822ZM42.1091 49.4822H45.7586V51.2574H42.1091V49.4822ZM36.6719 49.4822H40.2179V51.2574H36.6719V49.4822ZM31.1312 49.4822H34.6772V51.2574H31.1312V49.4822ZM25.7087 49.4822H29.2548V51.2574H25.7087V49.4822ZM20.1681 49.4822H23.7141V51.2574H20.1681V49.4822ZM14.6274 49.4822H18.2768V51.2574H14.6274V49.4822ZM9.19013 49.4822H12.7362V51.2574H9.19013V49.4822ZM1.87644 50.3698C1.87644 49.7041 2.3197 49.4822 2.98458 49.4822H7.29892V51.2574H1.87644V50.3698Z" fill="black"/>
<path fill-rule="evenodd" clip-rule="evenodd" d="M3.66423 41.4939C3.45738 41.8934 3.39828 42.1005 2.88115 42.2632C2.46745 42.3815 2.12762 42.5442 1.78779 42.633C1.37409 42.9289 1.07858 43.136 0.753531 43.5797C0.458028 43.9792 0.192076 44.4377 0.0738748 44.9999C0.0443246 45.1182 0.0295495 45.2218 0.0147743 45.3401V46.3312C0.132975 47.1448 0.546679 47.7218 0.901282 48.2839C2.00942 47.8697 1.31499 47.6478 3.66423 47.6478C9.58906 47.6626 53.6633 47.5147 54.6237 47.7218C55.2147 47.8549 55.4067 48.1064 55.85 48.2839C56.2194 47.707 56.6183 47.1448 56.7365 46.3164V45.3697C56.7217 45.2809 56.707 45.1922 56.6922 45.1034C56.5888 44.5413 56.3228 44.0383 56.0421 43.6537C55.6875 43.1655 55.4215 42.988 54.9635 42.6478C54.668 42.5886 54.1509 42.3815 53.7815 42.2632C53.3382 42.1152 53.2496 41.8786 53.087 41.5235C52.5108 41.1241 51.6391 40.059 49.9104 40.3253C48.8761 40.488 47.4725 41.2277 47.2213 42.1892C44.8277 42.1892 46.1575 42.5886 44.9016 41.7454C44.5766 41.6419 44.3549 41.5087 44.0151 41.4052C43.6457 41.3016 43.2764 41.3312 43.04 41.1833C42.8036 41.1981 42.3308 41.2721 42.0648 41.346C41.6659 41.4496 41.6068 41.5531 41.2374 41.6271C41.0896 41.9081 40.6464 42.2928 40.2475 42.2928C39.7451 42.2928 39.4939 41.8342 39.3609 41.5235C38.7995 41.1537 37.9278 40.059 36.1695 40.3253C35.4012 40.4437 34.4556 40.9022 33.9533 41.4348C33.7907 41.6123 33.5395 41.9377 33.4804 42.1744C31.3528 42.1744 31.8404 42.4851 31.1607 42.4851C30.8652 42.278 30.6732 42.0561 30.3038 41.8194C29.9492 41.5975 29.5503 41.5087 29.2843 41.2868C28.7524 41.2868 28.782 41.1833 28.383 41.1833C27.9989 41.1833 28.0136 41.2868 27.4817 41.2868C27.2306 41.4939 26.8169 41.5975 26.4623 41.8194C26.0929 42.0561 25.9008 42.278 25.6053 42.4851C24.9256 42.4999 25.3985 42.1744 23.2856 42.1744C23.1526 41.6715 22.6651 41.2721 22.2661 40.9762C21.2171 40.2218 19.976 40.0738 18.794 40.5472C18.07 40.8283 17.9222 41.1685 17.4199 41.5087C17.2869 41.8194 17.0357 42.278 16.5334 42.278C16.1344 42.278 15.6912 41.9081 15.5434 41.6123C15.1741 41.5235 15.1297 41.42 14.716 41.3312C14.4501 41.2721 13.9625 41.1981 13.7409 41.1685C13.5045 41.3164 13.1351 41.2868 12.7805 41.3904C12.4407 41.4939 12.219 41.6271 11.894 41.7158C10.6824 42.5294 11.761 42.1596 9.57429 42.1596C9.24923 40.9466 7.03296 39.7632 5.06787 40.5324C4.31434 40.8135 4.15181 41.1537 3.66423 41.4939Z" fill="#2D4EA0"/>
<path fill-rule="evenodd" clip-rule="evenodd" d="M12.5145 16.5238C17.4938 16.5238 16.5481 16.1244 17.804 17.5445C20.434 20.5031 21.9263 24.3937 21.9263 28.3877C21.9263 28.9351 21.483 29.2753 20.8182 29.2753H8.30362C6.87044 29.2753 7.35802 27.1303 7.55009 25.8582C8.12632 21.8789 9.69249 19.8079 11.8349 17.0564C11.9826 16.8789 12.2338 16.5238 12.5145 16.5238ZM9.19013 8.97945C9.73681 8.84632 10.6085 8.55046 11.1848 8.53567C11.4507 9.70431 12.9282 10.9765 14.391 10.9765H15.0559C16.4004 10.9765 17.7893 9.64513 18.0404 8.53567C18.6167 8.55046 19.4884 8.84632 20.0351 8.97945C20.0351 12.2043 17.5529 14.6303 16.9323 14.6303H12.4998C11.303 14.6451 9.19013 11.6126 9.19013 8.97945ZM12.8544 7.54454C12.8544 7.4114 13.4454 5.71022 13.5192 5.5475H15.8389C15.898 6.21318 16.3856 6.96762 16.3856 7.54454C16.3856 8.47649 15.5582 9.0978 14.391 9.0978C13.7113 9.0978 12.8544 8.21022 12.8544 7.54454ZM11.8497 41.7161C12.1747 41.6274 12.3963 41.4795 12.7362 41.3907C13.1055 41.2871 13.4749 41.3167 13.6965 41.1688L13.7261 31.1836H15.4991V41.6126C15.6469 41.8937 16.0901 42.2783 16.489 42.2783C16.9914 42.2783 17.2426 41.8197 17.3756 41.509V31.1984C18.4985 31.1984 21.3205 31.3463 22.1479 30.9765C24.4824 29.9558 23.8914 26.6126 23.389 24.512C23.1674 23.58 22.9606 22.796 22.6207 21.9528C22.3105 21.154 21.9558 20.296 21.5421 19.586C21.3205 19.2013 21.1284 18.9055 20.9216 18.5505L19.5032 16.6422C19.252 16.3463 18.8974 15.9617 18.7053 15.6658C19.8873 15.3552 21.4683 12.2635 21.8081 10.6658C22.3843 7.97353 21.6012 7.4262 19.7544 6.96762C19.2224 6.83448 18.5428 6.61259 18.0552 6.56821C17.9961 5.79898 17.3608 4.512 17.1687 3.68359H12.0713C12.027 4.18655 11.6724 5.05933 11.5098 5.56229C11.1405 6.70135 11.4064 6.49425 10.1948 6.7901C8.8503 7.10075 7.38757 7.24868 7.31369 8.8759C7.19549 11.3315 8.62868 14.3641 10.5347 15.6511C10.0766 16.3463 9.52996 16.8345 9.07193 17.515C7.19549 20.296 6.14646 22.367 5.6441 25.9469C5.585 26.3611 5.57023 26.9528 5.49635 27.4558C5.25995 28.9942 5.85095 30.3108 7.04774 30.9025C7.97857 31.3611 10.5494 31.1836 11.8644 31.1836V41.7161H11.8497Z" fill="black"/>
<path fill-rule="evenodd" clip-rule="evenodd" d="M44.9903 27.3964H39.228C38.829 27.3964 37.913 25.2219 37.7209 24.8077C36.7901 22.9438 36.6867 22.8994 36.6867 20.7396C36.6867 18.994 38.371 16.5236 39.0063 16.5236H45.2119C45.6847 16.5236 46.586 17.9142 46.8224 18.3432C48.4477 21.2869 47.0292 23.7574 45.8768 26.0651C45.7143 26.3757 45.3597 27.3964 44.9903 27.3964ZM45.2119 14.6449H39.0063C38.2824 14.6449 36.6867 12.1153 36.6867 9.65973C36.6867 8.75736 37.9721 8.56505 38.6813 8.55026C38.9325 9.65973 40.3361 10.9911 41.6659 10.9911H42.3308C43.7935 10.9911 45.271 9.7189 45.537 8.55026C45.9063 8.56505 46.4826 8.69819 46.8224 8.81653C47.3838 8.99405 47.5316 9.17156 47.5316 9.76328C47.5316 11.642 46.8076 12.8994 45.7734 14.2159C45.6404 14.3935 45.4631 14.6449 45.2119 14.6449ZM42.3308 9.0976C41.134 9.0976 40.3361 8.37274 40.3361 7.66268C40.3361 6.90825 40.8237 6.30174 40.8828 5.56209H43.2025C43.2911 5.71002 43.8821 7.41121 43.8821 7.54434C43.8821 8.21002 43.0252 9.0976 42.3308 9.0976ZM39.3314 41.494C39.4644 41.8047 39.7156 42.2633 40.2179 42.2633C40.6168 42.2633 41.0601 41.8787 41.2078 41.5976V29.3935H42.9809L43.0104 41.1538C43.2468 41.3017 43.6162 41.2722 43.9856 41.3757C44.3254 41.4645 44.547 41.6124 44.8721 41.7159V29.4082H46.3053C47.0736 27.9585 48.9943 24.3195 49.2751 22.8402C49.5853 21.1686 49.4228 19.9408 48.9943 18.639C48.7727 17.9585 48.5511 17.5148 48.2113 16.9822C47.9157 16.5384 47.5316 15.9467 47.1031 15.6509C47.9157 14.4378 48.226 14.423 48.9057 12.6923C49.2455 11.8195 49.7183 9.7189 49.2455 8.62422C48.6841 7.35203 47.8419 7.08576 46.3644 6.73073C45.2858 6.47925 45.5517 6.50884 45.2267 5.53251C45.0642 5.02955 44.6948 4.15677 44.6652 3.65381H39.5678C39.3757 4.48221 38.7404 5.76919 38.6813 6.53842C38.2085 6.5828 37.6323 6.77511 37.1447 6.89345C36.5684 7.02659 36.3025 7.13014 35.8445 7.47038C33.643 9.12718 35.1796 13.1065 36.6867 15.0887C36.8492 15.3106 36.9822 15.4142 37.1299 15.6361C36.3764 16.139 35.5785 17.5295 35.2387 18.5059C34.1453 21.5532 35.0614 23.6982 36.2877 26.139C36.8492 27.2485 37.3515 28.3284 37.913 29.3935H39.3462L39.3314 41.494Z" fill="black"/>
<path fill-rule="evenodd" clip-rule="evenodd" d="M80.096 63.6244H80.3176C80.4654 70.1332 81.5144 71.8936 81.6474 77.796H78.7662C78.8844 71.8936 79.9482 70.1184 80.096 63.6244ZM79.3129 59.0681C79.3129 59.7634 78.914 60.9764 78.7662 61.6125C78.4855 62.722 76.8898 77.1894 76.8898 77.7812H73.1221V55.1924H87.3063V77.796H83.5386C83.4647 74.4084 82.6816 65.7102 82.327 64.29C81.3814 60.5031 81.1155 60.6806 81.1155 56.9675H79.3425V59.0681H79.3129ZM78.1013 35.6658H82.3123L82.7112 36.4942C82.8589 36.8196 83.0215 37.1451 83.0953 37.4409H77.333C77.4808 36.7604 77.9388 36.3462 78.1013 35.6658ZM72.8562 39.2161H86.1095C85.0604 37.4853 85.3707 37.8403 83.9671 34.8965L83.4352 33.8906L76.9784 33.9054L76.417 34.8965L75.5157 36.7604C75.3679 37.0563 75.2941 37.0415 75.2054 37.4409C73.6688 37.4409 72.4277 37.4557 71.3343 37.3374V37.648L72.8562 39.2161ZM71.3343 46.6421L71.3934 79.5711H88.9906L88.9611 53.4173H87.2915H73.1074V48.4616L71.3343 46.6421Z" fill="black"/>
<path fill-rule="evenodd" clip-rule="evenodd" d="M76.4318 35.7396H83.9671C84.7797 35.1922 86.1242 32.6774 86.5232 31.5384C86.8187 30.7396 87.0403 29.8668 87.1881 28.8757C87.3801 27.4999 87.3506 26.9674 87.0699 25.7692C87.912 25.3254 88.9463 23.8017 89.3009 22.8993C89.951 21.2573 89.951 20.7248 89.951 18.4467C89.4191 18.491 87.7052 19.1715 86.8039 19.4082C86.2424 19.5561 86.1538 19.5118 85.5332 19.5857C83.8932 19.7632 82.4452 19.3195 81.0416 18.6094C79.963 18.0621 77.7615 15.7987 74.9247 17.7366C74.1416 18.2692 73.4029 19.3342 73.1812 20.207C73.0778 20.636 73.1517 20.9763 72.9596 21.42C72.3686 22.7218 71.6298 23.8757 72.2799 25.71C72.7823 27.1449 73.1074 26.6715 73.1074 27.7662C73.1221 29.9851 74.0382 32.4555 75.1611 34.1419C75.4714 34.5709 76.0476 35.4733 76.4318 35.7396Z" fill="#2D4EA0"/>
<path fill-rule="evenodd" clip-rule="evenodd" d="M88.9611 60.8433H92.5071V63.4912H88.9611V60.8433ZM83.8341 39.1569C84.0853 39.2605 84.3069 39.364 84.4251 39.438C86.9369 40.7545 89.3305 42.8995 90.6307 45.4143C90.9853 46.0948 91.3399 46.8048 91.6058 47.5445C92.6844 49.0682 92.5071 57.1599 92.5071 59.0829H88.9611V49.0829C88.9611 48.151 89.2566 47.7516 89.6259 47.2042L88.3257 45.9616C88.1484 46.2131 88.0746 46.2427 87.912 46.4794C87.8086 46.6273 87.6609 46.8788 87.5722 47.0267C87.3506 47.4113 87.188 47.9735 87.188 48.5356V63.506L87.2324 65.2812H94.2801C94.2801 63.4321 94.3983 52.0711 94.221 50.8137C93.5414 46.1835 91.9013 42.7812 88.2075 39.7486C87.129 38.8611 85.2525 37.6184 83.8193 37.1895V39.1569H83.8341Z" fill="black"/>
<path fill-rule="evenodd" clip-rule="evenodd" d="M96.5259 57.13C95.8611 57.0264 95.1075 56.8489 94.6938 56.272C94.3244 55.7394 94.3097 54.9258 94.3097 54.2601C93.6891 53.8607 93.3197 53.2542 93.3197 52.4702V52.4406L94.3983 42.9288C94.6643 40.9317 94.6643 38.8459 95.8167 37.0856C96.0531 36.7157 96.2748 36.3459 96.5703 36.0205C96.8658 35.6802 97.1169 35.3548 97.4716 35.0737L98.4763 34.3193H98.491C99.6287 33.5501 101.298 32.9731 102.672 32.9731H112.483C113.887 32.9731 115.542 33.5501 116.709 34.3341C117.078 34.5856 117.433 34.8371 117.758 35.1329C118.083 35.4288 118.378 35.7542 118.659 36.1092C120.491 38.343 120.447 40.3548 120.772 43.0619C121.097 45.6507 121.333 48.2542 121.688 50.843C121.791 51.6122 121.983 52.4998 121.718 53.2542C121.555 53.7128 121.245 54.0382 120.861 54.2897C120.861 54.4524 120.861 54.6152 120.861 54.7631C120.846 55.6063 120.669 56.3903 119.871 56.8193C119.56 56.9968 119.221 57.1004 118.866 57.1447C118.792 57.1595 118.718 57.1595 118.644 57.1595C118.748 57.485 118.822 57.84 118.895 58.1655C119.043 58.7572 119.176 59.3637 119.309 59.9702C119.442 60.5767 119.575 61.198 119.693 61.8045C119.738 62.0412 119.782 62.2779 119.812 62.5146C119.841 62.6625 119.856 62.84 119.856 62.9879V63.3282L119.531 63.4021C119.413 63.4317 119.235 63.5205 119.117 63.5797C118.851 63.698 118.585 63.8311 118.304 63.9347C117.462 64.2749 116.591 64.4968 115.675 64.5856C115.394 64.6152 115.113 64.63 114.818 64.6447C114.729 64.6447 114.625 64.6447 114.537 64.6447C114.478 64.6447 114.404 64.6891 114.36 64.7039C114.138 64.7927 113.931 64.8814 113.709 64.9554C112.897 65.2808 112.128 65.3696 111.272 65.3104C110.946 65.2808 110.282 65.1773 109.971 65.3104C109.469 65.5175 108.848 65.6063 108.302 65.6507H108.287H106.942H106.928C106.351 65.6063 105.672 65.5175 105.14 65.2956C105.066 65.266 104.977 65.2513 104.889 65.2365C104.711 65.2217 104.519 65.2513 104.357 65.2808C104.106 65.3104 103.854 65.3548 103.603 65.3548C102.864 65.3548 102.2 65.2365 101.505 64.985C101.298 64.911 101.106 64.8223 100.899 64.7483C100.796 64.7039 100.663 64.6595 100.56 64.6595C99.3775 64.6447 98.2399 64.4524 97.1317 64.053C96.7919 63.9347 96.4668 63.7868 96.1418 63.6388C95.994 63.5649 95.7724 63.4613 95.6247 63.4169L95.2996 63.343V63.0027C95.2996 62.7513 95.3587 62.4702 95.403 62.2335C95.4474 61.9968 95.5065 61.7749 95.5508 61.5382V61.5234L96.3782 57.6773C96.4225 57.4702 96.4668 57.3075 96.5259 57.13ZM106.026 63.5649C106.795 63.8163 108.39 63.8163 109.159 63.5649C109.144 63.0915 109.114 62.5885 109.055 62.1447V62.13L108.257 50.2808H106.942C106.913 50.7246 106.854 51.1684 106.824 51.627L106.47 56.8933V56.9081C106.411 57.2631 106.396 57.6477 106.366 58.0175C106.337 58.5205 106.307 59.0382 106.292 59.5412C106.263 60.0294 106.248 60.5027 106.218 60.9909C106.189 61.3755 106.174 61.7601 106.115 62.1447C106.056 62.6033 106.026 63.0915 106.026 63.5649ZM118.969 54.8223C118.822 54.8666 118.659 54.8962 118.511 54.9258C118.334 54.9702 118.172 54.9998 117.994 55.0294C118.024 55.1181 118.068 55.2069 118.098 55.2956C118.186 55.2808 118.275 55.266 118.364 55.2513C118.482 55.2365 118.615 55.2069 118.733 55.1773C118.792 55.1625 118.866 55.1477 118.925 55.1329C118.955 55.1181 118.969 54.985 118.969 54.8223ZM97.0726 55.3104C97.1022 55.2217 97.1317 55.1477 97.1613 55.0589V55.0442C96.984 55.0146 96.8214 54.9702 96.6441 54.9406C96.4964 54.911 96.3339 54.8666 96.1861 54.8371C96.1861 54.9998 96.2009 55.1329 96.2452 55.1773C96.3043 55.1921 96.3782 55.2069 96.4373 55.2217C96.5555 55.2513 96.6885 55.266 96.8067 55.2956C96.8953 55.2808 96.984 55.2956 97.0726 55.3104ZM110.134 50.2808C110.149 50.4879 110.163 50.695 110.193 50.9021C110.208 51.1092 110.237 51.3163 110.252 51.5234C110.252 51.6862 110.237 51.8637 110.267 52.0264V52.0412L110.444 54.1862C110.474 54.911 110.533 55.6359 110.562 56.3607C110.592 57.0412 110.666 57.7365 110.725 58.4169C110.754 58.8607 110.799 59.2897 110.828 59.7335C110.843 60.0441 110.873 60.3548 110.873 60.6655L111.006 62.8104C111.02 62.9879 111.035 63.1802 111.05 63.3578C111.05 63.3726 111.05 63.3873 111.05 63.4021C111.656 63.4761 112.66 63.3282 113.266 63.0915C113.251 62.5885 113.192 62.0708 113.133 61.5678C112.897 59.7039 112.66 57.8252 112.306 55.9761C111.966 54.2157 111.537 52.4554 111.109 50.7246C111.079 50.5767 111.02 50.4436 110.991 50.2956H110.134V50.2808ZM101.919 63.0767C102.096 63.1507 102.303 63.2098 102.466 63.2542C102.731 63.3282 103.721 63.4465 104.135 63.4021C104.15 63.3134 104.15 63.2098 104.15 63.1507C104.165 63.0175 104.165 62.8844 104.179 62.7513C104.194 62.5442 104.165 62.3518 104.194 62.1447L104.623 56.3163C104.637 55.9465 104.682 55.5767 104.682 55.2069C104.682 55.0737 104.697 54.9406 104.711 54.8075C104.726 54.7631 104.726 54.7187 104.741 54.6595L105.036 50.2808H104.209C104.165 50.4436 104.106 50.6063 104.076 50.769C103.116 54.3045 102.451 57.9584 102.067 61.6122C102.008 62.0856 101.948 62.5885 101.919 63.0767ZM115.143 62.6773C115.246 62.6625 115.364 62.6625 115.468 62.6477C115.822 62.6181 116.177 62.5589 116.531 62.4702C116.812 62.3962 117.093 62.3223 117.359 62.2335L117.817 62.056C117.773 61.6862 117.699 61.3163 117.625 60.9613C117.492 60.3252 117.344 59.6891 117.182 59.053C117.019 58.3873 116.842 57.7365 116.65 57.0856C116.517 56.6122 116.384 56.1388 116.221 55.6802C115.881 54.7039 115.512 53.7572 115.054 52.8252C114.699 52.0856 114.3 51.3755 113.946 50.6359C113.901 50.5619 113.813 50.34 113.754 50.2513C113.665 50.2365 113.503 50.2513 113.443 50.2513C113.281 50.2513 113.133 50.266 112.971 50.266L113.237 51.3459C113.458 52.1743 113.636 53.0175 113.813 53.8607C114.034 54.9702 114.241 56.0649 114.433 57.1743C114.625 58.2986 114.803 59.4228 114.936 60.5471C115.024 61.2424 115.113 61.9672 115.143 62.6773ZM100.057 62.6773C100.072 62.5294 100.087 62.3666 100.102 62.2039C100.161 61.2128 100.308 60.1921 100.441 59.2157C100.589 58.195 100.752 57.1595 100.914 56.1388C101.091 55.0442 101.313 53.9347 101.579 52.8548L101.963 51.3015V51.2868C102.037 51.0353 102.111 50.7986 102.17 50.5471C102.2 50.4584 102.214 50.3696 102.244 50.2808C102.081 50.2808 101.919 50.266 101.742 50.266C101.682 50.266 101.52 50.2513 101.431 50.266C101.402 50.3252 101.357 50.414 101.343 50.4584C101.239 50.6655 101.136 50.8578 101.032 51.0501C100.308 52.2631 99.7321 53.624 99.2446 54.9406C98.7718 56.2424 98.3433 57.5737 98.0182 58.9199L97.4863 61.5382C97.4568 61.7157 97.4124 61.9081 97.3681 62.0856C97.3977 62.1004 97.4272 62.1152 97.4716 62.13C98.0478 62.3666 98.624 62.5146 99.2446 62.5885C99.4957 62.6181 99.7765 62.6477 100.057 62.6773ZM101.712 48.3282C101.786 48.3282 101.86 48.3282 101.934 48.3282C105.347 48.2838 108.775 48.3282 112.188 48.3282C112.542 48.3282 112.897 48.3282 113.251 48.343C113.31 48.343 113.399 48.343 113.473 48.343C113.473 48.269 113.488 48.195 113.503 48.1211C113.606 47.485 113.739 46.8489 113.842 46.2128C113.946 45.5619 114.079 44.911 114.182 44.2601C114.286 43.624 114.389 42.9879 114.522 42.3518C114.596 41.9524 114.685 41.553 114.758 41.1536C114.803 40.8578 114.847 40.5619 114.832 40.266C114.803 39.7779 114.655 39.3637 114.433 38.9347L114.241 38.5649L114.611 38.3726C114.936 38.195 115.394 37.914 115.763 37.8844L116.118 37.8548L116.206 38.2098C116.236 38.3282 116.295 38.4465 116.339 38.5501C116.428 38.7128 116.502 38.8755 116.561 39.053C116.96 40.2956 116.664 41.2276 116.443 42.4702L115.335 48.7572C115.32 48.8311 115.261 49.0974 115.276 49.1566C115.276 49.201 115.364 49.3193 115.379 49.3637C115.542 49.63 115.704 49.8962 115.852 50.1625C116.162 50.7098 116.413 51.2868 116.694 51.8341V51.8489L117.285 53.2394L118.541 52.9731C118.703 52.9436 119.841 52.7365 119.93 52.6181C120.004 52.5146 119.885 51.5974 119.856 51.4643C119.752 50.6802 119.679 49.8962 119.59 49.1122C119.472 48.0027 119.339 46.8933 119.221 45.7838C119.073 44.4968 118.925 43.195 118.763 41.9081C118.703 41.4347 118.644 40.9613 118.57 40.4879C118.541 40.2513 118.497 39.9702 118.437 39.7335C118.378 39.4968 118.29 39.2601 118.201 39.0234C118.127 38.8311 118.039 38.6092 117.935 38.4169C116.945 36.553 114.773 34.911 112.631 34.8666H102.584C100.914 34.911 98.9343 36.0501 97.9444 37.3814C97.3829 38.1359 96.9987 38.8607 96.7623 39.7779C96.7032 40.0294 96.6589 40.3252 96.6146 40.5767C96.5407 41.0501 96.4816 41.5234 96.4225 41.9968C96.26 43.269 96.1122 44.556 95.9793 45.8282C95.8463 46.9524 95.7281 48.0767 95.5951 49.201C95.5065 49.9998 95.4178 50.7838 95.3144 51.5826C95.2848 51.7897 95.1371 52.5442 95.2996 52.6625C95.4326 52.7365 95.7872 52.8104 95.9497 52.84C96.2009 52.8992 96.4521 52.9436 96.7032 53.0027C96.9544 53.0619 97.2204 53.1063 97.4716 53.1655C97.6045 53.195 97.7375 53.2246 97.8705 53.269C97.9444 53.0619 98.0478 52.84 98.1364 52.6625C98.2694 52.3814 98.3876 52.0856 98.5354 51.8045C98.8161 51.2424 99.0673 50.6655 99.3775 50.1181C99.4957 49.9258 99.5992 49.7483 99.7026 49.556C99.7617 49.4524 99.8799 49.2453 99.939 49.1122C99.9242 48.9791 99.8799 48.8311 99.8503 48.698C99.7617 48.1507 99.6583 47.6181 99.5548 47.0708C99.4071 46.2424 99.2446 45.414 99.0968 44.5856C98.9343 43.6536 98.757 42.7069 98.6092 41.7601C98.5501 41.4199 98.5058 41.0797 98.4615 40.7394C98.4319 40.5619 98.4024 40.2956 98.4172 40.1329C98.4615 39.7483 98.5206 39.3489 98.6388 38.9791C98.7127 38.772 98.8013 38.624 98.89 38.4317C98.9343 38.3578 98.9491 38.2838 98.9786 38.2098L99.0673 37.8548L99.4219 37.8844C99.7912 37.914 100.249 38.195 100.574 38.3726L100.944 38.5649L100.752 38.9347C100.53 39.3489 100.367 39.7779 100.338 40.2513C100.323 40.5471 100.367 40.8578 100.412 41.1536C100.486 41.5678 100.574 41.982 100.663 42.3962V42.411L101.343 46.272C101.446 46.9228 101.594 47.5737 101.682 48.2394C101.697 48.2542 101.697 48.2838 101.712 48.3282Z" fill="black"/>
<path fill-rule="evenodd" clip-rule="evenodd" d="M106.529 49.8518H108.642L109.469 62.0856C109.528 62.559 109.572 63.2986 109.572 63.8459C108.745 64.2897 106.425 64.2897 105.598 63.8459C105.598 63.2986 105.642 62.559 105.701 62.0856C105.864 60.9021 105.893 57.8992 106.056 56.8489L106.396 51.5974C106.44 51.0501 106.529 50.4584 106.529 49.8518ZM108.272 65.2069H106.972C106.337 65.1625 105.731 65.0442 105.317 64.8814C104.785 64.6595 104.268 64.8962 103.618 64.8962C101.86 64.8962 101.18 64.2158 100.574 64.2158C97.6636 64.1566 96.3339 63.1211 95.7281 62.9732C95.7281 62.6329 95.8906 61.9081 95.9645 61.5826L96.7919 57.7365C97.0283 56.7453 97.2056 56.7897 96.6885 56.7158C94.7529 56.4347 94.7382 55.8134 94.7382 54.0087C94.1767 53.7128 93.7482 53.2246 93.7482 52.4554L94.8268 42.9731C95.0928 41.0353 95.0928 38.9791 96.1713 37.3075C96.4077 36.9376 96.5998 36.6122 96.8953 36.2868C97.176 35.9613 97.3977 35.6655 97.7375 35.3992L98.7274 34.6447C99.7469 33.9643 101.343 33.3726 102.672 33.3726H112.483C113.842 33.3726 115.409 33.9495 116.472 34.6595C117.27 35.2069 117.713 35.5915 118.334 36.3459C120.092 38.5057 120.048 40.5027 120.358 43.0767C120.683 45.6655 120.934 48.3282 121.274 50.8578C121.452 52.2039 121.732 53.3134 120.432 54.0087C120.432 54.8666 120.565 55.9317 119.664 56.4199C118.541 57.0264 117.979 56.3903 118.216 57.1595C118.423 57.84 119.442 62.3223 119.442 62.9732C118.999 63.0767 117.728 63.9347 115.645 64.1418C114.064 64.3045 114.921 64.0087 113.562 64.5412C111.744 65.266 110.592 64.5708 109.809 64.8962C109.425 65.0737 108.878 65.1773 108.272 65.2069ZM117.462 54.7039C117.713 54.6891 119.235 54.3489 119.383 54.2749C119.383 54.7927 119.472 55.3548 119.088 55.5471C118.94 55.6211 117.979 55.769 117.758 55.769C117.743 55.3696 117.507 55.0737 117.462 54.7039ZM97.3977 55.769C97.1908 55.769 96.2157 55.6063 96.0679 55.5471C95.6985 55.3696 95.7724 54.8075 95.7724 54.2749C95.9349 54.3489 97.4568 54.6891 97.6932 54.7039C97.6784 55.0442 97.442 55.3696 97.3977 55.769ZM109.705 49.8518H111.316C111.331 50.0737 111.449 50.3696 111.508 50.5915C112.646 55.2217 112.941 56.6418 113.547 61.4939C113.621 62.0856 113.695 62.7365 113.695 63.343C113.015 63.7128 111.597 63.9347 110.843 63.772C110.548 63.7128 110.695 63.698 110.607 62.8252L110.474 60.6507C110.474 59.9258 110.208 57.2927 110.163 56.3607C110.134 55.6063 110.075 54.9406 110.045 54.1862L109.883 52.056C109.853 51.8637 109.868 51.701 109.868 51.5087C109.824 51.1684 109.705 50.4879 109.705 49.8518ZM101.505 63.343C101.505 62.7365 101.579 62.1447 101.638 61.553C102.022 57.914 102.702 54.1862 103.662 50.6507C103.721 50.414 103.84 50.0589 103.854 49.8518H105.465L105.14 54.6891C105.125 54.8814 105.081 54.911 105.081 55.1921C105.081 55.6359 105.036 55.8726 105.022 56.3163L104.593 62.1743C104.564 62.3814 104.593 62.5885 104.578 62.7808C104.549 63.0915 104.549 63.6832 104.431 63.7572C104.15 63.9199 102.746 63.772 102.347 63.6684C102.081 63.5945 101.727 63.4761 101.505 63.343ZM112.439 49.8518C114.167 49.8518 113.916 49.6595 114.33 50.4584C115.349 52.4998 115.763 53.0767 116.635 55.5619C117.078 56.8341 118.172 60.9021 118.29 62.3666L117.521 62.6477C117.211 62.7513 116.99 62.8104 116.65 62.8992C115.778 63.1211 115.157 63.0767 114.744 63.1655C114.744 60.6655 113.488 53.8903 112.838 51.4495L112.439 49.8518ZM100.441 63.1655C99.806 63.0175 98.757 63.1063 97.2942 62.5146C97.1022 62.4406 97.0874 62.3962 96.8953 62.3518C96.9101 62.1004 96.9987 61.7453 97.0578 61.4495L97.5897 58.8163C98.2103 56.3163 99.3332 53.0323 100.663 50.8134C101.387 49.5856 100.737 49.8518 102.731 49.8518C102.731 50.1181 102.436 51.1092 102.347 51.4051L101.963 52.9584C101.727 53.9791 101.476 55.1477 101.298 56.2128C101.062 57.6625 100.574 60.6803 100.486 62.2335C100.486 62.5885 100.441 62.7513 100.441 63.1655ZM112.616 34.4376C114.877 34.482 117.196 36.1684 118.29 38.2098C118.378 38.3873 118.511 38.698 118.57 38.8607C118.659 39.0974 118.763 39.3933 118.822 39.6152C119.102 40.6655 119.989 49.1566 120.27 51.4051C120.491 53.1655 120.491 52.9731 118.615 53.3726L117.034 53.7128L116.31 52.0116C116.029 51.4643 115.778 50.8578 115.482 50.3548C114.758 49.1122 114.788 49.3933 114.921 48.6684L116.029 42.3814C116.251 41.124 116.531 40.3104 116.162 39.1714C116.059 38.8607 115.867 38.5797 115.793 38.2986C115.527 38.3282 115.024 38.6092 114.803 38.7276C115.512 40.0737 115.261 40.7986 114.936 42.411C114.803 43.0619 114.714 43.6536 114.596 44.3193C114.492 44.9406 114.345 45.6507 114.256 46.272C114.153 46.9376 114.02 47.5294 113.916 48.1803C113.813 48.8903 114.167 48.7424 112.188 48.7424C108.848 48.7424 105.243 48.698 101.934 48.7424C101.284 48.7572 101.357 48.8607 101.284 48.2838C101.195 47.6033 101.047 46.9968 100.944 46.3311L100.264 42.4702C99.9242 40.7838 99.673 40.1033 100.397 38.7276C100.175 38.6092 99.673 38.3134 99.4071 38.2986C99.2889 38.8163 99.0082 38.8016 98.8604 40.1773C98.8013 40.7246 100.057 47.3075 100.279 48.624C100.294 48.7424 100.367 49.053 100.367 49.1418C100.367 49.3045 99.8503 50.1625 99.7469 50.3252C99.4514 50.8282 99.1707 51.4495 98.9195 51.982C98.7718 52.2631 98.6683 52.5294 98.5206 52.8252C98.4172 53.0471 98.2251 53.5057 98.166 53.7128C97.9148 53.698 97.6489 53.6092 97.3977 53.5501C97.0874 53.4761 96.9249 53.4465 96.6294 53.3874C96.3486 53.3282 95.2996 53.1359 95.0927 53.0027C94.679 52.7217 94.8268 52.0708 94.9155 51.5087C95.2257 49.3045 96.0531 40.8726 96.3634 39.6595C96.6294 38.624 97.0578 37.8696 97.6193 37.1152C98.6831 35.6802 100.796 34.4672 102.584 34.4376H112.616Z" fill="black"/>
<path fill-rule="evenodd" clip-rule="evenodd" d="M115.527 34.2604C115.793 33.861 115.97 33.5208 116.177 33.0474C116.398 32.5001 116.443 32.1451 116.546 31.4794C116.709 30.3403 115.734 26.4498 115.438 25.1332C115.202 24.0829 115.01 23.1066 114.773 22.0711C114.655 21.5681 114.552 21.0948 114.33 20.651C114.241 20.4735 114.079 20.222 113.975 20.074C113.591 19.5267 113.074 19.0533 112.498 18.6983C112.158 18.4764 111.537 18.2397 111.109 18.1658C110.917 18.1362 110.695 18.1066 110.474 18.0918H107.4H104.179C104.017 18.1066 103.854 18.1214 103.721 18.151C102.569 18.3433 101.742 18.8462 101.018 19.6746C100.427 20.3551 100.116 20.9764 99.9095 21.9232C99.6731 23.003 99.481 23.9646 99.2298 25.0445L98.2251 29.6303C98.1069 30.1332 98.033 30.7841 98.0773 31.4054C98.5354 37.3374 109.41 45.8433 115.527 34.2604Z" fill="#2D4EA0"/>
<path fill-rule="evenodd" clip-rule="evenodd" d="M102.731 78.4762C102.599 77.6921 102.451 76.9229 102.303 76.1537C101.993 74.4821 101.682 72.8253 101.372 71.1537C100.973 69.0679 100.589 66.9969 100.175 64.9111L100.013 64.0679H115.911L115.748 64.9111C115.335 66.9821 114.936 69.0679 114.552 71.1537C114.241 72.8253 113.931 74.4821 113.621 76.1537C113.473 76.9229 113.325 77.7069 113.192 78.4762V79.985H102.761V78.4762H102.731ZM109.011 65.0146V77.9288H111.139C111.153 77.8253 111.183 77.7217 111.198 77.6182C111.301 77.056 111.405 76.4791 111.508 75.917C111.818 74.201 112.143 72.4998 112.468 70.7838C112.823 68.8608 113.192 66.9377 113.576 65.0146H109.011ZM106.883 77.9288V65.0146H102.318C102.702 66.9377 103.057 68.8608 103.426 70.7838C103.751 72.4998 104.061 74.201 104.386 75.917C104.49 76.4791 104.593 77.056 104.697 77.6182C104.711 77.7217 104.741 77.8253 104.756 77.9288H106.883Z" fill="black"/>
<path fill-rule="evenodd" clip-rule="evenodd" d="M103.145 78.4468C103.012 77.6628 102.85 76.8639 102.702 76.0799C102.392 74.4083 102.081 72.7515 101.771 71.0799C101.372 68.9941 100.988 66.9083 100.574 64.8373L100.5 64.4971H107.297H108.582H115.379L115.305 64.8373C114.891 66.9083 114.492 68.9941 114.108 71.0799C113.798 72.7515 113.488 74.4083 113.178 76.0799C113.03 76.8639 112.867 77.6628 112.734 78.4468V79.571H108.582H107.297H103.145V78.4468ZM108.582 64.5858V78.3432H111.478C111.478 78.3432 113.355 68.1509 114.079 64.5858H108.582ZM107.312 78.3432V64.5858H101.815C102.539 68.1509 104.416 78.3432 104.416 78.3432H107.312Z" fill="black"/>
<path fill-rule="evenodd" clip-rule="evenodd" d="M56.9877 26.7605C58.4061 25.4291 60.6519 25.5031 61.9817 26.9232L73.1074 38.8463L73.1369 39.2161H71.4378L60.9031 27.9291C60.1348 27.1007 58.7903 27.0267 57.9924 27.8255C57.165 28.5948 57.1207 29.9113 57.889 30.7397L73.1074 47.0415V49.1865L56.8252 31.7309C55.4954 30.3255 55.5693 28.0918 56.9877 26.7605Z" fill="black"/>
<path fill-rule="evenodd" clip-rule="evenodd" d="M58.3765 32.8253L62.9421 28.5649L63.9468 29.63L59.3812 33.9052L58.3765 32.8253Z" fill="black"/>
</g>
<defs>
<clipPath id="clip0_1_201">
<rect width="121.865" height="80" fill="white"/>
</clipPath>
</defs>
</svg>
