<svg width="29" height="29" viewBox="0 0 29 29" fill="none" xmlns="http://www.w3.org/2000/svg">
<g clip-path="url(#clip0_367_934)">
<path d="M9.10566 27.4377H19.8942L19.8774 27.5968C19.8394 27.9547 19.9552 28.3119 20.196 28.5795C20.4368 28.8471 20.7798 29 21.1397 29H26.0218C26.6711 29 27.2157 28.5101 27.2842 27.8645L28.6512 14.9756C28.6892 14.6177 28.5734 14.2605 28.3326 13.9928C28.0918 13.7253 27.7488 13.5724 27.3888 13.5724H25.9752C26.3838 12.4647 26.8582 11.0845 26.9814 10.3367C27.3209 8.27564 26.7053 6.24955 25.2013 4.47742C22.8572 1.71569 18.738 0 14.4511 0C10.1967 0 5.95716 1.773 3.65034 4.51697C2.16334 6.28587 1.56596 8.3025 1.92294 10.3486C2.05368 11.0985 2.55244 12.4675 2.9852 13.5725H1.61107C1.25106 13.5725 0.908135 13.7253 0.667347 13.9929C0.426559 14.2606 0.310852 14.6178 0.348738 14.9757L1.71574 27.8646C1.78419 28.5101 2.32884 29 2.97807 29H7.86023C7.86101 29 7.86179 29 7.86218 29C8.56326 29 9.13154 28.4317 9.13154 27.7306L9.10566 27.4377ZM4.11991 26.4613L3.02221 16.1111H5.35138L6.44909 26.4613H4.11991ZM8.83646 24.899L8.41181 20.895C9.0006 20.7572 14.8225 19.4687 20.5882 20.8948L20.1635 24.899H8.83646ZM21.2444 14.7079L20.8582 18.3492C15.1656 17.033 9.65051 18.0294 8.14222 18.3535L7.75555 14.7079C7.6871 14.0623 7.14245 13.5724 6.49322 13.5724H5.72008C5.19389 12.2873 4.53724 10.5625 4.42387 9.91243C4.1409 8.29 4.90379 6.97123 5.59364 6.15073C7.43821 3.9565 10.915 2.53872 14.4511 2.53872C17.9592 2.53872 21.419 3.94449 23.2658 6.12037C23.9676 6.94731 24.7475 8.27857 24.4763 9.92415C24.3697 10.5715 23.757 12.2852 23.2622 13.5724H22.5067C21.8575 13.5724 21.3128 14.0623 21.2444 14.7079ZM24.88 26.4613H22.5508L23.6485 16.1111H25.9777L24.88 26.4613Z" fill="#2E4DA0"/>
</g>
<defs>
<clipPath id="clip0_367_934">
<rect width="29" height="29" fill="white"/>
</clipPath>
</defs>
</svg>
