<svg width="121" height="80" viewBox="0 0 121 80" fill="none" xmlns="http://www.w3.org/2000/svg">
<g clip-path="url(#clip0_1_281)">
<path fill-rule="evenodd" clip-rule="evenodd" d="M72.5138 52.0999H80.2015V63.5156H72.5138V52.0999ZM70.528 50.3552V63.5306H68.6625V48.1443C72.4085 47.2719 72.8297 45.2114 73.4466 44.7602C73.8227 46.174 76.6059 48.1443 78.8024 48.1443C81.6307 48.1443 83.4059 47.3622 84.9856 45.0008C85.3617 45.2565 85.6024 45.7679 85.9484 46.1439C88.521 48.9414 93.7715 49.1219 96.5246 45.0008C96.8706 45.2264 97.1866 45.7829 97.4874 46.1289C98.3149 47.1065 100.346 48.1443 101.88 48.1443C104.137 48.1443 105.687 47.7382 107.281 46.0837C107.552 45.798 108.079 45.1512 108.184 44.7752C108.665 45.1362 108.831 46.0386 110.11 46.926C111.057 47.5727 111.704 47.8736 112.953 48.1593V63.5457H82.1873V50.3703C82.1873 50.0995 82.1121 50.0243 81.8413 50.0243H70.889C70.6032 50.0093 70.528 50.0845 70.528 50.3552ZM91.3945 46.1589C89.89 46.1589 88.521 46.0687 87.2874 44.6699C85.6927 42.8651 86.129 41.5716 86.159 40.4436H95.4865C95.5016 40.985 95.6069 40.8346 95.6069 41.2558C95.6069 43.1358 94.614 44.8204 93.1697 45.5724C92.7485 45.7829 91.9963 46.1589 91.3945 46.1589ZM108.891 40.4436H118.444C119.016 41.6468 118.58 43.7374 117.481 44.8504C115.526 46.8508 111.81 46.5951 110.305 44.2789C109.598 43.196 109.237 41.2407 108.891 40.4436ZM97.8034 40.4436H106.544C107.868 40.4436 106.875 46.1589 102.693 46.1589C100.782 46.1589 99.7742 45.813 98.5857 44.324C97.9538 43.5419 97.006 40.4436 97.8034 40.4436ZM79.6298 46.1589C77.8546 46.1589 76.6209 45.798 75.4625 44.2639C74.6952 43.2411 74.1837 41.8273 74.8457 40.4436H84.1732C83.8121 41.9928 84.2183 42.8651 82.9847 44.3842C82.5785 44.8805 82.1873 45.2716 81.6157 45.5724C81.0891 45.8581 80.4271 46.1589 79.6298 46.1589ZM68.0757 46.1589C66.5111 46.1589 65.4881 46.2342 64.1341 44.8504C63.0509 43.7374 62.5996 41.6468 63.1713 40.4436H72.7244C72.5138 41.3159 71.7616 43.5269 71.3554 44.2037C70.8138 45.1061 69.4899 46.1589 68.0757 46.1589ZM86.6104 35.7811C86.9414 35.8563 87.0166 35.9315 87.3776 36.0668C89.183 36.6985 91.4547 36.7888 93.3202 36.3225L94.9901 35.7811C95.0051 36.1721 95.0804 36.5481 95.1104 37.0595C95.1556 37.5558 95.2158 37.8115 95.2158 38.4733H86.3546C86.3847 37.4806 86.5953 36.5782 86.6104 35.7811ZM99.2025 32.7579C104.98 32.7579 104.393 32.3067 104.859 33.9762C105.025 34.5778 105.13 34.9087 105.311 35.5103C105.596 36.518 105.957 37.4806 106.198 38.4733H97.5627C97.0963 38.368 97.2317 38.353 97.1113 36.8339C97.0812 36.3977 96.9007 35.1794 96.9459 34.8486C96.9609 34.7132 96.9308 34.7583 97.0662 34.5929L98.014 33.7957C98.2547 33.525 98.8565 32.7579 99.2025 32.7579ZM75.4324 38.4733L76.7413 34.0665C77.2227 32.3067 76.6059 32.7579 82.4281 32.7579C82.7139 32.7579 84.6697 34.7583 84.6697 34.7583C84.775 35.1343 84.459 36.9542 84.4139 37.5408C84.3838 38.1123 84.5493 38.2928 84.1431 38.4432C83.9024 38.5335 76.3802 38.4733 75.4324 38.4733ZM106.559 32.7579H114.247L117.391 38.4733H108.304L106.559 32.7579ZM73.3262 38.4733H64.2394L67.3837 32.7579H75.0714L73.3262 38.4733ZM69.7156 23.1922H80.2015C80.2015 25.5536 80.0059 27.5389 80.8634 29.7498C81.0289 30.186 81.2095 30.2311 81.2395 30.7726H69.7005V23.1922H69.7156ZM100.376 30.7726C100.421 30.2763 100.572 30.2161 100.722 29.8401C101.745 27.4487 101.429 23.9292 101.429 21.2219C102.452 21.4626 103.806 21.4927 104.889 22.7711C106.574 24.7414 106.514 27.4938 105.07 29.073C104.964 29.1934 104.889 29.2836 104.799 29.3738C104.784 29.3889 104.754 29.419 104.739 29.434C103.385 30.7876 102.091 30.7726 100.376 30.7726ZM82.1873 21.2219V19.3569H99.4432V21.2219C99.6689 21.5829 99.5636 23.7337 99.5636 24.2601C99.5786 25.1174 99.5636 24.8918 99.4432 25.0723C99.4432 26.7267 99.368 27.8548 98.9016 29.073C97.006 33.916 91.4697 35.9766 87.0918 33.8108C85.121 32.8482 83.5714 31.1636 82.744 29.073C82.2626 27.8548 82.2024 26.7418 82.2024 25.0723C82.1272 24.952 82.1422 25.0572 82.0971 24.8316L82.082 22.0341C82.0519 20.9813 82.0971 21.3723 82.1873 21.2219ZM107.597 23.1922H111.915V30.7726H106.318C106.89 29.6897 108.184 28.8625 108.184 25.8845C108.184 25.1324 107.823 23.7036 107.597 23.1922ZM80.2015 21.2219H67.7297V30.7726C65.9545 30.7726 66.3456 30.3515 64.8562 33.149C64.5854 33.6453 64.4049 33.9461 64.1642 34.4274C63.1261 36.4729 60.9748 39.3156 60.9748 41.4964C60.9748 42.7147 61.0199 43.4366 61.5615 44.5346C61.9226 45.2565 62.1483 45.6476 62.75 46.2492C63.3518 46.8508 63.6226 47.0614 64.435 47.4825C65.0067 47.7833 65.8943 48.1292 66.6916 48.1443V63.5306H64.8261V65.516H116.819V63.5306H114.954V48.1443C117.782 48.0841 120.671 45.1061 120.671 42.3236C120.671 40.4436 120.581 40.0977 119.738 38.4733C119.603 38.2326 119.512 38.0973 119.392 37.8867C119.257 37.6611 119.166 37.4355 119.031 37.1949L116.473 32.6376C115.24 30.5019 115.962 30.7726 113.901 30.7726V21.2219H106.318C105.972 21.2219 104.393 19.2366 101.429 19.2366V17.3716H80.2165V21.2219H80.2015Z" fill="black"/>
<path fill-rule="evenodd" clip-rule="evenodd" d="M82.1873 25.0725H99.4432V21.2222H82.1873V25.0725Z" fill="#2D4EA0"/>
<path fill-rule="evenodd" clip-rule="evenodd" d="M99.4432 25.0725C99.5636 24.877 99.5636 25.1026 99.5636 24.2603C99.5636 23.749 99.6839 21.5982 99.4432 21.2222V25.0725Z" fill="#4A3A1D"/>
<path fill-rule="evenodd" clip-rule="evenodd" d="M82.1873 25.0725V21.2222C82.0971 21.3726 82.0519 20.9815 82.067 22.0343L82.082 24.8319C82.1271 25.0424 82.1121 24.9522 82.1873 25.0725Z" fill="#4A3A1D"/>
<path fill-rule="evenodd" clip-rule="evenodd" d="M89.9051 50.6714H109.072V60.3424H89.9051V50.6714Z" fill="black"/>
<path fill-rule="evenodd" clip-rule="evenodd" d="M91.7706 52.6265H95.6219V54.4464H91.7706V52.6265Z" fill="#2D4EA0"/>
<path fill-rule="evenodd" clip-rule="evenodd" d="M97.5627 52.6265H101.414V54.4464H97.5627V52.6265Z" fill="#2D4EA0"/>
<path fill-rule="evenodd" clip-rule="evenodd" d="M103.325 52.6265H107.161V54.4464H103.325V52.6265Z" fill="#2D4EA0"/>
<path fill-rule="evenodd" clip-rule="evenodd" d="M91.7706 56.3413H95.6219V58.1612H91.7706V56.3413Z" fill="#2D4EA0"/>
<path fill-rule="evenodd" clip-rule="evenodd" d="M97.5627 56.3413H101.414V58.1612H97.5627V56.3413Z" fill="#2D4EA0"/>
<path fill-rule="evenodd" clip-rule="evenodd" d="M103.325 56.3413H107.161V58.1612H103.325V56.3413Z" fill="#2D4EA0"/>
<path fill-rule="evenodd" clip-rule="evenodd" d="M44.1853 77.082C43.0419 77.082 42.6658 77.9693 42.41 78.4958H45.9455C45.6596 77.8941 45.2083 77.082 44.1853 77.082ZM53.6331 77.082C52.8508 77.082 52.0083 77.7738 51.9482 78.4958H55.3933C55.3031 78.1047 55.0774 77.7287 54.7915 77.5031C54.5508 77.3076 54.0544 77.082 53.6331 77.082ZM50.3685 67.0951C50.3685 67.6666 50.2782 68.0727 50.1579 68.5691C49.7517 70.1934 49.4959 69.2008 50.203 71.4268C50.3685 71.9231 50.549 72.5397 50.7145 73.0361L51.6924 76.2096C52.3544 76.0291 52.8809 75.3523 54.25 75.6832C54.25 74.856 54.0694 73.8031 53.9641 72.9759C53.8438 72.1337 53.7084 71.1109 53.6331 70.2085C53.4977 68.6593 53.0163 66.6589 53.0163 65.4256H45.1481L44.7871 67.4711C44.6667 68.3735 44.5463 69.2309 44.3959 70.1784C44.2605 71.1109 44.1401 72.0284 44.0198 72.9007L43.6437 75.6982C44.5163 75.2771 45.9154 76.1795 46.126 76.2246L47.5402 71.7125C47.6455 71.3365 47.7809 70.9755 47.8711 70.6296C47.9915 70.2085 48.0968 69.8475 48.2322 69.4865C48.8641 67.7418 48.8641 68.163 48.8641 66.1325H50.3685V67.0951ZM53.9942 57.379C54.2349 62.0265 54.7314 66.5837 55.288 71.2011C55.4986 72.7654 55.6942 74.3296 55.8447 75.8637C56.0101 77.5181 57.0031 76.4051 57.0031 80.0148H50.3685C50.3685 79.6388 50.3685 79.2478 50.3685 78.8567C50.3685 78.3303 50.4889 78.21 50.534 77.8641C50.5791 77.3978 49.165 73.2918 48.9543 72.4044C48.8942 72.4946 48.9543 72.3743 48.8641 72.5698C48.8189 72.6751 48.8189 72.6751 48.7888 72.7654L47.2995 77.7738C47.3295 78.0746 47.4499 78.2401 47.4649 78.7665C47.4649 79.1726 47.4649 79.5937 47.4649 80.0148H40.8304C40.8304 76.4503 41.8835 77.4279 42.0791 75.8787C42.1092 75.5929 42.1844 75.1568 42.2295 74.871L43.6136 65.2C44.1853 61.3346 43.1322 54.8823 44.3809 52.7014C44.6216 52.2803 44.9826 51.7689 45.3286 51.438C45.6295 51.1523 46.2464 50.686 46.6826 50.5807V49.8437C46.8632 49.5279 46.7579 46.2792 46.7579 45.6024C46.1862 45.2715 45.8702 45.1511 45.5543 44.5495C45.2685 44.0231 45.2083 43.241 45.4791 42.6544C45.8402 41.8422 46.0207 41.9626 46.6375 41.5114C47.1791 41.1053 46.8933 38.5935 50.8499 39.3606C52.8207 39.7516 52.8057 39.9171 54.6261 39.7366C54.7915 39.9772 55.1977 40.7293 55.3482 40.8646C55.3933 41.3459 55.5287 41.4512 55.5287 42.0979C55.5287 44.5345 55.9951 46.7454 54.2048 48.0239C53.5128 48.5202 53.0765 48.6405 51.903 48.6405C51.903 49.2572 51.903 49.8738 51.903 50.5055C51.888 51.4531 52.0384 51.2876 52.5499 51.799C52.8508 52.0998 53.1818 52.6262 53.4075 53.1978C53.6783 54.1453 53.9641 56.2058 53.9942 57.379ZM52.4898 57.6347C52.4446 56.8375 52.2039 54.386 52.0083 53.8746C51.1207 51.4832 48.3526 50.8214 46.4118 52.4457C45.9154 52.8518 45.3286 53.8445 45.3286 54.7168V63.8915H52.7606C52.6252 60.2066 52.5499 58.6725 52.4898 57.6347ZM47.4499 44.2036H48.2473V50.0393C49.3455 50.0393 49.3455 50.0694 50.3685 50.31V48.46C49.9172 48.3547 49.3455 47.9938 49.1349 47.6629L50.1278 46.6251C51.0906 47.2418 50.8951 47.1365 52.3243 47.1365C53.2269 47.1365 54.0092 46.3544 54.0092 45.4519C54.0092 44.8804 54.0694 41.8723 53.9491 41.5414C53.7986 41.1805 53.9491 41.4813 52.8207 41.2707C52.1889 41.1504 51.6924 41.0451 51.0455 40.9097C50.2933 40.7593 48.2623 40.0976 48.2623 41.8272V42.8048C47.7508 42.8048 46.7579 42.6845 46.7579 43.5117C46.7428 43.9178 47.0287 44.2036 47.4499 44.2036Z" fill="black"/>
<path fill-rule="evenodd" clip-rule="evenodd" d="M55.3181 40.85C55.1677 40.7146 54.7615 39.9626 54.596 39.7219C52.7756 39.9024 52.7907 39.737 50.8198 39.3459C46.8632 38.5789 47.1641 41.0906 46.6074 41.4967C45.9906 41.9479 45.8101 41.8276 45.449 42.6398C45.1782 43.2414 45.2384 44.0085 45.5242 44.5349C45.8402 45.1365 46.1561 45.2568 46.7278 45.5877C46.7278 46.2495 46.8331 49.5132 46.6526 49.8291C45.9304 49.3628 44.8171 49.1824 43.4932 47.6182C42.6959 46.6706 41.9888 45.4523 41.7331 43.9784C40.8605 39.0602 44.441 35.1647 48.5181 34.7436C48.5632 34.7436 48.5933 34.7285 48.6384 34.7285H54.0243C56.1305 34.8338 57.6951 37.2403 56.6119 39.391C56.2358 40.1581 55.965 40.3988 55.3181 40.85Z" fill="#2D4EA0"/>
<path fill-rule="evenodd" clip-rule="evenodd" d="M49.4959 61.7411V60.3273H48.0817C48.172 61.4704 48.6534 61.6358 49.4959 61.7411ZM51.0004 51.1226V63.2151C49.3003 63.2151 47.7959 63.3955 46.8782 61.5606C46.4118 60.6431 46.5773 52.4612 46.5924 51.1376H48.0968V58.8533H49.511V51.1376H51.0004V51.1226Z" fill="black"/>
<path fill-rule="evenodd" clip-rule="evenodd" d="M26.463 59.5901V58.9283V56.1007V55.439V54.7772C26.463 53.3634 27.3055 52.1451 28.5241 51.5886C28.7347 50.25 28.1029 49.122 28.825 48.1744C29.156 47.7383 27.5161 45.9334 27.2604 44.4444C27.0798 43.3615 28.494 44.0985 28.7046 42.6697C28.7799 42.0981 29.0356 41.692 29.3214 41.3461C31.8038 40.3835 29.9232 41.2859 32.7516 41.2709C33.564 41.2709 35.0834 41.1355 35.5799 41.4815C35.8657 41.692 35.8206 41.8274 36.0162 42.053C36.8135 41.6319 37.3852 41.3311 37.7312 40.2933C37.8666 39.8721 37.9268 39.2555 37.7914 38.7591C37.5808 37.977 37.4454 38.0372 37.1746 37.601C36.9188 37.4356 36.7834 37.225 36.4224 37.0295C36.1065 36.864 35.6852 36.8039 35.4445 36.6836L32.9923 36.2324L30.9914 35.9165C29.9834 35.9165 29.4117 36.6836 28.4037 36.6836C26.5984 36.6836 25.2444 36.6986 24.0108 38.3531C23.2736 39.3457 22.9727 40.6693 23.3187 41.9327C23.6949 43.3164 24.5674 43.557 23.7851 45.407C23.4391 46.2342 23.1834 46.6704 23.1834 47.8436C23.1834 50.4606 24.5524 50.9268 24.9135 52.1902C25.3798 53.8296 24.086 54.717 23.7249 55.3186C22.6267 57.1536 23.1834 59.4848 24.8683 60.7031C25.2896 61.0039 25.8312 61.2596 26.463 61.3649V60.2369V59.5901Z" fill="#2D4EA0"/>
<path fill-rule="evenodd" clip-rule="evenodd" d="M38.0472 66.0875C38.1375 66.4635 38.2277 66.8545 38.3029 67.2456C38.3932 67.6367 38.4684 68.0277 38.5437 68.4187C38.5737 68.5692 38.6038 68.7196 38.6189 68.87C38.6339 68.9602 38.649 69.0805 38.649 69.1708V69.3813L38.4383 69.4265C38.3631 69.4415 38.2428 69.5017 38.1826 69.5317C38.0021 69.6069 37.8366 69.6972 37.656 69.7573C37.1144 69.983 36.5578 70.1183 35.9711 70.1785C35.7905 70.1935 35.61 70.2086 35.4295 70.2086C35.3693 70.2086 35.3091 70.2086 35.2489 70.2086C35.2189 70.2086 35.1587 70.2386 35.1286 70.2386C34.9932 70.2988 34.8427 70.3439 34.7073 70.4041C34.1808 70.6147 33.6994 70.6748 33.1427 70.6297C32.9321 70.6147 32.5109 70.5545 32.3153 70.6297C31.9843 70.7651 31.5932 70.8252 31.2471 70.8553H31.2321H30.3746H30.3595C29.9834 70.8252 29.5622 70.7651 29.2162 70.6297C29.171 70.6147 29.1108 70.5996 29.0507 70.5996C28.9454 70.5846 28.81 70.6147 28.7046 70.6297C28.5392 70.6598 28.3887 70.6748 28.2232 70.6748C27.7569 70.6748 27.3206 70.5996 26.8843 70.4342C26.7489 70.389 26.6285 70.3289 26.4931 70.2838C26.4329 70.2537 26.3427 70.2236 26.2675 70.2236C25.5152 70.2086 24.7781 70.0882 24.071 69.8325C23.8604 69.7573 23.6497 69.6671 23.4391 69.5618C23.3489 69.5167 23.1984 69.4415 23.1081 69.4265L22.8975 69.3813V69.1858C22.8975 69.0204 22.9276 68.8549 22.9577 68.6895C22.9878 68.5391 23.0179 68.3887 23.048 68.2383C23.5896 65.7265 24.1612 63.1696 25.5002 60.9286C25.5754 60.8083 25.6506 60.688 25.7108 60.5677C25.9816 60.1014 26.5984 59.7855 27.14 59.7855C27.6515 59.7855 28.148 59.7705 28.6595 59.7705C28.6896 60.2969 28.7347 60.7331 28.7799 61.0339H28.5843C28.5542 61.1392 28.5241 61.2445 28.494 61.3498C27.8772 63.6209 27.456 65.9521 27.2002 68.2984C27.1701 68.6143 27.125 68.9301 27.125 69.246C27.2453 69.2911 27.3657 69.3362 27.471 69.3513C27.6365 69.3964 28.2684 69.4716 28.5392 69.4415C28.5542 69.3813 28.5542 69.3212 28.5542 69.2761C28.5542 69.1858 28.5692 69.1106 28.5692 69.0204C28.5843 68.885 28.5692 68.7647 28.5843 68.6293L28.8551 64.8843C28.8551 64.6436 28.8852 64.418 28.9002 64.1774C28.9002 64.0871 28.9002 64.0119 28.9153 63.9217C28.9153 63.8916 28.9303 63.8615 28.9303 63.8314L29.0657 61.7408C29.3967 62.2522 29.7728 62.5831 30.2091 62.7786L30.0436 65.2753V65.2903C30.0135 65.516 29.9985 65.7716 29.9834 65.9972C29.9684 66.3281 29.9533 66.644 29.9383 66.9749C29.9232 67.2907 29.9082 67.5915 29.8931 67.9074C29.8781 68.148 29.8631 68.4037 29.833 68.6444C29.7878 68.9301 29.7728 69.261 29.7728 69.5618C30.2693 69.7273 31.2923 69.7273 31.7887 69.5618C31.7887 69.261 31.7586 68.9452 31.7286 68.6444V68.6293L31.3525 63.0493C31.7436 63.0794 32.1498 63.0794 32.571 63.0794L32.6011 63.5306C32.6162 63.9969 32.6613 64.4631 32.6764 64.9294C32.6914 65.3655 32.7365 65.8168 32.7817 66.2529C32.8118 66.5387 32.8268 66.8094 32.8418 67.0952C32.8569 67.2907 32.8719 67.5013 32.8719 67.6968L32.9622 69.0655C32.9772 69.1858 32.9772 69.3061 32.9923 69.4114C32.9923 69.4265 32.9923 69.4265 32.9923 69.4415C33.3834 69.4866 34.0153 69.3964 34.4215 69.246C34.4065 68.9151 34.3764 68.5842 34.3312 68.2683C34.1808 67.0651 34.0303 65.8769 33.8047 64.6887C33.5941 63.5607 33.3233 62.4477 33.0374 61.3347V59.8156C33.5489 59.8156 34.0604 59.8156 34.5569 59.8006C35.1436 59.7856 35.61 60.2067 35.7604 60.4624C35.8658 60.6278 35.9711 60.7933 36.0613 60.9737C36.8737 62.3424 37.7162 64.6737 38.0472 66.0875ZM35.625 68.9903C35.7003 68.9903 35.7604 68.9752 35.8357 68.9752C36.0613 68.9602 36.287 68.9151 36.5127 68.87C36.6932 68.8248 36.8737 68.7797 37.0543 68.7196L37.3401 68.6143C37.31 68.3736 37.2649 68.133 37.2197 67.9074C37.1295 67.5013 37.0392 67.0952 36.9339 66.6891C36.8286 66.268 36.7082 65.8468 36.6029 65.4257C36.5127 65.1249 36.4374 64.8241 36.3321 64.5233C36.1065 63.8916 35.8808 63.29 35.5799 62.6883C35.3542 62.2221 35.0985 61.7558 34.8728 61.2896C34.8427 61.2445 34.7826 61.0941 34.7525 61.0489C34.7073 61.0339 34.587 61.0489 34.5569 61.0489C34.4516 61.0489 34.3613 61.0489 34.256 61.064L34.4215 61.7558C34.5569 62.2823 34.6773 62.8237 34.7826 63.3652C34.933 64.0721 35.0534 64.779 35.1888 65.4859C35.3091 66.2078 35.4295 66.9297 35.5197 67.6517C35.5498 68.0728 35.61 68.5391 35.625 68.9903ZM25.9515 68.9903C25.9666 68.885 25.9666 68.7948 25.9816 68.6895C26.0267 68.0578 26.117 67.411 26.2073 66.7793C26.2975 66.1176 26.4029 65.4558 26.5082 64.809C26.6285 64.1021 26.7639 63.3952 26.9294 62.7034L27.1701 61.7107C27.2153 61.5603 27.2604 61.3949 27.3055 61.2294C27.3206 61.1693 27.3356 61.1091 27.3507 61.0489C27.2453 61.0489 27.14 61.0489 27.0347 61.0339C26.9896 61.0339 26.8993 61.0339 26.8391 61.0339C26.8241 61.064 26.794 61.1241 26.779 61.1542C26.7188 61.2896 26.6436 61.4099 26.5834 61.5302C26.117 62.3123 25.7409 63.1847 25.44 64.0269C25.1391 64.8542 24.8683 65.7115 24.6577 66.5838L24.3117 68.2683C24.2966 68.3887 24.2666 68.509 24.2365 68.6143C24.2515 68.6293 24.2816 68.6293 24.2966 68.6444C24.6728 68.7948 25.0338 68.885 25.44 68.9452C25.5905 68.9602 25.771 68.9602 25.9515 68.9903Z" fill="black"/>
<path fill-rule="evenodd" clip-rule="evenodd" d="M34.2259 79.0976V80.0151H30.4046V69.8628H35.941L35.8507 70.314C35.5799 71.6526 35.3392 73.0062 35.0985 74.3448C34.9029 75.4277 34.7073 76.4956 34.5117 77.5785C34.4064 78.0899 34.3011 78.5862 34.2259 79.0976ZM34.6321 70.314H31.5931V78.8118H33.0675C33.0825 78.7216 33.0976 78.6314 33.1126 78.5411C33.1728 78.1801 33.248 77.8041 33.3082 77.4432C33.5038 76.3302 33.7144 75.2322 33.91 74.1192C34.1507 72.8558 34.3914 71.5774 34.6321 70.314Z" fill="black"/>
<path fill-rule="evenodd" clip-rule="evenodd" d="M34.0303 79.0824V79.8193H30.6002V70.0581H35.7003L35.6551 70.2837C35.3843 71.6223 35.1436 72.976 34.9029 74.3296C34.7073 75.4125 34.5118 76.4804 34.3162 77.5633C34.2109 78.0596 34.1056 78.571 34.0303 79.0824ZM34.8728 70.1183C34.4215 72.4195 33.233 79.0072 33.233 79.0222H31.3825V70.1183H34.8728Z" fill="black"/>
<path fill-rule="evenodd" clip-rule="evenodd" d="M29.0055 79.0976V80.0151H25.1843V69.8628H30.7206L30.6303 70.314C30.3595 71.6526 30.1188 73.0062 29.8781 74.3448C29.6825 75.4277 29.487 76.4956 29.2914 77.5785C29.2011 78.0899 29.0958 78.5862 29.0055 79.0976ZM29.4268 70.314H26.3878V78.8118H27.8622C27.8772 78.7216 27.8923 78.6314 27.9073 78.5411C27.9675 78.1801 28.0427 77.8041 28.1029 77.4432C28.2984 76.3302 28.5091 75.2322 28.7046 74.1192C28.9454 72.8558 29.171 71.5774 29.4268 70.314Z" fill="black"/>
<path fill-rule="evenodd" clip-rule="evenodd" d="M28.8099 79.0824V79.8193H25.3798V70.0581H30.4799L30.4347 70.2837C30.1639 71.6223 29.9232 72.976 29.6825 74.3296C29.4869 75.4125 29.2914 76.4804 29.0958 77.5633C29.0055 78.0596 28.9002 78.571 28.8099 79.0824ZM29.6675 70.1183C29.2161 72.4195 28.0276 79.0072 28.0276 79.0222H26.1772V70.1183H29.6675Z" fill="black"/>
<path fill-rule="evenodd" clip-rule="evenodd" d="M34.1357 51.1224C35.6401 51.5586 36.7082 52.9423 36.7082 54.5366C36.7082 55.439 36.3622 56.3114 35.7604 56.9581V61.1243H33.0374V59.7556H34.3914V56.3415C34.9631 55.9504 35.3392 55.2886 35.3392 54.5366C35.3392 53.4236 34.5118 52.5062 33.4436 52.3708C33.3082 52.2354 33.1728 52.1001 33.0224 51.9797V51.0021H31.5179V51.2728C31.2772 51.2277 31.0215 51.1976 30.7657 51.1976C30.5401 51.1976 30.3144 51.2127 30.0887 51.2578V51.0021H28.5843C28.5843 51.1826 28.5843 51.5135 28.5692 51.9346C27.7117 52.5964 27.14 53.6342 27.14 54.8073V55.4842V56.161V59.7707H28.6294C28.6595 60.3573 28.7046 60.8235 28.7799 61.1394H25.771V54.8073C25.771 52.07 28.0126 49.829 30.7507 49.829C32.0294 49.8139 33.218 50.2802 34.1357 51.1224Z" fill="black"/>
<path fill-rule="evenodd" clip-rule="evenodd" d="M27.9675 50.972V50.9419C28.148 50.626 28.0427 47.3773 28.0427 46.7005C27.471 46.3696 27.1551 46.2493 26.8391 45.6477C26.5533 45.1213 26.4931 44.3391 26.7639 43.7526C27.125 42.9404 27.3055 43.0607 27.9223 42.6095C28.4639 42.2034 28.1781 39.6917 32.1348 40.4587C34.1056 40.8498 34.0905 41.0152 35.9109 40.8347C36.0764 41.0754 36.4826 41.8274 36.633 41.9628C36.6781 42.4441 36.8135 42.5493 36.8135 43.1961C36.8135 45.6326 37.2799 47.8436 35.4896 49.122C34.7976 49.6183 34.3613 49.7387 33.1879 49.7387C33.1879 50.1448 33.1879 50.5659 33.1879 50.972H31.6834V49.5582C31.2321 49.4529 30.6604 49.0919 30.4498 48.761L31.4427 47.7232C32.4056 48.3399 32.21 48.2346 33.6392 48.2346C34.5418 48.2346 35.3242 47.4525 35.3242 46.5501C35.3242 45.9786 35.3843 42.9705 35.264 42.6396C35.1135 42.2786 35.264 42.5794 34.1357 42.3689C33.5038 42.2485 33.0073 42.1432 32.3604 42.0079C31.6082 41.8575 29.5772 41.1957 29.5772 42.9253V43.903C29.0657 43.903 28.0728 43.7827 28.0728 44.6099C28.0728 45.031 28.3586 45.3168 28.7799 45.3168H29.5772V50.972H27.9675Z" fill="black"/>
<path fill-rule="evenodd" clip-rule="evenodd" d="M31.533 61.6355V60.2217H30.1188C30.2091 61.3498 30.6905 61.5152 31.533 61.6355ZM33.0374 51.002V63.0944C31.3374 63.0944 29.833 63.2749 28.9152 61.44C28.4489 60.5225 28.6144 52.3406 28.6294 51.017H30.1338V58.7327H31.548V51.017H33.0374V51.002Z" fill="black"/>
<path fill-rule="evenodd" clip-rule="evenodd" d="M5.50623 77.082C4.36286 77.082 3.98675 77.9693 3.73099 78.4958H7.26642C6.98057 77.8941 6.52924 77.082 5.50623 77.082ZM14.9691 77.082C14.1868 77.082 13.3443 77.7738 13.2842 78.4958H16.7293C16.6391 78.1047 16.4134 77.7287 16.1275 77.5031C15.8718 77.3076 15.3753 77.082 14.9691 77.082ZM11.6895 67.0951C11.6895 67.6666 11.5992 68.0727 11.4788 68.5691C11.0726 70.1934 10.8169 69.2008 11.524 71.4268C11.6895 71.9231 11.87 72.5397 12.0355 73.0361L13.0134 76.2096C13.6753 76.0291 14.2019 75.3523 15.5709 75.6832C15.5709 74.856 15.3904 73.8031 15.2851 72.9759C15.1647 72.1337 15.0293 71.1109 14.9541 70.2085C14.8187 68.6593 14.3373 66.6589 14.3373 65.4256H6.46907L6.108 67.4711C5.98765 68.3735 5.86729 69.2309 5.71685 70.1784C5.58145 71.1109 5.46109 72.0284 5.34074 72.9007L4.96463 75.6682C5.8372 75.247 7.23633 76.1494 7.44695 76.1946L8.86112 71.6824C8.96643 71.3064 9.10183 70.9455 9.19209 70.5995C9.31245 70.1784 9.41776 69.8174 9.55316 69.4565C10.185 67.7118 10.185 68.1329 10.185 66.1024H11.6895V67.0951ZM15.3151 57.379C15.5559 62.0265 16.0523 66.5837 16.609 71.2011C16.8196 72.7654 17.0152 74.3296 17.1656 75.8637C17.3311 77.5181 18.324 76.4051 18.324 80.0148H11.6895C11.6895 79.6388 11.6895 79.2478 11.6895 78.8567C11.6895 78.3303 11.8098 78.21 11.8549 77.8641C11.9001 77.3978 10.4859 73.2918 10.2753 72.4044C10.2151 72.4946 10.2753 72.3743 10.185 72.5698C10.1399 72.6751 10.1399 72.6751 10.1098 72.7654L8.62041 77.7738C8.6505 78.0746 8.77085 78.2401 8.7859 78.7665C8.7859 79.1726 8.7859 79.5937 8.7859 80.0148H2.13629C2.13629 76.4503 3.1894 77.4279 3.38497 75.8787C3.41506 75.5929 3.49028 75.1568 3.53542 74.871L4.9195 65.2C5.49118 61.3346 4.43808 54.8823 5.68676 52.7014C5.92747 52.2803 6.28853 51.7689 6.63455 51.438C6.93544 51.1523 7.55226 50.686 7.98855 50.5807V49.8437C8.16908 49.5279 8.06377 46.2792 8.06377 45.6024C7.49208 45.2715 7.17615 45.1511 6.86022 44.5495C6.57438 44.0231 6.5142 43.241 6.785 42.6544C7.14606 41.8422 7.32659 41.9626 7.94341 41.5114C8.48501 41.1053 8.19917 38.5935 12.1558 39.3606C14.1266 39.7516 14.1116 39.9171 15.932 39.7366C16.0975 39.9772 16.5037 40.7293 16.6541 40.8646C16.6992 41.3459 16.8346 41.4512 16.8346 42.0979C16.8346 44.5345 17.301 46.7454 15.5107 48.0239C14.8187 48.5202 14.3824 48.6405 13.2089 48.6405C13.2089 49.2572 13.2089 49.8738 13.2089 50.5055C13.1939 51.4531 13.3443 51.2876 13.8558 51.799C14.1567 52.0998 14.4877 52.6262 14.7134 53.1978C14.9992 54.1453 15.2851 56.2058 15.3151 57.379ZM13.8107 57.6347C13.7656 56.8375 13.5249 54.386 13.3293 53.8746C12.4417 51.4832 9.67351 50.8214 7.73279 52.4457C7.23633 52.8518 6.6496 53.8445 6.6496 54.7168V63.8915H14.0815C13.9461 60.2066 13.8709 58.6725 13.8107 57.6347ZM8.77085 44.2036H9.5682V50.0393C10.6664 50.0393 10.6664 50.0694 11.6895 50.31V48.46C11.2381 48.3547 10.6664 47.9938 10.4558 47.6629L11.4487 46.6251C12.4116 47.2418 12.216 47.1365 13.6452 47.1365C14.5479 47.1365 15.3302 46.3544 15.3302 45.4519C15.3302 44.8804 15.3904 41.8723 15.27 41.5414C15.1196 41.1805 15.27 41.4813 14.1417 41.2707C13.5098 41.1504 13.0134 41.0451 12.3665 40.9097C11.6142 40.7593 9.58325 40.0976 9.58325 41.8272V42.8048C9.07174 42.8048 8.07881 42.6845 8.07881 43.5117C8.06377 43.9178 8.34961 44.2036 8.77085 44.2036Z" fill="black"/>
<path fill-rule="evenodd" clip-rule="evenodd" d="M16.6391 40.85C16.4886 40.7146 16.0824 39.9626 15.9169 39.7219C14.0966 39.9024 14.1116 39.737 12.1408 39.3459C8.18413 38.5789 8.48502 41.0906 7.92838 41.4967C7.31156 41.9479 7.13102 41.8276 6.76996 42.6398C6.49916 43.2414 6.55934 44.0085 6.84518 44.5349C7.16111 45.1365 7.47704 45.2568 8.04873 45.5877C8.04873 46.2495 8.15404 49.5132 7.97351 49.8291C7.25138 49.3628 6.1381 49.1824 4.81419 47.6182C4.01684 46.6706 3.30976 45.4523 3.054 43.9784C2.18143 39.0602 5.76199 35.1647 9.83901 34.7436C9.88414 34.7436 9.91423 34.7285 9.95936 34.7285H15.3452C17.4515 34.8338 19.0161 37.2403 17.9329 39.391C17.5568 40.1581 17.286 40.3988 16.6391 40.85Z" fill="#2D4EA0"/>
<path fill-rule="evenodd" clip-rule="evenodd" d="M10.8169 61.7411V60.3273H9.40273C9.493 61.4704 9.97442 61.6358 10.8169 61.7411ZM12.3213 51.1226V63.2151C10.6213 63.2151 9.11689 63.3955 8.19918 61.5606C7.73281 60.6431 7.8983 52.4612 7.91334 51.1376H9.41778V58.8533H10.8319V51.1376H12.3213V51.1226Z" fill="black"/>
<path fill-rule="evenodd" clip-rule="evenodd" d="M19.7231 21.1768C20.0692 33.2993 -2.76817 31.7953 0.285834 14.0777C1.38407 7.70055 6.90535 4.07581 13.4948 4.54206C24.2064 5.29408 28.163 10.5432 32.887 18.6801C35.8657 23.8088 39.9578 27.6141 46.126 28.8323C53.3022 30.2612 59.7411 27.2982 64.089 21.9137L65.9845 23.2072C60.2827 30.2762 51.0906 33.5701 42.1693 29.9754C30.7055 25.343 31.7586 17.4317 24.3869 10.9493C20.8816 7.86599 14.1868 5.86562 9.65847 7.02373C5.64162 8.04648 3.21948 10.6033 2.55753 14.4838C0.0451245 29.1031 17.6621 29.8701 17.4214 21.3572L19.7231 21.1768Z" fill="black"/>
<path fill-rule="evenodd" clip-rule="evenodd" d="M46.9835 10.4682C49.4358 10.3328 51.2712 9.44542 50.9703 6.5727C50.3836 1.03782 41.4623 0.195559 38.4383 5.33938C35.0684 11.0547 37.7914 18.6201 44.095 21.0416C47.8712 22.5005 51.6172 22.1546 55.4986 21.5379L55.8597 23.4631C54.0694 23.7489 53.4677 23.8842 51.6774 23.9745C42.9065 24.4558 34.918 20.0188 35.0985 10.4531C35.2188 4.15119 39.0401 -0.225573 45.4189 3.34149e-05C50.203 0.165478 54.25 4.36176 52.6252 8.94908C51.6473 11.7165 49.526 12.273 46.8632 12.4234L46.9835 10.4682Z" fill="black"/>
</g>
<defs>
<clipPath id="clip0_1_281">
<rect width="120.656" height="80" fill="white"/>
</clipPath>
</defs>
</svg>
