<svg width="29" height="29" viewBox="0 0 29 29" fill="none" xmlns="http://www.w3.org/2000/svg">
<g clip-path="url(#clip0_368_951)">
<path d="M28.9886 25.6947L26.875 7.59418C26.7315 6.03789 25.4453 4.83551 23.8912 4.83551H21.7446C21.7444 2.16666 19.5812 0.00354004 16.9124 0.00354004C14.2435 0.00354004 12.0803 2.16671 12.0802 4.83551H10.7658C9.80378 4.83551 8.9487 5.30479 8.40491 6.04525C6.38325 6.07572 4.83182 7.9028 4.83182 10.0703V10.876H3.75193C2.42266 10.876 1.32522 11.9071 1.21213 13.2369L0.00958712 26.3034C-0.118674 27.8261 1.05646 28.997 2.54865 28.997H13.6133C13.7445 28.997 13.873 28.9864 13.9984 28.9673C14.0305 28.9675 14.072 28.9676 14.1387 28.9679C14.3845 28.9689 14.7434 28.9701 15.2079 28.9715C16.0434 28.974 17.2073 28.977 18.6372 28.9804C19.2622 28.9819 19.2622 28.9819 19.8952 28.9834C21.2387 28.9865 22.6781 28.9897 24.1175 28.9927C25.6528 28.996 25.6528 28.996 26.0367 28.9967C27.8043 28.9967 29.1381 27.4632 28.9886 25.6947ZM16.9124 2.41973C18.2468 2.41973 19.3283 3.50114 19.3285 4.83557H14.4963C14.4964 3.50114 15.5779 2.41973 16.9124 2.41973ZM7.24789 10.0703C7.24789 9.14334 7.83354 8.46002 8.45593 8.46002C8.51165 8.46002 8.56709 8.46574 8.62179 8.47639C8.65424 8.48975 8.68714 8.50243 8.72123 8.51313C9.21134 8.66688 9.6096 9.22313 9.65876 9.92497C9.65898 9.92837 9.65915 9.93177 9.65938 9.93511C9.66232 9.97996 9.66402 10.0254 9.66402 10.0714V10.8761H7.24789V10.0703ZM2.41637 26.5155L3.61875 13.45C3.62724 13.3508 3.68953 13.2922 3.75188 13.2922H6.0398H10.872H12.6926C12.7217 13.2922 12.7506 13.3054 12.7741 13.3282C12.8009 13.3545 12.8207 13.3935 12.8249 13.4425L13.7441 26.3811C13.7526 26.482 13.6978 26.548 13.6184 26.5571L13.5118 26.5808H2.54871C2.42419 26.5808 2.4119 26.5686 2.41637 26.5155ZM26.0392 26.5806C25.6579 26.5798 25.6579 26.5798 24.1226 26.5765C22.6833 26.5735 21.2441 26.5703 19.9008 26.5672C19.2679 26.5657 19.2679 26.5657 18.643 26.5643C17.6906 26.562 16.8563 26.5599 16.1586 26.558C16.1599 26.5343 16.1607 26.5105 16.1613 26.4866C16.1615 26.4805 16.1619 26.4744 16.162 26.4683C16.1628 26.4295 16.1624 26.3905 16.1614 26.3514C16.1611 26.3386 16.1607 26.3259 16.1602 26.3131C16.1589 26.2803 16.157 26.2473 16.1544 26.2142C16.1539 26.2072 16.1538 26.2001 16.1532 26.1931L15.2339 13.2536C15.1772 12.5854 14.8781 11.9951 14.429 11.5697C14.4256 11.5664 14.4224 11.563 14.419 11.5598C14.418 11.5589 14.417 11.5581 14.416 11.5572C13.9615 11.1326 13.3561 10.8758 12.6927 10.8758H12.0802V10.0712V10.0702C12.0802 8.98428 11.6906 7.98378 11.0477 7.25159H13.2835C13.2851 7.25159 13.2867 7.25181 13.2883 7.25181H20.5366C20.5383 7.25181 20.5398 7.25159 20.5414 7.25159H23.8914C24.1854 7.25159 24.4416 7.49237 24.4696 7.82075L26.5851 25.9366C26.6139 26.2866 26.3582 26.5806 26.0392 26.5806Z" fill="#2E4DA0"/>
</g>
<defs>
<clipPath id="clip0_368_951">
<rect width="29" height="29" fill="white"/>
</clipPath>
</defs>
</svg>
