<svg width="30" height="30" viewBox="0 0 30 30" fill="none" xmlns="http://www.w3.org/2000/svg">
<g clip-path="url(#clip0_235_5)">
<path d="M15 0C6.71371 0 0 6.71371 0 15C0 23.2863 6.71371 30 15 30C23.2863 30 30 23.2863 30 15C30 6.71371 23.2863 0 15 0ZM15 27.0968C8.32863 27.0968 2.90323 21.6714 2.90323 15C2.90323 8.32863 8.32863 2.90323 15 2.90323C21.6714 2.90323 27.0968 8.32863 27.0968 15C27.0968 21.6714 21.6714 27.0968 15 27.0968Z" fill="#2E4DA0"/>
<path d="M10.1613 14.0321C11.2302 14.0321 12.0968 13.1656 12.0968 12.0966C12.0968 11.0277 11.2302 10.1611 10.1613 10.1611C9.09235 10.1611 8.22581 11.0277 8.22581 12.0966C8.22581 13.1656 9.09235 14.0321 10.1613 14.0321Z" fill="#2E4DA0"/>
<path d="M19.8387 14.0321C20.9077 14.0321 21.7742 13.1656 21.7742 12.0966C21.7742 11.0277 20.9077 10.1611 19.8387 10.1611C18.7698 10.1611 17.9032 11.0277 17.9032 12.0966C17.9032 13.1656 18.7698 14.0321 19.8387 14.0321Z" fill="#2E4DA0"/>
<path d="M22.125 22.645C22.7419 22.1309 22.8266 21.2176 22.3125 20.6006C20.498 18.4232 17.8306 17.1772 15 17.1772C12.1694 17.1772 9.50202 18.4232 7.6875 20.6006C7.17944 21.2176 7.25807 22.1309 7.875 22.645C8.48589 23.1531 9.40524 23.0744 9.91936 22.4575C11.1774 20.9393 13.0343 20.0744 15 20.0744C16.9657 20.0744 18.8226 20.9454 20.0806 22.4575C20.5948 23.0744 21.5141 23.1531 22.125 22.645Z" fill="#2E4DA0"/>
</g>
<defs>
<clipPath id="clip0_235_5">
<rect width="30" height="30" fill="white"/>
</clipPath>
</defs>
</svg>
