<svg width="30" height="30" viewBox="0 0 30 30" fill="none" xmlns="http://www.w3.org/2000/svg">
<g clip-path="url(#clip0_235_12)">
<path d="M1.36364 21.8181H10.4555C12.2095 21.8181 13.6364 23.2455 13.6364 25.0002C13.6364 26.2532 12.6172 27.2726 11.3645 27.2726C10.5127 27.2726 9.81982 26.5794 9.81982 25.7273C9.81982 24.9742 9.20927 24.3636 8.45618 24.3636C7.70309 24.3636 7.09255 24.9742 7.09255 25.7273C7.09255 28.0832 9.00891 29.9999 11.3645 29.9999C14.121 29.9999 16.3636 27.757 16.3636 25.0002C16.3636 21.7417 13.7133 19.0908 10.4555 19.0908H1.36364C0.610545 19.0908 0 19.7014 0 20.4545C0 21.2075 0.610545 21.8181 1.36364 21.8181Z" fill="#2E4DA0"/>
<path d="M1.36364 15.4545H21.5656C26.2164 15.4545 30 11.6708 30 7.02C30 3.14918 26.8507 0 22.9798 0C19.7325 0 17.0908 2.64173 17.0908 5.88873C17.0908 8.63682 19.3265 10.8726 22.0745 10.8726C22.8275 10.8726 23.4381 10.2621 23.4381 9.509C23.4381 8.75591 22.8275 8.14536 22.0745 8.14536C20.8303 8.14536 19.8181 7.133 19.8181 5.88873C19.8181 4.14545 21.2365 2.72727 22.9798 2.72727C25.3469 2.72727 27.2727 4.653 27.2727 7.02C27.2727 10.167 24.7125 12.7273 21.5656 12.7273H1.36364C0.610545 12.7273 0 13.3378 0 14.0909C0 14.844 0.610545 15.4545 1.36364 15.4545Z" fill="#2E4DA0"/>
</g>
<defs>
<clipPath id="clip0_235_12">
<rect width="30" height="30" fill="white"/>
</clipPath>
</defs>
</svg>
