<svg width="1920" height="2049" viewBox="0 0 1920 2049" fill="none" xmlns="http://www.w3.org/2000/svg">
<path d="M498.923 1291.78C598.234 1180.23 547.953 1049.85 396.738 901.632C320.965 817.666 302.263 736.777 344.4 646.801C392.776 543.345 492.577 532.136 554.073 564.466C653.099 631.751 608.237 714.44 582.196 736.021C476.639 823.797 387.015 688.164 446.278 623.69C515.262 548.623 686.75 551.71 712.897 414.066C736.693 288.486 667.685 205.465 557.861 162.74C474.184 130.06 401.339 170.775 385.649 247.905C368.872 329.813 481.706 357.719 527.751 268.606C603.927 121.145 537.084 11.3963 533.996 1" stroke="#B1B1B1" stroke-miterlimit="22.9256" stroke-dasharray="6 6"/>
<path d="M1239.36 25.2908C1385.11 154.662 1339.89 331.294 1166.61 546.492C1081.26 666.887 1069.4 774.566 1137.76 884.717C1216.27 1011.38 1347.31 1010.64 1422.06 959.344C1540.09 857.009 1469.31 756.718 1432.26 732.735C1282.05 635.134 1186.66 824.6 1273.31 899.085C1374.19 985.809 1595.93 955.584 1650.87 1129.95C1700.91 1289.04 1624.18 1407.18 1488.4 1479.34C1384.97 1534.48 1284.34 1492.86 1252.22 1395.32C1217.95 1291.74 1359.9 1238.32 1433.19 1346.76C1554.46 1526.19 1484.62 1678.63 1482.21 1692.58" stroke="#B1B1B1" stroke-miterlimit="22.9256" stroke-dasharray="6 6"/>
<path d="M298.139 2009.85C299.59 1934.82 286.044 1871.35 212.074 1854.47C89.0436 1807.14 163.986 1676.5 279.589 1673.26C358.512 1662.15 420.59 1642.48 432.107 1596.95C433.222 1556.1 382.385 1540.36 362.541 1585.25C331.123 1679.62 473.507 1740.29 529.498 1732.95C674.154 1713.89 741.33 1549.11 603.994 1443.15C571.864 1418.35 430.686 1408.18 495.687 1297" stroke="#B1B1B1" stroke-miterlimit="22.9256" stroke-dasharray="6 6"/>
</svg>
