<svg width="262" height="41" viewBox="0 0 262 41" fill="none" xmlns="http://www.w3.org/2000/svg">
<path d="M24.6497 27.2432L21.7497 28.759C21.6807 28.6212 21.3354 27.7255 20.5759 26.003C19.8164 24.2804 18.8498 22.1445 17.6069 19.4573H6.69754C5.38565 22.3512 4.41899 24.556 3.65948 26.1408C2.96901 27.7255 2.55473 28.6212 2.48568 28.759L0 27.381C0.345234 26.7609 1.65712 23.9359 4.00471 18.9061C6.3523 13.8763 8.76894 8.63985 11.2546 3.12775H13.6713C16.1569 8.63985 18.5736 14.0141 20.9902 19.1817C23.3378 24.3493 24.5806 27.0365 24.6497 27.2432ZM16.5712 17.0458C15.9498 15.53 15.1903 13.9452 14.4998 12.2916C13.7403 10.638 12.9808 8.91545 12.2213 7.12402H12.1522C11.5308 8.50205 10.7713 10.1557 9.87369 12.1538C8.97608 14.152 8.28561 15.7367 7.66419 16.9769L16.5712 17.0458Z" fill="white"/>
<path d="M48.3327 26.7609L45.9851 28.6901C45.7089 28.4145 44.7423 27.3121 43.0851 25.4518C41.428 23.5914 38.8733 20.6976 35.4209 16.7702V16.6324C35.9043 16.4946 36.5257 16.219 37.2852 15.8056C38.0447 15.3922 38.7352 14.9099 39.2185 14.4965C39.7018 14.0831 40.0471 13.5319 40.3923 12.9117C40.7375 12.2916 40.8756 11.4648 40.8756 10.4313C40.8756 9.46669 40.5994 8.63987 40.1161 7.95085C39.6328 7.26184 38.9423 6.77954 38.0447 6.43503C37.3542 6.15942 36.5947 6.02162 35.7662 5.95272C35.0067 5.88382 34.2471 5.88382 33.5567 5.88382C33.1424 5.88382 32.7972 5.88382 32.521 5.88382C32.3138 5.88382 32.1067 5.88382 31.9686 5.88382C31.9686 8.22646 31.8996 10.2935 31.8996 12.0849C31.8996 13.8764 31.8996 15.1166 31.8996 15.8745C31.8996 17.597 31.8996 19.8708 31.8996 22.7646C31.8996 25.6585 31.8996 27.5188 31.9686 28.2078H28.9305C28.9305 27.4499 28.9305 26.003 28.9996 23.9359C28.9996 21.8 29.0686 19.1818 29.0686 16.0123C29.0686 15.3922 29.0686 14.2209 29.0686 12.5672C29.0686 10.9136 29.0686 7.88195 28.9996 3.47227C29.1377 3.47227 29.7591 3.47227 30.8639 3.40337C31.9686 3.40337 33.0043 3.33447 33.971 3.33447C35.0757 3.33447 36.1114 3.40338 37.0781 3.54118C38.0447 3.67898 39.0804 3.95458 40.0471 4.36799C41.2899 4.9192 42.2566 5.67712 42.947 6.64173C43.6375 7.67525 44.0518 8.84657 44.0518 10.1557C44.0518 11.8782 43.4994 13.3941 42.4637 14.4965C41.428 15.5989 40.3923 16.4946 39.4256 17.1147V17.1836C41.1518 19.1818 42.947 21.1799 45.0184 23.3158C47.0898 25.4518 48.1946 26.5542 48.3327 26.7609Z" fill="white"/>
<path d="M111.718 27.8633L108.68 28.4834L104.882 7.74413C104.399 8.77765 103.363 11.0514 101.706 14.7032C100.049 18.3549 98.4607 22.0067 96.8726 25.6585H94.3179C92.8679 22.2823 91.2107 18.6305 89.4155 14.6343C87.6203 10.638 86.5846 8.36424 86.3084 7.74413H86.2394C86.1703 8.08864 85.687 10.4313 84.7203 14.841C83.8227 19.2506 82.9251 23.7981 82.0966 28.4834L79.2657 27.9322C80.5085 22.6268 81.6823 17.3214 82.718 12.1538C83.8227 6.91732 84.3751 4.09236 84.5132 3.67896L87.4822 3.26555C87.6203 3.54115 88.4489 5.53929 90.106 9.19105C91.7631 12.9117 93.6274 17.1147 95.8369 21.9378H95.975C97.6321 18.1482 99.4273 14.1519 101.292 9.88007C103.156 5.60819 104.122 3.40335 104.192 3.26555L107.022 3.47225C107.091 3.74785 107.575 6.435 108.541 11.6026C109.439 16.6324 110.544 22.0756 111.718 27.8633Z" fill="white"/>
<path d="M138.37 27.2432L135.47 28.759C135.401 28.6212 135.055 27.7255 134.296 26.003C133.536 24.2805 132.57 22.1445 131.327 19.4574H120.348C119.036 22.3512 118.07 24.5561 117.31 26.1408C116.62 27.7255 116.206 28.6212 116.136 28.759L113.651 27.4499C113.996 26.8298 115.308 24.0048 117.656 18.9751C120.003 13.9453 122.42 8.70877 124.905 3.19667H127.322C129.808 8.70877 132.224 14.0831 134.641 19.2507C136.989 24.3494 138.231 27.0365 138.37 27.2432ZM130.291 17.0458C129.67 15.53 128.91 13.9453 128.22 12.2916C127.46 10.638 126.701 8.91547 125.941 7.12404H125.872C125.251 8.50206 124.491 10.1557 123.594 12.1538C122.696 14.152 122.005 15.7367 121.384 16.9769L130.291 17.0458Z" fill="white"/>
<path d="M167.922 11.8782C167.922 13.6696 167.369 15.3233 166.196 16.7702C165.022 18.2171 163.503 19.1817 161.5 19.733C160.672 19.9397 159.774 20.1464 158.739 20.2153C157.772 20.2842 156.667 20.3531 155.424 20.3531L155.493 28.2078H152.455C152.455 27.4499 152.455 26.0719 152.524 24.0737C152.524 22.0756 152.593 18.975 152.593 14.7721C152.593 13.4629 152.593 11.8093 152.593 9.88007C152.593 7.95083 152.524 5.81489 152.524 3.40335C153.077 3.40335 153.56 3.40335 154.112 3.40335C154.596 3.40335 155.01 3.40335 155.355 3.40335C157.496 3.40335 159.291 3.54115 160.81 3.81676C162.329 4.09236 163.572 4.57467 164.608 5.19478C165.712 5.88379 166.61 6.77951 167.162 7.95083C167.577 9.05325 167.922 10.4313 167.922 11.8782ZM164.746 11.8782C164.746 10.638 164.469 9.53556 163.848 8.63984C163.296 7.74413 162.398 7.05512 161.155 6.50391C160.396 6.1594 159.636 5.9527 158.739 5.88379C157.841 5.81489 157.012 5.74599 156.046 5.74599C155.908 5.74599 155.839 5.74599 155.7 5.74599C155.562 5.74599 155.493 5.74599 155.355 5.74599C155.355 5.8838 155.355 6.77951 155.286 8.50204C155.286 10.2246 155.217 11.6026 155.217 12.5672C155.217 13.4629 155.217 14.5654 155.217 15.8056C155.217 17.0458 155.217 17.7348 155.217 17.9415C155.355 17.9415 155.424 17.9415 155.631 17.9415C155.839 17.9415 155.908 17.9415 155.977 17.9415C156.805 17.9415 157.703 17.8726 158.6 17.8037C159.498 17.7348 160.327 17.4592 161.017 17.1836C162.191 16.7013 163.088 16.0123 163.71 15.1166C164.469 14.3587 164.746 13.2562 164.746 11.8782Z" fill="white"/>
<path d="M192.986 26.7609L190.638 28.6901C190.362 28.4145 189.395 27.3121 187.738 25.4518C186.081 23.5914 183.526 20.6976 180.074 16.7702V16.6324C180.557 16.4946 181.179 16.219 181.938 15.8056C182.698 15.3922 183.388 14.9099 183.872 14.4965C184.355 14.0831 184.7 13.5319 185.045 12.9117C185.391 12.2916 185.529 11.4648 185.529 10.4313C185.529 9.46669 185.252 8.63987 184.769 7.95085C184.286 7.26184 183.595 6.77954 182.698 6.43503C182.007 6.15942 181.248 6.02162 180.419 5.95272C179.66 5.88382 178.9 5.88382 178.21 5.88382C177.795 5.88382 177.45 5.88382 177.174 5.88382C176.967 5.88382 176.76 5.88382 176.622 5.88382C176.622 8.22646 176.553 10.2935 176.553 12.0849C176.553 13.8764 176.553 15.1166 176.553 15.8745C176.553 17.597 176.553 19.8708 176.553 22.7646C176.553 25.6585 176.553 27.5188 176.622 28.2078H173.584C173.584 27.4499 173.584 26.003 173.653 23.9359C173.653 21.8 173.722 19.1818 173.722 16.0123C173.722 15.3922 173.722 14.2209 173.722 12.5672C173.722 10.9136 173.722 7.88195 173.653 3.47227C173.791 3.47227 174.412 3.47227 175.517 3.40337C176.622 3.40337 177.657 3.33447 178.624 3.33447C179.729 3.33447 180.764 3.40338 181.731 3.54118C182.698 3.67898 183.733 3.95458 184.7 4.36799C185.943 4.9192 186.91 5.67712 187.6 6.64173C188.291 7.67525 188.705 8.84657 188.705 10.1557C188.705 11.8782 188.152 13.3941 187.117 14.4965C186.081 15.5989 185.045 16.4946 184.079 17.1147V17.1836C185.805 19.1818 187.6 21.1799 189.671 23.3158C191.743 25.4518 192.848 26.5542 192.986 26.7609Z" fill="white"/>
<path d="M241.595 6.09052C241.387 6.09052 240.559 6.09052 239.178 6.09052C237.797 6.09052 236.071 6.09052 233.999 6.09052C233.102 6.09052 232.204 6.09052 231.445 6.09052C230.685 6.09052 229.995 6.09052 229.442 6.09052C229.442 7.46855 229.442 8.98437 229.373 10.638C229.304 12.2916 229.304 13.6697 229.304 14.9099C229.442 14.9099 229.857 14.9099 230.616 14.9099C231.307 14.9099 231.997 14.9099 232.618 14.9099C234.621 14.9099 236.554 14.9099 238.349 14.9099C240.145 14.9099 241.18 14.9099 241.318 14.9099V17.4592C241.111 17.4592 239.937 17.4592 237.866 17.4592C235.795 17.4592 233.999 17.4592 232.342 17.4592C231.859 17.4592 231.238 17.4592 230.547 17.4592C229.857 17.4592 229.442 17.4592 229.235 17.4592C229.235 19.6641 229.235 21.7311 229.235 23.6603C229.235 25.5896 229.235 27.1743 229.304 28.3456H226.266C226.266 27.5877 226.335 26.2786 226.335 24.4183C226.335 22.5579 226.335 19.8019 226.335 16.219C226.335 14.841 226.335 12.9806 226.335 10.7069C226.335 8.43316 226.266 6.09052 226.266 3.61008C227.164 3.61008 228.269 3.61008 229.58 3.61008C230.892 3.61008 232.273 3.61008 233.723 3.61008C235.864 3.61008 237.659 3.61008 239.109 3.61008C240.49 3.61008 241.318 3.61008 241.526 3.61008V6.09052H241.595Z" fill="white"/>
<path d="M251.123 28.2078H248.085C248.085 27.4499 248.085 26.1408 248.154 24.2804C248.154 22.3512 248.223 19.664 248.223 16.0812C248.223 14.7032 248.223 12.8428 248.223 10.5691C248.223 8.29533 248.154 5.95269 248.154 3.47224H251.192C251.192 5.26368 251.123 7.26181 251.123 9.60446C251.123 11.9471 251.123 13.8763 251.123 15.3233C251.123 19.0439 251.123 22.0067 251.192 24.0048C251.123 26.0719 251.123 27.4499 251.123 28.2078Z" fill="white"/>
<path d="M77.6775 14.0142C77.6775 14.0142 77.6775 14.2898 77.7466 14.7032C77.8156 15.1855 77.8847 15.8056 77.8847 16.7013C77.8156 17.1147 77.8156 17.597 77.7466 18.1483C77.6085 18.6306 77.6085 19.2507 77.4014 19.8019C77.1252 20.9732 76.5728 22.2823 75.6752 23.5226C74.8466 24.7628 73.7419 26.0719 72.2919 27.1054C70.8419 28.1389 69.1158 28.9657 67.2515 29.3792C66.7682 29.4481 66.2848 29.5859 65.8015 29.5859C65.3182 29.5859 64.9039 29.7237 64.3515 29.6548C63.8682 29.6548 63.3158 29.6548 62.8325 29.5859C62.3492 29.517 61.7968 29.4481 61.3135 29.3103C59.3111 28.8968 57.3778 28.0011 55.7207 26.692C54.0636 25.3829 52.7517 23.7293 51.8541 21.9378C50.9565 20.1464 50.4731 18.0793 50.4041 16.219C50.335 14.2898 50.7493 12.3605 51.3707 10.7758C51.9922 9.12219 52.9588 7.74417 53.9945 6.64175C55.0302 5.53933 56.135 4.64361 57.2397 4.0924C57.723 3.74789 58.2754 3.54119 58.7587 3.33448C59.2421 3.12778 59.7254 2.98998 60.1397 2.85218C60.9682 2.64547 61.6587 2.50767 62.142 2.50767C62.6254 2.43877 62.8325 2.43877 62.8325 2.43877C62.8325 2.43877 62.6254 2.50767 62.142 2.57657C61.9349 2.64547 61.6587 2.64547 61.3135 2.78327C60.9682 2.92108 60.623 2.98998 60.2778 3.12778C59.8635 3.33448 59.4492 3.47229 59.0349 3.74789C58.6206 4.0235 58.0683 4.2302 57.654 4.57471C56.6873 5.19482 55.7207 6.09053 54.8231 7.19295C53.9255 8.29537 53.1659 9.6045 52.6136 11.1203C52.0612 12.6362 51.8541 14.2898 51.9231 16.0123C51.9922 17.8037 52.4755 19.5263 53.304 21.111C54.1326 22.6957 55.3064 24.1427 56.7564 25.314C58.2064 26.4164 59.8635 27.2432 61.6587 27.6566C62.073 27.7944 62.5563 27.8633 62.9706 27.8633C63.3849 27.9322 63.8682 27.9322 64.2825 28.0011C64.6968 28.07 65.1801 28.0011 65.6634 27.9322C66.0777 27.9322 66.492 27.7944 66.9063 27.7944C68.6324 27.4499 70.2205 26.8298 71.5324 25.9341C72.8443 25.0384 74.0181 24.0049 74.8466 22.9024C75.6752 21.8 76.3657 20.6287 76.7109 19.5263C76.918 18.9751 77.0561 18.4239 77.1942 17.9415C77.3323 17.4592 77.4014 16.9769 77.4704 16.5635C77.5395 16.1501 77.5395 15.7367 77.5395 15.4611C77.6085 15.1166 77.5395 14.841 77.5395 14.6343C77.6776 14.2898 77.6775 14.0142 77.6775 14.0142Z" fill="url(#paint0_linear_151_4)"/>
<path d="M76.5727 16.0123C76.5727 16.0123 76.5727 16.1501 76.5727 16.3568C76.5727 16.6324 76.5727 16.9769 76.4346 17.3903C76.3655 17.8726 76.2274 18.4238 76.0203 19.044C75.8822 19.3196 75.8132 19.6641 75.6751 20.0086C75.537 20.3531 75.3989 20.6976 75.1917 21.0421C74.7775 21.7311 74.2941 22.489 73.6727 23.178C73.0513 23.867 72.3608 24.5561 71.4632 25.1073C70.6347 25.6585 69.668 26.2097 68.6323 26.5542C67.5966 26.8987 66.5609 27.1743 65.4561 27.1743C64.9728 27.2432 64.3514 27.1743 63.799 27.1743C63.2466 27.1054 62.6943 27.1054 62.2109 26.9676C61.1752 26.7609 60.1395 26.3475 59.2419 25.9341C58.3443 25.4518 57.5158 24.9006 56.8253 24.2804C56.4801 24.0048 56.1348 23.6603 55.8586 23.3158C55.5825 22.9713 55.3063 22.6957 55.0301 22.3512C54.5468 21.7311 54.2015 21.0421 53.9253 20.4909C53.7872 20.2153 53.6491 19.9397 53.5801 19.6641C53.5111 19.3885 53.442 19.1818 53.3039 18.9061C53.1658 18.4927 53.0968 18.0793 53.0277 17.8726C52.9587 17.6659 52.9587 17.5281 52.9587 17.5281C52.9587 17.5281 53.0277 17.6659 53.0968 17.8726C53.1658 18.0793 53.3039 18.4238 53.5111 18.8372C53.5801 19.044 53.7182 19.2507 53.8563 19.5263C53.9944 19.733 54.1325 20.0086 54.2706 20.2842C54.6158 20.8354 55.0301 21.3866 55.5134 21.9378C55.7206 22.2134 56.0658 22.489 56.342 22.7646C56.6872 23.0402 56.9634 23.3158 57.3086 23.5914C57.9991 24.1426 58.7586 24.625 59.6562 24.9695C60.5538 25.3829 61.4514 25.6585 62.4181 25.8652C62.9014 26.003 63.3847 26.003 63.8681 26.0719C64.3514 26.0719 64.8347 26.1408 65.3871 26.0719C66.4228 26.003 67.3895 25.7963 68.3561 25.5207C69.3228 25.2451 70.1513 24.7628 70.9799 24.2804C71.8084 23.7981 72.4989 23.178 73.1203 22.5579C73.7418 21.9378 74.2251 21.3177 74.6394 20.6287C74.8465 20.2842 74.9846 20.0086 75.1917 19.6641C75.3298 19.3885 75.4679 19.044 75.606 18.7683C75.8132 18.2171 76.0203 17.6659 76.1584 17.2525C76.2965 16.8391 76.3655 16.4946 76.4346 16.219C76.5727 16.1501 76.5727 16.0123 76.5727 16.0123Z" fill="white"/>
<path d="M59.3801 25.5207V20.2153H62.3491V26.5542L59.3801 25.5207Z" fill="white"/>
<path d="M63.7991 26.7609V17.7348H66.6991V26.6231L63.7991 26.7609Z" fill="white"/>
<path d="M68.2872 26.2097V15.0477H71.049V24.9006L68.2872 26.2097Z" fill="white"/>
<path d="M261.825 25.314C261.549 24.1427 261.204 23.2469 260.928 22.6268C260.651 22.0067 260.444 21.7311 260.444 21.7311C260.444 21.6622 260.375 21.6622 260.306 21.7311C260.237 21.7311 260.237 21.8 260.306 21.8689C260.306 21.8689 260.513 22.1445 260.72 22.7646C260.997 23.3847 261.273 24.2116 261.549 25.4518C261.687 26.0719 261.756 26.692 261.687 27.381C261.618 27.7255 261.549 28.07 261.411 28.4145C261.204 28.6901 260.928 28.9658 260.651 29.1036C259.961 29.4481 259.132 29.0347 258.442 28.4834C258.097 28.2078 257.751 27.8633 257.475 27.4499C257.337 27.2432 257.199 27.0365 257.061 26.8298C256.923 26.6231 256.716 26.4164 256.578 26.2097C256.37 26.003 256.163 25.7963 255.956 25.6585C255.749 25.4518 255.473 25.314 255.128 25.2451C254.782 25.1762 254.299 25.2451 254.092 25.5896L253.954 25.7963L253.816 26.003L253.747 26.1408C253.678 26.2786 253.747 26.2097 253.678 26.2786C253.678 26.3475 253.609 26.4164 253.609 26.4853C253.54 27.2432 253.816 27.7944 254.092 28.3456C254.368 28.8969 254.782 29.3792 255.128 29.8615C255.887 30.7572 256.509 31.7907 257.13 32.8242C257.406 33.3754 257.682 33.9266 257.82 34.4779C258.028 35.0291 258.166 35.6492 258.166 36.2004C258.166 37.3717 257.751 38.6119 256.785 39.232C255.956 39.8521 254.575 39.5765 253.609 38.9564C253.056 38.6119 252.504 38.1985 252.021 37.7162C251.951 37.7851 251.951 37.854 251.882 37.9229C251.744 38.1296 251.675 38.3363 251.468 38.543C251.399 38.6119 251.33 38.6808 251.261 38.7497C251.744 39.1631 252.297 39.6454 252.918 39.99C253.609 40.4034 254.299 40.6101 255.059 40.7479C255.818 40.8168 256.647 40.679 257.337 40.1967C257.959 39.7143 258.442 39.0942 258.718 38.4052C258.994 37.7162 259.132 37.0272 259.063 36.2693C258.994 35.5114 258.856 34.8913 258.649 34.2711C258.442 33.651 258.166 33.0309 257.82 32.4797C257.199 31.3773 256.44 30.3438 255.68 29.4481C255.335 28.9658 254.92 28.5523 254.644 28.07C254.506 27.8633 254.368 27.5877 254.299 27.381C254.23 27.1743 254.161 26.8987 254.161 26.7609C254.161 26.692 254.161 26.6231 254.23 26.5542C254.23 26.5542 254.23 26.4164 254.23 26.4853L254.299 26.4164L254.368 26.2786L254.437 26.1408C254.575 26.003 254.644 26.003 254.851 26.003C255.266 26.0719 255.68 26.4164 255.956 26.7609C256.094 26.9676 256.301 27.1054 256.44 27.3121C256.578 27.5188 256.716 27.7255 256.854 27.9322C257.199 28.3456 257.544 28.6901 257.959 29.0347C258.373 29.3103 258.787 29.5859 259.27 29.7237C259.478 29.7926 259.754 29.8615 259.961 29.8615C260.168 29.8615 260.513 29.7926 260.651 29.7237C261.066 29.517 261.411 29.1725 261.618 28.759C261.825 28.3456 261.894 28.0011 261.894 27.5877C262.101 26.6231 261.963 25.9341 261.825 25.314Z" fill="url(#paint1_linear_151_4)"/>
<path d="M236.416 32.273C237.314 32.0663 238.211 31.9974 239.178 32.0663C241.733 32.2041 244.218 33.3065 246.497 34.6845C246.773 34.8912 247.049 35.029 247.325 35.2357C247.602 35.4425 247.947 35.6492 248.154 35.8559C248.706 36.2693 249.19 36.6827 249.673 37.165C249.949 37.3717 250.156 37.6473 250.432 37.854C250.709 37.5095 250.985 37.165 251.123 36.7516C250.916 36.5449 250.778 36.4071 250.571 36.2004C250.087 35.7181 249.535 35.2357 248.982 34.7534C248.706 34.4778 248.43 34.34 248.154 34.1333C247.878 33.9266 247.602 33.7199 247.256 33.5132C244.909 31.9285 242.216 30.6883 239.247 30.4127C237.797 30.2749 236.278 30.4127 234.966 30.895C234.759 30.9639 234.621 31.0328 234.483 31.1017C234.897 31.3084 235.311 31.5151 235.656 31.7907C236.002 31.9285 236.209 32.1352 236.416 32.273Z" fill="url(#paint2_linear_151_4)"/>
<path d="M213.147 34.4778C211.697 33.7888 210.592 32.8242 209.833 31.9285C209.143 30.9639 208.728 30.137 208.452 29.5858C208.245 28.9657 208.107 28.6901 208.107 28.6901C208.107 28.6212 208.038 28.6212 208.038 28.6212C207.969 28.6212 207.969 28.6901 207.969 28.6901C207.969 28.6901 208.038 29.0346 208.176 29.6547C208.314 30.2748 208.659 31.2395 209.35 32.273C210.04 33.3065 211.145 34.4778 212.664 35.3735C212.871 35.5113 213.078 35.5802 213.354 35.718C213.907 35.5802 214.39 35.3735 214.942 35.2357C214.252 34.9601 213.631 34.7534 213.147 34.4778Z" fill="url(#paint3_linear_151_4)"/>
<path d="M231.237 32.6175C228.959 33.9266 226.888 35.2357 224.747 35.7181L224.333 35.787C224.264 35.787 224.057 35.8559 223.919 35.8559C223.642 35.9248 223.366 35.9248 223.021 35.9937C222.469 36.0626 221.916 36.1315 221.433 36.1315C220.328 36.2004 219.292 36.1315 218.326 35.9937C217.704 35.9248 217.152 35.8559 216.6 35.7181C215.909 35.9248 215.219 36.2004 214.528 36.3382C215.633 36.7516 216.807 37.165 218.119 37.3717C219.154 37.5095 220.328 37.6473 221.433 37.6473C221.985 37.6473 222.607 37.6473 223.228 37.5784C223.504 37.5784 223.78 37.5095 224.126 37.5095L224.609 37.4406L225.092 37.3717C227.647 36.8894 229.926 35.4424 232.135 34.2022C232.964 33.7199 233.861 33.2376 234.759 32.8931C234.068 32.4797 233.378 32.1352 232.687 31.9285C232.204 32.0663 231.721 32.3419 231.237 32.6175Z" fill="url(#paint4_linear_151_4)"/>
<path d="M252.228 37.165C252.987 35.3736 252.987 33.4443 252.573 31.7218C252.228 29.9304 251.468 28.2767 250.502 26.7609C250.018 26.003 249.466 25.3829 248.983 24.6939C248.499 24.0048 248.016 23.3158 247.74 22.6268C247.602 22.2823 247.464 21.8689 247.394 21.5244C247.325 21.1799 247.464 20.9043 247.602 20.7665L247.74 20.6976C247.74 20.6976 247.809 20.6976 247.878 20.6976C247.947 20.6976 248.085 20.7665 248.154 20.7665V19.9397C248.085 19.9397 248.016 19.9397 247.947 19.8708C247.809 19.8708 247.671 19.8708 247.464 19.9397C247.394 19.9397 247.325 20.0086 247.187 20.0775L247.049 20.1464C246.497 20.5598 246.428 21.1799 246.497 21.6622C246.566 22.1445 246.704 22.5579 246.911 22.9713C247.602 24.5561 248.775 25.9341 249.742 27.3121C250.64 28.6901 251.261 30.2749 251.606 31.9285C251.813 32.7553 251.813 33.5821 251.813 34.4089C251.744 34.8223 251.744 35.2358 251.606 35.5803C251.537 35.787 251.537 35.9937 251.468 36.1315L251.261 36.6827V36.7516C251.537 37.0272 251.813 37.3028 252.09 37.5784C252.159 37.4406 252.228 37.3028 252.228 37.165Z" fill="url(#paint5_linear_151_4)"/>
<path d="M251.33 21.2488C251.399 21.111 251.537 21.0421 251.606 20.9043C251.675 20.7665 251.744 20.6287 251.744 20.4909L251.813 20.2153C251.882 19.6641 251.675 19.1818 251.468 18.8373C251.261 18.4238 250.916 18.1482 250.64 17.8726C249.535 16.7013 248.223 15.8056 247.325 14.7032C246.911 14.152 246.566 13.463 246.842 13.0495C247.049 12.6361 247.532 12.4294 248.085 12.2227V11.6026C247.809 11.6715 247.532 11.8093 247.256 11.8782C246.911 12.016 246.566 12.2916 246.29 12.705C246.082 13.1184 246.082 13.6697 246.221 14.0142C246.359 14.4276 246.566 14.7721 246.842 15.0477C247.809 16.2879 249.051 17.2525 250.087 18.3549C250.363 18.6306 250.571 18.9062 250.778 19.2507C250.985 19.5263 251.054 19.8708 250.985 20.1464L250.916 20.422C250.916 20.4909 250.916 20.4909 250.847 20.5598V21.5244C251.123 21.3866 251.261 21.3177 251.33 21.2488Z" fill="url(#paint6_linear_151_4)"/>
<path d="M248.085 6.84843C249.121 7.05514 250.294 7.19294 251.261 7.74415C251.744 8.01976 252.159 8.43316 252.366 8.98437C252.573 9.53558 252.573 10.1557 252.159 10.5002C251.882 10.7758 251.468 10.8447 250.985 10.9825V11.4648C251.192 11.3959 251.33 11.3959 251.537 11.327C251.882 11.2581 252.228 11.1203 252.504 10.7758C252.78 10.5002 252.918 10.0868 252.918 9.74229C252.918 9.39778 252.849 9.05328 252.711 8.70877C252.435 8.08866 251.951 7.60635 251.399 7.26184C250.294 6.64173 249.121 6.64173 248.085 6.43503C247.049 6.22832 246.152 5.81491 245.599 5.1259C245.323 4.7814 245.185 4.36799 245.185 4.02348C245.185 3.61007 245.254 3.26557 245.461 2.92106C245.806 2.30095 246.359 1.81864 246.911 1.61194C247.463 1.33633 247.947 1.26743 248.292 1.12963C249.121 0.991829 249.535 0.922926 249.535 0.922926C249.604 0.922926 249.604 0.854026 249.604 0.854026C249.604 0.785125 249.535 0.785126 249.535 0.785126C249.535 0.785126 249.121 0.854024 248.292 0.991826C247.878 1.06073 247.394 1.19853 246.842 1.47414C246.29 1.74974 245.668 2.16315 245.323 2.85216C245.116 3.19667 244.978 3.61007 244.978 4.09238C244.978 4.57469 245.116 4.9881 245.461 5.40151C246.013 6.15942 246.98 6.64173 248.085 6.84843Z" fill="url(#paint7_linear_151_4)"/>
<path d="M247.67 39.5765C246.22 40.0588 244.632 39.3698 243.32 38.4741C242.63 37.9918 242.009 37.4406 241.456 36.8894C240.835 36.2693 240.213 35.7181 239.661 35.1669C238.625 34.2022 237.659 33.2376 236.554 32.3419C236.278 32.4108 235.932 32.4797 235.656 32.6175C235.38 32.6864 235.173 32.8242 234.897 32.8931C234.966 32.962 235.035 32.962 235.104 33.0309C236.416 33.8577 237.59 35.0291 238.832 36.2004C239.454 36.7516 240.075 37.3717 240.697 37.9229C241.318 38.543 242.009 39.0942 242.768 39.5765C243.528 40.0588 244.356 40.5412 245.254 40.7479C245.737 40.8857 246.22 40.9546 246.704 40.9546C246.911 40.9546 247.256 40.9546 247.463 40.8857L247.809 40.8168C248.016 40.7479 248.016 40.7479 248.154 40.679C248.568 40.5412 249.051 40.4034 249.466 40.1966L250.087 39.8521C250.294 39.7143 250.501 39.5765 250.639 39.4387C250.985 39.232 251.261 38.8875 251.468 38.6119C251.192 38.3363 250.916 38.1296 250.639 37.854C249.811 38.6808 248.775 39.232 247.67 39.5765Z" fill="url(#paint8_linear_151_4)"/>
<path d="M218.602 34.9601C219.845 34.4778 221.088 33.9955 222.399 33.4443C223.711 32.8931 225.092 32.3419 226.404 31.9285C226.542 31.8596 226.749 31.8596 226.888 31.7907H227.026H227.164L227.44 31.7218C227.785 31.6529 228.199 31.584 228.545 31.584C229.304 31.5151 229.995 31.5151 230.754 31.5151C231.376 31.584 232.066 31.6529 232.687 31.8596C233.309 31.584 233.93 31.3084 234.552 31.1017C234.206 30.895 233.792 30.7572 233.378 30.6194C232.964 30.4816 232.549 30.3438 232.135 30.2749C231.721 30.206 231.306 30.1371 230.892 30.1371C230.064 30.0682 229.235 30.1371 228.407 30.206C227.992 30.206 227.647 30.3438 227.233 30.4127L226.957 30.4816C226.888 30.4816 226.888 30.4816 226.818 30.4816H226.68C226.473 30.5505 226.335 30.5505 226.128 30.6194C224.609 31.1017 223.297 31.7218 221.985 32.273C220.673 32.8242 219.43 33.3754 218.257 33.9266C217.152 34.4089 216.047 34.8223 215.011 35.1668C215.564 35.3736 216.116 35.5114 216.738 35.6492C217.29 35.4425 217.911 35.2358 218.602 34.9601Z" fill="url(#paint9_linear_151_4)"/>
<path d="M211.49 36.1315C210.454 36.3382 209.488 36.4071 208.659 36.2004C207.831 36.0626 207.071 35.6492 206.657 35.0979C206.519 34.9601 206.45 34.8223 206.381 34.6845C206.311 34.5467 206.242 34.4089 206.173 34.2711C206.035 33.9955 205.966 33.651 205.897 33.3754C205.828 32.8242 205.897 32.3419 206.035 31.9285C206.173 31.5151 206.311 31.3084 206.381 31.1017C206.519 30.895 206.588 30.8261 206.588 30.8261V30.7572H206.519C206.519 30.7572 206.45 30.8261 206.311 31.0328C206.173 31.2395 206.035 31.4462 205.828 31.8596C205.69 32.273 205.552 32.7553 205.621 33.3754C205.621 33.7199 205.69 33.9955 205.828 34.34C205.897 34.5467 205.966 34.6845 206.035 34.8223C206.104 35.029 206.173 35.1669 206.311 35.3047C206.795 35.9937 207.623 36.5449 208.59 36.7516C209.557 36.9583 210.592 36.9583 211.697 36.8205C212.664 36.6827 213.63 36.476 214.666 36.2004C214.252 35.9937 213.769 35.8559 213.423 35.6492C212.664 35.8559 212.042 36.0626 211.49 36.1315Z" fill="url(#paint10_linear_151_4)"/>
<path d="M214.942 35.1668C214.39 35.3735 213.838 35.5113 213.354 35.6492C213.768 35.8559 214.183 36.0626 214.597 36.2004C215.288 35.9937 215.978 35.787 216.668 35.5803C216.047 35.5114 215.495 35.3735 214.942 35.1668Z" fill="url(#paint11_linear_151_4)"/>
<path d="M214.942 35.1668C214.39 35.3735 213.838 35.5113 213.354 35.6492C213.768 35.8559 214.183 36.0626 214.597 36.2004C215.288 35.9937 215.978 35.787 216.668 35.5803C216.047 35.5114 215.495 35.3735 214.942 35.1668Z" fill="url(#paint12_linear_151_4)"/>
<path d="M251.951 37.7851C252.02 37.7162 252.02 37.6473 252.089 37.5784C251.813 37.3028 251.537 37.0272 251.261 36.7516C251.054 37.165 250.847 37.5095 250.57 37.854C250.847 38.1296 251.123 38.3363 251.399 38.6119C251.468 38.543 251.537 38.4741 251.606 38.4052C251.675 38.1985 251.813 37.9918 251.951 37.7851Z" fill="url(#paint13_linear_151_4)"/>
<path d="M251.951 37.7851C252.02 37.7162 252.02 37.6473 252.089 37.5784C251.813 37.3028 251.537 37.0272 251.261 36.7516C251.054 37.165 250.847 37.5095 250.57 37.854C250.847 38.1296 251.123 38.3363 251.399 38.6119C251.468 38.543 251.537 38.4741 251.606 38.4052C251.675 38.1985 251.813 37.9918 251.951 37.7851Z" fill="url(#paint14_linear_151_4)"/>
<path d="M236.416 32.273C236.209 32.0663 235.932 31.9285 235.656 31.7218C235.311 31.4462 234.897 31.2395 234.483 31.0328C233.792 31.2395 233.171 31.5151 232.618 31.7907C233.378 31.9974 234.068 32.3419 234.69 32.7553C234.966 32.6175 235.173 32.5486 235.449 32.4797C235.794 32.4797 236.14 32.3419 236.416 32.273Z" fill="url(#paint15_linear_151_4)"/>
<path d="M236.416 32.273C236.209 32.0663 235.932 31.9285 235.656 31.7218C235.311 31.4462 234.897 31.2395 234.483 31.0328C233.792 31.2395 233.171 31.5151 232.618 31.7907C233.378 31.9974 234.068 32.3419 234.69 32.7553C234.966 32.6175 235.173 32.5486 235.449 32.4797C235.794 32.4797 236.14 32.3419 236.416 32.273Z" fill="url(#paint16_linear_151_4)"/>
<path d="M208.659 28.6901C208.659 28.6901 208.383 28.6901 207.969 28.759C207.486 28.8279 206.864 28.8279 205.966 28.759C205.552 28.6901 205.069 28.6212 204.516 28.5523C204.033 28.4145 203.412 28.3456 202.859 28.07C201.686 27.7255 200.443 27.0365 199.2 26.1408C197.957 25.2451 196.783 24.0737 195.817 22.5579C194.85 21.0421 194.159 19.3196 193.883 17.3903C193.814 16.908 193.745 16.4257 193.745 15.9434C193.745 15.4611 193.676 15.0477 193.745 14.4965C193.814 14.0142 193.814 13.4629 193.883 12.9806C193.952 12.4983 194.09 11.9471 194.229 11.4648C194.781 9.46668 195.817 7.60634 197.128 6.09051C198.509 4.57468 200.236 3.33446 202.169 2.50765C204.033 1.68083 206.105 1.33632 207.969 1.40523C209.902 1.47413 211.766 1.95644 213.354 2.71435C214.943 3.47226 216.323 4.50579 217.359 5.60821C218.395 6.71063 219.223 7.88194 219.707 8.98436C219.983 9.53557 220.19 10.0868 220.328 10.5691C220.466 11.0514 220.604 11.5337 220.742 11.9471C220.881 12.7739 220.95 13.4629 220.95 13.9453C220.95 14.4276 220.95 14.6343 220.95 14.6343C220.95 14.6343 220.881 14.4276 220.812 13.9453C220.742 13.7386 220.742 13.4629 220.673 13.1184C220.604 12.7739 220.466 12.4294 220.397 12.016C220.259 11.6026 220.052 11.1892 219.914 10.7069C219.638 10.2935 219.5 9.74228 219.154 9.25997C218.602 8.22645 217.704 7.26184 216.669 6.29722C215.633 5.3326 214.321 4.50579 212.871 3.88567C211.421 3.26556 209.695 2.92106 208.038 2.92106C206.243 2.92106 204.516 3.26556 202.859 4.02347C201.202 4.71249 199.683 5.81491 198.509 7.19293C197.267 8.57096 196.369 10.2246 195.886 11.9471C195.748 12.3605 195.679 12.8428 195.54 13.2562C195.402 13.6697 195.402 14.152 195.333 14.5654C195.264 14.9788 195.333 15.4611 195.264 15.9434C195.264 16.3568 195.333 16.7702 195.333 17.2525C195.54 18.975 196.093 20.5598 196.921 21.9378C197.681 23.3158 198.717 24.4871 199.821 25.3829C200.926 26.2786 202.031 27.0365 203.067 27.4499C203.619 27.7255 204.102 27.8633 204.586 28.0011C205.069 28.1389 205.552 28.2078 205.966 28.3456C206.381 28.4145 206.726 28.4834 207.071 28.4834C207.416 28.5523 207.693 28.5523 207.9 28.5523C208.452 28.6212 208.659 28.6901 208.659 28.6901Z" fill="url(#paint17_linear_151_4)"/>
<path d="M196.507 14.2898C196.507 14.2898 196.507 14.152 196.576 13.9453C196.645 13.6697 196.645 13.3252 196.783 12.9118C196.852 12.4295 197.059 11.9471 197.267 11.327C197.405 11.0514 197.543 10.7069 197.681 10.3624C197.888 10.0179 198.026 9.6734 198.233 9.3978C198.648 8.70879 199.2 8.01977 199.89 7.39966C200.581 6.77955 201.34 6.15944 202.238 5.67713C203.136 5.19482 204.102 4.71251 205.138 4.50581C206.174 4.2302 207.278 4.0924 208.383 4.0924C208.866 4.0924 209.488 4.1613 210.04 4.23021C210.593 4.36801 211.145 4.43691 211.628 4.57471C212.664 4.85032 213.631 5.33262 214.528 5.81493C215.426 6.36614 216.185 6.98625 216.807 7.60636C217.152 7.95087 217.428 8.29537 217.704 8.63988C217.981 8.98439 218.188 9.32889 218.395 9.6734C218.809 10.3624 219.154 11.0514 219.362 11.6026C219.5 11.8782 219.569 12.2227 219.638 12.4294C219.707 12.7051 219.776 12.9807 219.845 13.1874C219.983 13.6008 219.983 14.0142 220.052 14.2209C220.052 14.4965 220.121 14.5654 220.121 14.5654C220.121 14.5654 220.052 14.4276 219.983 14.2209C219.914 14.0142 219.845 13.6008 219.638 13.1874C219.569 12.9807 219.5 12.7051 219.362 12.4984C219.223 12.2227 219.085 12.016 219.016 11.6715C218.74 11.1203 218.326 10.5002 217.912 9.88011C217.704 9.5356 217.428 9.25999 217.152 8.98439C216.876 8.70878 216.6 8.36428 216.254 8.08867C215.633 7.53746 214.874 6.98625 214.045 6.50394C213.216 6.09054 212.319 5.67713 211.352 5.40152C210.869 5.26372 210.386 5.19482 209.902 5.12592C209.419 5.05702 208.936 4.98812 208.383 5.05702C207.347 4.98812 206.381 5.12592 205.414 5.40152C204.447 5.60823 203.55 5.95273 202.721 6.43504C201.893 6.84845 201.133 7.39966 200.443 7.95087C199.752 8.50208 199.2 9.12219 198.717 9.7423C198.44 10.0179 198.302 10.3624 198.095 10.638C197.888 10.9136 197.75 11.2581 197.612 11.4648C197.336 12.016 197.059 12.4984 196.921 12.9807C196.783 13.3941 196.645 13.7386 196.576 14.0142C196.576 14.152 196.507 14.2898 196.507 14.2898Z" fill="white"/>
<defs>
<linearGradient id="paint0_linear_151_4" x1="50.4151" y1="16.0814" x2="77.8764" y2="16.0814" gradientUnits="userSpaceOnUse">
<stop stop-color="#6190E8"/>
<stop offset="1" stop-color="#A7BFE8" stop-opacity="0"/>
</linearGradient>
<linearGradient id="paint1_linear_151_4" x1="197.111" y1="30.3019" x2="273.359" y2="31.3632" gradientUnits="userSpaceOnUse">
<stop stop-color="#6190E8"/>
<stop offset="1" stop-color="#A7BFE8" stop-opacity="0"/>
</linearGradient>
<linearGradient id="paint2_linear_151_4" x1="197.066" y1="33.4741" x2="273.315" y2="34.5354" gradientUnits="userSpaceOnUse">
<stop stop-color="#6190E8"/>
<stop offset="1" stop-color="#A7BFE8" stop-opacity="0"/>
</linearGradient>
<linearGradient id="paint3_linear_151_4" x1="197.088" y1="31.9352" x2="273.336" y2="32.9964" gradientUnits="userSpaceOnUse">
<stop stop-color="#6190E8"/>
<stop offset="1" stop-color="#A7BFE8" stop-opacity="0"/>
</linearGradient>
<linearGradient id="paint4_linear_151_4" x1="197.055" y1="34.3121" x2="273.303" y2="35.3733" gradientUnits="userSpaceOnUse">
<stop stop-color="#6190E8"/>
<stop offset="1" stop-color="#A7BFE8" stop-opacity="0"/>
</linearGradient>
<linearGradient id="paint5_linear_151_4" x1="197.143" y1="28.0038" x2="273.391" y2="29.065" gradientUnits="userSpaceOnUse">
<stop stop-color="#6190E8"/>
<stop offset="1" stop-color="#A7BFE8" stop-opacity="0"/>
</linearGradient>
<linearGradient id="paint6_linear_151_4" x1="197.313" y1="15.7726" x2="273.561" y2="16.8339" gradientUnits="userSpaceOnUse">
<stop stop-color="#6190E8"/>
<stop offset="1" stop-color="#A7BFE8" stop-opacity="0"/>
</linearGradient>
<linearGradient id="paint7_linear_151_4" x1="197.457" y1="5.44375" x2="273.705" y2="6.50502" gradientUnits="userSpaceOnUse">
<stop stop-color="#6190E8"/>
<stop offset="1" stop-color="#A7BFE8" stop-opacity="0"/>
</linearGradient>
<linearGradient id="paint8_linear_151_4" x1="197.031" y1="35.9934" x2="273.279" y2="37.0547" gradientUnits="userSpaceOnUse">
<stop stop-color="#6190E8"/>
<stop offset="1" stop-color="#A7BFE8" stop-opacity="0"/>
</linearGradient>
<linearGradient id="paint9_linear_151_4" x1="197.08" y1="32.5097" x2="273.328" y2="33.571" gradientUnits="userSpaceOnUse">
<stop stop-color="#6190E8"/>
<stop offset="1" stop-color="#A7BFE8" stop-opacity="0"/>
</linearGradient>
<linearGradient id="paint10_linear_151_4" x1="197.063" y1="33.7479" x2="273.311" y2="34.8092" gradientUnits="userSpaceOnUse">
<stop stop-color="#6190E8"/>
<stop offset="1" stop-color="#A7BFE8" stop-opacity="0"/>
</linearGradient>
<linearGradient id="paint11_linear_151_4" x1="197.038" y1="35.4961" x2="273.286" y2="36.5574" gradientUnits="userSpaceOnUse">
<stop stop-color="#6190E8"/>
<stop offset="1" stop-color="#A7BFE8" stop-opacity="0"/>
</linearGradient>
<linearGradient id="paint12_linear_151_4" x1="197.038" y1="35.4961" x2="273.286" y2="36.5574" gradientUnits="userSpaceOnUse">
<stop stop-color="#6190E8"/>
<stop offset="1" stop-color="#A7BFE8" stop-opacity="0"/>
</linearGradient>
<linearGradient id="paint13_linear_151_4" x1="197.018" y1="36.9444" x2="273.266" y2="38.0056" gradientUnits="userSpaceOnUse">
<stop stop-color="#6190E8"/>
<stop offset="1" stop-color="#A7BFE8" stop-opacity="0"/>
</linearGradient>
<linearGradient id="paint14_linear_151_4" x1="197.018" y1="36.9444" x2="273.266" y2="38.0056" gradientUnits="userSpaceOnUse">
<stop stop-color="#6190E8"/>
<stop offset="1" stop-color="#A7BFE8" stop-opacity="0"/>
</linearGradient>
<linearGradient id="paint15_linear_151_4" x1="197.095" y1="31.4406" x2="273.343" y2="32.5019" gradientUnits="userSpaceOnUse">
<stop stop-color="#6190E8"/>
<stop offset="1" stop-color="#A7BFE8" stop-opacity="0"/>
</linearGradient>
<linearGradient id="paint16_linear_151_4" x1="197.095" y1="31.4406" x2="273.343" y2="32.5019" gradientUnits="userSpaceOnUse">
<stop stop-color="#6190E8"/>
<stop offset="1" stop-color="#A7BFE8" stop-opacity="0"/>
</linearGradient>
<linearGradient id="paint17_linear_151_4" x1="193.761" y1="15.0803" x2="221.108" y2="15.0803" gradientUnits="userSpaceOnUse">
<stop stop-color="#6190E8"/>
<stop offset="1" stop-color="#A7BFE8" stop-opacity="0"/>
</linearGradient>
</defs>
</svg>
