<svg width="232" height="37" viewBox="0 0 232 37" fill="none" xmlns="http://www.w3.org/2000/svg">
<g clip-path="url(#clip0_1_1566)">
<path d="M21.8188 23.1173L19.2518 24.4452C19.1907 24.3245 18.8851 23.5398 18.2129 22.0309C17.5406 20.5219 16.6849 18.6508 15.5848 16.2968H5.92834C4.76712 18.8318 3.91149 20.7633 3.2392 22.1516C2.62803 23.5398 2.26133 24.3245 2.20021 24.4452L0 23.238C0.305585 22.6948 1.46681 20.2201 3.54478 15.8139C5.62276 11.4077 7.76185 6.82041 9.96206 1.9917H12.1012C14.3014 6.82041 16.4405 11.5284 18.5796 16.0553C20.6575 20.5219 21.7576 22.8759 21.8188 23.1173ZM14.6681 14.1238C14.118 12.7959 13.4457 11.4077 12.8346 9.95907C12.1623 8.51046 11.49 7.00149 10.8177 5.43216H10.7566C10.2065 6.63933 9.53425 8.08795 8.73973 9.83836C7.9452 11.5888 7.33403 12.977 6.78398 14.0635L14.6681 14.1238Z" fill="#0D47A1"/>
<path d="M42.7819 22.6343L40.7039 24.3244C40.4595 24.0829 39.6038 23.1172 38.137 21.4875C36.6702 19.8578 34.4089 17.3227 31.353 13.8823V13.7616C31.7808 13.6409 32.3309 13.3994 33.0032 13.0373C33.6755 12.6751 34.2866 12.2526 34.7145 11.8904C35.1423 11.5283 35.4479 11.0454 35.7534 10.5022C36.059 9.95896 36.1813 9.23465 36.1813 8.32927C36.1813 7.48425 35.9368 6.75994 35.509 6.15635C35.0812 5.55276 34.47 5.13025 33.6755 4.82845C33.0643 4.58702 32.392 4.4663 31.6586 4.40594C30.9863 4.34558 30.314 4.34558 29.7029 4.34558C29.3362 4.34558 29.0306 4.34558 28.7861 4.34558C28.6028 4.34558 28.4194 4.34558 28.2972 4.34558C28.2972 6.39779 28.2361 8.20855 28.2361 9.77788C28.2361 11.3472 28.2361 12.4337 28.2361 13.0976C28.2361 14.6066 28.2361 16.5984 28.2361 19.1335C28.2361 21.6686 28.2361 23.2983 28.2972 23.9019H25.608C25.608 23.2379 25.608 21.9704 25.6691 20.1596C25.6691 18.2885 25.7303 15.9949 25.7303 13.2183C25.7303 12.6751 25.7303 11.649 25.7303 10.2004C25.7303 8.75178 25.7303 6.09599 25.6691 2.23302C25.7914 2.23302 26.3414 2.23302 27.3193 2.17266C28.2972 2.17266 29.2139 2.1123 30.0696 2.1123C31.0474 2.1123 31.9642 2.17266 32.8198 2.29338C33.6755 2.4141 34.5922 2.65553 35.4479 3.01769C36.548 3.50056 37.4036 4.16451 38.0148 5.00953C38.6259 5.91492 38.9926 6.94102 38.9926 8.08783C38.9926 9.59681 38.5037 10.9247 37.587 11.8904C36.6702 12.8562 35.7534 13.6409 34.8978 14.1841V14.2444C36.4257 15.9949 38.0148 17.7453 39.8483 19.6164C41.6818 21.5479 42.6597 22.5136 42.7819 22.6343Z" fill="#0D47A1"/>
<path d="M98.8872 23.6604L96.1981 24.2037L92.8366 6.03563C92.4088 6.94102 91.4921 8.93286 90.0252 12.1319C88.5584 15.3309 87.1527 18.5299 85.7471 21.7289H83.4857C82.2023 18.7714 80.7355 15.5723 79.1464 12.0715C77.5574 8.57071 76.6406 6.57886 76.3962 6.03563H76.335C76.2739 6.33743 75.8461 8.38963 74.9905 12.2526C74.1959 16.1156 73.4014 20.0993 72.668 24.2037L70.1622 23.7208C71.2623 19.0732 72.3013 14.4255 73.2181 9.8986C74.196 5.31133 74.6849 2.83661 74.8071 2.47446L77.4351 2.1123C77.5574 2.35374 78.2908 4.10415 79.7576 7.30317C81.2244 10.5626 82.8746 14.2444 84.8303 18.4696H84.9525C86.4193 15.1498 88.0084 11.649 89.6585 7.90676C91.3087 4.16451 92.1643 2.23302 92.2255 2.1123L94.7313 2.29338C94.7924 2.53482 95.2202 4.88881 96.0758 9.41573C96.8703 13.8219 97.8482 18.5903 98.8872 23.6604Z" fill="#0D47A1"/>
<path d="M122.478 23.1175L119.911 24.4454C119.85 24.3247 119.545 23.54 118.872 22.031C118.2 20.5221 117.345 18.6509 116.244 16.2969H106.527C105.366 18.832 104.51 20.7635 103.838 22.1518C103.227 23.54 102.86 24.3247 102.799 24.4454L100.599 23.2986C100.904 22.7553 102.065 20.2806 104.143 15.8744C106.221 11.4682 108.36 6.88096 110.561 2.05225H112.7C114.9 6.88096 117.039 11.589 119.178 16.1159C121.256 20.5221 122.356 22.8761 122.478 23.1175ZM115.328 14.124C114.778 12.7961 114.105 11.4079 113.494 9.95926C112.822 8.51065 112.15 7.00167 111.477 5.43234H111.416C110.866 6.63952 110.194 8.08813 109.399 9.83854C108.605 11.589 107.994 12.9772 107.444 14.0637L115.328 14.124Z" fill="#0D47A1"/>
<path d="M148.636 9.65705C148.636 11.2264 148.148 12.675 147.109 13.9425C146.07 15.2101 144.725 16.0551 142.953 16.538C142.219 16.719 141.425 16.9001 140.508 16.9605C139.652 17.0208 138.674 17.0812 137.574 17.0812L137.635 23.9621H134.946C134.946 23.2982 134.946 22.091 135.007 20.3406C135.007 18.5902 135.069 15.874 135.069 12.1921C135.069 11.0453 135.069 9.59669 135.069 7.90665C135.069 6.2166 135.007 4.34547 135.007 2.23291C135.496 2.23291 135.924 2.23291 136.413 2.23291C136.841 2.23291 137.208 2.23291 137.513 2.23291C139.408 2.23291 140.997 2.35363 142.341 2.59506C143.686 2.8365 144.786 3.25901 145.703 3.80224C146.681 4.40583 147.475 5.1905 147.964 6.2166C148.331 7.18234 148.636 8.32916 148.636 9.65705ZM145.825 9.65705C145.825 8.57059 145.581 7.60485 145.031 6.82019C144.542 6.03552 143.747 5.43193 142.647 4.94906C141.975 4.64727 141.302 4.46619 140.508 4.40583C139.713 4.34547 138.98 4.28511 138.124 4.28511C138.002 4.28511 137.941 4.28511 137.819 4.28511C137.697 4.28511 137.635 4.28511 137.513 4.28511C137.513 4.40583 137.513 5.1905 137.452 6.69947C137.452 8.20844 137.391 9.41562 137.391 10.2606C137.391 11.0453 137.391 12.0111 137.391 13.0975C137.391 14.184 137.391 14.7876 137.391 14.9686C137.513 14.9686 137.574 14.9686 137.758 14.9686C137.941 14.9686 138.002 14.9686 138.063 14.9686C138.797 14.9686 139.591 14.9083 140.386 14.8479C141.18 14.7876 141.914 14.5461 142.525 14.3047C143.564 13.8822 144.358 13.2786 144.908 12.4939C145.581 11.7696 145.825 10.8039 145.825 9.65705Z" fill="#0D47A1"/>
<path d="M170.822 22.6343L168.744 24.3244C168.5 24.0829 167.644 23.1172 166.177 21.4875C164.71 19.8578 162.449 17.3227 159.393 13.8823V13.7616C159.821 13.6409 160.371 13.3994 161.043 13.0373C161.716 12.6751 162.327 12.2526 162.754 11.8904C163.182 11.5283 163.488 11.0454 163.793 10.5022C164.099 9.95896 164.221 9.23465 164.221 8.32927C164.221 7.48425 163.977 6.75994 163.549 6.15635C163.121 5.55276 162.51 5.13025 161.716 4.82845C161.104 4.58702 160.432 4.4663 159.699 4.40594C159.026 4.34558 158.354 4.34558 157.743 4.34558C157.376 4.34558 157.071 4.34558 156.826 4.34558C156.643 4.34558 156.459 4.34558 156.337 4.34558C156.337 6.39779 156.276 8.20855 156.276 9.77788C156.276 11.3472 156.276 12.4337 156.276 13.0976C156.276 14.6066 156.276 16.5984 156.276 19.1335C156.276 21.6686 156.276 23.2983 156.337 23.9019H153.648C153.648 23.2379 153.648 21.9704 153.709 20.1596C153.709 18.2885 153.77 15.9949 153.77 13.2183C153.77 12.6751 153.77 11.649 153.77 10.2004C153.77 8.75178 153.77 6.09599 153.709 2.23302C153.831 2.23302 154.381 2.23302 155.359 2.17266C156.337 2.17266 157.254 2.1123 158.11 2.1123C159.087 2.1123 160.004 2.17266 160.86 2.29338C161.716 2.4141 162.632 2.65553 163.488 3.01769C164.588 3.50056 165.444 4.16451 166.055 5.00953C166.666 5.91492 167.033 6.94102 167.033 8.08783C167.033 9.59681 166.544 10.9247 165.627 11.8904C164.71 12.8562 163.793 13.6409 162.938 14.1841V14.2444C164.466 15.9949 166.055 17.7453 167.888 19.6164C169.722 21.5479 170.7 22.5136 170.822 22.6343Z" fill="#0D47A1"/>
<path d="M213.848 4.52692C213.665 4.52692 212.931 4.52692 211.709 4.52692C210.487 4.52692 208.959 4.52692 207.125 4.52692C206.331 4.52692 205.536 4.52692 204.864 4.52692C204.192 4.52692 203.581 4.52692 203.092 4.52692C203.092 5.7341 203.092 7.062 203.031 8.51061C202.969 9.95922 202.969 11.1664 202.969 12.2529C203.092 12.2529 203.458 12.2529 204.131 12.2529C204.742 12.2529 205.353 12.2529 205.903 12.2529C207.675 12.2529 209.387 12.2529 210.976 12.2529C212.565 12.2529 213.482 12.2529 213.604 12.2529V14.4861C213.42 14.4861 212.381 14.4861 210.548 14.4861C208.714 14.4861 207.125 14.4861 205.659 14.4861C205.231 14.4861 204.681 14.4861 204.07 14.4861C203.458 14.4861 203.092 14.4861 202.908 14.4861C202.908 16.4176 202.908 18.2284 202.908 19.9184C202.908 21.6085 202.908 22.9967 202.969 24.0228H200.28C200.28 23.3589 200.341 22.2121 200.341 20.5824C200.341 18.9527 200.341 16.5383 200.341 13.3997C200.341 12.1925 200.341 10.5628 200.341 8.57097C200.341 6.57913 200.28 4.52692 200.28 2.354C201.075 2.354 202.053 2.354 203.214 2.354C204.375 2.354 205.597 2.354 206.881 2.354C208.776 2.354 210.365 2.354 211.648 2.354C212.87 2.354 213.604 2.354 213.787 2.354V4.52692H213.848Z" fill="#0D47A1"/>
<path d="M222.282 23.9623H219.593C219.593 23.2984 219.593 22.1515 219.654 20.5218C219.654 18.8318 219.716 16.4778 219.716 13.3391C219.716 12.132 219.716 10.5023 219.716 8.51042C219.716 6.51858 219.654 4.46638 219.654 2.29346H222.344C222.344 3.86279 222.282 5.6132 222.282 7.6654C222.282 9.7176 222.282 11.4076 222.282 12.6752C222.282 15.9346 222.282 18.53 222.344 20.2804C222.282 22.0912 222.282 23.2984 222.282 23.9623Z" fill="#0D47A1"/>
<path d="M68.7566 11.5285C68.7566 11.5285 68.7566 11.7699 68.8177 12.1321C68.8788 12.5546 68.94 13.0978 68.94 13.8825C68.8788 14.2446 68.8788 14.6671 68.8177 15.15C68.6955 15.5725 68.6955 16.1158 68.5121 16.5986C68.2677 17.6247 67.7787 18.7715 66.9842 19.858C66.2508 20.9445 65.2729 22.0913 63.9895 22.9967C62.706 23.9021 61.1781 24.6264 59.5279 24.9885C59.1001 25.0489 58.6723 25.1696 58.2445 25.1696C57.8167 25.1696 57.45 25.2903 56.961 25.2299C56.5332 25.2299 56.0443 25.2299 55.6165 25.1696C55.1886 25.1092 54.6997 25.0489 54.2719 24.9282C52.4995 24.566 50.7882 23.7813 49.3214 22.6345C47.8546 21.4877 46.6934 20.0391 45.8989 18.4698C45.1043 16.9004 44.6765 15.0897 44.6154 13.46C44.5543 11.7699 44.921 10.0799 45.471 8.69161C46.0211 7.243 46.8767 6.03582 47.7935 5.07008C48.7102 4.10433 49.6881 3.31967 50.666 2.8368C51.0938 2.535 51.5827 2.35393 52.0106 2.17285C52.4384 1.99177 52.8662 1.87105 53.2329 1.75034C53.9663 1.56926 54.5775 1.44854 55.0053 1.44854C55.4331 1.38818 55.6165 1.38818 55.6165 1.38818C55.6165 1.38818 55.4331 1.44854 55.0053 1.5089C54.8219 1.56926 54.5775 1.56926 54.2719 1.68998C53.9663 1.8107 53.6607 1.87105 53.3551 1.99177C52.9884 2.17285 52.6217 2.29357 52.255 2.535C51.8883 2.77644 51.3994 2.95751 51.0327 3.25931C50.177 3.80254 49.3214 4.5872 48.5269 5.55295C47.7324 6.51869 47.0601 7.66551 46.5711 8.9934C46.0822 10.3213 45.8989 11.7699 45.96 13.2789C46.0211 14.8482 46.4489 16.3572 47.1823 17.7454C47.9157 19.1337 48.9547 20.4012 50.2382 21.4273C51.5216 22.3931 52.9884 23.1174 54.5775 23.4795C54.9442 23.6003 55.372 23.6606 55.7387 23.6606C56.1054 23.721 56.5332 23.721 56.8999 23.7813C57.2666 23.8417 57.6944 23.7813 58.1223 23.721C58.489 23.721 58.8557 23.6003 59.2224 23.6003C60.7503 23.2985 62.156 22.7552 63.3172 21.9706C64.4784 21.1859 65.5174 20.2805 66.2508 19.3148C66.9842 18.349 67.5954 17.3229 67.901 16.3572C68.0843 15.8743 68.2066 15.3914 68.3288 14.9689C68.451 14.5464 68.5121 14.1239 68.5733 13.7618C68.6344 13.3996 68.6344 13.0375 68.6344 12.796C68.6955 12.4942 68.6344 12.2528 68.6344 12.0717C68.7566 11.7699 68.7566 11.5285 68.7566 11.5285Z" fill="url(#paint0_linear_1_1566)"/>
<path d="M67.7787 13.2793C67.7787 13.2793 67.7787 13.4 67.7787 13.5811C67.7787 13.8225 67.7787 14.1243 67.6565 14.4865C67.5954 14.909 67.4731 15.3919 67.2898 15.9351C67.1675 16.1765 67.1064 16.4783 66.9842 16.7801C66.862 17.0819 66.7397 17.3837 66.5564 17.6855C66.1897 18.2891 65.7618 18.953 65.2118 19.5566C64.6617 20.1602 64.0506 20.7638 63.2561 21.2467C62.5227 21.7295 61.667 22.2124 60.7503 22.5142C59.8335 22.816 58.9168 23.0574 57.9389 23.0574C57.5111 23.1178 56.961 23.0574 56.4721 23.0574C55.9831 22.9971 55.4942 22.9971 55.0664 22.8764C54.1496 22.6953 53.2329 22.3331 52.4384 21.971C51.6438 21.5485 50.9104 21.0656 50.2993 20.5224C49.9937 20.2809 49.6881 19.9791 49.4436 19.6773C49.1992 19.3755 48.9547 19.1341 48.7102 18.8323C48.2824 18.2891 47.9768 17.6855 47.7323 17.2026C47.6101 16.9612 47.4879 16.7198 47.4268 16.4783C47.3656 16.2369 47.3045 16.0558 47.1823 15.8144C47.0601 15.4522 46.9989 15.0901 46.9378 14.909C46.8767 14.7279 46.8767 14.6072 46.8767 14.6072C46.8767 14.6072 46.9378 14.7279 46.9989 14.909C47.0601 15.0901 47.1823 15.3919 47.3656 15.754C47.4268 15.9351 47.549 16.1162 47.6712 16.3576C47.7935 16.5387 47.9157 16.7801 48.0379 17.0215C48.3435 17.5044 48.7102 17.9873 49.138 18.4702C49.3214 18.7116 49.627 18.953 49.8714 19.1945C50.177 19.4359 50.4215 19.6773 50.7271 19.9188C51.3382 20.4016 52.0105 20.8242 52.8051 21.126C53.5996 21.4881 54.3941 21.7295 55.2497 21.9106C55.6776 22.0313 56.1054 22.0313 56.5332 22.0917C56.961 22.0917 57.3888 22.1521 57.8778 22.0917C58.7945 22.0313 59.6502 21.8503 60.5058 21.6088C61.3614 21.3674 62.0948 20.9449 62.8282 20.5224C63.5616 20.0999 64.1728 19.5566 64.7229 19.0134C65.2729 18.4702 65.7007 17.9269 66.0674 17.3233C66.2508 17.0215 66.373 16.7801 66.5564 16.4783C66.6786 16.2369 66.8008 15.9351 66.9231 15.6937C67.1064 15.2108 67.2898 14.7279 67.412 14.3658C67.5342 14.0036 67.5954 13.7018 67.6565 13.4604C67.7787 13.4 67.7787 13.2793 67.7787 13.2793Z" fill="#0D47A1"/>
<path d="M52.5605 21.6086V16.9609H55.1886V22.514L52.5605 21.6086Z" fill="#0D47A1"/>
<path d="M56.472 22.6951V14.7881H59.039V22.5744L56.472 22.6951Z" fill="#0D47A1"/>
<path d="M60.4446 22.2122V12.4341H62.8893V21.0654L60.4446 22.2122Z" fill="#0D47A1"/>
<path d="M231.756 21.4271C231.511 20.401 231.206 19.6163 230.961 19.0731C230.717 18.5299 230.533 18.2884 230.533 18.2884C230.533 18.2281 230.472 18.2281 230.411 18.2884C230.35 18.2884 230.35 18.3488 230.411 18.4092C230.411 18.4092 230.594 18.6506 230.778 19.1938C231.022 19.737 231.267 20.4614 231.511 21.5478C231.633 22.091 231.694 22.6343 231.633 23.2379C231.572 23.5397 231.511 23.8415 231.389 24.1432C231.206 24.3847 230.961 24.6261 230.717 24.7468C230.105 25.0486 229.372 24.6865 228.761 24.2036C228.455 23.9622 228.15 23.6604 227.905 23.2982C227.783 23.1171 227.661 22.9361 227.538 22.755C227.416 22.5739 227.233 22.3928 227.111 22.2118C226.927 22.0307 226.744 21.8496 226.561 21.7289C226.377 21.5478 226.133 21.4271 225.827 21.3667C225.522 21.3064 225.094 21.3667 224.91 21.6685L224.788 21.8496L224.666 22.0307L224.605 22.1514C224.544 22.2721 224.605 22.2118 224.544 22.2721C224.544 22.3325 224.483 22.3928 224.483 22.4532C224.422 23.1171 224.666 23.6 224.91 24.0829C225.155 24.5658 225.522 24.9883 225.827 25.4108C226.5 26.1954 227.05 27.1008 227.6 28.0062C227.844 28.4891 228.089 28.972 228.211 29.4548C228.394 29.9377 228.516 30.4809 228.516 30.9638C228.516 31.9899 228.15 33.0764 227.294 33.6196C226.561 34.1628 225.338 33.9214 224.483 33.3782C223.994 33.0764 223.505 32.7142 223.077 32.2917C223.016 32.3521 223.016 32.4124 222.955 32.4728C222.832 32.6538 222.771 32.8349 222.588 33.016C222.527 33.0764 222.466 33.1367 222.405 33.1971C222.832 33.5592 223.321 33.9817 223.871 34.2835C224.483 34.6457 225.094 34.8268 225.766 34.9475C226.438 35.0078 227.172 34.8871 227.783 34.4646C228.333 34.0421 228.761 33.4989 229.005 32.8953C229.25 32.2917 229.372 31.6881 229.311 31.0242C229.25 30.3602 229.128 29.817 228.944 29.2738C228.761 28.7305 228.516 28.1873 228.211 27.7044C227.661 26.7387 226.988 25.8333 226.316 25.0486C226.011 24.6261 225.644 24.264 225.399 23.8415C225.277 23.6604 225.155 23.4189 225.094 23.2379C225.033 23.0568 224.972 22.8153 224.972 22.6946C224.972 22.6343 224.972 22.5739 225.033 22.5136C225.033 22.5136 225.033 22.3928 225.033 22.4532L225.094 22.3928L225.155 22.2721L225.216 22.1514C225.338 22.0307 225.399 22.0307 225.583 22.0307C225.949 22.091 226.316 22.3928 226.561 22.6946C226.683 22.8757 226.866 22.9964 226.988 23.1775C227.111 23.3586 227.233 23.5397 227.355 23.7207C227.661 24.0829 227.966 24.3847 228.333 24.6865C228.7 24.9279 229.066 25.1693 229.494 25.2901C229.678 25.3504 229.922 25.4108 230.105 25.4108C230.289 25.4108 230.594 25.3504 230.717 25.2901C231.083 25.109 231.389 24.8072 231.572 24.445C231.756 24.0829 231.817 23.7811 231.817 23.4189C232 22.5739 231.878 21.9703 231.756 21.4271Z" fill="url(#paint1_linear_1_1566)"/>
<path d="M209.264 27.5237C210.059 27.3426 210.854 27.2822 211.709 27.3426C213.97 27.4633 216.171 28.429 218.188 29.6362C218.432 29.8173 218.677 29.938 218.921 30.1191C219.165 30.3002 219.471 30.4813 219.654 30.6623C220.143 31.0245 220.571 31.3866 220.999 31.8091C221.243 31.9902 221.427 32.2317 221.671 32.4127C221.916 32.1109 222.16 31.8091 222.282 31.447C222.099 31.2659 221.977 31.1452 221.793 30.9641C221.366 30.5416 220.877 30.1191 220.388 29.6966C220.143 29.4552 219.899 29.3344 219.654 29.1534C219.41 28.9723 219.165 28.7912 218.86 28.6101C216.782 27.2219 214.398 26.1354 211.77 25.894C210.487 25.7733 209.142 25.894 207.981 26.3165C207.798 26.3768 207.675 26.4372 207.553 26.4976C207.92 26.6786 208.287 26.8597 208.592 27.1012C208.898 27.2219 209.081 27.4029 209.264 27.5237Z" fill="url(#paint2_linear_1_1566)"/>
<path d="M188.668 29.4547C187.385 28.8511 186.407 28.0061 185.734 27.2214C185.123 26.3764 184.757 25.6521 184.512 25.1692C184.329 24.626 184.207 24.3846 184.207 24.3846C184.207 24.3242 184.145 24.3242 184.145 24.3242C184.084 24.3242 184.084 24.3846 184.084 24.3846C184.084 24.3846 184.145 24.6864 184.268 25.2296C184.39 25.7728 184.696 26.6179 185.307 27.5232C185.918 28.4286 186.896 29.4547 188.24 30.2394C188.424 30.3601 188.607 30.4205 188.851 30.5412C189.34 30.4205 189.768 30.2394 190.257 30.1187C189.646 29.8772 189.096 29.6962 188.668 29.4547Z" fill="url(#paint3_linear_1_1566)"/>
<path d="M204.681 27.8253C202.664 28.9721 200.83 30.1189 198.936 30.5414L198.569 30.6018C198.508 30.6018 198.325 30.6621 198.202 30.6621C197.958 30.7225 197.713 30.7225 197.408 30.7829C196.919 30.8432 196.43 30.9036 196.002 30.9036C195.024 30.9639 194.108 30.9036 193.252 30.7829C192.702 30.7225 192.213 30.6621 191.724 30.5414C191.113 30.7225 190.502 30.9639 189.891 31.0846C190.868 31.4468 191.907 31.809 193.069 31.99C193.985 32.1108 195.024 32.2315 196.002 32.2315C196.491 32.2315 197.041 32.2315 197.591 32.1711C197.836 32.1711 198.08 32.1108 198.386 32.1108L198.814 32.0504L199.241 31.99C201.503 31.5675 203.52 30.3 205.475 29.2135C206.209 28.791 207.003 28.3685 207.798 28.0667C207.187 27.7046 206.575 27.4028 205.964 27.2217C205.536 27.3424 205.109 27.5838 204.681 27.8253Z" fill="url(#paint4_linear_1_1566)"/>
<path d="M223.26 31.8088C223.933 30.2394 223.933 28.5494 223.566 27.0404C223.26 25.4711 222.588 24.0225 221.732 22.6946C221.305 22.0306 220.816 21.4874 220.388 20.8838C219.96 20.2802 219.532 19.6766 219.288 19.073C219.166 18.7713 219.043 18.4091 218.982 18.1073C218.921 17.8055 219.043 17.5641 219.166 17.4434L219.288 17.383C219.288 17.383 219.349 17.383 219.41 17.383C219.471 17.383 219.593 17.4434 219.654 17.4434V16.7191C219.593 16.7191 219.532 16.7191 219.471 16.6587C219.349 16.6587 219.227 16.6587 219.043 16.7191C218.982 16.7191 218.921 16.7794 218.799 16.8398L218.677 16.9001C218.188 17.2623 218.127 17.8055 218.188 18.228C218.249 18.6505 218.371 19.0127 218.554 19.3748C219.166 20.7631 220.205 21.9703 221.06 23.1775C221.855 24.3846 222.405 25.7729 222.71 27.2215C222.894 27.9458 222.894 28.6701 222.894 29.3944C222.833 29.7566 222.833 30.1187 222.71 30.4205C222.649 30.6016 222.649 30.7827 222.588 30.9034L222.405 31.3863V31.4466C222.649 31.6881 222.894 31.9295 223.138 32.1709C223.199 32.0502 223.26 31.9295 223.26 31.8088Z" fill="url(#paint5_linear_1_1566)"/>
<path d="M222.466 17.8663C222.527 17.7455 222.649 17.6852 222.71 17.5645C222.771 17.4437 222.833 17.323 222.833 17.2023L222.894 16.9609C222.955 16.478 222.771 16.0555 222.588 15.7537C222.405 15.3915 222.099 15.1501 221.855 14.9087C220.877 13.8826 219.716 13.0979 218.921 12.1322C218.554 11.6493 218.249 11.0457 218.493 10.6836C218.677 10.3214 219.104 10.1403 219.593 9.95925V9.41602C219.349 9.47637 219.104 9.59709 218.86 9.65745C218.554 9.77817 218.249 10.0196 218.004 10.3818C217.821 10.7439 217.821 11.2268 217.943 11.5286C218.065 11.8907 218.249 12.1925 218.493 12.434C219.349 13.5204 220.449 14.3654 221.366 15.3312C221.61 15.5726 221.794 15.8141 221.977 16.1159C222.16 16.3573 222.221 16.6591 222.16 16.9005L222.099 17.142C222.099 17.2023 222.099 17.2023 222.038 17.2627V18.1077C222.283 17.987 222.405 17.9266 222.466 17.8663Z" fill="url(#paint6_linear_1_1566)"/>
<path d="M219.593 5.25104C220.51 5.43211 221.549 5.55283 222.405 6.0357C222.832 6.27714 223.199 6.63929 223.383 7.12216C223.566 7.60503 223.566 8.14826 223.199 8.45006C222.955 8.69149 222.588 8.75185 222.16 8.87257V9.29508C222.344 9.23472 222.466 9.23472 222.649 9.17436C222.955 9.11401 223.26 8.99329 223.505 8.69149C223.749 8.45006 223.871 8.0879 223.871 7.78611C223.871 7.48431 223.81 7.18252 223.688 6.88073C223.444 6.3375 223.016 5.91498 222.527 5.61319C221.549 5.06996 220.51 5.06996 219.593 4.88888C218.677 4.70781 217.882 4.34565 217.393 3.74206C217.149 3.44027 217.026 3.07812 217.026 2.77632C217.026 2.41417 217.087 2.11237 217.271 1.81058C217.576 1.26735 218.065 0.844837 218.554 0.66376C219.043 0.422324 219.471 0.361965 219.777 0.241248C220.51 0.12053 220.877 0.0601709 220.877 0.0601709C220.938 0.0601709 220.938 -0.000187982 220.938 -0.000187982C220.938 -0.0605469 220.877 -0.0605469 220.877 -0.0605469C220.877 -0.0605469 220.51 -0.000187974 219.777 0.12053C219.41 0.180889 218.982 0.301606 218.493 0.543042C218.004 0.784478 217.454 1.14663 217.149 1.75022C216.965 2.05201 216.843 2.41417 216.843 2.83668C216.843 3.25919 216.965 3.62135 217.271 3.9835C217.76 4.64745 218.615 5.06996 219.593 5.25104Z" fill="url(#paint7_linear_1_1566)"/>
<path d="M219.227 33.8611C217.943 34.2836 216.538 33.68 215.376 32.8954C214.765 32.4729 214.215 31.99 213.726 31.5071C213.176 30.9639 212.626 30.481 212.137 29.9982C211.22 29.1531 210.365 28.3081 209.387 27.5234C209.142 27.5838 208.837 27.6442 208.592 27.7649C208.348 27.8252 208.165 27.946 207.92 28.0063C207.981 28.0667 208.042 28.0667 208.103 28.127C209.265 28.8513 210.304 29.8774 211.404 30.9035C211.954 31.3864 212.504 31.9296 213.054 32.4125C213.604 32.9557 214.215 33.4386 214.887 33.8611C215.56 34.2836 216.293 34.7061 217.088 34.8872C217.515 35.0079 217.943 35.0683 218.371 35.0683C218.554 35.0683 218.86 35.0683 219.043 35.0079L219.349 34.9476C219.532 34.8872 219.532 34.8872 219.654 34.8269C220.021 34.7061 220.449 34.5854 220.816 34.4044L221.366 34.1026C221.549 33.9818 221.732 33.8611 221.855 33.7404C222.16 33.5593 222.405 33.2575 222.588 33.0161C222.344 32.7747 222.099 32.5936 221.855 32.3521C221.121 33.1368 220.205 33.6197 219.227 33.8611Z" fill="url(#paint8_linear_1_1566)"/>
<path d="M193.496 29.8776C194.596 29.4551 195.697 29.0325 196.858 28.5497C198.019 28.0668 199.241 27.5839 200.403 27.2218C200.525 27.1614 200.708 27.1614 200.83 27.1011H200.953H201.075L201.319 27.0407C201.625 26.9803 201.992 26.92 202.297 26.92C202.969 26.8596 203.581 26.8596 204.253 26.8596C204.803 26.92 205.414 26.9803 205.964 27.1614C206.514 26.92 207.064 26.6785 207.614 26.4975C207.309 26.3164 206.942 26.1957 206.575 26.075C206.209 25.9542 205.842 25.8335 205.475 25.7732C205.109 25.7128 204.742 25.6524 204.375 25.6524C203.642 25.5921 202.908 25.6524 202.175 25.7128C201.808 25.7128 201.503 25.8335 201.136 25.8939L200.891 25.9542C200.83 25.9542 200.83 25.9542 200.769 25.9542H200.647C200.464 26.0146 200.341 26.0146 200.158 26.075C198.813 26.4975 197.652 27.0407 196.491 27.5236C195.33 28.0064 194.23 28.4893 193.191 28.9722C192.213 29.3947 191.235 29.7568 190.318 30.0586C190.807 30.2397 191.296 30.3604 191.846 30.4812C192.335 30.3001 192.885 30.0586 193.496 29.8776Z" fill="url(#paint9_linear_1_1566)"/>
<path d="M187.201 30.9038C186.285 31.0849 185.429 31.1452 184.696 30.9642C183.962 30.8434 183.29 30.4813 182.923 29.9984C182.801 29.8777 182.74 29.757 182.679 29.6363C182.618 29.5155 182.556 29.3948 182.495 29.2741C182.373 29.0327 182.312 28.7309 182.251 28.4894C182.19 28.0066 182.251 27.5841 182.373 27.2219C182.495 26.8597 182.618 26.6787 182.679 26.4976C182.801 26.3165 182.862 26.2562 182.862 26.2562V26.1958H182.801C182.801 26.1958 182.74 26.2562 182.618 26.4372C182.495 26.6183 182.373 26.7994 182.19 27.1615C182.067 27.5237 181.945 27.9462 182.006 28.4894C182.006 28.7912 182.067 29.0327 182.19 29.3345C182.251 29.5155 182.312 29.6363 182.373 29.757C182.434 29.9381 182.495 30.0588 182.618 30.1795C183.045 30.7831 183.779 31.2659 184.634 31.447C185.49 31.6281 186.407 31.6281 187.385 31.5074C188.24 31.3867 189.096 31.2056 190.013 30.9642C189.646 30.7831 189.218 30.6624 188.913 30.4813C188.24 30.6624 187.69 30.7831 187.201 30.9038Z" fill="url(#paint10_linear_1_1566)"/>
<path d="M190.257 30.0586C189.768 30.2397 189.279 30.3604 188.851 30.4811C189.218 30.6622 189.585 30.8433 189.952 30.964C190.563 30.7829 191.174 30.6018 191.785 30.4207C191.235 30.3604 190.746 30.2397 190.257 30.0586Z" fill="url(#paint11_linear_1_1566)"/>
<path d="M190.257 30.0586C189.768 30.2397 189.279 30.3604 188.851 30.4811C189.218 30.6622 189.585 30.8433 189.952 30.964C190.563 30.7829 191.174 30.6018 191.785 30.4207C191.235 30.3604 190.746 30.2397 190.257 30.0586Z" fill="url(#paint12_linear_1_1566)"/>
<path d="M223.016 32.3522C223.077 32.2918 223.077 32.2314 223.138 32.1711C222.894 31.9296 222.649 31.6882 222.405 31.4468C222.221 31.8089 222.038 32.1107 221.794 32.4125C222.038 32.654 222.283 32.835 222.527 33.0765C222.588 33.0161 222.649 32.9558 222.71 32.8954C222.771 32.7143 222.894 32.5332 223.016 32.3522Z" fill="url(#paint13_linear_1_1566)"/>
<path d="M223.016 32.3522C223.077 32.2918 223.077 32.2314 223.138 32.1711C222.894 31.9296 222.649 31.6882 222.405 31.4468C222.221 31.8089 222.038 32.1107 221.794 32.4125C222.038 32.654 222.283 32.835 222.527 33.0765C222.588 33.0161 222.649 32.9558 222.71 32.8954C222.771 32.7143 222.894 32.5332 223.016 32.3522Z" fill="url(#paint14_linear_1_1566)"/>
<path d="M209.265 27.5235C209.081 27.3424 208.837 27.2217 208.592 27.0406C208.287 26.7992 207.92 26.6181 207.553 26.437C206.942 26.6181 206.392 26.8595 205.903 27.101C206.575 27.282 207.187 27.5838 207.737 27.946C207.981 27.8253 208.164 27.7649 208.409 27.7045C208.714 27.6442 209.02 27.5838 209.265 27.5235Z" fill="url(#paint15_linear_1_1566)"/>
<path d="M209.265 27.5235C209.081 27.3424 208.837 27.2217 208.592 27.0406C208.287 26.7992 207.92 26.6181 207.553 26.437C206.942 26.6181 206.392 26.8595 205.903 27.101C206.575 27.282 207.187 27.5838 207.737 27.946C207.981 27.8253 208.164 27.7649 208.409 27.7045C208.714 27.6442 209.02 27.5838 209.265 27.5235Z" fill="url(#paint16_linear_1_1566)"/>
<path d="M184.695 24.3247C184.695 24.3247 184.451 24.3247 184.084 24.385C183.656 24.4454 183.106 24.4454 182.312 24.385C181.945 24.3247 181.517 24.2643 181.028 24.204C180.601 24.0832 180.051 24.0229 179.562 23.7814C178.523 23.4796 177.423 22.8761 176.322 22.0914C175.222 21.3067 174.183 20.2806 173.328 18.9527C172.472 17.6248 171.861 16.1159 171.616 14.4258C171.555 14.0033 171.494 13.5808 171.494 13.1583C171.494 12.7358 171.433 12.3736 171.494 11.8907C171.555 11.4682 171.555 10.9854 171.616 10.5628C171.678 10.1403 171.8 9.65746 171.922 9.23495C172.411 7.48454 173.328 5.85485 174.489 4.52695C175.711 3.19906 177.239 2.1126 178.95 1.38829C180.601 0.663985 182.434 0.36219 184.084 0.422549C185.796 0.482908 187.446 0.90542 188.851 1.56937C190.257 2.23332 191.479 3.1387 192.396 4.10444C193.313 5.07018 194.046 6.09629 194.474 7.06203C194.719 7.5449 194.902 8.02777 195.024 8.45028C195.146 8.87279 195.269 9.29531 195.391 9.65746C195.513 10.3818 195.574 10.9854 195.574 11.4079C195.574 11.8304 195.574 12.0115 195.574 12.0115C195.574 12.0115 195.513 11.8304 195.452 11.4079C195.391 11.2268 195.391 10.9854 195.33 10.6836C195.269 10.3818 195.146 10.08 195.085 9.71782C194.963 9.35567 194.78 8.99351 194.658 8.571C194.413 8.20885 194.291 7.72598 193.985 7.30346C193.496 6.39808 192.702 5.55306 191.785 4.70803C190.868 3.86301 189.707 3.1387 188.424 2.59547C187.14 2.05224 185.612 1.75045 184.145 1.75045C182.556 1.75045 181.028 2.05224 179.562 2.71619C178.095 3.31978 176.75 4.28552 175.711 5.4927C174.611 6.69987 173.817 8.14849 173.389 9.65746C173.267 10.0196 173.205 10.4421 173.083 10.8043C172.961 11.1664 172.961 11.5889 172.9 11.9511C172.839 12.3133 172.9 12.7358 172.839 13.1583C172.839 13.5204 172.9 13.8826 172.9 14.3051C173.083 15.8141 173.572 17.2023 174.306 18.4095C174.978 19.6167 175.895 20.6428 176.872 21.4274C177.85 22.2121 178.828 22.8761 179.745 23.2382C180.234 23.4796 180.662 23.6004 181.09 23.7211C181.517 23.8418 181.945 23.9022 182.312 24.0229C182.679 24.0832 182.984 24.1436 183.29 24.1436C183.595 24.204 183.84 24.204 184.023 24.204C184.512 24.3247 184.695 24.3247 184.695 24.3247Z" fill="url(#paint17_linear_1_1566)"/>
<path d="M173.939 11.77C173.939 11.77 173.939 11.6493 174 11.4682C174.061 11.2268 174.061 10.925 174.183 10.5629C174.244 10.1403 174.428 9.71783 174.611 9.1746C174.733 8.93316 174.856 8.63137 174.978 8.32957C175.161 8.02778 175.283 7.72598 175.467 7.48455C175.833 6.88096 176.322 6.27737 176.934 5.73414C177.545 5.19091 178.217 4.64768 179.012 4.22517C179.806 3.80266 180.662 3.38014 181.578 3.19907C182.495 2.95763 183.473 2.83691 184.451 2.83691C184.879 2.83691 185.429 2.89727 185.918 2.95763C186.407 3.07835 186.896 3.13871 187.323 3.25943C188.24 3.50086 189.096 3.92337 189.89 4.34589C190.685 4.82876 191.357 5.37199 191.907 5.91522C192.213 6.21701 192.457 6.51881 192.702 6.8206C192.946 7.1224 193.13 7.42419 193.313 7.72598C193.68 8.32957 193.985 8.93316 194.169 9.41603C194.291 9.65747 194.352 9.95926 194.413 10.1403C194.474 10.3818 194.535 10.6232 194.596 10.8043C194.719 11.1664 194.719 11.5286 194.78 11.7097C194.78 11.9511 194.841 12.0115 194.841 12.0115C194.841 12.0115 194.78 11.8907 194.719 11.7097C194.657 11.5286 194.596 11.1664 194.413 10.8043C194.352 10.6232 194.291 10.3818 194.169 10.2007C194.046 9.95926 193.924 9.77819 193.863 9.47639C193.619 8.99352 193.252 8.45029 192.885 7.90706C192.702 7.60527 192.457 7.36383 192.213 7.1224C191.968 6.88096 191.724 6.57917 191.418 6.33773C190.868 5.85486 190.196 5.37199 189.463 4.94948C188.729 4.58732 187.935 4.22517 187.079 3.98373C186.651 3.86302 186.223 3.80266 185.796 3.7423C185.368 3.68194 184.94 3.62158 184.451 3.68194C183.534 3.62158 182.679 3.7423 181.823 3.98373C180.967 4.16481 180.173 4.4666 179.439 4.88912C178.706 5.25127 178.034 5.73414 177.422 6.21701C176.811 6.69988 176.322 7.24311 175.895 7.78634C175.65 8.02778 175.528 8.32957 175.345 8.57101C175.161 8.81244 175.039 9.11424 174.917 9.29532C174.672 9.77819 174.428 10.2007 174.306 10.6232C174.183 10.9854 174.061 11.2872 174 11.5286C174 11.6493 173.939 11.77 173.939 11.77Z" fill="#0D47A1"/>
</g>
<defs>
<linearGradient id="paint0_linear_1_1566" x1="44.6251" y1="13.3324" x2="68.9326" y2="13.3324" gradientUnits="userSpaceOnUse">
<stop stop-color="#6190E8"/>
<stop offset="1" stop-color="#A7BFE8" stop-opacity="0"/>
</linearGradient>
<linearGradient id="paint1_linear_1_1566" x1="174.473" y1="25.7896" x2="241.964" y2="26.7388" gradientUnits="userSpaceOnUse">
<stop stop-color="#6190E8"/>
<stop offset="1" stop-color="#A7BFE8" stop-opacity="0"/>
</linearGradient>
<linearGradient id="paint2_linear_1_1566" x1="174.434" y1="28.5688" x2="241.925" y2="29.518" gradientUnits="userSpaceOnUse">
<stop stop-color="#6190E8"/>
<stop offset="1" stop-color="#A7BFE8" stop-opacity="0"/>
</linearGradient>
<linearGradient id="paint3_linear_1_1566" x1="174.453" y1="27.2203" x2="241.944" y2="28.1694" gradientUnits="userSpaceOnUse">
<stop stop-color="#6190E8"/>
<stop offset="1" stop-color="#A7BFE8" stop-opacity="0"/>
</linearGradient>
<linearGradient id="paint4_linear_1_1566" x1="174.424" y1="29.3027" x2="241.915" y2="30.2519" gradientUnits="userSpaceOnUse">
<stop stop-color="#6190E8"/>
<stop offset="1" stop-color="#A7BFE8" stop-opacity="0"/>
</linearGradient>
<linearGradient id="paint5_linear_1_1566" x1="174.502" y1="23.7764" x2="241.993" y2="24.7255" gradientUnits="userSpaceOnUse">
<stop stop-color="#6190E8"/>
<stop offset="1" stop-color="#A7BFE8" stop-opacity="0"/>
</linearGradient>
<linearGradient id="paint6_linear_1_1566" x1="174.652" y1="13.062" x2="242.143" y2="14.0112" gradientUnits="userSpaceOnUse">
<stop stop-color="#6190E8"/>
<stop offset="1" stop-color="#A7BFE8" stop-opacity="0"/>
</linearGradient>
<linearGradient id="paint7_linear_1_1566" x1="174.78" y1="4.0135" x2="242.27" y2="4.96268" gradientUnits="userSpaceOnUse">
<stop stop-color="#6190E8"/>
<stop offset="1" stop-color="#A7BFE8" stop-opacity="0"/>
</linearGradient>
<linearGradient id="paint8_linear_1_1566" x1="174.403" y1="30.7756" x2="241.894" y2="31.7248" gradientUnits="userSpaceOnUse">
<stop stop-color="#6190E8"/>
<stop offset="1" stop-color="#A7BFE8" stop-opacity="0"/>
</linearGradient>
<linearGradient id="paint9_linear_1_1566" x1="174.446" y1="27.724" x2="241.937" y2="28.6731" gradientUnits="userSpaceOnUse">
<stop stop-color="#6190E8"/>
<stop offset="1" stop-color="#A7BFE8" stop-opacity="0"/>
</linearGradient>
<linearGradient id="paint10_linear_1_1566" x1="174.431" y1="28.8087" x2="241.922" y2="29.7579" gradientUnits="userSpaceOnUse">
<stop stop-color="#6190E8"/>
<stop offset="1" stop-color="#A7BFE8" stop-opacity="0"/>
</linearGradient>
<linearGradient id="paint11_linear_1_1566" x1="174.409" y1="30.34" x2="241.9" y2="31.2892" gradientUnits="userSpaceOnUse">
<stop stop-color="#6190E8"/>
<stop offset="1" stop-color="#A7BFE8" stop-opacity="0"/>
</linearGradient>
<linearGradient id="paint12_linear_1_1566" x1="174.409" y1="30.34" x2="241.9" y2="31.2892" gradientUnits="userSpaceOnUse">
<stop stop-color="#6190E8"/>
<stop offset="1" stop-color="#A7BFE8" stop-opacity="0"/>
</linearGradient>
<linearGradient id="paint13_linear_1_1566" x1="174.391" y1="31.6087" x2="241.883" y2="32.5579" gradientUnits="userSpaceOnUse">
<stop stop-color="#6190E8"/>
<stop offset="1" stop-color="#A7BFE8" stop-opacity="0"/>
</linearGradient>
<linearGradient id="paint14_linear_1_1566" x1="174.391" y1="31.6087" x2="241.883" y2="32.5579" gradientUnits="userSpaceOnUse">
<stop stop-color="#6190E8"/>
<stop offset="1" stop-color="#A7BFE8" stop-opacity="0"/>
</linearGradient>
<linearGradient id="paint15_linear_1_1566" x1="174.459" y1="26.7873" x2="241.95" y2="27.7365" gradientUnits="userSpaceOnUse">
<stop stop-color="#6190E8"/>
<stop offset="1" stop-color="#A7BFE8" stop-opacity="0"/>
</linearGradient>
<linearGradient id="paint16_linear_1_1566" x1="174.459" y1="26.7873" x2="241.95" y2="27.7365" gradientUnits="userSpaceOnUse">
<stop stop-color="#6190E8"/>
<stop offset="1" stop-color="#A7BFE8" stop-opacity="0"/>
</linearGradient>
<linearGradient id="paint17_linear_1_1566" x1="171.509" y1="12.4555" x2="195.714" y2="12.4555" gradientUnits="userSpaceOnUse">
<stop stop-color="#6190E8"/>
<stop offset="1" stop-color="#A7BFE8" stop-opacity="0"/>
</linearGradient>
<clipPath id="clip0_1_1566">
<rect width="232" height="37" fill="white"/>
</clipPath>
</defs>
</svg>
