<svg width="61" height="71" viewBox="0 0 61 71" fill="none" xmlns="http://www.w3.org/2000/svg">
<g clip-path="url(#clip0_1_1258)">
<path fill-rule="evenodd" clip-rule="evenodd" d="M21.3529 67.6227C21.5823 66.7954 23.9909 63.9375 24.2203 63.1102H35.8239C38.2517 63.1102 37.9649 63.5802 37.9649 61.2864C38.0796 60.2523 39.9339 60.2335 40.106 61.2864C40.106 63.6742 39.8957 63.1102 42.3999 63.1102C43.2028 63.1102 43.6042 63.223 44.063 63.599C45.0762 64.4075 45.4012 66.739 43.4131 67.5098C42.5528 67.8483 22.7866 67.6227 21.3529 67.6227ZM47.3701 65.7236C46.9878 68.2055 45.707 69.5969 43.0881 70.0293C36.2062 70.0293 29.3435 70.0293 22.4616 70.0293C20.7603 69.9917 19.3648 69.8037 17.6443 69.1644C13.5726 67.6415 10.1316 63.599 9.48169 58.7105C9.32876 57.5448 9.42435 55.3449 9.44346 54.0852C9.4817 51.0769 11.9477 46.2259 14.1843 45.0602L14.2034 42.6723C14.2034 40.6981 16.5738 36.4113 16.5356 30.545C15.5033 30.0562 14.8151 30.5638 13.2667 29.0597C11.2213 27.0667 11.5271 24.0583 13.2476 22.4225C14.1269 21.5765 15.0254 21.4072 16.5738 21.05C16.5738 18.1169 16.5929 16.3119 18.581 14.9769C20.4162 13.7548 23.4175 14.1308 25.9408 14.1308C26.9922 14.1308 28.8082 14.3189 29.6302 13.8676C31.7521 12.7207 30.8346 8.97909 28.1201 9.52435C27.2789 9.69356 26.2084 10.9345 25.8643 11.4045C25.2526 11.1601 24.4306 10.2576 24.0865 9.80638C25.1761 8.28341 27.948 5.97076 30.9875 7.81336C33.8741 9.56195 32.708 11.9874 33.3961 13.0591C33.8549 13.7548 34.0461 14.4317 34.4093 14.7513C34.4475 15.259 34.8872 16.2179 35.0784 16.9135C35.9004 20.1851 35.2313 22.9302 35.843 24.1899C36.4547 25.4685 37.7738 25.5437 37.9458 27.4803C38.0605 28.8528 36.8753 30.2818 35.5754 30.3946C35.5754 32.2936 35.671 33.873 35.2313 35.4148C34.1417 39.1752 30.6816 42.0895 26.1128 42.0895V49.1403C26.6863 49.2907 27.8907 50.8888 28.2921 51.3777C30.1273 53.6715 31.7904 57.8644 31.8477 60.7035H35.7092C36.4547 57.5824 41.7117 57.5636 42.4381 60.7035C45.2291 60.7223 47.676 62.9597 47.3701 65.7236ZM16.0003 54.7809C18.906 56.285 19.9765 58.7293 21.8499 61.3804L22.2322 61.8504C21.0853 63.5426 19.9383 65.2348 18.7913 66.927C17.0135 66.5133 15.0445 64.8024 14.0887 63.5238C11.6418 60.3087 11.9286 58.2592 11.9286 54.386C11.9286 52.3554 13.0564 49.7043 14.3372 48.2942C14.5093 48.1061 15.6754 46.9216 15.8092 46.9216C19.1928 46.9216 22.691 49.1214 25.0232 51.3965C25.7879 52.1486 26.7628 53.2955 27.2789 54.2544C28.0054 55.5893 28.3686 56.1158 28.8274 57.808C29.095 58.7857 29.1906 59.7634 29.42 60.7411H24.4115L21.2955 56.191C20.4353 55.0629 18.581 53.0511 17.09 52.7126L16.0003 54.7809ZM30.8154 33.9294H32.9565C32.9374 34.9071 32.4594 35.8096 32.0962 36.4677C31.3125 36.1856 30.8346 34.7379 30.8154 33.9294ZM16.6312 23.4943H18.9251C18.9251 15.2966 18.2943 16.5187 28.8274 16.4435C30.739 16.4247 31.0257 15.5222 31.9815 15.3154C32.0962 16.5751 33.1285 16.7631 33.1285 21.9337C33.1285 23.8703 33.1476 25.0924 34.524 26.4838C34.5622 26.5214 36.2636 27.9879 35.0019 27.9879H33.1476V31.5039H28.4259C28.4259 35.9036 28.273 35.2455 30.4331 38.4043C29.9743 38.5171 29.2288 39.0247 28.6935 39.2316C26.4952 40.0589 23.9145 39.7392 21.9455 38.4419C21.5249 38.1599 21.3338 37.9342 20.9706 37.7086L19.3648 39.3632C19.9765 40.2469 22.3661 41.6758 23.7042 41.7887V46.9968C23.2072 46.884 21.7161 45.9251 20.4927 45.4927C18.409 44.7594 18.734 44.9286 16.6694 44.4585C16.6694 41.8639 16.4782 42.992 17.09 40.9426C18.7913 35.3772 18.9442 33.9482 18.9442 27.9692H16.1915C13.802 28.0068 13.2858 23.4943 16.6312 23.4943Z" fill="black"/>
<path fill-rule="evenodd" clip-rule="evenodd" d="M14.2035 42.6722C14.2035 40.698 16.5739 36.4112 16.5357 30.5449C15.5034 30.0561 14.8152 30.5637 13.2668 29.0596C11.2214 27.0665 11.5272 24.0582 13.2477 22.4224C14.1271 21.5764 15.0255 21.4071 16.5739 21.0499C16.5739 18.1168 16.593 16.3118 18.5811 14.9768C20.4163 13.7547 23.4176 14.1307 25.9409 14.1307C26.9923 14.1307 28.8083 14.3188 29.6303 13.8675C31.7522 12.7206 30.8347 8.97899 28.1202 9.52425C27.279 9.69346 26.2085 10.9344 25.8644 11.4044C25.2527 11.16 24.4307 10.2575 24.0866 9.80628C25.1763 8.28331 27.9481 5.97066 30.9876 7.81326C33.8742 9.56185 32.7081 11.9873 33.3962 13.059C33.855 13.7547 34.0462 14.4316 34.4094 14.7512C34.7344 14.6008 35.2888 14.4692 35.6902 14.3188C39.8958 12.6266 41.6736 7.34321 39.1502 3.6204C38.8444 3.16916 38.7297 2.99994 38.3282 2.58629C38.29 2.54869 38.118 2.36067 38.118 2.36067C38.0988 2.34187 38.0606 2.30426 38.0415 2.28546C37.2195 1.47697 36.1108 0.762494 34.9255 0.424058C33.8359 0.123225 32.8801 0.085621 31.542 0.085621C22.4235 0.085621 16.8033 -0.816877 9.52003 3.94004L7.41724 5.53821C4.64538 8.1705 2.92492 10.3139 1.39562 14.1495C-0.707172 19.4141 -0.496893 26.8409 2.59994 32.0867C3.49841 33.6097 4.45422 35.1326 5.71589 36.3548C7.11138 37.7085 8.00985 38.6486 9.71119 39.7579L14.2035 42.6722Z" fill="#2E4E9F"/>
<path fill-rule="evenodd" clip-rule="evenodd" d="M27.3745 25.7506C25.5775 25.7506 25.7305 23.4943 27.2215 23.4943C28.2347 23.4943 28.6744 24.5848 28.0818 25.3181L27.3745 25.7506ZM23.6468 24.3404C23.6468 28.27 27.8141 29.0597 29.7831 27.1231C31.7521 25.1865 30.9492 21.0876 26.9539 21.0876C25.329 21.1064 23.6468 22.761 23.6468 24.3404Z" fill="black"/>
<path fill-rule="evenodd" clip-rule="evenodd" d="M43.9865 12.7582L43.9483 9.56186C44.4453 9.29863 50.7728 9.44905 51.461 9.44905C52.5888 9.44905 58.4193 9.37384 59.0119 9.48665C59.2986 9.9567 59.1266 16.0862 59.1266 16.763V66.2688C59.1266 66.7953 59.2795 67.7166 59.0119 68.1678C58.3811 68.2994 49.2244 68.2054 47.7524 68.2054C47.1216 68.2054 44.8276 68.3182 44.1203 68.149C43.8909 68.2054 43.6615 68.243 43.413 68.243C42.9351 68.243 42.4763 68.1114 42.0749 67.8858V69.9916L60.9235 70.0292L60.9618 7.62525L60.9235 7.58765L42.1131 7.62525L42.0749 62.0572C42.4763 61.8315 42.9351 61.6999 43.413 61.6999C43.5851 61.6999 43.7571 61.7187 43.91 61.7375L43.9292 61.0983C44.4071 60.8538 49.1288 60.9478 49.5111 61.023L49.5494 59.124C49.1479 59.1992 44.388 59.2933 43.9674 59.0488L43.9292 57.1498L46.9495 57.1122L46.9878 55.3448L43.9674 55.3072L43.9292 53.3706L49.5111 53.333L49.5494 51.3964C49.1479 51.4716 44.388 51.5656 43.9674 51.3212L43.9292 49.4974L46.8731 49.4598C47.0642 49.0838 47.026 48.012 46.9495 47.5984L43.9674 47.5608L43.9292 45.6242L49.5111 45.5866L49.5494 43.65L43.8909 43.6876L43.9292 41.751L46.9495 41.7134L46.9878 39.852L43.9674 39.8144L43.9292 37.8777L49.5111 37.8401L49.5494 35.9035L43.8909 35.9411L43.9292 34.0045L46.9495 33.9669L46.9878 32.1055L43.9674 32.0679L43.9292 30.1313L49.5111 30.0937L49.5494 28.1571L43.8909 28.1947L43.9292 26.3333C44.3306 26.1265 46.4716 26.1641 46.9304 26.2581L46.9687 24.3591L43.9483 24.3215L43.91 22.3849L49.492 22.3472L49.5302 20.5611L43.9483 20.5235L43.91 18.5868C44.3115 18.38 46.4525 18.4176 46.9304 18.5116L46.9687 16.6126C46.4716 16.7066 44.3306 16.7442 43.9483 16.5374L43.91 14.7136L49.5111 14.676L49.5494 12.8146L43.9865 12.7582Z" fill="black"/>
<path fill-rule="evenodd" clip-rule="evenodd" d="M51.9006 65.4791L57.7311 65.5167L57.7693 12.1753L51.9389 12.1377L51.9006 65.4791Z" fill="#2E4E9F"/>
</g>
<defs>
<clipPath id="clip0_1_1258">
<rect width="61" height="70" fill="white" transform="translate(0 0.0292969)"/>
</clipPath>
</defs>
</svg>
