<svg width="70" height="69" viewBox="0 0 70 69" fill="none" xmlns="http://www.w3.org/2000/svg">
<g clip-path="url(#clip0_1_1190)">
<path fill-rule="evenodd" clip-rule="evenodd" d="M51.7052 24.9409L51.718 22.7456L53.8943 22.7456L53.917 23.2559L53.9288 24.4529L53.8599 24.9409L51.7052 24.9409ZM46.0639 11.4191L47.565 9.93194L49.0957 11.4414L47.5296 12.9139L46.0639 11.4191ZM47.6674 37.7186C47.2166 37.5207 46.4547 36.6399 46.0511 36.2373L47.5847 34.7357L49.138 36.314L47.6674 37.7186ZM44.8315 16.6361C45.6101 17.8555 46.2844 18.8265 46.7795 20.5484C48.2029 25.5016 46.2824 30.1734 42.7536 33.1564C37.5612 37.5469 29.5113 36.2121 25.8742 31.8487C24.0857 29.7029 22.5954 27.1284 22.7834 23.251C23.0935 16.8524 28.3675 11.8779 34.8641 11.7916C38.8605 11.7392 41.1954 13.334 43.3934 15.0238C44.4171 16.0667 44.0706 15.6651 44.8315 16.6371L44.8315 16.6361ZM33.9084 7.39327L33.8926 5.198L36.1064 5.198L36.1103 5.72475L36.1251 6.92181L36.0375 7.39229L33.9084 7.39327ZM33.8916 42.4885L33.9349 40.2932L36.0749 40.2922L36.1103 40.787L36.1162 41.9831L36.0788 42.4885L33.8906 42.4885L33.8916 42.4885ZM20.9033 11.4297L22.4664 9.96201L23.936 11.453L22.433 12.945L20.9033 11.4297ZM22.2696 37.7691C21.8404 37.2123 21.3512 36.9523 20.8787 36.2451L22.4212 34.7337L23.9124 36.2723C23.4705 36.6904 22.8198 37.4742 22.2696 37.7691ZM16.0958 24.9418L16.1116 22.7466L18.2869 22.7466L18.3056 23.2568L18.3155 24.4529L18.2594 24.9418L16.0968 24.9418L16.0958 24.9418ZM15.9984 29.897C16.0771 30.8311 17.0762 32.4735 17.0762 32.8188C17.0762 33.1836 15.2995 35.2343 15.0396 35.8716C14.6321 36.8737 16.3714 38.1668 16.9748 38.7615C22.7371 44.4403 21.6268 44.3423 24.8111 42.1684C26.2532 41.1837 25.4893 41.3671 27.4314 42.1354C29.1629 42.8212 28.7731 42.2217 29.1274 44.3151C29.3243 45.4773 29.2692 46.8955 30.5518 46.8955L39.4462 46.8955C40.7121 46.8955 40.6609 45.5529 40.8519 44.4286C41.2033 42.3546 40.7278 42.8552 42.4701 42.1722C42.9938 41.9666 43.3629 41.726 43.7793 41.5834C44.7656 41.2468 46.4803 43.575 47.5316 43.575C48.5602 43.575 52.0713 39.6986 52.9562 38.8265C53.5902 38.2017 55.2566 36.9571 54.9761 35.9822C54.8147 35.4225 52.9228 33.0681 52.9228 32.9498C52.9228 32.5191 53.3077 31.939 53.4829 31.5092C53.6551 31.0882 53.9534 30.4538 54.0006 29.895C54.7546 29.8785 55.9644 29.5953 56.7951 29.4614C57.8051 29.2984 58.4479 29.1665 58.4479 27.9025L58.4479 19.8014C58.4479 18.1281 56.9763 18.2319 55.0755 17.9457C53.8933 17.7672 54.0479 17.7992 53.7142 16.7632C53.5902 16.3781 52.9228 15.0559 52.9228 14.8871C52.9228 13.6619 56.3118 12.1524 54.3747 10.2686C53.4228 9.34311 48.4057 4.12995 47.8013 4.12995C46.6949 4.12995 45.4172 5.42694 44.1622 6.25537C42.9967 5.64811 41.8775 5.35418 41.4966 5.16307C40.8607 4.84392 40.9158 3.68566 40.6639 2.13257C40.5428 1.38659 40.2947 0.81037 39.4452 0.81037L30.5508 0.810371C29.2101 0.810371 29.2446 2.59433 28.9808 4.31038C28.8508 5.15822 29.1727 4.89728 27.6047 5.47738C27.0938 5.66654 26.325 6.00025 25.8338 6.25537C25.3121 5.911 24.8288 5.51909 24.2707 5.1398C21.7164 3.4024 22.5481 3.44993 16.9729 8.94538C16.335 9.57399 14.7345 10.7255 15.0209 11.7237C15.206 12.3668 17.0742 14.566 17.0742 14.7561C17.0742 15.2411 16.5466 15.9852 16.3478 16.5633C15.6844 18.4928 16.1834 17.5004 12.7254 18.3066C11.9252 18.4928 11.5492 18.8828 11.5492 19.8034L11.5492 27.9044C11.5492 29.1684 12.1919 29.3004 13.2019 29.4633C14.0317 29.5972 15.2414 29.8805 15.9964 29.897L15.9984 29.897Z" fill="#3B4995"/>
<path fill-rule="evenodd" clip-rule="evenodd" d="M15.4584 66.5537L6.83366 66.5537C6.44879 66.5537 6.50292 66.3936 6.30606 66.1443L5.08253 64.4283C7.22444 64.4283 9.43034 64.4806 11.5624 64.4389C12.468 64.4215 12.4001 64.1887 13.472 63.1332C13.8008 62.8092 15.0558 61.7965 15.0558 61.3735L15.0558 54.3347C15.0558 53.9253 13.2958 52.4207 12.7338 51.8426C12.3322 51.4293 12.3873 51.3071 11.6973 51.2702C9.64591 51.1616 7.1831 51.2799 5.08351 51.2799C5.11501 51.1626 6.35429 49.1545 6.83563 49.1545L15.4604 49.1545C16.1386 49.1545 18.4213 52.3422 19.0995 52.3422L50.9044 52.3422C51.5826 52.3422 53.8652 49.1545 54.5434 49.1545L63.1682 49.1545C63.6633 49.1545 64.8908 51.1732 64.9203 51.2799C58.6826 51.2799 59.6581 50.5563 57.5417 52.6409C57.2346 52.9436 56.1607 53.7914 56.1607 54.2018L56.1607 61.5064C56.1607 61.9119 57.1746 62.7054 57.4748 63.0003C59.5586 65.054 58.282 64.4283 64.9203 64.4283C64.7215 64.7979 63.5363 66.5537 63.1682 66.5537L54.5434 66.5537C53.8593 66.5537 51.4536 63.2331 50.7705 63.2331L19.2353 63.2331C18.5512 63.2331 16.1455 66.5537 15.4624 66.5537L15.4584 66.5537ZM55.6183 68.811L53.6703 68.811C53.2077 68.746 53.0817 68.5026 52.2824 67.7158C51.8946 67.3336 50.4201 65.6244 49.9574 65.6244L20.0395 65.6244C19.254 65.6244 17.2942 68.6432 16.3916 68.8023L5.35027 68.812C5.24986 68.4395 5.01264 68.229 4.77345 67.9195L1.65408 63.822C1.33221 63.399 0.619547 62.6181 0.498474 62.1709L11.0004 62.1612C11.4541 62.0807 12.7613 60.7701 12.7613 60.4442L12.7613 55.265C12.7613 54.9381 11.4541 53.6285 11.0004 53.548L0.498473 53.5383C0.618562 53.0959 2.602 50.6416 2.92388 50.2177C3.31761 49.7007 5.23313 47.3259 5.34928 46.8972C8.35938 46.8972 11.3685 46.8972 14.3786 46.8972C16.9644 46.8972 16.3315 46.6304 17.7145 47.9933C18.1023 48.3755 19.5769 50.0848 20.0395 50.0848L49.9574 50.0848C50.7429 50.0848 52.7027 47.0659 53.6054 46.9069L64.6467 46.8972C64.7471 47.2697 64.9843 47.4802 65.2235 47.7896L67.0721 50.2177C67.4658 50.7347 69.3813 53.1095 69.4975 53.5383L59.9622 53.5703C59.6974 53.6421 58.4473 54.7644 58.4473 55.1321L58.4473 60.4442C58.4473 60.805 58.9228 61.1155 59.1541 61.3415C59.3293 61.5122 59.8028 62.0302 59.9957 62.1059C60.4121 62.2689 68.65 62.1709 69.4975 62.1709C69.3912 62.5628 68.5683 63.5242 68.2848 63.8976L65.8013 67.1609C65.4804 67.5839 64.7668 68.3648 64.6457 68.812L64.5049 68.812L64.3642 68.812L64.2234 68.812L64.0827 68.812L63.9419 68.812L63.8011 68.812L63.6604 68.812L63.5196 68.812L63.3788 68.812L63.2381 68.812L63.0973 68.812L62.9566 68.812L62.8158 68.812L62.6751 68.812L62.5343 68.812L62.3935 68.812L62.2528 68.812L62.112 68.812L61.9713 68.812L61.8305 68.812L61.6897 68.812L61.549 68.812L61.4082 68.812L56.4708 68.812L56.33 68.812L56.1893 68.812L56.0485 68.812L55.9077 68.812L55.767 68.812L55.6262 68.812L55.6183 68.811Z" fill="black"/>
<path fill-rule="evenodd" clip-rule="evenodd" d="M47.2638 58.8498L46.186 58.8498L46.186 56.7244L46.5905 56.7244C47.4075 56.7244 48.0208 56.8573 48.2442 57.4985C48.4677 58.1417 48.0838 58.8489 47.2648 58.8489L47.2638 58.8498ZM41.7388 58.8498L41.7388 56.7244L43.8954 56.7244L43.8954 58.8498L41.7388 58.8498ZM37.2915 58.8498L37.2915 56.7244L39.4482 56.7244L39.4482 58.8498L37.2915 58.8498ZM32.8443 58.8498L32.8443 56.7244L35.001 56.7244L35.001 58.8498L32.8443 58.8498ZM28.3971 58.8498L28.3971 56.7244L30.5537 56.7244L30.5537 58.8498L28.3971 58.8498ZM26.1065 57.1231L26.1065 58.8498C23.8327 58.8498 22.872 59.1729 22.872 57.7876C22.872 56.4974 24.5513 56.7254 25.7019 56.7254C26.012 56.7254 26.1065 56.8175 26.1065 57.1241L26.1065 57.1231ZM23.5463 61.1072L47.3997 61.1072C51.398 61.1072 52.281 54.467 46.4567 54.467L24.6251 54.467C23.3671 54.467 22.6367 54.6504 21.8512 55.1859C19.3914 56.8602 20.6326 61.1072 23.5472 61.1072L23.5463 61.1072Z" fill="black"/>
</g>
<defs>
<clipPath id="clip0_1_1190">
<rect width="68" height="69" fill="white" transform="translate(0.5 68.8105) rotate(-90)"/>
</clipPath>
</defs>
</svg>
