<svg width="56" height="72" viewBox="0 0 56 72" fill="none" xmlns="http://www.w3.org/2000/svg">
<g clip-path="url(#clip0_1_1234)">
<path fill-rule="evenodd" clip-rule="evenodd" d="M39.3838 4.71742L39.5579 7.0375H39.6546C42.2853 7.0375 45.0321 6.96017 47.6435 7.0375C47.6629 7.0375 47.7016 7.0375 47.7209 7.0375C53.7174 7.61752 53.582 11.987 53.582 16.7625V56.0493C53.582 61.5015 54.704 66.4317 50.6225 68.9065C48.9396 69.9312 45.6898 69.6798 43.7554 69.6798H43.562C33.1164 69.6798 22.6708 69.6798 12.2252 69.6798C9.30432 69.6798 7.58273 69.8925 5.62902 68.9838L5.60967 69.0225C1.12194 66.7024 2.41796 60.1868 2.41796 56.0493V16.7432C2.41796 14.1718 2.20518 11.9097 3.07565 10.2276L3.17237 10.2856C3.92677 8.44889 5.82245 7.36618 7.81486 7.07617C7.9696 7.05684 8.12435 7.0375 8.29845 7.01817C8.31779 7.01817 8.35648 7.01817 8.37582 7.01817C10.9872 6.94083 13.734 7.01817 16.3648 7.01817H16.4615L16.6356 4.69808C13.4245 4.69808 10.4069 4.3694 7.79551 4.69808C4.39102 4.77542 1.50881 7.21151 0.522281 10.2083C-0.212779 12.393 0.116063 20.1847 0.116063 22.8528C0.116063 34.3565 0.116063 45.8603 0.116063 57.364C0.116063 62.5842 -0.967184 67.8238 3.92677 70.8012C6.30605 72.2319 7.69879 71.9999 11.2774 71.9999H44.742C48.3399 71.9999 49.7326 72.2319 52.0926 70.8012C56.9865 67.8238 55.9033 62.5842 55.9033 57.364C55.9033 45.8603 55.9033 34.3565 55.9033 22.8528C55.9033 20.204 56.2128 12.393 55.4971 10.2083C54.4912 7.21151 51.6283 4.79475 48.2432 4.71742C45.6124 4.38874 42.5948 4.71742 39.3838 4.71742ZM6.24801 9.93761C6.36408 9.86027 6.48014 9.78294 6.61555 9.72494C7.42798 9.28025 7.8342 9.35759 9.2076 9.35759H9.24629C11.4708 9.35759 13.6953 9.35759 15.9005 9.35759H15.9972H16.1326H16.2294H16.2487H16.3454H16.3648H16.4421L16.6162 11.6777H16.5195C13.9275 11.6777 12.0511 11.6197 10.6777 11.6197C9.67185 11.6197 8.80138 11.6583 8.29845 11.7163C8.12435 11.7357 7.98895 11.7743 7.85354 11.8323C7.36995 12.0837 7.15717 12.683 7.11848 13.3211L7.04111 13.2631C7.02176 13.7658 7.06045 14.4424 7.06045 15.2931V60.5348C7.06045 63.7443 6.53817 64.943 8.7627 65.0203C15.1655 65.0203 21.5876 64.9623 27.9903 64.9817C34.4124 64.9623 40.8152 65.0203 47.218 65.0203C49.4425 64.943 48.9202 63.7249 48.9202 60.5348V15.2931C48.9202 11.3877 48.6687 11.639 45.3029 11.6003C43.9295 11.6003 42.0339 11.6583 39.4611 11.6583H39.3644L39.5385 9.33825H39.6352H39.6546H39.7513H39.7706H39.8674H40.0028H40.0995C40.9119 9.33825 48.1078 8.99024 49.4038 9.7056C50.2743 10.1116 51.0093 11.059 51.2221 12.0064C51.4542 13.0504 51.2801 57.9827 51.2801 61.9655C51.2801 63.9956 51.5896 65.929 49.2491 67.0504C47.895 67.6884 44.3551 67.3404 42.4207 67.3404H13.5986C11.6836 67.3404 8.12435 67.6884 6.7703 67.0504C4.42971 65.929 4.73921 64.015 4.73921 61.9655C4.73921 57.9827 4.56511 13.0504 4.79724 12.0064C4.99067 11.1363 5.59033 10.363 6.24801 9.93761Z" fill="black"/>
<path fill-rule="evenodd" clip-rule="evenodd" d="M16.5195 4.71749L16.3454 7.03758V9.35766L16.5195 11.6777C16.8484 12.4898 17.1966 13.0311 17.9896 13.5145C19.0149 14.1332 19.4598 13.9978 20.9879 13.9978H34.7606C36.695 13.9978 38.4166 14.1138 39.3644 11.6777L39.5385 9.35766V7.03758L39.3644 4.71749C38.3972 2.2814 36.7143 2.3974 34.7606 2.3974C33.1938 -0.58004 31.7237 0.0773177 27.9516 0.0773177C24.2763 0.0773177 22.7288 -0.638042 21.1427 2.3974C19.6532 2.3974 19.0922 2.26207 18.1057 2.84209C17.2739 3.28677 16.8677 3.84746 16.5195 4.71749Z" fill="#2E4E9F"/>
<path fill-rule="evenodd" clip-rule="evenodd" d="M18.6667 23.9935L17.0998 22.3694L15.5136 24.0321L18.628 27.2223C19.4211 26.5262 20.1368 25.8689 20.9879 25.3082V27.9183H14.0242V20.958H20.9879C20.9879 22.3694 21.0846 22.0601 19.9434 22.9688C19.4985 23.3168 19.1503 23.6648 18.6667 23.9935ZM11.7029 30.2384H23.3092V23.5681C23.3092 22.9881 25.9012 21.3447 26.3461 20.668C26.114 20.32 25.1855 19.1406 24.8953 18.928C24.0055 19.508 23.9862 19.7206 23.3092 20.088V18.6379H11.7029V30.2384Z" fill="black"/>
<path fill-rule="evenodd" clip-rule="evenodd" d="M27.9516 27.9185H39.5578V30.2386H27.9516V32.5586H44.2003V30.2386H41.8791V27.9185H44.2003V25.5984H27.9516V27.9185Z" fill="#2E4E9F"/>
<path fill-rule="evenodd" clip-rule="evenodd" d="M27.9516 41.8196H39.5578V44.1397H27.9516V46.4598H44.2003V44.1397H41.8791V41.8196H44.2003V39.4995H27.9516V41.8196Z" fill="#2E4E9F"/>
<path fill-rule="evenodd" clip-rule="evenodd" d="M27.9516 55.74H39.5578V58.0601H41.8791V55.74H44.2003V53.4199H27.9516V55.74Z" fill="#2E4E9F"/>
<path fill-rule="evenodd" clip-rule="evenodd" d="M27.9516 23.2781H44.2003V20.958H27.9516V23.2781Z" fill="#2E4E9F"/>
<path fill-rule="evenodd" clip-rule="evenodd" d="M27.9516 37.1987H44.2003V34.8787H27.9516V37.1987Z" fill="#2E4E9F"/>
<path fill-rule="evenodd" clip-rule="evenodd" d="M27.9516 51.0999H44.2003V48.7798H27.9516V51.0999Z" fill="#2E4E9F"/>
<path fill-rule="evenodd" clip-rule="evenodd" d="M27.9516 20.958H44.2003V18.6379H27.9516V20.958Z" fill="black"/>
<path fill-rule="evenodd" clip-rule="evenodd" d="M27.9516 25.5982H44.2003V23.2781H27.9516V25.5982Z" fill="black"/>
<path fill-rule="evenodd" clip-rule="evenodd" d="M27.9516 34.8787H44.2003V32.5586H27.9516V34.8787Z" fill="black"/>
<path fill-rule="evenodd" clip-rule="evenodd" d="M27.9516 39.4995H44.2003V37.1987H27.9516V39.4995Z" fill="black"/>
<path fill-rule="evenodd" clip-rule="evenodd" d="M27.9516 48.7798H44.2003V46.4597H27.9516V48.7798Z" fill="black"/>
<path fill-rule="evenodd" clip-rule="evenodd" d="M27.9516 53.4199H44.2003V51.0999H27.9516V53.4199Z" fill="black"/>
<path fill-rule="evenodd" clip-rule="evenodd" d="M39.5578 58.0601V55.74H27.9516V58.0601H39.5578Z" fill="black"/>
<path fill-rule="evenodd" clip-rule="evenodd" d="M27.9516 30.2385H39.5578V27.9185H27.9516V30.2385Z" fill="black"/>
<path fill-rule="evenodd" clip-rule="evenodd" d="M27.9516 44.1397H39.5578V41.8196H27.9516V44.1397Z" fill="black"/>
<path fill-rule="evenodd" clip-rule="evenodd" d="M44.2003 44.1397V41.8196H41.8791V44.1397H44.2003Z" fill="black"/>
<path fill-rule="evenodd" clip-rule="evenodd" d="M41.8791 58.0601H44.2003V55.74H41.8791V58.0601Z" fill="black"/>
<path fill-rule="evenodd" clip-rule="evenodd" d="M44.2003 30.2385V27.9185H41.8791V30.2385H44.2003Z" fill="black"/>
<path fill-rule="evenodd" clip-rule="evenodd" d="M18.6667 37.9142L17.0998 36.2901L15.5136 37.9528L18.628 41.143C19.4211 40.4469 20.1368 39.7896 20.9879 39.2289V41.839H14.0242V34.8787H20.9879C20.9879 36.2901 21.0846 35.9808 19.9434 36.8895C19.4985 37.2375 19.1503 37.5855 18.6667 37.9142ZM11.7029 44.1397H23.3092V37.4695C23.3092 36.8895 25.9012 35.2461 26.3461 34.5694C26.114 34.2214 25.1855 33.042 24.8953 32.8293C24.0055 33.4093 23.9862 33.622 23.3092 33.9894V32.5393H11.7029V44.1397Z" fill="black"/>
<path fill-rule="evenodd" clip-rule="evenodd" d="M18.6667 51.8346L17.0998 50.2105L15.5136 51.8732L18.628 55.0634C19.4211 54.3673 20.1368 53.71 20.9879 53.1493V55.7594H14.0242V48.7991H20.9879C20.9879 50.2105 21.0846 49.9012 19.9434 50.8099C19.4985 51.1579 19.1503 51.5059 18.6667 51.8346ZM11.7029 58.0601H23.3092V51.3899C23.3092 50.8099 25.9012 49.1665 26.3461 48.4898C26.114 48.1418 25.1855 46.9624 24.8953 46.7497C24.0055 47.3297 23.9862 47.5424 23.3092 47.9098V46.4597H11.7029V58.0601Z" fill="black"/>
</g>
<defs>
<clipPath id="clip0_1_1234">
<rect width="56" height="72" fill="white"/>
</clipPath>
</defs>
</svg>
