<svg width="62" height="71" viewBox="0 0 62 71" fill="none" xmlns="http://www.w3.org/2000/svg">
<g clip-path="url(#clip0_1_1225)">
<path fill-rule="evenodd" clip-rule="evenodd" d="M24.0993 44.7597C24.7394 44.4223 26.2456 44.5723 27.0552 44.5723C30.1052 44.5723 32.0444 45.0408 34.4919 46.7838C36.6382 48.3206 38.7469 51.1881 39.0104 55.1051C33.5694 55.1051 30.6512 55.4986 26.7163 52.0689C25.3419 50.8695 23.6286 48.0957 23.4215 46.1466C23.7416 46.3902 24.137 46.8775 24.8712 47.421C27.5447 49.3889 26.8669 47.9458 27.733 50.1011C27.8836 50.4571 28.3731 51.844 28.5614 52.0314L29.7286 51.6004L29.032 49.7825C29.3144 49.8574 31.0277 50.6258 31.1407 50.7945C31.2348 50.9444 31.6867 52.8936 31.7996 53.2684L33.0611 52.9873L32.741 51.5816C33.3435 51.8065 34.2848 52.425 34.7743 52.7624C35.3956 53.1934 36.4499 54.1118 36.6947 54.2242L37.5043 53.3996C37.0148 52.3501 33.7388 50.6446 33.5129 50.4197L34.699 49.7825C34.6049 49.4264 34.3225 48.8454 34.0965 48.6392C33.72 48.8079 33.3246 49.014 32.9481 49.2015C32.5715 49.3889 32.1385 49.745 31.7432 49.5763C31.3478 49.4076 30.9336 49.2015 30.557 49.014C30.1428 48.8079 29.7286 48.658 29.3333 48.4331L31.4419 47.1399C31.3101 46.8025 30.9901 46.2965 30.7641 46.0154C30.0299 46.3715 28.9379 47.1211 28.1472 47.5709C27.733 47.8146 27.6012 47.5709 27.187 47.346C26.2268 46.8213 25.4737 46.3153 24.7583 45.5656C24.1746 44.9471 24.5323 45.4344 24.0993 44.7597ZM35.9793 39.0435C36.2428 39.1747 36.4123 39.3059 36.6382 39.4558C36.883 39.6245 37.1089 39.7182 37.3725 39.8869C38.8222 40.7677 41.9851 41.7048 43.6984 42.4732C44.6398 42.8855 45.7882 43.4103 46.5978 44.0288L47.878 45.0596L48.7629 44.1412C47.8969 42.8106 44.508 41.3487 43.1524 40.8052C42.0604 40.3742 41.0061 40.0181 39.9141 39.587C39.1987 39.3059 37.316 38.4812 36.9583 37.994C40.4413 37.994 43.2465 37.5442 46.2212 39.3059C48.3111 40.5616 50.1938 43.3353 50.1938 45.8842C48.4617 45.8842 46.7296 45.8842 44.9786 45.8842C42.2675 45.8842 40.0459 45.1345 38.2573 43.3541C37.2783 42.3608 35.9981 40.3742 35.9793 39.0435ZM13.236 19.5335C15.3635 19.5335 19.4302 20.5642 21.4259 21.3514C25.4737 22.9444 29.1073 25.4933 29.1073 30.4036C29.1073 31.5468 28.8438 32.2965 28.4484 33.0462L25.982 30.2349C25.3796 29.6727 25.6431 29.3728 25.7185 28.0234C25.7749 27.1238 25.7938 26.3742 25.7938 25.4746L24.4759 25.3996C24.4759 25.7557 24.4006 25.7369 24.3817 26.1305L24.3064 28.5294C24.0617 28.3795 23.704 28.0609 23.4969 27.8547C20.8046 25.1372 21.1623 27.1613 21.1623 22.8507H19.8444V24.6687C19.2043 24.2563 18.6771 23.7128 18.0558 23.2256L16.7191 22.0823C16.5308 21.9136 16.4931 21.8387 16.286 21.6887L15.4012 22.6071C15.5706 22.8507 15.853 23.1318 16.1166 23.338C16.4367 23.6004 16.6438 23.7878 16.9638 24.0502L18.6018 25.4558H15.2129V26.7677H20.0891C20.3339 26.7677 20.7293 27.2175 20.8987 27.3487C21.1811 27.5736 21.3882 27.761 21.6706 27.9859C21.9719 28.2296 22.932 29.0729 23.1391 29.3916H17.2086V30.7035H24.4759C24.7394 30.7035 25.2478 31.4157 25.6996 31.8654C25.8879 32.0529 25.9067 32.1278 26.0762 32.3153C26.6033 32.9337 27.0552 33.4397 27.5447 34.1519C26.6033 34.7891 25.7373 35.2952 24.4759 35.2952C15.1564 35.3327 13.236 28.0234 13.236 19.5335ZM46.9743 24.7624C44.9222 24.5375 43.6796 23.4505 42.8135 22.3634C41.6274 20.8641 41.6839 19.1399 41.6839 16.9471C43.6419 17.172 45.0728 18.2778 45.8447 19.346C47.0308 20.9953 46.9743 22.4572 46.9743 24.7624ZM40.3472 34.1144C40.1212 34.3956 39.1046 35.0328 38.6904 35.1827C38.6715 35.2015 38.6527 35.2015 38.6339 35.2202C38.6339 35.2389 38.5962 35.2577 38.5774 35.2577C38.5586 35.2764 38.5021 35.3139 38.4833 35.3327L36.8641 36.2885C36.337 36.6071 31.5361 39.2871 31.0654 39.3996C31.0654 38.575 30.6323 37.263 30.3876 36.6071C30.0864 35.8199 29.2768 34.4331 29.2391 34.2831C29.8228 33.421 30.4064 32.4277 30.4064 30.9846C30.4064 29.1104 30.3688 28.4545 29.8981 27.0489C28.166 21.8199 21.2188 19.4397 16.1354 18.5214C13.8009 18.1091 14.2151 18.2215 11.8805 18.2215C11.8805 23.6754 11.937 28.6794 15.2317 32.915C17.3592 35.6513 21.407 36.9444 25.0219 36.6633C26.3962 36.5509 27.3564 35.9511 28.2413 35.3514C29.0132 36.8132 29.7286 38.2189 29.7286 40.1305L20.5222 45.3782L18.47 46.8025C18.2629 47.0837 17.9428 47.2711 17.6416 47.5335C17.4722 47.6646 17.378 47.7209 17.2274 47.8708C16.9827 48.1144 17.1144 48.077 16.8132 48.1894C16.2484 49.0328 13.8385 50.6446 13.8385 53.7932H15.1564C15.1941 52.0689 16.5496 50.2885 17.7357 49.2015L20.8046 46.8213C21.1058 46.6151 21.5765 46.2215 21.9342 46.1278C22.4237 48.2456 22.9509 49.5201 24.0428 51.0944C26.2456 54.2617 29.3709 55.836 33.1175 56.3795C33.8141 56.4732 39.1234 56.417 40.2719 56.417C40.2719 52.931 39.5941 50.4759 37.3913 47.7584C36.1111 46.2028 34.4166 44.9659 32.5527 44.1787C30.4817 43.3166 29.0697 43.2416 26.7916 43.2416C26.9046 43.1479 26.8104 43.2041 26.9799 43.1104C28.1472 42.417 30.1993 41.4237 31.5549 40.674C31.8938 40.4866 32.195 40.3742 32.5339 40.168C33.174 39.7932 33.833 39.4746 34.4731 39.1372C34.4919 40.0555 35.245 41.6861 35.7722 42.5294C35.9793 42.8668 36.1864 43.1104 36.4311 43.4478C37.203 44.4786 38.2573 45.3219 39.3682 45.9592C41.4768 47.1399 42.7382 47.2148 45.2046 47.2148C47.2944 47.2148 49.403 47.2148 51.4928 47.2148C51.4928 43.4853 50.6644 41.6486 48.0851 39.081C46.6543 37.6754 43.9808 36.6633 41.8157 36.682C40.8178 36.682 39.8388 36.682 38.841 36.682L41.8345 34.7329C42.324 34.3956 42.7759 34.0395 43.2654 33.6834C43.7549 33.3086 44.1502 32.8962 44.6398 32.5776C44.7715 32.2403 45.2611 31.9217 45.5246 31.6406C45.6941 31.4719 46.2401 30.8347 46.3719 30.7597C46.5601 30.4036 46.7484 30.2349 46.9932 29.8976C47.6144 28.9792 48.1981 27.5924 48.1981 26.4116C48.1981 24.425 48.4052 22.0261 47.8404 20.508C47.2567 18.9712 46.4283 17.8467 45.1857 16.9659C43.529 15.7664 42.2675 15.6165 40.253 15.6165C40.253 18.5027 39.8388 20.5455 41.4768 22.9632C42.5311 24.5187 44.4703 25.9618 46.8614 26.1493C46.8237 28.0796 45.5811 29.6914 44.3573 30.9096C44.0561 31.2095 43.7549 31.5468 43.4348 31.8092C42.6629 32.4464 41.3073 33.6272 40.3472 34.1144Z" fill="black"/>
<path fill-rule="evenodd" clip-rule="evenodd" d="M34.4919 46.7838C32.0444 45.0408 30.0864 44.5723 27.0552 44.5723C26.2456 44.5723 24.7583 44.4223 24.0993 44.7597C24.5323 45.4344 24.1935 44.9658 24.7394 45.5468C25.4549 46.2965 26.2268 46.7838 27.1681 47.3273C27.5823 47.5709 27.7141 47.7958 28.1283 47.5522C28.9191 47.1211 30.011 46.3527 30.7453 45.9966C30.9524 46.2778 31.2913 46.7838 31.4231 47.1211L29.3144 48.4143C29.7286 48.6392 30.1428 48.7891 30.5382 48.9953C30.9147 49.1827 31.3289 49.4076 31.7243 49.5575C32.1385 49.7262 32.5715 49.3514 32.9293 49.1827C33.3058 48.9953 33.7012 48.7891 34.0777 48.6205C34.3036 48.8266 34.5672 49.4264 34.6802 49.7637L33.4941 50.4009C33.72 50.6258 36.9959 52.3313 37.4854 53.3808L36.6759 54.2055C36.4311 54.1118 35.3956 53.1747 34.7555 52.7436C34.2472 52.4063 33.3246 51.7691 32.7222 51.5629L33.0422 52.9685L31.7808 53.2496C31.6867 52.8748 31.216 50.9257 31.1218 50.7757C31.0089 50.6071 29.2956 49.8387 29.0132 49.7637L29.7098 51.5816L28.5425 52.0127C28.3543 51.8065 27.8647 50.4384 27.7141 50.0823C26.8481 47.927 27.5259 49.3889 24.8524 47.4023C24.1181 46.8587 23.7228 46.3715 23.4027 46.1278C23.6098 48.0957 25.3231 50.8507 26.6975 52.0502C30.6323 55.4986 33.5505 55.0863 38.9916 55.0863C38.7468 51.1881 36.6382 48.3019 34.4919 46.7838Z" fill="#2E4E9F"/>
<path fill-rule="evenodd" clip-rule="evenodd" d="M38.7092 35.1826C39.1234 35.0326 40.1401 34.3954 40.366 34.1143C40.4037 31.7529 40.3472 30.3098 38.8034 28.4168C38.295 27.7984 37.5043 27.2174 36.77 26.8238C35.904 26.3553 34.7932 26.1304 33.7389 26.1304C33.7389 28.9604 33.5318 30.3472 34.6802 32.1839C35.3956 33.3459 36.2052 34.0581 37.4102 34.6578C38.1444 35.0139 38.3139 34.9952 38.7092 35.1826Z" fill="#2E4E9F"/>
<path fill-rule="evenodd" clip-rule="evenodd" d="M46.9743 24.7623C46.9743 22.4571 47.0308 20.9952 45.8447 19.346C45.0728 18.2777 43.6419 17.1532 41.6839 16.947C41.6839 19.1211 41.6463 20.864 42.8135 22.3634C43.6796 23.4504 44.9222 24.5374 46.9743 24.7623Z" fill="#2E4E9F"/>
<path fill-rule="evenodd" clip-rule="evenodd" d="M44.7339 32.54C46.2589 35.3513 48.9512 34.6766 52.2647 34.6766C52.2647 33.1023 51.5305 32.1277 50.6268 31.453C49.4219 30.5721 48.4617 30.7221 46.4848 30.7221C46.353 30.797 45.7882 31.4155 45.6376 31.6029C45.3552 31.9028 44.8845 32.2027 44.7339 32.54Z" fill="#2E4E9F"/>
<path fill-rule="evenodd" clip-rule="evenodd" d="M16.8697 48.1894C17.171 48.0769 17.0392 48.0957 17.2839 47.8708C17.4345 47.7209 17.5287 47.6646 17.6981 47.5334C17.9994 47.2711 18.3194 47.0836 18.5265 46.8025C18.5642 44.9096 18.4512 44.4223 17.6228 43.3353C16.945 42.4357 15.7777 41.9297 14.554 41.9297C14.554 44.2536 14.2339 45.753 15.6083 47.3085C15.9284 47.6459 16.4367 47.9645 16.8697 48.1894Z" fill="#2E4E9F"/>
<path fill-rule="evenodd" clip-rule="evenodd" d="M2.69285 31.172V16.2724C2.69285 11.5495 7.32434 12.4866 8.88699 12.3179C18.903 11.2122 22.9132 8.96316 30.9336 3.62179C34.1342 5.30854 35.4898 6.93906 40.5731 9.18806C43.1901 10.35 45.4493 11.0435 48.3111 11.6057C50.8339 12.1118 50.6268 11.9431 52.7731 12.2242C54.3358 12.4304 56.0679 12.093 57.3293 12.749C58.3648 13.2737 59.1743 14.417 59.1743 15.9725C59.1743 22.1198 59.5509 33.0274 58.5342 38.6686C57.4234 44.7972 54.7876 50.8882 50.8904 55.6673C48.4052 58.7035 45.7882 61.3835 42.4935 63.6138C40.1589 65.1881 34.5484 68.5616 30.9336 68.5616C27.074 68.5616 19.7314 64.2322 17.1333 61.927C14.9305 59.9591 13.8574 59.1345 11.9182 56.848C8.99995 53.3996 6.72187 49.4826 5.12156 45.2095C3.61538 41.2362 2.69285 36.5883 2.69285 31.172ZM0.433594 15.429V33.2711C0.433594 38.2188 1.88329 43.504 3.33298 47.1024C5.94995 53.6057 8.99995 57.3166 13.5938 61.9083C14.328 62.6392 15.0435 63.2014 15.853 63.8761C18.8654 66.2938 26.0385 70.8105 30.0675 70.8105C33.5694 70.8105 34.7555 70.4357 38.0691 68.8052C39.0481 68.3179 39.933 67.9243 40.8555 67.3621L43.4725 65.7503C46.7296 63.4638 49.7419 60.8213 52.2083 57.7289C57.4046 51.2068 61.3959 42.3607 61.3959 33.2898V15.2978C61.3959 13.5736 60.5111 12.5053 59.6074 11.6057C58.5719 10.5749 57.4987 10.0877 55.4654 10.1064L50.3067 9.61911C46.0141 9.00064 41.3638 7.31389 37.8055 5.19609C37.1654 4.82126 36.7135 4.52139 36.0546 4.12782L32.628 1.93504C32.0632 1.5977 31.4796 1.18538 30.9336 0.810547C24.57 5.0649 19.8821 8.47587 11.5604 9.63786C9.97896 9.86276 7.87032 10.1064 6.36415 10.0877C2.89995 10.0502 0.433594 12.7302 0.433594 15.429Z" fill="black"/>
<path fill-rule="evenodd" clip-rule="evenodd" d="M7.21135 31.3033V16.8347C12.5583 16.8347 16.7567 16.0476 21.1623 14.417C25.2666 12.899 27.5259 11.4933 30.9336 9.24435C34.4919 11.6058 36.3934 12.7865 40.5919 14.3796C44.9033 16.0288 49.403 16.8347 54.6558 16.8347V31.4532C54.6558 42.0235 50.4197 50.1948 44.3197 56.2859L42.4746 57.9726C41.8345 58.5161 41.1755 59.0034 40.4789 59.5094C39.7447 60.0342 39.1422 60.4278 38.3703 60.915C36.6947 61.9458 35.5462 62.5268 33.72 63.2952C33.2681 63.4826 32.9104 63.6326 32.4962 63.7638C30.1052 64.5134 28.1848 63.3889 25.7749 62.1895C14.4033 56.5482 7.21135 44.4786 7.21135 31.3033ZM4.95209 16.5536V33.2711C4.95209 37.5817 6.21351 42.0797 7.4561 45.2658C9.84715 51.3943 14.8175 57.8789 20.3715 61.646C21.8589 62.658 23.2709 63.5576 24.9654 64.3822C30.1052 66.9311 31.7055 66.9873 36.8265 64.4197C41.6274 62.0208 43.7925 60.0154 47.2944 56.567C49.8737 54.0369 53.0367 48.7705 54.3922 45.3595C55.5972 42.2296 56.9151 37.6004 56.9151 33.2711V16.5536C56.9151 15.5978 55.9737 14.5857 54.3734 14.5857L50.1561 14.2859C44.6962 13.6861 41.0814 12.243 36.4311 9.95653C34.4919 8.98197 32.6845 7.59509 30.9336 6.43311C26.7539 9.20687 24.2499 10.9873 19.1289 12.6741C16.8697 13.4237 12.2005 14.4733 9.62122 14.4545C8.5669 14.4545 6.47709 14.492 5.76166 15.1105C5.40394 15.4291 4.95209 15.9539 4.95209 16.5536Z" fill="black"/>
</g>
<defs>
<clipPath id="clip0_1_1225">
<rect width="61" height="70" fill="white" transform="translate(0.433594 0.810547)"/>
</clipPath>
</defs>
</svg>
