<svg width="76" height="59" viewBox="0 0 76 59" fill="none" xmlns="http://www.w3.org/2000/svg">
<g clip-path="url(#clip0_1_1208)">
<path fill-rule="evenodd" clip-rule="evenodd" d="M24.2227 8.12639H50.8828V20.1244H43.5586V22.602H50.8828V27.2841H48.4023C48.4023 30.4836 47.8555 29.9178 50.8828 29.9178V34.6H43.5586V37.0971H50.8828V49.0951H24.2227V37.0971H31.5469V34.6195H24.2227V29.9374H31.1172C31.8008 29.9374 31.5664 29.0399 31.5664 27.3037H24.2422V22.6215H31.5664V20.1244H24.2422V8.12639H24.2227ZM28.9102 3.28818H46.1953C46.7031 3.28818 47.2305 4.82938 47.6602 5.62925H27.4453C27.875 4.82938 28.4023 3.28818 28.9102 3.28818ZM24.6719 5.62925C22.8164 5.62925 21.7422 6.48764 21.7422 8.39952V20.1049H8.69531C3.71484 20.1049 3.73438 12.9451 8.53906 12.9451C10.1406 12.9451 10.0234 15.2862 8.40234 15.2862H7.23047V17.7833H8.40234C13.5586 17.7833 13.0898 10.4675 8.83203 10.4675C6.78125 10.4675 5.45312 10.9357 4.10547 12.3208C0.414063 16.1641 3.14844 22.602 8.53906 22.602H21.7422V34.6H6.05859C2.875 34.6 0.0625 37.4288 0.0625 40.16C0.0625 42.306 0.277344 43.3595 1.85937 44.9592C4.61328 47.71 9.73047 47.5344 9.73047 42.7937C9.73047 40.9404 7.99219 39.4382 6.07812 39.4382H4.90625V41.9158C5.86328 41.9158 7.25 41.7012 7.25 43.0864C7.25 45.3299 2.5625 44.3544 2.5625 40.4527C2.5625 38.5993 4.30078 37.0971 6.21484 37.0971H21.7422V49.8169C21.7422 50.0901 21.5078 50.4412 21.3906 51.4752H53.7734C53.7344 50.5388 53.3633 50.1096 53.3633 49.8169V37.0971H68.8906C70.9805 37.0971 72.543 38.5798 72.543 40.9014C72.543 43.9643 67.8555 45.486 67.8555 43.0864C67.8555 41.7012 69.2422 41.9158 70.1992 41.9158V39.4382H69.0273C64.125 39.4382 64.1445 46.754 69.0273 46.754C72.2695 46.754 75.0234 43.9057 75.0234 41.194C75.0234 38.931 74.7891 37.975 73.1484 36.3363C72.5625 35.751 72.25 35.4974 71.4101 35.1462C70.6875 34.8341 69.9648 34.6195 69.0078 34.6195H53.3828V29.9374H64.9453C65.6289 29.9374 65.375 29.0399 65.375 27.3037H53.3828V22.6215H66.5664C71.8594 22.6215 74.6914 16.3201 71.0781 12.4184C68.0703 9.17987 62.9141 10.1358 62.9141 14.1351C62.9141 16.1641 64.6523 17.7833 66.7226 17.7833H67.8945V15.2862C67.2305 15.2862 65.4141 15.4617 65.4141 14.1156C65.4141 11.7355 70.5117 13.1597 70.2188 16.7103C70.0625 18.6027 68.5781 20.1049 66.4492 20.1049H53.3828V8.26295C53.3828 6.44862 52.1719 5.62925 50.4531 5.62925C49.418 3.67836 48.5977 0.810547 46.8008 0.810547H28.3437C26.5273 0.810547 25.707 3.65885 24.6719 5.62925Z" fill="black"/>
<path fill-rule="evenodd" clip-rule="evenodd" d="M24.1836 53.9723H51.0195C50.5508 54.8502 49.7695 56.3134 48.832 56.3134H26.3711C25.6484 56.3134 25.375 55.8647 25.082 55.416C24.75 54.9088 24.457 54.4991 24.1836 53.9723ZM53.7734 51.3582C53.832 51.7093 53.793 52.2556 53.793 52.6652C53.793 54.9088 51.7422 58.8106 48.9688 58.8106H25.9414C24.457 58.8106 23.4414 57.484 22.7969 56.528C21.8008 55.0258 20.9805 53.2115 21.3906 51.3582H53.7734Z" fill="black"/>
<path fill-rule="evenodd" clip-rule="evenodd" d="M36.3906 41.3306C36.8594 41.6428 38.4414 43.1645 38.5781 43.6717C38.3438 44.0229 38.1484 44.257 37.5625 44.257C36.0977 44.257 36.3906 42.7548 36.3906 41.3306ZM36.3906 35.3414C37.0547 35.7901 37.582 36.4729 38.1875 37.0582C39.0078 37.8385 38.7344 37.9946 38.7344 40.0235C38.0703 39.5748 37.543 38.892 36.9375 38.3068C36.1172 37.5264 36.3906 37.3703 36.3906 35.3414ZM36.3906 29.1961C37.0547 29.6448 37.582 30.3276 38.1875 30.9129C39.0078 31.6932 38.7344 31.9273 38.7344 34.0343C38.0703 33.5856 37.543 32.9028 36.9375 32.3175C36.4688 31.8688 36.3906 31.9664 36.3711 31.1275C36.3711 30.4837 36.3906 29.8204 36.3906 29.1961ZM36.3906 23.1873C37.0547 23.6361 37.582 24.3189 38.1875 24.9041C38.6562 25.3528 38.7344 25.2553 38.7539 26.0942C38.7734 26.6599 38.7344 27.2842 38.7344 27.8695C38.0703 27.4208 37.543 26.738 36.9375 26.1527C36.1172 25.3919 36.3906 25.2163 36.3906 23.1873ZM36.3906 17.1981C37.0547 17.6468 37.582 18.3296 38.1875 18.9149C39.0078 19.6953 38.7344 19.8513 38.7344 21.8802C38.0703 21.4315 37.543 20.7487 36.9375 20.1635C36.1172 19.3831 36.3906 19.227 36.3906 17.1981ZM36.5273 13.5304C36.7617 13.1793 36.957 12.9452 37.543 12.9452C39.0078 12.9452 38.7148 14.4474 38.7148 15.8715L36.9961 14.2328C36.4688 13.706 36.6055 13.6865 36.5273 13.5304ZM33.8906 14.1157V43.0864C33.8906 47.9246 41.2148 47.9246 41.2148 43.0864V14.1157C41.2148 9.25798 33.8906 9.25798 33.8906 14.1157Z" fill="black"/>
<path fill-rule="evenodd" clip-rule="evenodd" d="M4.88672 29.4887C4.88672 29.8203 4.98437 29.9179 5.31641 29.9179H19.3789V27.2842H4.88672V29.4887Z" fill="black"/>
<path fill-rule="evenodd" clip-rule="evenodd" d="M58.207 4.45871C58.207 2.15666 61.7031 3.69787 60.1602 5.23907C59.457 5.9609 58.207 5.55121 58.207 4.45871ZM55.7266 4.02952V4.75135C55.7266 8.3605 61.0977 9.35545 62.6211 6.07795C63.9687 3.19063 61.5859 0.810547 59.6914 0.810547H58.9688C57.4258 0.810547 55.7266 2.50782 55.7266 4.02952Z" fill="black"/>
<path fill-rule="evenodd" clip-rule="evenodd" d="M15.7266 3.28818C18.0117 3.28818 16.5273 6.81929 14.9453 5.23907C14.2812 4.57577 14.6523 3.28818 15.7266 3.28818ZM12.0742 4.45871C12.0742 5.33662 12.543 6.33157 13.207 6.99487C15.8047 9.58956 19.3984 7.24849 19.3984 4.75135V4.02952C19.3984 2.48831 17.7188 0.810547 16.1758 0.810547C14.9844 0.810547 13.8906 0.966618 13.0703 1.96157C12.6406 2.4688 12.0742 3.58081 12.0742 4.45871Z" fill="black"/>
<path fill-rule="evenodd" clip-rule="evenodd" d="M70.2188 28.6109C70.2188 27.1672 72.5625 26.9331 72.5625 28.6109C72.5625 30.3667 70.2188 29.8985 70.2188 28.6109ZM67.7383 28.6109C67.7383 30.4447 69.3398 32.259 71.3906 32.259C73.5586 32.259 75.043 30.6983 75.043 28.3182C75.043 25.2358 70.7656 23.8117 68.793 26.0162C68.2852 26.5819 67.7383 27.5964 67.7383 28.6109Z" fill="black"/>
<path fill-rule="evenodd" clip-rule="evenodd" d="M0.0625 29.9178C3.05078 29.9178 2.54297 30.4056 2.54297 27.7328C2.54297 27.05 1.72266 27.3036 0.0625 27.3036V29.9178Z" fill="black"/>
<path fill-rule="evenodd" clip-rule="evenodd" d="M55.7266 44.413C58.7148 44.413 58.207 44.9007 58.207 42.228C58.207 41.5451 57.3867 41.7988 55.7266 41.7988V44.413Z" fill="black"/>
<path fill-rule="evenodd" clip-rule="evenodd" d="M16.8984 42.2085C16.8984 44.8813 16.3906 44.3935 19.3789 44.3935V41.7793C17.7383 41.7793 16.8984 41.5452 16.8984 42.2085Z" fill="black"/>
<path fill-rule="evenodd" clip-rule="evenodd" d="M43.5586 29.4887C43.5586 30.1325 44.1836 29.9179 45.6094 29.9179C46.293 29.9179 46.0391 29.0205 46.0391 27.2842H43.5586V29.4887Z" fill="black"/>
<path fill-rule="evenodd" clip-rule="evenodd" d="M12.0742 51.5728H14.5547V49.0952H12.0742V51.5728Z" fill="black"/>
<path fill-rule="evenodd" clip-rule="evenodd" d="M60.5508 51.5728H63.0508V49.0952H60.5508V51.5728Z" fill="black"/>
<path fill-rule="evenodd" clip-rule="evenodd" d="M4.88672 56.411H7.38672V53.9138H4.88672V56.411Z" fill="black"/>
<path fill-rule="evenodd" clip-rule="evenodd" d="M24.125 50.3438H51.0195V52.7629H24.125V50.3438Z" fill="#2E4E9F"/>
</g>
<defs>
<clipPath id="clip0_1_1208">
<rect width="75" height="58" fill="white" transform="translate(0.0625 0.810547)"/>
</clipPath>
</defs>
</svg>
