<svg width="74" height="76" viewBox="0 0 74 76" fill="none" xmlns="http://www.w3.org/2000/svg">
<g clip-path="url(#clip0_1_1195)">
<path fill-rule="evenodd" clip-rule="evenodd" d="M21.7152 67.0718C21.7152 65.56 24.07 65.56 24.07 67.0718C24.07 68.5836 21.7152 68.5836 21.7152 67.0718ZM4.06467 58.7239C3.54617 58.7239 2.89805 58.0446 2.89805 57.5407C2.89805 57.0148 3.56777 56.3575 4.06467 56.3575C5.51213 56.3356 5.51213 58.7239 4.06467 58.7239ZM43.1896 73.0315C37.0972 73.0315 33.3813 73.0753 28.1748 69.8983C27.181 69.3067 25.9495 68.5398 26.6193 66.8089C27.289 65.0779 30.6376 65.4066 34.0943 64.3768C37.1188 63.4785 38.5663 62.9526 41.4396 61.6818C42.4982 61.1998 43.5784 60.5863 44.6154 59.9728C47.0567 58.5048 48.3313 57.6064 50.5133 55.8098C52.0688 54.5389 54.8125 51.8878 56.0656 50.2445C56.3248 49.9158 56.4328 49.8282 56.7137 49.5433L57.8803 48.1849C59.9327 45.7309 61.0993 44.3505 64.6856 44.3505C65.6361 44.3505 66.5435 44.7011 67.2348 45.0516C69.8921 46.4101 71.1452 48.6012 71.1452 51.9754C71.1452 55.6126 67.8829 60.3233 65.5929 63.0622C62.6116 66.6336 58.2259 69.7668 53.6891 71.2786C50.4485 72.3961 47.4455 73.0315 43.1896 73.0315ZM19.3603 58.1104C17.7616 58.1104 17.0055 58.3295 17.0055 57.6722C17.0055 54.8238 18.1721 51.7344 19.6844 50.0911C21.4775 48.163 22.5361 48.0096 22.925 47.1112C24.5669 43.1673 26.1872 39.6178 32.0203 39.6178H35.8442V52.3041C35.8442 53.049 31.5666 55.262 30.832 55.5687C30.1191 55.8536 29.6222 56.1165 28.8445 56.4013C26.0576 57.3654 23.033 58.1104 19.3603 58.1104ZM25.3878 64.3768C24.07 63.6757 24.3292 63.4785 22.6009 63.4785C20.9806 63.4785 19.3603 65.1218 19.3603 66.7651V67.8168C17.7832 67.7729 14.3914 66.283 13.2896 65.6038C12.339 65.0341 11.6693 64.574 10.8267 63.9167C10.3082 63.5004 8.0398 61.3531 7.73735 60.7616C7.4997 60.2576 7.58612 59.666 8.06141 59.3593C8.68793 58.9649 13.484 60.17 14.9315 60.3233C19.9868 60.8711 23.4003 60.652 28.3044 59.1621C34.2671 57.3435 37.2701 54.4075 42.1094 51.0771C43.2112 50.3102 44.1617 49.5652 45.2851 48.7764C47.6184 47.1332 47.4023 46.936 50.0812 46.936C51.6583 46.936 53.2786 48.0753 53.9051 49.0175C50.751 52.7204 47.5752 55.2401 43.5136 57.7379C34.8504 63.0622 28.4124 62.4048 26.1872 63.7414C25.7767 64.0043 25.7767 64.1358 25.3878 64.3768ZM55.5471 47.0893C54.186 46.1691 53.6459 44.3943 49.2171 44.3943C46.7974 44.3943 45.0691 45.8404 43.2976 47.177L38.199 50.7922C38.199 47.0455 37.9614 38.3689 38.6095 35.0823C38.8687 33.7896 39.5169 32.0587 40.0786 31.0508C44.1617 23.645 53.041 20.7747 60.4728 24.631C64.2967 26.6029 67.2348 30.3277 68.2934 34.6003C68.8983 37.0324 68.7903 40.0341 68.7903 43.0359C67.991 42.8387 66.6515 41.8527 64.2319 41.8527C61.3801 41.8527 58.9173 43.2988 57.2106 45.1612L55.5471 47.0893ZM13.6136 36.4846C14.5642 40.6038 21.78 40.6038 22.7305 36.4846L20.6782 35.4329C20.3325 35.9587 20.1813 36.2655 19.6412 36.638C19.6412 35.4986 19.7924 34.9728 19.7924 33.8115C20.2245 33.7019 20.2677 33.5705 20.6349 33.3295C22.7954 31.971 26.1872 32.2558 28.3692 33.9211C29.2334 34.5784 30.724 35.9368 30.832 37.2515C26.8569 37.2515 23.1194 40.297 21.5207 44.0657C20.0516 47.5495 20.8294 45.1612 17.848 48.5354C16.9191 49.5871 15.2339 52.2383 15.0827 53.9474C9.68171 53.9474 7.4565 50.3978 6.05224 46.1034C4.86401 42.4662 4.82081 38.2374 7.26206 35.1261C7.86697 34.3593 8.51509 33.7896 9.44407 33.3076C11.4532 32.2778 13.2032 32.212 15.3204 33.1323C15.7092 33.2856 17.3079 34.2935 17.2863 34.5565L17.1135 36.9447C16.3141 36.5065 16.1629 36.2217 15.666 35.4548L13.6136 36.4846ZM45.5444 22.418C44.5722 22.8124 42.6278 24.2147 41.8933 24.8939C38.6311 27.9395 35.9306 32.5407 35.8226 37.2515H33.3381C33.3381 34.9289 30.6376 32.3654 28.9093 31.3137C27.2026 30.262 24.6533 29.8019 22.5145 30.1524C21.4127 30.3277 20.8942 30.6564 20.3973 30.7002C20.5485 30.3934 20.6133 29.9771 20.743 29.5608C20.8942 29.0788 20.9806 28.794 21.175 28.3558C23.0762 24.0613 23.5083 24.6529 24.9558 22.4837L23.2274 20.8185C22.4065 22.0455 21.4775 22.4618 19.7708 25.5731C19.1227 26.7344 17.7616 30.0867 17.7616 31.73C10.3082 26.6686 -0.126515 33.5267 3.7406 46.8483C5.27449 52.1507 8.86076 56.3356 14.6722 56.3356V57.6722C13.484 57.6722 12.3606 57.3435 11.2372 57.1463C10.0058 56.9272 8.90397 56.6424 7.62933 56.9272C7.32687 56.2918 7.11083 54.5828 5.03685 54.035C1.94747 53.2024 -0.79624 56.6424 1.23454 59.6879C1.99068 60.8273 3.50296 61.375 5.27449 60.9587C6.11705 62.7116 5.3393 61.6161 6.70036 63.2375C8.32066 65.1656 10.6107 67.028 12.8791 68.1673C15.9685 69.723 19.7492 70.9281 23.3787 70.6432C24.0916 70.5775 24.2644 70.3365 24.8477 70.205C26.2736 72.3742 31.5234 74.4776 34.764 75.0692C38.3286 75.7265 45.1771 75.6169 48.8066 75.113C58.4204 73.7326 66.2626 67.7949 70.8427 60.0166C72.8519 56.6204 73.5216 55.1305 73.5432 51.5591C73.5432 46.5854 71.2532 45.95 71.1884 44.5477C70.8427 38.3251 72.4414 34.1402 67.6237 27.567C66.3275 25.7922 63.4973 23.2725 61.4882 22.3961C55.0502 19.8544 51.9176 19.8325 45.5444 22.418Z" fill="black"/>
<path fill-rule="evenodd" clip-rule="evenodd" d="M48.2017 7.69407C47.1863 7.45305 46.9487 6.9491 44.0753 6.35752L39.3873 5.45918C40.0786 6.48898 41.6989 7.71598 42.5846 8.7896C43.6648 10.1042 44.4642 11.2217 45.2852 12.7773C43.9025 12.7554 39.236 11.7256 37.3349 11.7256C38.5231 13.5223 42.3686 15.8448 44.8315 20.8185C45.0691 21.2786 45.3068 22.0236 45.566 22.418C51.9392 19.8325 55.0718 19.8545 61.445 22.418C61.6826 22.0674 61.9635 21.2786 62.1795 20.8404C63.1949 18.8027 63.7134 18.2988 65.0312 16.5679C66.0466 15.2532 68.9848 12.7773 69.6761 11.7256C67.8398 11.7256 63.0004 12.7773 61.7258 12.7773C64.1455 8.15419 66.4787 7.19012 67.6021 5.45918C66.954 5.48109 65.917 5.76593 65.3553 5.87548C64.1671 6.1165 61.7474 6.55471 60.7752 6.90528C60.0839 7.1463 59.371 7.5626 58.7661 7.71598C58.7661 6.51089 59.0469 5.24008 59.1981 4.12264C59.3494 3.04902 59.6518 1.64674 59.6518 0.551207C58.658 1.07706 57.6643 1.5591 56.6057 2.08495C55.9791 2.3917 53.9052 3.61869 53.4947 3.57487C53.1058 3.53105 48.2449 0.748403 47.3159 0.529297C47.3159 1.62483 47.6184 3.02711 47.7696 4.10073C47.9208 5.21817 48.2017 6.48898 48.2017 7.69407Z" fill="#2E4E9F"/>
<path fill-rule="evenodd" clip-rule="evenodd" d="M49.6708 34.6879L52.0256 36.9228L50.2973 38.7414L48.3961 37.0105C48.0937 36.7475 48.0721 36.6818 47.7696 36.4627C48.0505 36.0464 49.1739 34.8194 49.6708 34.6879ZM53.1922 31.1165L55.5471 33.3514L53.8187 35.17L51.2911 32.8913C51.5719 32.453 52.6953 31.248 53.1922 31.1165ZM49.2171 27.3917C49.7788 28.2243 50.6862 28.5749 51.2695 29.4732L49.5411 31.1384C48.6338 30.6345 48.0505 29.78 47.1647 29.1665C46.6678 29.9114 46.1709 30.0648 45.6956 30.9631C46.2573 31.7957 47.1647 32.1463 47.748 33.0446L46.0197 34.7098C45.1123 34.2059 44.529 33.3514 43.6432 32.7379C43.1464 33.4828 42.6495 33.6362 42.1742 34.5346C42.7359 35.3672 43.6432 35.7177 44.2266 36.6161L40.8779 39.9246L42.563 41.7212C42.8439 41.3049 45.5444 38.4127 46.1277 38.2594C46.603 38.588 46.8406 38.9605 47.2727 39.333C47.7696 39.7274 48.1153 39.9684 48.4609 40.4942L46.7326 42.3128L48.4177 44.1095L50.3405 42.0937L52.0904 43.6713C52.7817 44.2629 53.1058 44.723 53.9052 45.2708C54.402 44.5258 54.8989 44.3724 55.3742 43.4741C54.9638 42.8387 54.3372 42.51 53.7971 41.9403C53.2138 41.3268 52.5657 40.9982 52.1336 40.3409L53.8619 38.5223L55.6119 40.0999C56.3032 40.6914 56.6273 41.1516 57.4266 41.6993C57.9235 40.9544 58.4204 40.801 58.8957 39.9027C58.4852 39.2672 57.8587 38.9386 57.3186 38.3689C56.7353 37.7554 56.0872 37.4268 55.6551 36.7694L57.3834 34.9509C57.8155 35.2576 60.1487 37.5801 60.9481 38.1279C61.445 37.3829 61.9419 37.2296 62.4171 36.3312C61.9419 35.6082 59.6734 33.9649 59.1765 33.198L62.59 29.6485L60.9049 28.0052L57.297 31.5766L54.7693 29.2979L56.7137 27.2383L54.9422 25.5293L53.041 27.5451C52.1336 27.0411 51.5503 26.1866 50.643 25.5731C50.2109 26.34 49.6924 26.4934 49.2171 27.3917Z" fill="black"/>
<path fill-rule="evenodd" clip-rule="evenodd" d="M30.9833 67.0717L31.1345 69.46C40.8131 69.46 49.7356 65.9762 56.9081 60.0822C58.2692 58.9429 60.9481 56.2698 62.0499 54.8675C62.6116 54.1664 63.0653 53.5967 63.6054 52.8736C64.1887 52.0849 66.0898 49.3022 66.2843 48.4477C65.3985 48.2286 65.0312 47.637 64.0806 47.396C63.7782 48.6668 61.0993 52.0849 60.1703 53.268L58.5932 55.1085C52.7817 61.0463 45.2851 65.3627 37.0324 66.502C35.4769 66.7212 34.2023 66.8964 32.582 66.9183C31.7826 66.9183 31.7178 67.0717 30.9833 67.0717Z" fill="black"/>
<path fill-rule="evenodd" clip-rule="evenodd" d="M42.1526 54.2321C42.347 54.5169 43.4056 55.8535 43.6216 56.0287C44.1617 55.8754 49.2603 51.6247 49.4979 51.2522C49.0875 50.6168 48.6122 50.1129 48.1801 49.4556C47.6616 49.6089 47.0567 50.1786 46.603 50.5511L42.1526 54.2321Z" fill="black"/>
<path fill-rule="evenodd" clip-rule="evenodd" d="M11.8637 63.5004C12.8575 63.588 16.7678 65.6476 17.8912 65.7353C18.0641 64.9465 18.561 64.2015 18.6258 63.5004C17.7616 63.0841 16.595 62.6897 15.6876 62.3172C14.7586 61.9447 13.6136 61.5503 12.7495 61.134C12.4686 61.6599 11.9933 62.865 11.8637 63.5004Z" fill="black"/>
<path fill-rule="evenodd" clip-rule="evenodd" d="M27.8507 42.8605C28.9309 43.6055 29.0605 44.3943 31.2641 44.3943C33.0357 44.3943 33.5109 43.474 34.3535 42.9043L32.7116 41.1515C32.1715 41.5021 32.0419 41.9403 31.1345 41.9403C30.2271 41.9403 30.0759 41.5021 29.5142 41.1077L27.8507 42.8605Z" fill="black"/>
<path fill-rule="evenodd" clip-rule="evenodd" d="M36.4275 57.5188C36.4923 58.3952 37.3781 58.9211 37.5941 59.7537C38.8687 59.0745 39.9922 58.0447 41.2668 57.3654C40.8995 56.6424 40.381 55.9413 39.9489 55.2839C39.3224 55.6126 38.8471 55.9632 38.2422 56.3795C37.7669 56.73 36.9244 57.3874 36.4275 57.5188Z" fill="black"/>
<path fill-rule="evenodd" clip-rule="evenodd" d="M42.8871 30.0648H45.2419V27.6765H42.8871V30.0648Z" fill="black"/>
<path fill-rule="evenodd" clip-rule="evenodd" d="M61.7258 34.8414H64.0806V32.4531H61.7258V34.8414Z" fill="black"/>
<path fill-rule="evenodd" clip-rule="evenodd" d="M54.2292 52.085H56.5841V49.6968H54.2292V52.085Z" fill="black"/>
<path fill-rule="evenodd" clip-rule="evenodd" d="M40.5539 46.7825H42.8871V44.3943H40.5539V46.7825Z" fill="black"/>
</g>
<defs>
<clipPath id="clip0_1_1195">
<rect width="73" height="75" fill="white" transform="translate(0.5 0.529297)"/>
</clipPath>
</defs>
</svg>
