<svg width="24" height="24" viewBox="0 0 24 24" fill="none" xmlns="http://www.w3.org/2000/svg">
<path d="M11.29 15.54L5.64004 9.88001C5.54631 9.78705 5.47191 9.67645 5.42115 9.55459C5.37038 9.43273 5.34424 9.30202 5.34424 9.17001C5.34424 9.038 5.37038 8.90729 5.42115 8.78544C5.47191 8.66358 5.54631 8.55298 5.64004 8.46001C5.8274 8.27376 6.08085 8.16922 6.34504 8.16922C6.60922 8.16922 6.86267 8.27376 7.05004 8.46001L12.05 13.41L17 8.46001C17.1874 8.27376 17.4409 8.16922 17.705 8.16922C17.9692 8.16922 18.2227 8.27376 18.41 8.46001C18.5045 8.55263 18.5797 8.66307 18.6312 8.78495C18.6827 8.90682 18.7095 9.03771 18.71 9.17001C18.7095 9.30232 18.6827 9.4332 18.6312 9.55508C18.5797 9.67695 18.5045 9.7874 18.41 9.88001L12.76 15.54C12.6664 15.6415 12.5527 15.7225 12.4262 15.7779C12.2997 15.8333 12.1631 15.8619 12.025 15.8619C11.8869 15.8619 11.7503 15.8333 11.6238 15.7779C11.4973 15.7225 11.3837 15.6415 11.29 15.54Z" fill="#2E4DA0"/>
</svg>
