<svg width="17" height="17" viewBox="0 0 17 17" fill="none" xmlns="http://www.w3.org/2000/svg">
<g clip-path="url(#clip0_151_54)">
<path d="M16.0645 12.611L13.8317 10.3782C13.0342 9.58073 11.6786 9.89974 11.3596 10.9364C11.1203 11.6541 10.3229 12.0528 9.6052 11.8933C8.01031 11.4946 5.8572 9.42124 5.45848 7.74661C5.21925 7.02887 5.69771 6.23143 6.41542 5.99223C7.4521 5.67325 7.77107 4.31759 6.97363 3.52014L4.74078 1.2873C4.10282 0.729084 3.14589 0.729084 2.58768 1.2873L1.07253 2.80244C-0.442617 4.39733 1.23202 8.6238 4.98001 12.3718C8.72801 16.1198 12.9545 17.8742 14.5494 16.2793L16.0645 14.7641C16.6228 14.1262 16.6228 13.1692 16.0645 12.611Z" fill="white"/>
</g>
<defs>
<clipPath id="clip0_151_54">
<rect width="16" height="16" fill="white" transform="translate(0.5 0.868637)"/>
</clipPath>
</defs>
</svg>
