<svg width="20" height="20" viewBox="0 0 20 20" fill="none" xmlns="http://www.w3.org/2000/svg">
<g clip-path="url(#clip0_310_385)">
<path d="M16.1006 18.9448C15.9443 18.9448 15.7892 18.8985 15.6561 18.8083L10.6273 15.3971L7.93012 17.3379C7.71858 17.49 7.44593 17.5283 7.2003 17.4405C6.95499 17.3525 6.76869 17.1493 6.70219 16.8973L5.3479 11.765L0.508904 9.91467C0.204269 9.79814 0.00223509 9.5067 1.84203e-05 9.18053C-0.00219825 8.85436 0.195825 8.56018 0.498981 8.43953L18.8986 1.11817C18.9821 1.0827 19.0705 1.06223 19.1596 1.05674C19.1915 1.05484 19.2234 1.05484 19.2552 1.05663C19.4397 1.06761 19.621 1.14276 19.7624 1.28146C19.7771 1.29582 19.791 1.31049 19.8042 1.3258C19.9214 1.45964 19.9858 1.62283 19.9979 1.78908C20.0009 1.83088 20.0007 1.87321 19.997 1.91554C19.9944 1.94573 19.9901 1.97581 19.984 2.00568L16.8782 18.3013C16.8283 18.5631 16.6501 18.7822 16.4039 18.8843C16.3063 18.9248 16.2032 18.9448 16.1006 18.9448ZM11.0688 13.7834L15.5483 16.8218L17.9649 4.14203L9.2368 12.5407L11.0477 13.7692C11.055 13.7737 11.062 13.7785 11.0688 13.7834ZM7.33985 13.1077L7.93962 15.3804L9.23183 14.4505L7.53977 13.3027C7.46113 13.2495 7.39379 13.1832 7.33985 13.1077ZM2.96994 9.16037L6.29263 10.4307C6.53066 10.5217 6.71031 10.7219 6.77534 10.9682L7.19672 12.5652C7.21603 12.381 7.29953 12.2077 7.43517 12.0771L15.7518 4.07447L2.96994 9.16037Z" fill="white"/>
</g>
<defs>
<clipPath id="clip0_310_385">
<rect width="20" height="20" fill="white"/>
</clipPath>
</defs>
</svg>
