<svg width="99" height="100" viewBox="0 0 99 100" fill="none" xmlns="http://www.w3.org/2000/svg">
<circle cx="3.62017" cy="54.7827" r="2.15376" transform="rotate(-15 3.62017 54.7827)" fill="white"/>
<path d="M9.01417 43.1063L6.23067 44.6552C5.83124 44.8775 5.56216 45.0682 5.42343 45.2275C5.28521 45.3788 5.20484 45.626 5.18229 45.9693L5.11229 47.035L8.74048 47.2733L8.65554 48.5665L0.273595 48.016L0.35854 46.7228L3.86698 46.9532L3.93068 45.9833C3.9527 45.648 3.90535 45.3923 3.78864 45.2163C3.67193 45.0403 3.43037 44.812 3.06398 44.5313L0.620435 42.7353L0.717168 41.2625L3.54975 43.3607C4.13611 43.8321 4.49222 44.2083 4.61808 44.4891C4.69401 44.3097 4.82502 44.1459 5.01113 43.9978C5.18978 43.8412 5.48281 43.652 5.89022 43.4302L9.11012 41.6454L9.01417 43.1063Z" fill="white"/>
<path d="M3.23762 36.7277C2.68361 35.6833 2.58296 34.5959 2.93567 33.4657C3.28839 32.3354 3.98961 31.4983 5.03932 30.9543C6.08378 30.4003 7.17113 30.2997 8.30137 30.6524C9.43162 31.0051 10.2726 31.7075 10.8242 32.7596C11.3706 33.8017 11.4674 34.8878 11.1147 36.0181C10.762 37.1483 10.0646 37.9866 9.02248 38.533C7.97277 39.077 6.88279 39.1726 5.75255 38.8199C4.6223 38.4672 3.78399 37.7698 3.23762 36.7277ZM5.57307 32.0637C4.844 32.4396 4.35435 33.0284 4.10411 33.8303C3.85387 34.6322 3.9217 35.395 4.30759 36.1188C4.68823 36.8326 5.29858 37.3206 6.13862 37.5827C6.9863 37.8473 7.76967 37.7942 8.48873 37.4236C9.21016 37.0454 9.696 36.4553 9.94624 35.6534C10.1965 34.8516 10.1325 34.0899 9.75421 33.3685C9.37595 32.647 8.76298 32.1541 7.9153 31.8895C7.07525 31.6274 6.29451 31.6854 5.57307 32.0637Z" fill="white"/>
<path d="M7.0598 24.8186L8.49881 22.5199C9.09309 21.5705 9.81602 20.966 10.6676 20.7063C11.5124 20.4423 12.3349 20.5608 13.135 21.0617C13.9419 21.5668 14.4112 22.257 14.5429 23.1322C14.6746 24.0075 14.4433 24.9197 13.849 25.8691L13.0976 27.0693L14.8674 28.1772L14.1798 29.2757L7.0598 24.8186ZM12.0703 26.4262L12.8662 25.1548C13.2313 24.5716 13.397 24.0053 13.3635 23.4557C13.3275 22.8952 13.0348 22.443 12.4855 22.0992C11.9499 21.7638 11.422 21.7024 10.902 21.9148C10.3821 22.1273 9.94168 22.5217 9.58086 23.0981L8.78495 24.3696L12.0703 26.4262Z" fill="white"/>
<path d="M15.059 16.2535C15.0662 15.0713 15.493 14.0661 16.3393 13.2381C17.1855 12.41 18.1998 12.0053 19.3819 12.0238C20.5642 12.031 21.5694 12.4578 22.3974 13.3041C23.2254 14.1504 23.633 15.1675 23.62 16.3553C23.6072 17.5319 23.1776 18.5342 22.3314 19.3622C21.4851 20.1903 20.4736 20.5979 19.2971 20.585C18.1149 20.5665 17.1098 20.1341 16.2818 19.2878C15.4538 18.4415 15.0461 17.4301 15.059 16.2535ZM19.3261 13.2536C18.506 13.239 17.7957 13.5255 17.1953 14.1129C16.5949 14.7004 16.293 15.4043 16.2897 16.2245C16.2866 17.0335 16.5927 17.7524 17.2081 18.3814C17.8292 19.0161 18.5441 19.3407 19.3529 19.3552C20.1675 19.3641 20.8749 19.0748 21.4753 18.4873C22.0758 17.8999 22.3804 17.1989 22.3893 16.3843C22.3982 15.5698 22.0921 14.8452 21.471 14.2105C20.8556 13.5815 20.1406 13.2625 19.3261 13.2536Z" fill="white"/>
<path d="M27.1966 7.17863L30.8009 13.3838L29.6802 14.0347L26.0759 7.82957L23.9591 9.05912L23.3443 8.00071L28.709 4.88464L29.3238 5.94305L27.1966 7.17863Z" fill="white"/>
<path d="M40.7247 9.58963L38.2399 7.59642C37.8833 7.31041 37.6051 7.13321 37.4053 7.06483C37.2131 6.99392 36.9537 7.01279 36.6273 7.12145L35.614 7.45878L36.7625 10.9086L35.5328 11.318L32.8796 3.34801L34.1093 2.93866L35.2198 6.27467L36.1421 5.96765C36.4609 5.86153 36.6798 5.72122 36.7987 5.5467C36.9177 5.37219 37.038 5.06233 37.1596 4.61713L37.9007 1.6765L39.3012 1.2103L38.427 4.62522C38.2117 5.34613 37.9978 5.81786 37.7852 6.0404C37.98 6.04301 38.1811 6.10253 38.3885 6.21899C38.6009 6.32533 38.8867 6.52529 39.2458 6.8189L42.1137 9.12722L40.7247 9.58963Z" fill="white"/>
<path d="M44.4798 1.85995C45.2376 0.952464 46.2063 0.44855 47.3861 0.348209C48.5658 0.247867 49.6058 0.580936 50.506 1.3474C51.4135 2.10522 51.9174 3.07399 52.0177 4.25373C52.1181 5.43348 51.7854 6.47743 51.0196 7.38559C50.2611 8.28511 49.2919 8.78504 48.1122 8.88538C46.9325 8.98572 45.8928 8.65665 44.9933 7.89815C44.0931 7.13168 43.5929 6.15858 43.4925 4.97884C43.3922 3.7991 43.7213 2.75947 44.4798 1.85995ZM49.6804 2.26065C49.057 1.72757 48.3268 1.49662 47.4898 1.56781C46.6528 1.639 45.9721 1.98994 45.4477 2.62065C44.9306 3.24272 44.7093 3.99218 44.7839 4.86901C44.8591 5.75381 45.2041 6.45911 45.8189 6.9849C46.4416 7.51001 47.1715 7.73698 48.0085 7.66579C48.8455 7.5946 49.5265 7.24763 50.0516 6.62489C50.5767 6.00215 50.8017 5.24837 50.7264 4.36357C50.6518 3.48674 50.3032 2.78576 49.6804 2.26065Z" fill="white"/>
<path d="M57.7766 4.66093L61.5971 5.31418L61.3908 6.52067L57.5703 5.86742L57.1658 8.23309L61.2702 8.93488L61.0639 10.1414L55.682 9.22116L57.0977 0.941319L62.4796 1.86153L62.2734 3.06802L58.1689 2.36623L57.7766 4.66093Z" fill="white"/>
<path d="M70.0227 4.72014L72.8556 6.08359C73.2665 6.28134 73.6097 6.49979 73.8853 6.73894C74.1608 6.97809 74.3521 7.20778 74.4592 7.42801C74.577 7.6445 74.6449 7.87248 74.6628 8.11194C74.6914 8.34767 74.6838 8.5571 74.6401 8.74025C74.5963 8.92339 74.5311 9.10507 74.4443 9.28528C74.0454 10.1143 73.423 10.4851 72.5772 10.3976C72.9791 10.7064 73.2281 11.0837 73.3243 11.5296C73.4204 11.9754 73.354 12.4362 73.1251 12.9119C72.4416 14.332 71.1916 14.6049 69.375 13.7307L66.3799 12.2892L70.0227 4.72014ZM70.6596 6.38508L69.6709 8.43953L71.455 9.29819C72.3272 9.71798 72.9282 9.58547 73.2577 8.90066C73.5873 8.21584 73.316 7.66353 72.4438 7.24374L70.6596 6.38508ZM69.1869 9.44513L68.0785 11.7483L70.1437 12.7422C71.0592 13.1828 71.7008 13.0211 72.0686 12.257C72.2351 11.911 72.2533 11.5779 72.1233 11.2579C72.0039 10.9341 71.7135 10.6611 71.2522 10.4391L69.1869 9.44513Z" fill="white"/>
<path d="M79.2488 20.8558L78.2351 20.0483L81.9286 15.4117L74.7623 17.2819L74.1709 16.8108L79.4047 10.2407L80.4184 11.0482L76.7249 15.6848L83.8912 13.8146L84.4826 14.2856L79.2488 20.8558Z" fill="white"/>
<path d="M84.6711 30.2584L83.8636 29.2447L85.0744 28.2802L81.1715 23.3808L79.9607 24.3453L79.1532 23.3316L81.3214 21.6044L82.0092 22.4679L89.4688 20.3151L89.9399 20.9064L86.1589 27.6772L86.8393 28.5313L84.6711 30.2584ZM87.8328 22.094L82.8765 23.5567L85.2916 26.5884L87.8328 22.094Z" fill="white"/>
<path d="M91.4411 30.5562L93.096 34.0611L91.9892 34.5837L90.3343 31.0787L88.164 32.1034L89.9419 35.8688L88.8351 36.3914L86.5039 31.4541L94.0997 27.8677L96.4309 32.805L95.3241 33.3276L93.5462 29.5622L91.4411 30.5562Z" fill="white"/>
<path d="M96.6511 38.1331C97.6518 38.7627 98.2807 39.6554 98.538 40.8111C98.7952 41.9668 98.6042 43.042 97.9651 44.0366C97.3354 45.0373 96.4428 45.6663 95.2871 45.9235C94.1313 46.1807 93.0523 45.9906 92.0498 45.3532C91.0569 44.7218 90.4319 43.8283 90.1746 42.6726C89.9174 41.5169 90.1045 40.4426 90.7358 39.4497C91.375 38.455 92.2724 37.8291 93.4282 37.5719C94.5839 37.3146 95.6582 37.5017 96.6511 38.1331ZM96.9496 43.3406C97.3945 42.6515 97.5257 41.8969 97.3432 41.077C97.1607 40.2571 96.7219 39.6294 96.0267 39.1941C95.341 38.7648 94.5687 38.6457 93.7097 38.8369C92.8429 39.0298 92.1901 39.4661 91.7513 40.1457C91.3142 40.8331 91.1869 41.5867 91.3694 42.4066C91.5519 43.2266 91.9868 43.8551 92.6742 44.2922C93.3616 44.7293 94.1387 44.8514 95.0055 44.6585C95.8645 44.4673 96.5125 44.028 96.9496 43.3406Z" fill="white"/>
<path d="M97.8346 54.9883C98.5587 55.9229 98.8434 56.9772 98.6888 58.151C98.5341 59.3249 97.9861 60.2694 97.0446 60.9845C96.11 61.7087 95.0558 61.9934 93.8819 61.8387C92.708 61.6841 91.7596 61.1355 91.0365 60.1929C90.3203 59.2594 90.0395 58.2057 90.1942 57.0318C90.3489 55.858 90.893 54.913 91.8265 54.1968C92.768 53.4816 93.8257 53.2014 94.9995 53.356C96.1734 53.5107 97.1184 54.0548 97.8346 54.9883ZM96.3293 59.9825C96.9836 59.4877 97.3656 58.8239 97.4753 57.9911C97.585 57.1583 97.388 56.4183 96.8842 55.7709C96.3874 55.1325 95.7027 54.7559 94.8302 54.6409C93.9498 54.5249 93.187 54.7109 92.5418 55.1988C91.8955 55.6946 91.5174 56.3589 91.4077 57.1917C91.298 58.0245 91.491 58.7641 91.9869 59.4104C92.4827 60.0567 93.1708 60.4378 94.0512 60.5538C94.9236 60.6688 95.683 60.4783 96.3293 59.9825Z" fill="white"/>
<path d="M82.6654 75.5166L85.8511 75.2666C86.3067 75.2299 86.6272 75.1659 86.8124 75.0747C87.0009 74.9944 87.1765 74.8027 87.3393 74.4996L87.6801 73.8654L84.4771 72.1445L85.0905 71.0029L88.2935 72.7237L88.6285 72.1C88.7914 71.797 88.8561 71.5412 88.8229 71.3326C88.7929 71.1349 88.6675 70.8359 88.4466 70.4357L86.8965 67.6413L87.5894 66.3516L89.3739 69.5717C89.6019 69.9757 89.752 70.2879 89.8242 70.5084C89.8998 70.7397 89.9222 70.9515 89.8915 71.1439C90.1617 70.9621 90.6611 70.8354 91.3898 70.7638L94.9095 70.4752L94.211 71.7754L91.187 72.0034C90.7275 72.0472 90.4017 72.1127 90.2094 72.2002C90.0172 72.2876 89.8415 72.4793 89.6825 72.7753L89.3928 73.3144L92.4901 74.9784L91.8767 76.1201L88.7795 74.456L88.4841 75.0057C88.3251 75.3017 88.2622 75.554 88.2955 75.7626C88.3287 75.9711 88.4539 76.279 88.671 76.6863L90.1502 79.3337L89.4516 80.6339L87.7493 77.5397C87.4068 76.8926 87.2368 76.4061 87.2392 76.0805C87.0957 76.2123 86.9086 76.307 86.6779 76.3647C86.4503 76.4332 86.1053 76.4839 85.6426 76.5168L81.9725 76.8063L82.6654 75.5166Z" fill="white"/>
<path d="M75.4676 82.3501L76.3807 81.4304L80.5876 85.6068L79.5088 78.2794L80.0414 77.7429L86.0027 83.661L85.0896 84.5807L80.8826 80.4042L81.9614 87.7317L81.4288 88.2682L75.4676 82.3501Z" fill="white"/>
<path d="M74.3242 88.8625L73.4072 89.4555C72.5877 89.9855 72.3842 90.5695 72.7969 91.2077C72.9967 91.5168 73.2572 91.6913 73.5784 91.7313C73.8929 91.7756 74.2639 91.6643 74.6915 91.3974L74.752 91.3583C75.0878 91.1411 75.3894 90.8413 75.6566 90.4589C75.9281 90.0833 76.1078 89.6908 76.1957 89.2815L77.3246 89.4804C77.23 90.056 77.0182 90.5978 76.6894 91.1058C76.3538 91.6181 75.9408 92.0329 75.4504 92.35L75.3798 92.3956C74.9499 92.6736 74.5379 92.8542 74.144 92.9375C73.7434 93.0251 73.3994 93.0236 73.1122 92.933C72.825 92.8424 72.5793 92.7203 72.3751 92.5665C72.1709 92.4128 71.9993 92.2284 71.8603 92.0134C71.6083 91.6238 71.4796 91.2259 71.4742 90.8197C71.4732 90.4203 71.6003 90.0571 71.8556 89.73C71.4028 89.899 70.9656 89.9006 70.5441 89.7349C70.1202 89.5803 69.7715 89.2914 69.4978 88.8682C69.1068 88.2636 69.0069 87.6375 69.1979 86.99C69.3822 86.3469 69.9055 85.7417 70.7678 85.1747L70.8282 85.1356C71.3992 84.7663 72.007 84.5496 72.6514 84.4854C73.2958 84.4212 73.9127 84.4986 74.5021 84.7177L74.2203 85.8288C73.7853 85.6718 73.3211 85.6243 72.8276 85.6861C72.3274 85.7524 71.8724 85.918 71.4626 86.1829L71.4022 86.222C70.9319 86.5261 70.6211 86.8557 70.4696 87.2109C70.3226 87.5727 70.3685 87.9384 70.6074 88.3079C70.8159 88.6303 71.0906 88.8195 71.4316 88.8753C71.7658 88.9354 72.1479 88.8265 72.5778 88.5485L73.6661 87.8448L74.3242 88.8625Z" fill="white"/>
<path d="M60.1248 89.986L61.333 89.5171L62.6443 92.8956L66.2465 91.4975L64.9353 88.1191L66.1434 87.6501L69.1827 95.481L67.9745 95.9499L66.6893 92.6386L63.0871 94.0367L64.3723 97.348L63.1641 97.8169L60.1248 89.986Z" fill="white"/>
<path d="M50.9914 91.2787L52.2736 91.0897L53.138 96.9543L56.6661 90.4422L57.414 90.3319L58.639 98.6421L57.3568 98.8311L56.4924 92.9665L52.9643 99.4786L52.2164 99.5889L50.9914 91.2787Z" fill="white"/>
<path d="M43.1686 97.8108C42.2096 98.5022 41.1461 98.7504 39.9783 98.5553C38.8105 98.3603 37.8855 97.7799 37.2032 96.8143C36.5118 95.8553 36.2636 94.7919 36.4587 93.6241C36.6538 92.4562 37.2348 91.5273 38.2017 90.8371C39.1594 90.1536 40.2222 89.9094 41.39 90.1044C42.5578 90.2995 43.4835 90.8759 44.167 91.8336C44.8493 92.7992 45.0928 93.8659 44.8978 95.0337C44.7027 96.2016 44.1263 97.1272 43.1686 97.8108ZM38.2293 96.1341C38.7012 96.805 39.3515 97.2097 40.18 97.3481C41.0085 97.4865 41.7549 97.3151 42.4193 96.834C43.0744 96.3594 43.4745 95.6882 43.6195 94.8202C43.7658 93.9444 43.6063 93.1756 43.1409 92.5139C42.6677 91.8508 42.0168 91.4501 41.1883 91.3117C40.3598 91.1733 39.614 91.3407 38.951 91.8139C38.288 92.2872 37.8833 92.9617 37.737 93.8376C37.592 94.7056 37.7561 95.4711 38.2293 96.1341Z" fill="white"/>
<path d="M22.573 91.2911C21.6961 90.8447 21.1301 90.1841 20.8752 89.3093C20.6203 88.4345 20.716 87.5586 21.1624 86.6817C21.6087 85.8048 22.2606 85.2119 23.1179 84.9032C23.9715 84.6017 24.8369 84.674 25.7138 85.1204C26.1558 85.3454 26.5114 85.6521 26.7805 86.0404C27.0425 86.4251 27.1881 86.8358 27.2171 87.2725L28.3113 85.1229L29.4662 85.7108L28.3721 87.8604C28.7495 87.6305 29.1743 87.5101 29.6466 87.4992C30.1119 87.4846 30.5619 87.588 30.9968 87.8094C31.8738 88.2558 32.4451 88.9146 32.7107 89.7859C32.9657 90.6607 32.8699 91.5366 32.4236 92.4135C31.9772 93.2905 31.3254 93.8833 30.4681 94.192C29.6037 94.4971 28.733 94.4264 27.856 93.9801C27.4211 93.7587 27.0745 93.4521 26.8161 93.0603C26.547 92.672 26.3961 92.2541 26.3636 91.8066L25.6559 93.1969L24.5009 92.609L25.2031 91.2294C24.8258 91.4593 24.4045 91.5815 23.9393 91.596C23.4633 91.6141 23.0079 91.5124 22.573 91.2911ZM31.4257 90.1148C31.2402 89.5446 30.8729 89.1198 30.324 88.8404C29.775 88.5609 29.219 88.5158 28.6559 88.705C28.0857 88.8905 27.6554 89.2685 27.3651 89.8388C27.0748 90.4092 27.0224 90.9795 27.208 91.5497C27.3828 92.1234 27.7446 92.5499 28.2936 92.8294C28.8426 93.1088 29.404 93.1522 29.9778 92.9595C30.5409 92.7703 30.9676 92.3906 31.2579 91.8202C31.5482 91.2498 31.6041 90.6814 31.4257 90.1148ZM26.3673 87.5401C26.1817 86.9699 25.8145 86.5451 25.2655 86.2657C24.7165 85.9862 24.1605 85.9411 23.5974 86.1303C23.0272 86.3158 22.597 86.6938 22.3067 87.2641C22.0164 87.8345 21.964 88.4048 22.1495 88.975C22.3243 89.5487 22.6862 89.9752 23.2352 90.2547C23.7841 90.5341 24.3455 90.5775 24.9194 90.3848C25.4824 90.1956 25.9091 89.8159 26.1994 89.2455C26.4897 88.6751 26.5457 88.1067 26.3673 87.5401Z" fill="white"/>
<path d="M16.9166 75.1153L17.8229 76.0417L13.5858 80.1875L20.9281 79.2153L21.4568 79.7556L15.4527 85.6302L14.5463 84.7039L18.7835 80.5581L11.4412 81.5303L10.9125 80.9899L16.9166 75.1153Z" fill="white"/>
<path d="M6.41954 74.1237C5.76123 73.0635 5.59839 71.9216 5.93103 70.6981L7.03678 71.0003C6.83324 71.8706 6.97412 72.6965 7.45941 73.4781C7.9025 74.1917 8.52403 74.6392 9.32401 74.8205C10.113 74.9992 10.8813 74.8565 11.6289 74.3923C12.3833 73.9238 12.8554 73.2964 13.0451 72.5101C13.2306 71.7169 13.1018 70.9635 12.6587 70.2498C12.165 69.4547 11.4872 68.9621 10.6253 68.7721L10.8449 67.6471C12.089 67.8916 13.0403 68.5439 13.6986 69.6042C14.3231 70.6101 14.5014 71.6859 14.2335 72.8316C13.9587 73.9815 13.3184 74.8687 12.3125 75.4933C11.3066 76.1178 10.2308 76.2961 9.08513 76.0282C7.93263 75.7644 7.04409 75.1296 6.41954 74.1237Z" fill="white"/>
<path d="M9.12822 63.9781L11.1597 64.0888L11.6261 65.4385L2.55406 64.9037L2.30719 64.1891L9.12594 58.2022L9.59227 59.5519L8.05843 60.8817L9.12822 63.9781ZM4.66699 63.7801L7.82242 63.9468L7.04652 61.7011L4.66699 63.7801Z" fill="white"/>
</svg>
