<svg width="139" height="139" viewBox="0 0 139 139" fill="none" xmlns="http://www.w3.org/2000/svg">
<path d="M32.305 49.7088L33.9134 51.8933L32.9198 53.5174L25.7789 43.7282L26.305 42.8683L38.247 44.8097L37.2533 46.4339L34.5845 45.9828L32.305 49.7088ZM28.7265 44.95L31.2301 48.3385L32.8834 45.6361L28.7265 44.95Z" fill="white"/>
<path d="M46.8375 36.8101L45.5233 37.9321L42.386 34.2571L38.4676 37.6022L41.605 41.2772L40.2908 42.3991L33.0188 33.881L34.333 32.7591L37.408 36.361L41.3263 33.0159L38.2513 29.4139L39.5656 28.292L46.8375 36.8101Z" fill="white"/>
<path d="M58.0715 31.4268L56.4701 32.076L52.8757 23.2088L48.19 25.1082L51.7844 33.9754L50.183 34.6245L45.9755 24.2449L53.864 21.0472L58.0715 31.4268Z" fill="white"/>
<path d="M64.0272 27.6975L63.1801 30.2746L61.2807 30.4068L65.1157 18.9127L66.1213 18.8427L71.4641 29.6979L69.5647 29.8301L68.3846 27.3942L64.0272 27.6975ZM65.8294 22.0227L64.5204 26.0272L67.6807 25.8072L65.8294 22.0227Z" fill="white"/>
<path d="M81.8406 31.8399L80.4897 27.8133C80.2958 27.2355 80.1114 26.8362 79.9365 26.6155C79.7719 26.3974 79.4674 26.2317 79.023 26.1183L77.6431 25.7665L76.4452 30.4641L74.7708 30.0372L77.5382 19.1845L79.2127 19.6114L78.0543 24.1541L79.3101 24.4743C79.7442 24.585 80.0909 24.5853 80.3501 24.4753C80.6093 24.3653 80.9676 24.1044 81.4248 23.6926L84.3754 20.9279L86.2824 21.4142L82.8408 24.6151C82.0797 25.2686 81.4998 25.6436 81.1009 25.74C81.3175 25.8833 81.5002 26.095 81.649 26.3751C81.8107 26.6475 81.9871 27.0778 82.1784 27.666L83.7321 32.3223L81.8406 31.8399Z" fill="white"/>
<path d="M93.8708 38.1983L92.4134 37.2699L96.66 30.6036L87.4204 34.0892L86.5703 33.5476L92.5877 24.1015L94.0451 25.0299L89.7985 31.6962L99.0381 28.2106L99.8883 28.7521L93.8708 38.1983Z" fill="white"/>
<path d="M102.331 47.3084L101.233 45.9735L104.966 42.905L101.694 38.9252L97.9616 41.9936L96.8642 40.6588L105.516 33.5465L106.613 34.8813L102.955 37.8888L106.227 41.8687L109.885 38.8612L110.982 40.196L102.331 47.3084Z" fill="white"/>
<path d="M113.962 48.8878L105.122 52.5501L104.461 50.9537L114.808 46.6667L117.533 53.2444L116.026 53.8691L113.962 48.8878Z" fill="white"/>
<path d="M107.884 78.7105L108.135 77.0009L117.602 78.3911L118.336 73.3887L108.87 71.9985L109.121 70.2889L120.202 71.9162L118.965 80.3379L107.884 78.7105Z" fill="white"/>
<path d="M116.636 88.0876L115.013 91.319C114.343 92.6534 113.459 93.5463 112.361 93.9975C111.272 94.4535 110.166 94.399 109.041 93.8341C107.907 93.2643 107.197 92.4068 106.913 91.2614C106.629 90.116 106.822 88.8761 107.492 87.5416L108.34 85.8545L105.852 84.605L106.627 83.0608L116.636 88.0876ZM109.784 86.5798L108.886 88.367C108.474 89.1868 108.325 89.9593 108.438 90.6846C108.556 91.4242 109.001 91.9879 109.773 92.3757C110.526 92.7539 111.235 92.7695 111.898 92.4224C112.562 92.0754 113.097 91.4968 113.504 90.6866L114.402 88.8993L109.784 86.5798Z" fill="white"/>
<path d="M106.7 101.534C106.677 103.11 106.096 104.445 104.958 105.54C103.821 106.634 102.464 107.162 100.888 107.124C99.3115 107.101 97.9763 106.52 96.882 105.382C95.7877 104.244 95.256 102.884 95.2868 101.3C95.3174 99.7314 95.9017 98.4 97.0395 97.3057C98.1773 96.2114 99.5305 95.6796 101.099 95.7102C102.675 95.7484 104.01 96.3365 105.104 97.4744C106.199 98.6122 106.731 99.9654 106.7 101.534ZM100.976 105.485C102.07 105.514 103.02 105.14 103.827 104.363C104.634 103.587 105.045 102.652 105.059 101.558C105.072 100.48 104.672 99.5179 103.859 98.6722C103.038 97.8188 102.089 97.3778 101.011 97.3492C99.9246 97.3281 98.978 97.7056 98.1708 98.482C97.3635 99.2584 96.9493 100.19 96.9281 101.275C96.9069 102.361 97.3067 103.331 98.1274 104.184C98.9408 105.03 99.8904 105.463 100.976 105.485Z" fill="white"/>
<path d="M90.9667 110.426L88.2243 111.701C87.0925 112.226 86.1061 112.344 85.265 112.052C84.4239 111.761 83.7763 111.127 83.3223 110.15C82.8639 109.163 82.7919 108.261 83.1064 107.445C83.4113 106.633 84.1441 105.957 85.3049 105.418L89.6144 103.415L94.3339 113.572L87.7173 116.647L87.0296 115.167L92.0792 112.82L90.9667 110.426ZM88.735 105.623L85.9636 106.911C85.2768 107.23 84.8486 107.6 84.6791 108.02C84.5096 108.44 84.5507 108.92 84.8024 109.462C85.3193 110.574 86.221 110.832 87.5076 110.234L90.279 108.946L88.735 105.623Z" fill="white"/>
<path d="M70.8943 108.894L72.6075 108.669L73.2378 113.459L78.3458 112.787L77.7155 107.997L79.4288 107.771L80.8896 118.876L79.1763 119.101L78.5586 114.406L73.4506 115.077L74.0683 119.773L72.3551 119.998L70.8943 108.894Z" fill="white"/>
<path d="M58.2886 107.33L59.9853 107.657L58.4889 115.418L65.7982 108.778L66.788 108.969L64.6676 119.966L62.9709 119.639L64.4673 111.878L57.1579 118.518L56.1682 118.328L58.2886 107.33Z" fill="white"/>
<path d="M48.0821 102.561L48.3705 106.799C48.4119 107.407 48.4893 107.84 48.6026 108.098C48.7066 108.35 48.9593 108.588 49.3606 108.81L50.6066 109.499L52.9539 105.257L54.4659 106.094L49.043 115.894L47.531 115.057L49.8009 110.955L48.6669 110.328C48.275 110.111 47.9397 110.023 47.661 110.063C47.3824 110.104 46.9698 110.266 46.4233 110.549L42.8692 112.477L41.1473 111.524L45.2867 109.298C46.1884 108.858 46.8443 108.642 47.2546 108.65C47.0813 108.457 46.9581 108.205 46.885 107.897C46.7975 107.592 46.7356 107.131 46.6994 106.514L46.3742 101.616L48.0821 102.561Z" fill="white"/>
<path d="M35.7601 105.294C34.1862 105.207 32.8756 104.572 31.8285 103.391C30.7814 102.209 30.309 100.832 30.4114 99.2591C30.4987 97.6851 31.1331 96.3746 32.3145 95.3275C33.4959 94.2804 34.8772 93.8044 36.4582 93.8997C38.0242 93.9941 39.3308 94.632 40.3779 95.8134C41.425 96.9949 41.9013 98.3686 41.8069 99.9346C41.7046 101.508 41.0627 102.818 39.8813 103.865C38.6998 104.912 37.3261 105.388 35.7601 105.294ZM32.0455 99.4142C31.9722 100.505 32.307 101.47 33.0498 102.308C33.7927 103.147 34.7102 103.595 35.8024 103.653C36.8794 103.71 37.857 103.35 38.7351 102.572C39.6212 101.786 40.1004 100.856 40.1728 99.7794C40.2382 98.6953 39.8994 97.7341 39.1565 96.8959C38.4136 96.0578 37.5001 95.606 36.416 95.5407C35.3318 95.4753 34.3467 95.8353 33.4607 96.6206C32.5826 97.3989 32.1109 98.3301 32.0455 99.4142Z" fill="white"/>
<path d="M24.1527 92.2766L22.5481 88.4038C22.3153 87.8421 22.1683 87.32 22.1069 86.8374C22.0455 86.3548 22.0594 85.9565 22.1486 85.6424C22.2239 85.3226 22.3591 85.0357 22.554 84.7817C22.7351 84.5219 22.9287 84.3205 23.1349 84.1773C23.3412 84.0341 23.5675 83.9115 23.8138 83.8094C24.9471 83.3399 25.8952 83.5243 26.6583 84.3628C26.5332 83.6987 26.621 83.1024 26.9215 82.5738C27.2221 82.0451 27.6975 81.6461 28.3479 81.3766C30.2892 80.5723 31.7743 81.4117 32.8032 83.895L34.4997 87.9895L24.1527 92.2766ZM24.9989 90.0555L27.8074 88.8919L26.7969 86.4529C26.3028 85.2605 25.5877 84.8583 24.6516 85.2462C23.7154 85.6341 23.4944 86.4242 23.9884 87.6166L24.9989 90.0555ZM29.1821 88.3223L32.3305 87.0178L31.1608 84.1945C30.6422 82.943 29.8607 82.5337 28.8161 82.9665C28.3431 83.1625 28.0291 83.4773 27.8739 83.9111C27.7049 84.339 27.751 84.8684 28.0123 85.499L29.1821 88.3223Z" fill="white"/>
<circle cx="22.1721" cy="64.9221" r="3.5" transform="rotate(165 22.1721 64.9221)" fill="white"/>
</svg>
