<svg width="112" height="110" viewBox="0 0 112 110" fill="none" xmlns="http://www.w3.org/2000/svg">
<path d="M43.1858 109.125C41.8755 108.816 40.9322 108.095 40.3032 106.963L41.037 106.551C41.5611 107.426 42.3472 107.992 43.3954 108.25C44.3388 108.456 45.2298 108.301 46.0683 107.838C46.8545 107.323 47.3786 106.603 47.6406 105.625C47.8503 104.647 47.7454 103.771 47.2213 102.948C46.6972 102.124 45.9635 101.61 45.0201 101.404C43.9719 101.146 43.0285 101.352 42.1376 101.867L41.6659 101.146C42.7665 100.426 43.9195 100.22 45.2298 100.477C46.4352 100.734 47.3786 101.404 48.0075 102.433C48.6364 103.463 48.846 104.595 48.584 105.779C48.3219 106.963 47.6406 107.889 46.5924 108.507C45.5442 109.176 44.3912 109.382 43.1858 109.125ZM32.2845 95.793L33.1755 96.2048L30.2929 102.382L35.0098 99.9624L36.2677 105.007L39.1502 98.8299L40.0412 99.2417L36.3725 107.117L35.8484 106.911L34.4333 101.198L29.0875 103.926L28.5634 103.72L32.2845 95.793ZM24.5803 99.6535C23.3748 99.808 22.2742 99.4991 21.2784 98.727C20.2826 97.9549 19.7585 96.9769 19.6013 95.793C19.4441 94.6091 19.7585 93.4766 20.5447 92.5501C21.3308 91.5721 22.3266 91.0574 23.5321 90.9029C24.7375 90.7485 25.8905 91.0574 26.8339 91.8295C27.8297 92.6016 28.3538 93.5796 28.511 94.7635C28.6682 95.9474 28.3538 97.0284 27.5676 98.0064C26.8339 98.9329 25.7857 99.4991 24.5803 99.6535ZM20.5447 95.69C20.6495 96.6166 21.0688 97.3887 21.8549 98.0064C22.6411 98.624 23.4796 98.8299 24.423 98.727C25.3664 98.6241 26.1526 98.1608 26.7815 97.3887C27.4104 96.6166 27.6724 95.7415 27.5676 94.815C27.4628 93.8884 27.0435 93.1163 26.2574 92.4986C25.4712 91.881 24.6327 91.6751 23.6893 91.778C22.7459 91.881 21.9598 92.3442 21.3308 93.1163C20.7019 93.8884 20.4399 94.7635 20.5447 95.69ZM14.0459 90.4911L20.0206 85.4467L20.6495 86.1673L14.6748 91.2118L16.4567 93.2193L15.7754 93.7855L11.5826 88.9984L12.2639 88.4322L14.0459 90.4911ZM9.69584 86.4247L8.22836 84.1084C7.59944 83.1818 7.33739 82.2553 7.44221 81.3288C7.54703 80.4537 8.01872 79.7331 8.85728 79.2183C9.69584 78.7036 10.5344 78.5492 11.4254 78.858C12.3163 79.1669 13.0501 79.7331 13.6266 80.7111L14.57 82.2038L16.5615 80.9685L17.0856 81.792L9.69584 86.4247ZM13.8362 82.7186L12.8404 81.1743C12.4212 80.5052 11.8446 80.0419 11.2681 79.7846C10.6392 79.5272 10.0103 79.6301 9.38138 80.0419C8.75246 80.4537 8.38559 80.9685 8.33318 81.6376C8.28077 82.3068 8.49041 82.9759 8.9621 83.6451L9.95789 85.1893L13.8362 82.7186ZM7.9139 75.2548L6.3416 71.2913L7.18016 70.9825L8.75246 74.946L11.635 73.865L9.95789 69.6442L10.7964 69.3353L12.8404 74.4313L4.66448 77.5712L2.6205 72.4752L3.45905 72.1664L5.13617 76.3873L7.9139 75.2548ZM1.93917 66.1954L9.64343 64.4453L9.85307 65.3718L2.14881 67.1219L2.77773 69.7471L1.88676 69.953L0.471689 63.7761L1.36266 63.5702L1.93917 66.1954ZM3.45905 59.092L3.40665 56.4668C3.40665 55.5403 3.61628 54.8196 4.03556 54.3049C4.50725 53.7902 5.13617 53.5328 5.97473 53.5328C7.75667 53.4813 8.64764 54.4079 8.70005 56.3639L8.80487 59.9156L0 60.1729V59.1949L3.45905 59.092ZM7.86149 58.989L7.80908 56.3639C7.80908 55.6432 7.65185 55.18 7.33739 54.8711C7.02293 54.5623 6.60365 54.4079 6.02714 54.4593C4.87412 54.5108 4.29761 55.18 4.35002 56.4668L4.40243 59.092L7.86149 58.989ZM0.681329 45.6058L1.41507 42.5688C1.83435 40.7158 2.77773 39.9436 4.29761 40.2525C5.24099 40.4584 5.76509 41.0246 5.86991 41.9511C6.07955 41.4364 6.44642 41.0761 6.8657 40.8187C7.33739 40.6128 7.80908 40.5613 8.38559 40.6643C9.95789 41.0246 10.5344 42.157 10.0627 44.113L9.27656 47.4589L0.681329 45.6058ZM1.78194 44.8852L4.61207 45.5028L5.13617 43.2895C5.39822 42.0541 5.08376 41.3849 4.14038 41.179C3.7211 41.0761 3.35424 41.1276 3.03978 41.3335C2.72532 41.5393 2.46327 42.0026 2.30604 42.6718L1.78194 44.8852ZM5.45063 45.7087L8.59523 46.4294L9.22415 43.8557C9.53861 42.6203 9.11933 41.8482 8.07113 41.6423C7.59944 41.5393 7.18016 41.5908 6.81329 41.8482C6.44642 42.1056 6.18437 42.5174 6.07955 43.1865L5.45063 45.7087ZM14.0459 33.4064L13.6266 34.2815L7.33739 31.5019L11.5302 38.8627L11.3205 39.3774L3.30183 35.8257L3.66869 34.9507L9.95789 37.7303L5.76509 30.3695L5.97473 29.9062L14.0459 33.4064ZM21.4881 25.2221L20.9116 25.9942L19.6013 25.0677L15.3561 30.9872L16.6664 31.9137L16.0898 32.6858L13.9935 31.2445L14.6748 30.3695L10.1151 23.2661L10.4296 22.8028L18.7628 24.7073L19.3917 23.7808L21.4881 25.2221ZM11.7922 24.0896L15.3037 29.4944L18.1862 25.4794L11.7922 24.0896ZM18.8676 18.8908L21.9598 15.9567L22.5887 16.6259L19.4965 19.5599L21.6453 21.7218L24.9471 18.5819L25.576 19.2511L21.5405 23.0602L15.4609 16.8318L19.4965 13.0227L20.1254 13.6919L16.7712 16.7803L18.8676 18.8908ZM23.7941 11.2211C24.0562 10.0372 24.6851 9.1107 25.7333 8.44154C26.7815 7.77238 27.8821 7.56648 29.1399 7.82385C30.3453 8.08122 31.2887 8.69891 31.9701 9.72839C32.6514 10.7579 32.861 11.8388 32.599 13.0742C32.3369 14.2581 31.708 15.1846 30.6598 15.8538C29.6116 16.523 28.511 16.7289 27.3056 16.4715C26.1001 16.2141 25.1568 15.5964 24.4754 14.5669C23.7417 13.486 23.5321 12.405 23.7941 11.2211ZM28.8779 8.69891C27.9345 8.49301 27.0435 8.64743 26.205 9.16217C25.3664 9.67692 24.8947 10.3976 24.6851 11.3241C24.4754 12.2506 24.6851 13.1257 25.2092 13.9493C25.7333 14.7728 26.5194 15.2876 27.4628 15.4935C28.4062 15.6994 29.2971 15.545 30.0833 15.0302C30.9219 14.5155 31.446 13.7948 31.6032 12.8683C31.8128 11.9418 31.6032 11.0667 31.0791 10.2431C30.555 9.41955 29.8212 8.9048 28.8779 8.69891ZM46.3828 9.26512L45.4394 9.52249L43.2906 2.11023L38.8358 3.34561L40.9846 10.8093L40.0412 11.0667L37.6303 2.7794L43.9719 0.977804L46.3828 9.26512ZM48.4268 0.205693L51.2045 -0.000202926C52.3575 -0.103151 53.3009 0.102745 54.0346 0.617486C54.7684 1.13223 55.1876 1.85286 55.2925 2.83087C55.3449 3.80888 55.0828 4.58099 54.4015 5.25015C53.7202 5.86784 52.8292 6.22816 51.6762 6.3311L49.8942 6.48553L50.0515 8.80186L49.0557 8.85333L48.4268 0.205693ZM49.8418 5.61047L51.6762 5.45605C52.5147 5.40457 53.1437 5.1472 53.6678 4.73541C54.1919 4.32362 54.4015 3.70593 54.3491 2.98529C54.2967 2.21318 53.9822 1.69844 53.4057 1.33812C52.8292 0.977804 52.1479 0.874856 51.3093 0.92633L49.475 1.02928L49.8418 5.61047ZM59.7473 1.08075C60.7431 0.360115 61.8437 0.0512711 63.0491 0.205693C64.2546 0.360115 65.2504 0.92633 66.0365 1.90434C66.7702 2.88234 67.0847 3.9633 66.9275 5.1472C66.7702 6.3311 66.1937 7.30911 65.1979 8.08122C64.2022 8.80186 63.1015 9.1107 61.8961 8.95628C60.6907 8.80186 59.6949 8.23564 58.9088 7.25764C58.175 6.27963 57.8606 5.19867 58.0178 4.01477C58.175 2.7794 58.7515 1.80139 59.7473 1.08075ZM65.2504 2.3676C64.6738 1.59549 63.8877 1.1837 62.8919 1.08075C61.8961 0.977804 61.0576 1.1837 60.3238 1.74991C59.5901 2.31613 59.1184 3.13971 59.0136 4.11772C58.9088 5.09573 59.1184 5.97079 59.6949 6.7429C60.2714 7.51501 61.0576 7.9268 62.0533 8.02975C63.0491 8.1327 63.8877 7.9268 64.6738 7.36058C65.46 6.79437 65.8793 5.97079 65.9841 4.99278C66.0889 4.01477 65.8269 3.13971 65.2504 2.3676ZM74.4745 9.67692L72.6402 11.3756L71.6444 10.9123L78.6149 4.52951L79.139 4.73541L78.8245 14.1037L77.8287 13.6404L77.9336 11.1697L74.4745 9.67692ZM78.0908 6.27963L75.1558 9.00775L77.9336 10.2431L78.0908 6.27963ZM85.4806 8.02975L87.7342 9.62544C88.6776 10.2946 89.2541 11.0152 89.4637 11.8903C89.7258 12.7654 89.5161 13.5889 88.9396 14.4125C88.3631 15.1846 87.6294 15.6479 86.686 15.6994C85.795 15.7509 84.8517 15.442 83.9083 14.8243L82.4408 13.7948L81.0781 15.6479L80.292 15.0817L85.4806 8.02975ZM83.0697 13.0227L84.5896 14.1037C85.2709 14.5669 85.8999 14.8243 86.5812 14.8243C87.2625 14.8243 87.7866 14.5155 88.2583 13.8978C88.6776 13.2801 88.8348 12.6624 88.6252 12.0447C88.4155 11.427 87.9963 10.8608 87.3149 10.3976L85.795 9.3166L83.0697 13.0227ZM93.5517 15.6994C94.8095 15.7509 95.8577 16.1626 96.6963 17.0892C97.5349 17.9642 97.9541 19.0452 97.9017 20.2291C97.8493 21.4645 97.3776 22.4939 96.4867 23.3175C95.5957 24.1411 94.4951 24.5529 93.2897 24.5014C92.0318 24.45 90.9836 23.9867 90.1451 23.1116C89.3065 22.2366 88.8872 21.1556 88.9396 19.9717C88.9921 18.7363 89.4637 17.7069 90.3547 16.8833C91.2457 16.1112 92.3463 15.6994 93.5517 15.6994ZM97.0108 20.1776C97.0632 19.2511 96.6963 18.4275 96.0674 17.7069C95.3861 16.9862 94.5999 16.6259 93.6041 16.6259C92.6607 16.6259 91.7698 16.9348 91.036 17.6039C90.3023 18.2731 89.9354 19.0967 89.883 20.0232C89.8306 20.9497 90.1975 21.7733 90.8264 22.4939C91.5077 23.2146 92.3463 23.5749 93.2897 23.5749C94.233 23.5749 95.124 23.2661 95.8577 22.5969C96.5915 21.9277 96.9584 21.1042 97.0108 20.1776ZM98.8451 35.311L98.3734 34.4874L104.401 31.1416L99.1596 30.3695L101.151 25.5309L95.124 28.8767L94.6523 28.0531L102.304 23.7808L102.566 24.2441L100.313 29.7003L106.235 30.5754L106.497 31.0386L98.8451 35.311ZM102.461 38.2965L99.9457 38.1421L99.5789 37.1126L109.065 37.7303L109.222 38.245L102.042 44.3704L101.675 43.3409L103.614 41.6938L102.461 38.2965ZM107.493 38.6053L103.457 38.348L104.453 41.2305L107.493 38.6053ZM103.195 54.6138L103.143 53.6357L110.061 53.121L105.658 50.2385L109.589 46.7382L102.671 47.253L102.619 46.275L111.424 45.6058L111.476 46.172L107.021 50.1355L112 53.4298L112.052 53.9961L103.195 54.6138ZM105.396 58.8861L103.195 57.6507L103.352 56.6212L111.633 61.2539L111.581 61.7686L102.409 64.2394L102.566 63.2099L105.029 62.5408L105.396 58.8861ZM109.746 61.3054L106.235 59.3494L105.868 62.3349L109.746 61.3054ZM110.375 68.3573L109.642 70.9825C109.327 72.0634 108.803 72.8356 108.069 73.4018C107.336 73.9165 106.445 74.0709 105.501 73.7621C104.558 73.5047 103.876 72.9385 103.51 72.1149C103.143 71.2913 103.143 70.3133 103.405 69.2324L103.876 67.5337L101.623 66.916L101.885 65.9895L110.375 68.3573ZM104.767 67.7911L104.243 69.5412C104.034 70.3133 104.034 71.034 104.243 71.6517C104.453 72.2693 104.977 72.6811 105.711 72.887C106.445 73.0929 107.073 72.99 107.598 72.5782C108.122 72.1664 108.489 71.6002 108.698 70.7766L109.222 69.0265L104.767 67.7911ZM96.3294 79.4757L99.6313 79.1669C100.208 79.1154 100.627 79.0124 100.837 78.9095C101.046 78.8065 101.256 78.5492 101.466 78.1889L102.095 76.9535L98.5307 75.1519L98.9499 74.2768L106.811 78.1889L106.392 79.0639L102.933 77.3653L102.357 78.4977C102.147 78.858 102.095 79.1669 102.147 79.4242C102.199 79.6816 102.357 80.0419 102.671 80.5567L104.243 83.2333L103.719 84.2113L101.937 81.1743C101.675 80.7626 101.518 80.4022 101.413 80.1964C101.308 79.9904 101.256 79.7331 101.308 79.5787C101.151 79.7331 100.942 79.836 100.679 79.939C100.417 79.9904 100.051 80.0934 99.474 80.1449L95.7529 80.5052L96.3294 79.4757ZM97.8493 85.7555L95.1764 89.1014L94.4427 88.5351L97.1156 85.1893L94.7047 83.3363L91.8746 86.888L91.1409 86.3218L94.5475 81.9979L101.466 87.2998L98.059 91.6236L97.3252 91.0574L100.155 87.5057L97.8493 85.7555ZM92.9752 95.3812L87.5246 89.822L88.2583 89.1528L93.7089 94.7635L95.7005 92.9104L96.3294 93.5796L91.7174 97.9549L91.0884 97.2857L92.9752 95.3812ZM78.4053 96.3077L79.2438 95.793L82.9649 101.455L83.5414 93.0649L84.0131 92.756L88.7824 100.014L87.9439 100.529L84.2227 94.8664L83.6462 103.308L83.1745 103.617L78.4053 96.3077ZM69.9148 99.8594L70.8058 99.4991L72.2733 103.154L76.6233 101.455L75.1558 97.8005L76.0468 97.4401L79.2962 105.47L78.4053 105.83L76.9902 102.279L72.6402 103.977L74.0552 107.529L73.1643 107.889L69.9148 99.8594ZM67.7136 108.353L66.2986 100.734L67.2419 100.58L68.8142 109.073L63.416 110.051L63.2588 109.176L67.7136 108.353Z" fill="white"/>
<path fill-rule="evenodd" clip-rule="evenodd" d="M55.6069 105.264C56.4979 105.264 57.284 105.985 57.284 106.912C57.284 107.787 56.5503 108.559 55.6069 108.559C54.6635 108.559 53.9298 107.838 53.9298 106.912C53.9298 105.985 54.716 105.264 55.6069 105.264Z" fill="white"/>
</svg>
