<svg width="16" height="15" viewBox="0 0 16 15" fill="none" xmlns="http://www.w3.org/2000/svg">
<g clip-path="url(#clip0_151_50)">
<path d="M14.8375 1.02573L0.626521 6.67089C0.626521 6.67089 -0.0476661 6.90207 0.00541955 7.33218C0.0585051 7.76228 0.605287 7.96121 0.605287 7.96121L4.17795 9.18164L4.18326 9.18702V9.18164L12.7619 3.66013C12.7619 3.66013 13.2556 3.35368 13.2397 3.66013C13.2397 3.66013 13.3299 3.7139 13.0645 3.96659C12.799 4.21927 6.32261 10.1117 6.32261 10.1117L6.31199 10.2247L12.1408 14.7515C13.1123 15.1816 13.4679 14.2838 13.4679 14.2838L16.0001 1.36444C16.0001 0.50422 14.8322 1.02573 14.8375 1.02573Z" fill="white"/>
<path d="M8.54148 11.9559L6.23225 14.0903C6.23225 14.0903 6.05176 14.2301 5.85535 14.144L6.29596 10.1817" fill="white"/>
</g>
<defs>
<clipPath id="clip0_151_50">
<rect width="16" height="14" fill="white" transform="translate(0 0.869843)"/>
</clipPath>
</defs>
</svg>
