<svg width="56" height="39" viewBox="0 0 56 39" fill="none" xmlns="http://www.w3.org/2000/svg">
<g clip-path="url(#clip0_1_868)">
<path fill-rule="evenodd" clip-rule="evenodd" d="M25.8644 39H19.0621V5.28455H16.0301C10.467 5.28455 7.56686 8.05894 7.56686 12.2337C7.56686 16.937 9.57062 19.1301 13.7363 21.9309L17.1638 24.2561L7.32957 39.0528H0L8.85876 25.8415C3.77024 22.1687 0.896422 18.6016 0.896422 12.6037C0.896422 5.09959 6.11676 0 16.0038 0H25.838V39H25.8644Z" fill="#FC3F1D"/>
<path d="M53.7317 13.0793L43.2119 12.3131C42.5791 12.2602 42.0518 11.8639 41.8145 11.2826L37.807 1.50615C37.3851 0.502088 36.4624 -0.0263672 35.5396 -0.0263672C34.6168 -0.0263672 33.694 0.475665 33.2722 1.50615L29.2646 11.309C29.1855 11.5468 29.0273 11.7318 28.8691 11.8903V36.622L34.5641 33.0814C35.0914 32.7379 35.7769 32.7379 36.3042 33.0814L45.2948 38.6301C45.7166 38.8944 46.1384 39.0265 46.5603 39.0265C47.9577 39.0265 49.2232 37.6525 48.8541 36.0143L46.3757 25.8415C46.2175 25.2074 46.4548 24.5732 46.9294 24.1505L55.1554 17.4127C56.8164 15.933 55.8673 13.2114 53.7317 13.0793Z" fill="#FFCC00"/>
</g>
<defs>
<clipPath id="clip0_1_868">
<rect width="56" height="39" fill="white"/>
</clipPath>
</defs>
</svg>
